<svg xmlns="http://www.w3.org/2000/svg" xmlns:xlink="http://www.w3.org/1999/xlink" width="499" height="306.313" viewBox="0 0 499 306.313">
  <defs>
    <clipPath id="clip-path">
      <rect id="Rectangle_311" data-name="Rectangle 311" width="499" height="306.313" transform="translate(0 0)" fill="#eaeaea"/>
    </clipPath>
    <clipPath id="clip-path-2">
      <rect id="Rectangle_305" data-name="Rectangle 305" width="234.895" height="114.366" fill="none"/>
    </clipPath>
    <clipPath id="clip-path-3">
      <rect id="Rectangle_310" data-name="Rectangle 310" width="310.036" height="338.496" transform="translate(0 0)" fill="none"/>
    </clipPath>
  </defs>
  <g id="Group_197" data-name="Group 197" transform="translate(-535.326 -1330.606)">
    <g id="Rectangle_299" data-name="Rectangle 299" transform="translate(535.326 1330.606)" fill="#fff" stroke="#325691" stroke-width="4">
      <rect width="499" height="306.313" stroke="none"/>
      <rect x="2" y="2" width="495" height="302.313" fill="none"/>
    </g>
    <g id="Mask_Group_34" data-name="Mask Group 34" transform="translate(535.326 1330.606)" clip-path="url(#clip-path)">
      <g id="Group_131" data-name="Group 131" transform="translate(217.909 95.973)">
        <rect id="Rectangle_300" data-name="Rectangle 300" width="28.3" height="63.911" transform="translate(184.894 47.923)" fill="#fff"/>
        <g id="Group_130" data-name="Group 130">
          <g id="Group_129" data-name="Group 129" clip-path="url(#clip-path-2)">
            <path id="Path_1940" data-name="Path 1940" d="M326.443,142.554h-28.3a2.531,2.531,0,0,1-2.532-2.532V76.112a2.531,2.531,0,0,1,2.532-2.532h28.3a2.531,2.531,0,0,1,2.531,2.532v63.911a2.531,2.531,0,0,1-2.531,2.532m-25.769-5.064h23.237V78.644H300.674Z" transform="translate(-113.248 -28.188)" fill="#1a1311"/>
            <rect id="Rectangle_301" data-name="Rectangle 301" width="28.3" height="109.303" transform="translate(143.296 2.532)" fill="#e0e0e0"/>
            <path id="Path_1941" data-name="Path 1941" d="M259.013,114.366h-28.3a2.531,2.531,0,0,1-2.531-2.532V2.532A2.532,2.532,0,0,1,230.712,0h28.3a2.532,2.532,0,0,1,2.532,2.532v109.3a2.531,2.531,0,0,1-2.532,2.532M233.244,109.3h23.237V5.064H233.244Z" transform="translate(-87.416)" fill="#1a1311"/>
            <rect id="Rectangle_302" data-name="Rectangle 302" width="28.3" height="48.593" transform="translate(101.699 63.241)" fill="#fff"/>
            <path id="Path_1942" data-name="Path 1942" d="M191.583,152.067h-28.3a2.531,2.531,0,0,1-2.531-2.532V100.942a2.531,2.531,0,0,1,2.531-2.532h28.3a2.531,2.531,0,0,1,2.531,2.532v48.593a2.531,2.531,0,0,1-2.531,2.532M165.814,147h23.237v-43.53H165.814Z" transform="translate(-61.584 -37.701)" fill="#1a1311"/>
            <rect id="Rectangle_303" data-name="Rectangle 303" width="28.3" height="71.094" transform="translate(60.101 40.741)" fill="#e0e0e0"/>
            <path id="Path_1943" data-name="Path 1943" d="M124.152,138.094h-28.3a2.531,2.531,0,0,1-2.532-2.532V64.469a2.531,2.531,0,0,1,2.532-2.532h28.3a2.531,2.531,0,0,1,2.531,2.532v71.094a2.531,2.531,0,0,1-2.531,2.532m-25.769-5.064H121.62V67H98.383Z" transform="translate(-35.751 -23.728)" fill="#1a1311"/>
            <rect id="Rectangle_304" data-name="Rectangle 304" width="28.3" height="20.458" transform="translate(18.503 91.377)" fill="#fff"/>
            <path id="Path_1944" data-name="Path 1944" d="M56.722,169.539h-28.3a2.531,2.531,0,0,1-2.531-2.532V146.549a2.532,2.532,0,0,1,2.531-2.532h28.3a2.532,2.532,0,0,1,2.532,2.532v20.458a2.531,2.531,0,0,1-2.532,2.532m-25.768-5.064H54.191V149.081H30.954Z" transform="translate(-9.919 -55.173)" fill="#1a1311"/>
            <line id="Line_75" data-name="Line 75" x2="229.831" transform="translate(2.532 111.834)" fill="#fff"/>
            <path id="Path_1945" data-name="Path 1945" d="M232.363,182.244H2.531a2.532,2.532,0,0,1,0-5.064H232.363a2.532,2.532,0,1,1,0,5.064" transform="translate(0 -67.877)" fill="#1a1311"/>
          </g>
        </g>
      </g>
      <g id="Group_133" data-name="Group 133" transform="translate(43.016 16.284)">
        <g id="Group_132" data-name="Group 132" transform="translate(0 0)" clip-path="url(#clip-path-3)">
          <path id="Path_1946" data-name="Path 1946" d="M378.6,479.221s18.741.375,26.773,3.387,25.254,8.69,32.952,13.71,16.1,24.973,22.726,44.348c7.872,23.01,23.666,69.334,20.386,90.831-4.148,27.2-56.517,12.111-56.517,12.111v35.41H281.61s.385-29.2-1.273-71.136c-1.913-48.38-5.6-110.716-.3-115.961,12.008-11.886,59.411-14.372,71.459-14.707s27.108,2.008,27.108,2.008" transform="translate(-193.139 -332.36)" fill="#e0e0e0"/>
          <path id="Path_1947" data-name="Path 1947" d="M420.047,676.265H276.736a2.124,2.124,0,0,1-2.124-2.152c0-.292.365-29.637-1.272-71.024-.291-7.363-.631-15.218-.959-22.814-.931-21.543-1.894-43.819-2.058-61.181-.249-26.339,1.46-31.695,3.343-33.559,5.448-5.393,17.865-9.524,36.905-12.278a341.436,341.436,0,0,1,35.989-3.043c11.621-.323,25.695,1.758,27.352,2.011,1.9.043,19.343.522,27.334,3.519,1.5.562,3.288,1.206,5.361,1.952,9.094,3.273,21.549,7.757,28.005,11.967,6.858,4.473,14.791,19.761,23.576,45.44,7.742,22.629,23.851,69.717,20.476,91.839a18.351,18.351,0,0,1-8.515,13.229c-13.707,8.775-39.522,3.416-47.978,1.318V674.14a2.124,2.124,0,0,1-2.125,2.124m-141.167-4.249H417.922V638.731a2.125,2.125,0,0,1,2.712-2.042c.215.062,14.481,4.1,28.321,4.1,7.05,0,13.987-1.046,18.9-4.2a14.085,14.085,0,0,0,6.6-10.29c3.218-21.091-12.664-67.513-20.3-89.823-8.232-24.063-16-39.425-21.877-43.257-6.041-3.94-18.728-8.506-27.123-11.528-2.087-.751-3.889-1.4-5.414-1.972-7.6-2.851-25.886-3.248-26.07-3.252a2.111,2.111,0,0,1-.284-.025c-.149-.023-15.019-2.308-26.723-1.984-21.318.592-60.055,4.227-70.023,14.093-.1.118-1.1,1.467-1.663,9.36-.374,5.214-.51,12.252-.417,21.517.174,17.235,1.128,39.311,2.051,60.66.328,7.6.668,15.458.96,22.829,1.389,35.108,1.343,61.588,1.294,69.1" transform="translate(-188.265 -327.484)" fill="#1a1311"/>
          <path id="Path_1948" data-name="Path 1948" d="M446.138,428.584l1.822,25.87h51.375l-1.093-25.505Z" transform="translate(-310.739 -298.513)" fill="#fff"/>
          <path id="Path_1949" data-name="Path 1949" d="M494.459,451.7H443.084a2.125,2.125,0,0,1-2.119-1.975l-1.822-25.87a2.125,2.125,0,0,1,2.119-2.274h.015l52.1.365a2.124,2.124,0,0,1,2.107,2.033l1.093,25.505a2.124,2.124,0,0,1-2.122,2.215m-49.395-4.249h47.177l-.911-21.27-47.787-.334Z" transform="translate(-305.863 -293.637)" fill="#1a1311"/>
          <path id="Path_1950" data-name="Path 1950" d="M455.721,521.036l50.288-1.209-30.856,77.482-10.688-43.723Z" transform="translate(-317.414 -362.064)" fill="#fff"/>
          <path id="Path_1951" data-name="Path 1951" d="M470.28,594.558c-.049,0-.1,0-.149-.005a2.124,2.124,0,0,1-1.916-1.614l-10.682-43.7-8.738-32.526a2.125,2.125,0,0,1,2-2.675l50.288-1.209a2.124,2.124,0,0,1,2.025,2.91L472.252,593.22a2.124,2.124,0,0,1-1.973,1.339M453.6,518.22l8.044,29.939c0,.016.008.031.012.047l9.11,37.267,27.207-68.32Z" transform="translate(-312.539 -357.189)" fill="#1a1311"/>
          <path id="Path_1952" data-name="Path 1952" d="M504.965,517.426c2.55.365,24.412.365,24.412.365l-9.109,14.574H509.337Z" transform="translate(-351.713 -360.392)" fill="#04427d"/>
          <path id="Path_1953" data-name="Path 1953" d="M515.393,529.614H504.462a2.124,2.124,0,0,1-2.039-1.528l-4.372-14.939a2.125,2.125,0,0,1,2.339-2.7c1.749.25,15.717.343,24.112.343a2.125,2.125,0,0,1,1.8,3.25l-9.109,14.574a2.123,2.123,0,0,1-1.8,1m-9.339-4.249h8.161l6.457-10.331c-4.9-.013-13.075-.057-17.7-.2Z" transform="translate(-346.838 -355.516)" fill="#1a1311"/>
          <path id="Path_1954" data-name="Path 1954" d="M508.366,566.649H519.3l5.216,40.924-14.574,25.748s-7.044-26.113-6.316-28.663,4.743-38.01,4.743-38.01" transform="translate(-350.741 -394.676)" fill="#04427d"/>
          <path id="Path_1955" data-name="Path 1955" d="M505.051,630.572A2.124,2.124,0,0,1,503,629c-.017-.066-1.787-6.632-3.443-13.425-3.473-14.241-3.092-15.577-2.864-16.375.508-1.845,3.137-24.082,4.674-37.665a2.125,2.125,0,0,1,2.111-1.886h10.931a2.124,2.124,0,0,1,2.107,1.856l5.216,40.925a2.122,2.122,0,0,1-.258,1.315L506.9,629.494a2.125,2.125,0,0,1-1.848,1.078m-4.245-30.312c-.13,1.839,2.241,12.141,4.963,22.6l11.659-20.6-4.89-38.368h-7.163c-.978,8.593-3.839,33.411-4.568,36.361m-.029.107h0" transform="translate(-345.853 -389.801)" fill="#1a1311"/>
          <path id="Path_1956" data-name="Path 1956" d="M427.642,428.584l28.784,25.262-17.975,17.733s-19.918-28.785-18.825-29.514,8.016-13.481,8.016-13.481" transform="translate(-292.243 -298.512)" fill="#fff"/>
          <path id="Path_1957" data-name="Path 1957" d="M433.538,468.829c-.066,0-.132,0-.2-.009a2.123,2.123,0,0,1-1.549-.906c-.048-.069-4.863-7.031-9.576-14.112-10-15.017-9.841-15.824-9.628-16.94a2.213,2.213,0,0,1,.769-1.3c.883-1.021,4.481-7.287,7.506-12.86a2.124,2.124,0,0,1,3.268-.583l28.784,25.262a2.124,2.124,0,0,1,.091,3.109L435.03,468.217a2.124,2.124,0,0,1-1.492.612m-16.475-31.173c1.685,3.328,9.289,14.864,16.786,25.758L448.4,449.063l-25.075-22.006a121.465,121.465,0,0,1-6.258,10.6m-3.529-2.232h0Z" transform="translate(-287.33 -293.638)" fill="#1a1311"/>
          <path id="Path_1958" data-name="Path 1958" d="M564.3,429.785l-23.319,24.9,15.789,19.675s14.7-29.027,15.06-30.121-7.53-14.453-7.53-14.453" transform="translate(-376.799 -299.349)" fill="#fff"/>
          <path id="Path_1959" data-name="Path 1959" d="M551.9,471.607a2.125,2.125,0,0,1-1.657-.795L534.45,451.137a2.125,2.125,0,0,1,.107-2.782l23.319-24.9a2.125,2.125,0,0,1,3.38.371c8.387,14.194,8.046,15.217,7.716,16.206-.373,1.12-10.74,21.638-15.18,30.408a2.124,2.124,0,0,1-1.675,1.154,2.162,2.162,0,0,1-.22.012m-12.979-21.693,12.572,15.667c5.206-10.3,11.879-23.559,13.247-26.456-.623-1.607-3.13-6.22-5.708-10.684Z" transform="translate(-371.924 -294.473)" fill="#1a1311"/>
          <path id="Path_1960" data-name="Path 1960" d="M393.679,402.155s-1.579,26.355-.486,36.922l-21.127,19.195s-6.793-22.9-6.064-24.36,15.046-25.441,15.046-25.441Z" transform="translate(-254.886 -280.104)" fill="#e0e0e0"/>
          <path id="Path_1961" data-name="Path 1961" d="M367.188,455.52a2.124,2.124,0,0,1-2.037-1.52c-.017-.058-1.724-5.817-3.318-11.68-3.427-12.6-3.048-13.357-2.609-14.235.743-1.485,13.652-23.118,15.121-25.579a2.127,2.127,0,0,1,.874-.811l12.631-6.316a2.125,2.125,0,0,1,3.071,2.027c-.016.262-1.556,26.3-.493,36.576a2.123,2.123,0,0,1-.685,1.791l-21.127,19.195a2.124,2.124,0,0,1-1.429.552M363.2,429.659c.162,2.124,2.519,11.076,5.07,19.881l17.831-16.2c-.7-8.7,0-25.179.377-32.525l-8.8,4.4c-5.38,9.015-13.126,22.044-14.474,24.443m-.008-.249h0" transform="translate(-250.007 -275.228)" fill="#1a1311"/>
          <path id="Path_1962" data-name="Path 1962" d="M623.242,410.576S624.7,426,624.375,431.021s-2.955,12.712-2.955,12.712l18.218,17.489s8.745-12.024,8.745-14.21-8.872-24.66-13.609-29.761a25.418,25.418,0,0,0-11.532-6.675" transform="translate(-432.825 -285.97)" fill="#e0e0e0"/>
          <path id="Path_1963" data-name="Path 1963" d="M634.763,458.471a2.124,2.124,0,0,1-1.471-.592L615.074,440.39a2.124,2.124,0,0,1-.539-2.22c.025-.074,2.544-7.487,2.846-12.162.31-4.794-1.114-19.955-1.129-20.108a2.125,2.125,0,0,1,2.594-2.27,27.459,27.459,0,0,1,12.61,7.3c4.873,5.247,14.177,28.222,14.177,31.207,0,.972-.365,2.557-4.729,9.1-2.185,3.277-4.4,6.326-4.422,6.356a2.125,2.125,0,0,1-1.53.866c-.063.006-.126.008-.188.008m-15.785-20.223,15.487,14.868c3.26-4.613,6.474-9.595,6.9-11.028-.545-2.982-8.755-23.671-13.024-28.267a21.871,21.871,0,0,0-7.57-5.062c.412,4.859,1.089,13.8.849,17.523a59.079,59.079,0,0,1-2.642,11.966m22.409,3.98h0Zm.009-.259h0" transform="translate(-427.949 -281.094)" fill="#1a1311"/>
          <path id="Path_1964" data-name="Path 1964" d="M542.031,519.827l10.924,19.67s-4.018,4.9-16.066,23.978-25.77,44.51-25.77,44.51l-3.681-6.693s14.769-45.592,21.6-57.418c7.854-13.6,13-24.048,13-24.048" transform="translate(-353.435 -362.064)" fill="#e0e0e0"/>
          <path id="Path_1965" data-name="Path 1965" d="M506.244,605.234a2.125,2.125,0,0,1-1.862-1.1l-3.681-6.694a2.123,2.123,0,0,1-.16-1.679c.606-1.87,14.917-45.942,21.778-57.825,7.724-13.378,12.878-23.82,12.929-23.924a2.125,2.125,0,0,1,3.763-.093l10.924,19.67a2.124,2.124,0,0,1-.214,2.378c-.039.047-4.143,5.129-15.913,23.766-11.872,18.8-25.559,44.131-25.7,44.385a2.124,2.124,0,0,1-1.861,1.116Zm-1.376-9.035,1.368,2.488c4.171-7.6,14.63-26.417,23.981-41.223,9.035-14.305,13.572-20.676,15.328-23.031l-8.3-14.953c-2.172,4.22-6.157,11.774-11.241,20.58-6.125,10.608-19.051,49.778-21.132,56.139" transform="translate(-348.56 -357.188)" fill="#1a1311"/>
          <rect id="Rectangle_306" data-name="Rectangle 306" width="40.08" height="13.846" transform="translate(99.455 212.417)" fill="#e0e0e0"/>
          <path id="Path_1966" data-name="Path 1966" d="M362.909,711.007H322.829a2.124,2.124,0,0,1-2.124-2.124V695.036a2.124,2.124,0,0,1,2.124-2.124h40.079a2.124,2.124,0,0,1,2.124,2.124v13.846a2.124,2.124,0,0,1-2.124,2.124m-37.955-4.249h35.831v-9.6H324.954Z" transform="translate(-223.374 -482.619)" fill="#1a1311"/>
          <rect id="Rectangle_307" data-name="Rectangle 307" width="40.08" height="26.598" transform="translate(99.455 226.263)" fill="#e0e0e0"/>
          <path id="Path_1967" data-name="Path 1967" d="M362.909,769.381H322.829a2.124,2.124,0,0,1-2.124-2.125v-26.6a2.124,2.124,0,0,1,2.124-2.124h40.079a2.124,2.124,0,0,1,2.124,2.124v26.6a2.124,2.124,0,0,1-2.124,2.125m-37.955-4.249h35.831V742.783H324.954Z" transform="translate(-223.374 -514.395)" fill="#1a1311"/>
          <path id="Path_1968" data-name="Path 1968" d="M620.21,579.151a3.1,3.1,0,1,1-3.1-3.1,3.1,3.1,0,0,1,3.1,3.1" transform="translate(-427.668 -401.227)" fill="#1a1311"/>
          <line id="Line_76" data-name="Line 76" y2="39.351" transform="translate(162.449 307.151)" fill="#e0e0e0"/>
          <path id="Path_1969" data-name="Path 1969" d="M530.393,1048.659a2.124,2.124,0,0,1-2.124-2.125v-39.351a2.124,2.124,0,1,1,4.249,0v39.351a2.125,2.125,0,0,1-2.124,2.125" transform="translate(-367.944 -700.032)" fill="#1a1311"/>
          <path id="Path_1970" data-name="Path 1970" d="M375.178,273.534c1.924,5.722.134,11.487-4,12.877s-9.043-2.122-10.967-7.845-.134-11.487,4-12.876,9.043,2.122,10.967,7.844" transform="translate(-250.352 -184.844)" fill="#fff"/>
          <path id="Path_1971" data-name="Path 1971" d="M364.413,283.986a9.749,9.749,0,0,1-5.658-1.961,16.189,16.189,0,0,1-5.721-17.01,9.014,9.014,0,0,1,5.622-6.2c5.239-1.761,11.364,2.357,13.658,9.18h0c2.294,6.823-.1,13.807-5.335,15.568a8.021,8.021,0,0,1-2.567.42m-3.206-21.334a3.734,3.734,0,0,0-1.2.192,4.9,4.9,0,0,0-2.919,3.43,11.966,11.966,0,0,0,4.134,12.294,4.9,4.9,0,0,0,4.4.97c2.964-1,4.183-5.662,2.662-10.186-1.323-3.934-4.361-6.7-7.08-6.7" transform="translate(-245.475 -179.985)" fill="#1a1311"/>
          <path id="Path_1972" data-name="Path 1972" d="M639.567,273.534c-1.925,5.722-.134,11.487,4,12.877s9.043-2.122,10.967-7.845.134-11.487-4-12.876-9.042,2.122-10.967,7.844" transform="translate(-444.926 -184.844)" fill="#fff"/>
          <path id="Path_1973" data-name="Path 1973" d="M640.576,283.986a8.021,8.021,0,0,1-2.566-.42,9.014,9.014,0,0,1-5.622-6.2,15.4,15.4,0,0,1,.288-9.37c2.295-6.823,8.419-10.942,13.658-9.18a9.013,9.013,0,0,1,5.622,6.2,16.188,16.188,0,0,1-5.721,17.01,9.75,9.75,0,0,1-5.658,1.961m3.206-21.334c-2.719,0-5.757,2.766-7.08,6.7a11.13,11.13,0,0,0-.257,6.756,4.37,4.37,0,0,0,7.317,2.461,11.965,11.965,0,0,0,4.135-12.294,4.9,4.9,0,0,0-2.919-3.43,3.742,3.742,0,0,0-1.2-.192" transform="translate(-440.047 -179.985)" fill="#1a1311"/>
          <path id="Path_1974" data-name="Path 1974" d="M398.763,130.493c-2.388,9.775-2.2,24.891-1.421,38.777,1.935,34.651,17.4,45.088,40.558,45.088,25.748,0,33.577-18.319,35.829-40.314,1.207-11.786,4.5-27.763,1.418-40.967S463.2,102.42,430.6,104.447c-20.514,1.276-27.524,8.387-31.839,26.046" transform="translate(-276.388 -72.635)" fill="#fff"/>
          <path id="Path_1975" data-name="Path 1975" d="M433.042,211.607c-13.1,0-22.829-3.325-29.731-10.165-7.754-7.684-11.989-19.764-12.948-36.929-1.02-18.262-.536-31.15,1.479-39.4,2.443-10,5.592-16.065,10.529-20.279,5.19-4.43,12.358-6.707,23.241-7.384,25.949-1.614,41.68,8.57,46.745,30.268,2.54,10.879.951,23.178-.45,34.03-.349,2.7-.679,5.256-.923,7.636-1.332,13.015-4.444,22.651-9.513,29.458-6.307,8.47-15.872,12.764-28.43,12.764M430.879,101.53q-2.424,0-5,.161c-9.9.616-16.3,2.582-20.747,6.375-4.205,3.59-6.945,8.989-9.16,18.056-1.914,7.836-2.361,20.317-1.364,38.155.9,16.067,4.723,27.237,11.7,34.148,6.066,6.012,14.813,8.934,26.74,8.934,20.6,0,31-11.845,33.715-38.406.249-2.437.583-5.017.936-7.748,1.356-10.494,2.892-22.388.527-32.519-4.257-18.236-16.494-27.154-37.341-27.154m-36.973,24.087h0Z" transform="translate(-271.531 -67.759)" fill="#1a1311"/>
          <path id="Path_1976" data-name="Path 1976" d="M388.023,234.893s-.457,7.629-.243,17.732c.255,12.073,2.672,30.363,2.672,30.363a172.019,172.019,0,0,1-7.206-28.42,153.453,153.453,0,0,1-1.538-17Z" transform="translate(-265.862 -163.605)" fill="#bdbebf"/>
          <path id="Path_1977" data-name="Path 1977" d="M385.576,280.238a2.125,2.125,0,0,1-1.993-1.391,172.44,172.44,0,0,1-7.309-28.811,135.455,135.455,0,0,1-1.47-15.527c-.035-.755-.062-1.351-.087-1.627A2.124,2.124,0,0,1,376,230.733l6.316-2.672a2.124,2.124,0,0,1,2.948,2.083c0,.076-.448,7.67-.24,17.561.25,11.815,2.63,29.948,2.654,30.13a2.126,2.126,0,0,1-2.107,2.4m-6.54-46.174c0,.08.008.164.012.25a131.569,131.569,0,0,0,1.419,15.038q.228,1.394.476,2.753c-.077-1.489-.133-2.936-.162-4.309-.129-6.07-.015-11.3.1-14.511Z" transform="translate(-260.987 -158.73)" fill="#1a1311"/>
          <path id="Path_1978" data-name="Path 1978" d="M639.7,219.153a211.325,211.325,0,0,1,1.619,21.7c.243,12.348-.7,26.158-1.457,28.987,0,0,6.315-22.1,7.044-27.206s1.093-20.04,1.093-20.04Z" transform="translate(-445.553 -152.642)" fill="#bdbebf"/>
          <path id="Path_1979" data-name="Path 1979" d="M634.983,267.089a2.127,2.127,0,0,1-2.054-2.672c.636-2.386,1.636-15.7,1.386-28.4a210.929,210.929,0,0,0-1.6-21.454,2.124,2.124,0,0,1,2.918-2.25l8.3,3.441a2.124,2.124,0,0,1,1.31,2.014c-.015.615-.376,15.123-1.114,20.289-.741,5.185-6.845,26.58-7.1,27.489a2.125,2.125,0,0,1-2.041,1.541m2.373-49.461c.435,4.028,1.063,10.931,1.208,18.307.049,2.486.05,5.075.013,7.644.668-2.682,1.175-4.915,1.347-6.122.571-4,.92-14.476,1.032-18.337Z" transform="translate(-440.678 -147.766)" fill="#1a1311"/>
          <path id="Path_1980" data-name="Path 1980" d="M360.736,107.008s-9.109,1.093-9.474-3.644,6.923-10.08,6.923-10.08S357.821,39.6,403.366,39.6s44.452,48.824,44.452,48.824,7.287,2.186,5.465,8.016S448.547,103,448.547,103a31.081,31.081,0,0,0-1.457-5.466c-.729-1.457-4.737-4.372-10.2-4.372s-10.688,2.186-13.239,2.551-12.752-1.457-20.4-1.457-19.554,2.186-21.376,2.186-5.708-2.186-11.174-1.458-12.874,5.222-11.781,7.044a21.445,21.445,0,0,1,1.822,4.98" transform="translate(-244.648 -27.582)" fill="#04427d"/>
          <path id="Path_1981" data-name="Path 1981" d="M353.72,104.371c-2.229,0-5.467-.327-7.5-2a5.237,5.237,0,0,1-1.95-3.722c-.371-4.825,4.771-9.538,6.931-11.293.141-5.251,1.6-28.1,16.082-42.679,7.96-8.014,18.46-12.078,31.209-12.078,13.481,0,24.367,4.142,32.356,12.312C443.47,57.822,444.911,76.651,445.057,82.1a10.544,10.544,0,0,1,4.938,4.323,7.376,7.376,0,0,1,.443,5.777,14.713,14.713,0,0,1-3.614,6.37,6.238,6.238,0,0,1-2.635,1.616,2.125,2.125,0,0,1-2.605-1.681,27.792,27.792,0,0,0-1.267-4.9c-.366-.643-3.51-3.2-8.3-3.2a35.514,35.514,0,0,0-9.44,1.684,30.211,30.211,0,0,1-3.5.846c-1.392.2-3.858-.05-8.1-.506-3.855-.415-8.652-.93-12.606-.93a135.818,135.818,0,0,0-16.542,1.615c-2.761.386-4.12.571-4.833.571a11.337,11.337,0,0,1-2.971-.592,18.715,18.715,0,0,0-7.923-.884,20.255,20.255,0,0,0-9.85,4.562,25.183,25.183,0,0,1,1.68,4.879,2.124,2.124,0,0,1-1.817,2.587,21.211,21.211,0,0,1-2.394.129m44.772-67.52c-11.567,0-21.047,3.636-28.178,10.807-14.85,14.933-14.88,40.481-14.878,40.738a2.127,2.127,0,0,1-.868,1.726c-2.065,1.521-6.267,5.53-6.061,8.2a.99.99,0,0,0,.407.762,7.77,7.77,0,0,0,4.136,1.022,11.023,11.023,0,0,0-.831-1.864,3.035,3.035,0,0,1-.053-2.976c1.52-3.156,8.625-6.634,13.375-7.267a22.7,22.7,0,0,1,9.643,1.008,11.509,11.509,0,0,0,1.812.431c.449,0,2.379-.27,4.245-.53a138.775,138.775,0,0,1,17.131-1.656,129.817,129.817,0,0,1,13.06.954,52.449,52.449,0,0,0,7.043.524A28.3,28.3,0,0,0,421.43,88a39.529,39.529,0,0,1,10.583-1.84c6.087,0,10.94,3.221,12.1,5.547a14.142,14.142,0,0,1,.846,2.436,13.685,13.685,0,0,0,1.42-3.212,3.1,3.1,0,0,0-.134-2.505c-.841-1.6-3.116-2.6-3.922-2.844a2.135,2.135,0,0,1-1.505-2.08c0-.217.3-22.029-13.03-35.639-7.157-7.308-17.014-11.013-29.3-11.013" transform="translate(-239.774 -22.707)" fill="#1a1311"/>
          <path id="Path_1982" data-name="Path 1982" d="M513.469,296.423c-3.473,13.016-4.912,13.875-4.645,15.827s5.881,5.881,5.881,5.881" transform="translate(-354.379 -206.461)" fill="#fff"/>
          <path id="Path_1983" data-name="Path 1983" d="M509.822,315.378a2.114,2.114,0,0,1-1.216-.384c-5.268-3.687-6.588-6.023-6.767-7.333-.2-1.432.164-2.416.88-4.375A128.528,128.528,0,0,0,506.536,291a2.124,2.124,0,1,1,4.105,1.1,132.364,132.364,0,0,1-3.931,12.653,7.324,7.324,0,0,0-.669,2.257c.374.792,2.716,2.908,5,4.51a2.125,2.125,0,0,1-1.221,3.865m-3.774-8.293h0Z" transform="translate(-349.498 -201.584)" fill="#1a1311"/>
          <path id="Path_1984" data-name="Path 1984" d="M515.724,403.212c-5.2-4.933-15.97-5.474-21.854-.543" transform="translate(-343.985 -278.067)" fill="#fff"/>
          <path id="Path_1985" data-name="Path 1985" d="M510.848,400.465a2.116,2.116,0,0,1-1.461-.583c-4.548-4.313-14.151-4.543-19.029-.456a2.124,2.124,0,0,1-2.729-3.256c6.554-5.493,18.548-5.186,24.681.63a2.124,2.124,0,0,1-1.462,3.666" transform="translate(-339.109 -273.196)" fill="#1a1311"/>
          <path id="Path_1986" data-name="Path 1986" d="M374.1,204.778c5.223-3.887,12.267-4.372,15.91-5.1" transform="translate(-260.567 -139.077)" fill="#04427d"/>
          <path id="Path_1987" data-name="Path 1987" d="M369.229,202.026a2.125,2.125,0,0,1-1.27-3.829c4.717-3.51,10.677-4.473,14.62-5.111.825-.133,1.537-.248,2.142-.369a2.124,2.124,0,0,1,.833,4.166c-.682.136-1.467.263-2.3.4-3.747.605-8.878,1.435-12.762,4.325a2.115,2.115,0,0,1-1.266.42" transform="translate(-255.69 -134.2)" fill="#1a1311"/>
          <path id="Path_1988" data-name="Path 1988" d="M642.406,195.476c-3.531-1.914-8.882-2.385-11.781-2.105" transform="translate(-439.236 -134.632)" fill="#04427d"/>
          <path id="Path_1989" data-name="Path 1989" d="M637.527,192.731a2.112,2.112,0,0,1-1.01-.257c-3.108-1.684-8.049-2.1-10.565-1.858a2.124,2.124,0,1,1-.407-4.229c2.953-.285,8.854.107,13,2.352a2.125,2.125,0,0,1-1.014,3.992" transform="translate(-434.359 -129.763)" fill="#1a1311"/>
          <path id="Path_1990" data-name="Path 1990" d="M460.144,66.532,466.1,30.339s3.4-1.943,12.51-1.943,11.174,2.672,11.174,2.672l6.8,34.736" transform="translate(-320.495 -19.778)" fill="#04427d"/>
          <path id="Path_1991" data-name="Path 1991" d="M455.271,63.782a2.15,2.15,0,0,1-.347-.029,2.125,2.125,0,0,1-1.751-2.441l5.951-36.193a2.124,2.124,0,0,1,1.042-1.5c.4-.227,4.162-2.223,13.563-2.223,9.663,0,12.4,2.914,12.855,3.5a2.125,2.125,0,0,1,.4.891l6.8,34.736a2.124,2.124,0,1,1-4.169.816l-6.657-34c-.836-.527-3.356-1.7-9.234-1.7a33.658,33.658,0,0,0-10.6,1.329L457.364,62a2.125,2.125,0,0,1-2.094,1.78" transform="translate(-315.618 -14.902)" fill="#1a1311"/>
          <path id="Path_1992" data-name="Path 1992" d="M510.6,159.826c0,2.676-4.2,4.844-9.386,4.844s-9.386-2.169-9.386-4.844,4.2-4.844,9.386-4.844,9.386,2.169,9.386,4.844" transform="translate(-342.566 -107.946)" fill="#fff"/>
          <path id="Path_1993" data-name="Path 1993" d="M800.738,993.84a3.1,3.1,0,1,1-3.1-3.1,3.1,3.1,0,0,1,3.1,3.1" transform="translate(-553.407 -690.061)" fill="#1a1311"/>
          <path id="Path_1994" data-name="Path 1994" d="M834.255,661.9a3.1,3.1,0,1,1-3.969-1.851,3.1,3.1,0,0,1,3.969,1.851" transform="translate(-576.882 -459.597)" fill="#1a1311"/>
          <path id="Path_1995" data-name="Path 1995" d="M801.035,683.159a2.125,2.125,0,0,1-2.066-1.636L787.5,632.964a2.125,2.125,0,0,1,1.75-2.589l18.934-2.863a2.124,2.124,0,0,1,.635,4.2l-16.654,2.518,10.473,44.34,22.427-4.219a2.124,2.124,0,0,1,.785,4.176l-24.42,4.594a2.142,2.142,0,0,1-.395.037" transform="translate(-548.462 -437.051)" fill="#1a1311"/>
          <path id="Path_1996" data-name="Path 1996" d="M801.275,686.459a2.125,2.125,0,0,1-.727-4.122c1.012-.368,12.324-2.142,21.635-3.565a2.124,2.124,0,1,1,.642,4.2c-7.428,1.135-19.62,3.05-20.894,3.381a2.123,2.123,0,0,1-.657.1m.726-.129-.051.018.051-.018" transform="translate(-556.615 -472.754)" fill="#1a1311"/>
          <path id="Path_1997" data-name="Path 1997" d="M779.476,843.989s17.825.2,21.862,1.413" transform="translate(-542.912 -587.846)" fill="#e0e0e0"/>
          <path id="Path_1998" data-name="Path 1998" d="M796.463,842.65a2.137,2.137,0,0,1-.612-.09c-2.751-.826-14.23-1.244-21.275-1.324a2.124,2.124,0,1,1,.048-4.249c1.855.021,18.246.242,22.448,1.5a2.125,2.125,0,0,1-.61,4.16" transform="translate(-538.036 -582.969)" fill="#1a1311"/>
          <path id="Path_1999" data-name="Path 1999" d="M799.871,904.061a2.125,2.125,0,0,1-.633-4.153,13.2,13.2,0,0,0,3.578-2.3,36.214,36.214,0,0,0,8.114-10.427c2.793-5.062,3.288-12.658,1.324-20.322-2.02-7.883-6.241-14.713-11.58-18.738a2.124,2.124,0,1,1,2.557-3.393c12.822,9.666,18.478,31.71,11.418,44.5-6.793,12.313-13.848,14.634-14.144,14.727a2.123,2.123,0,0,1-.634.1" transform="translate(-555.638 -588.065)" fill="#1a1311"/>
          <path id="Path_2000" data-name="Path 2000" d="M383.472,433.479c1.884-8.209,4.743-12.682,5.349-16.921.285-1.992-1.172-6.513-1.994-10.711-1.2-6.143-1.221-9.794,2.162-9.911,3.9-.135,4.979,3.229,6.86,7.268,3.1,6.648,7.807,14.262,7.807,14.262s18.469-1.817,25.13-2.725c4.122-.562,8.986-.9,15.441-2.927,4.71-1.48,8.208-1.548,8.881,1.816.679,3.392-1.791,4.87-6.19,6.8a56.842,56.842,0,0,1-16.013,4s7.334.673,6.123,5.82-5.517,4.306-5.517,4.306a5.521,5.521,0,0,1,1.749,6.056c-1.137,3.071-3.633,2.557-3.633,2.557s1.884,5.08-1.749,7.8-12.514,5.45-18.839,5.248c-3.026-.1-9.016,2.422-9.016,2.422s-15.744,4.239-19.68-1.514c-2.083-3.045.667-4.344,1.649-9.251.134-.673.942-12.052,1.48-14.4" transform="translate(-264.383 -275.77)" fill="#fff"/>
          <path id="Path_2001" data-name="Path 2001" d="M384.376,457.393c-4.264,0-8.569-.88-10.664-3.941-1.977-2.89-.95-5.089-.043-7.03a16,16,0,0,0,1.355-3.8c.042-.311.164-1.749.283-3.14.432-5.068.849-9.75,1.217-11.352a74.741,74.741,0,0,1,3.406-10.665,29.888,29.888,0,0,0,1.91-6.082c.134-.935-.481-3.5-1.023-5.764-.331-1.382-.673-2.812-.952-4.238-.981-5.011-1.244-8.549.47-10.706a4.725,4.725,0,0,1,3.7-1.737c4.928-.172,6.649,3.631,8.316,7.306.175.387.355.784.544,1.188,2.315,4.969,5.6,10.567,7,12.913,4.355-.434,18.211-1.832,23.721-2.584.73-.1,1.483-.192,2.263-.288a66.688,66.688,0,0,0,12.829-2.56c4.3-1.352,7.119-1.422,9.136-.229a5.256,5.256,0,0,1,2.466,3.655c1.087,5.435-3.831,7.587-7.421,9.158a52.569,52.569,0,0,1-9.814,3.089q.135.162.26.334a5.9,5.9,0,0,1,.88,4.941,7.5,7.5,0,0,1-3.911,5.318,7.107,7.107,0,0,1,.068,5.295,5.881,5.881,0,0,1-3.067,3.515,8.231,8.231,0,0,1-3.033,7.808c-4.3,3.227-13.733,5.879-20.182,5.672-1.862-.059-5.972,1.353-8.125,2.257a2.119,2.119,0,0,1-.271.093,48.052,48.052,0,0,1-11.322,1.575m-.043-64.213-.148,0c-.129,0-.438.026-.524.134-.313.394-.681,1.859.374,7.246.262,1.339.594,2.724.914,4.064.752,3.139,1.345,5.618,1.1,7.355a33.119,33.119,0,0,1-2.151,7.005,70.11,70.11,0,0,0-3.231,10.091c-.331,1.442-.847,7.5-1.124,10.762-.227,2.67-.282,3.272-.343,3.578a19.786,19.786,0,0,1-1.679,4.8c-.848,1.816-.868,2-.3,2.832,2.309,3.375,12.517,1.945,17.241.7,1.1-.456,6.538-2.63,9.769-2.53,5.977.188,14.313-2.437,17.5-4.824,2.337-1.753,1.045-5.33,1.032-5.366a2.137,2.137,0,0,1,.353-2.21,2,2,0,0,1,2.032-.62c.317.021.85-.13,1.248-1.2a3.344,3.344,0,0,0-1.085-3.659,2.121,2.121,0,0,1,1.705-3.749c.711.11,2.421.063,3.072-2.7a1.657,1.657,0,0,0-.189-1.48c-.778-1.088-3.076-1.641-4.066-1.738a2.125,2.125,0,0,1,.031-4.233,55.125,55.125,0,0,0,15.331-3.832c4.866-2.129,5.248-2.986,4.958-4.432-.127-.633-.362-.772-.463-.832-.386-.229-1.715-.626-5.7.625a71.233,71.233,0,0,1-13.584,2.724c-.761.093-1.495.184-2.207.281-6.624.9-24.453,2.66-25.209,2.734a2.122,2.122,0,0,1-2.015-1,164.386,164.386,0,0,1-7.926-14.483c-.194-.417-.38-.828-.562-1.228-1.63-3.6-2.339-4.817-4.151-4.817m42.3,36.5h0Zm-48.04-1.077h0Z" transform="translate(-259.505 -270.893)" fill="#1a1311"/>
          <path id="Path_2002" data-name="Path 2002" d="M322.643,546.7,292.87,584.24s-3.633,12.111,6.661,18.469,17.561,1.817,17.561,1.817l27.754-43.7" transform="translate(-203.554 -380.779)" fill="#fff"/>
          <path id="Path_2003" data-name="Path 2003" d="M305.469,603.353a22.651,22.651,0,0,1-11.982-3.712c-9.24-5.707-9-16.158-7.58-20.887a2.126,2.126,0,0,1,.371-.709L316.05,540.5a2.124,2.124,0,0,1,3.329,2.64l-29.5,37.2c-.466,1.926-2.094,10.79,5.838,15.688,7.793,4.813,13.452,2.732,14.949,2.015l27.455-43.23a2.124,2.124,0,1,1,3.587,2.278l-27.754,43.7a2.128,2.128,0,0,1-.667.663,15.6,15.6,0,0,1-7.821,1.9" transform="translate(-198.625 -375.903)" fill="#1a1311"/>
          <path id="Path_2004" data-name="Path 2004" d="M327.22,581.058,336,568.644a124.512,124.512,0,0,0,13.423,11.64c6.056,4.239,17.762,8.04,17.762,8.04l-10.294,16.35" transform="translate(-227.912 -396.065)" fill="#fff"/>
          <path id="Path_2005" data-name="Path 2005" d="M352.014,601.924a2.125,2.125,0,0,1-1.8-3.256l8.868-14.084c-3.877-1.394-11.225-4.261-15.757-7.433a112.979,112.979,0,0,1-11.908-10.12l-7.342,10.38a2.125,2.125,0,0,1-3.469-2.454l8.78-12.413a2.125,2.125,0,0,1,3.24-.272,123.073,123.073,0,0,0,13.135,11.4c5.722,4.005,17.087,7.723,17.2,7.76a2.124,2.124,0,0,1,1.141,3.152l-10.294,16.35a2.124,2.124,0,0,1-1.8.993" transform="translate(-223.036 -391.191)" fill="#1a1311"/>
          <path id="Path_2006" data-name="Path 2006" d="M532.066,524.314c.4-.134,4.306-.673,4.306-.673" transform="translate(-370.589 -364.72)" fill="#fff"/>
          <path id="Path_2007" data-name="Path 2007" d="M527.188,521.563a2.125,2.125,0,0,1-.672-4.141,35.622,35.622,0,0,1,4.688-.762,2.124,2.124,0,0,1,.58,4.209c-1.628.225-3.6.518-4.005.609a2.112,2.112,0,0,1-.591.085m.672-.11-.061.019.061-.019" transform="translate(-365.712 -359.844)" fill="#1a1311"/>
          <path id="Path_2008" data-name="Path 2008" d="M529.849,552.247a35.965,35.965,0,0,1,4.441-.673" transform="translate(-369.045 -384.176)" fill="#fff"/>
          <path id="Path_2009" data-name="Path 2009" d="M524.973,549.5a2.125,2.125,0,0,1-.952-4.025c.287-.144.885-.443,5.172-.886a2.125,2.125,0,0,1,.438,4.226c-1.5.155-3.369.4-3.863.529a2.113,2.113,0,0,1-.795.156m.949-.225c-.037.019-.075.036-.113.052.045-.018.083-.037.113-.052" transform="translate(-364.167 -379.3)" fill="#1a1311"/>
          <line id="Line_77" data-name="Line 77" y1="0.707" x2="5.719" transform="translate(160.804 148.66)" fill="#fff"/>
          <path id="Path_2010" data-name="Path 2010" d="M524.97,487.787a2.125,2.125,0,0,1-.258-4.233l5.719-.706a2.124,2.124,0,1,1,.521,4.217l-5.719.707a2.2,2.2,0,0,1-.263.016" transform="translate(-364.169 -336.296)" fill="#1a1311"/>
          <path id="Path_2011" data-name="Path 2011" d="M181.822,525.747c-5.162,2.652-13.679,22.732-23.01,41.479-13.041,26.2-24.926,51.583-22.1,65.7,4.844,24.221,30.046,27.175,52.682,6.661,9.689-8.78,20.473-25.72,23.919-31.185,6.154-9.76,21.625-41.028,21.5-40.874,0,0-15.744-1.211-25.13-8.78a59.755,59.755,0,0,1-13.019-14.836" transform="translate(-94.927 -366.187)" fill="#e0e0e0"/>
          <path id="Path_2012" data-name="Path 2012" d="M154.727,650.48a26.4,26.4,0,0,1-8.3-1.288c-8.643-2.851-14.561-10.211-16.664-20.724-2.938-14.689,8.864-40.1,22.284-67.064,2.09-4.2,4.142-8.472,6.127-12.6,8.416-17.523,13.394-27.547,17.815-29.819a2.125,2.125,0,1,1,1.942,3.779c-3.367,1.73-10.039,15.622-15.927,27.879-1.991,4.145-4.049,8.43-6.153,12.657-13.078,26.274-24.6,50.965-21.921,64.338,1.79,8.949,6.7,15.172,13.828,17.523,10.137,3.344,23.35-1.15,35.344-12.019,4.431-4.016,12.114-12.609,23.548-30.744,4.929-7.817,16.247-30.287,20.069-37.986-5.215-.764-15.921-2.98-23.239-8.882a61.443,61.443,0,0,1-13.527-15.43,2.124,2.124,0,0,1,3.682-2.12,58.188,58.188,0,0,0,12.512,14.242c8.537,6.885,23.083,8.24,23.923,8.313a2.114,2.114,0,0,1,1.123.4c.657.478,1.277,1.386.5,3-.113.235-.282.58-.5,1.021-.431.875-1.055,2.134-1.824,3.676-1.346,2.7-3.473,6.93-5.963,11.788-4.214,8.222-9.917,19.1-13.158,24.24-9.385,14.885-17.558,25.526-24.289,31.626-10.173,9.22-21.328,14.194-31.233,14.194" transform="translate(-90.069 -361.311)" fill="#1a1311"/>
          <line id="Line_78" data-name="Line 78" y1="46.021" x2="33.305" transform="translate(63.279 180.451)" fill="#e0e0e0"/>
          <path id="Path_2013" data-name="Path 2013" d="M203.625,637.853a2.125,2.125,0,0,1-1.719-3.37l33.3-46.021a2.124,2.124,0,1,1,3.442,2.491l-33.3,46.021a2.122,2.122,0,0,1-1.723.879" transform="translate(-140.348 -409.256)" fill="#1a1311"/>
          <path id="Path_2014" data-name="Path 2014" d="M327.985,664.633l-.1,0a36.742,36.742,0,0,1-20.464-7.742c-6.24-4.8-10.534-11.125-12.09-17.818a2.125,2.125,0,0,1,4.139-.962c2.721,11.7,15.554,21.7,28.6,22.278a2.124,2.124,0,0,1-.093,4.247" transform="translate(-205.664 -443.303)" fill="#1a1311"/>
          <path id="Path_2015" data-name="Path 2015" d="M396.036,683.018a3.1,3.1,0,1,1-3.1-3.1,3.1,3.1,0,0,1,3.1,3.1" transform="translate(-271.529 -473.571)" fill="#1a1311"/>
          <rect id="Rectangle_308" data-name="Rectangle 308" width="96.886" height="125.548" transform="translate(125.274 189.332)" fill="#fff"/>
          <path id="Path_2016" data-name="Path 2016" d="M504.789,746.643H407.9a2.124,2.124,0,0,1-2.124-2.124V618.971a2.124,2.124,0,0,1,2.124-2.125h96.886a2.124,2.124,0,0,1,2.124,2.125V744.519a2.124,2.124,0,0,1-2.124,2.124m-94.762-4.249h92.637v-121.3H410.027Z" transform="translate(-282.628 -429.639)" fill="#1a1311"/>
          <rect id="Rectangle_309" data-name="Rectangle 309" width="45.617" height="16.955" transform="translate(150.909 189.332)" fill="#fff"/>
          <path id="Path_2017" data-name="Path 2017" d="M537.985,638.05H492.368a2.124,2.124,0,0,1-2.124-2.124V618.971a2.124,2.124,0,0,1,2.124-2.125h45.617a2.124,2.124,0,0,1,2.124,2.125v16.955a2.124,2.124,0,0,1-2.124,2.124M494.492,633.8H535.86V621.095H494.492Z" transform="translate(-341.459 -429.639)" fill="#1a1311"/>
          <path id="Path_2018" data-name="Path 2018" d="M524.169,647.789a2.319,2.319,0,1,1-2.319-2.319,2.319,2.319,0,0,1,2.319,2.319" transform="translate(-361.858 -449.575)" fill="#1a1311"/>
          <path id="Path_2019" data-name="Path 2019" d="M614.62,647.789a2.319,2.319,0,1,1-2.319-2.319,2.319,2.319,0,0,1,2.319,2.319" transform="translate(-424.858 -449.575)" fill="#1a1311"/>
          <path id="Path_2020" data-name="Path 2020" d="M676.606,837.871c-.486-3.888-1.749-14.9-9.489-21.9a60.525,60.525,0,0,0-8.274-5.982l.562,8.6c-1.169-.39-4.448-1.514-7.627-2.523-3.305-1.049-7.272-1.119-12.039-1.167-8.262-.082-12.393-1.094-12.393,3.645,0,2.5,4.253,5.589,10.177,6.171a67.109,67.109,0,0,1,10.621,1.847c-1.949-.39-21.7-3.028-21.957,3.149-.117,2.805,5.414,4.743,11.034,5.985a107.472,107.472,0,0,0,11.575,1.812s-19.011-4.17-18.231,2.847c.343,3.087,6.213,5.918,10.631,6.379,5.624.587,11.888.91,11.888.91s-19.542-.423-16.991,6.624c.662,1.83,6,2.715,10.571,3.038s11.471,1.215,11.471,1.215v9.357c.656,1.889,4.062,2.89,7.165,2.89,5.45,0,8.154-6.1,9.788-10.491,1.615-4.34,2.361-15.649,1.516-22.41" transform="translate(-436.145 -564.167)" fill="#fff"/>
          <path id="Path_2021" data-name="Path 2021" d="M660.426,868.021c-3.539,0-8.065-1.131-9.172-4.317a2.126,2.126,0,0,1-.118-.7v-7.48c-2.353-.285-6.471-.759-9.5-.973-11.1-.784-12.057-3.435-12.419-4.433a4.992,4.992,0,0,1,.582-4.816,7.307,7.307,0,0,1,2.589-2.109c-4.178-1.291-8.424-3.964-8.814-7.476a4.85,4.85,0,0,1,1.59-4.31c.122-.11.25-.214.385-.314q-.98-.369-1.793-.758c-3.126-1.5-4.664-3.374-4.572-5.584a4.87,4.87,0,0,1,1.967-3.692,9.54,9.54,0,0,1,3.382-1.56c-2.581-1.545-4.192-3.634-4.192-5.826a5.561,5.561,0,0,1,1.53-4.219c1.914-1.858,4.912-1.767,9.45-1.631,1.067.032,2.277.068,3.559.081,4.6.046,8.952.089,12.66,1.266,1.623.515,3.275,1.061,4.657,1.524l-.355-5.439a2.124,2.124,0,0,1,3.2-1.966,62.036,62.036,0,0,1,8.616,6.234c8.2,7.42,9.617,18.755,10.148,23.022l.023.186c.9,7.187.09,18.785-1.633,23.414-1.323,3.554-4.419,11.875-11.779,11.875m-5.041-5.553a8.333,8.333,0,0,0,5.041,1.3c2.052,0,4.793-1.035,7.8-9.108,1.482-3.984,2.2-14.986,1.4-21.406l-.023-.187c-.478-3.839-1.749-14.035-8.782-20.4a45.681,45.681,0,0,0-4.453-3.468l.286,4.373a2.125,2.125,0,0,1-2.792,2.154l-1.036-.349c-1.529-.516-4.086-1.379-6.562-2.165-3.1-.985-7.14-1.025-11.416-1.068-1.324-.013-2.557-.05-3.644-.083-2.821-.085-5.739-.172-6.363.434a1.939,1.939,0,0,0-.24,1.17c0,.834,2.84,3.524,8.26,4.057,3.04.3,5.856.791,7.683,1.152,3.6.71,4.346.858,4.825,2.016a2.133,2.133,0,0,1-2.511,2.876c-3.743-.748-16.115-1.695-19.072.627-.335.263-.342.429-.346.528,0,.009.631,1.891,9.37,3.822,1,.221,2.012.421,2.992.6a59.033,59.033,0,0,1,8.58,1.212,2.124,2.124,0,0,1-.652,4.19c-.194-.018-3.912-.369-8.352-1.161-3.433-.2-6.345.059-7.361.975-.147.132-.256.267-.209.683.152,1.368,4.3,4.037,8.741,4.5,5.5.574,11.714.9,11.777.9a2.125,2.125,0,0,1-.155,4.246c-6.08-.13-13.512.938-14.908,2.884a.727.727,0,0,0-.088.742c.515.409,2.853,1.373,8.772,1.792,4.578.323,11.309,1.19,11.593,1.227a2.124,2.124,0,0,1,1.852,2.107Z" transform="translate(-431.269 -559.292)" fill="#1a1311"/>
          <line id="Line_79" data-name="Line 79" x2="6.457" y2="2.225" transform="translate(223.607 254.629)" fill="#fff"/>
          <path id="Path_2022" data-name="Path 2022" d="M738.364,838.473a2.121,2.121,0,0,1-.692-.117l-6.457-2.225a2.125,2.125,0,1,1,1.384-4.017l6.457,2.225a2.125,2.125,0,0,1-.692,4.134" transform="translate(-508.299 -579.494)" fill="#1a1311"/>
          <path id="Path_2023" data-name="Path 2023" d="M698.542,864.606s9.767,1.977,10.5,2.22" transform="translate(-486.541 -602.206)" fill="#fff"/>
          <path id="Path_2024" data-name="Path 2024" d="M704.161,864.075a2.126,2.126,0,0,1-.648-.1c-.644-.184-5.761-1.249-10.27-2.161a2.124,2.124,0,0,1,.843-4.165c3.7.748,10,2.04,10.746,2.287a2.125,2.125,0,0,1-.672,4.14m-.64-.1h0Z" transform="translate(-481.664 -597.329)" fill="#1a1311"/>
          <line id="Line_80" data-name="Line 80" x2="8.56" y2="1.206" transform="translate(212.653 273.346)" fill="#fff"/>
          <path id="Path_2025" data-name="Path 2025" d="M704.378,899.126a2.158,2.158,0,0,1-.3-.021l-8.56-1.206a2.124,2.124,0,0,1,.593-4.207l8.56,1.206a2.125,2.125,0,0,1-.294,4.229" transform="translate(-483.162 -622.45)" fill="#1a1311"/>
          <line id="Line_81" data-name="Line 81" x2="5.852" y2="0.792" transform="translate(216.941 283.481)" fill="#fff"/>
          <path id="Path_2026" data-name="Path 2026" d="M715.8,932.108a2.146,2.146,0,0,1-.288-.019l-5.852-.791a2.125,2.125,0,0,1,.569-4.211l5.852.791a2.125,2.125,0,0,1-.282,4.23" transform="translate(-493.003 -645.711)" fill="#1a1311"/>
          <line id="Line_82" data-name="Line 82" x1="8.54" y1="2.624" transform="translate(223.242 308.623)" fill="#e0e0e0"/>
          <path id="Path_2027" data-name="Path 2027" d="M739.245,1016.782a2.121,2.121,0,0,1-.625-.094l-8.54-2.624a2.124,2.124,0,1,1,1.248-4.061l8.54,2.624a2.125,2.125,0,0,1-.623,4.156" transform="translate(-507.462 -703.41)" fill="#1a1311"/>
          <path id="Path_2028" data-name="Path 2028" d="M756.039,750.74a2.124,2.124,0,0,1-2.124-2.12l-.061-33.209a2.124,2.124,0,0,1,2.12-2.128h0A2.125,2.125,0,0,1,758.1,715.4l.061,33.208a2.124,2.124,0,0,1-2.12,2.128Z" transform="translate(-525.066 -496.808)" fill="#1a1311"/>
          <path id="Path_2029" data-name="Path 2029" d="M70.436,101.025a11.463,11.463,0,0,1-.551-1.649q-.1-.385-.164-.777c-.025-.146-.056-.658-.014-.052-.01-.149-.033-.3-.045-.446a11.8,11.8,0,0,1-.016-1.676c.016-.262.052-.521.072-.782-.045.608-.011.09.013-.054s.052-.3.081-.446a15.121,15.121,0,0,1,.433-1.66q.124-.387.266-.768c.055-.146.113-.291.17-.436.021-.053.105-.247-.006.01-.125.29.016-.035.044-.1a21.93,21.93,0,0,1,1.731-3.155c.336-.513.694-1.009,1.06-1.5.065-.086.228-.261-.071.091.039-.047.076-.1.114-.145q.134-.169.27-.336.311-.382.635-.754a32.231,32.231,0,0,1,2.56-2.62c.45-.412.913-.809,1.382-1.2q.346-.287.7-.569l.4-.32.152-.119c.2-.16.126-.113-.028.021a30.58,30.58,0,0,1,3.134-2.246A58.058,58.058,0,0,1,89.44,75.5q.866-.424,1.746-.819.411-.184.824-.362c.079-.034.16-.065.236-.1,0,0-.354.147-.157.066.178-.074.356-.148.535-.221q1.786-.727,3.618-1.335A57.238,57.238,0,0,1,103.7,70.8c.6-.112,1.2-.215,1.8-.3.077-.012.554-.077.218-.032-.317.042.13-.016.22-.027q.444-.054.89-.1a30.812,30.812,0,0,1,3.582-.148c.593.012,1.185.043,1.776.1q.206.019.411.041c.131.015.681.1.079,0,.289.045.578.086.866.138a17.1,17.1,0,0,1,3.326.943c.431.173-.282-.129.022.009.139.063.278.126.415.192q.387.186.762.4a15.81,15.81,0,0,1,1.449.94c.2.143-.3-.239-.107-.084l.137.11q.18.146.355.3.324.283.627.589t.584.628q.131.151.257.306l.107.134c.249.308-.188-.259-.053-.068.329.469.652.935.935,1.434q.212.373.4.758.089.18.173.363c.041.09.234.53.112.247-.129-.3.049.13.076.2q.083.215.16.432.143.408.265.824a16.793,16.793,0,0,1,.4,1.69q.037.2.069.4c.022.137.062.673.014.07.023.289.065.577.086.866.043.578.058,1.158.044,1.737-.015.612-.072,1.217-.138,1.825-.024.218.025-.184.025-.181-.019.083-.025.174-.038.258q-.035.225-.075.45-.091.513-.207,1.021a26.266,26.266,0,0,1-1.193,3.721c-.078.2.064-.15.065-.151-.038.078-.069.161-.1.24q-.092.21-.187.419-.218.477-.454.946-.442.881-.941,1.732a36.342,36.342,0,0,1-2.154,3.258q-.123.167-.247.331c-.052.069-.318.417-.139.184.192-.249-.1.123-.143.18q-.165.208-.333.414-.559.687-1.148,1.349a41.875,41.875,0,0,1-5.087,4.833q-.184.148-.37.294l-.14.109c-.195.153.3-.229.1-.08-.236.178-.471.356-.709.531q-.715.524-1.451,1.017-1.472.987-3.021,1.852t-3.163,1.6q-.4.183-.81.358l-.163.07c.453-.2.229-.1.126-.054-.146.059-.291.12-.437.178q-.822.331-1.657.626a41.471,41.471,0,0,1-6.845,1.791q-.437.075-.875.14c-.135.02-.276.028-.409.059.032-.007.48-.062.153-.021l-.235.03c-.644.08-1.292.148-1.941.171-.313.011-.626.012-.938,0-.178-.008-.354-.024-.531-.04-.054-.005-.285-.025-.01,0,.31.028-.071-.018-.138-.032a7.293,7.293,0,0,1-.886-.247c-.362-.121.092.037.086.041a1.451,1.451,0,0,1-.215-.1c-.124-.064-.246-.133-.365-.207-.1-.065-.2-.136-.3-.2-.194-.134.313.263.139.1-.038-.035-.079-.066-.118-.1a7.16,7.16,0,0,1-.577-.595c-.214-.239.246.344.012.012q-.106-.149-.2-.305a8.225,8.225,0,0,1-.4-.743c-.143-.294.154.4.009.012-.043-.117-.084-.234-.122-.353a7.438,7.438,0,0,1-.211-.829c-.017-.09-.08-.509-.035-.171.047.355-.006-.093-.012-.174a7.5,7.5,0,0,1-.019-.854c0-.124.012-.247.023-.371.007-.082.018-.163.025-.245.019-.216-.026.188-.025.186.11-.309.124-.68.209-1q.115-.432.266-.854a4.091,4.091,0,0,0,.183-.478s-.155.349-.066.158c.045-.1.087-.2.133-.293a19.136,19.136,0,0,1,2.046-3.3c.064-.086.232-.27-.066.085.038-.046.074-.094.111-.141q.129-.164.261-.327.3-.371.614-.733.585-.678,1.209-1.321a31.974,31.974,0,0,1,2.632-2.428c.215-.178.433-.351.652-.523.263-.207-.075.073-.1.077a1.046,1.046,0,0,0,.19-.144q.191-.143.384-.284.723-.528,1.476-1.017a32.882,32.882,0,0,1,3.107-1.785q.8-.4,1.621-.763c.068-.03.506-.218.213-.093-.275.118.134-.054.215-.087q.443-.179.891-.344a32.149,32.149,0,0,1,3.422-1.053q.87-.215,1.75-.381.411-.077.824-.143.207-.033.413-.063c.076-.011.347-.047.044-.008-.338.043.062-.008.1-.013a25.434,25.434,0,0,1,4.04-.2q.473.017.945.055.235.019.47.045c.089.009.178.022.268.03.263.026-.483-.075-.037,0a17.469,17.469,0,0,1,1.971.414q.452.126.9.28.222.077.442.162c.084.032.167.067.25.1.244.094-.39-.178-.039-.015a13.479,13.479,0,0,1,1.493.8q.336.211.658.444c.046.033.091.068.137.1.2.141-.3-.243-.114-.09.117.1.235.189.35.287a11.281,11.281,0,0,1,1.2,1.19c.086.1.168.2.252.3.2.243-.079-.09-.09-.119a1.217,1.217,0,0,0,.133.18q.244.34.459.7t.4.734c.033.069.215.487.088.179-.121-.293.054.147.087.239.094.263.177.53.245.8q.048.19.087.383c.013.062.025.125.036.188,0,.027.073.464.027.147-.043-.3.016.2.022.281q.02.267.023.534c.005.334-.007.669-.035,1-.013.154-.045.312-.049.466.016-.53-.011.023-.036.16-.062.332-.137.662-.225.989a18.263,18.263,0,0,1-.658,1.935c-.1.247.142-.317.031-.075-.028.062-.055.125-.083.188q-.112.249-.23.5-.219.455-.457.9-.407.761-.865,1.494t-.959,1.434c-.168.234-.347.459-.513.693-.007.01.249-.318.12-.157l-.143.181q-.143.18-.29.358a27.946,27.946,0,0,1-2.354,2.523q-.627.594-1.289,1.149-.309.259-.625.509c-.362.286.239-.179-.025.021-.138.1-.276.208-.415.31a28.239,28.239,0,0,1-2.9,1.866q-.753.421-1.531.8-.363.174-.731.338c-.122.055-.247.105-.369.161.538-.248-.011,0-.132.051a26.722,26.722,0,0,1-3.277,1.076c-.27.07-.54.135-.812.2-.154.034-.309.066-.464.094a1.2,1.2,0,0,1-.267.044l.236-.033q-.1.011-.2.018c-.156.012-.312.018-.468.015a1.514,1.514,0,0,0-.266-.013c.01-.006.382.074.175.025-.151-.036-.3-.077-.452-.112-.294-.069.192.09.19.09a.73.73,0,0,1-.207-.1c-.094-.051-.181-.111-.272-.168-.257-.161.334.309.066.041-.075-.075-.152-.147-.223-.226-.038-.043-.075-.1-.117-.139.075.072.26.386.109.124-.054-.093-.115-.182-.166-.278-.043-.079-.2-.428-.066-.111s-.013-.049-.039-.127c-.045-.136-.082-.275-.114-.415a1.094,1.094,0,0,1-.063-.331s.048.527.032.216c0-.048-.008-.1-.011-.145-.017-.26.014-.515.012-.774,0-.211-.037.306-.039.264a.961.961,0,0,1,.032-.19q.031-.165.075-.327t.1-.319a1.86,1.86,0,0,0,.085-.225c.032.055-.19.419-.023.07a6.765,6.765,0,0,1,.407-.725c.075-.117.156-.23.235-.344.194-.28-.057.1-.08.1.039,0,.166-.2.19-.232a12.3,12.3,0,0,1,1.281-1.287q.321-.282.655-.55c.11-.089.222-.177.334-.265.085-.067.288-.2-.1.074.065-.047.128-.1.192-.146q.777-.59,1.573-1.154c1.067-.754,2.163-1.469,3.3-2.119q.846-.485,1.721-.918.436-.214.879-.413a2.823,2.823,0,0,1,.414-.181c-.042.011-.409.167-.1.042l.239-.1a20.469,20.469,0,0,1,3.681-1.09q.251-.048.5-.09c.075-.012.572-.086.255-.04-.3.043.167-.017.258-.026q.256-.026.513-.044a13.692,13.692,0,0,1,1.636-.021q.392.019.783.061l.157.018c.313.034-.174-.023-.192-.027.136.029.278.042.415.066a14.059,14.059,0,0,1,1.538.357q.379.111.751.242.173.061.345.127l.2.077c.24.094-.109-.045-.162-.07.473.225.945.438,1.4.7s.862.564,1.291.855c-.017-.012-.376-.3-.141-.108l.119.1q.138.113.273.231.305.268.592.558.248.252.479.521c.086.1.164.218.256.311.017.017-.256-.348-.143-.185.048.069.1.135.148.2a9.292,9.292,0,0,1,.772,1.293c.052.106.1.215.149.32.107.21-.157-.394-.073-.174.018.047.038.094.056.141q.146.382.255.776c.065.233.12.469.164.708a1.661,1.661,0,0,0,.035.205c-.006-.017-.057-.507-.026-.2.013.137.027.273.035.411.014.239.017.479.009.717q-.007.2-.024.408c0,.051-.009.1-.015.152-.034.322.023-.036.023-.149a5.159,5.159,0,0,1-.36,1.49q-.057.171-.121.339c-.025.064-.051.127-.075.192-.073.191.1-.238.091-.216-.128.244-.231.5-.363.742-.25.461-.569.865-.845,1.307.012-.02.3-.372.1-.138l-.1.12q-.117.14-.238.276-.278.31-.58.6-.264.251-.545.483a2,2,0,0,0-.161.131c.016-.016.383-.285.137-.107-.112.081-.224.163-.338.24a9.581,9.581,0,0,1-1.3.744l-.14.065c-.276.13.151-.063.171-.069-.113.036-.223.089-.334.13q-.36.132-.731.232-.346.092-.7.155c-.025,0-.2.037-.2.033s.439-.051.251-.034c-.119.011-.238.025-.357.034a7.85,7.85,0,0,1-1.55-.047l1.829,2.4c.025-.1.051-.208.084-.311.022-.071.143-.375.018-.073s.017-.016.041-.063c.042-.079.087-.155.135-.231a1.366,1.366,0,0,0,.15-.221q-.269.34-.131.174.051-.062.106-.121c.093-.1.335-.25.387-.37-.04.091-.362.261-.085.07.074-.051.149-.1.225-.145.093-.055.187-.1.283-.153.29-.153-.328.114-.109.043.171-.055.336-.112.512-.151a.882.882,0,1,0-.135.008c.1.006.218-.018.321-.019s.179,0,.268.008c.329.022-.023.023-.133-.023.156.065.354.077.517.131q.076.025.151.054.2.079-.206-.088a1.253,1.253,0,0,0,.239.12c.078.043.155.088.231.136.046.029.323.242.072.036s0,.007.058.055c.08.071.158.146.232.223s.118.134.178.2c.154.168-.245-.36-.07-.086.1.151.184.3.269.461.177.33-.127-.421-.027-.059.029.1.064.2.091.308a1.9,1.9,0,1,0,3.658-1.008,5.657,5.657,0,0,0-10.986.087,1.892,1.892,0,0,0,.34,1.653,1.988,1.988,0,0,0,1.49.747c5.109.647,9.885-3.214,11.528-7.851a10.12,10.12,0,0,0-.391-7.513,12.219,12.219,0,0,0-4.733-5.234,15.827,15.827,0,0,0-6.963-2.292A18.334,18.334,0,0,0,111.918,103a33.647,33.647,0,0,0-7.526,4.014c-1.19.825-2.366,1.687-3.476,2.618a11.805,11.805,0,0,0-2.758,3.167,6.641,6.641,0,0,0,.6,7.672c2.139,2.4,5.6,1.506,8.258.641a30.027,30.027,0,0,0,12.782-8.221,28.736,28.736,0,0,0,4.4-6.269,15.274,15.274,0,0,0,1.88-9.267c-.859-5.611-6.271-9.357-11.565-10.162a30.375,30.375,0,0,0-16.552,2.629,33.744,33.744,0,0,0-12.287,9.192,18.2,18.2,0,0,0-4.226,7.639,9.383,9.383,0,0,0,1.773,7.949,6.968,6.968,0,0,0,3.53,2.262,12.028,12.028,0,0,0,4.546.2,43.6,43.6,0,0,0,7.724-1.547,44.436,44.436,0,0,0,13.636-6.81A43.474,43.474,0,0,0,123.47,97.261c2.981-4.662,5.044-10.316,4.362-15.918a18.026,18.026,0,0,0-2.58-7.594,14.9,14.9,0,0,0-5.826-5.306c-4.852-2.431-10.459-2.353-15.692-1.484A58.964,58.964,0,0,0,87.988,72,57.95,57.95,0,0,0,80.949,76a53.971,53.971,0,0,0-6.659,5.135,31.751,31.751,0,0,0-5.216,6.144,19.83,19.83,0,0,0-2.983,7.194,13.519,13.519,0,0,0,.687,7.564,2.091,2.091,0,0,0,.872,1.134,1.9,1.9,0,0,0,2.6-.68,1.826,1.826,0,0,0,.191-1.462" transform="translate(-45.864 -46.251)" fill="#1a1311"/>
        </g>
      </g>
    </g>
    <g id="Rectangle_316" data-name="Rectangle 316" transform="translate(535.326 1330.606)" fill="none" stroke="#325691" stroke-width="4">
      <rect width="499" height="306.313" stroke="none"/>
      <rect x="2" y="2" width="495" height="302.313" fill="none"/>
    </g>
  </g>
</svg>
