<svg xmlns="http://www.w3.org/2000/svg" xmlns:xlink="http://www.w3.org/1999/xlink" width="499" height="306.313" viewBox="0 0 499 306.313">
  <defs>
    <clipPath id="clip-path">
      <rect id="Rectangle_298" data-name="Rectangle 298" width="499" height="306.313" transform="translate(0 0)" fill="#eaeaea"/>
    </clipPath>
    <clipPath id="clip-path-2">
      <rect id="Rectangle_284" data-name="Rectangle 284" width="377.59" height="296.239" fill="none"/>
    </clipPath>
    <clipPath id="clip-path-3">
      <rect id="Rectangle_297" data-name="Rectangle 297" width="442.6" height="370.537" fill="none"/>
    </clipPath>
  </defs>
  <g id="Group_196" data-name="Group 196" transform="translate(-140.5 -1330.606)">
    <g id="Rectangle_281" data-name="Rectangle 281" transform="translate(140.5 1330.606)" fill="#fff" stroke="#325691" stroke-width="4">
      <rect width="499" height="306.313" stroke="none"/>
      <rect x="2" y="2" width="495" height="302.313" fill="none"/>
    </g>
    <g id="Group_128" data-name="Group 128" transform="translate(140.5 1330.606)" clip-path="url(#clip-path)">
      <g id="Group_127" data-name="Group 127" transform="translate(14.425 13.027)">
        <g id="Group_124" data-name="Group 124" transform="translate(42.184 41.138)">
          <g id="Group_123" data-name="Group 123" clip-path="url(#clip-path-2)">
            <path id="Path_1833" data-name="Path 1833" d="M642.923,530.061c-8.688-7.514-40.975-10.5-61.533-10.5-18.832,0-52.333,1.158-59.214,11.525-3.43,5.167-12.445,36.4-17.908,53.21a285.569,285.569,0,0,1-11.256,28.4c-5.9,12.784-4.386,23.042-3.07,26.776,11,31.21,47.583-17.311,47.583-17.311l2.814,18.176h87.49l19.7-14.339s26.264,34.621,26.946,5.287c.266-11.406-3.156-19.653-12.876-46.73-7.163-19.954-12.364-49.032-18.675-54.489" transform="translate(-390.685 -411.617)" fill="#04427d"/>
            <path id="Path_1834" data-name="Path 1834" d="M497.779,647.648a12.4,12.4,0,0,1-1.906-.144c-5.042-.78-8.805-4.6-11.184-11.349-.433-1.228-4.023-12.447,3.124-27.932A285.453,285.453,0,0,0,499,580c1.469-4.52,3.187-10.059,5.006-15.923,5.14-16.57,10.455-33.7,13.083-37.663,3.311-4.988,11.881-8.364,26.2-10.323a260.941,260.941,0,0,1,34.3-1.889c20.084,0,53.312,2.9,62.539,10.876,4.328,3.743,7.814,16.377,11.851,31.006,2.279,8.259,4.635,16.8,7.266,24.127.9,2.509,1.747,4.856,2.542,7.058,7.766,21.534,10.672,29.591,10.424,40.227-.176,7.579-2.02,11.832-5.636,13-3.833,1.239-8.942-1.332-15.622-7.86a96.813,96.813,0,0,1-7.52-8.347l-18.5,13.466a1.538,1.538,0,0,1-.905.295h-87.49a1.538,1.538,0,0,1-1.521-1.3l-2.274-14.69c-5.873,7.2-22.144,25.593-34.963,25.593m79.809-130.372a257.974,257.974,0,0,0-33.88,1.861c-9.079,1.242-20.621,3.807-24.052,8.976-2.384,3.59-8.108,22.045-12.708,36.873-1.822,5.874-3.543,11.422-5.019,15.962a288.7,288.7,0,0,1-11.322,28.565c-2.537,5.5-6.027,17.077-3.016,25.62,1.973,5.6,4.917,8.737,8.752,9.331,5.644.873,13.634-3.454,23.111-12.518a137.733,137.733,0,0,0,13.04-14.538,1.538,1.538,0,0,1,2.749.691l2.612,16.873h85.671l19.293-14.044a1.539,1.539,0,0,1,2.131.314c5.062,6.669,14.469,16.48,19.638,16.481a3.348,3.348,0,0,0,1.037-.154c2.156-.7,3.369-4.206,3.507-10.146.234-10.062-2.406-17.382-10.243-39.111-.8-2.2-1.642-4.553-2.544-7.063-2.67-7.438-5.042-16.035-7.336-24.349-3.576-12.962-7.275-26.364-10.9-29.5-7.605-6.577-36.86-10.126-60.526-10.126" transform="translate(-386.882 -407.795)" fill="#1a1311"/>
            <rect id="Rectangle_282" data-name="Rectangle 282" width="437.392" height="103.618" transform="translate(-40.645 224.243)" fill="#fff"/>
            <path id="Path_1835" data-name="Path 1835" d="M438.93,1026.207H1.539A1.538,1.538,0,0,1,0,1024.668V921.05a1.538,1.538,0,0,1,1.539-1.538H438.93a1.539,1.539,0,0,1,1.539,1.538v103.618a1.539,1.539,0,0,1-1.539,1.538M3.077,1023.129H437.391V922.589H3.077Z" transform="translate(-42.184 -696.808)" fill="#1a1311"/>
            <path id="Path_1836" data-name="Path 1836" d="M725.211,531.2h57.525l-12.6,51.657-19.912,45.885-17.6-40.979Z" transform="translate(-559.303 -419.917)" fill="#fff"/>
            <path id="Path_1837" data-name="Path 1837" d="M792.821,579.241h-7.388l-5.661-12.505h18.71Z" transform="translate(-598.209 -445.256)" fill="#1a1311"/>
            <path id="Path_1838" data-name="Path 1838" d="M787.02,610.318h-7.388l-8,40.594,11.689,28.281,11.689-28.281Z" transform="translate(-592.408 -476.333)" fill="#1a1311"/>
            <rect id="Rectangle_283" data-name="Rectangle 283" width="37.516" height="24.241" transform="translate(173.41 100.124)" fill="#fff"/>
            <path id="Path_1839" data-name="Path 1839" d="M785.053,514.267H747.537A1.538,1.538,0,0,1,746,512.729V488.488a1.539,1.539,0,0,1,1.539-1.539h37.516a1.539,1.539,0,0,1,1.539,1.539v24.241a1.539,1.539,0,0,1-1.539,1.538m-35.977-3.077h34.439V490.026H749.076Z" transform="translate(-574.126 -388.363)" fill="#1a1311"/>
            <path id="Path_1840" data-name="Path 1840" d="M813.865,523.341l12.578,12.182c.244.1,5.376-6.742,8.069-11.708,2.8-5.163,5.844-11.131,5.7-11.154l-6.17-6.882s-8.306,7.594-11.629,10.442-8.543,7.12-8.543,7.12" transform="translate(-622.52 -401.79)" fill="#fff"/>
            <path id="Path_1841" data-name="Path 1841" d="M822.663,533.258a1.645,1.645,0,0,1-.626-.135,1.538,1.538,0,0,1-.487-.319l-12.578-12.182a1.538,1.538,0,0,1,.1-2.3c.052-.043,5.246-4.294,8.516-7.1s11.509-10.334,11.592-10.409a1.538,1.538,0,0,1,2.184.108l6.143,6.852a1.524,1.524,0,0,1,.263.376c.363.73.105,1.266-.46,2.441-.315.654-.775,1.575-1.331,2.662-1.166,2.282-2.636,5.073-3.934,7.466a84.394,84.394,0,0,1-5.052,7.912c-.8,1.119-1.57,2.159-2.178,2.928-.754.953-1.339,1.693-2.149,1.693m-10.312-13.646,10.188,9.867a87.967,87.967,0,0,0,6.8-10.221c2.275-4.195,4.44-8.412,5.256-10.115l-4.487-5c-2.4,2.19-7.92,7.2-10.518,9.427-2.272,1.948-5.457,4.582-7.236,6.046" transform="translate(-618.696 -397.967)" fill="#1a1311"/>
            <path id="Path_1842" data-name="Path 1842" d="M748.39,523.341l-12.578,12.182c-.244.1-5.376-6.742-8.069-11.708-2.8-5.163-5.844-11.131-5.7-11.154l6.17-6.882s8.306,7.594,11.629,10.442,8.543,7.12,8.543,7.12" transform="translate(-557.044 -401.79)" fill="#fff"/>
            <path id="Path_1843" data-name="Path 1843" d="M731.932,533.258c-.809,0-1.394-.74-2.148-1.693-.608-.769-1.381-1.809-2.178-2.928a84.416,84.416,0,0,1-5.052-7.912c-1.3-2.392-2.768-5.183-3.934-7.466-.556-1.087-1.016-2.008-1.33-2.663-.565-1.175-.823-1.711-.46-2.441a1.549,1.549,0,0,1,.263-.376l6.143-6.852a1.538,1.538,0,0,1,2.184-.108c.083.076,8.326,7.61,11.591,10.409s8.465,7.055,8.517,7.1a1.538,1.538,0,0,1,.1,2.3L733.045,532.8a1.534,1.534,0,0,1-.486.318,1.642,1.642,0,0,1-.627.135M720,509.143c.816,1.7,2.981,5.921,5.255,10.116a88.015,88.015,0,0,0,6.8,10.22l10.188-9.867c-1.778-1.464-4.964-4.1-7.236-6.046-2.6-2.227-8.115-7.238-10.518-9.427Z" transform="translate(-553.207 -397.967)" fill="#1a1311"/>
            <path id="Path_1844" data-name="Path 1844" d="M827.39,545.9c2.01-9.976,5.42-34.153,4.714-34.149l12.529,3.276,5.632,19.791-10.754,3.707,9.507,5.789s-5.139,20.044-12.681,32.177c-4.789,7.7-25.973,36.939-25.973,36.939s13.975-52.385,17.027-67.529" transform="translate(-620.023 -406.052)" fill="#04427d"/>
            <path id="Path_1845" data-name="Path 1845" d="M806.538,611.147a1.539,1.539,0,0,1-1.486-1.935c.14-.523,14-52.508,17-67.436,1.934-9.6,4.849-30.512,4.782-33.3a1.539,1.539,0,0,1,1.433-2.081,1.419,1.419,0,0,1,.467.069l12.458,3.257a1.538,1.538,0,0,1,1.09,1.067l5.633,19.791a1.539,1.539,0,0,1-.978,1.876l-7.66,2.641,6.711,4.087a1.539,1.539,0,0,1,.69,1.7c-.212.828-5.285,20.413-12.865,32.607-4.762,7.662-25.167,35.834-26.033,37.03a1.539,1.539,0,0,1-1.247.636M829.847,509.93c-.131,2-.539,5.52-1.428,11.873-1.107,7.912-2.42,15.99-3.345,20.58-2.3,11.418-10.877,44.26-14.918,59.578,6.551-9.112,17.766-24.822,21.049-30.1,6.331-10.185,11.014-26.322,12.2-30.65l-8.522-5.189a1.538,1.538,0,0,1,.3-2.768l9.377-3.233-4.993-17.545Zm-6.281,32.149h0Z" transform="translate(-616.199 -402.227)" fill="#1a1311"/>
            <path id="Path_1846" data-name="Path 1846" d="M699.637,544.75c-2.01-9.976-4.843-33-4.136-32.995l-12.491,2.764-5.67,20.3,10.755,3.708-9.738,5.789s5.139,19.273,12.912,32.177c5.194,8.624,24.241,36.939,24.241,36.939s-12.822-53.539-15.872-68.683" transform="translate(-525.168 -406.052)" fill="#04427d"/>
            <path id="Path_1847" data-name="Path 1847" d="M711.685,611.149a1.538,1.538,0,0,1-1.277-.68c-.191-.283-19.128-28.446-24.282-37-7.8-12.942-12.868-31.779-13.08-32.574a1.54,1.54,0,0,1,.7-1.719l6.885-4.093-7.617-2.626a1.539,1.539,0,0,1-.98-1.869l5.67-20.3a1.538,1.538,0,0,1,1.15-1.088l12.428-2.75a1.565,1.565,0,0,1,.4-.05,1.538,1.538,0,0,1,1.418,2.117c-.125,2.743,2.289,22.532,4.219,32.112,3.011,14.944,15.732,68.094,15.86,68.629a1.54,1.54,0,0,1-1.5,1.9M676.33,541.215c1.221,4.272,5.923,19.857,12.431,30.662,3.5,5.81,13.448,20.8,19.444,29.774-3.727-15.678-11.609-49.041-13.9-60.421-1.084-5.38-2.293-13.867-3.063-20.016-.757-6.043-1.086-9.414-1.175-11.351L680.418,512l-5.031,18.017,9.384,3.235a1.539,1.539,0,0,1,.285,2.777Z" transform="translate(-521.344 -402.229)" fill="#1a1311"/>
            <path id="Path_1848" data-name="Path 1848" d="M810.411,887.322a4.145,4.145,0,1,1-4.145-4.145,4.145,4.145,0,0,1,4.145,4.145" transform="translate(-614.145 -670.899)" fill="#fff"/>
            <path id="Path_1849" data-name="Path 1849" d="M802.547,889.244a5.641,5.641,0,1,1,5.641-5.641,5.648,5.648,0,0,1-5.641,5.641m0-8.29A2.649,2.649,0,1,0,805.2,883.6a2.651,2.651,0,0,0-2.648-2.649" transform="translate(-610.427 -667.18)" fill="#1a1311"/>
            <path id="Path_1850" data-name="Path 1850" d="M986,742.125h-.035a1.539,1.539,0,0,1-1.5-1.573c.207-9.3,4.594-59.615,4.781-61.752a1.538,1.538,0,1,1,3.065.268c-.046.522-4.565,52.348-4.77,61.553a1.538,1.538,0,0,1-1.537,1.5" transform="translate(-744.166 -524.164)" fill="#1a1311"/>
            <path id="Path_1851" data-name="Path 1851" d="M629.12,735.241a1.539,1.539,0,0,1-1.527-1.361c-1.261-10.845-8.869-59.567-8.946-60.058a1.539,1.539,0,0,1,3.04-.475c.077.491,7.694,49.273,8.962,60.178a1.538,1.538,0,0,1-1.351,1.706,1.475,1.475,0,0,1-.179.011" transform="translate(-483.304 -520.349)" fill="#1a1311"/>
            <path id="Path_1852" data-name="Path 1852" d="M689.643,417.582c-5.673.748-14.143-6.59-14.1-14.347.026-4.858,6.826-8.914,10.876-5.085,1.492,1.41.714,1.961,1.278,2.972" transform="translate(-523.886 -323.962)" fill="#fff"/>
            <path id="Path_1853" data-name="Path 1853" d="M685.013,415.342c-2.787,0-6.014-1.408-8.835-3.9-3.779-3.332-6.022-7.836-6-12.05a8.5,8.5,0,0,1,5.369-7.446,7.29,7.29,0,0,1,8.1,1.251,4.068,4.068,0,0,1,1.5,2.966c.021.271.029.305.068.374a1.539,1.539,0,0,1-2.687,1.5,3.7,3.7,0,0,1-.45-1.639c-.027-.355-.037-.489-.542-.966a4.331,4.331,0,0,0-4.779-.657,5.475,5.475,0,0,0-3.5,4.633c-.018,3.338,1.836,6.973,4.957,9.725,2.473,2.181,5.312,3.364,7.4,3.088a1.539,1.539,0,1,1,.4,3.051,7.7,7.7,0,0,1-1.007.065" transform="translate(-520.062 -320.132)" fill="#1a1311"/>
            <path id="Path_1854" data-name="Path 1854" d="M760.311,274.293c1.75,7.574,3.04,14.037,1.587,24.7-1.756,12.878-5.513,19.262-10.182,25.11a30.909,30.909,0,0,1-13.7,9.939c-4.825,1.679-12.23,1.721-15.422.864-10.477-2.815-16.3-7.588-21.3-23.836-3.182-10.34-6.464-27.813-4.783-38.208,2.272-14.049,21.318-33.141,46.98-22.266,11.228,4.758,13.664,10.014,16.826,23.7" transform="translate(-538.51 -217.538)" fill="#fff"/>
            <path id="Path_1855" data-name="Path 1855" d="M724.266,333.122a24.35,24.35,0,0,1-5.9-.6c-6.106-1.641-10.12-3.826-13.421-7.308-3.632-3.83-6.392-9.246-8.951-17.561-2.931-9.523-6.637-27.744-4.831-38.907,1.389-8.59,8.255-17.638,17.084-22.517,6.769-3.74,17.818-6.936,32.015-.92,12.1,5.127,14.583,11.176,17.724,24.768,1.862,8.056,3.067,14.583,1.612,25.254-1.733,12.717-5.453,19.536-10.5,25.862a32.5,32.5,0,0,1-14.4,10.432,34.012,34.012,0,0,1-10.426,1.5m.449-88.079a30.8,30.8,0,0,0-14.98,3.878c-9.292,5.135-14.5,13.9-15.535,20.315-1.721,10.642,1.889,28.263,4.735,37.51,4.955,16.1,10.471,20.18,20.23,22.8a31.179,31.179,0,0,0,14.517-.831,29.379,29.379,0,0,0,13.007-9.446c4.868-6.1,8.216-12.3,9.86-24.358,1.384-10.152.226-16.411-1.562-24.145h0c-3.2-13.851-5.543-18.227-15.927-22.627a36.574,36.574,0,0,0-14.345-3.1" transform="translate(-534.686 -213.668)" fill="#1a1311"/>
            <path id="Path_1856" data-name="Path 1856" d="M789.861,502.926a26.176,26.176,0,0,1,6.771-1.321,23.585,23.585,0,0,1,7.486,1.091" transform="translate(-605.403 -398.798)" fill="#fff"/>
            <path id="Path_1857" data-name="Path 1857" d="M786.04,500.641a1.539,1.539,0,0,1-.533-2.982,27.587,27.587,0,0,1,7.213-1.413,24.981,24.981,0,0,1,8.057,1.166,1.538,1.538,0,1,1-.965,2.922,22.189,22.189,0,0,0-6.914-1.016,24.919,24.919,0,0,0-6.331,1.229,1.534,1.534,0,0,1-.528.094" transform="translate(-601.581 -394.975)" fill="#1a1311"/>
            <path id="Path_1858" data-name="Path 1858" d="M793.518,428.3l-4.193-2.175s2.778-10,3.079-14.759" transform="translate(-605.021 -334.47)" fill="#fff"/>
            <path id="Path_1859" data-name="Path 1859" d="M789.693,426.018a1.529,1.529,0,0,1-.707-.173l-4.193-2.174a1.539,1.539,0,0,1-.774-1.778c.027-.1,2.739-9.9,3.026-14.444a1.539,1.539,0,0,1,3.071.194c-.248,3.917-2.052,11.026-2.806,13.867l3.092,1.6a1.539,1.539,0,0,1-.71,2.9" transform="translate(-601.198 -330.647)" fill="#1a1311"/>
            <path id="Path_1860" data-name="Path 1860" d="M912.917,411.506c5.652.891,14.5-4.051,14.547-13.445.022-4.858-5.383-9.253-9.529-5.528a7.559,7.559,0,0,0-2.116,2.685" transform="translate(-693.15 -320.046)" fill="#fff"/>
            <path id="Path_1861" data-name="Path 1861" d="M910.485,409.318a10.467,10.467,0,0,1-1.631-.125,1.538,1.538,0,0,1,.479-3.039c2.664.419,6.029-.706,8.572-2.87a11.645,11.645,0,0,0,4.2-9.062,5.692,5.692,0,0,0-3.16-5.052,3.325,3.325,0,0,0-3.8.676,5.488,5.488,0,0,0-1.516,1.788c-.089.161-.186.336-.3.536a1.539,1.539,0,1,1-2.648-1.568c.1-.17.182-.319.258-.455a8.349,8.349,0,0,1,2.154-2.59,6.378,6.378,0,0,1,7.118-1.194,8.775,8.775,0,0,1,4.978,7.874,14.825,14.825,0,0,1-5.28,11.392,15,15,0,0,1-9.414,3.691" transform="translate(-689.326 -316.213)" fill="#1a1311"/>
            <path id="Path_1862" data-name="Path 1862" d="M688.433,263.441c.546,7.659.71,12.466.71,12.466s-3.788-11.827-4.415-19.5c-.842-10.3-1.992-18.009,5.164-25.48,4.382-4.575,16.5-10.441,22.267-11.39,9.774-1.607,20.025-.834,27.213,3.09,8.036,4.387,9.99,9.819,9.99,9.819a12.181,12.181,0,0,1,8.877,7.108c5.073,10.765,2.976,19.25.149,26.786-1.208,3.221-3.413,4.454-4.873,6.992-2.215,3.849-2.264,4.952-2.264,4.952l-.6-.316s2.25-13.572-3.045-20.339c-6.631-8.474-8.168-11.881-8.217-18.33,0,0-20.071-8.679-36.524,6.27.133-3.172.832-8.291,2.132-10.156,0,0-5.415,1.067-9.544,8.584l-1.477-3.7a41.6,41.6,0,0,0-5.545,23.145" transform="translate(-529.989 -197.121)" fill="#1a1311"/>
            <path id="Path_1863" data-name="Path 1863" d="M749.056,276.941a1.039,1.039,0,0,1-.482-.125l-.6-.316a.907.907,0,0,1-.47-.949c.022-.132,2.12-13.262-2.864-19.632-6.576-8.4-8.257-11.979-8.4-18.267a38.156,38.156,0,0,0-11.3-2.19,32.161,32.161,0,0,0-23.718,8.509.906.906,0,0,1-1.514-.708,37.182,37.182,0,0,1,1.314-8.472c-.336.175-.705.389-1.1.646a18.529,18.529,0,0,0-5.929,6.729.906.906,0,0,1-1.635-.1l-.772-1.933a41.1,41.1,0,0,0-4.505,20.977c.541,7.588.711,12.452.712,12.5a.906.906,0,0,1-1.769.307c-.156-.487-3.826-12.014-4.455-19.7q-.076-.922-.152-1.818c-.808-9.522-1.446-17.044,5.566-24.363,4.549-4.748,16.885-10.689,22.774-11.657,10.721-1.763,20.853-.6,27.795,3.189,6.919,3.777,9.5,8.31,10.2,9.807A13.193,13.193,0,0,1,756.8,236.9c5.133,10.893,3.119,19.65.178,27.491a14.083,14.083,0,0,1-3,4.594,15.583,15.583,0,0,0-1.936,2.531c-1.847,3.21-2.111,4.379-2.143,4.559a.841.841,0,0,1-.421.747.787.787,0,0,1-.426.12m-25.579-43.322q.83,0,1.607.034A38,38,0,0,1,737.5,236.2a.906.906,0,0,1,.547.825c.047,6.248,1.472,9.4,8.024,17.779,2.319,2.963,3.564,7.419,3.7,13.244.034,1.463-.008,2.822-.079,3.982.228-.428.489-.9.787-1.417a17.231,17.231,0,0,1,2.146-2.824,12.422,12.422,0,0,0,2.664-4.034c2.61-6.957,4.968-15.284-.12-26.082A11.315,11.315,0,0,0,747,231.077a.907.907,0,0,1-.748-.593c-.018-.048-1.979-5.185-9.571-9.33-6.594-3.6-16.3-4.69-26.632-2.991-5.512.907-17.5,6.681-21.759,11.123-6.445,6.728-5.868,13.535-5.068,22.956q.076.9.152,1.823a76.413,76.413,0,0,0,2.193,11.6c-.083-1.339-.181-2.821-.3-4.426a42.106,42.106,0,0,1,5.685-23.7.906.906,0,0,1,1.605.152l.8,2c4.121-6.363,8.987-7.391,9.207-7.434a.906.906,0,0,1,.919,1.407c-.842,1.209-1.513,4.45-1.817,7.54a34.274,34.274,0,0,1,21.806-7.583" transform="translate(-527.735 -194.853)" fill="#1a1311"/>
            <path id="Path_1864" data-name="Path 1864" d="M842.886,207.967a53.385,53.385,0,0,0-23.731-19.581s7.588,8.419,9.557,13.017" transform="translate(-626.292 -175.47)" fill="#1a1311"/>
            <path id="Path_1865" data-name="Path 1865" d="M840.635,206.622a.906.906,0,0,1-.779-.441,52.958,52.958,0,0,0-19.53-17.456c2.415,2.908,5.725,7.171,6.967,10.071a.906.906,0,1,1-1.666.713c-1.888-4.408-9.323-12.684-9.4-12.767a.906.906,0,0,1,1.02-1.444,53.781,53.781,0,0,1,24.162,19.954.906.906,0,0,1-.777,1.37" transform="translate(-624.04 -173.218)" fill="#1a1311"/>
            <path id="Path_1866" data-name="Path 1866" d="M807.187,209.124s-4.533-5.7-17.7-7.124c0,0,11.35,5.4,12.54,8.75" transform="translate(-605.137 -185.177)" fill="#1a1311"/>
            <path id="Path_1867" data-name="Path 1867" d="M799.776,209.406a.907.907,0,0,1-.854-.6c-.775-2.181-7.818-6.209-12.075-8.235a.906.906,0,0,1,.487-1.719c13.389,1.445,18.116,7.216,18.311,7.461a.906.906,0,0,1-1.417,1.13c-.05-.062-3.2-3.816-11.542-5.838.275.158.555.321.836.487,4.209,2.493,6.534,4.49,7.109,6.107a.907.907,0,0,1-.854,1.21" transform="translate(-602.885 -182.926)" fill="#1a1311"/>
            <path id="Path_1868" data-name="Path 1868" d="M774.98,215.959s-6.344-3.582-19.079.05c0,0,12.547.739,14.909,3.4" transform="translate(-581.188 -194.006)" fill="#1a1311"/>
            <path id="Path_1869" data-name="Path 1869" d="M768.558,218.044a.9.9,0,0,1-.678-.3c-1.539-1.731-9.579-2.816-14.285-3.093a.906.906,0,0,1-.2-1.776c12.952-3.693,19.5-.121,19.773.032a.906.906,0,0,1-.888,1.58c-.069-.038-4.4-2.335-12.89-1.073.315.043.635.088.957.137,4.838.728,7.743,1.706,8.883,2.988a.906.906,0,0,1-.677,1.508" transform="translate(-578.935 -191.74)" fill="#1a1311"/>
            <path id="Path_1870" data-name="Path 1870" d="M931.462,422.194a4.5,4.5,0,0,0-2.741,3.446" transform="translate(-704.419 -342.189)" fill="#fff"/>
            <path id="Path_1871" data-name="Path 1871" d="M924.9,423.355a1.539,1.539,0,0,1-1.529-1.723,6.035,6.035,0,0,1,3.518-4.605,1.539,1.539,0,1,1,1.5,2.687c-1.2.67-1.833,1.208-1.964,2.287a1.539,1.539,0,0,1-1.525,1.355" transform="translate(-700.594 -338.365)" fill="#1a1311"/>
            <path id="Path_1872" data-name="Path 1872" d="M715.817,570.654s-7.816-1.7-8.759,1.573,4.113,9.935,10.71,8.182,4.985-6.537,3.408-7.213-5.358-2.542-5.358-2.542" transform="translate(-546.279 -447.736)" fill="#fff"/>
            <path id="Path_1873" data-name="Path 1873" d="M711.8,578.405a10.4,10.4,0,0,1-7.431-3.232c-2.2-2.249-3.23-5.073-2.618-7.2.416-1.444,1.824-3.155,6.224-3.126a23.823,23.823,0,0,1,4.341.476,1.544,1.544,0,0,1,.354.124c.038.018,3.763,1.855,5.284,2.507a4.549,4.549,0,0,1,2.318,4.465c-.273,3.747-4.244,5.2-5.938,5.649a9.859,9.859,0,0,1-2.534.332m-3.9-10.478c-1.672,0-3.009.283-3.187.9-.251.87.377,2.675,1.86,4.19a7.16,7.16,0,0,0,6.976,2.079c2.161-.574,3.454-1.547,3.641-2.739a1.853,1.853,0,0,0-.464-1.582c-1.428-.614-4.468-2.1-5.237-2.481a18.54,18.54,0,0,0-3.588-.37m8.845,2.859h0" transform="translate(-542.453 -443.913)" fill="#1a1311"/>
            <path id="Path_1874" data-name="Path 1874" d="M875.755,642.733,863.422,622.68l-19.218,8.8,11.427,20.806s1.712,3.881,10.915,0,9.21-9.551,9.21-9.551" transform="translate(-644.153 -485.148)" fill="#fff"/>
            <path id="Path_1875" data-name="Path 1875" d="M855.765,651.724c-3.8,0-5.055-2.017-5.326-2.562l-11.407-20.771a1.539,1.539,0,0,1,.708-2.14l19.219-8.8a1.538,1.538,0,0,1,1.95.593L873.243,638.1a1.539,1.539,0,0,1,.228.807c0,.273-.122,6.738-10.15,10.967a19.872,19.872,0,0,1-7.555,1.849M853.2,647.8c.468.683,2.882,1.784,8.92-.762,6.776-2.858,8-6.577,8.221-7.776L859,620.82l-16.475,7.541,10.63,19.356c.041.076.033.039.048.085" transform="translate(-640.33 -481.323)" fill="#1a1311"/>
            <path id="Path_1876" data-name="Path 1876" d="M808.918,562.258a10.421,10.421,0,0,1-9.267-1.8,90.2,90.2,0,0,1-7.6-6.289S784.6,533.525,786.5,532.3s-.176-5.92,5.426-7.3,8.374.531,10.083,1.135,2.94-.592,4.544.757a22.284,22.284,0,0,0,4.145,2.524,4.3,4.3,0,0,1,4.423,2.715c1.773,3.891,9.324,19.2,8.409,22.957" transform="translate(-602.788 -415.152)" fill="#fff"/>
            <path id="Path_1877" data-name="Path 1877" d="M802.263,560.375a12.094,12.094,0,0,1-7.376-2.513,90.912,90.912,0,0,1-7.743-6.41,1.544,1.544,0,0,1-.379-.585c-.019-.052-1.894-5.258-3.511-10.547-.958-3.132-1.641-5.689-2.032-7.6-.588-2.878-.677-4.707.612-5.535a4.755,4.755,0,0,0,.37-1.339c.362-1.885.97-5.039,5.521-6.157a14.421,14.421,0,0,1,10.163.851c.31.134.579.25.8.327a2.853,2.853,0,0,0,1.289.051,4.486,4.486,0,0,1,3.733.978,19.424,19.424,0,0,0,3.452,2.136,5.9,5.9,0,0,1,5.526,3.642c.214.47.513,1.108.872,1.872,5.14,10.963,8.406,18.914,7.632,22.087a1.539,1.539,0,0,1-2.99-.728c.1-.389.2-2.17-2.421-8.751-1.64-4.118-3.748-8.614-5.008-11.3-.364-.777-.668-1.425-.886-1.9a2.736,2.736,0,0,0-2.809-1.829,1.465,1.465,0,0,1-.859-.127,23.675,23.675,0,0,1-4.489-2.743c-.422-.354-.667-.349-1.456-.271a5.67,5.67,0,0,1-2.611-.212c-.319-.112-.647-.254-.993-.4a11.37,11.37,0,0,0-8.211-.688c-2.636.647-2.9,2.016-3.233,3.75a5.105,5.105,0,0,1-1.342,3.054c-.165,2.19,2.716,11.815,5.651,19.994.769.712,3.256,2.953,7.2,5.929a8.855,8.855,0,0,0,7.823,1.582,1.538,1.538,0,1,1,1.036,2.9,10.641,10.641,0,0,1-3.335.491" transform="translate(-598.949 -411.33)" fill="#1a1311"/>
            <path id="Path_1878" data-name="Path 1878" d="M679.907,571.463l9.028-11.185s2.688-11.819,4.371-14.148,14.423-18.331,17.356-18.575,13.184,5.192,14.916,7.428,6.786,8.052,7.289,11.172-.892,7.232-.892,7.232,2.959,2.789.282,5.529c-1.713,1.753-7.788,3.227-7.788,3.227s-1.373,3.537-8.9,8.636c-11.784,7.988-14.418,7.012-14.418,7.012l-9.685,13.68s-11.236-1.619-13.4-6.529,1.839-13.479,1.839-13.479" transform="translate(-525.231 -417.313)" fill="#fff"/>
            <path id="Path_1879" data-name="Path 1879" d="M687.641,589.191a1.474,1.474,0,0,1-.22-.016c-1.237-.178-12.151-1.9-14.588-7.431-1.041-2.364-1.031-5.592.029-9.595a33.933,33.933,0,0,1,1.824-5.156,1.546,1.546,0,0,1,.2-.315l8.806-10.909c.61-2.645,2.853-12.019,4.544-14.359.96-1.329,4.655-6,8.3-10.179,2.683-3.083,7.677-8.82,10.18-9.028,3.646-.3,14.335,5.533,16.261,8.018.265.342.608.768,1,1.257,3.086,3.833,6.138,7.81,6.59,10.613a18.29,18.29,0,0,1-.7,7.115,5.833,5.833,0,0,1,1.225,3.305,5.049,5.049,0,0,1-1.558,3.661c-1.657,1.7-5.975,2.979-7.838,3.471-.813,1.4-3.125,4.55-9.085,8.59-8.418,5.705-12.533,7.1-14.493,7.287L688.9,588.541a1.538,1.538,0,0,1-1.255.65M677.4,568.461c-1.063,2.355-3.251,8.633-1.749,12.043,1.226,2.782,7.221,4.741,11.291,5.476l9.13-12.9a1.54,1.54,0,0,1,1.6-.612c.337.008,3.362-.106,13.214-6.785,6.888-4.668,8.322-7.91,8.336-7.942a1.5,1.5,0,0,1,1.062-.916c2.346-.57,6.084-1.817,7.051-2.807a2.015,2.015,0,0,0,.682-1.433,3.175,3.175,0,0,0-.928-1.908,1.558,1.558,0,0,1-.393-1.606c.012-.037,1.265-3.8.831-6.493-.36-2.232-4.135-6.92-5.949-9.173-.408-.506-.763-.948-1.037-1.3-.558-.72-3.023-2.443-6.492-4.216s-6.151-2.647-7.034-2.623c-.279.1-2.083.97-8.418,8.281-3.736,4.312-7.14,8.661-7.865,9.664-1.092,1.511-3.1,9.137-4.117,13.588a1.545,1.545,0,0,1-.3.625Zm20.461,4.069h0m0,0h0Zm0,0h0m-.218-.058h0Z" transform="translate(-521.403 -413.494)" fill="#1a1311"/>
            <path id="Path_1880" data-name="Path 1880" d="M764.663,524.712s-7.25-3.874-11.628-1.455c-2.083,1.15-9.779-.357-13.218,1.2s-6.747,9.573-6.9,10.859A15.629,15.629,0,0,0,734.206,542c.946,1.712,4.412.829,5.22-.821s1.6-1.8,1.6-1.8a9.263,9.263,0,0,0,5.351-1.176c2.43-1.515,10.746-7.312,10.746-7.312a33.155,33.155,0,0,1,4.443-.65c-2.562,1.587-12.008,5.7-10.936,8.192,1.829,4.243,8.624.05,8.624.05s-6.337,3.157-3.918,6.291,12.69-.993,12.69-.993l3.337-.507a13.169,13.169,0,0,0,4.268-1.288" transform="translate(-564.783 -413.687)" fill="#fff"/>
            <path id="Path_1881" data-name="Path 1881" d="M754.909,543.686c-2.174,0-3.7-.59-4.612-1.776a3.862,3.862,0,0,1-.771-3.309,4.194,4.194,0,0,1,.164-.54,5.465,5.465,0,0,1-1.5-.239,4.455,4.455,0,0,1-2.8-2.583,2.751,2.751,0,0,1-.2-.721c-.741.495-1.376.91-1.823,1.189a10.67,10.67,0,0,1-5.784,1.435,3.548,3.548,0,0,0-.6.916,5.417,5.417,0,0,1-4.583,2.609h-.128a3.527,3.527,0,0,1-3.238-1.722,16.873,16.873,0,0,1-1.467-7.6c.158-1.365,3.561-10.17,7.79-12.083,2.166-.98,5.466-.927,8.375-.879,1.744.028,4.13.068,4.732-.265,5.052-2.791,12.772,1.27,13.1,1.444a1.539,1.539,0,1,1-1.45,2.714c-1.817-.966-7.181-3.11-10.159-1.465-1.32.73-3.5.694-6.27.649-2.588-.042-5.52-.09-7.057.606-2.612,1.182-5.784,8.229-6,9.644a14.492,14.492,0,0,0,1.1,5.752c.025.045.212.141.6.133a2.493,2.493,0,0,0,1.9-.886c1.033-2.11,2.223-2.547,2.688-2.637a1.553,1.553,0,0,1,.47-.018,7.765,7.765,0,0,0,4.36-.954c2.369-1.476,10.6-7.211,10.68-7.269a1.538,1.538,0,0,1,.554-.241,34.191,34.191,0,0,1,4.7-.684,1.538,1.538,0,0,1,.874,2.845c-.606.376-1.521.857-2.58,1.415-1.952,1.027-7.047,3.708-7.677,5.023a1.335,1.335,0,0,0,.819.7c1.209.383,3.271-.342,4.713-1.075.458-.277.8-.452.917-.509a1.538,1.538,0,0,1,1.494,2.686c-.112.069-.43.261-.895.5-1.214.747-2.616,1.9-2.821,2.8a.8.8,0,0,0,.208.739c.805,1.043,5.48.692,10.9-1.481a1.543,1.543,0,0,1,.342-.093l3.337-.507q.06-.009.12-.013a10.733,10.733,0,0,0,3.455-1.037l.344-.141a1.539,1.539,0,0,1,1.163,2.849l-.34.139A13.566,13.566,0,0,1,767.715,541l-3.109.472a41.172,41.172,0,0,1-5.505,1.678,19.6,19.6,0,0,1-4.192.536" transform="translate(-560.961 -409.889)" fill="#1a1311"/>
            <path id="Path_1882" data-name="Path 1882" d="M752.568,542.361c-1.6,0-3.805-.363-4.815-2.19-1.667-3.017-.389-4.134,2.155-6.358l.178-.155c1.195-1.045,2.914-2.684,4.576-4.269,2.073-1.977,4.031-3.844,5.177-4.769a1.539,1.539,0,1,1,1.933,2.394c-1.047.845-3.05,2.755-4.987,4.6-1.686,1.608-3.429,3.269-4.673,4.358l-.178.155a13.478,13.478,0,0,0-1.848,1.774,3.641,3.641,0,0,0,.36.78c.341.617,2.194.707,3.372.5a1.538,1.538,0,0,1,.544,3.028,10.638,10.638,0,0,1-1.794.149" transform="translate(-574.842 -414.981)" fill="#1a1311"/>
            <path id="Path_1883" data-name="Path 1883" d="M824.759,569.268c1.266-.26,6.628-2.63,8.909-2.858a19.442,19.442,0,0,0,3.875-.766" transform="translate(-630.288 -444.478)" fill="#fff"/>
            <path id="Path_1884" data-name="Path 1884" d="M820.933,566.985a1.539,1.539,0,0,1-.308-3.046c.349-.072,1.483-.5,2.484-.87a33.19,33.19,0,0,1,6.581-2.012,18.265,18.265,0,0,0,3.54-.693,1.539,1.539,0,0,1,.98,2.917,20.969,20.969,0,0,1-4.213.839,33.856,33.856,0,0,0-5.81,1.833,25.3,25.3,0,0,1-2.943,1,1.539,1.539,0,0,1-.311.032" transform="translate(-626.463 -440.656)" fill="#1a1311"/>
            <path id="Path_1885" data-name="Path 1885" d="M857.357,592.084c.877.031,5.079-1.388,7.024-1.6" transform="translate(-653.532 -462.189)" fill="#fff"/>
            <path id="Path_1886" data-name="Path 1886" d="M853.561,589.8h-.081a1.539,1.539,0,0,1,.053-3.076h.023c.35-.026,1.613-.366,2.538-.615a33.487,33.487,0,0,1,4.295-.978,1.539,1.539,0,1,1,.338,3.058,32.971,32.971,0,0,0-3.833.89,16.044,16.044,0,0,1-3.333.722m.012-3.077h0" transform="translate(-649.709 -458.365)" fill="#1a1311"/>
            <path id="Path_1887" data-name="Path 1887" d="M912.73,716.868a1.539,1.539,0,0,1-.628-2.944c.623-.283,2.412-1.385,2.479-2.708a1.539,1.539,0,0,1,3.073.158c-.18,3.5-4.134,5.287-4.3,5.362a1.534,1.534,0,0,1-.623.132" transform="translate(-691.919 -547.238)" fill="#1a1311"/>
            <path id="Path_1888" data-name="Path 1888" d="M640.869,687.557l10-10.1s5.873,5.034,9.288,8.258c3.96,3.737,12.109,8.868,12.109,8.868l-8.016,13.644" transform="translate(-499.163 -524.208)" fill="#fff"/>
            <path id="Path_1889" data-name="Path 1889" d="M660.426,705.943a1.539,1.539,0,0,1-1.325-2.318l7.267-12.369a92.736,92.736,0,0,1-11.09-8.244c-2.473-2.334-6.294-5.667-8.149-7.274l-8.991,9.078a1.539,1.539,0,0,1-2.186-2.166l10-10.1a1.537,1.537,0,0,1,2.094-.085c.059.05,5.941,5.095,9.343,8.306,3.807,3.592,11.793,8.635,11.873,8.685a1.539,1.539,0,0,1,.506,2.082l-8.016,13.644a1.538,1.538,0,0,1-1.328.759" transform="translate(-495.338 -520.385)" fill="#1a1311"/>
            <path id="Path_1890" data-name="Path 1890" d="M507.28,720.592l27.245-29.382a169.731,169.731,0,0,0,12.913,11.966c6.875,5.626,15.117,11.958,15.269,11.447,0,0-27.521,47.08-37.606,54.49-23.918,17.575-36.753,2.132-36.923-12.706" transform="translate(-390.285 -534.015)" fill="#04427d"/>
            <path id="Path_1891" data-name="Path 1891" d="M501.926,774.669a17.711,17.711,0,0,1-8-1.827c-6.646-3.316-11.008-11.261-11.111-20.241a1.539,1.539,0,0,1,1.521-1.556h.018a1.538,1.538,0,0,1,1.538,1.521c.09,7.838,3.783,14.716,9.408,17.523,6.565,3.275,15.232,1.187,25.066-6.039,8.756-6.434,31.716-44.779,36.363-52.628-.13-.087-.267-.18-.412-.28-.921-.632-2.166-1.544-3.7-2.708-2.9-2.2-6.536-5.075-9.977-7.89-4.97-4.066-9.779-8.787-11.908-10.928l-26.149,28.2a1.539,1.539,0,0,1-2.257-2.092l27.245-29.382a1.539,1.539,0,0,1,1.115-.492,1.583,1.583,0,0,1,1.123.473,169.546,169.546,0,0,0,12.779,11.841c6.861,5.614,13.073,10.312,14.5,11.112a1.54,1.54,0,0,1,1.272,1.963,1.609,1.609,0,0,1-.184.4c-1.574,2.689-27.855,47.445-37.986,54.89-8.377,6.155-15.091,8.139-20.264,8.139" transform="translate(-386.462 -530.191)" fill="#1a1311"/>
            <path id="Path_1892" data-name="Path 1892" d="M707.329,785.924a1.977,1.977,0,1,1-1.711-2.211,1.976,1.976,0,0,1,1.711,2.211" transform="translate(-543.745 -599.963)" fill="#1a1311"/>
            <path id="Path_1893" data-name="Path 1893" d="M690.283,814.5a1.977,1.977,0,1,1-1.711-2.211,1.977,1.977,0,0,1,1.711,2.211" transform="translate(-531.59 -620.342)" fill="#1a1311"/>
            <path id="Path_1894" data-name="Path 1894" d="M899.558,677.138l-10.421-14.291s-6.31,6.31-10.574,9.721-12.961,8.7-12.961,8.7l10.574,16.543" transform="translate(-659.41 -513.79)" fill="#fff"/>
            <path id="Path_1895" data-name="Path 1895" d="M872.353,695.525a1.537,1.537,0,0,1-1.3-.71l-10.574-16.543a1.538,1.538,0,0,1,.5-2.143c.086-.053,8.675-5.285,12.8-8.585,4.147-3.318,10.385-9.545,10.447-9.608a1.539,1.539,0,0,1,2.331.182l10.421,14.291a1.538,1.538,0,1,1-2.486,1.813l-9.369-12.848c-2.079,2.033-6.262,6.045-9.422,8.573-3.315,2.652-9.154,6.352-11.784,7.986l9.731,15.225a1.539,1.539,0,0,1-1.3,2.367" transform="translate(-655.587 -509.967)" fill="#1a1311"/>
            <path id="Path_1896" data-name="Path 1896" d="M927.86,712.59l-29.041-32.6a169.8,169.8,0,0,1-12.914,11.966c-6.875,5.625-15.117,11.958-15.269,11.446,0,0,30.88,53.2,41.492,59.833,23.747,14.846,35.345-4.937,34.663-19.434" transform="translate(-663.001 -526.012)" fill="#04427d"/>
            <path id="Path_1897" data-name="Path 1897" d="M923.856,766.211c-4.4,0-9.835-1.414-16.368-5.5-10.723-6.7-40.257-57.354-41.97-60.3a1.585,1.585,0,0,1-.181-.4,1.539,1.539,0,0,1,1.272-1.963c1.424-.8,7.637-5.5,14.5-11.112A169.609,169.609,0,0,0,893.885,675.1a1.538,1.538,0,0,1,2.258.043l29.041,32.6a1.539,1.539,0,1,1-2.3,2.047L894.94,678.414c-2.14,2.153-6.933,6.854-11.884,10.905-3.44,2.814-7.076,5.69-9.977,7.89-1.536,1.165-2.781,2.076-3.7,2.709q-.221.152-.419.285c10.9,18.659,32.227,52.941,40.161,57.9,8.724,5.454,16.492,6.489,22.466,2.992,5.078-2.973,10.325-10.827,9.844-21.049a1.539,1.539,0,0,1,3.074-.145c.379,8.061-3.015,18.963-11.364,23.85a18.134,18.134,0,0,1-9.283,2.459" transform="translate(-659.177 -522.188)" fill="#1a1311"/>
            <path id="Path_1898" data-name="Path 1898" d="M902.29,773.143A1.977,1.977,0,1,0,904,770.932a1.976,1.976,0,0,0-1.711,2.211" transform="translate(-685.56 -590.849)" fill="#1a1311"/>
            <path id="Path_1899" data-name="Path 1899" d="M919.335,801.722a1.977,1.977,0,1,0,1.71-2.211,1.976,1.976,0,0,0-1.71,2.211" transform="translate(-697.715 -611.228)" fill="#1a1311"/>
            <path id="Path_1900" data-name="Path 1900" d="M625.362,1046.834a7.442,7.442,0,0,1-5.787,3.321H459.451c-2.116,0-2.973-1.495-1.906-3.321l12.662-21.669a7.44,7.44,0,0,1,5.787-3.321H636.118c2.116,0,2.973,1.494,1.906,3.321Z" transform="translate(-368.114 -769.776)" fill="#e0e0e0"/>
            <path id="Path_1901" data-name="Path 1901" d="M615.755,1047.87H455.63a3.531,3.531,0,0,1-3.235-5.636l12.662-21.669a8.994,8.994,0,0,1,7.115-4.083H632.3a3.53,3.53,0,0,1,3.234,5.636l-12.662,21.669-1.328-.776,1.328.776a8.993,8.993,0,0,1-7.115,4.083m-143.582-28.311a5.9,5.9,0,0,0-4.458,2.559l-12.662,21.669c-.289.493-.258.763-.234.8s.24.2.812.2H615.755a5.9,5.9,0,0,0,4.459-2.558l12.662-21.669c.288-.494.258-.763.235-.8s-.24-.2-.812-.2Z" transform="translate(-364.294 -765.953)" fill="#1a1311"/>
            <path id="Path_1902" data-name="Path 1902" d="M607.3,865.766a3.629,3.629,0,0,1-3.652,3.842H443.526a4.1,4.1,0,0,1-4.041-3.842l-4.727-93.281a3.629,3.629,0,0,1,3.652-3.842H598.534a4.1,4.1,0,0,1,4.041,3.842Z" transform="translate(-352.189 -589.229)" fill="#e0e0e0"/>
            <path id="Path_1903" data-name="Path 1903" d="M599.827,867.323H439.7a5.65,5.65,0,0,1-5.578-5.3l-4.727-93.28a5.167,5.167,0,0,1,5.189-5.458H594.711a5.65,5.65,0,0,1,5.578,5.3l4.727,93.28a5.168,5.168,0,0,1-5.189,5.458M434.586,766.36a2.089,2.089,0,0,0-2.115,2.225l4.727,93.281a2.569,2.569,0,0,0,2.5,2.381H599.827a2.091,2.091,0,0,0,2.115-2.225l-4.727-93.28a2.569,2.569,0,0,0-2.5-2.381Z" transform="translate(-348.365 -585.406)" fill="#1a1311"/>
            <path id="Path_1904" data-name="Path 1904" d="M722.742,932.286a4.946,4.946,0,1,1-4.946-4.946,4.946,4.946,0,0,1,4.946,4.946" transform="translate(-550.49 -702.39)" fill="#fff"/>
            <path id="Path_1905" data-name="Path 1905" d="M713.972,934.947a6.484,6.484,0,1,1,6.484-6.484,6.492,6.492,0,0,1-6.484,6.484m0-9.892a3.407,3.407,0,1,0,3.407,3.407,3.411,3.411,0,0,0-3.407-3.407" transform="translate(-546.666 -698.566)" fill="#1a1311"/>
          </g>
        </g>
        <g id="Group_126" data-name="Group 126" transform="translate(0 0)">
          <g id="Group_125" data-name="Group 125" transform="translate(0 0)" clip-path="url(#clip-path-3)">
            <path id="Path_1906" data-name="Path 1906" d="M173.25,100.8a71.366,71.366,0,1,1-71.365-71.365A71.365,71.365,0,0,1,173.25,100.8" transform="translate(-21.762 -20.991)" fill="#fff"/>
            <path id="Path_1907" data-name="Path 1907" d="M98.061,169.881a72.9,72.9,0,1,1,51.551-21.353,72.426,72.426,0,0,1-51.551,21.353m0-142.731A69.827,69.827,0,1,0,147.436,47.6,69.37,69.37,0,0,0,98.061,27.15" transform="translate(-17.938 -17.167)" fill="#1a1311"/>
            <path id="Path_1908" data-name="Path 1908" d="M1182.432,100.8a71.366,71.366,0,1,1-71.365-71.365,71.365,71.365,0,0,1,71.365,71.365" transform="translate(-741.371 -20.991)" fill="#fff"/>
            <path id="Path_1909" data-name="Path 1909" d="M1107.243,169.881a72.9,72.9,0,1,1,51.551-21.353,72.426,72.426,0,0,1-51.551,21.353m0-142.731A69.827,69.827,0,1,0,1156.618,47.6a69.37,69.37,0,0,0-49.375-20.452" transform="translate(-737.548 -17.167)" fill="#1a1311"/>
            <path id="Path_1910" data-name="Path 1910" d="M446.533,436.345a9.1,9.1,0,1,1-9.1-9.1,9.1,9.1,0,0,1,9.1,9.1" transform="translate(-305.421 -304.65)" fill="#fff"/>
            <path id="Path_1911" data-name="Path 1911" d="M433.6,443.164a10.643,10.643,0,1,1,10.643-10.643A10.655,10.655,0,0,1,433.6,443.164m0-18.208a7.566,7.566,0,1,0,7.566,7.566,7.574,7.574,0,0,0-7.566-7.566" transform="translate(-301.598 -300.826)" fill="#1a1311"/>
            <path id="Path_1912" data-name="Path 1912" d="M1103.627,436.345a9.1,9.1,0,1,1-9.1-9.1,9.1,9.1,0,0,1,9.1,9.1" transform="translate(-773.97 -304.65)" fill="#fff"/>
            <path id="Path_1913" data-name="Path 1913" d="M1090.7,443.164a10.643,10.643,0,1,1,10.643-10.643,10.655,10.655,0,0,1-10.643,10.643m0-18.208a7.566,7.566,0,1,0,7.565,7.566,7.574,7.574,0,0,0-7.565-7.566" transform="translate(-770.146 -300.826)" fill="#1a1311"/>
            <path id="Path_1914" data-name="Path 1914" d="M504.971,497.975a3.524,3.524,0,1,1-3.524-3.524,3.524,3.524,0,0,1,3.524,3.524" transform="translate(-355.05 -352.575)" fill="#fff"/>
            <path id="Path_1915" data-name="Path 1915" d="M497.623,499.214a5.063,5.063,0,1,1,5.063-5.063,5.069,5.069,0,0,1-5.063,5.063m0-7.048a1.986,1.986,0,1,0,1.986,1.986,1.988,1.988,0,0,0-1.986-1.986" transform="translate(-351.226 -348.752)" fill="#1a1311"/>
            <path id="Path_1916" data-name="Path 1916" d="M1072,497.975a3.524,3.524,0,1,1-3.524-3.524,3.524,3.524,0,0,1,3.524,3.524" transform="translate(-759.373 -352.575)" fill="#fff"/>
            <path id="Path_1917" data-name="Path 1917" d="M1064.648,499.214a5.063,5.063,0,1,1,5.063-5.063,5.069,5.069,0,0,1-5.063,5.063m0-7.048a1.986,1.986,0,1,0,1.985,1.986,1.988,1.988,0,0,0-1.985-1.986" transform="translate(-755.55 -348.752)" fill="#1a1311"/>
            <path id="Path_1918" data-name="Path 1918" d="M1164.509,103.561a50.191,50.191,0,1,0,50.191,50.191,50.247,50.247,0,0,0-50.191-50.191m0,93.125a42.934,42.934,0,1,1,42.934-42.934,42.982,42.982,0,0,1-42.934,42.934" transform="translate(-794.577 -73.847)" fill="#1a1311"/>
            <path id="Path_1919" data-name="Path 1919" d="M1264.65,189.521l-20.136,19.833a5.713,5.713,0,0,0-4.154.121L1228.2,197.1a2.512,2.512,0,0,0-3.052,3.99l11.906,12.183a5.745,5.745,0,1,0,10.985-.343l20.133-19.83a2.512,2.512,0,1,0-3.525-3.579" transform="translate(-872.906 -134.626)" fill="#1a1311"/>
            <path id="Path_1920" data-name="Path 1920" d="M1280.8,155.292a3.065,3.065,0,1,0-3.064-3.065,3.065,3.065,0,0,0,3.064,3.065" transform="translate(-911.102 -106.363)" fill="#1a1311"/>
            <path id="Path_1921" data-name="Path 1921" d="M1400.255,266.976a3.065,3.065,0,1,0,3.065,3.065,3.065,3.065,0,0,0-3.065-3.065" transform="translate(-996.282 -190.371)" fill="#1a1311"/>
            <path id="Path_1922" data-name="Path 1922" d="M1282.442,386.434a3.065,3.065,0,1,0,3.065,3.065,3.065,3.065,0,0,0-3.065-3.065" transform="translate(-912.275 -275.552)" fill="#1a1311"/>
            <path id="Path_1923" data-name="Path 1923" d="M1162.983,268.619a3.065,3.065,0,1,0,3.065,3.065,3.065,3.065,0,0,0-3.065-3.065" transform="translate(-827.093 -191.543)" fill="#1a1311"/>
            <rect id="Rectangle_285" data-name="Rectangle 285" width="69.435" height="65.701" transform="translate(43.581 47.666)" fill="#fff"/>
            <path id="Path_1924" data-name="Path 1924" d="M217.48,229.53H148.046a1.544,1.544,0,0,1-1.545-1.544v-65.7a1.544,1.544,0,0,1,1.545-1.544H217.48a1.544,1.544,0,0,1,1.544,1.544v65.7a1.544,1.544,0,0,1-1.544,1.544m-67.891-3.089h66.346V163.83H149.59Z" transform="translate(-104.464 -114.619)" fill="#1a1311"/>
            <rect id="Rectangle_286" data-name="Rectangle 286" width="8.185" height="8.185" transform="translate(66.746 64.749)" fill="#fff"/>
            <path id="Path_1925" data-name="Path 1925" d="M236.96,231.55h-8.185A1.545,1.545,0,0,1,227.231,230V221.82a1.544,1.544,0,0,1,1.545-1.544h8.185a1.544,1.544,0,0,1,1.544,1.544V230a1.544,1.544,0,0,1-1.544,1.545m-6.64-3.089h5.1v-5.1h-5.1Z" transform="translate(-162.03 -157.071)" fill="#1a1311"/>
            <rect id="Rectangle_287" data-name="Rectangle 287" width="8.185" height="8.185" transform="translate(81.667 64.749)" fill="#fff"/>
            <path id="Path_1926" data-name="Path 1926" d="M288.961,231.55h-8.185A1.544,1.544,0,0,1,279.232,230V221.82a1.544,1.544,0,0,1,1.545-1.544h8.185a1.544,1.544,0,0,1,1.544,1.544V230a1.544,1.544,0,0,1-1.544,1.545m-6.64-3.089h5.1v-5.1h-5.1Z" transform="translate(-199.11 -157.071)" fill="#1a1311"/>
            <rect id="Rectangle_288" data-name="Rectangle 288" width="8.185" height="8.185" transform="translate(96.588 64.749)" fill="#fff"/>
            <path id="Path_1927" data-name="Path 1927" d="M340.962,231.55h-8.185A1.544,1.544,0,0,1,331.233,230V221.82a1.544,1.544,0,0,1,1.544-1.544h8.185a1.544,1.544,0,0,1,1.544,1.544V230a1.544,1.544,0,0,1-1.544,1.545m-6.64-3.089h5.1v-5.1h-5.1Z" transform="translate(-236.19 -157.071)" fill="#1a1311"/>
            <rect id="Rectangle_289" data-name="Rectangle 289" width="8.185" height="8.185" transform="translate(51.825 81.32)" fill="#fff"/>
            <path id="Path_1928" data-name="Path 1928" d="M184.96,289.3h-8.185a1.544,1.544,0,0,1-1.544-1.544v-8.185a1.545,1.545,0,0,1,1.544-1.544h8.185a1.545,1.545,0,0,1,1.545,1.544v8.185a1.544,1.544,0,0,1-1.545,1.544m-6.64-3.089h5.1v-5.1h-5.1Z" transform="translate(-124.951 -198.252)" fill="#1a1311"/>
            <rect id="Rectangle_290" data-name="Rectangle 290" width="8.185" height="8.185" transform="translate(66.746 81.32)" fill="#fff"/>
            <path id="Path_1929" data-name="Path 1929" d="M236.96,289.3h-8.185a1.544,1.544,0,0,1-1.545-1.544v-8.185a1.545,1.545,0,0,1,1.545-1.544h8.185a1.544,1.544,0,0,1,1.544,1.544v8.185a1.544,1.544,0,0,1-1.544,1.544m-6.64-3.089h5.1v-5.1h-5.1Z" transform="translate(-162.03 -198.252)" fill="#1a1311"/>
            <rect id="Rectangle_291" data-name="Rectangle 291" width="8.185" height="8.185" transform="translate(81.667 81.32)" fill="#fff"/>
            <path id="Path_1930" data-name="Path 1930" d="M288.961,289.3h-8.185a1.544,1.544,0,0,1-1.545-1.544v-8.185a1.545,1.545,0,0,1,1.545-1.544h8.185a1.545,1.545,0,0,1,1.544,1.544v8.185a1.544,1.544,0,0,1-1.544,1.544m-6.64-3.089h5.1v-5.1h-5.1Z" transform="translate(-199.11 -198.252)" fill="#1a1311"/>
            <rect id="Rectangle_292" data-name="Rectangle 292" width="8.185" height="8.185" transform="translate(96.588 81.32)" fill="#fff"/>
            <path id="Path_1931" data-name="Path 1931" d="M340.962,289.3h-8.185a1.544,1.544,0,0,1-1.544-1.544v-8.185a1.544,1.544,0,0,1,1.544-1.544h8.185a1.544,1.544,0,0,1,1.544,1.544v8.185a1.544,1.544,0,0,1-1.544,1.544m-6.64-3.089h5.1v-5.1h-5.1Z" transform="translate(-236.19 -198.252)" fill="#1a1311"/>
            <rect id="Rectangle_293" data-name="Rectangle 293" width="8.185" height="8.185" transform="translate(51.825 97.892)" fill="#fff"/>
            <path id="Path_1932" data-name="Path 1932" d="M184.96,347.054h-8.185a1.544,1.544,0,0,1-1.544-1.544v-8.185a1.544,1.544,0,0,1,1.544-1.544h8.185a1.545,1.545,0,0,1,1.545,1.544v8.185a1.544,1.544,0,0,1-1.545,1.544m-6.64-3.089h5.1v-5.1h-5.1Z" transform="translate(-124.951 -239.434)" fill="#1a1311"/>
            <rect id="Rectangle_294" data-name="Rectangle 294" width="8.185" height="8.185" transform="translate(66.746 97.892)" fill="#fff"/>
            <path id="Path_1933" data-name="Path 1933" d="M236.96,347.054h-8.185a1.544,1.544,0,0,1-1.545-1.544v-8.185a1.545,1.545,0,0,1,1.545-1.544h8.185a1.544,1.544,0,0,1,1.544,1.544v8.185a1.544,1.544,0,0,1-1.544,1.544m-6.64-3.089h5.1v-5.1h-5.1Z" transform="translate(-162.03 -239.434)" fill="#1a1311"/>
            <rect id="Rectangle_295" data-name="Rectangle 295" width="8.185" height="8.185" transform="translate(81.667 97.892)" fill="#fff"/>
            <path id="Path_1934" data-name="Path 1934" d="M288.961,347.054h-8.185a1.544,1.544,0,0,1-1.545-1.544v-8.185a1.544,1.544,0,0,1,1.545-1.544h8.185a1.544,1.544,0,0,1,1.544,1.544v8.185a1.544,1.544,0,0,1-1.544,1.544m-6.64-3.089h5.1v-5.1h-5.1Z" transform="translate(-199.11 -239.434)" fill="#1a1311"/>
            <rect id="Rectangle_296" data-name="Rectangle 296" width="8.185" height="8.185" transform="translate(96.588 97.892)" fill="#fff"/>
            <path id="Path_1935" data-name="Path 1935" d="M340.962,347.054h-8.185a1.544,1.544,0,0,1-1.544-1.544v-8.185a1.544,1.544,0,0,1,1.544-1.544h8.185a1.544,1.544,0,0,1,1.544,1.544v8.185a1.544,1.544,0,0,1-1.544,1.544m-6.64-3.089h5.1v-5.1h-5.1Z" transform="translate(-236.19 -239.434)" fill="#1a1311"/>
            <path id="Path_1936" data-name="Path 1936" d="M217.48,160.741H148.046a1.544,1.544,0,0,0-1.545,1.544v9.727a1.544,1.544,0,0,0,1.545,1.544H217.48a1.544,1.544,0,0,0,1.544-1.544v-9.727a1.544,1.544,0,0,0-1.544-1.544" transform="translate(-104.464 -114.619)" fill="#1a1311"/>
            <path id="Path_1937" data-name="Path 1937" d="M211.58,169.822a3.427,3.427,0,1,0,3.428,3.428,3.431,3.431,0,0,0-3.428-3.428" transform="translate(-148.426 -121.095)" fill="#fff"/>
            <path id="Path_1938" data-name="Path 1938" d="M317.137,169.822a3.427,3.427,0,1,0,3.427,3.428,3.431,3.431,0,0,0-3.427-3.428" transform="translate(-223.695 -121.095)" fill="#fff"/>
            <path id="Path_1939" data-name="Path 1939" d="M526.115,21.721a10.837,10.837,0,0,1-.026-1.643q.023-.374.074-.747c.019-.139.137-.609,0-.051.033-.137.055-.277.087-.415a11.2,11.2,0,0,1,.465-1.516c.089-.231.2-.455.288-.684-.214.535-.035.078.027-.045s.132-.253.2-.378a14.334,14.334,0,0,1,.864-1.373q.222-.313.46-.615c.091-.116.184-.23.277-.344.034-.042.165-.193-.008.007-.2.226.024-.027.067-.076a20.8,20.8,0,0,1,2.461-2.349c.449-.366.914-.711,1.384-1.049.083-.059.28-.17-.09.062.049-.031.1-.066.144-.1q.169-.114.339-.226.39-.255.788-.5a30.358,30.358,0,0,1,3.056-1.63c.523-.242,1.053-.468,1.588-.685q.395-.16.791-.313l.455-.173.171-.064c.229-.086.146-.066-.032.011A28.812,28.812,0,0,1,543.414,5.7a54.813,54.813,0,0,1,7.12-1.551q.9-.135,1.807-.239.423-.049.846-.091c.081-.008.162-.013.242-.024,0,0-.361.032-.16.015l.545-.046q1.818-.145,3.642-.17a54.139,54.139,0,0,1,7.276.393c.57.07,1.139.148,1.706.24.072.012.521.089.206.034-.3-.053.122.023.206.038q.416.078.83.166a29.128,29.128,0,0,1,3.27.89q.8.27,1.573.595.18.076.359.154c.114.051.585.283.07.027.247.123.5.242.741.372a16.157,16.157,0,0,1,2.728,1.8c.339.279-.217-.2.017.014.107.1.215.193.32.292q.3.278.574.575a15.052,15.052,0,0,1,1.038,1.261c.14.186-.2-.3-.073-.106.03.046.062.092.092.138q.121.183.235.371.211.348.4.71t.346.733q.075.173.144.349l.059.151c.136.349-.1-.287-.029-.076.163.516.321,1.029.434,1.559q.084.4.145.8.029.188.052.376c.012.092.06.545.031.255-.031-.308.007.131.012.2q.013.218.02.435.013.409,0,.819a15.925,15.925,0,0,1-.122,1.638q-.024.19-.053.38c-.02.13-.136.624-.008.067-.062.267-.106.538-.17.805q-.189.8-.457,1.578c-.188.547-.413,1.077-.646,1.605-.084.19.075-.158.074-.156-.041.069-.072.149-.108.222q-.1.193-.2.384-.228.436-.478.861a24.832,24.832,0,0,1-2.139,3.013c-.127.156.1-.117.1-.118-.056.059-.108.125-.162.187-.1.109-.191.217-.288.324q-.333.368-.68.723-.65.668-1.343,1.292a34.353,34.353,0,0,1-2.872,2.321l-.318.228c-.066.047-.406.285-.177.126s-.123.083-.18.122q-.208.141-.418.278-.7.459-1.419.888a39.6,39.6,0,0,1-5.966,2.9l-.417.159-.157.058c-.219.082.337-.121.116-.043-.263.093-.526.187-.791.276q-.794.267-1.6.5-1.609.47-3.252.806t-3.307.536q-.416.05-.833.091l-.167.016c.466-.052.234-.021.129-.013l-.445.036q-.835.063-1.672.091A39.223,39.223,0,0,1,543.143,39q-.415-.057-.828-.124c-.128-.02-.257-.053-.386-.064.031,0,.451.081.144.025l-.22-.04c-.6-.112-1.207-.236-1.8-.4-.285-.079-.568-.168-.845-.271-.158-.058-.312-.123-.467-.188-.047-.02-.25-.1-.009,0,.271.114-.059-.036-.116-.068a6.862,6.862,0,0,1-.728-.476c-.292-.213.072.06.066.062a1.391,1.391,0,0,1-.164-.155q-.141-.139-.27-.291c-.074-.088-.142-.18-.213-.271-.137-.176.207.326.095.134-.025-.042-.052-.083-.078-.125a6.671,6.671,0,0,1-.35-.7c-.125-.277.123.38.007.014-.035-.11-.067-.221-.1-.333a7.816,7.816,0,0,1-.145-.783c-.045-.306.025.4,0,.013q-.009-.176-.009-.353a7.029,7.029,0,0,1,.047-.808c.01-.086.074-.482.018-.164-.059.333.021-.085.039-.16a6.967,6.967,0,0,1,.227-.775q.059-.165.126-.328c.03-.072.063-.142.092-.213.079-.189-.077.162-.076.161.187-.247.306-.577.474-.842q.227-.357.484-.694a3.92,3.92,0,0,0,.3-.379s-.24.271-.1.123c.069-.075.135-.152.2-.226a18.117,18.117,0,0,1,2.785-2.385c.082-.059.287-.177-.084.057.047-.03.093-.064.14-.1q.164-.111.329-.22.378-.248.762-.485.722-.443,1.468-.845a30.289,30.289,0,0,1,3.066-1.436c.245-.1.491-.193.737-.285.3-.112-.089.045-.112.041a1,1,0,0,0,.213-.076q.213-.075.427-.147.8-.269,1.62-.495a31.173,31.173,0,0,1,3.31-.721q.836-.135,1.679-.224c.07-.007.518-.052.218-.023-.282.028.136-.01.219-.016q.45-.034.9-.056a30.42,30.42,0,0,1,3.385.029q.845.055,1.686.157.392.048.783.106l.39.061c.072.012.326.057.042.006-.317-.058.058.011.1.018a24.007,24.007,0,0,1,3.7.976q.422.15.836.32.207.085.411.174c.078.034.155.071.233.1.23.1-.414-.205-.032-.015a16.5,16.5,0,0,1,1.658.936q.372.243.729.508.178.133.352.272l.2.161c.193.155-.3-.272-.031-.025a12.771,12.771,0,0,1,1.118,1.147q.242.286.466.588c.032.043.062.087.095.13.139.184-.2-.306-.077-.114.078.119.158.238.233.359a10.652,10.652,0,0,1,.742,1.415c.049.114.095.229.141.344.111.276-.045-.1-.048-.133a1.183,1.183,0,0,0,.068.2q.123.376.214.762t.148.775c.01.072.054.5.028.186-.026-.3.007.148.011.241q.015.4-.008.791-.011.186-.031.37-.009.09-.021.18c0,.026-.068.439-.017.141s-.044.189-.061.26q-.059.246-.132.488c-.091.3-.2.6-.318.893-.056.135-.129.269-.177.406.166-.473-.016.018-.079.134-.151.282-.313.557-.485.827a17.225,17.225,0,0,1-1.146,1.556c-.158.2.218-.245.05-.059-.043.048-.085.1-.128.145q-.172.193-.349.381-.327.347-.669.68-.584.57-1.206,1.1t-1.274,1.019c-.218.163-.444.314-.661.478-.009.007.316-.215.154-.107l-.18.122q-.181.121-.363.24a26.409,26.409,0,0,1-2.842,1.6q-.735.356-1.49.667-.352.145-.709.28c-.408.154.267-.093-.029.011-.154.055-.308.109-.463.161a26.735,26.735,0,0,1-3.15.852q-.8.164-1.607.279-.377.054-.755.1c-.126.014-.253.024-.379.04.556-.07-.01,0-.133.008a25.346,25.346,0,0,1-3.261.033c-.263-.015-.526-.032-.787-.056-.149-.013-.3-.029-.445-.048a1.164,1.164,0,0,1-.254-.037l.222.037q-.094-.018-.187-.041c-.143-.034-.286-.073-.426-.12a1.425,1.425,0,0,0-.235-.088c.011,0,.323.176.151.073-.125-.075-.25-.155-.375-.23-.245-.146.147.136.146.135a.688.688,0,0,1-.157-.151c-.07-.073-.132-.152-.2-.229-.186-.219.213.374.048.056-.046-.089-.1-.176-.136-.268-.022-.05-.04-.11-.066-.159.047.086.124.422.062.143-.022-.1-.051-.2-.071-.3-.016-.084-.057-.442-.028-.119s0-.048,0-.125c0-.135,0-.271.016-.406a1.038,1.038,0,0,1,.038-.316s-.107.489-.033.2c.011-.044.02-.089.031-.134.06-.239.16-.461.232-.694.058-.191-.121.265-.111.227a.89.89,0,0,1,.083-.162c.05-.093.1-.185.161-.274s.116-.175.18-.259a1.742,1.742,0,0,0,.141-.179c.014.059-.291.323-.041.057a6.4,6.4,0,0,1,.574-.537c.1-.084.206-.163.31-.243.255-.2-.08.072-.1.066.034.011.207-.136.237-.155a11.576,11.576,0,0,1,1.523-.794c.246-.108.5-.211.747-.308.125-.049.251-.1.377-.143.1-.036.316-.1-.107.039.072-.024.143-.052.215-.077q.869-.309,1.747-.59c1.177-.375,2.369-.706,3.576-.968q.9-.2,1.814-.336.454-.069.91-.121a2.665,2.665,0,0,1,.425-.045c-.041,0-.416.034-.1.01l.243-.019a19.383,19.383,0,0,1,3.629.07c.16.019.32.04.48.063.071.011.541.086.242.037-.279-.046.156.032.24.05q.238.049.475.107a12.939,12.939,0,0,1,1.481.448q.348.13.688.279l.136.061c.272.12-.15-.07-.165-.079.115.065.239.117.356.178a13.249,13.249,0,0,1,1.284.761q.31.208.608.433.139.105.275.213l.154.125c.189.153-.085-.071-.126-.11.362.337.727.665,1.062,1.031s.616.755.92,1.139c-.012-.015-.253-.377-.1-.137l.08.121q.092.142.18.286.2.329.374.672.152.3.283.606c.049.114.085.243.143.353.01.02-.132-.387-.076-.207.023.075.052.15.076.225a8.808,8.808,0,0,1,.326,1.386c.017.11.025.222.043.331.036.219-.029-.4-.016-.177,0,.048.007.1.01.143q.023.386.008.772c-.008.229-.026.458-.054.685a1.62,1.62,0,0,0-.027.195c0-.017.094-.473.032-.185-.027.127-.054.254-.085.38q-.084.329-.2.649-.065.182-.138.361l-.057.133c-.122.281.031-.026.064-.128a4.881,4.881,0,0,1-.75,1.24q-.1.138-.206.271c-.041.051-.082.1-.122.151-.12.152.161-.185.144-.168-.185.183-.351.384-.539.565-.357.344-.76.617-1.135.936.017-.015.375-.25.133-.095l-.124.08q-.145.093-.294.18-.339.2-.693.374-.31.151-.629.28a1.935,1.935,0,0,0-.183.072c.019-.01.427-.148.154-.057-.124.041-.248.083-.373.12a9.052,9.052,0,0,1-1.381.3l-.145.019c-.286.039.154-.013.173-.013-.112,0-.226.017-.338.022q-.362.016-.725,0c-.225-.01-.45-.03-.673-.059-.024,0-.191-.024-.191-.028s.41.079.236.041c-.11-.024-.221-.045-.331-.071a7.412,7.412,0,0,1-1.383-.485l.962,2.687c.052-.087.105-.173.164-.256.04-.057.237-.3.037-.061s.02-.01.055-.045c.06-.059.123-.115.187-.17a1.28,1.28,0,0,0,.2-.156q-.34.229-.168.119c.042-.028.086-.054.13-.079.113-.065.373-.13.455-.223-.062.071-.4.132-.1.039.081-.025.162-.047.244-.066.1-.023.2-.039.3-.057.305-.055-.328.009-.111.008.17,0,.335-.005.5.01a.838.838,0,1,0-.124-.032c.09.034.2.046.295.074s.16.053.239.084c.29.114-.027.014-.113-.059.122.1.3.17.429.266q.062.044.121.092.162.129-.161-.139a1.163,1.163,0,0,0,.181.177c.059.061.115.124.169.189.033.039.222.311.054.053s0,.007.037.066c.052.087.1.176.145.267.038.076.068.154.1.231.091.2-.119-.394-.039-.1.044.164.08.326.111.492.065.348.006-.415-.007-.061,0,.1,0,.2-.006.3a1.794,1.794,0,0,0,3.585.136,5.349,5.349,0,0,0-9.926-3.061,1.79,1.79,0,0,0-.167,1.587,1.882,1.882,0,0,0,1.129,1.1c4.419,2.043,9.827-.072,12.633-3.782a9.569,9.569,0,0,0,1.795-6.883,11.556,11.556,0,0,0-2.771-6.07,14.971,14.971,0,0,0-5.62-4.055,17.337,17.337,0,0,0-7.5-1.193,31.809,31.809,0,0,0-7.93,1.467c-1.308.4-2.615.844-3.881,1.366a11.153,11.153,0,0,0-3.39,2.066,6.278,6.278,0,0,0-1.653,7.085c1.242,2.775,4.62,2.958,7.259,2.937a28.386,28.386,0,0,0,13.869-3.757,27.157,27.157,0,0,0,5.756-4.393,14.44,14.44,0,0,0,4.342-7.815c.829-5.3-2.978-10.225-7.52-12.463a28.72,28.72,0,0,0-15.669-2.36,31.9,31.9,0,0,0-13.7,4.774,17.207,17.207,0,0,0-5.991,5.678,8.871,8.871,0,0,0-.673,7.671,6.592,6.592,0,0,0,2.535,3.047,11.376,11.376,0,0,0,4.04,1.48,41.233,41.233,0,0,0,7.4.813,42.015,42.015,0,0,0,14.235-2.242,41.1,41.1,0,0,0,13.018-7.225c4.019-3.35,7.493-7.856,8.48-13.1a17.04,17.04,0,0,0-.156-7.581,14.086,14.086,0,0,0-3.735-6.447C575.9,2.775,570.822,1.244,565.857.532A55.746,55.746,0,0,0,550.226.58a54.781,54.781,0,0,0-7.485,1.587,51.052,51.052,0,0,0-7.469,2.726,30.011,30.011,0,0,0-6.456,4.047,18.743,18.743,0,0,0-4.744,5.631,12.782,12.782,0,0,0-1.542,7.014,1.979,1.979,0,0,0,.462,1.271,1.793,1.793,0,0,0,2.533.128,1.727,1.727,0,0,0,.59-1.263" transform="translate(-372.566 -0.004)" fill="#1a1311"/>
          </g>
        </g>
      </g>
    </g>
    <g id="Rectangle_318" data-name="Rectangle 318" transform="translate(140.5 1330.606)" fill="none" stroke="#325691" stroke-width="4">
      <rect width="499" height="306.313" stroke="none"/>
      <rect x="2" y="2" width="495" height="302.313" fill="none"/>
    </g>
  </g>
</svg>
