<svg xmlns="http://www.w3.org/2000/svg" xmlns:xlink="http://www.w3.org/1999/xlink" width="386" height="268" viewBox="0 0 386 268">
  <defs>
    <clipPath id="clip-path">
      <rect id="Rectangle_342" data-name="Rectangle 342" width="386" height="268" transform="translate(730 2645.909)" fill="#eaeaea"/>
    </clipPath>
    <clipPath id="clip-path-2">
      <rect id="Rectangle_341" data-name="Rectangle 341" width="279.108" height="241.513" transform="translate(0 0)" fill="none"/>
    </clipPath>
  </defs>
  <g id="Mask_Group_41" data-name="Mask Group 41" transform="translate(-730 -2645.909)" clip-path="url(#clip-path)">
    <g id="Group_159" data-name="Group 159" transform="translate(783.758 2678.586)">
      <g id="Group_158" data-name="Group 158" transform="translate(0 0)" clip-path="url(#clip-path-2)">
        <path id="Path_2389" data-name="Path 2389" d="M453.543,856.464c2.607.323,17.66.971,19.718,2.751,2.021,1.749,12.84,19.718-1.07,23.692-11.468,3.276-23.386-2.981-33.475-8.483" transform="translate(-355.412 -693.837)" fill="#04427d"/>
        <path id="Path_2390" data-name="Path 2390" d="M461.191,880.424c-9.958,0-19.808-5.373-27.384-9.505a1.034,1.034,0,0,1,.991-1.816,96.8,96.8,0,0,0,16.044,7.458c6.279,2.039,11.725,2.346,16.651.939,3.409-.974,5.376-2.848,6.013-5.729,1.4-6.333-4.118-15.133-5.336-16.187-.189-.164-1.2-.747-6.265-1.368-3.216-.394-6.891-.665-9.575-.863-1.524-.112-2.727-.2-3.329-.276a1.034,1.034,0,1,1,.254-2.053c.551.068,1.732.155,3.226.266,9.613.708,15.483,1.383,17.041,2.73,1.607,1.39,7.61,10.919,6,18.2-.8,3.64-3.316,6.086-7.464,7.272a24.9,24.9,0,0,1-6.87.936" transform="translate(-350.998 -689.423)" fill="#1a1311"/>
        <path id="Path_2391" data-name="Path 2391" d="M277.865,1034.022l2.266,44.136-63.587-.05s-1.31-24.039-.841-41.881Z" transform="translate(-174.664 -837.68)" fill="#04427d"/>
        <path id="Path_2392" data-name="Path 2392" d="M275.724,1074.78h0l-63.586-.05a1.034,1.034,0,0,1-1.032-.978c-.013-.241-1.307-24.285-.842-41.965a1.034,1.034,0,0,1,1-1.006l62.161-2.2h.037a1.034,1.034,0,0,1,1.032.981l2.266,44.136a1.035,1.035,0,0,1-1.033,1.087m-62.6-2.118,61.516.048-2.158-42.032-60.17,2.135c-.347,15.444.582,35.259.813,39.849" transform="translate(-170.256 -833.267)" fill="#1a1311"/>
        <path id="Path_2393" data-name="Path 2393" d="M202.214,496.452c-.972,35.783.229,68.019.917,76.885.1,1.252-18.826,4.484-31.793,4.586-20.65.162-45.856-1.834-45.856-1.834s3.539-34.6,3.668-35.462c-10.19-1.529-10.8-12.33-12.024-26.087s-1.556-27.278-1.427-34.6c.074-4.211-1.213-20.3,5.655-25.985,2.576-2.13,21.532-8.678,21.629-8.713,1.651-.592,32.152-1.555,35.767-1.223,10.489.964,19.221,6.8,21.629,12.992,3.21,8.254,1.834,39.436,1.834,39.436" transform="translate(-93.689 -359.657)" fill="#04427d"/>
        <path id="Path_2394" data-name="Path 2394" d="M164.515,574.591c-19.975,0-43.287-1.828-43.529-1.847a1.034,1.034,0,0,1-.947-1.136c.329-3.211,2.971-29.041,3.562-34.512-4.391-.948-7.282-3.672-9.052-8.5-1.647-4.492-2.158-10.29-2.749-17l-.118-1.337c-1.178-13.249-1.567-26.977-1.43-34.705.009-.516,0-1.246-.018-2.092-.108-6.295-.333-19.394,6.049-24.672,2.452-2.028,17.375-7.3,21.89-8.872l.053-.018c1.878-.673,32.791-1.591,36.207-1.278,10.33.949,19.792,6.689,22.5,13.647,3.244,8.343,1.965,38.442,1.9,39.847-.923,34.018.14,66.784.915,76.768a1.225,1.225,0,0,1-.336.927c-.235.256-.674.734-4.251,1.554-2.122.486-4.889.989-8,1.455a153.3,153.3,0,0,1-20.23,1.765c-.8.006-1.605.009-2.416.009M122.2,570.762c4.992.37,26.718,1.893,44.71,1.751,12.271-.1,28.054-2.836,30.731-4-.773-10.6-1.791-42.943-.881-76.468v-.017c.014-.31,1.33-31.058-1.765-39.016-1.119-2.877-3.734-5.7-7.365-7.953a31.293,31.293,0,0,0-13.394-4.385c-3.711-.341-33.388.644-35.34,1.172l-.051.018c-9.405,3.268-19.624,7.167-21.251,8.512-5.614,4.643-5.393,17.536-5.3,23.042.015.865.028,1.612.018,2.164-.135,7.674.252,21.313,1.423,34.486l.118,1.339c1.148,13.038,1.977,22.459,11.029,23.816a1.034,1.034,0,0,1,.869,1.177c-.106.738-2.311,22.2-3.554,34.357m75.481-1.72h0Z" transform="translate(-89.274 -355.282)" fill="#1a1311"/>
        <path id="Path_2395" data-name="Path 2395" d="M306.627,384.815s-4.738,4.433-8.56,8.713c-4.461,5-.153,7.948-.153,7.948l24.723,52.531,8.293-20.737,1.987-27.055a69.834,69.834,0,0,1-9.935-11.923c-4.7-7.134-.306-11.158-.306-11.158" transform="translate(-239.83 -310.384)" fill="#fff"/>
        <path id="Path_2396" data-name="Path 2396" d="M318.223,450.63a1.034,1.034,0,0,1-.936-.594l-24.619-52.308a5.743,5.743,0,0,1-2.036-3.621c-.224-1.847.533-3.758,2.248-5.679,3.808-4.265,8.577-8.734,8.625-8.779a1.034,1.034,0,1,1,1.413,1.51c-.047.044-4.75,4.452-8.495,8.646-1.294,1.449-1.879,2.805-1.74,4.03a3.718,3.718,0,0,0,1.407,2.381,1.063,1.063,0,0,1,.345.408L318.146,447l7.35-18.38,1.939-26.4a71.639,71.639,0,0,1-9.732-11.77c-1.455-2.211-2.992-5.583-2.048-9.091a7.518,7.518,0,0,1,1.908-3.4,1.034,1.034,0,0,1,1.4,1.525c-.145.137-3.649,3.569.471,9.827A69.29,69.29,0,0,0,329.2,401.04a1.034,1.034,0,0,1,.333.839l-1.987,27.055a1.033,1.033,0,0,1-.071.308l-8.292,20.737a1.035,1.035,0,0,1-.93.65h-.031" transform="translate(-235.415 -305.973)" fill="#1a1311"/>
        <path id="Path_2397" data-name="Path 2397" d="M379.666,483.715l-13.192.528,5.214,7.544,6.3.113Z" transform="translate(-296.887 -391.866)" fill="#1a1311"/>
        <path id="Path_2398" data-name="Path 2398" d="M394.659,526.34s6.377,17.308,8.685,27.093l-6.982,16.5-9.313-13.349s1.409-25.384,1.307-30.353Z" transform="translate(-313.555 -426.306)" fill="#1a1311"/>
        <path id="Path_2399" data-name="Path 2399" d="M437.455,445.875c-1.04-7.954-6.485-20.295-6.485-20.295l10.481,4.185,6.29,12.741s-3.453,1.793-6.465,3.2c2.626,1.433,7.7,4.361,7.674,4.674-.04.56-2.494,14.115-5.774,20.637s-10.706,19.715-10.706,19.715,6.6-32.532,4.986-44.861" transform="translate(-349.136 -344.77)" fill="#04427d"/>
        <path id="Path_2400" data-name="Path 2400" d="M428.055,487.358a1.034,1.034,0,0,1-1.013-1.24c.066-.324,6.544-32.5,4.974-44.521-1.008-7.714-6.352-19.889-6.405-20.011a1.034,1.034,0,0,1,1.33-1.378l10.481,4.185a1.032,1.032,0,0,1,.544.5l6.29,12.741a1.034,1.034,0,0,1-.451,1.376c-.028.014-2.261,1.173-4.689,2.354.964.545,2.068,1.18,3.107,1.8.876.522,1.571.954,2.066,1.283.743.494,1.33.884,1.279,1.6-.041.583-2.478,14.261-5.882,21.028-3.253,6.469-10.654,19.625-10.728,19.758a1.034,1.034,0,0,1-.9.527m.418-64.311c1.631,3.979,4.808,12.27,5.594,18.282,1.2,9.145-1.967,28.776-3.8,38.907,2.43-4.389,5.7-10.365,7.572-14.092,2.912-5.788,5.156-17.217,5.593-19.78-1.093-.765-4.491-2.754-7.064-4.158a1.034,1.034,0,0,1,.057-1.845c2.038-.955,4.3-2.1,5.526-2.721l-5.663-11.473Z" transform="translate(-344.723 -340.358)" fill="#1a1311"/>
        <path id="Path_2401" data-name="Path 2401" d="M416.41,431.1l-5.48-3.71s-.4,7.376-6.005,11.7l11.43,8.25s1.648-9.041.055-16.24" transform="translate(-328.036 -346.24)" fill="#fff"/>
        <path id="Path_2402" data-name="Path 2402" d="M411.941,443.968a1.033,1.033,0,0,1-.605-.2l-11.431-8.25a1.034,1.034,0,0,1-.026-1.658c5.149-3.971,5.6-10.869,5.6-10.938a1.035,1.035,0,0,1,1.613-.8l5.481,3.71a1.034,1.034,0,0,1,.43.633c1.619,7.319.021,16.271-.048,16.649a1.034,1.034,0,0,1-1.017.849m-9.755-9.351,8.984,6.484c.368-2.819.919-8.752-.1-13.785l-3.751-2.54a18.065,18.065,0,0,1-5.134,9.84" transform="translate(-323.623 -341.83)" fill="#1a1311"/>
        <path id="Path_2403" data-name="Path 2403" d="M315.565,421.753l-10.8,9.06c-.2.066-3.93-5.721-5.807-9.862-1.952-4.3-4.054-9.272-4.341-9.791l5.348-5.172s6.641,7.082,9.145,9.559,6.451,6.205,6.451,6.205" transform="translate(-238.677 -328.899)" fill="#fff"/>
        <path id="Path_2404" data-name="Path 2404" d="M300.327,427.442c-.6,0-1-.58-1.549-1.393-.442-.649-1-1.525-1.575-2.467a66.575,66.575,0,0,1-3.591-6.62c-1.021-2.253-2.066-4.644-2.9-6.566-.659-1.51-1.282-2.936-1.4-3.151a1.039,1.039,0,0,1,.186-1.245l5.348-5.172a1.015,1.015,0,0,1,.744-.291,1.034,1.034,0,0,1,.729.327c.066.071,6.656,7.1,9.118,9.531s6.395,6.152,6.434,6.189a1.034,1.034,0,0,1-.045,1.544l-10.8,9.06a1.028,1.028,0,0,1-.342.19,1.139,1.139,0,0,1-.357.062m-8.865-20.467c.245.545.613,1.387,1.14,2.595.836,1.916,1.878,4.3,2.893,6.539a71.537,71.537,0,0,0,5.016,8.812l9.092-7.63c-1.3-1.237-3.841-3.658-5.626-5.423-2.028-2.006-6.66-6.915-8.454-8.822Z" transform="translate(-234.269 -324.484)" fill="#1a1311"/>
        <path id="Path_2405" data-name="Path 2405" d="M252.255,441.889l-3.516-10.853L257.6,426.6s10.385,18.7,13.026,25.077c3.187,7.7,14.209,39.885,14.209,39.885S270.9,477.657,266.776,471.39c-4.516-6.858-12.381-21.4-12.381-21.4l8.014-5.87Z" transform="translate(-201.508 -345.6)" fill="#04427d"/>
        <path id="Path_2406" data-name="Path 2406" d="M280.428,488.186a1.033,1.033,0,0,1-.731-.3c-.572-.571-14.06-14.056-18.2-20.339-4.489-6.816-12.348-21.33-12.427-21.476a1.034,1.034,0,0,1,.3-1.327l6.167-4.517-7.918-1.74a1.034,1.034,0,0,1-.762-.691l-3.515-10.853a1.034,1.034,0,0,1,.521-1.244l8.865-4.433a1.034,1.034,0,0,1,1.367.423c.425.765,10.444,18.82,13.078,25.183,3.163,7.643,14.122,39.623,14.232,39.945a1.034,1.034,0,0,1-.978,1.369m-29.105-42.309c1.7,3.125,8.066,14.7,11.9,20.53,2.811,4.268,10.384,12.278,14.737,16.762-3.12-9.043-10.264-29.617-12.7-35.507-2.265-5.474-10.425-20.352-12.5-24.1l-7.183,3.591,3.059,9.443,9.575,2.1a1.034,1.034,0,0,1,.389,1.844Z" transform="translate(-197.095 -341.186)" fill="#1a1311"/>
        <path id="Path_2407" data-name="Path 2407" d="M433.959,928.488a3.221,3.221,0,1,1-3.537-2.87,3.221,3.221,0,0,1,3.537,2.87" transform="translate(-346.353 -749.846)" fill="#fff"/>
        <path id="Path_2408" data-name="Path 2408" d="M426.34,928.664a4.255,4.255,0,1,1,.444-.023,4.33,4.33,0,0,1-.444.023m0-6.442a2.186,2.186,0,1,0,2.173,1.96,2.2,2.2,0,0,0-2.173-1.96" transform="translate(-341.941 -745.433)" fill="#1a1311"/>
        <path id="Path_2409" data-name="Path 2409" d="M1043.439,1082.057l-67.026-.229-.2-32.845,70.633-9.9Z" transform="translate(-790.851 -841.781)" fill="#04427d"/>
        <path id="Path_2410" data-name="Path 2410" d="M1039.026,1078.68h0L972,1078.451a1.034,1.034,0,0,1-1.03-1.028l-.2-32.844a1.034,1.034,0,0,1,.891-1.03l70.633-9.9a1.034,1.034,0,0,1,1.175,1.106l-3.411,42.972a1.035,1.035,0,0,1-1.031.952m-66-2.294,65.042.222,3.233-40.732-68.46,9.594Z" transform="translate(-786.438 -837.37)" fill="#1a1311"/>
        <path id="Path_2411" data-name="Path 2411" d="M932.98,447.621c-2.27-2.934-10.335-4.144-15.532-4.755-18.089-3.858-45.134,1.766-62.211,6.573-8.13,2.289-18.177,6.474-19.565,11.922-2.936,11.525,1.489,61.109,8.533,71.584,1.768,2.629,3.95,5.352,11.389,4.231-.359,14.228-.427,34.427-.427,34.427s27.946,2.037,45.287,1.143c25.139-1.3,38.241-4.082,38.241-4.082s-1.834-22.928-5.5-42.875c2.8-1.012,8.591-2.766,9.243-4.064,5.407-10.775,2.063-61.762-9.456-74.1" transform="translate(-676.248 -357.734)" fill="#04427d"/>
        <path id="Path_2412" data-name="Path 2412" d="M885.941,569.615c-16.249,0-35.045-1.353-35.274-1.37a1.034,1.034,0,0,1-.959-1.035c0-.2.068-19.252.4-33.245-6.822.705-9.271-1.988-11.184-4.832-4.792-7.127-7.471-29.253-8.179-35.865-1.735-16.221-1.935-30.91-.5-36.551,1.66-6.516,13.423-10.731,20.287-12.663,12.122-3.412,42.479-10.881,62.659-6.6,9.236,1.09,14.224,2.666,16.15,5.105,2.811,3.031,5.27,8.3,7.306,15.665a140.327,140.327,0,0,1,4.01,22.539c1.681,16.432.973,31.66-1.724,37.033-.62,1.236-3,2.224-8.093,3.973l-.9.31c3.531,19.568,5.34,41.884,5.358,42.11a1.034,1.034,0,0,1-.816,1.094c-.132.028-13.47,2.818-38.4,4.1-3.105.16-6.563.226-10.141.226m-34.161-3.366c5.064.344,28.92,1.862,44.2,1.075,21.124-1.089,33.835-3.257,37.186-3.886-.386-4.473-2.207-24.424-5.411-41.851a1.034,1.034,0,0,1,.666-1.16c.508-.183,1.113-.391,1.755-.611,1.9-.654,6.358-2.182,6.923-2.96,2.49-4.99,3.125-20.072,1.507-35.88-1.832-17.909-5.871-31.754-10.8-37.038-.022-.023-.043-.048-.062-.073-1.477-1.91-6.468-3.377-14.834-4.361-.032,0-.063-.009-.095-.016-19.729-4.208-49.732,3.183-61.715,6.557-10.789,3.037-17.833,7.217-18.843,11.182-1.361,5.34-1.134,20.07.55,35.821,1.826,17.071,4.829,30.455,7.838,34.93,1.851,2.752,3.79,4.778,10.377,3.786a1.035,1.035,0,0,1,1.188,1.049c-.311,12.289-.4,29.238-.423,33.436" transform="translate(-671.823 -353.346)" fill="#1a1311"/>
        <path id="Path_2413" data-name="Path 2413" d="M1275.816,611.559c.427-.38,1.656-6.483,1.656-6.483" transform="translate(-1033.561 -490.183)" fill="#04427d"/>
        <path id="Path_2414" data-name="Path 2414" d="M1271.4,608.18a1.035,1.035,0,0,1-.821-1.664,55.646,55.646,0,0,0,1.463-6.057,1.034,1.034,0,0,1,2.028.408c-1.3,6.441-1.726,6.823-1.982,7.051a1.03,1.03,0,0,1-.687.262m-.688-1.807h0" transform="translate(-1029.148 -485.77)" fill="#1a1311"/>
        <path id="Path_2415" data-name="Path 2415" d="M1000.341,442.83l38.941-5.457-3.63,36.164-9.127,32.951-15.8-26.071Z" transform="translate(-810.394 -354.324)" fill="#fff"/>
        <path id="Path_2416" data-name="Path 2416" d="M1073.074,495.612l-6.807.451-5.018-7.928,14.471-1.525Z" transform="translate(-859.737 -394.212)" fill="#1a1311"/>
        <path id="Path_2417" data-name="Path 2417" d="M1087.733,530.208l-6.715,1.175-1.561,28.238,10.6,18.036,5.23-20.254Z" transform="translate(-874.487 -429.531)" fill="#1a1311"/>
        <path id="Path_2418" data-name="Path 2418" d="M1048.56,402.933l-25.6,1.5-.969-16.542,23.041-7.36Z" transform="translate(-827.932 -308.275)" fill="#fff"/>
        <path id="Path_2419" data-name="Path 2419" d="M1018.546,401.055a1.035,1.035,0,0,1-1.032-.974l-.969-16.542a1.034,1.034,0,0,1,.718-1.046l23.042-7.36a1.034,1.034,0,0,1,1.336.825l3.528,22.4a1.034,1.034,0,0,1-.961,1.193l-25.6,1.5-.061,0m.112-16.835.861,14.708,23.43-1.372-3.163-20.085Z" transform="translate(-823.52 -303.863)" fill="#1a1311"/>
        <path id="Path_2420" data-name="Path 2420" d="M1096.161,427.212l9.67,7.054a49.207,49.207,0,0,0,4.351-8.691c1.406-3.76,2.9-8.09,2.8-8.091l-5.441-4.99a109.81,109.81,0,0,1-6.27,9.089c-1.979,2.243-5.108,5.63-5.108,5.63" transform="translate(-888.019 -334.168)" fill="#fff"/>
        <path id="Path_2421" data-name="Path 2421" d="M1101.461,430.9a1.205,1.205,0,0,1-.3-.04,1.034,1.034,0,0,1-.354-.167l-9.67-7.054a1.034,1.034,0,0,1-.15-1.537c.031-.034,3.144-3.4,5.092-5.612,1.9-2.155,6.127-8.886,6.169-8.954a1.035,1.035,0,0,1,1.575-.213l5.417,4.969a1.048,1.048,0,0,1,.181.2c.31.452.187.837-.082,1.681-.151.473-.375,1.139-.648,1.928-.573,1.656-1.3,3.684-1.954,5.427a57.664,57.664,0,0,1-2.668,5.833c-.433.833-.858,1.61-1.2,2.188-.45.768-.791,1.35-1.413,1.35m-8.167-8.248,7.864,5.736a60.078,60.078,0,0,0,3.643-7.583c1.155-3.089,2.23-6.18,2.61-7.386l-4.074-3.736a91.007,91.007,0,0,1-5.706,8.175c-1.359,1.54-3.275,3.636-4.338,4.793" transform="translate(-883.607 -329.757)" fill="#1a1311"/>
        <path id="Path_2422" data-name="Path 2422" d="M1015.748,447.452l-7.359,9.44a49.221,49.221,0,0,1-6.573-7.16c-2.385-3.229-5.012-6.981-4.914-7.01l3.524-5.244s6.343,4.353,8.863,5.965,6.459,4.009,6.459,4.009" transform="translate(-807.606 -354.409)" fill="#fff"/>
        <path id="Path_2423" data-name="Path 2423" d="M1003.953,453.53c-.491,0-.929-.418-1.481-.945-.484-.462-1.106-1.093-1.751-1.774a57.672,57.672,0,0,1-4.169-4.875c-1.105-1.5-2.365-3.246-3.371-4.68-.479-.683-.878-1.263-1.153-1.676-.491-.737-.715-1.073-.541-1.593a1.027,1.027,0,0,1,.14-.275l3.509-5.221a1.035,1.035,0,0,1,1.444-.276c.063.043,6.358,4.362,8.835,5.947s6.4,3.972,6.439,4a1.034,1.034,0,0,1,.278,1.52l-7.359,9.44a1.1,1.1,0,0,1-.819.414m-10.261-15.183c.709,1.07,2.579,3.727,4.524,6.359A60.113,60.113,0,0,0,1003.8,451l5.985-7.677c-1.339-.82-3.758-2.309-5.488-3.416-1.947-1.246-6.2-4.145-8.028-5.394Z" transform="translate(-803.173 -349.997)" fill="#1a1311"/>
        <path id="Path_2424" data-name="Path 2424" d="M1140.581,446.717c.414-6.944.429-23.634-.049-23.564l8.922,1.88,6.422,12.872-7.974,4.267,7.894,3.677s-3.113,13.315-6.257,20.727c-2.421,5.708-14.078,27.469-14.078,27.469s4.491-36.787,5.12-47.328" transform="translate(-919.857 -342.804)" fill="#04427d"/>
        <path id="Path_2425" data-name="Path 2425" d="M1131.048,490.667a1.035,1.035,0,0,1-1.027-1.16c.045-.368,4.494-36.876,5.114-47.265.4-6.692.388-21.133.077-23a1.034,1.034,0,0,1,.758-1.522,1.057,1.057,0,0,1,.425.025l8.859,1.867a1.034,1.034,0,0,1,.712.55l6.422,12.872a1.034,1.034,0,0,1-.437,1.374l-6.15,3.291,6.019,2.8a1.034,1.034,0,0,1,.57,1.173c-.128.547-3.169,13.486-6.312,20.9-2.412,5.685-13.641,26.664-14.118,27.554a1.034,1.034,0,0,1-.911.546m6.152-48.3c-.476,7.983-3.188,31.2-4.463,41.891,3.579-6.758,9.769-18.565,11.437-22.5,2.629-6.2,5.277-16.744,6.006-19.743l-7.128-3.321a1.034,1.034,0,0,1-.051-1.849l7.088-3.793-5.75-11.525-6.978-1.47c.1,1.385.15,3.788.151,8.059,0,5.46-.121,11.053-.312,14.248" transform="translate(-915.444 -338.391)" fill="#1a1311"/>
        <path id="Path_2426" data-name="Path 2426" d="M977.533,465.955c-2.307-6.562-6.409-21.879-5.93-21.943l-8.062,4.26-1.718,14.1,7.632,1.49-6.123,6.164s7.06,11.867,11.548,18.211c3.974,5.618,19.914,22.706,19.914,22.706s-13.758-35.027-17.261-44.989" transform="translate(-779.19 -359.702)" fill="#04427d"/>
        <path id="Path_2427" data-name="Path 2427" d="M990.382,507.565a1.034,1.034,0,0,1-.757-.329c-.653-.7-16.033-17.2-20-22.814-4.46-6.3-11.521-18.161-11.592-18.28a1.034,1.034,0,0,1,.155-1.258l4.759-4.791-5.732-1.119a1.034,1.034,0,0,1-.828-1.14l1.718-14.1a1.034,1.034,0,0,1,.543-.789l8-4.229a1.058,1.058,0,0,1,.4-.141,1.034,1.034,0,0,1,1.141,1.28c.172,1.859,3.684,15.032,5.9,21.345h0c3.456,9.83,17.11,44.6,17.247,44.954a1.034,1.034,0,0,1-.962,1.412m-30.163-41.793c1.572,2.62,7.3,12.09,11.092,17.456,2.7,3.821,11.15,13.165,16.1,18.566-3.955-10.115-12.61-32.343-15.27-39.909-1.244-3.539-2.868-9.169-3.972-13.258-1.042-3.856-1.584-6.083-1.841-7.405l-6.242,3.3-1.536,12.609,6.687,1.305a1.034,1.034,0,0,1,.536,1.744Z" transform="translate(-774.777 -355.289)" fill="#1a1311"/>
        <path id="Path_2428" data-name="Path 2428" d="M1155.272,892.468a3.156,3.156,0,1,1-3.564-2.688,3.156,3.156,0,0,1,3.564,2.688" transform="translate(-930.817 -720.802)" fill="#fff"/>
        <path id="Path_2429" data-name="Path 2429" d="M1147.725,892.683a4.2,4.2,0,1,1,.59-.041,4.255,4.255,0,0,1-.59.041m.013-6.314a2.165,2.165,0,0,0-.3.021,2.122,2.122,0,1,0,2.4,1.807h0a2.123,2.123,0,0,0-2.1-1.828" transform="translate(-926.404 -716.388)" fill="#1a1311"/>
        <path id="Path_2430" data-name="Path 2430" d="M980.028,726.682c6.549-1.285,9.861,2.892,10.135,1.411l1.868-10.119c-9.413-5.412-11.587-7.258-17.781-7.365a13.945,13.945,0,0,0-9.128,2.722c1.174,3.017,5.986,13.746,5.986,13.746a57.76,57.76,0,0,0,8.92-.4" transform="translate(-781.862 -575.675)" fill="#fff"/>
        <path id="Path_2431" data-name="Path 2431" d="M985.417,725.04a4.5,4.5,0,0,1-1.731-.569,11.933,11.933,0,0,0-7.871-1.186,57.717,57.717,0,0,1-9.147.414,1.034,1.034,0,0,1-.915-.61c-.2-.439-4.836-10.787-6.007-13.794a1.034,1.034,0,0,1,.388-1.234,15.044,15.044,0,0,1,9.722-2.9c5.6.1,8.079,1.55,14.718,5.433,1.051.615,2.242,1.311,3.56,2.069a1.034,1.034,0,0,1,.5,1.084l-1.868,10.118a1.379,1.379,0,0,1-.717,1.017,1.352,1.352,0,0,1-.634.154m-7.3-4.053a14.591,14.591,0,0,1,6.444,1.608l.315.145,1.6-8.647c-1.074-.62-2.056-1.195-2.939-1.711-6.475-3.787-8.656-5.063-13.71-5.151a12.627,12.627,0,0,0-7.833,2.092c1.294,3.149,4.446,10.22,5.385,12.32a50.9,50.9,0,0,0,8.045-.389,13.988,13.988,0,0,1,2.7-.267m-2.5,1.282h0Z" transform="translate(-777.45 -571.263)" fill="#1a1311"/>
        <path id="Path_2432" data-name="Path 2432" d="M1178.06,644.753s5.764-3.853,10.568-3.885,9.709-.479,8.949,2.672c-.307,1.272-5.671,1.276-5.671,1.276s9.1.514,7.9,2.98c-1.184,2.425-8.258,1.879-8.258,1.879s7.579,2.067,6.492,3.818c-1.743,2.809-8.638,1.451-8.189,1.228,0,0,7.244,2.324,6.08,3.929-1.648,2.273-5.491,1.224-8.286,1.108-2.593-.107-7.286,2.143-8.276,3.083s-15.191-2.038-15.191-2.038,7-11.773,13.885-16.05" transform="translate(-943.118 -519.147)" fill="#fff"/>
        <path id="Path_2433" data-name="Path 2433" d="M1173.908,659.648a47.9,47.9,0,0,1-7.094-.868c-3.651-.623-7.227-1.371-7.262-1.379a1.034,1.034,0,0,1-.677-1.541c.291-.489,7.205-12.025,14.214-16.391.406-.269,6.141-4.016,11.121-4.05.5,0,1.008-.011,1.506-.019,3.611-.057,6.729-.106,8.012,1.5a2.747,2.747,0,0,1,.443,2.471,1.663,1.663,0,0,1-.625.944c1.85.556,2.443,1.2,2.725,1.676a1.9,1.9,0,0,1,.05,1.848c-.627,1.284-2.253,1.933-3.986,2.248a4.756,4.756,0,0,1,2.308,2,1.689,1.689,0,0,1-.138,1.542,4.895,4.895,0,0,1-3.451,2.047,3.685,3.685,0,0,1,1.538,1.664,1.641,1.641,0,0,1-.237,1.508c-1.652,2.278-4.816,1.95-7.357,1.687-.645-.067-1.253-.13-1.809-.153-2.253-.093-6.666,1.988-7.521,2.8-.24.228-.5.471-1.758.471m-12.48-3.973c5.636,1.135,11.741,2.105,12.953,1.879,1.325-1.1,6.031-3.362,8.892-3.244.62.026,1.26.092,1.937.162,2.1.218,4.266.442,5.3-.641a15.123,15.123,0,0,0-4.429-2.213q-.144-.027-.272-.055c-.494-.109-1.32-.29-1.42-1.1a1.065,1.065,0,0,1,.587-1.079,1.034,1.034,0,0,1,.776-.059c.264.085.58.19.928.312,1.592.259,4.869.349,5.938-.924-.555-.587-2.883-1.666-5.757-2.452a1.034,1.034,0,0,1,.352-2.029c2.639.2,6.581-.126,7.226-1.258-.513-.58-3.509-1.339-7-1.537a1.034,1.034,0,0,1,.058-2.067,13.468,13.468,0,0,0,4.7-.632c.061-.372-.041-.5-.078-.546-.649-.811-3.952-.759-6.364-.721-.5.008-1.016.016-1.525.019-4.442.03-9.945,3.674-10,3.711l-.029.019c-5.291,3.289-10.779,11.356-12.766,14.458m13.033,1.86h0m-.813-17.2h0Z" transform="translate(-938.707 -514.733)" fill="#1a1311"/>
        <path id="Path_2434" data-name="Path 2434" d="M964.83,797.6a1.034,1.034,0,0,1-.357-2.005l7.4-2.721a1.034,1.034,0,1,1,.714,1.941l-7.395,2.721a1.028,1.028,0,0,1-.357.064" transform="translate(-780.787 -642.267)" fill="#1a1311"/>
        <path id="Path_2435" data-name="Path 2435" d="M896.332,865.268c-3.366,0-6-.827-7.9-2.481a1.034,1.034,0,0,1,1.362-1.557c6.163,5.393,23.463-.291,48.714-16a1.034,1.034,0,1,1,1.093,1.756c-10.455,6.506-19.647,11.361-27.32,14.431-6.424,2.57-11.755,3.856-15.953,3.856" transform="translate(-719.452 -684.606)" fill="#1a1311"/>
        <path id="Path_2436" data-name="Path 2436" d="M944.741,684.385a1.035,1.035,0,0,1-.949-.623l-11.132-25.686a1.034,1.034,0,1,1,1.9-.823l11.132,25.686a1.034,1.034,0,0,1-.948,1.446" transform="translate(-755.494 -531.948)" fill="#1a1311"/>
        <path id="Path_2437" data-name="Path 2437" d="M1266.3,712.789c-1.951-.768-5.04-.3-8.33.238" transform="translate(-1019.101 -577.115)" fill="#fff"/>
        <path id="Path_2438" data-name="Path 2438" d="M1253.553,709.658a1.034,1.034,0,0,1-.167-2.055c3.73-.613,6.753-1.017,8.877-.18a1.034,1.034,0,1,1-.758,1.924c-1.762-.694-4.961-.168-7.783.3a1.022,1.022,0,0,1-.169.014" transform="translate(-1014.688 -572.712)" fill="#1a1311"/>
        <path id="Path_2439" data-name="Path 2439" d="M1266.5,685.789c-2.677-.8-7.286.3-9.095.833" transform="translate(-1018.644 -555.341)" fill="#fff"/>
        <path id="Path_2440" data-name="Path 2440" d="M1252.989,683.254a1.034,1.034,0,0,1-.292-2.026c1.047-.309,6.437-1.8,9.684-.832a1.034,1.034,0,0,1-.593,1.982c-2.228-.667-6.4.211-8.506.834a1.031,1.031,0,0,1-.293.043" transform="translate(-1014.231 -550.938)" fill="#1a1311"/>
        <path id="Path_2441" data-name="Path 2441" d="M1272.568,661.744c-2.865-.194-6.836,1.094-8.824,1.493" transform="translate(-1023.781 -536.075)" fill="#fff"/>
        <path id="Path_2442" data-name="Path 2442" d="M1259.33,659.861a1.034,1.034,0,0,1-.2-2.048c.466-.094,1.055-.241,1.738-.411a26.164,26.164,0,0,1,7.359-1.1,1.034,1.034,0,1,1-.14,2.064,24.747,24.747,0,0,0-6.719,1.044c-.707.176-1.318.329-1.832.432a1.055,1.055,0,0,1-.2.02" transform="translate(-1019.368 -531.664)" fill="#1a1311"/>
        <path id="Path_2443" data-name="Path 2443" d="M1074.121,728.962l-6.369-1.992-3.642,19,5.908.988" transform="translate(-862.053 -588.932)" fill="#fff"/>
        <path id="Path_2444" data-name="Path 2444" d="M1065.606,743.575a1.027,1.027,0,0,1-.172-.014l-5.908-.988a1.034,1.034,0,0,1-.845-1.215l3.642-18.995a1.034,1.034,0,0,1,1.325-.792l6.37,1.992a1.034,1.034,0,1,1-.617,1.974l-5.263-1.646-3.225,16.817,4.864.814a1.034,1.034,0,0,1-.169,2.054" transform="translate(-857.641 -584.519)" fill="#1a1311"/>
        <path id="Path_2445" data-name="Path 2445" d="M1121.823,733.627c-.877.6-32.318-6.076-33.228-5.708s-4.593,22.12-4.593,22.12,54.843,14.623,60.355,3.638" transform="translate(-878.169 -589.689)" fill="#04427d"/>
        <path id="Path_2446" data-name="Path 2446" d="M1126.529,754.425a125.516,125.516,0,0,1-18.992-1.82c-14.287-2.265-28.077-5.924-28.215-5.961a1.034,1.034,0,0,1-.754-1.172c.01-.055.934-5.51,1.959-10.941,2.174-11.523,2.585-11.69,3.266-11.965.566-.228,1.227-.181,15.081,2.477,7.057,1.354,16.657,3.2,18.2,3.2h.043a1.034,1.034,0,0,1,.874,1.846c-.641.441-.834.574-19.511-3.009-5.569-1.068-11.8-2.264-13.688-2.492-.754,2.251-2.546,11.621-4.03,20.3,3.3.846,15.027,3.767,27.108,5.681,24.4,3.866,29.985.566,31.144-1.745a1.034,1.034,0,0,1,1.849.928c-1.567,3.122-6.3,4.678-14.339,4.678m-9.7-26.045h0m0,0h0" transform="translate(-873.755 -585.295)" fill="#1a1311"/>
        <path id="Path_2447" data-name="Path 2447" d="M1155.029,258.846c3.7-2.141,8.28.079,8.4,3.9.2,6.411-3.87,10.014-8.223,9.85" transform="translate(-935.709 -209.02)" fill="#fff"/>
        <path id="Path_2448" data-name="Path 2448" d="M1151.081,269.247c-.109,0-.218,0-.328-.006a1.034,1.034,0,0,1,.078-2.067,6.383,6.383,0,0,0,4.785-1.883,9.155,9.155,0,0,0,2.365-6.9,3.7,3.7,0,0,0-2-3.148,4.937,4.937,0,0,0-4.848.108,1.034,1.034,0,0,1-1.037-1.79,7.016,7.016,0,0,1,6.89-.126,5.8,5.8,0,0,1,3.061,4.891,11.186,11.186,0,0,1-2.975,8.433,8.436,8.436,0,0,1-5.993,2.489" transform="translate(-931.296 -204.628)" fill="#1a1311"/>
        <path id="Path_2449" data-name="Path 2449" d="M1159.175,287.629a5.043,5.043,0,0,1,2.75-4.272" transform="translate(-939.068 -229.553)" fill="#fff"/>
        <path id="Path_2450" data-name="Path 2450" d="M1154.763,284.25l-.071,0a1.034,1.034,0,0,1-.963-1.1,6.082,6.082,0,0,1,3.343-5.139,1.034,1.034,0,1,1,.879,1.872,4.015,4.015,0,0,0-2.157,3.406,1.034,1.034,0,0,1-1.031.965" transform="translate(-934.655 -225.139)" fill="#1a1311"/>
        <path id="Path_2451" data-name="Path 2451" d="M905.4,318.417c-5.1-.383-7.087,3.667-5.308,7.054s6.035,5.377,9.572,2.835" transform="translate(-728.664 -257.936)" fill="#fff"/>
        <path id="Path_2452" data-name="Path 2452" d="M901.794,326.085a7.007,7.007,0,0,1-1.614-.192,8.514,8.514,0,0,1-5.435-4.351,5.837,5.837,0,0,1,.126-5.987c1.21-1.843,3.46-2.782,6.175-2.578a1.034,1.034,0,1,1-.155,2.063c-1.97-.148-3.495.438-4.291,1.651a3.8,3.8,0,0,0-.024,3.89,6.421,6.421,0,0,0,4.08,3.3,4.767,4.767,0,0,0,3.974-.823,1.034,1.034,0,0,1,1.207,1.68,6.857,6.857,0,0,1-4.042,1.348" transform="translate(-724.231 -253.527)" fill="#1a1311"/>
        <path id="Path_2453" data-name="Path 2453" d="M928.266,343.156a3.517,3.517,0,0,0-3.18-1.266" transform="translate(-749.428 -276.971)" fill="#fff"/>
        <path id="Path_2454" data-name="Path 2454" d="M923.854,339.776a1.032,1.032,0,0,1-.822-.406,2.509,2.509,0,0,0-2.345-.859h-.013a1.034,1.034,0,0,1-.013-2.068,4.57,4.57,0,0,1,4.015,1.672,1.034,1.034,0,0,1-.821,1.662" transform="translate(-745.016 -272.557)" fill="#1a1311"/>
        <path id="Path_2455" data-name="Path 2455" d="M896.374,134.6c-.08,6.12,3.8,17.276,6.248,25.376,5.733,18.985,15.311,22.006,28.48,18.97,13.06-3.011,17.436-11.812,15.764-25.158-.9-7.151-2.272-20.265-4.864-28.1-3.285-9.924-11.367-17.894-30.412-12.237-11.985,3.56-15.073,10.088-15.216,21.145" transform="translate(-726.167 -90.39)" fill="#fff"/>
        <path id="Path_2456" data-name="Path 2456" d="M918.74,176.615a18.68,18.68,0,0,1-9.6-2.383c-5.205-3.008-9.106-9.007-11.924-18.339-.409-1.356-.854-2.781-1.325-4.291-2.36-7.565-5.035-16.14-4.967-21.4l1.034.013-1.034-.013c.081-6.273,1.111-10.573,3.339-13.941,2.49-3.765,6.5-6.365,12.617-8.182,8.993-2.671,16.358-2.553,21.891.351,4.531,2.379,7.828,6.6,9.8,12.552,2.324,7.021,3.68,18.2,4.577,25.589.117.969.228,1.876.331,2.7.9,7.169.082,12.766-2.494,17.111-2.709,4.566-7.44,7.656-14.064,9.184a36.622,36.622,0,0,1-8.181,1.043m-.1-68.386a39.627,39.627,0,0,0-11.167,1.836c-11.934,3.545-14.345,10.079-14.476,20.167-.064,4.928,2.559,13.336,4.873,20.754.472,1.514.919,2.945,1.331,4.309,2.659,8.805,6.25,14.414,10.979,17.146,4.109,2.374,9.281,2.728,16.279,1.115,6.136-1.415,10.306-4.1,12.749-8.223,2.333-3.934,3.06-9.1,2.221-15.8-.1-.829-.214-1.738-.332-2.71-.887-7.312-2.228-18.363-4.487-25.188-2.953-8.923-8.979-13.406-17.969-13.406" transform="translate(-721.755 -86.006)" fill="#1a1311"/>
        <path id="Path_2457" data-name="Path 2457" d="M878.225,207.825a1.035,1.035,0,0,1-1.014-1.246,53.094,53.094,0,0,0,.285-7.84,1.034,1.034,0,1,1,2.068-.06,53.365,53.365,0,0,1-.328,8.323,1.035,1.035,0,0,1-1.011.823" transform="translate(-710.626 -160.14)" fill="#fff"/>
        <path id="Path_2458" data-name="Path 2458" d="M894.617,95.82c2.365-2.771,9.015,2.972,18.833-1.116,7.3-3.039,13.906-7.877,17.384-3.894,1.824,2.089,2.741,7.48,4.4,10.554,3.195,5.91,7.832,13.83,7.519,13.9-.475.11,9.982-32.052-13.909-38.672-15.912-4.409-29.676,1.818-34.7,8.985s.47,10.24.47,10.24" transform="translate(-722.65 -60.859)" fill="#767676"/>
        <path id="Path_2459" data-name="Path 2459" d="M938.332,111.931a1.037,1.037,0,0,1-.731-.3.9.9,0,0,1-.311-.693c-.361-.839-2.094-3.933-3.634-6.683-1.212-2.164-2.585-4.617-3.748-6.766a32.145,32.145,0,0,1-1.937-4.979c-.705-2.141-1.435-4.355-2.335-5.386-2.069-2.369-5.659-.809-11.344,1.934-1.567.756-3.188,1.538-4.863,2.235-5.957,2.48-10.732,1.532-14.218.84-2.311-.459-3.648-.685-4.226-.008a1.034,1.034,0,0,1-1.291.231,6.62,6.62,0,0,1-2.951-4.09c-.525-2.3.194-4.871,2.14-7.647,5.5-7.84,19.919-13.794,35.822-9.388A21.11,21.11,0,0,1,936.546,79.1,25.389,25.389,0,0,1,940.9,90.8c1.082,8.079-.681,16.1-1.345,19.113-.068.307-.137.621-.176.82a.951.951,0,0,1-.09.576,1.067,1.067,0,0,1-.725.6,1.048,1.048,0,0,1-.237.027M923.013,83.9a5.261,5.261,0,0,1,4.18,1.857c1.176,1.347,1.937,3.656,2.742,6.1a30.823,30.823,0,0,0,1.792,4.643c1.155,2.136,2.525,4.582,3.733,6.74.914,1.633,1.784,3.186,2.456,4.417,3.748-19.009-.993-30.9-13.765-34.437a36.6,36.6,0,0,0-20.847.142c-5.551,1.742-10.191,4.819-12.73,8.44-1.586,2.262-2.2,4.27-1.824,5.968a4.469,4.469,0,0,0,1.407,2.364c1.384-.844,3.3-.465,5.456-.036,3.226.64,7.644,1.517,13.02-.721,1.622-.675,3.217-1.445,4.759-2.189,3.47-1.674,6.818-3.289,9.621-3.289" transform="translate(-718.229 -56.488)" fill="#1a1311"/>
        <path id="Path_2460" data-name="Path 2460" d="M867.985,177.007s-1.7,3.091-1.761,9.252c-.069,6.57,3.5,16.014,3.5,16.014s-11.117-9.528-10.543-19.341,5.809-8.071,8.808-5.925" transform="translate(-696.017 -142.046)" fill="#767676"/>
        <path id="Path_2461" data-name="Path 2461" d="M865.307,198.88a1.032,1.032,0,0,1-.673-.249c-.47-.4-11.5-9.979-10.9-20.187.256-4.379,1.47-7.117,3.608-8.138,2.522-1.2,5.364.38,6.834,1.432a1.034,1.034,0,0,1,.306,1.335c-.029.055-1.575,3.019-1.635,8.769-.066,6.3,3.395,15.546,3.429,15.638a1.034,1.034,0,0,1-.968,1.4m-6-26.936a2.469,2.469,0,0,0-1.075.229c-1.386.662-2.228,2.873-2.434,6.392-.35,5.974,4.022,11.966,7.148,15.448a45.173,45.173,0,0,1-2.169-12.193,25.075,25.075,0,0,1,1.494-8.861,6.185,6.185,0,0,0-2.964-1.015" transform="translate(-691.604 -137.619)" fill="#1a1311"/>
        <path id="Path_2462" data-name="Path 2462" d="M1056.718,102.4a1.035,1.035,0,0,1-1.02-1.213c.83-4.735,4.025-8.38,6.029-9.456a1.034,1.034,0,1,1,.979,1.822c-1.374.738-4.242,3.839-4.97,7.991a1.034,1.034,0,0,1-1.017.856" transform="translate(-855.226 -74.217)" fill="#1a1311"/>
        <path id="Path_2463" data-name="Path 2463" d="M1030.73,95.075h-.043A1.034,1.034,0,0,1,1029.7,94a43.334,43.334,0,0,1,.7-5.791c.814-4.249,2.115-7.18,3.866-8.714a1.034,1.034,0,0,1,1.363,1.556c-2.836,2.482-3.751,10.249-3.865,13.032a1.034,1.034,0,0,1-1.032.992" transform="translate(-834.174 -64.193)" fill="#1a1311"/>
        <path id="Path_2464" data-name="Path 2464" d="M1115.105,179.595a1.034,1.034,0,0,1-.843-1.633c1.417-1.995,5.942-3.478,8.028-3.355a1.034,1.034,0,0,1-.123,2.065c-1.647-.1-5.334,1.243-6.218,2.488a1.032,1.032,0,0,1-.844.435" transform="translate(-902.529 -141.446)" fill="#1a1311"/>
        <path id="Path_2465" data-name="Path 2465" d="M867.295,219.71a1.03,1.03,0,0,1-.609-.2,15.766,15.766,0,0,0-4.308.034,1.034,1.034,0,1,1-.182-2.06c4.887-.431,5.487.135,5.809.438a1.034,1.034,0,0,1-.71,1.786m-.709-.282h0" transform="translate(-697.716 -176.063)" fill="#1a1311"/>
        <path id="Path_2466" data-name="Path 2466" d="M871.64,244.455H871.6l-3.493-.118a1.034,1.034,0,0,1,.069-2.067l3.493.118a1.034,1.034,0,0,1-.034,2.068" transform="translate(-702.462 -196.267)" fill="#1a1311"/>
        <path id="Path_2467" data-name="Path 2467" d="M936.522,108.8a1.034,1.034,0,0,1-.92-.56,18.079,18.079,0,0,1-1.677-9.047c.2-3.466,1.274-6.381,2.951-8a1.034,1.034,0,0,1,1.436,1.489c-2.73,2.631-3.178,10.139-.871,14.606a1.035,1.035,0,0,1-.918,1.509" transform="translate(-756.561 -73.643)" fill="#1a1311"/>
        <path id="Path_2468" data-name="Path 2468" d="M1018.571,403.773c2.2,1.1,8.7-.41,12.228-3.465" transform="translate(-825.162 -324.297)" fill="#fff"/>
        <path id="Path_2469" data-name="Path 2469" d="M1016.168,400.748a5.651,5.651,0,0,1-2.472-.463,1.034,1.034,0,1,1,.923-1.851c1.733.863,7.746-.425,11.09-3.321a1.034,1.034,0,1,1,1.354,1.563,18.916,18.916,0,0,1-10.895,4.071" transform="translate(-820.748 -319.884)" fill="#1a1311"/>
        <path id="Path_2470" data-name="Path 2470" d="M991.612,308a41.824,41.824,0,0,0,1.372,13.029c.36.949,5.761-.8,5.761-.8" transform="translate(-803.298 -249.519)" fill="#fff"/>
        <path id="Path_2471" data-name="Path 2471" d="M989.427,317.938c-.859,0-1.551-.234-1.823-.951a42.466,42.466,0,0,1-1.438-13.431,1.034,1.034,0,0,1,1.033-1h.036a1.034,1.034,0,0,1,1,1.069,43.374,43.374,0,0,0,1.185,12.247,20.956,20.956,0,0,0,4.6-1.038,1.034,1.034,0,0,1,.637,1.968c-.057.019-1.41.455-2.834.78a11.377,11.377,0,0,1-2.39.354m.111-1.685h0Z" transform="translate(-798.885 -245.107)" fill="#1a1311"/>
        <path id="Path_2472" data-name="Path 2472" d="M1093.166,379.11c2.038,1.274,1.955,4.113,1.936,5.146" transform="translate(-885.593 -307.124)" fill="#fff"/>
        <path id="Path_2473" data-name="Path 2473" d="M1090.689,380.878h-.02a1.034,1.034,0,0,1-1.015-1.053v-.045c.018-.975.062-3.26-1.451-4.205a1.034,1.034,0,0,1,1.1-1.754c2.507,1.567,2.446,4.786,2.423,6v.044a1.034,1.034,0,0,1-1.033,1.015" transform="translate(-881.18 -302.712)" fill="#1a1311"/>
        <path id="Path_2474" data-name="Path 2474" d="M398.466,712.173s11.645-3.322,13.757-3.668,12.013-8.449,15.763-8.638c3.173-.16,8.9-.282,11.3-.108s10.774,3.837,14.253,4.5,4.042,2.955.359,3.893c-1.933.492-6.268-.889-9.951-1.556a30.718,30.718,0,0,0-6.137-.478s5.842,3.568,5.128,5.721-3.877,2.806-3.877,2.806.895,2.2-.79,3.489c-.943.721-4.363.694-4.363.694a3.582,3.582,0,0,1-2.134,2.717c-2.081,1.143-6.569-1.055-6.569-1.055s-1.849.436-6.869,1.16-7.184-2.446-7.184-2.446-10.312,3.283-11.108,3.313-1.579-10.345-1.579-10.345" transform="translate(-322.804 -566.818)" fill="#fff"/>
        <path id="Path_2475" data-name="Path 2475" d="M395.621,719.136c-1.118,0-1.388-1.41-1.586-2.443-.169-.882-.343-2.105-.517-3.635-.294-2.58-.493-5.2-.495-5.223a1.034,1.034,0,0,1,.748-1.072c.478-.136,11.726-3.342,13.873-3.694.634-.1,3.081-1.723,5.046-3.023,3.9-2.578,8.314-5.5,10.832-5.627,3.191-.161,8.938-.287,11.429-.107,1.388.1,4.14,1.094,7.327,2.245a60.469,60.469,0,0,0,7.045,2.272c2.284.436,3.673,1.537,3.716,2.946.019.634-.263,2.193-3.3,2.965-1.6.407-4.118-.166-7.038-.829-1.118-.254-2.274-.516-3.353-.711-.921-.167-1.8-.276-2.589-.347l.137.115c2.2,1.867,3.058,3.431,2.609,4.783a5.7,5.7,0,0,1-3.626,3.19,3.794,3.794,0,0,1-1.394,3.6c-.894.684-2.927.857-4.185.9a5.105,5.105,0,0,1-2.443,2.6c-2.191,1.2-5.983-.33-7.189-.876-.754.157-2.752.544-6.6,1.1a8.6,8.6,0,0,1-7.669-2.277c-3.949,1.253-9.96,3.125-10.731,3.155h-.052m-.469-10.616a76.153,76.153,0,0,0,1.04,8.4c1.706-.452,6.206-1.837,10.235-3.12a1.034,1.034,0,0,1,1.168.4c.071.1,1.912,2.622,6.182,2.005,4.892-.705,6.761-1.139,6.78-1.143a1.035,1.035,0,0,1,.692.078c1.666.813,4.51,1.684,5.617,1.077a2.734,2.734,0,0,0,1.6-1.858.971.971,0,0,1,.3-.707,1.006,1.006,0,0,1,.734-.28h.01a10.309,10.309,0,0,0,3.727-.481,2.051,2.051,0,0,0,.46-2.278,1.034,1.034,0,0,1,.749-1.4c.717-.152,2.677-.83,3.1-2.119.063-.189-.169-1.013-1.967-2.539a24.924,24.924,0,0,0-2.719-1.973,1.034,1.034,0,0,1,.493-1.916,31.507,31.507,0,0,1,6.367.494c1.124.2,2.3.471,3.442.73,2.437.553,4.957,1.125,6.07.841,1.35-.344,1.72-.808,1.739-.9-.026-.147-.576-.692-2.036-.971a60.911,60.911,0,0,1-7.36-2.358,43.575,43.575,0,0,0-6.774-2.127c-2.378-.172-8.117-.044-11.175.11-1.953.1-6.486,3.1-9.8,5.286-3.054,2.02-4.831,3.171-5.852,3.339-1.52.249-8.636,2.222-12.827,3.411" transform="translate(-318.393 -562.402)" fill="#1a1311"/>
        <path id="Path_2476" data-name="Path 2476" d="M583.947,753.642s5.829,4.2,5.377,4.723" transform="translate(-473.066 -610.539)" fill="#fff"/>
        <path id="Path_2477" data-name="Path 2477" d="M584.91,754.986a1.034,1.034,0,0,1-1.025-.9,41.142,41.142,0,0,0-4.956-4.022,1.034,1.034,0,0,1,1.21-1.678c5.678,4.1,5.776,4.943,5.823,5.35a1.141,1.141,0,0,1-.272.891,1.032,1.032,0,0,1-.78.355m-.934-.773h0Zm.155-.94h0" transform="translate(-468.653 -606.126)" fill="#1a1311"/>
        <path id="Path_2478" data-name="Path 2478" d="M566.415,782.919s3.736,1.982,3.553,3.347" transform="translate(-458.863 -634.257)" fill="#fff"/>
        <path id="Path_2479" data-name="Path 2479" d="M565.555,782.887a1.035,1.035,0,0,1-1.032-1.121,8.344,8.344,0,0,0-3.007-2.347,1.034,1.034,0,1,1,.969-1.827c1.633.866,4.337,2.59,4.093,4.4a1.034,1.034,0,0,1-1.024.9m-1.026-1.1h0Z" transform="translate(-454.449 -629.843)" fill="#1a1311"/>
        <path id="Path_2480" data-name="Path 2480" d="M396.24,736.091l9.377-2.782,5.509,18.654-8.215,2.508" transform="translate(-321.001 -594.068)" fill="#fff"/>
        <path id="Path_2481" data-name="Path 2481" d="M398.5,751.094a1.034,1.034,0,0,1-.3-2.024l7.235-2.208L400.5,730.184l-8.384,2.487a1.034,1.034,0,1,1-.588-1.983l9.377-2.782a1.034,1.034,0,0,1,1.286.7l5.508,18.654a1.034,1.034,0,0,1-.69,1.282l-8.215,2.508a1.032,1.032,0,0,1-.3.045" transform="translate(-316.586 -589.656)" fill="#1a1311"/>
        <path id="Path_2482" data-name="Path 2482" d="M150.706,685.271l2.547,19.667c7.337-1.834,29.643-10.681,29.45-10.6l7.948,25.883s-35.913,14.875-48.3,15.693c-10.8.713-12.126-9.528-13.553-15.285" transform="translate(-104.341 -555.151)" fill="#04427d"/>
        <path id="Path_2483" data-name="Path 2483" d="M136.9,732.573a10.955,10.955,0,0,1-9.6-4.894c-2-2.935-2.86-6.655-3.55-9.644-.128-.554-.249-1.078-.37-1.568a1.034,1.034,0,1,1,2.008-.5c.126.506.248,1.038.378,1.6.651,2.82,1.461,6.33,3.243,8.943,2,2.926,4.9,4.219,8.86,3.958,11.016-.728,41.55-13,47.1-15.26L177.628,691.3c-7.113,2.787-22.565,8.738-28.537,10.231a1.034,1.034,0,0,1-1.276-.87l-2.548-19.667a1.034,1.034,0,1,1,2.051-.266l2.4,18.494c7-1.99,22.932-8.187,27.872-10.127l.244-.1a1.053,1.053,0,0,1,1.417.538,1.066,1.066,0,0,1,.047.142l7.932,25.831a1.034,1.034,0,0,1-.593,1.259c-1.473.61-36.214,14.95-48.629,15.769q-.562.037-1.1.037" transform="translate(-99.927 -550.738)" fill="#1a1311"/>
        <path id="Path_2484" data-name="Path 2484" d="M589.65,667.125l32.862-46.351a143,143,0,0,0,25.22-1.062c11.615-1.63,24.954-4.513,24.954-4.513l-32.919,44.334s-5.31,3.717-18.583,7.433-31.534.159-31.534.159" transform="translate(-477.686 -498.384)" fill="#fff"/>
        <path id="Path_2485" data-name="Path 2485" d="M602.352,665.287q-3.06,0-6.4-.227a97.243,97.243,0,0,1-10.917-1.331,1.034,1.034,0,0,1-.646-1.613l32.862-46.351a1.031,1.031,0,0,1,.906-.434,143.2,143.2,0,0,0,25.014-1.054c11.443-1.606,24.747-4.471,24.88-4.5A1.034,1.034,0,0,1,669.1,611.4l-32.919,44.334a1.026,1.026,0,0,1-.237.231c-.223.156-5.607,3.86-18.9,7.582a55.06,55.06,0,0,1-14.7,1.736m-15.321-3.316c4.7.745,18.827,2.566,29.461-.412,10.075-2.821,16.171-5.881,18.136-7.194l31.192-42.008c-4.5.924-13.926,2.784-22.357,3.967a145.888,145.888,0,0,1-24.848,1.1Z" transform="translate(-473.272 -493.972)" fill="#1a1311"/>
        <path id="Path_2486" data-name="Path 2486" d="M593.489,859.933s.342-2.294,3.842-4.178c3.643-1.962,9.085-.016,8.968-.37s.792-4.3,3.388-5.248,2.483,1.518,2.483,1.518,1.093-4,3.453-4.83,2.211.936,2.211.936,1.362-3.264,3.368-3.381,1.352,4.443,1.352,4.443,3-4.749,5.427-3.3c1.662.991-1.3,8.141-1.652,8.849s-1.031,3.778-2.147,5.449c-1.044,1.565-1.809,3.142-4.051,4.2s-12.681,1.2-12.681,1.2-7.418,2.73-8.362,2.848a5.136,5.136,0,0,1-5.552-2.856c-1.534-3.186-.048-5.283-.048-5.283" transform="translate(-480.272 -684.045)" fill="#fff"/>
        <path id="Path_2487" data-name="Path 2487" d="M593.8,864.749a5.952,5.952,0,0,1-5.6-3.5,6.5,6.5,0,0,1-.09-6.121c.188-.741,1-2.91,4.326-4.7,2.934-1.58,6.677-.939,8.583-.587.411-1.712,1.667-4.277,3.909-5.093a3.025,3.025,0,0,1,2.678.055,6.437,6.437,0,0,1,3.27-3.371,3.2,3.2,0,0,1,2.452-.064,4.8,4.8,0,0,1,3.408-2.438,2.026,2.026,0,0,1,1.662.666,3.674,3.674,0,0,1,.792,1.915l.049-.047c2.212-2.113,3.867-1.846,4.866-1.25,1.542.92,1.02,3.532.394,5.705a34.94,34.94,0,0,1-1.651,4.494c-.076.153-.239.674-.383,1.135a18.265,18.265,0,0,1-1.829,4.426c-.14.209-.274.419-.408.628a9.265,9.265,0,0,1-4.06,3.936c-2.278,1.08-11.235,1.272-12.932,1.3-1.939.713-7.469,2.724-8.425,2.843a8.148,8.148,0,0,1-1.009.064m-3.868-8.641a4.363,4.363,0,0,0,.129,4.246,4.051,4.051,0,0,0,4.492,2.278c.576-.087,4.589-1.488,8.133-2.793a1.033,1.033,0,0,1,.343-.064c3.949-.053,10.768-.4,12.252-1.1a7.367,7.367,0,0,0,3.2-3.184c.141-.219.282-.439.428-.658a17.121,17.121,0,0,0,1.575-3.894,11.271,11.271,0,0,1,.507-1.443,33.329,33.329,0,0,0,1.394-3.743c.838-2.745.65-3.614.589-3.79-1.17-.569-3.2,1.806-3.96,3a1.034,1.034,0,0,1-1.9-.7c.176-1.245.1-2.962-.248-3.264h-.019c-1.02.06-2.108,1.878-2.475,2.749a1.058,1.058,0,0,1-1.235.627,1,1,0,0,1-.751-1.1.351.351,0,0,0-.005-.044,1.969,1.969,0,0,0-.832.157c-1.5.524-2.547,3.223-2.8,4.127a1.034,1.034,0,0,1-2.031-.321.944.944,0,0,0-.184-.609c-.076-.055-.354-.093-.912.11-1.846.671-2.662,3.562-2.715,4.148a1.063,1.063,0,0,1-.25.832c-.434.5-.949.4-1.885.229-1.623-.3-5-.928-7.369.347-2.961,1.594-3.307,3.4-3.309,3.42a1.035,1.035,0,0,1-.172.435m-.851-.588h0Zm11.783-4.65a1,1,0,0,0,.045.429,1.322,1.322,0,0,1-.045-.429m2.051.014h0Zm-.043-.239v0" transform="translate(-475.862 -679.632)" fill="#1a1311"/>
        <line id="Line_114" data-name="Line 114" x1="2.506" y2="8.757" transform="translate(139.775 164.778)" fill="#fff"/>
        <path id="Path_2488" data-name="Path 2488" d="M731.7,873.167a1.035,1.035,0,0,1-.995-1.319l2.506-8.757a1.034,1.034,0,0,1,1.989.569l-2.506,8.757a1.035,1.035,0,0,1-.994.75" transform="translate(-591.925 -698.598)" fill="#1a1311"/>
        <path id="Path_2489" data-name="Path 2489" d="M715.349,862.2s-1.781,7.924-2.135,9.458" transform="translate(-577.787 -698.482)" fill="#fff"/>
        <path id="Path_2490" data-name="Path 2490" d="M708.8,868.276a1.035,1.035,0,0,1-1.009-1.267c.349-1.514,2.115-9.373,2.133-9.452a1.034,1.034,0,1,1,2.018.454c-.018.079-1.786,7.945-2.136,9.464a1.035,1.035,0,0,1-1.007.8" transform="translate(-573.375 -694.068)" fill="#1a1311"/>
        <path id="Path_2491" data-name="Path 2491" d="M688.212,882.7a55.514,55.514,0,0,0-1.5,6.283" transform="translate(-556.314 -715.094)" fill="#fff"/>
        <path id="Path_2492" data-name="Path 2492" d="M682.3,885.606a1.034,1.034,0,0,1-1.034-1.034A47.248,47.248,0,0,1,682.806,878a1.034,1.034,0,1,1,1.987.573,50.184,50.184,0,0,0-1.464,6,1.034,1.034,0,0,1-1.034,1.034" transform="translate(-551.901 -710.68)" fill="#1a1311"/>
        <line id="Line_115" data-name="Line 115" x1="1.019" y2="3.516" transform="translate(124.88 171.034)" fill="#fff"/>
        <path id="Path_2493" data-name="Path 2493" d="M653.258,900.876a1.035,1.035,0,0,1-.994-1.322l1.019-3.516a1.034,1.034,0,0,1,1.987.576l-1.019,3.516a1.035,1.035,0,0,1-.993.747" transform="translate(-528.378 -725.292)" fill="#1a1311"/>
        <path id="Path_2494" data-name="Path 2494" d="M222.055,787.3a1.034,1.034,0,0,1-.306-2.022l5.91-1.834a1.034,1.034,0,1,1,.613,1.976l-5.91,1.834a1.032,1.032,0,0,1-.307.047" transform="translate(-179.053 -634.645)" fill="#1a1311"/>
        <path id="Path_2495" data-name="Path 2495" d="M405.677,852.422a1.325,1.325,0,1,1-1.325-1.325,1.325,1.325,0,0,1,1.325,1.325" transform="translate(-326.5 -689.489)" fill="#1a1311"/>
        <path id="Path_2496" data-name="Path 2496" d="M1117.281,821.833a1.325,1.325,0,1,1-1.325-1.325,1.325,1.325,0,0,1,1.325,1.325" transform="translate(-902.983 -664.708)" fill="#1a1311"/>
        <path id="Path_2497" data-name="Path 2497" d="M1141.432,829.883a1.325,1.325,0,1,1-1.325-1.325,1.325,1.325,0,0,1,1.325,1.325" transform="translate(-922.547 -671.23)" fill="#1a1311"/>
        <path id="Path_2498" data-name="Path 2498" d="M375.624,865.3a1.325,1.325,0,1,1-1.325-1.325,1.325,1.325,0,0,1,1.325,1.325" transform="translate(-302.154 -699.923)" fill="#1a1311"/>
        <line id="Line_116" data-name="Line 116" x2="5.752" y2="1.62" transform="translate(229.89 173.327)" fill="#04427d"/>
        <path id="Path_2499" data-name="Path 2499" d="M1212.032,911.053a1.038,1.038,0,0,1-.281-.039l-5.752-1.62a1.034,1.034,0,0,1,.561-1.991l5.751,1.62a1.034,1.034,0,0,1-.28,2.03" transform="translate(-976.39 -735.072)" fill="#1a1311"/>
        <line id="Line_117" data-name="Line 117" y1="1.238" x2="4.51" transform="translate(70.694 180.052)" fill="#04427d"/>
        <path id="Path_2500" data-name="Path 2500" d="M367.889,946.092a1.034,1.034,0,0,1-.273-2.032l4.51-1.238a1.034,1.034,0,0,1,.548,1.995l-4.51,1.238a1.024,1.024,0,0,1-.274.037" transform="translate(-297.196 -763.767)" fill="#1a1311"/>
        <path id="Path_2501" data-name="Path 2501" d="M582.1,899.933s-7.8,2.866-3.083,11.005c3.62,6.242,9.426,3.515,9.426,3.515l3.592-3.21s-8.636,1.6-8.942-4.484c-.31-6.18,3.745-6.827,3.745-6.827Z" transform="translate(-467.844 -729.052)" fill="#fff"/>
        <path id="Path_2502" data-name="Path 2502" d="M581.041,911.668q-.211,0-.429-.011c-1.992-.1-4.809-.987-6.911-4.613-1.654-2.852-2.073-5.457-1.248-7.743a8.753,8.753,0,0,1,4.869-4.752,1.04,1.04,0,0,1,.357-.063h4.738a1.034,1.034,0,0,1,.163,2.056c-.116.022-3.132.645-2.875,5.754a3.284,3.284,0,0,0,1.21,2.57,6.954,6.954,0,0,0,3.979,1.118,13.615,13.615,0,0,0,2.533-.17,1.034,1.034,0,0,1,.877,1.788l-3.592,3.21a1.03,1.03,0,0,1-.249.165,8.733,8.733,0,0,1-3.42.691m-3.157-15.114a6.616,6.616,0,0,0-3.491,3.465c-.6,1.681-.231,3.7,1.1,5.987a6.366,6.366,0,0,0,5.152,3.58,6.891,6.891,0,0,0,2.819-.432l1.24-1.108a8.756,8.756,0,0,1-5.066-1.554,5.306,5.306,0,0,1-2-4.093,8.655,8.655,0,0,1,1.465-5.845Z" transform="translate(-463.421 -724.639)" fill="#1a1311"/>
        <path id="Path_2503" data-name="Path 2503" d="M508.61,125.3c3.582.974,2.6-3.365,2.6-3.365-.213,3.316,1.237,8.391-.813,9.266.025.245.047.493.064.749.718,10.969-8.374,17.745-8.374,17.745l-4.309-28.321s8.749-4.921,10.832,3.927" transform="translate(-403.259 -97.224)" fill="#1a1311"/>
        <path id="Path_2504" data-name="Path 2504" d="M499.55,147.747a.595.595,0,0,1-.588-.505l-4.309-28.321a.6.6,0,0,1,.3-.608c.18-.1,4.445-2.46,7.94-.926,1.786.784,3.02,2.423,3.672,4.873a1.354,1.354,0,0,0,1.217-.206,1.282,1.282,0,0,0,.322-.6,17.1,17.1,0,0,1-.022-2.1.6.6,0,0,1,1.174-.093,5.947,5.947,0,0,1,.048,2.3c.03.453.069.914.107,1.369.22,2.608.428,5.082-.919,6.056.012.133.021.261.029.385a20.508,20.508,0,0,1-4.027,13.37,23.6,23.6,0,0,1-4.585,4.891.6.6,0,0,1-.356.118m-3.656-28.58,4.085,26.846c2.146-1.929,7.915-7.956,7.351-16.567-.015-.224-.035-.461-.062-.727a.6.6,0,0,1,.358-.608c.963-.411.789-2.776.609-4.919a2.946,2.946,0,0,1-2.318.14.6.6,0,0,1-.423-.438c-.533-2.265-1.569-3.751-3.079-4.416-2.422-1.066-5.484.193-6.521.689" transform="translate(-400.721 -94.679)" fill="#1a1311"/>
        <path id="Path_2505" data-name="Path 2505" d="M346.013,145.324c.516,5.393-1.725,15.144-3.189,22.5-3.675,18.471-11.122,21.726-20.447,20.435-10.96-1.518-18.781-8.457-21.553-21.028-1.375-6.236-1.838-16.921.941-23.715S319.145,126.66,329.8,130.7s15.282,4.884,16.215,14.628" transform="translate(-242.818 -105.13)" fill="#fff"/>
        <path id="Path_2506" data-name="Path 2506" d="M320.508,184.484a25.919,25.919,0,0,1-3.547-.26,25.647,25.647,0,0,1-14.529-6.7c-3.938-3.75-6.65-8.893-8.06-15.287-1.267-5.744-2.045-17,1-24.448,2.959-7.235,18.2-17.832,29.613-13.509.9.341,1.758.66,2.574.963,8.991,3.338,13.5,5.014,14.432,14.7h0c.465,4.854-1.156,12.79-2.586,19.793-.215,1.054-.425,2.082-.621,3.067-1.787,8.984-4.573,14.979-8.516,18.328a14.368,14.368,0,0,1-9.763,3.349m-1.333-58.739a23.3,23.3,0,0,0-11.009,3.129c-4.963,2.664-9.184,6.623-10.5,9.852-2.509,6.134-2.325,16.419-.878,22.982,2.564,11.627,9.658,18.568,20.516,20.071,7.682,1.064,15.308-.557,19.067-19.454.2-.989.408-2.02.624-3.079,1.4-6.832,2.977-14.577,2.547-19.063-.78-8.148-4.062-9.367-12.834-12.623-.821-.3-1.683-.625-2.59-.968a13.925,13.925,0,0,0-4.939-.846" transform="translate(-237.571 -99.87)" fill="#1a1311"/>
        <path id="Path_2507" data-name="Path 2507" d="M285.5,126.028s-9.379-19.384,7.682-30.071c11.345-7.107,33.871-2.483,33.882,5.88,0,1.111-7.061,1.07-14.117,11.812a6.637,6.637,0,0,1-1.815-5.359,20.676,20.676,0,0,1-10.224,4.726c-6.821.8-7.336,5.973-7.886,7.267S291.2,130,291.2,130s-2.787-5.161-4.648-4.9-1.051.931-1.051.931" transform="translate(-229.205 -74.905)" fill="#1a1311"/>
        <path id="Path_2508" data-name="Path 2508" d="M288.662,128.041a.6.6,0,0,1-.523-.312c-1.6-2.963-3.344-4.692-4.042-4.594a3.568,3.568,0,0,0-.58.122.6.6,0,0,1-.932.679,1.075,1.075,0,0,1-.389-.717,31.256,31.256,0,0,1-2.383-10.749c-.2-5.8,1.464-13.9,10.517-19.568,8.32-5.211,22.37-4.282,29.776-.188,3.279,1.813,5.014,4.085,5.017,6.571,0,.7-.68.983-1.809,1.448-2.4.987-7.382,3.041-12.406,10.691a.595.595,0,0,1-.892.119A6.991,6.991,0,0,1,308,106.992a20.591,20.591,0,0,1-9.555,4.064c-5.506.646-6.573,4.21-7.147,6.125a7.958,7.958,0,0,1-.26.783,93.294,93.294,0,0,0-1.783,9.571.6.6,0,0,1-.486.5.6.6,0,0,1-.1.009m-4.522-6.1c1.5,0,3.175,2.186,4.189,3.771a71.69,71.69,0,0,1,1.609-8.215c.062-.145.133-.383.216-.659.558-1.864,1.865-6.229,8.148-6.966A20.225,20.225,0,0,0,308.2,105.3a.6.6,0,0,1,.993.489,6.3,6.3,0,0,0,1.158,4.339c5.079-7.429,10.077-9.488,12.514-10.492a9.027,9.027,0,0,0,1.07-.486c-.087-2.49-2.43-4.3-4.4-5.392-3.51-1.94-8.735-3.153-13.975-3.244-5.756-.1-10.935,1.107-14.593,3.4-6.883,4.311-10.234,10.542-9.96,18.519a30.481,30.481,0,0,0,2.05,9.731,4.312,4.312,0,0,1,.88-.2,1.5,1.5,0,0,1,.208-.014" transform="translate(-226.668 -72.354)" fill="#1a1311"/>
        <path id="Path_2509" data-name="Path 2509" d="M416.149,381.946a10.3,10.3,0,0,1-6.013,1.462,4.586,4.586,0,0,1-3.915-2.076" transform="translate(-329.087 -308.923)" fill="#fff"/>
        <path id="Path_2510" data-name="Path 2510" d="M405.945,382.033c-.136,0-.274,0-.414-.006a5.81,5.81,0,0,1-4.952-2.713l2.143-1.164a3.415,3.415,0,0,0,2.878,1.44,9.314,9.314,0,0,0,5.269-1.235,1.219,1.219,0,1,1,1.426,1.978,11.344,11.344,0,0,1-6.35,1.7" transform="translate(-324.516 -306.325)" fill="#1a1311"/>
        <path id="Path_2511" data-name="Path 2511" d="M276.343,261.324c-3.53-1.623-7.565.036-7.638,3.422-.116,5.406,4.358,9.845,8.32,9.388" transform="translate(-217.681 -211.195)" fill="#fff"/>
        <path id="Path_2512" data-name="Path 2512" d="M271.2,270.134a8.17,8.17,0,0,1-5.4-2.287,11.178,11.178,0,0,1-3.6-8.394,5.111,5.111,0,0,1,2.464-4.274,7.384,7.384,0,0,1,6.923-.242,1.234,1.234,0,0,1-1.031,2.243,4.969,4.969,0,0,0-4.582.092,2.628,2.628,0,0,0-1.306,2.235,8.678,8.678,0,0,0,2.794,6.515,5.462,5.462,0,0,0,4.151,1.62,1.234,1.234,0,0,1,.283,2.452,6.1,6.1,0,0,1-.7.04" transform="translate(-212.417 -205.929)" fill="#1a1311"/>
        <path id="Path_2513" data-name="Path 2513" d="M468.013,301.269c1.876,4.918,3.187,8.135,3.187,8.135l-4.06,1.929" transform="translate(-378.438 -244.064)" fill="#fff"/>
        <path id="Path_2514" data-name="Path 2514" d="M461.938,307.349a1.22,1.22,0,0,1-.524-2.321l3.023-1.436c-.537-1.341-1.534-3.86-2.767-7.091a1.219,1.219,0,0,1,2.279-.869c1.848,4.846,3.164,8.076,3.177,8.109a1.219,1.219,0,0,1-.605,1.562l-4.06,1.929a1.215,1.215,0,0,1-.522.118" transform="translate(-373.235 -238.861)" fill="#1a1311"/>
        <path id="Path_2515" data-name="Path 2515" d="M299.446,291.979a3.135,3.135,0,0,0-1.985-2.34" transform="translate(-240.978 -234.641)" fill="#fff"/>
        <path id="Path_2516" data-name="Path 2516" d="M294.242,287.994a1.22,1.22,0,0,1-1.2-1.035c-.105-.69-.516-1.015-1.341-1.442a1.219,1.219,0,0,1,1.121-2.165,4.337,4.337,0,0,1,2.63,3.239,1.219,1.219,0,0,1-1.021,1.389,1.234,1.234,0,0,1-.186.014" transform="translate(-235.775 -229.438)" fill="#1a1311"/>
        <path id="Path_2517" data-name="Path 2517" d="M347.591,133.66a.921.921,0,0,1-.229-1.812c2.208-.569,5.788-2.328,10.305-7.472a.921.921,0,1,1,1.384,1.215c-4.826,5.5-8.77,7.407-11.229,8.041a.918.918,0,0,1-.23.029" transform="translate(-280.844 -100.505)" fill="#fff"/>
        <path id="Path_2518" data-name="Path 2518" d="M370.993,141.8a.921.921,0,0,1-.258-1.8c2.187-.64,5.705-2.511,10.043-7.8a.921.921,0,1,1,1.423,1.168c-4.636,5.649-8.513,7.684-10.95,8.4a.919.919,0,0,1-.259.037" transform="translate(-299.802 -106.823)" fill="#fff"/>
        <path id="Path_2519" data-name="Path 2519" d="M313.253,178.685a107.19,107.19,0,0,0-2.7,12.541c-2.572,17.125,1.414,27.793,3.361,29.936,0,0-4.494-2.674-5.385-4.5-2.107-4.311-2.889-14.56-2.63-23.618.088-3.072,1.757-13.633,1.757-13.633Z" transform="translate(-247.778 -144.756)" fill="#bdbebf"/>
        <path id="Path_2520" data-name="Path 2520" d="M308.71,217.17a1.218,1.218,0,0,1-.624-.172c-.8-.478-4.858-2.964-5.859-5.011-2.4-4.917-2.985-16.1-2.753-24.189.089-3.115,1.7-13.355,1.771-13.789a1.222,1.222,0,0,1,1.049-1.021l5.593-.729a1.222,1.222,0,0,1,1.331,1.553,106.935,106.935,0,0,0-2.661,12.381c-2.514,16.741,1.361,27.066,3.057,28.933a1.222,1.222,0,0,1-.905,2.044m-5.191-41.877c-.4,2.611-1.532,10.132-1.6,12.575-.29,10.124.717,19.385,2.506,23.046a4.722,4.722,0,0,0,1.047,1.2,38.333,38.333,0,0,1-1.337-5.3,64.651,64.651,0,0,1,.008-20.985,109.675,109.675,0,0,1,2.245-10.911Z" transform="translate(-242.571 -139.543)" fill="#1a1311"/>
        <path id="Path_2521" data-name="Path 2521" d="M313.807,60.469s9.465-2.339,10.06-5.11-4.561-7.291-4.561-7.291,3.876-27.467-23-31.415c-30.8-4.523-33.53,25.672-33.53,25.672a5.726,5.726,0,0,0-2.216,5.523,4.972,4.972,0,0,0,3.651,4.2,17.067,17.067,0,0,1,1.246-3.088c.548-.8,4.932-1.4,7.986-1.43,3.26-.036,16.626,2.138,18.105,2.558s7.262-.668,11.791-.1c3.784.474,8.1.962,11.755,2.647-.362,2.393-1.282,7.839-1.282,7.839" transform="translate(-211.01 -13.117)" fill="#04427d"/>
        <path id="Path_2522" data-name="Path 2522" d="M308.586,56.476a1.222,1.222,0,0,1-1.2-1.426c.008-.048.722-4.278,1.134-6.886a41.662,41.662,0,0,0-10.107-2.128l-.446-.056a41.514,41.514,0,0,0-7.643.06,15.091,15.091,0,0,1-4.33,0c-1.441-.409-14.62-2.538-17.758-2.512a23.075,23.075,0,0,0-7.05.994,17.08,17.08,0,0,0-1.027,2.66,1.222,1.222,0,0,1-1.406.841,6.171,6.171,0,0,1-4.617-5.19,6.861,6.861,0,0,1,2.263-6.36c.335-2.609,2.287-14.057,11.291-21.151,6.075-4.787,14.007-6.5,23.574-5.1,14.506,2.13,20.279,10.975,22.567,18.019a36.677,36.677,0,0,1,1.544,14.119c1.508,1.407,5.1,5.118,4.472,8.033-.348,1.624-2.259,3.047-6.012,4.479a47.61,47.61,0,0,1-4.949,1.56,1.235,1.235,0,0,1-.293.036m-13.529-13.1a26.035,26.035,0,0,1,3.208.178l.445.055c3.741.467,7.981,1,11.668,2.694a1.222,1.222,0,0,1,.7,1.293c-.224,1.481-.665,4.149-.967,5.962.825-.249,1.844-.579,2.868-.971,4.195-1.6,4.465-2.657,4.474-2.7.273-1.274-1.953-4.167-4.172-6.117a1.223,1.223,0,0,1-.4-1.089,34.356,34.356,0,0,0-1.4-13.756c-3.032-9.243-9.954-14.72-20.573-16.279-8.869-1.3-16.166.241-21.691,4.586-9.166,7.209-10.433,19.861-10.444,19.988a1.223,1.223,0,0,1-.528.9,4.486,4.486,0,0,0-1.7,4.31,3.935,3.935,0,0,0,1.708,2.757,10.857,10.857,0,0,1,.975-2.133c.354-.52,1.067-1.064,3.865-1.522a36.188,36.188,0,0,1,5.116-.443c3.3-.033,16.789,2.133,18.452,2.6a19.55,19.55,0,0,0,3.492-.091c1.485-.1,3.193-.224,4.909-.224" transform="translate(-205.789 -7.903)" fill="#1a1311"/>
        <path id="Path_2523" data-name="Path 2523" d="M426.19,33.02s-.8-8.514-1.712-13.121c-1.674-8.431-5.5-10.977-5.5-10.977s-1.32-1.3-6.705-2.033a44.71,44.71,0,0,0-9.377-.337s4.657,4.106,5.508,8.791c.936,5.153,0,14.342-.118,14.792" transform="translate(-326.392 -5.223)" fill="#04427d"/>
        <path id="Path_2524" data-name="Path 2524" d="M420.977,29.022a1.222,1.222,0,0,1-1.215-1.108c-.008-.084-.8-8.5-1.693-13-1.534-7.727-4.956-10.181-4.99-10.2a.558.558,0,0,1-.156-.123c-.181-.135-1.626-1.114-6.026-1.71a48.027,48.027,0,0,0-6.444-.43A16.873,16.873,0,0,1,404.395,9.9c.978,5.384.013,14.743-.138,15.32a1.222,1.222,0,0,1-2.373-.583c.164-.9.965-9.577.107-14.3-.763-4.2-5.072-8.055-5.115-8.093a1.222,1.222,0,0,1,.689-2.132,45.6,45.6,0,0,1,9.66.342c5.057.685,6.838,1.889,7.3,2.288.629.461,4.3,3.463,5.936,11.7.916,4.616,1.7,12.895,1.73,13.245a1.222,1.222,0,0,1-1.1,1.331c-.039,0-.077.006-.115.006m-19.084-4.417-.007.028.007-.028" transform="translate(-321.181 -0.003)" fill="#1a1311"/>
        <path id="Path_2525" data-name="Path 2525" d="M454.611,117.9c-.214,1.582,2.1,3.2,5.16,3.615s5.722-.531,5.936-2.112-2.1-3.2-5.161-3.615-5.722.531-5.936,2.112" transform="translate(-368.277 -93.725)" fill="#fff"/>
        <path id="Path_2526" data-name="Path 2526" d="M447.63,167.746c-2.912-1.371-13.647-3.594-22.62-2.824" transform="translate(-344.308 -133.479)" fill="#04427d"/>
        <path id="Path_2527" data-name="Path 2527" d="M442.416,163.751a1.216,1.216,0,0,1-.52-.117c-2.472-1.163-12.938-3.489-22-2.712a1.222,1.222,0,0,1-.209-2.435c9.309-.8,20.238,1.521,23.245,2.936a1.222,1.222,0,0,1-.521,2.328" transform="translate(-339.095 -128.262)" fill="#1a1311"/>
        <path id="Path_2528" data-name="Path 2528" d="M544.312,207.137a48.487,48.487,0,0,1,5.842,2.409" transform="translate(-440.957 -167.806)" fill="#04427d"/>
        <path id="Path_2529" data-name="Path 2529" d="M544.938,205.553a1.217,1.217,0,0,1-.683-.209,35.5,35.5,0,0,0-4.609-1.912c-.473-.173-.816-.3-1.011-.378a1.222,1.222,0,1,1,.923-2.263c.154.063.512.194.927.346a31.46,31.46,0,0,1,5.138,2.182,1.222,1.222,0,0,1-.685,2.235" transform="translate(-435.742 -162.592)" fill="#1a1311"/>
        <path id="Path_2530" data-name="Path 2530" d="M290.2,149.236a14.083,14.083,0,0,1,7.133-.3" transform="translate(-235.1 -120.397)" fill="#04427d"/>
        <path id="Path_2531" data-name="Path 2531" d="M284.991,145.248a1.222,1.222,0,0,1-.433-2.365,15.313,15.313,0,0,1,7.845-.348,1.222,1.222,0,1,1-.558,2.379,12.948,12.948,0,0,0-6.421.255,1.223,1.223,0,0,1-.432.079" transform="translate(-229.886 -115.187)" fill="#1a1311"/>
      </g>
    </g>
  </g>
</svg>
