<svg xmlns="http://www.w3.org/2000/svg" xmlns:xlink="http://www.w3.org/1999/xlink" width="373.33" height="229.17" viewBox="0 0 373.33 229.17">
  <defs>
    <clipPath id="clip-path">
      <rect id="Rectangle_298" data-name="Rectangle 298" width="373.33" height="229.17" transform="translate(0 0)" fill="#eaeaea"/>
    </clipPath>
    <clipPath id="clip-path-2">
      <rect id="Rectangle_284" data-name="Rectangle 284" width="282.496" height="221.633" fill="none" stroke="#707070" stroke-width="1"/>
    </clipPath>
    <clipPath id="clip-path-3">
      <rect id="Rectangle_297" data-name="Rectangle 297" width="331.134" height="277.219" fill="none" stroke="#707070" stroke-width="1"/>
    </clipPath>
  </defs>
  <g id="Group_190" data-name="Group 190" transform="translate(-140.5 -1330.606)">
    <g id="Rectangle_281" data-name="Rectangle 281" transform="translate(140.5 1330.606)" fill="#fff" stroke="#325691" stroke-width="4">
      <rect width="373.33" height="229.17" stroke="none"/>
      <rect x="2" y="2" width="369.33" height="225.17" fill="none"/>
    </g>
    <g id="Group_128" data-name="Group 128" transform="translate(140.5 1330.606)" clip-path="url(#clip-path)">
      <g id="Group_127" data-name="Group 127" transform="translate(10.792 9.746)">
        <g id="Group_124" data-name="Group 124" transform="translate(31.56 30.778)">
          <g id="Group_123" data-name="Group 123" clip-path="url(#clip-path-2)">
            <path id="Path_1833" data-name="Path 1833" d="M604.093,527.417c-6.5-5.621-30.655-7.857-46.036-7.857-14.089,0-39.153.866-44.3,8.622-2.566,3.866-9.311,27.236-13.4,39.81a213.635,213.635,0,0,1-8.421,21.245c-4.414,9.564-3.281,17.239-2.3,20.033,8.23,23.35,35.6-12.951,35.6-12.951l2.105,13.6H592.8l14.737-10.727s19.65,25.9,20.16,3.955c.2-8.533-2.361-14.7-9.633-34.961-5.359-14.929-9.25-36.684-13.971-40.767" transform="translate(-415.379 -438.802)" fill="#04427d"/>
            <path id="Path_1834" data-name="Path 1834" d="M494.159,614.04a9.283,9.283,0,0,1-1.426-.107c-3.772-.584-6.588-3.441-8.368-8.491-.324-.919-3.01-9.312,2.337-20.9a213.549,213.549,0,0,0,8.371-21.118c1.1-3.382,2.384-7.526,3.745-11.913,3.845-12.4,7.822-25.216,9.788-28.178,2.477-3.732,8.889-6.258,19.6-7.723a195.236,195.236,0,0,1,25.66-1.413c15.026,0,39.886,2.167,46.789,8.137,3.238,2.8,5.846,12.253,8.866,23.2,1.705,6.179,3.468,12.568,5.436,18.051.674,1.877,1.307,3.633,1.9,5.281,5.81,16.11,7.984,22.139,7.8,30.1-.132,5.67-1.511,8.852-4.217,9.727-2.868.927-6.69-1-11.687-5.881a72.414,72.414,0,0,1-5.626-6.245l-13.84,10.074a1.151,1.151,0,0,1-.677.221H523.156a1.151,1.151,0,0,1-1.138-.975l-1.7-10.991c-4.394,5.383-16.567,19.148-26.158,19.148m59.71-97.539a193.011,193.011,0,0,0-25.348,1.392c-6.792.929-15.428,2.849-17.995,6.716-1.783,2.686-6.066,16.493-9.508,27.587-1.363,4.395-2.651,8.546-3.755,11.942a215.984,215.984,0,0,1-8.471,21.371c-1.9,4.112-4.509,12.776-2.256,19.167,1.476,4.188,3.679,6.536,6.548,6.981,4.223.653,10.2-2.584,17.291-9.365a103.035,103.035,0,0,0,9.756-10.877,1.151,1.151,0,0,1,2.057.517l1.954,12.624h64.1l14.435-10.507a1.151,1.151,0,0,1,1.594.235c3.787,4.989,10.825,12.33,14.693,12.33a2.5,2.5,0,0,0,.776-.115c1.613-.522,2.52-3.147,2.624-7.59.175-7.528-1.8-13-7.663-29.261-.595-1.649-1.229-3.406-1.9-5.284-2-5.565-3.772-12-5.488-18.216-2.676-9.7-5.443-19.725-8.153-22.069-5.69-4.921-27.577-7.576-45.283-7.576" transform="translate(-411.19 -434.592)" fill="#1a1311"/>
            <g id="Rectangle_282" data-name="Rectangle 282" transform="translate(-30.409 167.769)" fill="#fff" stroke="#707070" stroke-width="1">
              <rect width="327.237" height="77.522" stroke="none"/>
              <rect x="0.5" y="0.5" width="326.237" height="76.522" fill="none"/>
            </g>
            <path id="Path_1835" data-name="Path 1835" d="M328.388,999.336H1.151A1.151,1.151,0,0,1,0,998.185V920.663a1.151,1.151,0,0,1,1.151-1.151H328.388a1.151,1.151,0,0,1,1.151,1.151v77.522a1.151,1.151,0,0,1-1.151,1.151M2.3,997.034H327.237v-75.22H2.3Z" transform="translate(-31.56 -752.894)" fill="#1a1311"/>
            <g id="Path_1836" data-name="Path 1836" transform="translate(-601.086 -447.943)" fill="#fff">
              <path d="M 743.9248046875 602.9148559570312 L 731.2389526367188 573.3837890625 L 725.7803344726562 531.6996459960938 L 767.6115112304688 531.6996459960938 L 758.3444213867188 569.6869506835938 L 743.9248046875 602.9148559570312 Z" stroke="none"/>
              <path d="M 726.3500366210938 532.1996459960938 L 731.7257080078125 573.2501220703125 L 743.9271240234375 601.6535034179688 L 757.8687744140625 569.5270385742188 L 766.9749145507812 532.1996459960938 L 726.3500366210938 532.1996459960938 M 725.2105712890625 531.1996459960938 L 768.2481689453125 531.1996459960938 L 758.820068359375 569.846923828125 L 743.9224853515625 604.1762084960938 L 730.752197265625 573.5174560546875 L 725.2105712890625 531.1996459960938 Z" stroke="none" fill="#707070"/>
            </g>
            <g id="Path_1837" data-name="Path 1837" transform="translate(-643.934 -475.85)" fill="#1a1311">
              <path d="M 789.2120361328125 575.5919799804688 L 784.3296508789062 575.5919799804688 L 780.5469360351562 567.2359619140625 L 792.9946899414062 567.2359619140625 L 789.2120361328125 575.5919799804688 Z" stroke="none"/>
              <path d="M 788.8895263671875 575.0919799804688 L 792.2195434570312 567.7359619140625 L 781.3221435546875 567.7359619140625 L 784.6521606445312 575.0919799804688 L 788.8895263671875 575.0919799804688 M 789.5345458984375 576.0919799804688 L 784.0071411132812 576.0919799804688 L 779.771728515625 566.7359619140625 L 793.7698974609375 566.7359619140625 L 789.5345458984375 576.0919799804688 Z" stroke="none" fill="#707070"/>
            </g>
            <path id="Path_1838" data-name="Path 1838" d="M783.146,610.318h-5.528l-5.982,30.371,8.745,21.159,8.745-21.159Z" transform="translate(-637.546 -510.076)" fill="#1a1311"/>
            <g id="Rectangle_283" data-name="Rectangle 283" transform="translate(129.738 74.908)" fill="#fff" stroke="#707070" stroke-width="1">
              <rect width="28.068" height="18.136" stroke="none"/>
              <rect x="0.5" y="0.5" width="27.068" height="17.136" fill="none"/>
            </g>
            <g id="Path_1839" data-name="Path 1839" transform="translate(-617.411 -413.192)" fill="#1a1311">
              <path d="M 775.2168579101562 506.8872985839844 L 747.1490478515625 506.8872985839844 C 746.7900390625 506.8872985839844 746.4979248046875 506.59521484375 746.4979248046875 506.2362060546875 L 746.4979248046875 488.1000671386719 C 746.4979248046875 487.7410278320312 746.7900390625 487.4489440917969 747.1490478515625 487.4489440917969 L 775.2168579101562 487.4489440917969 C 775.5760498046875 487.4489440917969 775.8682250976562 487.7410278320312 775.8682250976562 488.1000671386719 L 775.8682250976562 506.2362060546875 C 775.8682250976562 506.59521484375 775.5760498046875 506.8872985839844 775.2168579101562 506.8872985839844 Z M 747.8004150390625 488.7511291503906 L 747.8004150390625 489.2511291503906 L 747.8004150390625 505.0851745605469 L 747.8004150390625 505.5851745605469 L 748.3004150390625 505.5851745605469 L 774.0658569335938 505.5851745605469 L 774.5658569335938 505.5851745605469 L 774.5658569335938 505.0851745605469 L 774.5658569335938 489.2511291503906 L 774.5658569335938 488.7511291503906 L 774.0658569335938 488.7511291503906 L 748.3004150390625 488.7511291503906 L 747.8004150390625 488.7511291503906 Z" stroke="none"/>
              <path d="M 775.2168579101562 506.3872985839844 C 775.3003540039062 506.3872985839844 775.3682250976562 506.3195190429688 775.3682250976562 506.2362060546875 L 775.3682250976562 488.1000671386719 C 775.3682250976562 488.0167541503906 775.3003540039062 487.9489440917969 775.2168579101562 487.9489440917969 L 747.1490478515625 487.9489440917969 C 747.0657348632812 487.9489440917969 746.9979248046875 488.0167541503906 746.9979248046875 488.1000671386719 L 746.9979248046875 506.2362060546875 C 746.9979248046875 506.3195190429688 747.0657348632812 506.3872985839844 747.1490478515625 506.3872985839844 L 775.2168579101562 506.3872985839844 M 747.3004150390625 488.2511291503906 L 775.0658569335938 488.2511291503906 L 775.0658569335938 506.0851745605469 L 747.3004150390625 506.0851745605469 L 747.3004150390625 488.2511291503906 M 775.2168579101562 507.3872985839844 L 747.1490478515625 507.3872985839844 C 746.513427734375 507.3872985839844 745.9979248046875 506.8721008300781 745.9979248046875 506.2362060546875 L 745.9979248046875 488.1000671386719 C 745.9979248046875 487.4644165039062 746.513427734375 486.9489440917969 747.1490478515625 486.9489440917969 L 775.2168579101562 486.9489440917969 C 775.8526000976562 486.9489440917969 776.3682250976562 487.4644165039062 776.3682250976562 488.1000671386719 L 776.3682250976562 506.2362060546875 C 776.3682250976562 506.8721008300781 775.8526000976562 507.3872985839844 775.2168579101562 507.3872985839844 Z M 748.3004150390625 489.2511291503906 L 748.3004150390625 505.0851745605469 L 774.0658569335938 505.0851745605469 L 774.0658569335938 489.2511291503906 L 748.3004150390625 489.2511291503906 Z" stroke="none" fill="#707070"/>
            </g>
            <path id="Path_1840" data-name="Path 1840" d="M813.865,518.918l9.41,9.114c.182.075,4.022-5.044,6.037-8.759,2.095-3.863,4.372-8.328,4.261-8.345l-4.616-5.149s-6.214,5.682-8.7,7.812-6.392,5.327-6.392,5.327" transform="translate(-670.709 -427.979)" fill="#fff"/>
            <path id="Path_1841" data-name="Path 1841" d="M819.1,524.987a1.232,1.232,0,0,1-.469-.1,1.149,1.149,0,0,1-.364-.238l-9.41-9.114a1.151,1.151,0,0,1,.072-1.718c.039-.032,3.925-3.212,6.371-5.31s8.611-7.731,8.673-7.788a1.151,1.151,0,0,1,1.634.081l4.6,5.126a1.139,1.139,0,0,1,.2.281c.272.546.079.947-.344,1.826-.236.49-.58,1.178-1,1.992-.872,1.707-1.972,3.8-2.943,5.585a63.123,63.123,0,0,1-3.779,5.92c-.6.837-1.175,1.615-1.629,2.19-.564.713-1,1.267-1.608,1.267m-7.715-10.209L819,522.16a65.808,65.808,0,0,0,5.085-7.647c1.7-3.138,3.322-6.293,3.932-7.568l-3.357-3.744c-1.8,1.638-5.925,5.387-7.869,7.053-1.7,1.457-4.083,3.428-5.413,4.523" transform="translate(-666.498 -423.768)" fill="#1a1311"/>
            <path id="Path_1842" data-name="Path 1842" d="M741.754,518.918l-9.41,9.114c-.182.075-4.022-5.044-6.037-8.759-2.095-3.863-4.372-8.328-4.261-8.345l4.616-5.149s6.214,5.682,8.7,7.812,6.392,5.327,6.392,5.327" transform="translate(-598.598 -427.979)" fill="#fff"/>
            <g id="Path_1843" data-name="Path 1843" transform="translate(-594.372 -423.769)" fill="#1a1311">
              <path d="M 728.0859375 524.4873657226562 C 727.722412109375 524.4873657226562 727.3466186523438 524.01220703125 726.8709106445312 523.41064453125 C 726.4222412109375 522.8431396484375 725.8489379882812 522.0723266601562 725.2566528320312 521.240234375 C 724.3696899414062 519.9937744140625 722.703369140625 517.5739135742188 721.50927734375 515.3723754882812 C 720.5425415039062 513.5899658203125 719.4444580078125 511.5059814453125 718.5718994140625 509.7976989746094 C 718.1580810546875 508.9879760742188 717.8157348632812 508.3029174804688 717.5818481445312 507.8164978027344 C 717.1489868164062 506.9169006347656 717.083984375 506.7325744628906 717.2344970703125 506.4297180175781 C 717.2634887695312 506.3716735839844 717.3011474609375 506.31787109375 717.34619140625 506.2705383300781 L 717.3511962890625 506.2652282714844 L 717.3560791015625 506.259765625 L 721.9520263671875 501.1337280273438 C 722.0673217773438 501.0050964355469 722.2321166992188 500.926513671875 722.4041137695312 500.9180908203125 C 722.415771484375 500.9175109863281 722.4269409179688 500.917236328125 722.4380493164062 500.917236328125 C 722.600341796875 500.917236328125 722.755859375 500.9777526855469 722.8759155273438 501.087646484375 L 722.8848876953125 501.0958557128906 C 723.5264892578125 501.6820373535156 729.2210083007812 506.8807678222656 731.5603637695312 508.885986328125 C 733.9552612304688 510.9386291503906 737.7761840820312 514.068359375 737.9376831054688 514.2005615234375 C 738.08447265625 514.3206787109375 738.17138671875 514.4944458007812 738.1791381835938 514.679931640625 C 738.1868896484375 514.8651123046875 738.1148071289062 515.0455322265625 737.9814453125 515.1748046875 L 728.5712280273438 524.2890014648438 C 728.511474609375 524.3468627929688 728.4423828125 524.39208984375 728.3655395507812 524.4236450195312 C 728.2611083984375 524.466552734375 728.1697998046875 524.4873657226562 728.0859375 524.4873657226562 Z M 722.4830932617188 502.4922180175781 L 722.1466064453125 502.8674926757812 L 718.7894287109375 506.6116943359375 L 718.5664672851562 506.8603210449219 L 718.7107543945312 507.1614990234375 C 719.35400390625 508.5044250488281 721.0048828125 511.7107238769531 722.6539916992188 514.751708984375 C 724.1305541992188 517.4741821289062 726.53125 520.8572387695312 727.7846069335938 522.4669799804688 L 728.1268920898438 522.906494140625 L 728.5269775390625 522.5189819335938 L 736.1490478515625 515.1367797851562 L 736.5511474609375 514.747314453125 L 736.1189575195312 514.3915405273438 C 734.8336791992188 513.3336181640625 732.4223022460938 511.3400268554688 730.7131958007812 509.8748474121094 C 728.7547607421875 508.1963500976562 724.5657958984375 504.3902282714844 722.8556518554688 502.8317260742188 L 722.4830932617188 502.4922180175781 Z" stroke="none"/>
              <path d="M 728.0892944335938 523.9871826171875 C 728.1002197265625 523.986083984375 728.129150390625 523.980224609375 728.1758422851562 523.9609985351562 C 728.1934814453125 523.9537353515625 728.2093505859375 523.9434204101562 728.2233276367188 523.9298095703125 L 737.6334228515625 514.8157958984375 C 737.66455078125 514.78564453125 737.681396484375 514.74365234375 737.6795654296875 514.700927734375 C 737.6777954101562 514.6578369140625 737.6575927734375 514.617431640625 737.6209106445312 514.58740234375 C 737.459228515625 514.4550170898438 733.6340942382812 511.3218994140625 731.2349243164062 509.2655944824219 C 728.8897705078125 507.25537109375 723.1898193359375 502.0517272949219 722.547607421875 501.4649963378906 L 722.5382690429688 501.4564514160156 C 722.5098266601562 501.430419921875 722.4761352539062 501.417236328125 722.4380493164062 501.417236328125 L 722.4285888671875 501.4175109863281 C 722.3890991210938 501.41943359375 722.3511352539062 501.4376220703125 722.3243408203125 501.467529296875 L 717.70849609375 506.6150512695312 C 717.69775390625 506.6263732910156 717.688720703125 506.6393432617188 717.6822509765625 506.6522521972656 C 717.6649169921875 506.6871948242188 717.6613159179688 506.7031555175781 717.6612548828125 506.7031555175781 C 717.6612548828125 506.7031555175781 717.6612548828125 506.7031555175781 717.6612548828125 506.7031555175781 C 717.6563720703125 506.8182373046875 717.8648681640625 507.2514953613281 718.0324096679688 507.5998229980469 C 718.2646484375 508.0826416015625 718.6051025390625 508.7639465332031 719.0171508789062 509.5702514648438 C 719.887939453125 511.2751159667969 720.98388671875 513.3550415039062 721.9487915039062 515.1339721679688 C 723.1303100585938 517.312255859375 724.78369140625 519.713134765625 725.6640014648438 520.9502563476562 C 726.2515869140625 521.7757568359375 726.8194580078125 522.5394287109375 727.2630615234375 523.1004638671875 C 727.5263671875 523.4334106445312 727.9231567382812 523.9351806640625 728.0892944335938 523.9871826171875 M 722.4473266601562 501.7831115722656 L 723.1924438476562 502.4621887207031 C 724.90087890625 504.0191345214844 729.0853881835938 507.8211975097656 731.03857421875 509.4952392578125 C 732.7444458007812 510.9576110839844 735.1528930664062 512.94873046875 736.4367065429688 514.0054931640625 L 737.3011474609375 514.717041015625 L 728.0745849609375 523.6531982421875 L 727.39013671875 522.774169921875 C 726.1265258789062 521.1513671875 723.7054443359375 517.7391357421875 722.2144165039062 514.9900512695312 C 720.5615844726562 511.9421691894531 718.90576171875 508.7260131835938 718.2598266601562 507.3775024414062 L 717.9713134765625 506.7751770019531 L 722.4473266601562 501.7831115722656 M 728.0859375 524.9873657226562 C 727.4803466796875 524.9873657226562 727.0426635742188 524.4338989257812 726.4786987304688 523.7207641601562 C 726.0239868164062 523.1456298828125 725.4454345703125 522.36767578125 724.8493041992188 521.5301513671875 C 723.9558715820312 520.2745971679688 722.2766723632812 517.8358764648438 721.0697631835938 515.6107788085938 C 720.0991821289062 513.8212890625 718.9990234375 511.733154296875 718.1265869140625 510.025146484375 C 717.7109375 509.2117919921875 717.3668212890625 508.5231323242188 717.1312255859375 508.033203125 C 716.7083740234375 507.1543273925781 716.5154418945312 506.7531433105469 716.7867431640625 506.2072143554688 C 716.8386840820312 506.1030883789062 716.9052734375 506.0086059570312 716.9838256835938 505.9259948730469 L 721.5797729492188 500.7999572753906 C 721.7848510742188 500.5711364746094 722.0728759765625 500.4337158203125 722.3796997070312 500.418701171875 C 722.6900024414062 500.4031066894531 722.9869384765625 500.511474609375 723.2135009765625 500.7188415527344 C 723.2755126953125 500.7754516601562 729.4426879882812 506.4122314453125 731.8857421875 508.50634765625 C 734.3330078125 510.6038818359375 738.2186279296875 513.7843627929688 738.2574462890625 513.816162109375 C 738.5116577148438 514.024169921875 738.6649169921875 514.3306274414062 738.6787109375 514.658935546875 C 738.6923828125 514.9869384765625 738.5653076171875 515.3052368164062 738.3294067382812 515.5338745117188 L 728.9190673828125 524.6481323242188 C 728.8141479492188 524.7498779296875 728.690673828125 524.8306884765625 728.5552368164062 524.88623046875 C 728.386474609375 524.9556274414062 728.2313232421875 524.9873657226562 728.0859375 524.9873657226562 Z M 722.5188598632812 503.2012939453125 L 719.1616821289062 506.9454956054688 C 719.7722778320312 508.22021484375 721.3917236328125 511.375244140625 723.093505859375 514.5133666992188 C 724.5809326171875 517.2557983398438 726.999267578125 520.6444702148438 728.1791381835938 522.1597900390625 L 735.8012084960938 514.777587890625 C 734.4706420898438 513.682373046875 732.0875244140625 511.7116088867188 730.3877563476562 510.2544555664062 C 728.44384765625 508.58837890625 724.3162231445312 504.8392944335938 722.5188598632812 503.2012939453125 Z" stroke="none" fill="#707070"/>
            </g>
            <path id="Path_1844" data-name="Path 1844" d="M823.1,537.3c1.5-7.464,4.055-25.552,3.526-25.549L836,514.206l4.214,14.807-8.046,2.774,7.113,4.331s-3.845,15-9.487,24.073c-3.583,5.763-19.432,27.636-19.432,27.636S820.819,548.634,823.1,537.3" transform="translate(-667.958 -432.672)" fill="#04427d"/>
            <path id="Path_1845" data-name="Path 1845" d="M806.151,584.765a1.151,1.151,0,0,1-1.112-1.448c.1-.391,10.472-39.284,12.722-50.453,1.447-7.181,3.628-22.828,3.578-24.916a1.151,1.151,0,0,1,1.072-1.557,1.065,1.065,0,0,1,.35.051l9.321,2.437a1.151,1.151,0,0,1,.816.8l4.214,14.807a1.151,1.151,0,0,1-.732,1.4l-5.731,1.976,5.021,3.057a1.151,1.151,0,0,1,.516,1.269c-.159.619-3.954,15.272-9.625,24.395-3.563,5.732-18.829,26.81-19.477,27.7a1.151,1.151,0,0,1-.933.476m17.438-75.726c-.1,1.5-.4,4.13-1.068,8.883-.828,5.919-1.811,11.963-2.5,15.4-1.721,8.542-8.138,33.113-11.161,44.574,4.9-6.817,13.291-18.571,15.748-22.523,4.737-7.62,8.24-19.693,9.13-22.931l-6.376-3.882a1.151,1.151,0,0,1,.223-2.071l7.016-2.419-3.736-13.126Zm-4.7,24.053h0Z" transform="translate(-663.747 -428.46)" fill="#1a1311"/>
            <path id="Path_1846" data-name="Path 1846" d="M694.021,536.44c-1.5-7.464-3.623-24.688-3.095-24.685l-9.345,2.068-4.242,15.189,8.046,2.774-7.285,4.331s3.845,14.419,9.66,24.073c3.886,6.452,18.136,27.636,18.136,27.636s-9.592-40.056-11.875-51.386" transform="translate(-563.491 -432.672)" fill="#04427d"/>
            <path id="Path_1847" data-name="Path 1847" d="M701.684,584.767a1.151,1.151,0,0,1-.956-.509c-.143-.212-14.311-21.282-18.167-27.685-5.832-9.682-9.627-23.775-9.786-24.371a1.152,1.152,0,0,1,.524-1.286l5.151-3.062-5.7-1.965a1.151,1.151,0,0,1-.733-1.4L676.26,509.3a1.151,1.151,0,0,1,.86-.814l9.3-2.057a1.168,1.168,0,0,1,.3-.038,1.151,1.151,0,0,1,1.061,1.584c-.094,2.052,1.713,16.858,3.157,24.025,2.253,11.18,11.77,50.945,11.866,51.345a1.152,1.152,0,0,1-1.119,1.419m-26.451-52.322c.914,3.2,4.431,14.856,9.3,22.94,2.618,4.347,10.061,15.558,14.547,22.276-2.788-11.729-8.685-36.69-10.4-45.2-.811-4.025-1.716-10.375-2.292-14.975-.566-4.521-.813-7.043-.879-8.492l-7.218,1.6-3.764,13.48,7.021,2.42a1.151,1.151,0,0,1,.213,2.078Z" transform="translate(-559.279 -428.462)" fill="#1a1311"/>
            <path id="Path_1848" data-name="Path 1848" d="M808.323,886.278a3.1,3.1,0,1,1-3.1-3.1,3.1,3.1,0,0,1,3.1,3.1" transform="translate(-661.486 -724.359)" fill="#fff"/>
            <path id="Path_1849" data-name="Path 1849" d="M801.126,886.4a4.221,4.221,0,1,1,4.221-4.22,4.225,4.225,0,0,1-4.221,4.22m0-6.2a1.982,1.982,0,1,0,1.982,1.982,1.984,1.984,0,0,0-1.982-1.982" transform="translate(-657.39 -720.264)" fill="#1a1311"/>
            <path id="Path_1850" data-name="Path 1850" d="M985.614,725.824h-.026a1.151,1.151,0,0,1-1.125-1.177c.155-6.961,3.437-44.6,3.577-46.2a1.151,1.151,0,1,1,2.293.2c-.034.391-3.415,39.165-3.569,46.051a1.151,1.151,0,0,1-1.15,1.126" transform="translate(-804.683 -562.754)" fill="#1a1311"/>
            <path id="Path_1851" data-name="Path 1851" d="M626.478,719.326a1.151,1.151,0,0,1-1.142-1.018c-.943-8.114-6.635-44.565-6.693-44.932a1.151,1.151,0,0,1,2.275-.356c.057.368,5.756,36.864,6.7,45.022a1.151,1.151,0,0,1-1.01,1.276,1.109,1.109,0,0,1-.134.008" transform="translate(-517.385 -558.553)" fill="#1a1311"/>
            <path id="Path_1852" data-name="Path 1852" d="M686.091,412.306c-4.244.559-10.582-4.93-10.55-10.734.019-3.634,5.107-6.669,8.137-3.8,1.116,1.055.534,1.467.956,2.224" transform="translate(-562.079 -342.264)" fill="#fff"/>
            <path id="Path_1853" data-name="Path 1853" d="M681.277,409.277a10.533,10.533,0,0,1-6.61-2.914,12.407,12.407,0,0,1-4.488-9.015,6.358,6.358,0,0,1,4.017-5.571,5.454,5.454,0,0,1,6.062.936,3.044,3.044,0,0,1,1.12,2.219c.016.2.022.228.051.28a1.151,1.151,0,0,1-2.01,1.123,2.765,2.765,0,0,1-.336-1.226c-.02-.266-.028-.366-.406-.723a3.24,3.24,0,0,0-3.575-.492,4.1,4.1,0,0,0-2.62,3.466,10.1,10.1,0,0,0,3.709,7.276c1.85,1.632,3.974,2.517,5.54,2.311a1.151,1.151,0,1,1,.3,2.282,5.759,5.759,0,0,1-.754.048" transform="translate(-557.868 -338.045)" fill="#1a1311"/>
            <path id="Path_1854" data-name="Path 1854" d="M744.128,267.516c1.309,5.666,2.275,10.5,1.187,18.479-1.314,9.635-4.125,14.411-7.618,18.786a23.125,23.125,0,0,1-10.253,7.436,24.541,24.541,0,0,1-11.538.646c-7.838-2.106-12.2-5.677-15.937-17.833-2.381-7.736-4.836-20.808-3.578-28.586,1.7-10.511,15.95-24.794,35.148-16.658,8.4,3.56,10.222,7.492,12.588,17.73" transform="translate(-578.186 -225.055)" fill="#fff"/>
            <path id="Path_1855" data-name="Path 1855" d="M715.809,310.162a18.22,18.22,0,0,1-4.414-.45c-4.568-1.228-7.571-2.863-10.041-5.468-2.717-2.865-4.782-6.917-6.7-13.139-2.193-7.125-4.965-20.757-3.614-29.108,1.039-6.426,6.176-13.2,12.782-16.846,5.064-2.8,13.33-5.189,23.952-.688,9.052,3.836,10.91,8.361,13.26,18.53,1.393,6.027,2.295,10.91,1.206,18.894-1.3,9.514-4.08,14.616-7.859,19.349a24.313,24.313,0,0,1-10.774,7.805,25.443,25.443,0,0,1-7.8,1.12m.336-65.9a23.045,23.045,0,0,0-11.208,2.9c-6.952,3.842-10.847,10.4-11.623,15.2-1.288,7.962,1.413,21.145,3.542,28.064,3.707,12.045,7.834,15.1,15.135,17.06a23.326,23.326,0,0,0,10.861-.622,21.98,21.98,0,0,0,9.732-7.067c3.642-4.562,6.147-9.2,7.377-18.224,1.036-7.6.169-12.278-1.168-18.064h0c-2.395-10.363-4.147-13.637-11.916-16.929a27.364,27.364,0,0,0-10.733-2.318" transform="translate(-573.973 -220.792)" fill="#1a1311"/>
            <path id="Path_1856" data-name="Path 1856" d="M789.861,502.588a19.583,19.583,0,0,1,5.066-.988,17.644,17.644,0,0,1,5.6.816" transform="translate(-651.858 -424.684)" fill="#fff"/>
            <path id="Path_1857" data-name="Path 1857" d="M785.652,499.528a1.151,1.151,0,0,1-.4-2.231,20.638,20.638,0,0,1,5.4-1.057,18.691,18.691,0,0,1,6.028.872,1.151,1.151,0,1,1-.722,2.186,16.6,16.6,0,0,0-5.173-.76,18.645,18.645,0,0,0-4.736.92,1.148,1.148,0,0,1-.395.07" transform="translate(-647.648 -420.474)" fill="#1a1311"/>
            <path id="Path_1858" data-name="Path 1858" d="M792.462,424.037l-3.137-1.627s2.078-7.479,2.3-11.042" transform="translate(-651.437 -353.836)" fill="#fff"/>
            <path id="Path_1859" data-name="Path 1859" d="M788.25,420.978a1.143,1.143,0,0,1-.529-.129l-3.137-1.627a1.151,1.151,0,0,1-.579-1.33c.02-.074,2.049-7.4,2.264-10.807a1.151,1.151,0,0,1,2.3.145,70.228,70.228,0,0,1-2.1,10.375l2.314,1.2a1.151,1.151,0,0,1-.531,2.173" transform="translate(-647.226 -349.626)" fill="#1a1311"/>
            <path id="Path_1860" data-name="Path 1860" d="M912.917,406.377c4.229.667,10.852-3.031,10.884-10.059.017-3.635-4.027-6.922-7.129-4.136a5.657,5.657,0,0,0-1.583,2.009" transform="translate(-748.497 -337.95)" fill="#fff"/>
            <path id="Path_1861" data-name="Path 1861" d="M909.747,403.386a7.833,7.833,0,0,1-1.221-.093,1.151,1.151,0,0,1,.359-2.274,8.516,8.516,0,0,0,6.413-2.147,8.713,8.713,0,0,0,3.14-6.78,4.258,4.258,0,0,0-2.364-3.78,2.488,2.488,0,0,0-2.844.506,4.106,4.106,0,0,0-1.135,1.338c-.067.121-.139.251-.228.4a1.151,1.151,0,0,1-1.981-1.173c.075-.127.137-.238.193-.341a6.247,6.247,0,0,1,1.611-1.938,4.772,4.772,0,0,1,5.325-.894,6.565,6.565,0,0,1,3.724,5.891,11.092,11.092,0,0,1-3.951,8.523,11.219,11.219,0,0,1-7.043,2.761" transform="translate(-744.286 -333.729)" fill="#1a1311"/>
            <path id="Path_1862" data-name="Path 1862" d="M687.341,252.186c.409,5.73.532,9.327.532,9.327s-2.834-8.848-3.3-14.589c-.63-7.7-1.49-13.474,3.864-19.063,3.279-3.423,12.346-7.812,16.659-8.522,7.312-1.2,14.982-.624,20.36,2.312,6.012,3.282,7.474,7.346,7.474,7.346a9.113,9.113,0,0,1,6.642,5.318c3.8,8.054,2.227,14.4.112,20.04-.9,2.41-2.553,3.333-3.646,5.231-1.657,2.88-1.694,3.7-1.694,3.7l-.448-.237s1.683-10.154-2.278-15.216c-4.961-6.34-6.111-8.889-6.148-13.714,0,0-15.016-6.493-27.326,4.691.1-2.373.623-6.2,1.595-7.6,0,0-4.052.8-7.141,6.422l-1.105-2.769a31.118,31.118,0,0,0-4.148,17.316" transform="translate(-568.801 -202.568)" fill="#1a1311"/>
            <path id="Path_1863" data-name="Path 1863" d="M731.9,261.485a.777.777,0,0,1-.361-.094l-.448-.236a.678.678,0,0,1-.352-.71c.016-.1,1.586-9.922-2.143-14.688-4.92-6.288-6.177-8.962-6.285-13.667a28.547,28.547,0,0,0-8.454-1.638,24.062,24.062,0,0,0-17.745,6.366.678.678,0,0,1-1.133-.53,27.817,27.817,0,0,1,.983-6.338c-.251.131-.528.291-.821.483a13.861,13.861,0,0,0-4.436,5.034.678.678,0,0,1-1.223-.075l-.577-1.446a30.749,30.749,0,0,0-3.371,15.694c.405,5.677.532,9.316.533,9.352a.678.678,0,0,1-1.323.23c-.116-.364-2.863-8.989-3.333-14.741q-.057-.69-.114-1.36c-.6-7.124-1.082-12.751,4.164-18.227,3.4-3.552,12.633-8,17.038-8.722,8.021-1.319,15.6-.45,20.795,2.386,5.177,2.826,7.1,6.217,7.628,7.337a9.87,9.87,0,0,1,6.776,5.632c3.84,8.149,2.334,14.7.133,20.567a10.534,10.534,0,0,1-2.245,3.437,11.653,11.653,0,0,0-1.448,1.894,13.09,13.09,0,0,0-1.6,3.411.63.63,0,0,1-.315.559.589.589,0,0,1-.319.09m-19.137-32.411q.621,0,1.2.026a28.429,28.429,0,0,1,9.287,1.9.678.678,0,0,1,.409.617c.035,4.674,1.1,7.036,6,13.3,1.735,2.217,2.666,5.55,2.768,9.908.026,1.095-.006,2.111-.059,2.979.171-.32.366-.673.589-1.06a12.891,12.891,0,0,1,1.605-2.113,9.293,9.293,0,0,0,1.993-3.018c1.953-5.205,3.717-11.435-.09-19.514a8.466,8.466,0,0,0-6.107-4.933.678.678,0,0,1-.56-.444c-.013-.036-1.48-3.879-7.161-6.98-4.934-2.693-12.2-3.509-19.925-2.238-4.124.678-13.1,5-16.279,8.321-4.822,5.034-4.39,10.126-3.792,17.175q.057.672.114,1.364a57.138,57.138,0,0,0,1.641,8.678c-.062-1-.135-2.111-.221-3.312a31.5,31.5,0,0,1,4.253-17.73.678.678,0,0,1,1.2.114l.6,1.495c3.083-4.761,6.723-5.529,6.888-5.562a.678.678,0,0,1,.687,1.053c-.63.9-1.132,3.329-1.36,5.641a25.643,25.643,0,0,1,16.315-5.673" transform="translate(-566.318 -200.07)" fill="#1a1311"/>
            <path id="Path_1864" data-name="Path 1864" d="M836.909,203.036a39.941,39.941,0,0,0-17.754-14.65s5.677,6.3,7.15,9.739" transform="translate(-674.863 -178.723)" fill="#1a1311"/>
            <path id="Path_1865" data-name="Path 1865" d="M834.43,201.234a.678.678,0,0,1-.583-.33,39.62,39.62,0,0,0-14.611-13.06c1.807,2.176,4.283,5.365,5.212,7.535a.678.678,0,1,1-1.246.534c-1.413-3.3-6.975-9.49-7.031-9.552a.678.678,0,0,1,.763-1.08,40.237,40.237,0,0,1,18.077,14.928.678.678,0,0,1-.582,1.025" transform="translate(-672.383 -176.243)" fill="#1a1311"/>
            <path id="Path_1866" data-name="Path 1866" d="M802.73,207.33s-3.391-4.267-13.242-5.33c0,0,8.492,4.04,9.382,6.547" transform="translate(-651.565 -189.414)" fill="#1a1311"/>
            <path id="Path_1867" data-name="Path 1867" d="M796.39,206.746a.678.678,0,0,1-.639-.451c-.58-1.632-5.849-4.645-9.034-6.161a.678.678,0,0,1,.364-1.286c10.017,1.081,13.554,5.4,13.7,5.582a.678.678,0,0,1-1.06.846c-.038-.046-2.391-2.855-8.635-4.368.206.118.415.24.625.365,3.149,1.865,4.889,3.359,5.318,4.569a.678.678,0,0,1-.639.905" transform="translate(-649.085 -186.935)" fill="#1a1311"/>
            <path id="Path_1868" data-name="Path 1868" d="M770.175,215.562s-4.746-2.68-14.274.037c0,0,9.388.553,11.154,2.54" transform="translate(-625.188 -199.138)" fill="#1a1311"/>
            <path id="Path_1869" data-name="Path 1869" d="M764.575,216.321a.676.676,0,0,1-.507-.228c-1.152-1.3-7.167-2.107-10.688-2.314a.678.678,0,0,1-.146-1.329c9.69-2.763,14.589-.091,14.794.024a.678.678,0,0,1-.664,1.182c-.052-.029-3.289-1.747-9.644-.8.235.032.475.066.716.1,3.619.545,5.793,1.276,6.646,2.236a.678.678,0,0,1-.506,1.128" transform="translate(-622.707 -196.642)" fill="#1a1311"/>
            <path id="Path_1870" data-name="Path 1870" d="M930.772,422.194a3.365,3.365,0,0,0-2.051,2.578" transform="translate(-760.908 -362.338)" fill="#fff"/>
            <path id="Path_1871" data-name="Path 1871" d="M924.51,421.712a1.152,1.152,0,0,1-1.144-1.289A4.515,4.515,0,0,1,926,416.977a1.151,1.151,0,1,1,1.122,2.01c-.9.5-1.372.9-1.469,1.711a1.151,1.151,0,0,1-1.141,1.013" transform="translate(-756.696 -358.126)" fill="#1a1311"/>
            <path id="Path_1872" data-name="Path 1872" d="M713.583,570.543s-5.848-1.271-6.553,1.177,3.077,7.433,8.013,6.121,3.73-4.891,2.55-5.4-4.009-1.9-4.009-1.9" transform="translate(-586.741 -478.581)" fill="#fff"/>
            <path id="Path_1873" data-name="Path 1873" d="M709.229,574.992a7.781,7.781,0,0,1-5.559-2.418c-1.648-1.682-2.416-3.8-1.959-5.383.311-1.081,1.365-2.361,4.656-2.338a17.815,17.815,0,0,1,3.248.356,1.154,1.154,0,0,1,.265.093c.028.014,2.815,1.388,3.953,1.876a3.4,3.4,0,0,1,1.735,3.34c-.2,2.8-3.175,3.89-4.443,4.227a7.377,7.377,0,0,1-1.9.249m-2.921-7.839c-1.251,0-2.251.212-2.384.676a3.984,3.984,0,0,0,1.392,3.134,5.356,5.356,0,0,0,5.219,1.555c1.617-.43,2.584-1.157,2.724-2.049a1.387,1.387,0,0,0-.347-1.184c-1.068-.459-3.343-1.573-3.918-1.856a13.874,13.874,0,0,0-2.685-.277m6.617,2.139h0" transform="translate(-582.529 -474.371)" fill="#1a1311"/>
            <path id="Path_1874" data-name="Path 1874" d="M867.809,637.683l-9.227-15L844.2,629.262l8.549,15.566s1.281,2.9,8.166,0,6.89-7.145,6.89-7.145" transform="translate(-694.535 -519.785)" fill="#fff"/>
            <path id="Path_1875" data-name="Path 1875" d="M851.5,643.059c-2.84,0-3.782-1.509-3.984-1.916l-8.534-15.54a1.151,1.151,0,0,1,.53-1.6l14.378-6.581a1.15,1.15,0,0,1,1.459.444l9.227,15a1.152,1.152,0,0,1,.171.6c0,.2-.092,5.041-7.594,8.2a14.868,14.868,0,0,1-5.653,1.383m-1.916-2.934c.35.511,2.156,1.335,6.674-.57,5.07-2.138,5.986-4.921,6.15-5.817l-8.487-13.8L841.6,625.579l7.953,14.482c.031.057.025.029.036.064" transform="translate(-690.324 -515.572)" fill="#1a1311"/>
            <path id="Path_1876" data-name="Path 1876" d="M803.195,552.753a7.8,7.8,0,0,1-6.933-1.348,67.45,67.45,0,0,1-5.686-4.705s-5.574-15.444-4.15-16.359-.132-4.429,4.059-5.458a10.3,10.3,0,0,1,7.544.849c1.278.451,2.2-.443,3.4.566a16.673,16.673,0,0,0,3.1,1.888,3.219,3.219,0,0,1,3.309,2.031c1.327,2.911,6.976,14.368,6.291,17.175" transform="translate(-648.977 -442.695)" fill="#fff"/>
            <path id="Path_1877" data-name="Path 1877" d="M796.86,549.994a9.049,9.049,0,0,1-5.518-1.88,68.009,68.009,0,0,1-5.793-4.8,1.156,1.156,0,0,1-.284-.438c-.014-.039-1.417-3.934-2.627-7.891-.716-2.343-1.228-4.256-1.52-5.687-.44-2.154-.507-3.521.458-4.141a3.553,3.553,0,0,0,.277-1,5.054,5.054,0,0,1,4.13-4.606,10.788,10.788,0,0,1,7.6.637c.232.1.433.187.6.245a2.134,2.134,0,0,0,.964.038,3.357,3.357,0,0,1,2.793.732,14.526,14.526,0,0,0,2.583,1.6,4.415,4.415,0,0,1,4.134,2.725c.16.352.384.829.652,1.4,3.846,8.2,6.289,14.151,5.71,16.524a1.151,1.151,0,0,1-2.237-.545c.071-.291.15-1.624-1.811-6.547-1.227-3.081-2.8-6.445-3.746-8.454-.272-.581-.5-1.066-.663-1.423a2.047,2.047,0,0,0-2.1-1.368,1.1,1.1,0,0,1-.643-.1,17.716,17.716,0,0,1-3.358-2.052c-.315-.265-.5-.261-1.089-.2a4.243,4.243,0,0,1-1.953-.159c-.239-.084-.484-.19-.743-.3a8.507,8.507,0,0,0-6.143-.515c-1.972.484-2.169,1.508-2.419,2.805a3.819,3.819,0,0,1-1,2.285c-.124,1.638,2.032,8.839,4.228,14.959.575.533,2.436,2.21,5.39,4.436a6.625,6.625,0,0,0,5.853,1.183,1.151,1.151,0,0,1,.775,2.168,7.966,7.966,0,0,1-2.495.367" transform="translate(-644.75 -438.485)" fill="#1a1311"/>
            <path id="Path_1878" data-name="Path 1878" d="M679.283,560.4l6.755-8.368s2.011-8.842,3.27-10.585,10.79-13.714,12.985-13.9,9.864,3.884,11.16,5.557,5.077,6.024,5.453,8.359a13.711,13.711,0,0,1-.667,5.411s2.214,2.087.211,4.137c-1.282,1.312-5.827,2.414-5.827,2.414s-1.027,2.646-6.656,6.461c-8.816,5.976-10.787,5.246-10.787,5.246l-7.246,10.234s-8.407-1.211-10.025-4.885,1.375-10.084,1.375-10.084" transform="translate(-563.561 -445.074)" fill="#fff"/>
            <path id="Path_1879" data-name="Path 1879" d="M683.717,572.318a1.113,1.113,0,0,1-.164-.012c-.925-.133-9.091-1.421-10.914-5.56-.779-1.768-.772-4.184.021-7.178a25.4,25.4,0,0,1,1.365-3.857,1.159,1.159,0,0,1,.147-.236l6.588-8.161c.456-1.979,2.135-8.992,3.4-10.743.718-.994,3.483-4.486,6.206-7.615,2.007-2.306,5.744-6.6,7.616-6.755,2.728-.224,10.725,4.139,12.165,6,.2.256.455.575.749.94,2.309,2.868,4.592,5.843,4.93,7.94a13.685,13.685,0,0,1-.52,5.323,4.364,4.364,0,0,1,.916,2.473,3.777,3.777,0,0,1-1.166,2.739c-1.239,1.268-4.47,2.229-5.864,2.6-.609,1.051-2.338,3.4-6.8,6.427-6.3,4.269-9.377,5.315-10.843,5.452l-6.9,9.74a1.151,1.151,0,0,1-.939.486m-7.664-15.51c-.8,1.762-2.432,6.459-1.308,9.01.917,2.081,5.4,3.547,8.448,4.1l6.831-9.648a1.152,1.152,0,0,1,1.194-.457c.252.006,2.515-.079,9.886-5.076,5.153-3.493,6.226-5.918,6.236-5.942a1.119,1.119,0,0,1,.795-.685c1.755-.426,4.552-1.36,5.275-2.1a1.508,1.508,0,0,0,.51-1.073,2.375,2.375,0,0,0-.694-1.428,1.165,1.165,0,0,1-.294-1.2,12.618,12.618,0,0,0,.621-4.858c-.269-1.67-3.094-5.178-4.451-6.863-.3-.378-.571-.709-.776-.974a19.561,19.561,0,0,0-4.857-3.154,16.442,16.442,0,0,0-5.262-1.963c-.209.074-1.559.726-6.3,6.2-2.8,3.226-5.342,6.48-5.885,7.23-.817,1.131-2.323,6.836-3.08,10.166a1.155,1.155,0,0,1-.227.468Zm15.308,3.044h0m0,0h0Zm0,0h0m-.163-.043h0Z" transform="translate(-559.345 -440.869)" fill="#1a1311"/>
            <path id="Path_1880" data-name="Path 1880" d="M756.663,524.146s-5.424-2.9-8.7-1.088c-1.558.861-7.316-.267-9.889.9s-5.048,7.162-5.159,8.124a11.694,11.694,0,0,0,.961,5c.708,1.281,3.3.62,3.906-.614s1.2-1.349,1.2-1.349a6.93,6.93,0,0,0,4-.88c1.818-1.133,8.04-5.471,8.04-5.471a24.8,24.8,0,0,1,3.324-.487c-1.917,1.188-8.984,4.268-8.182,6.129,1.368,3.175,6.452.037,6.452.037s-4.741,2.362-2.931,4.707,9.494-.743,9.494-.743l2.5-.379a9.854,9.854,0,0,0,3.193-.963" transform="translate(-607.121 -441.081)" fill="#fff"/>
            <path id="Path_1881" data-name="Path 1881" d="M748.015,537a4.081,4.081,0,0,1-3.451-1.329,2.889,2.889,0,0,1-.577-2.475,3.132,3.132,0,0,1,.123-.4,4.089,4.089,0,0,1-1.119-.179,3.332,3.332,0,0,1-2.094-1.932,2.051,2.051,0,0,1-.152-.54c-.554.37-1.03.681-1.364.889a7.982,7.982,0,0,1-4.327,1.074,2.65,2.65,0,0,0-.448.685,4.053,4.053,0,0,1-3.429,1.952h-.1a2.638,2.638,0,0,1-2.423-1.289,12.624,12.624,0,0,1-1.1-5.689c.118-1.021,2.665-7.609,5.828-9.04,1.62-.733,4.089-.693,6.266-.657a12.853,12.853,0,0,0,3.541-.2c3.78-2.088,9.555.95,9.8,1.081a1.151,1.151,0,1,1-1.085,2.03c-1.36-.723-5.373-2.327-7.6-1.1-.988.546-2.621.519-4.691.485-1.936-.031-4.13-.067-5.28.453-1.954.884-4.327,6.157-4.491,7.216a10.841,10.841,0,0,0,.827,4.3c.019.034.159.105.446.1a1.865,1.865,0,0,0,1.418-.663c.773-1.579,1.664-1.906,2.011-1.973a1.165,1.165,0,0,1,.352-.014,5.808,5.808,0,0,0,3.262-.714c1.772-1.1,7.929-5.395,7.991-5.438a1.15,1.15,0,0,1,.415-.18,25.6,25.6,0,0,1,3.52-.512,1.151,1.151,0,0,1,.654,2.128c-.453.281-1.138.641-1.93,1.058-1.461.768-5.272,2.774-5.743,3.758a1,1,0,0,0,.613.527c.9.286,2.447-.256,3.526-.8.343-.207.6-.338.686-.381a1.151,1.151,0,0,1,1.118,2.01c-.084.052-.322.2-.669.375-.909.559-1.957,1.422-2.111,2.1a.6.6,0,0,0,.155.553c.6.781,4.1.518,8.154-1.108a1.155,1.155,0,0,1,.256-.07l2.5-.379q.044-.007.089-.01a8.03,8.03,0,0,0,2.585-.776l.257-.105a1.151,1.151,0,0,1,.87,2.131l-.255.1a10.15,10.15,0,0,1-3.244.938l-2.326.353a30.829,30.829,0,0,1-4.119,1.256,14.667,14.667,0,0,1-3.136.4" transform="translate(-602.911 -436.899)" fill="#1a1311"/>
            <path id="Path_1882" data-name="Path 1882" d="M751.166,537.807c-1.195,0-2.847-.272-3.6-1.638-1.247-2.257-.291-3.093,1.612-4.757l.133-.116c.894-.782,2.18-2.008,3.423-3.194,1.551-1.479,3.016-2.876,3.873-3.568a1.151,1.151,0,0,1,1.446,1.791c-.783.633-2.282,2.062-3.731,3.443-1.261,1.2-2.565,2.446-3.5,3.261l-.133.116a10.075,10.075,0,0,0-1.382,1.327,2.725,2.725,0,0,0,.27.584c.255.462,1.641.529,2.523.374a1.151,1.151,0,0,1,.407,2.266,7.964,7.964,0,0,1-1.343.112" transform="translate(-618.2 -442.507)" fill="#1a1311"/>
            <path id="Path_1883" data-name="Path 1883" d="M824.759,568.355c.947-.194,4.959-1.968,6.665-2.138a14.544,14.544,0,0,0,2.9-.573" transform="translate(-679.264 -474.993)" fill="#fff"/>
            <path id="Path_1884" data-name="Path 1884" d="M820.546,565.3a1.151,1.151,0,0,1-.23-2.279c.261-.054,1.11-.371,1.858-.651a24.834,24.834,0,0,1,4.924-1.506,13.665,13.665,0,0,0,2.648-.519,1.151,1.151,0,0,1,.733,2.182,15.7,15.7,0,0,1-3.152.627,25.329,25.329,0,0,0-4.347,1.371,18.94,18.94,0,0,1-2.2.749,1.15,1.15,0,0,1-.233.024" transform="translate(-675.052 -470.783)" fill="#1a1311"/>
            <path id="Path_1885" data-name="Path 1885" d="M857.357,591.681c.656.023,3.8-1.038,5.255-1.2" transform="translate(-704.864 -494.499)" fill="#fff"/>
            <path id="Path_1886" data-name="Path 1886" d="M853.167,588.621h-.061a1.151,1.151,0,0,1,.04-2.3h.017c.262-.02,1.207-.274,1.9-.46a25.058,25.058,0,0,1,3.213-.731,1.151,1.151,0,1,1,.253,2.288,24.669,24.669,0,0,0-2.867.666,12,12,0,0,1-2.494.54m.009-2.3h0" transform="translate(-700.654 -490.288)" fill="#1a1311"/>
            <path id="Path_1887" data-name="Path 1887" d="M912.343,715.077a1.151,1.151,0,0,1-.47-2.2c.466-.211,1.8-1.036,1.855-2.026a1.151,1.151,0,0,1,2.3.118c-.134,2.616-3.093,3.956-3.218,4.012a1.147,1.147,0,0,1-.466.1" transform="translate(-747.141 -588.168)" fill="#1a1311"/>
            <path id="Path_1888" data-name="Path 1888" d="M640.869,685.013l7.482-7.555s4.394,3.766,6.949,6.178a77.279,77.279,0,0,0,9.059,6.635l-6,10.208" transform="translate(-534.851 -562.803)" fill="#fff"/>
            <path id="Path_1889" data-name="Path 1889" d="M654.15,697.419a1.152,1.152,0,0,1-.991-1.734l5.437-9.254a69.378,69.378,0,0,1-8.3-6.168c-1.85-1.746-4.709-4.24-6.1-5.442l-6.727,6.792a1.151,1.151,0,1,1-1.636-1.62l7.483-7.555a1.15,1.15,0,0,1,1.567-.064c.044.038,4.444,3.812,6.99,6.214a76.51,76.51,0,0,0,8.883,6.5,1.151,1.151,0,0,1,.379,1.557l-6,10.208a1.151,1.151,0,0,1-.994.568" transform="translate(-530.639 -558.592)" fill="#1a1311"/>
            <path id="Path_1890" data-name="Path 1890" d="M502.47,713.193l20.384-21.982a127,127,0,0,0,9.661,8.952c5.144,4.209,11.31,8.946,11.424,8.564,0,0-20.59,35.223-28.135,40.767-17.895,13.149-27.5,1.6-27.624-9.506" transform="translate(-414.939 -573.604)" fill="#04427d"/>
            <path id="Path_1891" data-name="Path 1891" d="M497.113,752.3a13.251,13.251,0,0,1-5.984-1.367c-4.973-2.481-8.236-8.425-8.313-15.143a1.151,1.151,0,0,1,1.138-1.164h.013a1.151,1.151,0,0,1,1.151,1.138c.067,5.864,2.831,11.01,7.039,13.11,4.911,2.45,11.4.888,18.753-4.518,6.551-4.813,23.729-33.5,27.206-39.374l-.308-.21c-.689-.473-1.621-1.155-2.769-2.026-2.17-1.645-4.89-3.8-7.464-5.9-3.718-3.042-7.317-6.574-8.909-8.176l-19.563,21.1a1.151,1.151,0,0,1-1.688-1.565L517.8,686.217a1.151,1.151,0,0,1,.834-.368,1.184,1.184,0,0,1,.84.354,126.838,126.838,0,0,0,9.56,8.859c5.133,4.2,9.781,7.715,10.846,8.314a1.152,1.152,0,0,1,.952,1.469,1.2,1.2,0,0,1-.137.3c-1.178,2.012-20.84,35.5-28.42,41.066-6.267,4.605-11.29,6.089-15.161,6.089" transform="translate(-410.728 -569.393)" fill="#1a1311"/>
            <path id="Path_1892" data-name="Path 1892" d="M706.337,785.363a1.479,1.479,0,1,1-1.28-1.654,1.479,1.479,0,0,1,1.28,1.654" transform="translate(-583.95 -646.235)" fill="#1a1311"/>
            <path id="Path_1893" data-name="Path 1893" d="M689.292,813.942a1.479,1.479,0,1,1-1.28-1.654,1.479,1.479,0,0,1,1.28,1.654" transform="translate(-570.565 -668.679)" fill="#1a1311"/>
            <path id="Path_1894" data-name="Path 1894" d="M891.006,673.539l-7.8-10.692s-4.721,4.721-7.911,7.273-9.7,6.507-9.7,6.507L873.512,689" transform="translate(-711.338 -551.329)" fill="#fff"/>
            <path id="Path_1895" data-name="Path 1895" d="M869.3,685.945a1.15,1.15,0,0,1-.971-.531l-7.911-12.377a1.151,1.151,0,0,1,.372-1.6c.065-.039,6.49-3.954,9.576-6.423,3.1-2.482,7.769-7.141,7.816-7.188a1.151,1.151,0,0,1,1.744.136l7.8,10.692a1.151,1.151,0,1,1-1.86,1.356l-7.01-9.612c-1.555,1.521-4.685,4.523-7.049,6.414-2.48,1.984-6.849,4.752-8.816,5.975l7.28,11.391a1.151,1.151,0,0,1-.969,1.771" transform="translate(-707.128 -547.118)" fill="#1a1311"/>
            <path id="Path_1896" data-name="Path 1896" d="M913.449,704.379l-21.727-24.391a127.059,127.059,0,0,1-9.661,8.952c-5.144,4.209-11.31,8.946-11.423,8.564,0,0,23.1,39.8,31.042,44.764,17.767,11.107,26.443-3.694,25.933-14.539" transform="translate(-715.293 -564.79)" fill="#04427d"/>
            <path id="Path_1897" data-name="Path 1897" d="M909.1,743.146c-3.29,0-7.358-1.058-12.246-4.114-8.023-5.016-30.118-42.91-31.4-45.116a1.188,1.188,0,0,1-.135-.3,1.151,1.151,0,0,1,.951-1.469c1.065-.6,5.714-4.114,10.847-8.314a126.9,126.9,0,0,0,9.56-8.859,1.151,1.151,0,0,1,1.69.032L910.1,699.4a1.151,1.151,0,0,1-1.719,1.531L887.469,677.46c-1.6,1.61-5.187,5.128-8.891,8.159-2.574,2.106-5.294,4.257-7.464,5.9-1.149.871-2.081,1.553-2.77,2.026l-.313.213c8.154,13.959,24.111,39.608,30.047,43.319,6.527,4.081,12.339,4.855,16.808,2.239,3.8-2.224,7.725-8.1,7.365-15.748a1.151,1.151,0,0,1,2.3-.108c.284,6.031-2.256,14.187-8.5,17.843a13.567,13.567,0,0,1-6.945,1.84" transform="translate(-711.081 -560.578)" fill="#1a1311"/>
            <path id="Path_1898" data-name="Path 1898" d="M902.286,772.582a1.479,1.479,0,1,0,1.28-1.654,1.479,1.479,0,0,0-1.28,1.654" transform="translate(-740.138 -636.198)" fill="#1a1311"/>
            <path id="Path_1899" data-name="Path 1899" d="M919.331,801.161a1.479,1.479,0,1,0,1.28-1.654,1.479,1.479,0,0,0-1.28,1.654" transform="translate(-753.524 -658.642)" fill="#1a1311"/>
            <g id="Path_1900" data-name="Path 1900" transform="translate(-390.521 -833.258)" fill="#e0e0e0">
              <path d="M 578.6534423828125 1042.52490234375 L 458.85498046875 1042.52490234375 C 458.2845458984375 1042.52490234375 457.8572998046875 1042.350341796875 457.6826782226562 1042.046142578125 C 457.5081176757812 1041.741943359375 457.5730285644531 1041.285034179688 457.8608093261719 1040.792602539062 L 467.3337707519531 1024.580810546875 C 468.042236328125 1023.368347167969 469.8272705078125 1022.343933105469 471.2316589355469 1022.343933105469 L 591.0301513671875 1022.343933105469 C 591.6005249023438 1022.343933105469 592.02783203125 1022.518371582031 592.202392578125 1022.822570800781 C 592.376953125 1023.126831054688 592.3120727539062 1023.583801269531 592.0242919921875 1024.076416015625 L 582.5513305664062 1040.2880859375 C 581.8427124023438 1041.50048828125 580.0576782226562 1042.52490234375 578.6534423828125 1042.52490234375 Z" stroke="none"/>
              <path d="M 578.6534423828125 1042.02490234375 C 579.8806762695312 1042.02490234375 581.5003662109375 1041.095336914062 582.11962890625 1040.035766601562 L 591.592529296875 1023.824157714844 C 591.8045043945312 1023.46142578125 591.833740234375 1023.184753417969 591.7687377929688 1023.071472167969 C 591.7037353515625 1022.958190917969 591.4501342773438 1022.843933105469 591.0301513671875 1022.843933105469 L 471.2316589355469 1022.843933105469 C 470.0043334960938 1022.843933105469 468.3846435546875 1023.7734375 467.7654724121094 1024.833129882812 L 458.29248046875 1041.044799804688 C 458.0805969238281 1041.407348632812 458.0513305664062 1041.683959960938 458.1163635253906 1041.797241210938 C 458.1813659667969 1041.910522460938 458.4349670410156 1042.02490234375 458.85498046875 1042.02490234375 L 578.6534423828125 1042.02490234375 M 578.6534423828125 1043.02490234375 L 458.85498046875 1043.02490234375 C 457.2721862792969 1043.02490234375 456.6305236816406 1041.90673828125 457.4291076660156 1040.540283203125 L 466.9020690917969 1024.32861328125 C 467.7006530761719 1022.961853027344 469.6488342285156 1021.843933105469 471.2316589355469 1021.843933105469 L 591.0301513671875 1021.843933105469 C 592.6129150390625 1021.843933105469 593.2545166015625 1022.961853027344 592.4559936523438 1024.32861328125 L 582.9830322265625 1040.540283203125 C 582.1844482421875 1041.90673828125 580.2362670898438 1043.02490234375 578.6534423828125 1043.02490234375 Z" stroke="none" fill="#707070"/>
            </g>
            <g id="Path_1901" data-name="Path 1901" transform="translate(-386.313 -829.047)" fill="#1a1311">
              <path d="M 574.4461059570312 1039.465087890625 L 454.6476135253906 1039.465087890625 C 453.6535034179688 1039.465087890625 452.8622741699219 1039.079833984375 452.4768676757812 1038.408081054688 C 452.0912780761719 1037.736450195312 452.1578063964844 1036.859008789062 452.6593017578125 1036.000610351562 L 462.1324768066406 1019.789245605469 C 462.5732421875 1019.034973144531 463.3226928710938 1018.328796386719 464.2427673339844 1017.800842285156 C 465.1628112792969 1017.272827148438 466.150634765625 1016.982055664062 467.0242614746094 1016.982055664062 L 586.82275390625 1016.982055664062 C 587.8167114257812 1016.982055664062 588.6079711914062 1017.367309570312 588.9935913085938 1018.039001464844 C 589.3789672851562 1018.710510253906 589.3124389648438 1019.587951660156 588.8108520507812 1020.446228027344 L 579.5900268554688 1036.226196289062 L 579.02783203125 1035.897705078125 L 578.5234375 1036.76123046875 L 579.0595092773438 1037.074340820312 C 578.6112060546875 1037.669555664062 577.9757690429688 1038.216918945312 577.2274780273438 1038.646362304688 C 576.3074951171875 1039.17431640625 575.3197021484375 1039.465087890625 574.4461059570312 1039.465087890625 Z M 467.0242614746094 1018.2841796875 C 465.6668395996094 1018.2841796875 463.9415893554688 1019.274291992188 463.2568969726562 1020.4462890625 L 453.7837524414062 1036.657836914062 C 453.5237731933594 1037.102416992188 453.459228515625 1037.50439453125 453.6068115234375 1037.760498046875 C 453.7523498535156 1038.015502929688 454.132080078125 1038.162719726562 454.6476135253906 1038.162719726562 L 574.4461059570312 1038.162719726562 C 575.8031616210938 1038.162719726562 577.5283813476562 1037.172607421875 578.2134399414062 1036.000732421875 L 587.6865234375 1019.789245605469 C 587.946533203125 1019.344360351562 588.0110473632812 1018.942321777344 587.863525390625 1018.686279296875 C 587.718505859375 1018.431579589844 587.3386840820312 1018.2841796875 586.82275390625 1018.2841796875 L 467.0242614746094 1018.2841796875 Z" stroke="none"/>
              <path d="M 574.4461059570312 1038.965087890625 C 575.757568359375 1038.965087890625 577.3048706054688 1038.225830078125 578.2911987304688 1037.20458984375 L 578.271240234375 1037.192993164062 L 579.280029296875 1035.465942382812 L 579.4105224609375 1035.542236328125 L 588.379150390625 1020.193969726562 C 588.787841796875 1019.494567871094 588.8536987304688 1018.7998046875 588.5599365234375 1018.287902832031 C 588.2659301757812 1017.775756835938 587.6327514648438 1017.482055664062 586.82275390625 1017.482055664062 L 467.0242614746094 1017.482055664062 C 465.3896789550781 1017.482055664062 463.3888854980469 1018.630249023438 462.5641784667969 1020.04150390625 L 453.0910034179688 1036.2529296875 C 452.6823425292969 1036.952392578125 452.6165161132812 1037.647094726562 452.9105529785156 1038.1591796875 C 453.2043762207031 1038.67138671875 453.8374938964844 1038.965087890625 454.6476135253906 1038.965087890625 L 574.4461059570312 1038.965087890625 M 467.0242614746094 1017.7841796875 L 586.82275390625 1017.7841796875 C 587.53125 1017.7841796875 588.0543823242188 1018.015808105469 588.2967529296875 1018.436584472656 C 588.5399169921875 1018.858581542969 588.4765014648438 1019.428588867188 588.1182250976562 1020.04150390625 L 578.6450805664062 1036.253051757812 C 577.868408203125 1037.581787109375 575.9847412109375 1038.662719726562 574.4461059570312 1038.662719726562 L 454.6476135253906 1038.662719726562 C 453.937255859375 1038.662719726562 453.4130859375 1038.429809570312 453.1735534667969 1038.010131835938 C 452.9303894042969 1037.588012695312 452.9938659667969 1037.01806640625 453.35205078125 1036.405517578125 L 462.8251953125 1020.194030761719 C 463.6015014648438 1018.865234375 465.4851684570312 1017.7841796875 467.0242614746094 1017.7841796875 M 574.4461059570312 1039.965087890625 L 454.6476135253906 1039.965087890625 C 453.4694519042969 1039.965087890625 452.5201721191406 1039.48828125 452.0431823730469 1038.656860351562 C 451.5659790039062 1037.82568359375 451.6333312988281 1036.765502929688 452.2276000976562 1035.748413085938 L 461.7007751464844 1019.536987304688 C 462.7018127441406 1017.823974609375 465.0402221679688 1016.482055664062 467.0242614746094 1016.482055664062 L 586.82275390625 1016.482055664062 C 588.000732421875 1016.482055664062 588.9500122070312 1016.958862304688 589.4271850585938 1017.7900390625 C 589.9042358398438 1018.621215820312 589.8369750976562 1019.681274414062 589.2425537109375 1020.698486328125 L 579.7694702148438 1036.910034179688 L 578.775634765625 1036.329467773438 L 579.7694702148438 1036.910034179688 C 578.7683715820312 1038.623168945312 576.4301147460938 1039.965087890625 574.4461059570312 1039.965087890625 Z M 467.0242614746094 1018.7841796875 C 465.8431396484375 1018.7841796875 464.2843933105469 1019.6787109375 463.6886291503906 1020.698486328125 L 454.2154541015625 1036.910034179688 C 453.99951171875 1037.279296875 454.022705078125 1037.480834960938 454.0400695800781 1037.510986328125 C 454.0572814941406 1037.541137695312 454.2197875976562 1037.662719726562 454.6476135253906 1037.662719726562 L 574.4461059570312 1037.662719726562 C 575.6272583007812 1037.662719726562 577.185791015625 1036.767944335938 577.78173828125 1035.748413085938 L 587.2548217773438 1019.536987304688 C 587.4706420898438 1019.167724609375 587.4476928710938 1018.966064453125 587.4302978515625 1018.935913085938 C 587.4131469726562 1018.90576171875 587.2506103515625 1018.7841796875 586.82275390625 1018.7841796875 L 467.0242614746094 1018.7841796875 Z" stroke="none" fill="#707070"/>
            </g>
            <g id="Path_1902" data-name="Path 1902" transform="translate(-372.982 -634.414)" fill="#e0e0e0">
              <path d="M 561.1149291992188 843.6805419921875 L 441.3164978027344 843.6805419921875 C 439.9918823242188 843.6805419921875 438.8596801757812 842.6041870117188 438.7926330566406 841.2811889648438 L 435.255859375 771.4927368164062 C 435.22412109375 770.8663940429688 435.439208984375 770.27685546875 435.8614807128906 769.8326416015625 C 436.28369140625 769.3884887695312 436.861572265625 769.1439208984375 437.4887084960938 769.1439208984375 L 557.287109375 769.1439208984375 C 558.6118774414062 769.1439208984375 559.744140625 770.2202758789062 559.8111572265625 771.5433349609375 L 563.3477172851562 841.331787109375 C 563.3794555664062 841.9580688476562 563.1644287109375 842.547607421875 562.7421875 842.9917602539062 C 562.3199462890625 843.4359130859375 561.7420654296875 843.6805419921875 561.1149291992188 843.6805419921875 Z" stroke="none"/>
              <path d="M 561.1149291992188 843.1805419921875 C 561.6036987304688 843.1805419921875 562.0528564453125 842.9911499023438 562.3797607421875 842.6472778320312 C 562.7067260742188 842.3034057617188 562.8731079101562 841.8451538085938 562.848388671875 841.3570556640625 L 559.3118286132812 771.5686645507812 C 559.2589721679688 770.5253295898438 558.331787109375 769.6439208984375 557.287109375 769.6439208984375 L 437.4887084960938 769.6439208984375 C 436.9999389648438 769.6439208984375 436.5507507324219 769.8333129882812 436.2238464355469 770.1771850585938 C 435.8969421386719 770.5210571289062 435.7304992675781 770.9793090820312 435.7552185058594 771.4674682617188 L 439.2919921875 841.255859375 C 439.3448486328125 842.2991333007812 440.27197265625 843.1805419921875 441.3164978027344 843.1805419921875 L 561.1149291992188 843.1805419921875 M 561.1149291992188 844.1805419921875 L 441.3164978027344 844.1805419921875 C 439.7337341308594 844.1805419921875 438.3733520507812 842.8870849609375 438.2932739257812 841.3064575195312 L 434.7565002441406 771.51806640625 C 434.6764526367188 769.9373779296875 435.9058532714844 768.6439208984375 437.4887084960938 768.6439208984375 L 557.287109375 768.6439208984375 C 558.869873046875 768.6439208984375 560.23046875 769.9373779296875 560.310546875 771.51806640625 L 563.8471069335938 841.3064575195312 C 563.9271850585938 842.8870849609375 562.6976928710938 844.1805419921875 561.1149291992188 844.1805419921875 Z" stroke="none" fill="#707070"/>
            </g>
            <path id="Path_1903" data-name="Path 1903" d="M556.9,841.122h-119.8a4.227,4.227,0,0,1-4.173-3.967L429.4,767.366a3.866,3.866,0,0,1,3.882-4.083h119.8a4.227,4.227,0,0,1,4.173,3.967l3.537,69.788a3.866,3.866,0,0,1-3.882,4.083M433.277,765.585a1.563,1.563,0,0,0-1.582,1.664l3.536,69.789a1.922,1.922,0,0,0,1.874,1.781H556.9a1.564,1.564,0,0,0,1.582-1.665l-3.536-69.788a1.922,1.922,0,0,0-1.874-1.781Z" transform="translate(-368.771 -630.204)" fill="#1a1311"/>
            <path id="Path_1904" data-name="Path 1904" d="M720.25,931.04a3.7,3.7,0,1,1-3.7-3.7,3.7,3.7,0,0,1,3.7,3.7" transform="translate(-591.379 -759.042)" fill="#fff"/>
            <path id="Path_1905" data-name="Path 1905" d="M712.339,931.681a4.851,4.851,0,1,1,4.851-4.851,4.857,4.857,0,0,1-4.851,4.851m0-7.4a2.549,2.549,0,1,0,2.549,2.549,2.552,2.552,0,0,0-2.549-2.549" transform="translate(-587.167 -754.831)" fill="#1a1311"/>
          </g>
        </g>
        <g id="Group_126" data-name="Group 126" transform="translate(0 0)">
          <g id="Group_125" data-name="Group 125" transform="translate(0 0)" clip-path="url(#clip-path-3)">
            <path id="Path_1906" data-name="Path 1906" d="M137.3,82.828A53.393,53.393,0,1,1,83.912,29.436,53.392,53.392,0,0,1,137.3,82.828" transform="translate(-23.967 -23.118)" fill="#fff"/>
            <path id="Path_1907" data-name="Path 1907" d="M79.7,133.16a54.544,54.544,0,1,1,38.568-15.976A54.186,54.186,0,0,1,79.7,133.16m0-106.785a52.241,52.241,0,1,0,36.94,15.3,51.9,51.9,0,0,0-36.94-15.3" transform="translate(-19.756 -18.906)" fill="#1a1311"/>
            <path id="Path_1908" data-name="Path 1908" d="M1146.486,82.828a53.393,53.393,0,1,1-53.392-53.392,53.392,53.392,0,0,1,53.392,53.392" transform="translate(-816.503 -23.118)" fill="#fff"/>
            <path id="Path_1909" data-name="Path 1909" d="M1088.883,133.16a54.544,54.544,0,1,1,38.568-15.976,54.186,54.186,0,0,1-38.568,15.976m0-106.785a52.241,52.241,0,1,0,36.94,15.3,51.9,51.9,0,0,0-36.94-15.3" transform="translate(-812.293 -18.906)" fill="#1a1311"/>
            <path id="Path_1910" data-name="Path 1910" d="M441.947,434.052a6.811,6.811,0,1,1-6.811-6.811,6.812,6.812,0,0,1,6.811,6.811" transform="translate(-336.374 -335.524)" fill="#fff"/>
            <path id="Path_1911" data-name="Path 1911" d="M430.925,437.8a7.962,7.962,0,1,1,7.963-7.962,7.971,7.971,0,0,1-7.963,7.962m0-13.623a5.66,5.66,0,1,0,5.66,5.66,5.667,5.667,0,0,0-5.66-5.66" transform="translate(-332.163 -331.312)" fill="#1a1311"/>
            <path id="Path_1912" data-name="Path 1912" d="M1099.041,434.052a6.811,6.811,0,1,1-6.811-6.811,6.811,6.811,0,0,1,6.811,6.811" transform="translate(-852.406 -335.524)" fill="#fff"/>
            <path id="Path_1913" data-name="Path 1913" d="M1088.018,437.8a7.962,7.962,0,1,1,7.963-7.962,7.972,7.972,0,0,1-7.963,7.962m0-13.623a5.66,5.66,0,1,0,5.66,5.66,5.667,5.667,0,0,0-5.66-5.66" transform="translate(-848.194 -331.312)" fill="#1a1311"/>
            <path id="Path_1914" data-name="Path 1914" d="M503.2,497.088a2.637,2.637,0,1,1-2.637-2.637,2.637,2.637,0,0,1,2.637,2.637" transform="translate(-391.031 -388.306)" fill="#fff"/>
            <path id="Path_1915" data-name="Path 1915" d="M496.348,496.664a3.788,3.788,0,1,1,3.788-3.788,3.792,3.792,0,0,1-3.788,3.788m0-5.273a1.486,1.486,0,1,0,1.486,1.486,1.487,1.487,0,0,0-1.486-1.486" transform="translate(-386.82 -384.095)" fill="#1a1311"/>
            <path id="Path_1916" data-name="Path 1916" d="M1070.221,497.088a2.637,2.637,0,1,1-2.637-2.637,2.637,2.637,0,0,1,2.637,2.637" transform="translate(-836.33 -388.306)" fill="#fff"/>
            <path id="Path_1917" data-name="Path 1917" d="M1063.373,496.664a3.788,3.788,0,1,1,3.788-3.788,3.792,3.792,0,0,1-3.788,3.788m0-5.273a1.486,1.486,0,1,0,1.486,1.486,1.487,1.487,0,0,0-1.486-1.486" transform="translate(-832.119 -384.095)" fill="#1a1311"/>
            <path id="Path_1918" data-name="Path 1918" d="M1151.868,103.561a37.551,37.551,0,1,0,37.551,37.55,37.593,37.593,0,0,0-37.551-37.55m0,69.672a32.121,32.121,0,1,1,32.121-32.121,32.158,32.158,0,0,1-32.121,32.121" transform="translate(-875.102 -81.33)" fill="#1a1311"/>
            <path id="Path_1919" data-name="Path 1919" d="M1254.454,189.339l-15.065,14.838a4.274,4.274,0,0,0-3.108.09l-9.095-9.258a1.879,1.879,0,0,0-2.283,2.985l8.907,9.115a4.3,4.3,0,1,0,8.219-.257l15.062-14.836a1.879,1.879,0,1,0-2.637-2.678" transform="translate(-961.368 -148.269)" fill="#1a1311"/>
            <path id="Path_1920" data-name="Path 1920" d="M1280.026,153.748a2.293,2.293,0,1,0-2.293-2.293,2.293,2.293,0,0,0,2.293,2.293" transform="translate(-1003.436 -117.142)" fill="#1a1311"/>
            <path id="Path_1921" data-name="Path 1921" d="M1399.483,266.976a2.293,2.293,0,1,0,2.293,2.293,2.293,2.293,0,0,0-2.293-2.293" transform="translate(-1097.248 -209.664)" fill="#1a1311"/>
            <path id="Path_1922" data-name="Path 1922" d="M1281.67,386.434a2.293,2.293,0,1,0,2.293,2.293,2.293,2.293,0,0,0-2.293-2.293" transform="translate(-1004.727 -303.477)" fill="#1a1311"/>
            <path id="Path_1923" data-name="Path 1923" d="M1162.211,268.619a2.293,2.293,0,1,0,2.293,2.293,2.293,2.293,0,0,0-2.293-2.293" transform="translate(-910.913 -210.954)" fill="#1a1311"/>
            <g id="Rectangle_285" data-name="Rectangle 285" transform="translate(32.606 35.662)" fill="#fff" stroke="#707070" stroke-width="1">
              <rect width="51.948" height="49.155" stroke="none"/>
              <rect x="0.5" y="0.5" width="50.948" height="48.155" fill="none"/>
            </g>
            <path id="Path_1924" data-name="Path 1924" d="M199.6,212.206H147.657a1.155,1.155,0,0,1-1.156-1.155V161.9a1.156,1.156,0,0,1,1.156-1.155H199.6a1.155,1.155,0,0,1,1.155,1.155v49.155a1.155,1.155,0,0,1-1.155,1.155M148.812,209.9h49.637V163.052H148.812Z" transform="translate(-115.051 -126.235)" fill="#1a1311"/>
            <g id="Rectangle_286" data-name="Rectangle 286" transform="translate(49.936 48.442)" fill="#fff" stroke="#707070" stroke-width="1">
              <rect width="6.123" height="6.123" stroke="none"/>
              <rect x="0.5" y="0.5" width="5.123" height="5.123" fill="none"/>
            </g>
            <path id="Path_1925" data-name="Path 1925" d="M234.51,228.71h-6.123a1.156,1.156,0,0,1-1.156-1.156v-6.123a1.155,1.155,0,0,1,1.156-1.155h6.123a1.155,1.155,0,0,1,1.155,1.155v6.123a1.155,1.155,0,0,1-1.155,1.156m-4.968-2.311h3.813v-3.813h-3.813Z" transform="translate(-178.45 -172.989)" fill="#1a1311"/>
            <g id="Rectangle_287" data-name="Rectangle 287" transform="translate(61.1 48.442)" fill="#fff" stroke="#707070" stroke-width="1">
              <rect width="6.123" height="6.123" stroke="none"/>
              <rect x="0.5" y="0.5" width="5.123" height="5.123" fill="none"/>
            </g>
            <path id="Path_1926" data-name="Path 1926" d="M286.511,228.71h-6.123a1.156,1.156,0,0,1-1.156-1.156v-6.123a1.155,1.155,0,0,1,1.156-1.155h6.123a1.155,1.155,0,0,1,1.155,1.155v6.123a1.156,1.156,0,0,1-1.155,1.156m-4.968-2.311h3.812v-3.813h-3.812Z" transform="translate(-219.288 -172.989)" fill="#1a1311"/>
            <g id="Rectangle_288" data-name="Rectangle 288" transform="translate(72.263 48.442)" fill="#fff" stroke="#707070" stroke-width="1">
              <rect width="6.123" height="6.123" stroke="none"/>
              <rect x="0.5" y="0.5" width="5.123" height="5.123" fill="none"/>
            </g>
            <path id="Path_1927" data-name="Path 1927" d="M338.512,228.71h-6.123a1.155,1.155,0,0,1-1.155-1.156v-6.123a1.155,1.155,0,0,1,1.155-1.155h6.123a1.155,1.155,0,0,1,1.155,1.155v6.123a1.156,1.156,0,0,1-1.155,1.156m-4.968-2.311h3.812v-3.813h-3.812Z" transform="translate(-260.126 -172.989)" fill="#1a1311"/>
            <g id="Rectangle_289" data-name="Rectangle 289" transform="translate(38.773 60.84)" fill="#fff" stroke="#707070" stroke-width="1">
              <rect width="6.123" height="6.123" stroke="none"/>
              <rect x="0.5" y="0.5" width="5.123" height="5.123" fill="none"/>
            </g>
            <path id="Path_1928" data-name="Path 1928" d="M182.51,286.462h-6.123a1.155,1.155,0,0,1-1.155-1.155v-6.124a1.156,1.156,0,0,1,1.155-1.155h6.123a1.156,1.156,0,0,1,1.156,1.155v6.124a1.156,1.156,0,0,1-1.156,1.155m-4.968-2.311h3.812v-3.813h-3.812Z" transform="translate(-137.613 -218.343)" fill="#1a1311"/>
            <g id="Rectangle_290" data-name="Rectangle 290" transform="translate(49.936 60.84)" fill="#fff" stroke="#707070" stroke-width="1">
              <rect width="6.123" height="6.123" stroke="none"/>
              <rect x="0.5" y="0.5" width="5.123" height="5.123" fill="none"/>
            </g>
            <path id="Path_1929" data-name="Path 1929" d="M234.51,286.462h-6.123a1.156,1.156,0,0,1-1.156-1.155v-6.124a1.156,1.156,0,0,1,1.156-1.155h6.123a1.155,1.155,0,0,1,1.155,1.155v6.124a1.155,1.155,0,0,1-1.155,1.155m-4.968-2.311h3.813v-3.813h-3.813Z" transform="translate(-178.45 -218.343)" fill="#1a1311"/>
            <g id="Rectangle_291" data-name="Rectangle 291" transform="translate(61.1 60.84)" fill="#fff" stroke="#707070" stroke-width="1">
              <rect width="6.123" height="6.123" stroke="none"/>
              <rect x="0.5" y="0.5" width="5.123" height="5.123" fill="none"/>
            </g>
            <path id="Path_1930" data-name="Path 1930" d="M286.511,286.462h-6.123a1.156,1.156,0,0,1-1.156-1.155v-6.124a1.156,1.156,0,0,1,1.156-1.155h6.123a1.155,1.155,0,0,1,1.155,1.155v6.124a1.155,1.155,0,0,1-1.155,1.155m-4.968-2.311h3.812v-3.813h-3.812Z" transform="translate(-219.288 -218.343)" fill="#1a1311"/>
            <g id="Rectangle_292" data-name="Rectangle 292" transform="translate(72.263 60.84)" fill="#fff" stroke="#707070" stroke-width="1">
              <rect width="6.123" height="6.123" stroke="none"/>
              <rect x="0.5" y="0.5" width="5.123" height="5.123" fill="none"/>
            </g>
            <path id="Path_1931" data-name="Path 1931" d="M338.512,286.462h-6.123a1.155,1.155,0,0,1-1.155-1.155v-6.124a1.155,1.155,0,0,1,1.155-1.155h6.123a1.155,1.155,0,0,1,1.155,1.155v6.124a1.155,1.155,0,0,1-1.155,1.155m-4.968-2.311h3.812v-3.813h-3.812Z" transform="translate(-260.126 -218.343)" fill="#1a1311"/>
            <g id="Rectangle_293" data-name="Rectangle 293" transform="translate(38.773 73.238)" fill="#fff" stroke="#707070" stroke-width="1">
              <rect width="6.123" height="6.123" stroke="none"/>
              <rect x="0.5" y="0.5" width="5.123" height="5.123" fill="none"/>
            </g>
            <path id="Path_1932" data-name="Path 1932" d="M182.51,344.215h-6.123a1.155,1.155,0,0,1-1.155-1.155v-6.123a1.156,1.156,0,0,1,1.155-1.155h6.123a1.156,1.156,0,0,1,1.156,1.155v6.123a1.155,1.155,0,0,1-1.156,1.155m-4.968-2.311h3.812v-3.812h-3.812Z" transform="translate(-137.613 -263.698)" fill="#1a1311"/>
            <g id="Rectangle_294" data-name="Rectangle 294" transform="translate(49.936 73.238)" fill="#fff" stroke="#707070" stroke-width="1">
              <rect width="6.123" height="6.123" stroke="none"/>
              <rect x="0.5" y="0.5" width="5.123" height="5.123" fill="none"/>
            </g>
            <path id="Path_1933" data-name="Path 1933" d="M234.51,344.215h-6.123a1.155,1.155,0,0,1-1.156-1.155v-6.123a1.156,1.156,0,0,1,1.156-1.155h6.123a1.155,1.155,0,0,1,1.155,1.155v6.123a1.155,1.155,0,0,1-1.155,1.155m-4.968-2.311h3.813v-3.812h-3.813Z" transform="translate(-178.45 -263.698)" fill="#1a1311"/>
            <g id="Rectangle_295" data-name="Rectangle 295" transform="translate(61.1 73.238)" fill="#fff" stroke="#707070" stroke-width="1">
              <rect width="6.123" height="6.123" stroke="none"/>
              <rect x="0.5" y="0.5" width="5.123" height="5.123" fill="none"/>
            </g>
            <path id="Path_1934" data-name="Path 1934" d="M286.511,344.215h-6.123a1.155,1.155,0,0,1-1.156-1.155v-6.123a1.156,1.156,0,0,1,1.156-1.155h6.123a1.156,1.156,0,0,1,1.155,1.155v6.123a1.155,1.155,0,0,1-1.155,1.155m-4.968-2.311h3.812v-3.812h-3.812Z" transform="translate(-219.288 -263.698)" fill="#1a1311"/>
            <g id="Rectangle_296" data-name="Rectangle 296" transform="translate(72.263 73.238)" fill="#fff" stroke="#707070" stroke-width="1">
              <rect width="6.123" height="6.123" stroke="none"/>
              <rect x="0.5" y="0.5" width="5.123" height="5.123" fill="none"/>
            </g>
            <path id="Path_1935" data-name="Path 1935" d="M338.512,344.215h-6.123a1.155,1.155,0,0,1-1.155-1.155v-6.123a1.155,1.155,0,0,1,1.155-1.155h6.123a1.156,1.156,0,0,1,1.155,1.155v6.123a1.155,1.155,0,0,1-1.155,1.155m-4.968-2.311h3.812v-3.812h-3.812Z" transform="translate(-260.126 -263.698)" fill="#1a1311"/>
            <path id="Path_1936" data-name="Path 1936" d="M199.6,160.741H147.657A1.156,1.156,0,0,0,146.5,161.9v7.277a1.155,1.155,0,0,0,1.156,1.155H199.6a1.155,1.155,0,0,0,1.155-1.155V161.9a1.155,1.155,0,0,0-1.155-1.155" transform="translate(-115.051 -126.235)" fill="#1a1311"/>
            <path id="Path_1937" data-name="Path 1937" d="M210.717,169.822a2.564,2.564,0,1,0,2.564,2.564,2.567,2.567,0,0,0-2.564-2.564" transform="translate(-163.468 -133.366)" fill="#fff"/>
            <path id="Path_1938" data-name="Path 1938" d="M316.274,169.822a2.564,2.564,0,1,0,2.564,2.564,2.567,2.567,0,0,0-2.564-2.564" transform="translate(-246.364 -133.366)" fill="#fff"/>
            <path id="Path_1939" data-name="Path 1939" d="M525.2,16.252a8.1,8.1,0,0,1-.019-1.229q.017-.28.056-.559c.014-.1.1-.455,0-.038.025-.1.041-.208.065-.31a8.379,8.379,0,0,1,.348-1.134c.067-.173.147-.34.216-.512-.16.4-.026.058.02-.033s.1-.189.15-.283a10.721,10.721,0,0,1,.647-1.027q.166-.234.344-.46c.068-.087.138-.172.208-.257.026-.032.124-.144-.006.005-.147.169.018-.02.05-.057A15.564,15.564,0,0,1,529.121,8.6c.336-.274.684-.532,1.036-.785.062-.044.21-.127-.068.046.037-.023.072-.049.108-.073q.126-.086.254-.169.291-.191.589-.372a22.723,22.723,0,0,1,2.286-1.219c.391-.181.788-.35,1.188-.512q.3-.119.592-.234l.34-.13.128-.048c.172-.064.109-.05-.024.008a21.559,21.559,0,0,1,2.594-.844A41.006,41.006,0,0,1,543.471,3.1q.675-.1,1.352-.179.316-.037.633-.068c.06-.006.122-.009.181-.018,0,0-.27.024-.12.011l.408-.035q1.36-.109,2.725-.127a40.506,40.506,0,0,1,5.444.294c.427.052.852.111,1.276.18.054.009.39.067.154.025s.091.017.154.029q.311.058.621.124a21.794,21.794,0,0,1,2.447.666q.6.2,1.177.445l.268.115c.085.038.438.212.052.02.185.092.372.181.555.278a12.09,12.09,0,0,1,2.041,1.347c.254.209-.162-.147.013.011.08.072.161.144.239.218q.221.208.429.43a11.233,11.233,0,0,1,.777.943c.1.139-.15-.225-.054-.08l.069.1q.09.137.176.278.158.26.3.531t.259.548q.056.13.108.261l.044.113c.1.261-.071-.214-.021-.057.122.386.24.77.324,1.167q.063.3.109.6.022.14.039.281c.009.069.045.407.023.19s.006.1.009.151q.01.163.015.326.01.306,0,.612a11.906,11.906,0,0,1-.091,1.225q-.018.142-.039.284c-.015.1-.1.467-.006.05-.046.2-.08.4-.127.6q-.142.6-.342,1.181c-.141.409-.309.805-.483,1.2-.063.142.056-.118.055-.117-.031.052-.054.111-.081.166q-.072.144-.147.287-.171.326-.358.644a18.577,18.577,0,0,1-1.6,2.254c-.095.117.076-.087.076-.088-.042.044-.081.094-.121.14-.071.082-.143.162-.216.242q-.249.275-.508.541-.486.5-1,.967a25.7,25.7,0,0,1-2.148,1.736l-.238.17c-.05.035-.3.213-.133.094s-.092.062-.135.091q-.156.105-.313.208-.524.344-1.062.664a29.629,29.629,0,0,1-4.464,2.171l-.312.119-.118.044c-.164.062.252-.09.087-.032-.2.07-.394.14-.592.207q-.594.2-1.2.376-1.2.351-2.433.6t-2.474.4q-.311.037-.623.068l-.125.012c.348-.039.175-.016.1-.009l-.333.027q-.625.047-1.251.068a29.346,29.346,0,0,1-5-.256q-.31-.043-.62-.093c-.1-.015-.192-.04-.289-.048.023,0,.337.061.108.019l-.164-.03c-.452-.084-.9-.176-1.345-.3-.213-.059-.425-.126-.632-.2-.118-.044-.234-.092-.349-.141-.035-.015-.187-.078-.007,0,.2.085-.044-.027-.087-.051a5.129,5.129,0,0,1-.545-.356c-.218-.159.054.045.049.046a1.047,1.047,0,0,1-.123-.116q-.105-.1-.2-.218c-.056-.066-.106-.135-.159-.2-.1-.132.155.244.071.1-.019-.032-.039-.062-.058-.093a5,5,0,0,1-.262-.524c-.093-.207.092.284.005.011q-.039-.123-.071-.249a5.847,5.847,0,0,1-.108-.586c-.034-.229.018.3,0,.01q-.007-.132-.007-.264a5.26,5.26,0,0,1,.035-.6c.008-.064.055-.36.013-.123s.016-.064.029-.12a5.2,5.2,0,0,1,.17-.58q.044-.124.094-.245c.022-.054.047-.106.069-.16.059-.141-.058.121-.057.12.14-.185.229-.432.355-.63q.169-.267.362-.519a2.93,2.93,0,0,0,.226-.283s-.179.2-.078.092c.051-.056.1-.114.152-.169a13.553,13.553,0,0,1,2.084-1.785c.061-.044.214-.132-.063.043.035-.023.07-.048.1-.071l.246-.164q.282-.186.57-.363.54-.332,1.1-.632a22.663,22.663,0,0,1,2.294-1.074c.183-.073.367-.144.552-.213.221-.084-.066.033-.084.031a.746.746,0,0,0,.159-.057l.32-.11q.6-.2,1.212-.37a23.325,23.325,0,0,1,2.476-.54q.626-.1,1.256-.168c.052-.006.388-.039.163-.017s.1-.008.164-.012q.337-.026.674-.042a22.762,22.762,0,0,1,2.533.021q.632.041,1.261.118.294.036.586.079l.292.046c.054.009.244.043.031,0-.237-.043.043.008.072.014a17.961,17.961,0,0,1,2.766.731q.315.112.625.239.154.063.308.131l.174.078c.172.074-.31-.153-.024-.011a12.356,12.356,0,0,1,1.24.7q.279.182.545.38.133.1.263.2l.148.12c.144.116-.225-.2-.024-.018a9.53,9.53,0,0,1,.836.858q.181.214.349.44c.024.032.047.065.071.1.1.138-.152-.229-.058-.085.059.089.118.178.175.269a7.975,7.975,0,0,1,.555,1.059c.037.085.071.171.105.257.083.207-.034-.078-.036-.1a.878.878,0,0,0,.051.15q.092.281.16.57t.111.58c.008.054.041.374.021.139s.005.111.008.18q.011.3-.006.592-.008.139-.023.277-.007.067-.016.134c0,.019-.051.329-.013.105s-.033.141-.046.194q-.044.184-.1.365c-.068.226-.148.449-.238.668-.042.1-.1.2-.133.3.124-.354-.012.013-.059.1q-.169.316-.363.618a12.879,12.879,0,0,1-.857,1.164c-.118.146.163-.183.037-.044l-.1.109q-.128.144-.261.285-.245.26-.5.509-.437.426-.9.823t-.953.762c-.163.122-.332.235-.494.358-.007.005.236-.161.115-.08l-.135.091q-.135.091-.272.179a19.76,19.76,0,0,1-2.126,1.2q-.55.266-1.115.5-.264.109-.53.21c-.305.115.2-.069-.022.009-.115.041-.23.081-.346.12a20,20,0,0,1-2.357.638q-.6.123-1.2.209-.282.04-.565.072c-.094.011-.189.018-.283.03.416-.052-.008,0-.1.006a18.96,18.96,0,0,1-2.44.024c-.2-.011-.393-.024-.589-.042-.111-.01-.222-.021-.333-.036a.871.871,0,0,1-.19-.027l.166.028q-.07-.014-.14-.031c-.107-.025-.214-.055-.319-.09a1.063,1.063,0,0,0-.176-.066c.008,0,.242.132.113.055-.094-.056-.187-.116-.281-.172-.184-.109.11.1.109.1a.517.517,0,0,1-.118-.113c-.053-.055-.1-.114-.148-.171-.139-.164.16.28.036.042-.034-.067-.071-.132-.1-.2-.017-.037-.03-.083-.049-.119.035.064.093.316.047.107-.016-.074-.038-.147-.053-.223s-.043-.331-.021-.089,0-.036,0-.094c0-.1,0-.2.012-.3a.773.773,0,0,1,.028-.237s-.08.366-.024.153c.009-.033.015-.067.023-.1.045-.179.12-.345.174-.52.044-.143-.09.2-.083.17a.665.665,0,0,1,.062-.121q.056-.1.12-.2c.042-.066.087-.131.134-.194a1.309,1.309,0,0,0,.105-.134c.01.044-.218.242-.031.043a4.779,4.779,0,0,1,.429-.4c.076-.063.154-.122.232-.182.191-.148-.06.054-.075.049.026.008.155-.1.178-.116a8.661,8.661,0,0,1,1.139-.594c.184-.081.371-.158.559-.231l.282-.107c.071-.027.237-.073-.08.029.054-.018.107-.039.161-.058q.65-.231,1.307-.441c.881-.281,1.773-.528,2.676-.724q.675-.147,1.357-.251.34-.052.681-.091a2,2,0,0,1,.318-.034c-.031,0-.311.025-.074.008l.182-.014a14.5,14.5,0,0,1,2.715.052q.18.021.359.047c.053.008.4.064.181.027-.208-.035.117.024.18.037q.178.037.356.08a9.682,9.682,0,0,1,1.108.336q.26.1.515.209l.1.045c.2.09-.112-.053-.124-.059.086.049.179.088.266.133a9.9,9.9,0,0,1,.961.57q.232.156.455.324.1.079.206.16l.115.094c.142.114-.064-.053-.094-.082.271.252.544.5.794.771s.461.565.688.852c-.009-.011-.189-.282-.072-.1l.06.091q.069.106.135.214.149.246.28.5.113.223.212.453c.036.085.064.182.107.264.008.015-.1-.29-.057-.155.017.056.039.112.057.169a6.585,6.585,0,0,1,.244,1.037c.012.082.018.166.032.248.027.164-.021-.3-.012-.133,0,.036.005.071.007.107q.017.289.006.577c-.006.171-.019.342-.041.512a1.2,1.2,0,0,0-.02.146c0-.013.07-.354.024-.138-.02.1-.04.19-.064.285q-.062.246-.147.486-.048.137-.1.27l-.042.1c-.091.21.023-.02.048-.1a3.65,3.65,0,0,1-.561.928q-.075.1-.154.2l-.092.113c-.09.114.121-.138.108-.126-.138.137-.263.287-.4.423-.267.257-.569.462-.849.7.013-.011.281-.187.1-.071l-.093.06q-.109.07-.22.135-.254.15-.519.28-.231.113-.471.209a1.448,1.448,0,0,0-.137.054c.014-.008.319-.111.115-.043-.093.031-.185.062-.279.09a6.771,6.771,0,0,1-1.033.225l-.108.014c-.214.029.115-.01.13-.01-.084,0-.169.012-.253.016q-.271.012-.542,0c-.168-.008-.337-.022-.5-.044-.018,0-.143-.018-.143-.021s.307.059.176.031c-.083-.018-.165-.033-.248-.053a5.543,5.543,0,0,1-1.035-.363l.72,2.01c.039-.065.079-.129.123-.191.03-.043.177-.222.028-.045s.015-.008.041-.033c.045-.044.092-.086.14-.127a.953.953,0,0,0,.148-.117q-.254.171-.125.089c.032-.021.064-.04.1-.059.085-.049.279-.1.34-.167-.046.053-.3.1-.072.029.06-.018.121-.035.183-.05s.148-.029.223-.043c.228-.041-.246.006-.083.006.127,0,.25,0,.377.008a.628.628,0,1,0-.093-.024c.067.026.151.035.221.056s.12.04.179.063c.217.085-.02.011-.085-.044.091.077.222.128.321.2q.046.033.09.069.121.1-.12-.1a.878.878,0,0,0,.135.132c.044.046.086.093.127.141.024.029.166.232.041.04s0,.005.027.049c.039.065.075.132.109.2s.051.115.078.173c.068.146-.089-.295-.029-.073.033.122.059.244.083.368.049.26,0-.311-.005-.046,0,.076,0,.151,0,.227a1.342,1.342,0,0,0,2.682.1,4,4,0,0,0-7.426-2.29A1.339,1.339,0,0,0,553,42.073a1.407,1.407,0,0,0,.845.822c3.306,1.528,7.352-.054,9.451-2.829a7.159,7.159,0,0,0,1.343-5.15,8.646,8.646,0,0,0-2.073-4.541,11.2,11.2,0,0,0-4.205-3.034,12.971,12.971,0,0,0-5.611-.892,23.8,23.8,0,0,0-5.933,1.1c-.978.3-1.956.632-2.9,1.022a8.344,8.344,0,0,0-2.536,1.546,4.7,4.7,0,0,0-1.237,5.3c.929,2.076,3.456,2.213,5.431,2.2A21.237,21.237,0,0,0,555.947,34.8a20.314,20.314,0,0,0,4.307-3.287,10.8,10.8,0,0,0,3.249-5.847c.62-3.967-2.228-7.65-5.626-9.324a21.487,21.487,0,0,0-11.723-1.766A23.867,23.867,0,0,0,535.9,18.15a12.874,12.874,0,0,0-4.482,4.248,6.637,6.637,0,0,0-.5,5.739,4.932,4.932,0,0,0,1.9,2.28,8.511,8.511,0,0,0,3.022,1.107,30.849,30.849,0,0,0,5.539.608,31.434,31.434,0,0,0,10.65-1.677,30.751,30.751,0,0,0,9.74-5.405c3.007-2.507,5.606-5.878,6.344-9.8a12.749,12.749,0,0,0-.117-5.672A10.539,10.539,0,0,0,565.2,4.754C562.446,2.078,558.649.932,554.935.4A41.706,41.706,0,0,0,543.24.435a40.99,40.99,0,0,0-5.6,1.188,38.194,38.194,0,0,0-5.588,2.039,22.454,22.454,0,0,0-4.83,3.028,14.023,14.023,0,0,0-3.549,4.213,9.563,9.563,0,0,0-1.154,5.247,1.48,1.48,0,0,0,.345.951,1.342,1.342,0,0,0,1.9.1,1.292,1.292,0,0,0,.441-.945" transform="translate(-410.322 -0.004)" fill="#1a1311"/>
          </g>
        </g>
      </g>
    </g>
    <path id="Path_2123" data-name="Path 2123" d="M74.131,0V74.131H0Z" transform="translate(439.699 1485.645)" fill="#275696"/>
    <text id="_" data-name="" transform="translate(492.83 1550.776)" fill="#fff" font-size="27" font-family="SegoeUI, Segoe UI"><tspan x="-11.648" y="0"></tspan></text>
    <g id="Rectangle_317" data-name="Rectangle 317" transform="translate(140.5 1330.606)" fill="none" stroke="#325691" stroke-width="4">
      <rect width="373.33" height="229.17" stroke="none"/>
      <rect x="2" y="2" width="369.33" height="225.17" fill="none"/>
    </g>
  </g>
</svg>
