<svg xmlns="http://www.w3.org/2000/svg" xmlns:xlink="http://www.w3.org/1999/xlink" width="499" height="306.313" viewBox="0 0 499 306.313">
  <defs>
    <clipPath id="clip-path">
      <rect id="Rectangle_315" data-name="Rectangle 315" width="499" height="306.313" transform="translate(0 0)" fill="#eaeaea"/>
    </clipPath>
    <clipPath id="clip-path-2">
      <rect id="Rectangle_314" data-name="Rectangle 314" width="499.361" height="291.321" fill="none"/>
    </clipPath>
    <clipPath id="clip-path-3">
      <rect id="Rectangle_34" data-name="Rectangle 34" width="96.31" height="100.291" fill="none"/>
    </clipPath>
  </defs>
  <g id="Group_198" data-name="Group 198" transform="translate(-929.347 -1330.606)">
    <g id="Path_2124" data-name="Path 2124" transform="translate(929.347 1330.606)" fill="#fff">
      <path d="M 496.9996032714844 304.3128662109375 L 1.999989151954651 304.3128662109375 L 1.999989151954651 1.999995589256287 L 496.9996032714844 1.999995589256287 L 496.9996032714844 304.3128662109375 Z" stroke="none"/>
      <path d="M 4 3.999969482421875 L 4 302.3128356933594 L 494.9996032714844 302.3128356933594 L 494.9996032714844 3.999969482421875 L 4 3.999969482421875 M 0 -3.0517578125e-05 L 498.9996032714844 -3.0517578125e-05 L 498.9996032714844 306.3128356933594 L 0 306.3128356933594 L 0 -3.0517578125e-05 Z" stroke="none" fill="#325691"/>
    </g>
    <g id="Mask_Group_35" data-name="Mask Group 35" transform="translate(929.347 1330.606)" clip-path="url(#clip-path)">
      <g id="Group_136" data-name="Group 136" transform="translate(0 28.77)">
        <path id="Path_2030" data-name="Path 2030" d="M824.511,285.2l-9.2-4.466-9.432,19.495,9.316,4.36" transform="translate(-603.533 -209.886)" fill="#fff"/>
        <g id="Group_135" data-name="Group 135" transform="translate(0 0)">
          <g id="Group_134" data-name="Group 134" transform="translate(0 0)" clip-path="url(#clip-path-2)">
            <path id="Path_2031" data-name="Path 2031" d="M810.335,301.365a1.641,1.641,0,0,0,.7-3.126l-7.811-3.655,7.993-16.52,7.721,3.749a1.64,1.64,0,1,0,1.433-2.951l-9.2-4.466a1.641,1.641,0,0,0-2.193.761l-9.432,19.495a1.641,1.641,0,0,0,.782,2.2l9.316,4.359a1.633,1.633,0,0,0,.694.155" transform="translate(-598.672 -205.026)" fill="#1a1311"/>
            <path id="Path_2032" data-name="Path 2032" d="M1033.543,758.22a24.252,24.252,0,0,0,23.561,21.307h48.323A19.02,19.02,0,0,0,1124.7,758.22L1118,691.777a24.252,24.252,0,0,0-23.561-21.307h-48.323a19.02,19.02,0,0,0-19.268,21.307Z" transform="translate(-959.561 -501.271)" fill="#fff"/>
            <path id="Path_2033" data-name="Path 2033" d="M1052.241,776.307h48.323a20.659,20.659,0,0,0,20.9-23.112l-6.694-66.443a25.882,25.882,0,0,0-25.193-22.783h-48.323a20.66,20.66,0,0,0-20.9,23.112l6.694,66.443a25.882,25.882,0,0,0,25.193,22.782m37.336-109.057a22.614,22.614,0,0,1,21.929,19.831l6.694,66.443a17.381,17.381,0,0,1-17.636,19.5h-48.323a22.613,22.613,0,0,1-21.929-19.831h0l-6.694-66.443a17.381,17.381,0,0,1,17.636-19.5Zm-60.9,86.11h0Z" transform="translate(-954.698 -496.411)" fill="#1a1311"/>
            <path id="Path_2034" data-name="Path 2034" d="M688.25,359.735c-.674-.21-18.222,55.094-16.374,64,1.738,8.374,12.581,62.291,13.244,63.789s-32.689,3.546-47.684,2.411a412.245,412.245,0,0,1-47.941-6.251s-.1-31.1.233-32.184a38.077,38.077,0,0,1-14.792-9.863c-3.19-2.351,5.337-73.513,6.4-80.893.946-6.561,2.438-21.922,11.913-28.171,6.291-4.149,23.114-7.044,23.009-7.129-1.544-1.246,22.574-6.429,42.178-3.41,9.745,1.5,16.055-6.525,24.954-3.613,4.8,1.57,22.356,5.17,22.356,5.17l-24.2-14.246,12.858-23.254s10.253,5.367,22.227,11.465c18.318,9.329,40.8,22.065,37.838,33.2-4.4,16.541-66.224,28.973-66.224,28.973" transform="translate(-475.299 -213.896)" fill="#04427d"/>
            <path id="Path_2035" data-name="Path 2035" d="M643.409,487.044c6.127,0,12.75-.22,18.138-.5,5.012-.264,9.631-.614,13.006-.985,5.773-.634,6.495-1.112,7-1.824a1.747,1.747,0,0,0,.2-1.671c-.658-2.031-7.12-33.826-10.6-50.932-1.2-5.9-2.147-10.567-2.566-12.584-.686-3.308,1.8-15.438,6.828-33.281,3.855-13.686,7.88-26.056,9.039-28.942,3.344-.7,16.978-3.679,30.867-8.17a137.577,137.577,0,0,0,22.838-9.3c7.611-4.143,11.865-8.239,13-12.524,1.522-5.722-2.249-11.939-11.529-19.008-7.917-6.029-18.668-11.76-27.149-16.08-11.829-6.024-22.109-11.4-22.211-11.457a1.64,1.64,0,0,0-2.2.66l-12.858,23.254a1.64,1.64,0,0,0,.6,2.207l15.493,9.122c-4.818-1.062-10.054-2.28-12.31-3.018-5.21-1.705-9.583-.07-13.811,1.511-3.7,1.383-7.189,2.689-11.4,2.04-10.941-1.684-22.449-.75-28.335-.043a97.133,97.133,0,0,0-10.279,1.744c-3.294.779-4.48,1.364-5.005,1.917l-.294.06c-4.177.856-16.886,3.459-22.426,7.112-9.46,6.239-11.4,20.318-12.435,27.883-.07.51-.135.987-.2,1.424-.583,4.044-2.989,23.912-4.805,42.406-3.7,37.633-2.151,39.15-.98,40.017.071.066.242.243.394.4a38.933,38.933,0,0,0,13.681,9.247c-.075,1.8-.138,5.847-.158,15.413-.016,7.825.009,15.617.009,15.695a1.64,1.64,0,0,0,1.306,1.6,418.3,418.3,0,0,0,48.152,6.281c3.114.236,6.944.332,10.989.332m34.886-5.316c-5.793,1.141-32.016,2.743-45.627,1.713a429.209,429.209,0,0,1-46.429-5.964c-.032-11.513-.006-28.853.2-30.477a1.64,1.64,0,0,0-1.018-1.891,35.521,35.521,0,0,1-13.626-8.909c-.221-.229-.381-.395-.521-.526-.356-1.1-1-7.047,2.154-38.761,1.789-17.993,4.094-36.993,4.643-40.793.064-.444.13-.927.2-1.446.969-7.049,2.772-20.17,10.991-25.591,3.325-2.193,10.484-4.426,21.278-6.637,1.332-.273,1.987-.407,2.3-1.107,3.473-1.444,23.469-5.159,40.456-2.543,5.061.779,9.307-.809,13.052-2.209,4.037-1.51,7.523-2.814,11.642-1.466,4.832,1.581,21.816,5.07,22.536,5.218a1.64,1.64,0,0,0,1.162-3.021l-22.821-13.436,11.31-20.455c3.228,1.683,11.55,6.01,20.823,10.731,10.918,5.56,39.921,20.33,37,31.32-1.625,6.107-13.577,13.047-33.656,19.542-15.1,4.885-29.909,7.958-31.213,8.225a1.674,1.674,0,0,0-.9.423c-.381.345-.74.671-3.7,9.857-1.946,6.047-4.139,13.316-6.018,19.943-3.833,13.524-8.183,30.7-7.138,35.74.417,2.01,1.364,6.67,2.563,12.571,6.4,31.5,9.3,45.5,10.354,49.947m.342,1.336a2.544,2.544,0,0,0,.09.264,1.583,1.583,0,0,1-.09-.264M681.728,482c.005.011.011.025.017.041l-.017-.041m-95.3-34.977c-.009.044-.02.077-.028.1.01-.034.02-.068.028-.1M569.069,438.1h0m2.248-2.306ZM683.589,356.5a1.609,1.609,0,0,1-.72-.058,1.641,1.641,0,0,0,.72.058" transform="translate(-470.407 -209.035)" fill="#1a1311"/>
            <path id="Path_2036" data-name="Path 2036" d="M927.508,346.323s.429,17.967-4.674,25.062-4.683,6.963-4.683,6.963,18.646,25.418,28.428,24.567c12.766-1.11,15.672-21.267,15.672-21.267s-5.692.729-10.35-9.393-.407-23.139-.407-23.139" transform="translate(-769.603 -258.926)" fill="#fff"/>
            <path id="Path_2037" data-name="Path 2037" d="M941.22,399.717c.216,0,.428-.009.637-.027,5.848-.508,10.682-4.662,13.978-12.013a44.441,44.441,0,0,0,3.176-10.654,1.629,1.629,0,0,0-.444-1.417,1.572,1.572,0,0,0-1.371-.447,5.184,5.184,0,0,1-2.7-.853c-1.544-.907-3.831-2.96-5.964-7.6-4.339-9.429-.378-21.82-.338-21.944a1.64,1.64,0,1,0-3.118-1.019c-.182.556-4.395,13.75.476,24.334,2.083,4.528,4.651,7.64,7.632,9.25a9.588,9.588,0,0,0,2.267.888c-1,4.635-4.58,17.394-13.874,18.2-1.982.173-6.773-1.084-16.525-11.434-4.529-4.807-8.369-9.737-9.819-11.646.513-.8,1.634-2.466,4.074-5.859,5.362-7.456,5-25.3,4.982-26.059a1.64,1.64,0,0,0-1.639-1.6h-.04a1.641,1.641,0,0,0-1.6,1.678c0,.174.355,17.5-4.365,24.066-1.975,2.746-3.369,4.751-4.142,5.958-.67,1.046-1.249,1.949-.545,2.922q.036.049.074.095a152.3,152.3,0,0,0,10.613,12.673c7.912,8.4,14,12.5,18.581,12.5" transform="translate(-764.74 -254.066)" fill="#1a1311"/>
            <path id="Path_2038" data-name="Path 2038" d="M949.1,471.638s-48.941,2.156-47.455,1.737S934.767,543.7,934.767,543.7s20.275-33.734,18.383-42.472-5.79-26.313-4.046-29.592" transform="translate(-756.456 -352.616)" fill="#fff"/>
            <path id="Path_2039" data-name="Path 2039" d="M957.8,529.561l.078,0a1.64,1.64,0,0,0,1.4-.924c6.22-12.869,7.7-31.016,7.839-43.972.083-7.529-.262-13.985-.567-18.075-.563-7.574-.914-8.1-1.083-8.35a1.658,1.658,0,0,0-1.467-.73,1.642,1.642,0,0,0-1.449,2.185,182.345,182.345,0,0,1,1.273,25.833c-.178,11.423-1.441,27.058-6.275,38.923-2.135-3.308-6.211-9.4-11.506-16.24-7.609-9.835-14.345-49.443-14.412-49.841a1.641,1.641,0,0,0-3.236.545c.28,1.662,6.943,40.822,15.053,51.3a222.79,222.79,0,0,1,12.949,18.554,1.641,1.641,0,0,0,1.4.791m6.391-68.779a1.611,1.611,0,0,1-1.374-.611,1.639,1.639,0,0,0,1.374.611" transform="translate(-777.057 -341.671)" fill="#1a1311"/>
            <path id="Path_2040" data-name="Path 2040" d="M981.42,479.163l-17.224.187,6.513,10.037,8.215.387Z" transform="translate(-800.394 -358.242)" fill="#1a1311"/>
            <path id="Path_2041" data-name="Path 2041" d="M944.366,520.062s7.657,22.816,10.3,35.664l-9.733,21.247L933.29,559.21s2.8-33.051,2.861-39.535Z" transform="translate(-765.836 -388.531)" fill="#1a1311"/>
            <path id="Path_2042" data-name="Path 2042" d="M974.955,452.906c-.088-.51,2.559-23.075,2.559-23.075l12.71-4.628s6.314,23.513,9.96,31.753c4.4,9.944,16.873,52.03,16.873,52.03s-10.576-14.252-18.038-21.939S980.06,463.9,980.06,463.9l7.186-6.539c-7.605-2.886-12.292-4.459-12.292-4.459" transform="translate(-838.746 -317.9)" fill="#04427d"/>
            <path id="Path_2043" data-name="Path 2043" d="M1012.187,505.767a1.641,1.641,0,0,0,1.572-2.107c-.51-1.723-12.554-42.3-16.945-52.227-3.553-8.03-9.813-31.281-9.876-31.515a1.64,1.64,0,0,0-2.145-1.116l-12.71,4.628a1.64,1.64,0,0,0-1.068,1.35c-2.674,22.8-2.6,23.247-2.546,23.543a1.64,1.64,0,0,0,1.095,1.278c.041.014,3.714,1.25,9.727,3.5l-5.2,4.735a1.641,1.641,0,0,0-.212,2.192c.472.635,11.647,15.631,19.1,23.307,7.3,7.52,17.792,21.632,17.9,21.773a1.64,1.64,0,0,0,1.318.663m-27.948-83.272c1.54,5.625,6.457,23.22,9.575,30.265,3.09,6.985,10.331,30.415,14.221,43.25-3.7-4.711-8.629-10.762-12.709-14.964-6.109-6.293-15.09-18.035-17.928-21.792l6.082-5.534a1.64,1.64,0,0,0-.522-2.747c-5.334-2.024-9.273-3.417-11.142-4.066.332-3.384,1.479-13.391,2.339-20.74Zm-14.154,25.551h0Z" transform="translate(-833.875 -313.04)" fill="#1a1311"/>
            <path id="Path_2044" data-name="Path 2044" d="M879.953,452.133c-1.607-10.342-4.644-25-4.644-25l10.544-.75,11.446,19.19-9.421,7.369s9.1,4.807,9.08,5.217a113.922,113.922,0,0,1-7.066,21.594c-4.073,8.61-18.8,30.115-18.8,30.115s11.356-41.7,8.865-57.734" transform="translate(-692.777 -318.78)" fill="#04427d"/>
            <path id="Path_2045" data-name="Path 2045" d="M866.227,506.648a1.64,1.64,0,0,0,1.354-.713c.6-.883,14.852-21.712,18.934-30.341a111.747,111.747,0,0,0,7.222-22.219c.053-1.121-.8-1.63-2.207-2.473-.769-.459-1.836-1.066-3.172-1.8-.813-.448-1.631-.893-2.345-1.278L893.45,442a1.64,1.64,0,0,0,.4-2.132L882.4,420.682a1.639,1.639,0,0,0-1.525-.8l-10.544.75a1.641,1.641,0,0,0-1.49,1.969c.03.146,3.047,14.739,4.629,24.921,2.409,15.5-8.715,56.637-8.827,57.051a1.64,1.64,0,0,0,1.582,2.071m24.068-52.661a116.425,116.425,0,0,1-6.745,20.2c-2.419,5.114-8.768,15.011-13.393,22.014,3.213-13.326,8.367-37.542,6.558-49.183h0c-1.26-8.11-3.418-18.973-4.283-23.246l7.671-.546,10.188,17.081-8.282,6.479a1.64,1.64,0,0,0,.245,2.742c3.129,1.653,6.593,3.559,8.042,4.455" transform="translate(-687.917 -313.921)" fill="#1a1311"/>
            <path id="Path_2046" data-name="Path 2046" d="M945.381,423.281l-7.265-4.667s-.288,9.634-7.464,15.45L943.8,446.326s3.889-13.705,1.585-23.045" transform="translate(-756.62 -312.974)" fill="#fff"/>
            <path id="Path_2047" data-name="Path 2047" d="M938.928,443.107a1.64,1.64,0,0,0,1.578-1.193c.164-.577,3.981-14.235,1.6-23.886a1.643,1.643,0,0,0-.706-.987l-7.265-4.667a1.64,1.64,0,0,0-2.526,1.331c0,.086-.375,8.971-6.857,14.224a1.641,1.641,0,0,0-.086,2.474l13.144,12.262a1.641,1.641,0,0,0,1.119.441m.135-23.667c1.34,6.346-.128,14.71-1.063,18.918l-9.786-9.129a23.739,23.739,0,0,0,6.351-12.678Z" transform="translate(-751.751 -308.114)" fill="#1a1311"/>
            <path id="Path_2048" data-name="Path 2048" d="M1019.02,422.306l-13.8,12.157c-.26.093-5.306-7.338-7.885-12.68-2.682-5.554-5.58-11.965-5.423-11.982l6.813-6.914s8.338,8.377,11.682,11.528,8.61,7.89,8.61,7.89" transform="translate(-844.988 -301.215)" fill="#fff"/>
            <path id="Path_2049" data-name="Path 2049" d="M1000.325,431.259a1.759,1.759,0,0,0,.594-.111,1.645,1.645,0,0,0,.535-.314l13.8-12.157a1.64,1.64,0,0,0,.013-2.45c-.052-.047-5.29-4.763-8.582-7.865s-11.561-11.408-11.644-11.492a1.641,1.641,0,0,0-1.163-.483h0a1.64,1.64,0,0,0-1.164.489l-6.782,6.884a1.631,1.631,0,0,0-.3.387c-.422.758-.176,1.337.361,2.6.3.7.735,1.691,1.264,2.859,1.11,2.453,2.515,5.454,3.758,8.027a88.676,88.676,0,0,0,4.91,8.552c.781,1.214,1.541,2.343,2.141,3.18.743,1.036,1.356,1.891,2.268,1.891M1011.7,417.43l-11.133,9.811a92.421,92.421,0,0,1-6.608-11.031c-2.172-4.5-4.23-9.018-5.006-10.854l4.925-5c2.421,2.425,7.941,7.933,10.55,10.392,2.279,2.147,5.474,5.054,7.271,6.682" transform="translate(-840.133 -296.355)" fill="#1a1311"/>
            <path id="Path_2050" data-name="Path 2050" d="M972.824,787.375a3.678,3.678,0,1,0,3.847-3.5,3.678,3.678,0,0,0-3.847,3.5" transform="translate(-801.327 -586.053)" fill="#fff"/>
            <path id="Path_2051" data-name="Path 2051" d="M971.643,788.006a5.33,5.33,0,1,0-.256-.006c.086,0,.171.006.256.006m-.007-7.357.1,0a2.034,2.034,0,1,1-.1,0" transform="translate(-796.465 -581.192)" fill="#1a1311"/>
            <rect id="Rectangle_313" data-name="Rectangle 313" width="499.361" height="46.93" transform="translate(0 242.751)" fill="#fff"/>
            <path id="Path_2052" data-name="Path 2052" d="M2,1005.637H497.36a1.848,1.848,0,0,0,2-1.64v-46.93a1.848,1.848,0,0,0-2-1.64H2a1.849,1.849,0,0,0-2,1.64V1004a1.848,1.848,0,0,0,2,1.64m493.356-3.281H4V958.708H495.358Z" transform="translate(0 -714.316)" fill="#1a1311"/>
            <path id="Path_2053" data-name="Path 2053" d="M521.594,970.227,400.736,981.151l-42.388-8.779v-6.011Z" transform="translate(-187.676 -722.491)" fill="#e0e0e0"/>
            <path id="Path_2054" data-name="Path 2054" d="M395.876,977.932c.049,0,.1,0,.148-.007L516.882,967a1.64,1.64,0,0,0-.109-3.274l-163.246-3.866a1.64,1.64,0,0,0-1.679,1.64v6.011a1.64,1.64,0,0,0,1.308,1.606l42.388,8.78a1.646,1.646,0,0,0,.333.034m92.035-11.606-91.94,8.311-40.843-8.459v-3Z" transform="translate(-182.816 -717.631)" fill="#1a1311"/>
            <line id="Line_83" data-name="Line 83" x1="30.927" y1="6.714" transform="translate(179.896 245.905)" fill="#e0e0e0"/>
            <path id="Path_2055" data-name="Path 2055" d="M873.428,978.736a1.224,1.224,0,0,0,.258-2.42L842.76,969.6a1.224,1.224,0,0,0-.519,2.392l30.927,6.714a1.223,1.223,0,0,0,.261.028" transform="translate(-662.605 -724.893)" fill="#1a1311"/>
            <path id="Path_2056" data-name="Path 2056" d="M823.577,867.148c.781-.266,5.513.629,8.875-.136s18.407-2.458,22.262-1.907,10.041,4.691,12.584,7.429c2.931,3.156,8.683,13.1,6.945,14.677s-7.335-3.795-7.335-3.795,4.829,8.565,3.112,9.754c-4.329,3-9.836-8.224-9.836-8.224s5.227,8.891,2.744,9.737c-4.131,1.406-9.5-6.175-9.5-6.175s4.451,6.184.943,7.435c-1.789.638-9.472-6.79-10.359-7.571s-5.416-.07-10.166-1.218-8.034-3.181-8.192-3.742-10.081-.984-9.528-.958-4.939-11.087,7.454-15.307" transform="translate(-655.981 -646.706)" fill="#fff"/>
            <path id="Path_2057" data-name="Path 2057" d="M848.724,892.424a2.511,2.511,0,0,0,.856-.149,3.7,3.7,0,0,0,2.369-2.4c.02-.063.037-.127.054-.191,1.876,1.264,4.026,2.05,6.111,1.34a2.711,2.711,0,0,0,1.687-1.661c.034-.09.065-.185.094-.289a6.586,6.586,0,0,0,1.934.883,4.538,4.538,0,0,0,3.829-.673c1.622-1.124,1.289-3.393.438-5.762a3.634,3.634,0,0,0,3.973-.348,2.94,2.94,0,0,0,.913-2.136c.071-1.7-.884-4.365-2.839-7.917a40.725,40.725,0,0,0-4.911-7.215c-2.7-2.908-9.205-7.356-13.662-7.994-4.153-.594-19.5,1.155-22.925,1.935a23.6,23.6,0,0,1-6.2.128,7.783,7.783,0,0,0-2.859.06c-5.026,1.711-8.084,4.688-9.09,8.848a16.156,16.156,0,0,0,.335,7.787c.017.067.035.139.052.208a1.824,1.824,0,0,0-.006.3,1.846,1.846,0,0,0,1.757,1.714h.051c2.014.078,7,.387,8.475.663,1.788,1.808,6.462,3.41,8.852,3.987a35.456,35.456,0,0,0,7.271.809,19.907,19.907,0,0,1,2.278.149l.386.357c6.4,5.932,9.076,7.568,10.777,7.568m-2.145-8.187c1.22,1.72,2.013,3.745,1.917,4.436-.8-.345-2.86-1.665-8.07-6.493-.29-.269-.5-.465-.614-.563-.9-.8-2.223-.84-4.408-.913a31.936,31.936,0,0,1-6.535-.709,20.979,20.979,0,0,1-7.044-2.913c-.6-1.094-2.21-1.266-6.274-1.561-.029,0-1.821-.128-3.292-.206-.976-4.224-.955-9.228,6.37-11.781.288-.009.99.04,1.564.08a26.353,26.353,0,0,0,7.262-.211c3.5-.8,18.144-2.374,21.6-1.88,2.663.381,8.495,3.623,11.505,6.865,2.447,2.635,6.019,9.01,6.679,11.662a20.664,20.664,0,0,1-4.469-3.337,1.824,1.824,0,0,0-2.853,2.212,30.368,30.368,0,0,1,3.229,7.538,1.074,1.074,0,0,1-.4-.037c-1.595-.415-3.727-3.152-5.249-5.7-.616-1.195-1.112-2.042-1.142-2.093a1.824,1.824,0,0,0-3.211,1.728c.026.054.45.912,1.146,2.089a21.646,21.646,0,0,1,2.058,5.19c-.98-.05-2.338-.823-3.846-2.21a24.654,24.654,0,0,1-2.977-3.348l-.021-.029a1.824,1.824,0,0,0-2.969,2.12l.044.061m-28.084-5.71a1.944,1.944,0,0,0,.264.546,1.747,1.747,0,0,1-.264-.546m0,0h0m3.51-1v0m-11.338-2.272c-.076,0-.141,0-.19,0a1.8,1.8,0,0,1,.33-.015v.012h-.14m8.1-11.768h0Z" transform="translate(-650.579 -641.319)" fill="#1a1311"/>
            <path id="Path_2058" data-name="Path 2058" d="M907.994,930.474a49.7,49.7,0,0,0-3.778-6.091c-1.23-1.351-3.53-2.2-5.082-3.257" transform="translate(-710.55 -688.671)" fill="#fff"/>
            <path id="Path_2059" data-name="Path 2059" d="M902.59,926.893a1.825,1.825,0,0,0,1.605-2.689,48.231,48.231,0,0,0-4.035-6.454,13.386,13.386,0,0,0-3.669-2.533c-.643-.346-1.25-.673-1.733-1a1.824,1.824,0,0,0-2.056,3.014,23.2,23.2,0,0,0,2.059,1.2,11.03,11.03,0,0,1,2.7,1.777,45.011,45.011,0,0,1,3.52,5.727,1.825,1.825,0,0,0,1.609.96" transform="translate(-705.143 -683.266)" fill="#1a1311"/>
            <path id="Path_2060" data-name="Path 2060" d="M881.655,916.846c-1.371-2.282-3.357-5.271-4.878-6.265-2.031-1.328-4.42-2.918-4.42-2.918" transform="translate(-677.453 -678.605)" fill="#fff"/>
            <path id="Path_2061" data-name="Path 2061" d="M876.252,913.266a1.824,1.824,0,0,0,1.562-2.764c-3.259-5.425-4.9-6.5-5.444-6.853-2-1.308-4.383-2.894-4.407-2.909a1.824,1.824,0,1,0-2.022,3.037c.024.016,2.418,1.61,4.433,2.927.348.227,1.688,1.309,4.312,5.678a1.823,1.823,0,0,0,1.565.885" transform="translate(-672.047 -673.201)" fill="#1a1311"/>
            <path id="Path_2062" data-name="Path 2062" d="M852.512,906.9c-1.739-2.3-4.626-6.377-5.663-7.9s-4.871-3.8-4.871-3.8" transform="translate(-640.644 -669.286)" fill="#fff"/>
            <path id="Path_2063" data-name="Path 2063" d="M847.11,903.32a1.825,1.825,0,0,0,1.453-2.925c-1.783-2.356-4.645-6.407-5.609-7.828-1.2-1.774-4.751-3.932-5.45-4.346a1.824,1.824,0,0,0-1.862,3.138,19.37,19.37,0,0,1,4.293,3.257c.983,1.448,3.9,5.577,5.718,7.979a1.822,1.822,0,0,0,1.457.724" transform="translate(-635.24 -663.88)" fill="#1a1311"/>
            <path id="Path_2064" data-name="Path 2064" d="M1030.3,685.827l-1.611,34.2,41.351,9s-6.41,7.21-8.413,14.27a34.393,34.393,0,0,0-.388,16.888s-61.157-8.419-64.334-19.693" transform="translate(-897.27 -512.753)" fill="#04427d"/>
            <path id="Path_2065" data-name="Path 2065" d="M1055.9,756.65a1.8,1.8,0,0,0,1.737-2.285,32.914,32.914,0,0,1,.386-15.914c1.868-6.586,7.964-13.494,8.025-13.563a1.8,1.8,0,0,0-.964-2.96l-39.863-8.68,1.54-32.679a1.8,1.8,0,1,0-3.6-.17l-1.612,34.2a1.8,1.8,0,0,0,1.417,1.846l38.485,8.379c-2.141,2.791-5.5,7.7-6.9,12.64a36.728,36.728,0,0,0-.917,15.228c-4.971-.747-16.6-2.6-28.338-5.23-27.352-6.129-31.488-10.993-32-12.8a1.8,1.8,0,1,0-3.47.978c.912,3.237,4.878,6.106,12.481,9.027a164.835,164.835,0,0,0,22.219,6.317c15.58,3.49,30.97,5.624,31.124,5.646a1.811,1.811,0,0,0,.246.017" transform="translate(-891.93 -507.411)" fill="#1a1311"/>
            <path id="Path_2066" data-name="Path 2066" d="M1074.666,942.048a1.841,1.841,0,1,0,2.087-1.558,1.842,1.842,0,0,0-2.087,1.558" transform="translate(-925.178 -703.134)" fill="#1a1311"/>
            <path id="Path_2067" data-name="Path 2067" d="M1102.511,938.015a1.841,1.841,0,1,0,2.086-1.558,1.842,1.842,0,0,0-2.086,1.558" transform="translate(-960.05 -700.119)" fill="#1a1311"/>
            <path id="Path_2068" data-name="Path 2068" d="M792.9,312.535a1.841,1.841,0,1,0,2.086-1.558,1.841,1.841,0,0,0-2.086,1.558" transform="translate(-572.3 -232.485)" fill="#1a1311"/>
            <path id="Path_2069" data-name="Path 2069" d="M766.958,325.5a1.841,1.841,0,1,0,2.086-1.558,1.841,1.841,0,0,0-2.086,1.558" transform="translate(-539.816 -242.181)" fill="#1a1311"/>
            <line id="Line_84" data-name="Line 84" x1="10.081" y1="2.206" transform="translate(123.985 205.528)" fill="#04427d"/>
            <path id="Path_2070" data-name="Path 2070" d="M1155.5,813.412a1.641,1.641,0,0,0,.349-3.243l-10.081-2.207a1.64,1.64,0,0,0-.7,3.205l10.08,2.206a1.637,1.637,0,0,0,.352.038" transform="translate(-1021.435 -604.037)" fill="#1a1311"/>
            <path id="Path_2071" data-name="Path 2071" d="M992.2,866.8c1.432-.111,6.187,1.183,6.187,1.183s-5.7,3.715-6.9,10.08,1.355,13.86,1.355,13.86l-7.889-1.705s-1.766-8.13-.127-14.052c2.086-7.54,7.371-9.367,7.371-9.367" transform="translate(-822.394 -648.047)" fill="#fff"/>
            <path id="Path_2072" data-name="Path 2072" d="M987.442,888.344a1.824,1.824,0,0,0,1.727-2.411c-.023-.069-2.375-7.133-1.289-12.937,1.036-5.534,6.048-8.854,6.1-8.887a1.824,1.824,0,0,0-.516-3.289c-1.187-.323-5.193-1.367-6.807-1.242a1.821,1.821,0,0,0-.456.095c-.253.087-6.217,2.236-8.532,10.6-1.739,6.283.026,14.575.1,14.925a1.824,1.824,0,0,0,1.4,1.4l7.889,1.705a1.821,1.821,0,0,0,.385.041m1.644-24.821a17.451,17.451,0,0,0-4.791,8.8,30.392,30.392,0,0,0,.6,11.778l-3.765-.814c-.391-2.353-1.095-7.874.058-12.038,1.571-5.675,5.057-7.611,5.981-8.033a15.919,15.919,0,0,1,1.921.306" transform="translate(-816.99 -642.648)" fill="#1a1311"/>
            <path id="Path_2073" data-name="Path 2073" d="M294.85,792.6a2.3,2.3,0,0,0,2.34,2.973H409.871a4.093,4.093,0,0,0,3.779-2.973l17.3-71.485a2.3,2.3,0,0,0-2.34-2.973H315.929a4.094,4.094,0,0,0-3.779,2.973Z" transform="translate(-81.07 -536.909)" fill="#e0e0e0"/>
            <path id="Path_2074" data-name="Path 2074" d="M292.333,792.35H405.015a5.731,5.731,0,0,0,5.373-4.228l17.3-71.485a3.936,3.936,0,0,0-3.934-5H311.073a5.731,5.731,0,0,0-5.373,4.228L288.4,787.35a3.936,3.936,0,0,0,3.934,5m131.421-77.432a.68.68,0,0,1,.745.947L407.2,787.35a2.465,2.465,0,0,1-2.184,1.719H292.333a.679.679,0,0,1-.745-.947l17.3-71.485a2.465,2.465,0,0,1,2.185-1.719Z" transform="translate(-76.214 -532.049)" fill="#1a1311"/>
            <path id="Path_2075" data-name="Path 2075" d="M507.276,860.165c0,2.921,3.826,5.29,8.545,5.29s8.546-2.368,8.546-5.29-3.826-5.29-8.546-5.29-8.545,2.368-8.545,5.29" transform="translate(-228.033 -639.139)" fill="#fff"/>
            <line id="Line_85" data-name="Line 85" x1="92.983" transform="translate(241.399 185.826)" fill="#e0e0e0"/>
            <path id="Path_2076" data-name="Path 2076" d="M352.884,733.955h92.983a1.224,1.224,0,1,0,0-2.448H352.884a1.224,1.224,0,0,0,0,2.448" transform="translate(-111.485 -546.905)" fill="#1a1311"/>
            <line id="Line_86" data-name="Line 86" x1="14.446" y2="62.057" transform="translate(221.256 190.913)" fill="#e0e0e0"/>
            <path id="Path_2077" data-name="Path 2077" d="M743.912,816.168a1.225,1.225,0,0,0,1.191-.947l14.446-62.057a1.224,1.224,0,1,0-2.384-.555l-14.446,62.057a1.225,1.225,0,0,0,1.193,1.5" transform="translate(-522.655 -561.975)" fill="#1a1311"/>
            <path id="Path_2078" data-name="Path 2078" d="M814.482,145.307c4.832,1.856,4.081-4.3,4.081-4.3-.763,4.571.532,11.818-2.435,12.743,0,.344,0,.691-.016,1.048-.552,15.321-14.123,23.441-14.123,23.441l-1.983-39.906s12.835-5.594,14.476,6.977" transform="translate(-596.145 -102.495)" fill="#1a1311"/>
            <path id="Path_2079" data-name="Path 2079" d="M799.628,176.674a.791.791,0,0,0,.406-.112,32.886,32.886,0,0,0,7.043-6.132,28.923,28.923,0,0,0,7.464-17.959c.006-.18.011-.364.014-.56,2.007-1.14,2.066-4.6,2.13-8.251.011-.638.022-1.285.044-1.918a8.23,8.23,0,0,0,.258-3.185.791.791,0,0,0-1.565-.035,23.851,23.851,0,0,0-.265,2.915,1.828,1.828,0,0,1-.547.813,1.942,1.942,0,0,1-1.776.114c-.553-3.492-2.03-5.939-4.392-7.276-4.616-2.613-10.85.051-11.113.166a.79.79,0,0,0-.474.764l1.983,39.906a.792.792,0,0,0,.79.752M815.1,143.8c-.053,3.029-.137,6.393-1.568,6.839a.791.791,0,0,0-.555.756c0,.384,0,.708-.016,1.019-.436,12.119-9.406,19.7-12.612,22.024l-1.885-37.929c1.487-.536,5.962-1.882,9.2-.043,2.013,1.141,3.247,3.359,3.669,6.59a.79.79,0,0,0,.5.636,4.029,4.029,0,0,0,3.263.107m-2.98-.845h0Z" transform="translate(-593.784 -100.142)" fill="#1a1311"/>
            <path id="Path_2080" data-name="Path 2080" d="M901.15,161.74c-.045,7.557-4.531,20.77-7.6,30.772-7.706,25.112-18.5,28.578-31.255,25.471-14.993-3.652-24.866-14.385-26.939-32.219-1.028-8.848-.163-23.738,4.651-32.773s26.494-20.94,40.707-13.836,20.516,8.933,20.436,22.586" transform="translate(-687.514 -102.421)" fill="#fff"/>
            <path id="Path_2081" data-name="Path 2081" d="M864.627,215.722a19.186,19.186,0,0,0,11.25-3.4c5.929-4.08,10.63-11.992,14.372-24.188.411-1.338.847-2.734,1.294-4.166,2.971-9.509,6.338-20.288,6.378-27.077.08-13.523-5.931-16.478-17.906-22.364-1.09-.536-2.235-1.1-3.437-1.7-15.189-7.592-37.774,4.934-42.888,14.532-5.272,9.894-5.779,25.595-4.833,33.734,1.052,9.055,4.083,16.56,9.008,22.306a35.69,35.69,0,0,0,19.172,11.317,32.16,32.16,0,0,0,7.59,1m30.014-58.848c-.037,6.3-3.327,16.828-6.229,26.118-.449,1.438-.887,2.839-1.3,4.182-7.9,25.754-18.751,26.927-29.3,24.358-14.89-3.627-23.776-14.283-25.7-30.815-1.083-9.322.115-23.64,4.469-31.813,2.3-4.309,8.729-9.222,16.007-12.225,11.606-4.788,19.091-2.628,22.519-.915,1.209.6,2.361,1.17,3.457,1.709,11.745,5.773,16.14,7.933,16.072,19.4" transform="translate(-682.645 -97.564)" fill="#1a1311"/>
            <path id="Path_2082" data-name="Path 2082" d="M858.849,139.335s-10.28-28.221,14.9-40.643c16.745-8.261,47.35,1.334,46.184,12.939-.155,1.542-9.949.488-21.255,14.4a9.257,9.257,0,0,1-1.763-7.692s-6.748,4.99-14.854,5.116c-9.578.148-11.022,7.253-11.967,8.97s-3.9,13.223-3.9,13.223-3.139-7.555-5.758-7.455-1.589,1.144-1.589,1.144" transform="translate(-711.832 -71.469)" fill="#1a1311"/>
            <path id="Path_2083" data-name="Path 2083" d="M863.85,144.082a.537.537,0,0,0,.057,0,.791.791,0,0,0,.71-.592c1.178-4.586,3.169-11.843,3.828-13.037a11.075,11.075,0,0,0,.47-1.047c1.069-2.584,3.06-7.395,10.817-7.515a28.717,28.717,0,0,0,13.874-4.322,9.715,9.715,0,0,0,2.149,6.644.78.78,0,0,0,.606.255.79.79,0,0,0,.589-.292c8.059-9.915,15.274-12.064,18.742-13.1,1.616-.481,2.591-.772,2.686-1.721.345-3.435-1.736-6.821-6.018-9.79-9.69-6.719-29.035-9.989-41.3-3.938-13.346,6.583-16.792,17.575-17.333,25.636a43.543,43.543,0,0,0,1.791,15.243,1.458,1.458,0,0,0,.427,1.028.791.791,0,0,0,1.311-.812,4.794,4.794,0,0,1,.871-.1h.026c1.281,0,3.572,3.6,4.972,6.969a.791.791,0,0,0,.73.487m30.722-28.89a.79.79,0,0,0-.47.155c-.066.048-6.652,4.842-14.4,4.961-8.8.136-11.219,5.991-12.254,8.491-.154.372-.287.693-.394.888-.739,1.341-2.493,7.776-3.414,11.262-1.226-2.448-3.38-5.986-5.582-5.9a5.871,5.871,0,0,0-1.278.167,42.622,42.622,0,0,1-1.48-13.894,27.846,27.846,0,0,1,16.452-24.271c5.406-2.667,12.775-3.612,20.75-2.661,7.265.866,14.349,3.289,18.951,6.48,2.594,1.8,5.606,4.664,5.361,8.159a11.876,11.876,0,0,1-1.579.536c-3.525,1.05-10.759,3.2-18.862,12.823a8.819,8.819,0,0,1-1.027-6.258.792.792,0,0,0-.778-.934" transform="translate(-709.487 -69.115)" fill="#1a1311"/>
            <path id="Path_2084" data-name="Path 2084" d="M943.836,402.315a14.367,14.367,0,0,1,8.515-1.407,6.4,6.4,0,0,1,5.229,3.3" transform="translate(-771.417 -299.662)" fill="#fff"/>
            <path id="Path_2085" data-name="Path 2085" d="M952.78,401.024a1.621,1.621,0,0,0,1.477-2.286,8.019,8.019,0,0,0-6.541-4.242,15.962,15.962,0,0,0-9.534,1.641,1.62,1.62,0,0,0,1.7,2.762,13.1,13.1,0,0,1,7.505-1.179,4.838,4.838,0,0,1,3.918,2.348,1.621,1.621,0,0,0,1.479.956" transform="translate(-766.615 -294.863)" fill="#1a1311"/>
            <path id="Path_2086" data-name="Path 2086" d="M1096.574,260.9c-4.669-2.75-10.5-1.017-11.081,3.67-.924,7.484,4.658,14.276,10.221,14.2" transform="translate(-946.133 -194.076)" fill="#fff"/>
            <path id="Path_2087" data-name="Path 2087" d="M1090.76,275.545h.112a1.64,1.64,0,0,0-.044-3.28,7.679,7.679,0,0,1-5.593-2.86,12.183,12.183,0,0,1-2.978-9.5,3.742,3.742,0,0,1,2.172-2.979,7.011,7.011,0,0,1,6.448.521,1.64,1.64,0,0,0,1.665-2.826,10.216,10.216,0,0,0-9.563-.638A7.049,7.049,0,0,0,1079,259.5a15.509,15.509,0,0,0,3.791,12.091,10.979,10.979,0,0,0,7.969,3.952" transform="translate(-941.269 -189.213)" fill="#1a1311"/>
            <path id="Path_2088" data-name="Path 2088" d="M909.033,320.979c1.909,7.089,3.275,11.737,3.275,11.737l-5.906,2.1" transform="translate(-716.697 -239.978)" fill="#fff"/>
            <path id="Path_2089" data-name="Path 2089" d="M901.6,331.639a1.615,1.615,0,0,0,.544-.094l5.906-2.1a1.62,1.62,0,0,0,1.011-1.983c-.014-.046-1.384-4.715-3.265-11.7a1.62,1.62,0,1,0-3.129.842c1.27,4.716,2.309,8.385,2.859,10.3l-4.469,1.592a1.621,1.621,0,0,0,.543,3.148" transform="translate(-711.896 -235.176)" fill="#1a1311"/>
            <path id="Path_2090" data-name="Path 2090" d="M1092.913,293.861a4.374,4.374,0,0,0-2.425-3.528" transform="translate(-943.758 -217.066)" fill="#fff"/>
            <path id="Path_2091" data-name="Path 2091" d="M1088.111,290.68l.083,0a1.62,1.62,0,0,0,1.537-1.7,5.979,5.979,0,0,0-3.157-4.8,1.62,1.62,0,0,0-1.773,2.713c1.107.724,1.643,1.245,1.693,2.253a1.621,1.621,0,0,0,1.617,1.539" transform="translate(-938.958 -212.264)" fill="#1a1311"/>
            <path id="Path_2092" data-name="Path 2092" d="M963.76,141.128a1.213,1.213,0,0,0,.185-.014c6.329-.962,12.566-5.728,16.685-9.557a1.224,1.224,0,0,0-1.667-1.793c-7,6.512-12.233,8.451-15.386,8.93a1.224,1.224,0,0,0,.182,2.434" transform="translate(-799.577 -96.774)" fill="#fff"/>
            <path id="Path_2093" data-name="Path 2093" d="M941.647,152.112a1.24,1.24,0,0,0,.224-.021c6.292-1.165,12.362-6.129,16.347-10.089a1.224,1.224,0,1,0-1.725-1.736c-6.776,6.733-11.933,8.838-15.067,9.418a1.224,1.224,0,0,0,.221,2.427" transform="translate(-771.554 -104.604)" fill="#fff"/>
            <path id="Path_2094" data-name="Path 2094" d="M864.179,238.743s-4.041-2.31-4.829-5.4" transform="translate(-656.694 -174.461)" fill="#fff"/>
            <path id="Path_2095" data-name="Path 2095" d="M859.376,235.562a1.621,1.621,0,0,0,.807-3.027c-.961-.555-3.561-2.421-4.064-4.39a1.621,1.621,0,0,0-3.14.8,9.538,9.538,0,0,0,3.217,4.677,16.6,16.6,0,0,0,2.378,1.724,1.616,1.616,0,0,0,.8.214" transform="translate(-651.893 -169.66)" fill="#1a1311"/>
            <line id="Line_87" data-name="Line 87" x2="7.385" y2="2.014" transform="translate(229.384 109.518)" fill="#04427d"/>
            <path id="Path_2096" data-name="Path 2096" d="M745.835,432.773a1.641,1.641,0,0,0,.431-3.223l-7.385-2.014a1.64,1.64,0,0,0-.863,3.165l7.385,2.014a1.645,1.645,0,0,0,.432.058" transform="translate(-509.065 -319.6)" fill="#1a1311"/>
            <path id="Path_2097" data-name="Path 2097" d="M1194.082,201.593c-2.486-2.189-8.727-7.144-10.508-2.308-1.824,4.951,9.082,5.089,9.082,5.089" transform="translate(-1068.367 -147.463)" fill="#fff"/>
            <path id="Path_2098" data-name="Path 2098" d="M1188.912,201.9a1.264,1.264,0,0,0,.016-2.528c-2.667-.037-6.866-.732-7.849-2.163a1.214,1.214,0,0,1-.063-1.225c.33-.9.76-1.1,1.054-1.173.527-.134,2.624-.241,7.433,3.992a1.264,1.264,0,1,0,1.67-1.9c-4.1-3.611-7.373-5.141-9.724-4.546a4.033,4.033,0,0,0-2.805,2.75,3.7,3.7,0,0,0,.353,3.533c2.112,3.07,9.108,3.247,9.9,3.257h.016" transform="translate(-1064.622 -143.722)" fill="#1a1311"/>
            <path id="Path_2099" data-name="Path 2099" d="M1204.052,261.57c-3.269-.535-11.187-1.421-10.13,3.623,1.083,5.164,10.4-.509,10.4-.509" transform="translate(-1081.244 -195.246)" fill="#fff"/>
            <path id="Path_2100" data-name="Path 2100" d="M1193.048,264.861c3.382,0,7.623-2.512,8.184-2.853a1.264,1.264,0,1,0-1.314-2.159c-2.28,1.385-6.206,3.025-7.8,2.334a1.214,1.214,0,0,1-.7-1,1.559,1.559,0,0,1,.271-1.554c.376-.393,2.1-1.6,8.418-.562a1.264,1.264,0,1,0,.408-2.495c-5.394-.882-8.978-.442-10.653,1.31a4.034,4.034,0,0,0-.918,3.82,3.705,3.705,0,0,0,2.175,2.806,4.855,4.855,0,0,0,1.934.358" transform="translate(-1077.498 -191.49)" fill="#1a1311"/>
            <path id="Path_2101" data-name="Path 2101" d="M1030.525,319.911c-1.421,2.644-4.512,9.17.123,9.748,4.744.592,2.625-9.061,2.625-9.061" transform="translate(-868.868 -239.179)" fill="#fff"/>
            <path id="Path_2102" data-name="Path 2102" d="M1027.659,327.437a3.271,3.271,0,0,0,2.5-1.072c1.02-1.118,1.461-3.079,1.309-5.827a24.889,24.889,0,0,0-.469-3.579,1.146,1.146,0,0,0-2.238.491c.515,2.361.765,6.21-.3,7.372a1.1,1.1,0,0,1-1.069.307c-.858-.107-1.125-.445-1.252-.689-.6-1.17.143-3.929,2-7.38a1.145,1.145,0,1,0-2.018-1.084c-2.344,4.363-3.021,7.564-2.014,9.516a3.656,3.656,0,0,0,3,1.911,4.423,4.423,0,0,0,.548.035" transform="translate(-865.474 -235.785)" fill="#1a1311"/>
            <path id="Path_2103" data-name="Path 2103" d="M820.459,542.9s3.763-10.079,4.349-11.816" transform="translate(-607.508 -397.059)" fill="#04427d"/>
            <path id="Path_2104" data-name="Path 2104" d="M815.6,539.678a1.641,1.641,0,0,0,1.537-1.067c.154-.412,3.779-10.124,4.366-11.866a1.64,1.64,0,0,0-3.109-1.049c-.571,1.692-4.293,11.666-4.331,11.767a1.642,1.642,0,0,0,1.536,2.214" transform="translate(-602.647 -392.198)" fill="#1a1311"/>
            <path id="Path_2105" data-name="Path 2105" d="M505.558,123.017h.015a3.135,3.135,0,0,0,2.349-.993c.245.009.491.007.737-.008a5.775,5.775,0,0,0,4.425-2.586q.06-.1.113-.2,1.174.214,2.457.345a9.854,9.854,0,0,0,5.051-.5,5.216,5.216,0,0,0,3.01-3.567l.406.072c3.075.538,7.454.9,9.961-2.159a6.129,6.129,0,0,0,1.114-2.1q1.54.175,3.088.269a7.71,7.71,0,0,0,5.288-1.1,5.574,5.574,0,0,0,1.945-5.454,9.115,9.115,0,0,0,4.543-3.193,9.946,9.946,0,0,0,.915-9.165,19.747,19.747,0,0,0-5.117-7.146A44.267,44.267,0,0,0,508.714,74.12c-5.7.951-9.477,3.191-11.231,6.658a11.375,11.375,0,0,0,.385,10.167,20.554,20.554,0,0,0,4.487,5.69,13.417,13.417,0,0,0,.349,4.194,9.966,9.966,0,0,0-2.178,4.611,9.7,9.7,0,0,0,.453,4.846,8.291,8.291,0,0,0-.094,7.167,7.709,7.709,0,0,0,1.064,1.634,3.963,3.963,0,0,0,.622,2.384,3.59,3.59,0,0,0,2.987,1.546m4.7-4.506a3.2,3.2,0,0,1-1.765.74,5.426,5.426,0,0,1-3.433-1.04,2.006,2.006,0,0,1,.172-.225,3.819,3.819,0,0,1,1.525-.993,17.735,17.735,0,0,0,3.5,1.517M521,114.978a2.423,2.423,0,0,1-1.4,1.565,7.468,7.468,0,0,1-3.659.28q-1.286-.131-2.44-.352a3.6,3.6,0,0,0-.137-.365c-1.033-2.348-3.888-2.634-6.019-2.164l-.165.038q-.184-.13-.361-.265a9.738,9.738,0,0,1-2.707-3.194q.057-.069.117-.134a6.231,6.231,0,0,1,3.222-1.8,21.55,21.55,0,0,0,4.541,3.237A34.621,34.621,0,0,0,521,114.978m-16.74.207a5.868,5.868,0,0,0-.982.834,5.3,5.3,0,0,1-.382-2.293,12.637,12.637,0,0,0,1.363,1.459m28.134-4.251a3.215,3.215,0,0,1-.453.737c-1.208,1.474-3.54,1.851-7.341,1.186q-.693-.121-1.411-.258a8.439,8.439,0,0,0-2.6-2.5,24.6,24.6,0,0,0-8.656-4.243,12.188,12.188,0,0,0-3.516-.226,13.444,13.444,0,0,1-2.575-4.066,9.41,9.41,0,0,1,1.39-1.005,60.026,60.026,0,0,0,25.164,10.378m-20.122-2.142a19.173,19.173,0,0,1,4.552,2.141,25.633,25.633,0,0,1-3.525-1.55q-.528-.284-1.027-.591m30.523-3.174a2.85,2.85,0,0,1-.888,2.656c-.776.584-1.942.644-3.456.552q-1.5-.09-2.984-.261a8.157,8.157,0,0,0-.72-2.676,13.164,13.164,0,0,0-4.808-5.208,27.153,27.153,0,0,0-15.148-4.671h-.068a18.771,18.771,0,0,0-7.208,1.313q-.746-.568-1.473-1.162c-.244-.2-.5-.408-.751-.626a8.521,8.521,0,0,1,2.206-4.274c2.1-2.133,6.465-4.127,15.335-1.512,9.118,2.688,15.444,6.9,18.8,12.515.123.205.239.418.346.635a16.878,16.878,0,0,1-4.208-.284,1.385,1.385,0,0,0-.5,2.724,19.233,19.233,0,0,0,5.519.278m-28-6.838a24.354,24.354,0,0,1,13.587,4.19,10.542,10.542,0,0,1,3.853,4.079,5.444,5.444,0,0,1,.369,1.112,57.271,57.271,0,0,1-22.308-8.854,17.857,17.857,0,0,1,4.438-.527h.061m-9.394,7.544a8.954,8.954,0,0,0-2.2,1.246,6.281,6.281,0,0,1,.056-1.662,6.659,6.659,0,0,1,.653-1.918,16.284,16.284,0,0,0,1.487,2.334m10.2-30a41.565,41.565,0,0,1,28.354,11.209,17.163,17.163,0,0,1,4.428,6.1,7.163,7.163,0,0,1-.558,6.583,6.345,6.345,0,0,1-3.048,2.126,11.93,11.93,0,0,0-.758-1.5c-3.728-6.232-10.591-10.858-20.4-13.749-5.621-1.658-13.323-2.617-18.09,2.225a10.92,10.92,0,0,0-2.5,4.084A15.967,15.967,0,0,1,500.34,89.7a8.617,8.617,0,0,1-.386-7.669c.918-1.813,3.261-4.183,9.216-5.176a39.02,39.02,0,0,1,6.422-.527" transform="translate(-252.607 -54.996)" fill="#1a1311"/>
            <path id="Path_2106" data-name="Path 2106" d="M1052.426,179.52a149.672,149.672,0,0,0-5.51,17.021c-5.985,23.4-1.96,38.765.439,42.013,0,0-5.859-4.345-6.838-7-2.314-6.28-1.954-20.611-.316-33.142.555-4.251,4.362-18.67,4.362-18.67Z" transform="translate(-890.247 -134.217)" fill="#bdbebf"/>
            <path id="Path_2107" data-name="Path 2107" d="M1042.544,235.367a1.624,1.624,0,0,0,1.307-2.589c-2.1-2.838-6.031-17.743-.173-40.646a149.116,149.116,0,0,1,5.442-16.814,1.624,1.624,0,0,0-1.551-2.233l-7.863.222a1.624,1.624,0,0,0-1.524,1.209c-.156.593-3.839,14.569-4.4,18.874-1.461,11.178-2.231,26.767.4,33.915,1.091,2.96,6.351,6.97,7.395,7.743a1.619,1.619,0,0,0,.967.32m2.681-58.966a153.04,153.04,0,0,0-4.693,14.927,90.1,90.1,0,0,0-2.97,29.092,52.95,52.95,0,0,0,1.172,7.824,7.381,7.381,0,0,1-1.5-2.063c-1.969-5.343-2.062-18.351-.23-32.37.445-3.4,3.1-13.78,4.015-17.291Z" transform="translate(-885.436 -129.406)" fill="#1a1311"/>
            <path id="Path_2108" data-name="Path 2108" d="M854.529,81.6s13.464-1.91,14.68-5.671-5.3-10.761-5.3-10.761,9.254-37.566-27.488-46.836c-42.094-10.621-50.148,30.891-50.148,30.891a7.987,7.987,0,0,0-3.855,7.351,6.935,6.935,0,0,0,4.474,6.337,23.827,23.827,0,0,1,2.165-4.109c.873-1.037,7.041-1.242,11.283-.858,4.529.41,22.769,5.314,24.762,6.1s10.171.1,16.375,1.524c5.183,1.192,11.1,2.478,15.937,5.332-.841,3.269-2.886,10.7-2.886,10.7" transform="translate(-642.457 -12.41)" fill="#04427d"/>
            <path id="Path_2109" data-name="Path 2109" d="M849.7,78.411a1.615,1.615,0,0,0,.228-.016,66.233,66.233,0,0,0,7.078-1.465c5.381-1.449,8.215-3.138,8.919-5.314.674-2.084-.107-4.763-2.387-8.19a36.8,36.8,0,0,0-2.7-3.532,51.044,51.044,0,0,0-.14-19.823C858.53,30,851.782,16.937,831.994,11.945c-13.054-3.294-24.281-2.037-33.368,3.736C785.12,24.262,780.818,39.908,780,43.416a9.493,9.493,0,0,0-4.029,8.454,8.525,8.525,0,0,0,5.618,7.781,1.625,1.625,0,0,0,1.972-.923,23.583,23.583,0,0,1,1.823-3.582c.981-.441,5.521-.8,9.981-.4,4.36.394,22.365,5.225,24.309,6,1.08.429,2.794.5,5.982.6a57.962,57.962,0,0,1,10.628,1l.611.14c4.506,1.034,9.566,2.194,13.8,4.416-.938,3.557-2.544,9.392-2.562,9.458a1.624,1.624,0,0,0,1.565,2.055m-31.146-65A51.762,51.762,0,0,1,831.2,15.094c8.06,2.034,14.446,5.645,18.98,10.735a32.347,32.347,0,0,1,7.352,14.928,47.8,47.8,0,0,1-.024,19.21,1.623,1.623,0,0,0,.388,1.495c2.364,2.545,5.571,7.214,4.943,9.155-.02.062-.557,1.526-6.646,3.17-1.531.414-3.046.737-4.248.968.676-2.473,1.688-6.2,2.217-8.259a1.624,1.624,0,0,0-.748-1.8c-4.866-2.87-10.669-4.2-15.789-5.376l-.609-.14A60.414,60.414,0,0,0,825.762,58.1a27.05,27.05,0,0,1-4.885-.372c-2.24-.889-20.635-5.8-25.214-6.212a50.392,50.392,0,0,0-7.15-.107c-3.927.239-4.995.911-5.522,1.537a15.464,15.464,0,0,0-1.687,2.9,5.551,5.551,0,0,1-2.089-4.187,6.329,6.329,0,0,1,3.01-5.815,1.625,1.625,0,0,0,.818-1.117c.034-.174,3.582-17.582,17.347-26.312a33.254,33.254,0,0,1,18.168-5" transform="translate(-637.632 -7.594)" fill="#1a1311"/>
            <path id="Path_2110" data-name="Path 2110" d="M875.293,46.453s.1-11.926-.524-18.448C873.637,16.071,868.685,12,868.685,12s-1.648-2-9.017-3.767a62.357,62.357,0,0,0-12.963-1.79s5.883,6.355,6.4,12.975c.572,7.282-2.023,19.9-2.25,20.508" transform="translate(-664.623 -4.816)" fill="#04427d"/>
            <path id="Path_2111" data-name="Path 2111" d="M870.48,43.266a1.624,1.624,0,0,0,1.624-1.611c0-.49.089-12.084-.531-18.614-1.1-11.642-5.77-16.3-6.562-17.016-.578-.608-2.857-2.522-9.776-4.185A63.484,63.484,0,0,0,841.9,0h-.005A1.624,1.624,0,0,0,840.7,2.732c.054.059,5.507,6.034,5.975,12,.528,6.72-1.814,18.634-2.168,19.857a1.624,1.624,0,0,0,3.058,1.093c.29-.776,2.946-13.6,2.349-21.2-.336-4.28-2.656-8.369-4.5-11A66.725,66.725,0,0,1,854.476,5c6.081,1.462,7.942,3.043,8.162,3.248a.853.853,0,0,0,.2.195c.033.028,4.458,3.93,5.5,14.908.6,6.365.517,18.162.516,18.281a1.624,1.624,0,0,0,1.611,1.637h.013m-25.957-8.723-.013.034.013-.034m18.1-26.323Z" transform="translate(-659.81 -0.005)" fill="#1a1311"/>
            <path id="Path_2112" data-name="Path 2112" d="M858.381,130.163c-.521,2.164,2.457,4.736,6.65,5.744s8.015.071,8.535-2.093-2.457-4.736-6.651-5.744-8.015-.071-8.535,2.093" transform="translate(-665.882 -95.448)" fill="#fff"/>
            <path id="Path_2113" data-name="Path 2113" d="M861.952,181.478c-3.848-2.313-18.429-6.912-30.989-7.111" transform="translate(-647.303 -130.365)" fill="#04427d"/>
            <path id="Path_2114" data-name="Path 2114" d="M857.14,178.291a1.624,1.624,0,0,0,.838-3.016c-3.966-2.384-18.786-7.136-31.8-7.342h-.026a1.624,1.624,0,0,0-.025,3.248c12.694.2,26.907,4.912,30.178,6.879a1.617,1.617,0,0,0,.835.232" transform="translate(-642.493 -125.554)" fill="#1a1311"/>
            <path id="Path_2115" data-name="Path 2115" d="M802.835,230.4c1,.531,6.329,2.967,7.767,4.167" transform="translate(-588.855 -172.261)" fill="#04427d"/>
            <path id="Path_2116" data-name="Path 2116" d="M805.791,231.384a1.624,1.624,0,0,0,1.042-2.871,43.892,43.892,0,0,0-6.8-3.741c-.556-.27-1.036-.5-1.242-.612a1.624,1.624,0,1,0-1.524,2.868c.258.137.715.359,1.348.666a49.4,49.4,0,0,1,6.141,3.313,1.618,1.618,0,0,0,1.039.377" transform="translate(-584.045 -167.449)" fill="#1a1311"/>
            <path id="Path_2117" data-name="Path 2117" d="M1053.659,144.534a19.64,19.64,0,0,1,9.94.589" transform="translate(-905.15 -107.757)" fill="#04427d"/>
            <path id="Path_2118" data-name="Path 2118" d="M1058.786,141.932a1.624,1.624,0,0,0,.53-3.16,21.263,21.263,0,0,0-10.888-.622,1.624,1.624,0,1,0,.837,3.138,18.153,18.153,0,0,1,8.992.555,1.627,1.627,0,0,0,.53.089" transform="translate(-900.338 -102.943)" fill="#1a1311"/>
          </g>
        </g>
      </g>
    </g>
    <g id="Group_141" data-name="Group 141" transform="translate(1241.652 1396.845)">
      <g id="Group_4" data-name="Group 4" transform="translate(0 0)" clip-path="url(#clip-path-3)">
        <path id="Path_101" data-name="Path 101" d="M51.27,89.554A44.777,44.777,0,1,1,96.047,44.777,44.828,44.828,0,0,1,51.27,89.554" transform="translate(-2.426 2.689)" fill="#1a1311" stroke="#1a1311" stroke-width="1"/>
        <path id="Path_102" data-name="Path 102" d="M3.691,333.9a3.691,3.691,0,0,1-3.333-5.275l11-23.128a3.709,3.709,0,0,1,3.334-2.106,3.691,3.691,0,0,1,3.332,5.275l-6.347,13.35,14.233-7.23a3.691,3.691,0,0,1,3.343,6.581L5.362,333.5a3.707,3.707,0,0,1-1.671.4Z" transform="translate(2.689 -236.301)" fill="#1a1311"/>
        <path id="Path_103" data-name="Path 103" d="M54.033,10A42.656,42.656,0,0,0,19.809,78.115L10.152,98.427a1.568,1.568,0,0,0,2.126,2.071L33.191,89.875A42.656,42.656,0,1,0,54.033,10" transform="translate(-5.189 -5.188)" fill="#fff"/>
        <rect id="Rectangle_33" data-name="Rectangle 33" width="40.569" height="40.569" transform="translate(29.697 27.561)" fill="#fff"/>
        <path id="Path_104" data-name="Path 104" d="M162.68,153.994H122.111a1.38,1.38,0,0,1-1.38-1.38V112.046a1.38,1.38,0,0,1,1.38-1.38H162.68a1.38,1.38,0,0,1,1.38,1.38v40.569a1.38,1.38,0,0,1-1.38,1.38m-39.189-2.76H161.3V113.426H123.491Z" transform="translate(-92.414 -84.485)" fill="#1a1311"/>
        <path id="Path_105" data-name="Path 105" d="M99.547,150.9l14.5,23.318h7.678l30.711-27.583L118.6,167.394l-10.237-18.2Z" transform="translate(-75.726 -112.82)" fill="#04427d"/>
      </g>
    </g>
    <g id="Path_2125" data-name="Path 2125" transform="translate(929.347 1330.606)" fill="none">
      <path d="M0,0H499V306.313H0Z" stroke="none"/>
      <path d="M 4 3.999969482421875 L 4 302.3128356933594 L 494.9996032714844 302.3128356933594 L 494.9996032714844 3.999969482421875 L 4 3.999969482421875 M 0 -3.0517578125e-05 L 498.9996032714844 -3.0517578125e-05 L 498.9996032714844 306.3128356933594 L 0 306.3128356933594 L 0 -3.0517578125e-05 Z" stroke="none" fill="#325691"/>
    </g>
  </g>
</svg>
