<svg xmlns="http://www.w3.org/2000/svg" xmlns:xlink="http://www.w3.org/1999/xlink" width="120" height="120" viewBox="0 0 120 120">
  <defs>
    <clipPath id="clip-path">
      <rect id="Rectangle_368" data-name="Rectangle 368" width="120" height="120" transform="translate(-460 2277)" fill="#fff" stroke="#707070" stroke-width="1"/>
    </clipPath>
    <clipPath id="clip-path-2">
      <rect id="Rectangle_367" data-name="Rectangle 367" width="101.994" height="114.735" fill="#275696" stroke="#275696" stroke-width="1"/>
    </clipPath>
  </defs>
  <g id="Mask_Group_43" data-name="Mask Group 43" transform="translate(460 -2277)" clip-path="url(#clip-path)">
    <g id="Group_163" data-name="Group 163" transform="translate(-453.337 2277)">
      <g id="Group_162" data-name="Group 162" transform="translate(2.34 2.633)" clip-path="url(#clip-path-2)">
        <path id="Path_2540" data-name="Path 2540" d="M54.416,18.892v.2a2.523,2.523,0,0,1-2.366,2.535.429.429,0,0,1-.2.034H11.158A2.567,2.567,0,0,1,8.59,19.1v-.2a2.6,2.6,0,0,1,2.568-2.6H51.848a.429.429,0,0,1,.2.034,2.578,2.578,0,0,1,2.366,2.568" transform="translate(20.44 38.762)" fill="#275696" stroke="#275696" stroke-width="1"/>
        <path id="Path_2541" data-name="Path 2541" d="M54.416,15.822v.2a2.523,2.523,0,0,1-2.366,2.535.429.429,0,0,1-.2.034H11.158A2.567,2.567,0,0,1,8.59,16.025v-.2a2.6,2.6,0,0,1,2.568-2.6H51.848a.429.429,0,0,1,.2.034,2.578,2.578,0,0,1,2.366,2.568" transform="translate(20.44 31.457)" fill="#275696" stroke="#275696" stroke-width="1"/>
        <path id="Rectangle_366" data-name="Rectangle 366" d="M.765,0H18.181a.765.765,0,0,1,.765.765V4.609a.764.764,0,0,1-.764.764H.765A.765.765,0,0,1,0,4.608V.765A.765.765,0,0,1,.765,0Z" transform="translate(29.021 76.198)" fill="#275696" stroke="#275696" stroke-width="1"/>
        <path id="Path_2542" data-name="Path 2542" d="M33.122,22.262v-.2a2.592,2.592,0,0,0-2.585-2.585H11.176a2.6,2.6,0,0,0-2.589,2.585v.2a2.6,2.6,0,0,0,2.589,2.585H30.537a2.592,2.592,0,0,0,2.585-2.585" transform="translate(20.433 46.339)" fill="#275696" stroke="#275696" stroke-width="1"/>
        <path id="Path_2543" data-name="Path 2543" d="M77.1,21.2,62.435,4.706A5.091,5.091,0,0,0,58.684,3.05H9.275a5.019,5.019,0,0,0-5.035,5V95.074a5.048,5.048,0,0,0,5.035,5.035H46.484a27.4,27.4,0,0,1-3.278-5.035H9.275V8.052H54.02V24.544a5.019,5.019,0,0,0,5.035,5h14.3v27a25.2,25.2,0,0,1,5.035,1.69V24.544A5.039,5.039,0,0,0,77.1,21.2M59.056,24.544V8.457l8.347,9.4,5.948,6.691Z" transform="translate(10.089 7.258)" fill="#275696" stroke="#275696" stroke-width="2"/>
        <path id="Path_2544" data-name="Path 2544" d="M19.85,39.685H41.276V25.39H19.85Zm2.535-12.369H25.19v2.467H22.385Zm2.94,10.814H22.52V35.664h2.805Zm0-4.191H22.52v-2.5h2.805Zm4.495,4.191H27.015V35.664H29.82Zm0-4.191H27.015v-2.5H29.82Zm0-4.157H27.015V27.316H29.82Zm4.562,8.347H31.543V35.664h2.839Zm0-4.191H31.543v-2.5h2.839Zm0-4.157H31.543V27.316h2.839Zm4.224,4.157H35.768v-2.5h2.839Zm0-4.157H35.768V27.316h2.839Z" transform="translate(47.234 60.416)" fill="#275696" stroke="#275696" stroke-width="1"/>
        <path id="Path_2545" data-name="Path 2545" d="M60.595,11.93l.135.169V11.93Zm0,0,.135.169V11.93ZM58.162,1.69A4.93,4.93,0,0,0,54.444,0H5A4.99,4.99,0,0,0,0,5V92.058a5.012,5.012,0,0,0,5,5H10.95v-5H5V5H49.78V6.928h5V5.407l1.352,1.521h6.691Zm10.95,89.287h.068v-2.5h-.068Z" transform="translate(0 0)" fill="#275696" stroke="#275696" stroke-width="2"/>
        <path id="Path_2546" data-name="Path 2546" d="M40.253,19.42h-.034a24.293,24.293,0,0,0-4.968.507,24.522,24.522,0,0,0-19.027,29.3,22.944,22.944,0,0,0,1.69,5A24.545,24.545,0,1,0,40.253,19.42m5.1,12.639A1.591,1.591,0,0,1,46.742,30.3a1.614,1.614,0,0,1,1.419,1.757v1.825a1.614,1.614,0,0,1-1.419,1.757,1.591,1.591,0,0,1-1.386-1.757Zm-12.572,0A1.615,1.615,0,0,1,34.237,30.3a1.316,1.316,0,0,1,1.014.473,1.879,1.879,0,0,1,.473,1.284v1.825a1.879,1.879,0,0,1-.473,1.284,1.316,1.316,0,0,1-1.014.473,1.615,1.615,0,0,1-1.453-1.757ZM53.061,55.682H28.053V33.31l3.582.034v.879a2.683,2.683,0,0,0,2.67,2.7,2.932,2.932,0,0,0,.946-.169,2.728,2.728,0,0,0,1.724-2.535v-.879h7.165v.879a2.683,2.683,0,0,0,2.67,2.7,2.712,2.712,0,0,0,2.7-2.7v-.879h3.548Z" transform="translate(37.24 46.21)" fill="#275696"/>
      </g>
    </g>
  </g>
</svg>
