<svg xmlns="http://www.w3.org/2000/svg" xmlns:xlink="http://www.w3.org/1999/xlink" width="120" height="120" viewBox="0 0 120 120">
  <defs>
    <clipPath id="clip-path">
      <rect id="Rectangle_374" data-name="Rectangle 374" width="120" height="120" transform="translate(-467 3215)" fill="#fff" stroke="#707070" stroke-width="1"/>
    </clipPath>
    <clipPath id="clip-path-2">
      <rect id="Rectangle_373" data-name="Rectangle 373" width="98.181" height="107.485" fill="#275696"/>
    </clipPath>
  </defs>
  <g id="Mask_Group_45" data-name="Mask Group 45" transform="translate(467 -3215)" clip-path="url(#clip-path)">
    <g id="Group_168" data-name="Group 168" transform="translate(-456.091 3221.257)">
      <g id="Group_167" data-name="Group 167" transform="translate(0 0)" clip-path="url(#clip-path-2)">
        <path id="Path_2553" data-name="Path 2553" d="M98.175,29.68H0c0,.039,0,.075,0,.114a49.235,49.235,0,0,0,.791,8.783,2.109,2.109,0,0,0,1.852,1.689c1.231.135,2.2.271,2.945.4a2.068,2.068,0,0,1,1.634,1.484,43.6,43.6,0,0,0,3.544,8.565,2.084,2.084,0,0,1-.147,2.26c-.546.717-1.235,1.589-1.787,2.282a2.1,2.1,0,0,0-.1,2.5A49.5,49.5,0,0,0,21.111,70.188a2.106,2.106,0,0,0,2.5-.1c.954-.758,1.736-1.333,2.364-1.767a2.068,2.068,0,0,1,2.189-.084,42.566,42.566,0,0,0,8.571,3.615A2.069,2.069,0,0,1,38.208,73.5c.12.736.242,1.663.365,2.828a2.112,2.112,0,0,0,1.683,1.863,49.221,49.221,0,0,0,6.343.691v0H51.58v0a49.213,49.213,0,0,0,6.344-.691,2.112,2.112,0,0,0,1.683-1.863c.124-1.164.245-2.091.365-2.828a2.069,2.069,0,0,1,1.477-1.653,42.566,42.566,0,0,0,8.571-3.615,2.068,2.068,0,0,1,2.189.084c.628.434,1.41,1.009,2.364,1.767a2.106,2.106,0,0,0,2.5.1A49.535,49.535,0,0,0,89.449,57.752a2.1,2.1,0,0,0-.1-2.5c-.552-.693-1.243-1.565-1.787-2.282a2.084,2.084,0,0,1-.147-2.26,43.6,43.6,0,0,0,3.544-8.565,2.068,2.068,0,0,1,1.632-1.484c.752-.128,1.714-.263,2.947-.4a2.109,2.109,0,0,0,1.852-1.689,49.234,49.234,0,0,0,.791-8.783c0-.039-.006-.075-.006-.114m-23.8,3.927a25.565,25.565,0,0,1-50.569,0Zm13.345,1.865a38.952,38.952,0,0,1-7.336,17.7,2.125,2.125,0,0,0-.116,2.374c.43.719.933,1.453,1.488,2.2a2.07,2.07,0,0,1-.147,2.631q-.963,1.028-1.989,1.993a2.089,2.089,0,0,1-2.631.145c-.89-.63-1.649-1.117-2.3-1.494a2.081,2.081,0,0,0-2.3.153A38.785,38.785,0,0,1,54.815,68.5a2.084,2.084,0,0,0-1.738,1.52,26.55,26.55,0,0,0-.564,2.8A1.6,1.6,0,0,1,51.58,74.2a11.708,11.708,0,0,1-4.982,0,1.606,1.606,0,0,1-.931-1.378,27.058,27.058,0,0,0-.564-2.8,2.086,2.086,0,0,0-1.738-1.52A38.776,38.776,0,0,1,25.8,61.182a2.081,2.081,0,0,0-2.3-.153c-.654.377-1.414.864-2.3,1.494a2.089,2.089,0,0,1-2.631-.145q-1.028-.966-1.989-1.993a2.068,2.068,0,0,1-.147-2.631c.556-.75,1.058-1.485,1.488-2.2a2.121,2.121,0,0,0-.118-2.374,38.971,38.971,0,0,1-7.334-17.7,2.082,2.082,0,0,0-1.518-1.746c-.163-.041-.353-.079-.526-.12H19.2a30.125,30.125,0,0,0,59.773,0H89.763c-.173.041-.365.079-.528.12a2.08,2.08,0,0,0-1.516,1.746" transform="translate(0 28.6)" fill="#275696"/>
        <path id="Path_2554" data-name="Path 2554" d="M89.164,45.639s.147-1.936.147-2.922A40.175,40.175,0,0,0,66.465,6.472L64.413,31.793a2.082,2.082,0,1,1-4.165,0V0H37.933V31.793a2.082,2.082,0,1,1-4.165,0L31.716,6.472A40.177,40.177,0,0,0,8.868,42.717c0,.986.149,2.922.149,2.922L0,48.3V54.64H98.181V48.3ZM75,48.052H23.181a2.082,2.082,0,0,1,0-4.165H75a2.082,2.082,0,1,1,0,4.165" transform="translate(0 -0.001)" fill="#275696"/>
      </g>
    </g>
  </g>
</svg>
