<svg xmlns="http://www.w3.org/2000/svg" xmlns:xlink="http://www.w3.org/1999/xlink" width="120" height="120" viewBox="0 0 120 120">
  <defs>
    <clipPath id="clip-path">
      <rect id="Rectangle_371" data-name="Rectangle 371" width="120" height="120" transform="translate(-659 2062)" fill="#fff" stroke="#707070" stroke-width="1"/>
    </clipPath>
    <clipPath id="clip-path-2">
      <rect id="Rectangle_372" data-name="Rectangle 372" width="98.88" height="100.324" fill="#275696"/>
    </clipPath>
  </defs>
  <g id="Mask_Group_44" data-name="Mask Group 44" transform="translate(659 -2062)" clip-path="url(#clip-path)">
    <g id="Group_166" data-name="Group 166" transform="translate(-648.44 2071.838)">
      <g id="Group_165" data-name="Group 165" transform="translate(0 0)" clip-path="url(#clip-path-2)">
        <path id="Path_2547" data-name="Path 2547" d="M44.812,42.03l.023-4.253-3.653-1.049a12.327,12.327,0,0,0-1.253-3.075l1.878-3.309L38.82,27.322l-3.335,1.845A12.273,12.273,0,0,0,32.43,27.88l-1.013-3.674-4.251-.023L26.112,27.85a12.275,12.275,0,0,0-3.061,1.245l-3.315-1.883L16.711,30.2l1.846,3.335A12.3,12.3,0,0,0,17.265,36.6L13.6,37.615l-.025,4.251,3.659,1.051a12.317,12.317,0,0,0,1.255,3.078l-1.873,3.3,2.989,3.023,3.324-1.84a12.212,12.212,0,0,0,3.046,1.285l1.008,3.656,4.251.023L32.28,51.8a12.262,12.262,0,0,0,3.091-1.257l3.3,1.873,3.023-2.989-1.835-3.317a12.268,12.268,0,0,0,1.3-3.076ZM33.643,40.215A4.456,4.456,0,1,1,29.2,35.357c.135,0,.271.005.406.018a4.459,4.459,0,0,1,4.035,4.839" transform="translate(9.109 16.225)" fill="#275696"/>
        <path id="Path_2548" data-name="Path 2548" d="M53.836,48.187l.02-3.293-2.831-.814a9.614,9.614,0,0,0-.971-2.383l1.457-2.562-2.318-2.343-2.583,1.429a9.517,9.517,0,0,0-2.364-1l-.785-2.846-3.3-.018L39.35,37.2a9.568,9.568,0,0,0-2.374.966l-2.567-1.459-2.341,2.316L33.5,41.607a9.5,9.5,0,0,0-1,2.378l-2.841.782-.018,3.293,2.836.815a9.529,9.529,0,0,0,.973,2.384l-1.452,2.555,2.314,2.343,2.575-1.425a9.54,9.54,0,0,0,2.359,1l.782,2.832,3.293.018.81-2.819a9.584,9.584,0,0,0,2.4-.973l2.553,1.45,2.343-2.316L50,51.352A9.453,9.453,0,0,0,51,48.969Zm-8.651-1.405a3.453,3.453,0,1,1-3.442-3.765c.1,0,.209.005.314.015a3.457,3.457,0,0,1,3.128,3.75" transform="translate(19.886 23.054)" fill="#275696"/>
        <path id="Path_2549" data-name="Path 2549" d="M39.055,53.134l.013-2.525L36.9,49.986a7.35,7.35,0,0,0-.744-1.825L37.273,46.2,35.5,44.4,33.52,45.5a7.243,7.243,0,0,0-1.813-.765l-.6-2.179-2.523-.015-.627,2.177a7.29,7.29,0,0,0-1.818.739l-1.967-1.118-1.795,1.775,1.1,1.98a7.248,7.248,0,0,0-.769,1.821l-2.174.6-.015,2.523,2.172.625a7.336,7.336,0,0,0,.744,1.826l-1.111,1.957L24.1,59.238l1.972-1.091a7.293,7.293,0,0,0,1.808.764l.6,2.169L31,61.093l.622-2.159a7.335,7.335,0,0,0,1.835-.745L35.409,59.3,37.2,57.525l-1.089-1.968a7.348,7.348,0,0,0,.77-1.826Zm-6.629-1.078a2.644,2.644,0,1,1-2.635-2.884c.079,0,.16.005.241.012a2.647,2.647,0,0,1,2.395,2.872" transform="translate(13.766 28.543)" fill="#275696"/>
        <path id="Path_2550" data-name="Path 2550" d="M46.462,21.175c3.066,0,5.548-3.095,5.548-6.945V6.956C52.01,3.1,49.529,0,46.462,0s-5.544,3.1-5.544,6.956V14.23c0,3.85,2.476,6.945,5.544,6.945" transform="translate(27.455 0)" fill="#275696"/>
        <path id="Path_2551" data-name="Path 2551" d="M95.208,7.256H84.775v3.188a10.831,10.831,0,0,1-9.239,10.865A10.6,10.6,0,0,1,63.59,10.8V7.256H35.322V10.43A10.84,10.84,0,0,1,26.105,21.3,10.6,10.6,0,0,1,14.134,10.8V7.256l-10.51-.13A3.578,3.578,0,0,0,0,10.705V91.963a3.579,3.579,0,0,0,3.578,3.579H91.825l3.487-.01a3.579,3.579,0,0,0,3.568-3.583l-.094-81.119a3.577,3.577,0,0,0-3.578-3.574M89.218,88.5H9.674a2.609,2.609,0,0,1-2.608-2.608v-51.3a2.609,2.609,0,0,1,2.608-2.608H89.218a2.607,2.607,0,0,1,2.607,2.608v51.3A2.607,2.607,0,0,1,89.218,88.5" transform="translate(0.001 4.781)" fill="#275696"/>
        <path id="Path_2552" data-name="Path 2552" d="M16.993,21.175c3.208,0,5.807-3.095,5.807-6.945V6.956C22.8,3.1,20.2,0,16.993,0s-5.8,3.1-5.8,6.956V14.23c0,3.85,2.59,6.945,5.8,6.945" transform="translate(7.512 0)" fill="#275696"/>
      </g>
    </g>
  </g>
</svg>
