<svg xmlns="http://www.w3.org/2000/svg" xmlns:xlink="http://www.w3.org/1999/xlink" width="120" height="120" viewBox="0 0 120 120">
  <defs>
    <clipPath id="clip-path">
      <rect id="Rectangle_393" data-name="Rectangle 393" width="120" height="120" transform="translate(-393 4007)" fill="#275696" stroke="#707070" stroke-width="1"/>
    </clipPath>
    <clipPath id="clip-path-2">
      <rect id="Rectangle_394" data-name="Rectangle 394" width="100.158" height="109.609" fill="#275696"/>
    </clipPath>
  </defs>
  <g id="Mask_Group_48" data-name="Mask Group 48" transform="translate(393 -4007)" clip-path="url(#clip-path)">
    <g id="Group_175" data-name="Group 175" transform="translate(-383.079 4012.196)">
      <g id="Group_174" data-name="Group 174" transform="translate(0 0)" clip-path="url(#clip-path-2)">
        <path id="Path_2564" data-name="Path 2564" d="M26.136,15.45V23.2a32.058,32.058,0,0,1,4.65-.377,31.77,31.77,0,0,1,6.788.746V12.629a9.652,9.652,0,0,0-9.623-9.623H15.36V13.844h9.17a1.611,1.611,0,0,1,1.606,1.606" transform="translate(49.042 9.598)" fill="#275696"/>
        <path id="Path_2565" data-name="Path 2565" d="M75.177,81.215v6.348a1.609,1.609,0,0,1-1.606,1.606H13.04a1.608,1.608,0,0,1-1.6-1.606V15.45a1.607,1.607,0,0,1,1.6-1.6h9.149V3.006H9.623A9.649,9.649,0,0,0,0,12.629V90.384a9.65,9.65,0,0,0,9.623,9.627h67.37a9.653,9.653,0,0,0,9.623-9.627V80.85a30.318,30.318,0,0,1-11.438.365" transform="translate(0 9.598)" fill="#275696"/>
        <path id="Path_2566" data-name="Path 2566" d="M39.5,9.623H29.877V1.6A1.611,1.611,0,0,0,28.271,0H17.579a1.608,1.608,0,0,0-1.606,1.6V9.623H6.351V30.57H39.5Z" transform="translate(20.278 0.001)" fill="#275696"/>
        <path id="Path_2567" data-name="Path 2567" d="M4.311,14.158A5.614,5.614,0,1,0,9.925,8.544a5.612,5.612,0,0,0-5.614,5.614" transform="translate(13.764 27.28)" fill="#275696"/>
        <path id="Path_2568" data-name="Path 2568" d="M9.925,13.235a5.614,5.614,0,1,0,5.614,5.614,5.612,5.612,0,0,0-5.614-5.614" transform="translate(13.764 42.258)" fill="#275696"/>
        <path id="Path_2569" data-name="Path 2569" d="M9.925,17.853a5.614,5.614,0,1,0,5.614,5.614,5.612,5.612,0,0,0-5.614-5.614" transform="translate(13.764 57.002)" fill="#275696"/>
        <path id="Path_2570" data-name="Path 2570" d="M60.15,48.416S44.909,41.993,42.812,38.53c-.277-.457-.5-1.6-.222-1.841a11.212,11.212,0,0,0,3.794-7.639,2.3,2.3,0,0,0,1.623-2.415,2.783,2.783,0,0,0-1.069-2.553V17.62A8.748,8.748,0,0,0,38.217,8.9H35.29a8.751,8.751,0,0,0-8.725,8.725v6.461a2.386,2.386,0,0,0-1.023,2.335,2.534,2.534,0,0,0,1.576,2.633,11.218,11.218,0,0,0,3.736,7.581c.344.3.273,1.509,0,1.937-2.063,3.258-17.526,9.849-17.526,9.849a1.167,1.167,0,0,0-1.161,1.161v7.153A1.168,1.168,0,0,0,13.328,57.9H60.15a1.165,1.165,0,0,0,1.161-1.166V49.578a1.164,1.164,0,0,0-1.161-1.161" transform="translate(38.847 28.401)" fill="#275696"/>
      </g>
    </g>
  </g>
</svg>
