<svg xmlns="http://www.w3.org/2000/svg" xmlns:xlink="http://www.w3.org/1999/xlink" width="386.333" height="268.14" viewBox="0 0 386.333 268.14">
  <defs>
    <clipPath id="clip-path">
      <rect id="Rectangle_334" data-name="Rectangle 334" width="386.333" height="268.14" transform="translate(730 2646)" fill="#eaeaea"/>
    </clipPath>
    <clipPath id="clip-path-2">
      <rect id="Rectangle_333" data-name="Rectangle 333" width="256.862" height="276.565" transform="translate(0 0)" fill="none"/>
    </clipPath>
  </defs>
  <g id="Mask_Group_38" data-name="Mask Group 38" transform="translate(-730 -2646)" clip-path="url(#clip-path)">
    <g id="Group_151" data-name="Group 151" transform="translate(807.966 2690.594)">
      <g id="Group_150" data-name="Group 150" transform="translate(0 0)" clip-path="url(#clip-path-2)">
        <path id="Path_2213" data-name="Path 2213" d="M55.276,340c-1.3-4.424-1.289-20.15-1.788-25.339s-1.424-5.132-3.88-13.663-3.01-15.039-4.688-16.962-17.537-15-17.142-18.28c.148-1.232,2.226-1.811,5.838.057,6.02,3.113,16.249,11.423,16.249,11.423s-5.981-9.9-8.955-17.532c-2.171-5.574-6.96-11.646-3-13.584,4.305-2.1,18.073,26.139,18.073,26.139a158.266,158.266,0,0,1-4.5-18.441c-.881-5.608-2.846-13.776.1-14.5,5.5-1.355,8.811,15.078,9.809,19.457.935,4.1,2.979,10.314,2.979,10.314s3.566-6.74,6.086-7.148,8,.685,9.047,2.081,3.737,6.655,3.737,6.655,3.868-1.634,6.667-.624-1.392,7.519-2.72,10.02a15.13,15.13,0,0,0-1.558,5.78c.006,1.753-1.989,11.815-3.951,15.061s-7.305,8.817-7.344,10.384-.627,12.69-.627,12.69l2.974,12.936s-5.791,5.817-10.215,7.12S55.276,340,55.276,340" transform="translate(-20.969 -180.64)" fill="#fff"/>
        <path id="Path_2214" data-name="Path 2214" d="M59.683,340.677c-4.757,0-10.086-4.084-10.754-4.612a1.715,1.715,0,0,1-.582-.862c-.918-3.117-1.2-10.817-1.452-17.61-.12-3.252-.233-6.324-.4-8.049a20.273,20.273,0,0,0-1.479-6.178c-.561-1.545-1.33-3.66-2.342-7.175s-1.721-6.76-2.287-9.356c-.689-3.16-1.34-6.146-2.045-6.954-.354-.406-1.8-1.709-3.33-3.088-11.207-10.1-14.531-13.963-14.223-16.524a2.864,2.864,0,0,1,1.549-2.2c1.584-.838,3.991-.506,6.779.936a83.378,83.378,0,0,1,9.821,6.432,103.056,103.056,0,0,1-4.911-10.4c-.539-1.384-1.268-2.841-1.974-4.249-1.754-3.5-3.269-6.53-2.421-9.038a4.244,4.244,0,0,1,2.244-2.46,3.009,3.009,0,0,1,2.36-.092c1.618.556,4.524,2.624,11.1,14.036-.317-1.5-.6-3-.828-4.439-.13-.826-.283-1.7-.444-2.632-1.1-6.294-2.23-12.8,1.827-13.8a4.474,4.474,0,0,1,3.488.6c4,2.478,6.393,11.136,8.209,19.279.072.324.137.614.194.864.455,2,1.188,4.533,1.808,6.572q.094-.138.19-.276c1.93-2.776,3.557-4.187,5.121-4.441,2.568-.416,8.992.478,10.692,2.744a58.518,58.518,0,0,1,3.207,5.583,10.9,10.9,0,0,1,6.407-.135,3.034,3.034,0,0,1,1.849,1.817c.859,2.311-.846,5.649-2.99,9.454-.256.455-.478.848-.646,1.165a13.608,13.608,0,0,0-1.357,4.97c.007,2.007-2.018,12.348-4.2,15.954a53.81,53.81,0,0,1-3.745,5.033,32.943,32.943,0,0,0-3.356,4.614c-.054,1.763-.527,10.755-.613,12.39l2.92,12.7a1.715,1.715,0,0,1-.456,1.594c-.249.25-6.155,6.145-10.945,7.555a7.016,7.016,0,0,1-1.986.272M51.5,333.712c1.949,1.418,6.526,4.19,9.2,3.4,2.885-.849,6.86-4.2,8.811-6.034L66.754,319.09a1.73,1.73,0,0,1-.041-.475c.006-.111.588-11.116.625-12.642.034-1.359,1.152-2.88,4.1-6.566a51.9,51.9,0,0,0,3.487-4.664c1.741-2.879,3.709-12.567,3.7-14.168a16.883,16.883,0,0,1,1.758-6.59c.189-.355.42-.766.688-1.241a44.207,44.207,0,0,0,2.079-4.014,6.6,6.6,0,0,0,.7-2.41c-1.763-.516-4.355.286-5.233.653a1.718,1.718,0,0,1-2.19-.8c-1.048-2.049-2.855-5.426-3.568-6.388-.728-.717-5.193-1.8-7.415-1.436-.9.185-3.208,3.168-4.846,6.258a1.715,1.715,0,0,1-3.144-.267c-.085-.257-2.079-6.335-3.022-10.468-.058-.255-.124-.55-.2-.88-.831-3.725-3.359-15.059-6.669-17.11a1.061,1.061,0,0,0-.8-.2c-.1.153-.435.858-.274,3.252.133,1.984.546,4.353.945,6.644.164.943.319,1.834.453,2.688a157.516,157.516,0,0,0,4.445,18.2,1.714,1.714,0,0,1-3.178,1.261c-.031-.063-3.1-6.351-6.733-12.663-6.179-10.742-8.641-12.35-9.222-12.589a.672.672,0,0,0-.326.379c-.39,1.154,1.068,4.066,2.239,6.4.74,1.478,1.506,3.007,2.1,4.539,2.885,7.405,8.765,17.17,8.825,17.268a1.714,1.714,0,0,1-2.548,2.218c-.1-.082-10.163-8.235-15.956-11.231a7.581,7.581,0,0,0-3.142-1.011,27.192,27.192,0,0,0,4.469,5.3c2.707,2.735,6.02,5.721,8.439,7.9,2.055,1.853,3.15,2.845,3.618,3.381,1.283,1.472,1.891,4.259,2.812,8.477.584,2.68,1.247,5.716,2.232,9.138.979,3.4,1.695,5.371,2.269,6.952a23.47,23.47,0,0,1,1.67,7.021c.176,1.825.285,4.8.412,8.251.217,5.9.485,13.16,1.18,16.244" transform="translate(-15.684 -175.358)" fill="#1a1311"/>
        <path id="Path_2215" data-name="Path 2215" d="M196.484,377.4s-1.325-5.414.3-7.727c.595-.846,1.175-2.568,1.93-3.391a6.018,6.018,0,0,1,2.735-1.766l4.531,5.167-2.878,9.429Z" transform="translate(-147.975 -275.238)" fill="#fff"/>
        <path id="Path_2216" data-name="Path 2216" d="M197.792,375.546a1.727,1.727,0,0,1-.43-.055l-6.619-1.712a1.714,1.714,0,0,1-1.236-1.252c-.253-1.03-1.411-6.313.563-9.12a10.246,10.246,0,0,0,.613-1.155,10.163,10.163,0,0,1,1.456-2.409,7.689,7.689,0,0,1,3.6-2.275,1.714,1.714,0,0,1,1.686.537l4.531,5.168a1.715,1.715,0,0,1,.351,1.631l-2.878,9.429a1.716,1.716,0,0,1-1.639,1.214m-5.156-4.819,3.995,1.033,2.12-6.945-3.071-3.5a4.941,4.941,0,0,0-1.014.848,8.481,8.481,0,0,0-.9,1.589,11.948,11.948,0,0,1-.893,1.63c-.673.956-.563,3.458-.239,5.349" transform="translate(-142.663 -269.952)" fill="#1a1311"/>
        <path id="Path_2217" data-name="Path 2217" d="M235.281,373.84s1.2-4.26,4.647-6.243" transform="translate(-177.654 -277.561)" fill="#fff"/>
        <path id="Path_2218" data-name="Path 2218" d="M229.995,370.266a1.715,1.715,0,0,1-1.651-2.176c.057-.2,1.434-4.96,5.443-7.265A1.714,1.714,0,1,1,235.5,363.8c-2.779,1.6-3.843,5.19-3.853,5.227a1.719,1.719,0,0,1-1.649,1.242" transform="translate(-172.368 -272.275)" fill="#1a1311"/>
        <path id="Path_2219" data-name="Path 2219" d="M115.981,378.97c.8-.764,9.219-8.007,11.758-9.2" transform="translate(-87.574 -279.202)" fill="#fff"/>
        <path id="Path_2220" data-name="Path 2220" d="M110.7,375.4a1.715,1.715,0,0,1-1.182-2.957c.472-.449,9.238-8.113,12.211-9.509a1.714,1.714,0,1,1,1.457,3.1c-2.2,1.035-10.443,8.069-11.3,8.889a1.709,1.709,0,0,1-1.182.472" transform="translate(-82.289 -273.916)" fill="#1a1311"/>
        <path id="Path_2221" data-name="Path 2221" d="M209.618,426.2s-3.754,4.569-3.531,6.839" transform="translate(-155.603 -321.809)" fill="#fff"/>
        <path id="Path_2222" data-name="Path 2222" d="M200.8,429.466a1.715,1.715,0,0,1-1.7-1.547c-.271-2.762,2.926-6.894,3.913-8.094a1.715,1.715,0,0,1,2.65,2.177c-1.759,2.146-3.231,4.754-3.15,5.583a1.715,1.715,0,0,1-1.539,1.873c-.057.006-.113.008-.169.008" transform="translate(-150.322 -316.523)" fill="#1a1311"/>
        <path id="Path_2223" data-name="Path 2223" d="M143.845,434.407s10.143,10.516,8.949,17.374" transform="translate(-108.613 -328.007)" fill="#fff"/>
        <path id="Path_2224" data-name="Path 2224" d="M147.511,448.211a1.716,1.716,0,0,1-1.691-2.009c.855-4.913-5.842-13.136-8.494-15.89a1.714,1.714,0,0,1,2.468-2.38c1.1,1.14,10.709,11.359,9.4,18.858a1.715,1.715,0,0,1-1.687,1.421" transform="translate(-103.329 -322.722)" fill="#1a1311"/>
        <path id="Path_2225" data-name="Path 2225" d="M55.963,138.666a2.005,2.005,0,0,1-1.857-1.248l-4.037-9.9a2,2,0,0,1,3.712-1.514l4.037,9.9a2.005,2.005,0,0,1-1.855,2.762" transform="translate(-37.693 -94.201)" fill="#ffaf00"/>
        <path id="Path_2226" data-name="Path 2226" d="M11.655,175.5a2,2,0,0,1-.86-.195l-9.652-4.592a2,2,0,1,1,1.722-3.62l9.652,4.592a2,2,0,0,1-.862,3.815" transform="translate(0 -126.023)" fill="#ffaf00"/>
        <path id="Path_2227" data-name="Path 2227" d="M101.985,134.023a2.005,2.005,0,0,1-1.881-2.7l3.686-10.033a2,2,0,1,1,3.762,1.382l-3.686,10.033a2.005,2.005,0,0,1-1.882,1.314" transform="translate(-75.492 -90.592)" fill="#ffaf00"/>
        <path id="Path_2228" data-name="Path 2228" d="M288.579,495.5c-7.09-20.724-13.491-33.062-19.026-36.672-5.21-3.4-15.262-7.016-22.6-9.658-1.672-.6-3.116-1.122-4.326-1.575-6.449-2.419-20.528-2.8-22.06-2.84a143.982,143.982,0,0,0-22.074-1.623,236.806,236.806,0,0,0-29.352,3.2,124.652,124.652,0,0,0-18.172,4.347,32.72,32.72,0,0,0-17.291,11.409c-5.226,6.589-11.449,28.432-14.286,39.157l-11.3-37.7a1.715,1.715,0,0,0-2.159-1.143L67.85,474.428a1.715,1.715,0,0,0-1.124,2.135c.167.548,16.744,54.959,21.052,68.8,2.517,8.084,6.333,14.978,11.034,19.936,4.886,5.153,10.477,7.95,16.167,8.087.151,0,.3.006.452.006,8.2,0,15.781-5.419,22.086-15.576,1.35,27.275,2.893,49.738,2.912,50.019a1.714,1.714,0,0,0,1.71,1.6H257.8a1.714,1.714,0,0,0,1.714-1.714V581.361c6.824,1.693,27.658,6.018,38.72-1.064a14.81,14.81,0,0,0,6.872-10.677c2.723-17.852-10.277-55.854-16.525-74.117" transform="translate(-50.327 -334.577)" fill="#e0e0e0"/>
        <path id="Path_2229" data-name="Path 2229" d="M288.579,495.5c-7.09-20.724-13.491-33.062-19.026-36.672-5.21-3.4-15.262-7.016-22.6-9.658-1.672-.6-3.116-1.122-4.326-1.575-6.449-2.419-20.528-2.8-22.06-2.84a143.982,143.982,0,0,0-22.074-1.623,236.806,236.806,0,0,0-29.352,3.2,124.652,124.652,0,0,0-18.172,4.347,32.72,32.72,0,0,0-17.291,11.409c-5.226,6.589-11.449,28.432-14.286,39.157l-11.3-37.7a1.715,1.715,0,0,0-2.159-1.143L67.85,474.428a1.715,1.715,0,0,0-1.124,2.135c.167.548,16.744,54.959,21.052,68.8,2.517,8.084,6.333,14.978,11.034,19.936,4.886,5.153,10.477,7.95,16.167,8.087.151,0,.3.006.452.006,8.2,0,15.781-5.419,22.086-15.576,1.35,27.275,2.893,49.738,2.912,50.019a1.714,1.714,0,0,0,1.71,1.6H257.8a1.714,1.714,0,0,0,1.714-1.714V581.361c6.824,1.693,27.658,6.018,38.72-1.064a14.81,14.81,0,0,0,6.872-10.677C307.828,551.769,294.827,513.766,288.579,495.5Z" transform="translate(-50.327 -334.577)" fill="none" stroke="#1a1311" stroke-linecap="round" stroke-linejoin="round" stroke-width="4"/>
        <path id="Path_2230" data-name="Path 2230" d="M529.488,401.515l1.47,20.878H572.42l-.882-20.584Z" transform="translate(-399.802 -303.171)" fill="#fff"/>
        <path id="Path_2231" data-name="Path 2231" d="M567.135,418.822H525.674a1.715,1.715,0,0,1-1.71-1.594l-1.47-20.878a1.714,1.714,0,0,1,1.71-1.835h.012l42.05.294a1.714,1.714,0,0,1,1.7,1.641l.882,20.584a1.714,1.714,0,0,1-1.713,1.788m-39.863-3.429h38.074l-.736-17.166-38.566-.27Z" transform="translate(-394.516 -297.886)" fill="#1a1311"/>
        <path id="Path_2232" data-name="Path 2232" d="M539.072,493.733l40.584-.976-24.9,62.531L546.129,520Z" transform="translate(-407.038 -372.066)" fill="#fff"/>
        <path id="Path_2233" data-name="Path 2233" d="M549.469,551.717q-.06,0-.12,0a1.715,1.715,0,0,1-1.546-1.3l-8.621-35.267-7.053-26.25a1.715,1.715,0,0,1,1.615-2.159l40.584-.976a1.714,1.714,0,0,1,1.634,2.348l-24.9,62.531a1.715,1.715,0,0,1-1.592,1.08m-13.462-61.608,6.492,24.162c0,.012.006.025.01.038l7.352,30.076,21.957-55.137Z" transform="translate(-401.752 -366.78)" fill="#1a1311"/>
        <path id="Path_2234" data-name="Path 2234" d="M588.316,490.356c2.058.294,19.7.294,19.7.294l-7.351,11.762h-8.822Z" transform="translate(-444.221 -370.253)" fill="#04427d"/>
        <path id="Path_2235" data-name="Path 2235" d="M595.38,498.841h-8.821a1.714,1.714,0,0,1-1.645-1.233l-3.529-12.056a1.715,1.715,0,0,1,1.888-2.179c1.412.2,12.685.277,19.459.277a1.715,1.715,0,0,1,1.454,2.623l-7.352,11.762a1.714,1.714,0,0,1-1.454.806m-7.537-3.429h6.587l5.211-8.338c-3.953-.011-10.552-.046-14.286-.162Z" transform="translate(-438.935 -364.967)" fill="#1a1311"/>
        <path id="Path_2236" data-name="Path 2236" d="M590.791,539.579h8.822l4.21,33.028-11.762,20.78s-5.685-21.074-5.1-23.132,3.828-30.675,3.828-30.675" transform="translate(-443.167 -407.42)" fill="#04427d"/>
        <path id="Path_2237" data-name="Path 2237" d="M586.763,589.816a1.715,1.715,0,0,1-1.656-1.268c-.014-.053-1.442-5.352-2.779-10.834-2.8-11.492-2.495-12.571-2.311-13.215.41-1.489,2.532-19.435,3.773-30.4a1.714,1.714,0,0,1,1.7-1.522h8.822a1.714,1.714,0,0,1,1.7,1.5l4.21,33.028a1.712,1.712,0,0,1-.208,1.061l-11.762,20.78a1.714,1.714,0,0,1-1.491.87m-3.426-24.463c-.1,1.484,1.809,9.8,4.006,18.243l9.409-16.623-3.947-30.965h-5.781c-.79,6.935-3.1,26.964-3.687,29.344m-.023.086h0m.026-.119h0Z" transform="translate(-437.869 -402.135)" fill="#1a1311"/>
        <path id="Path_2238" data-name="Path 2238" d="M509.437,401.515l23.23,20.388-14.507,14.311s-16.075-23.23-15.193-23.818,6.469-10.88,6.469-10.88" transform="translate(-379.75 -303.171)" fill="#fff"/>
        <path id="Path_2239" data-name="Path 2239" d="M512.834,432.642c-.053,0-.106,0-.16-.007a1.715,1.715,0,0,1-1.25-.732c-.039-.056-3.925-5.675-7.728-11.389-8.066-12.12-7.942-12.77-7.77-13.671a1.788,1.788,0,0,1,.62-1.053c.713-.824,3.616-5.881,6.058-10.378a1.715,1.715,0,0,1,2.638-.47l23.23,20.388a1.714,1.714,0,0,1,.073,2.509l-14.507,14.31a1.715,1.715,0,0,1-1.2.494m-13.3-25.158c1.36,2.686,7.5,12,13.547,20.788l11.74-11.582-20.236-17.76a97.944,97.944,0,0,1-5.051,8.553m-2.848-1.8h0" transform="translate(-374.424 -297.885)" fill="#1a1311"/>
        <path id="Path_2240" data-name="Path 2240" d="M643.152,402.715l-18.819,20.094,12.742,15.879s11.86-23.426,12.154-24.308-6.077-11.664-6.077-11.664" transform="translate(-471.416 -304.078)" fill="#fff"/>
        <path id="Path_2241" data-name="Path 2241" d="M631.79,435.116a1.715,1.715,0,0,1-1.337-.641L617.71,418.6a1.715,1.715,0,0,1,.086-2.245l18.819-20.094a1.715,1.715,0,0,1,2.728.3c6.768,11.455,6.493,12.28,6.227,13.078-.3.9-8.668,17.463-12.251,24.541a1.714,1.714,0,0,1-1.352.931,1.735,1.735,0,0,1-.178.009m-10.474-17.507,10.146,12.643c4.2-8.309,9.586-19.012,10.691-21.351-.5-1.3-2.527-5.02-4.606-8.622Z" transform="translate(-466.131 -298.791)" fill="#1a1311"/>
        <path id="Path_2242" data-name="Path 2242" d="M479.984,375.085s-1.274,21.27-.392,29.8l-17.05,15.491s-2.75-15.883-2.161-17.059,9.41-23.132,9.41-23.132Z" transform="translate(-347.558 -283.215)" fill="#e0e0e0"/>
        <path id="Path_2243" data-name="Path 2243" d="M457.258,416.8a1.716,1.716,0,0,1-1.689-1.422c-.007-.04-.7-4.038-1.308-8.128-1.308-8.771-1-9.391-.7-9.99.438-.892,5.833-14.246,9.352-23a1.715,1.715,0,0,1,.824-.894l10.194-5.1a1.714,1.714,0,0,1,2.478,1.636c-.012.211-1.256,21.228-.4,29.518a1.714,1.714,0,0,1-.552,1.445l-17.05,15.491a1.714,1.714,0,0,1-1.153.446m-.529-18.221c-.09,1.3.72,7.164,1.7,13.127l14.1-12.807c-.567-7.025,0-20.32.3-26.249l-6.973,3.486c-1.546,3.846-8.1,20.14-9.126,22.442m.01-.1h0" transform="translate(-342.275 -277.929)" fill="#1a1311"/>
        <path id="Path_2244" data-name="Path 2244" d="M706.241,383.506s1.176,12.448.915,16.5-2.385,10.259-2.385,10.259l14.7,14.115s7.057-9.7,7.057-11.468-7.16-19.9-10.983-24.019a20.514,20.514,0,0,0-9.307-5.387" transform="translate(-532.153 -289.573)" fill="#e0e0e0"/>
        <path id="Path_2245" data-name="Path 2245" d="M714.188,420.809a1.714,1.714,0,0,1-1.187-.478l-14.7-14.115a1.715,1.715,0,0,1-.435-1.792c.02-.06,2.053-6.042,2.3-9.815.25-3.869-.9-16.1-.911-16.228a1.715,1.715,0,0,1,2.094-1.832,22.159,22.159,0,0,1,10.176,5.891c3.932,4.235,11.441,22.776,11.441,25.185,0,.784-.295,2.064-3.816,7.347-1.763,2.645-3.551,5.105-3.569,5.13a1.715,1.715,0,0,1-1.235.7c-.051,0-.1.007-.152.007m-12.739-16.321,12.5,12c2.631-3.723,5.225-7.743,5.569-8.9-.44-2.406-7.066-19.1-10.511-22.813a17.65,17.65,0,0,0-6.11-4.086,138.576,138.576,0,0,1,.685,14.142,47.672,47.672,0,0,1-2.132,9.657m18.085,3.213h0Zm.007-.209h0" transform="translate(-526.867 -284.288)" fill="#1a1311"/>
        <path id="Path_2246" data-name="Path 2246" d="M618.706,492.757l8.816,15.875s-3.243,3.956-12.966,19.351-20.8,35.922-20.8,35.922l-2.971-5.4s11.919-36.794,17.43-46.338c6.339-10.978,10.488-19.407,10.488-19.407" transform="translate(-446.088 -372.066)" fill="#e0e0e0"/>
        <path id="Path_2247" data-name="Path 2247" d="M588.474,560.333a1.715,1.715,0,0,1-1.5-.888l-2.971-5.4a1.713,1.713,0,0,1-.129-1.355c.489-1.509,12.038-37.077,17.576-46.667,6.234-10.8,10.393-19.224,10.434-19.307a1.715,1.715,0,0,1,3.037-.075l8.816,15.875a1.714,1.714,0,0,1-.173,1.919c-.031.038-3.343,4.139-12.843,19.18-9.579,15.168-20.627,35.616-20.737,35.82a1.715,1.715,0,0,1-1.5.9Zm-1.11-7.291,1.1,2.008c3.366-6.136,11.807-21.319,19.353-33.268,7.292-11.545,10.953-16.686,12.371-18.587l-6.7-12.068c-1.753,3.406-4.969,9.5-9.072,16.609-4.943,8.561-15.375,40.173-17.054,45.306" transform="translate(-440.803 -366.78)" fill="#1a1311"/>
        <rect id="Rectangle_327" data-name="Rectangle 327" width="32.346" height="11.174" transform="translate(100.679 164.8)" fill="#e0e0e0"/>
        <path id="Path_2248" data-name="Path 2248" d="M438.115,680.445H405.769a1.714,1.714,0,0,1-1.714-1.714V667.556a1.714,1.714,0,0,1,1.714-1.714h32.346a1.714,1.714,0,0,1,1.715,1.714v11.174a1.714,1.714,0,0,1-1.715,1.714m-30.631-3.429H436.4v-7.745H407.484Z" transform="translate(-305.09 -502.757)" fill="#1a1311"/>
        <rect id="Rectangle_328" data-name="Rectangle 328" width="32.346" height="21.466" transform="translate(100.679 175.973)" fill="#e0e0e0"/>
        <path id="Path_2249" data-name="Path 2249" d="M438.115,736.359H405.769a1.714,1.714,0,0,1-1.714-1.714V713.178a1.714,1.714,0,0,1,1.714-1.714h32.346a1.714,1.714,0,0,1,1.715,1.714v21.466a1.714,1.714,0,0,1-1.715,1.714m-30.631-3.429H436.4V714.893H407.484Z" transform="translate(-305.09 -537.205)" fill="#1a1311"/>
        <rect id="Rectangle_329" data-name="Rectangle 329" width="38.227" height="11.174" transform="translate(163.031 164.8)" fill="#e0e0e0"/>
        <path id="Path_2250" data-name="Path 2250" d="M698.568,680.445H660.342a1.714,1.714,0,0,1-1.715-1.714V667.556a1.714,1.714,0,0,1,1.715-1.714h38.227a1.715,1.715,0,0,1,1.715,1.714v11.174a1.715,1.715,0,0,1-1.715,1.714m-36.512-3.429h34.8v-7.745h-34.8Z" transform="translate(-497.311 -502.757)" fill="#1a1311"/>
        <rect id="Rectangle_330" data-name="Rectangle 330" width="38.227" height="21.466" transform="translate(163.031 175.973)" fill="#e0e0e0"/>
        <path id="Path_2251" data-name="Path 2251" d="M698.568,736.359H660.342a1.714,1.714,0,0,1-1.715-1.714V713.178a1.714,1.714,0,0,1,1.715-1.714h38.227a1.715,1.715,0,0,1,1.715,1.714v21.466a1.715,1.715,0,0,1-1.715,1.714m-36.512-3.429h34.8V714.893h-34.8Z" transform="translate(-497.311 -537.205)" fill="#1a1311"/>
        <path id="Path_2252" data-name="Path 2252" d="M702.366,551.484a2.5,2.5,0,1,1-2.5-2.5,2.5,2.5,0,0,1,2.5,2.5" transform="translate(-526.562 -414.521)" fill="#1a1311"/>
        <line id="Line_98" data-name="Line 98" y2="31.758" transform="translate(151.517 241.253)" fill="#e0e0e0"/>
        <path id="Path_2253" data-name="Path 2253" d="M613.333,1013.176a1.715,1.715,0,0,1-1.715-1.715V979.7a1.714,1.714,0,1,1,3.429,0v31.758a1.714,1.714,0,0,1-1.714,1.715" transform="translate(-461.815 -738.451)" fill="#1a1311"/>
        <path id="Path_2254" data-name="Path 2254" d="M464,250.561c1.553,4.618.108,9.271-3.227,10.392s-7.3-1.713-8.851-6.331-.108-9.271,3.227-10.392,7.3,1.713,8.851,6.33" transform="translate(-340.759 -184.225)" fill="#fff"/>
        <path id="Path_2255" data-name="Path 2255" d="M454.006,257.608c-3.676,0-7.44-3.092-9-7.738a12.422,12.422,0,0,1-.232-7.562,6.921,6.921,0,0,1,11.175-3.758,13.064,13.064,0,0,1,4.617,13.728,7.275,7.275,0,0,1-4.537,5,6.322,6.322,0,0,1-2.02.328M451.368,240.4a3.008,3.008,0,0,0-.965.155,3.957,3.957,0,0,0-2.356,2.768,8.982,8.982,0,0,0,.207,5.452c1.228,3.652,4.288,6.056,6.679,5.252a3.958,3.958,0,0,0,2.356-2.768,9.657,9.657,0,0,0-3.337-9.922,4.512,4.512,0,0,0-2.585-.937" transform="translate(-335.471 -178.926)" fill="#1a1311"/>
        <path id="Path_2256" data-name="Path 2256" d="M731.273,250.561c-1.553,4.618-.108,9.271,3.227,10.392s7.3-1.713,8.851-6.331.108-9.271-3.227-10.392-7.3,1.713-8.851,6.33" transform="translate(-551.692 -184.225)" fill="#fff"/>
        <path id="Path_2257" data-name="Path 2257" d="M730.735,257.618a6.474,6.474,0,0,1-2.071-.339,7.275,7.275,0,0,1-4.537-5,13.064,13.064,0,0,1,4.617-13.728,6.921,6.921,0,0,1,11.175,3.758,13.065,13.065,0,0,1-4.617,13.728,7.869,7.869,0,0,1-4.567,1.582m2.588-17.216a4.511,4.511,0,0,0-2.585.937,9.656,9.656,0,0,0-3.337,9.922,3.527,3.527,0,0,0,5.905,1.986,9.656,9.656,0,0,0,3.337-9.922,3.958,3.958,0,0,0-2.356-2.768,3.015,3.015,0,0,0-.965-.155m-7.339,4.86h0Z" transform="translate(-546.404 -178.926)" fill="#1a1311"/>
        <path id="Path_2258" data-name="Path 2258" d="M490.243,104.035c-1.927,7.888-1.773,20.088-1.147,31.294,1.562,27.965,14.047,36.388,32.732,36.388,20.78,0,27.1-14.784,28.915-32.535.974-9.512,3.632-22.406,1.144-33.062s-9.641-24.742-35.949-23.106c-16.555,1.029-22.213,6.769-25.695,21.021" transform="translate(-368.984 -62.582)" fill="#fff"/>
        <path id="Path_2259" data-name="Path 2259" d="M516.561,168.147c-10.575,0-18.423-2.684-23.994-8.2-6.258-6.2-9.676-15.95-10.45-29.8-.823-14.739-.433-25.139,1.194-31.8h0c1.972-8.071,4.513-12.965,8.5-16.366,4.188-3.575,9.973-5.413,18.757-5.959,20.943-1.3,33.637,6.916,37.725,24.427,2.05,8.78.768,18.706-.364,27.463-.282,2.181-.548,4.241-.745,6.163-1.075,10.5-3.586,18.28-7.677,23.774-5.089,6.835-12.809,10.3-22.944,10.3m-29.919-68.99h0c-1.545,6.324-1.9,16.4-1.1,30.792.724,12.967,3.812,21.981,9.44,27.558,4.9,4.852,11.955,7.21,21.58,7.21,16.624,0,25.016-9.559,27.21-31,.2-1.967.47-4.049.755-6.253,1.094-8.469,2.334-18.068.425-26.244-3.7-15.859-14.881-22.985-34.173-21.785-7.993.5-13.157,2.084-16.743,5.145-3.394,2.9-5.6,7.256-7.393,14.572" transform="translate(-363.718 -57.297)" fill="#1a1311"/>
        <path id="Path_2260" data-name="Path 2260" d="M478.659,213.493s-.369,6.157-.2,14.311c.206,9.743,2.156,24.5,2.156,24.5a138.833,138.833,0,0,1-5.816-22.936,123.835,123.835,0,0,1-1.242-13.723Z" transform="translate(-357.573 -161.201)" fill="#bdbebf"/>
        <path id="Path_2261" data-name="Path 2261" d="M475.333,248.737a1.715,1.715,0,0,1-1.609-1.123,139.213,139.213,0,0,1-5.9-23.252,109.226,109.226,0,0,1-1.187-12.534c-.028-.608-.05-1.088-.07-1.31a1.714,1.714,0,0,1,1.039-1.734l5.1-2.156a1.714,1.714,0,0,1,2.379,1.681c0,.061-.362,6.19-.193,14.172.2,9.535,2.123,24.169,2.142,24.316a1.716,1.716,0,0,1-1.7,1.939m-5.277-37.264q0,.1.009.2a106.092,106.092,0,0,0,1.146,12.139q.184,1.125.384,2.221c-.062-1.2-.107-2.369-.13-3.477-.1-4.9-.012-9.117.078-11.71Z" transform="translate(-352.288 -155.915)" fill="#1a1311"/>
        <path id="Path_2262" data-name="Path 2262" d="M731.55,197.752a170.547,170.547,0,0,1,1.307,17.512c.2,9.965-.568,21.11-1.176,23.394,0,0,5.1-17.839,5.685-21.956s.882-16.173.882-16.173Z" transform="translate(-552.373 -149.316)" fill="#bdbebf"/>
        <path id="Path_2263" data-name="Path 2263" d="M726.4,235.087a1.716,1.716,0,0,1-1.658-2.157c.514-1.925,1.321-12.672,1.119-22.918a170.114,170.114,0,0,0-1.291-17.314,1.714,1.714,0,0,1,2.355-1.816l6.7,2.777a1.714,1.714,0,0,1,1.057,1.626c-.012.5-.3,12.205-.9,16.374-.6,4.184-5.524,21.451-5.734,22.184a1.715,1.715,0,0,1-1.647,1.244m1.915-39.916c.351,3.25.857,8.821.975,14.774.04,2.007.04,4.1.01,6.169.539-2.165.948-3.966,1.087-4.94.461-3.227.742-11.683.833-14.8Z" transform="translate(-547.087 -144.03)" fill="#1a1311"/>
        <path id="Path_2264" data-name="Path 2264" d="M450.76,72.6s-7.351.882-7.646-2.941,5.587-8.135,5.587-8.135S448.407,18.2,485.164,18.2s35.875,39.4,35.875,39.4,5.881,1.764,4.411,6.469-3.823,5.293-3.823,5.293a25.077,25.077,0,0,0-1.176-4.411c-.588-1.176-3.823-3.529-8.233-3.529s-8.625,1.764-10.684,2.059-10.292-1.176-16.467-1.176-15.781,1.764-17.251,1.764-4.607-1.764-9.017-1.176-10.39,4.215-9.508,5.685a17.306,17.306,0,0,1,1.47,4.019" transform="translate(-334.575 -13.742)" fill="#04427d"/>
        <path id="Path_2265" data-name="Path 2265" d="M443.748,69.121c-1.8,0-4.412-.264-6.053-1.611a4.226,4.226,0,0,1-1.573-3c-.3-3.893,3.85-7.7,5.594-9.114.114-4.238,1.291-22.677,12.979-34.444,6.424-6.468,14.9-9.747,25.186-9.747,10.88,0,19.665,3.343,26.112,9.936,10.187,10.418,11.35,25.613,11.467,30.011a8.509,8.509,0,0,1,3.985,3.489A5.951,5.951,0,0,1,521.8,59.3a11.871,11.871,0,0,1-2.917,5.141,5.035,5.035,0,0,1-2.126,1.3,1.715,1.715,0,0,1-2.1-1.356,22.393,22.393,0,0,0-1.023-3.951,9.076,9.076,0,0,0-6.7-2.581,28.659,28.659,0,0,0-7.618,1.359,24.4,24.4,0,0,1-2.823.682,34.648,34.648,0,0,1-6.536-.408c-3.111-.335-6.982-.751-10.173-.751a109.613,109.613,0,0,0-13.351,1.3c-2.228.312-3.324.461-3.9.461a9.156,9.156,0,0,1-2.4-.477,15.1,15.1,0,0,0-6.394-.714,16.348,16.348,0,0,0-7.949,3.682,20.332,20.332,0,0,1,1.356,3.937,1.714,1.714,0,0,1-1.466,2.088,17.137,17.137,0,0,1-1.933.1M479.88,14.63c-9.342,0-17,2.939-22.753,8.735-12,12.078-12,32.657-11.995,32.863a1.715,1.715,0,0,1-.7,1.394c-1.667,1.227-5.058,4.462-4.891,6.621a.8.8,0,0,0,.328.615,6.272,6.272,0,0,0,3.337.824,8.908,8.908,0,0,0-.671-1.5,2.448,2.448,0,0,1-.043-2.4c1.227-2.547,6.961-5.353,10.795-5.865a18.319,18.319,0,0,1,7.782.814,9.3,9.3,0,0,0,1.462.348c.363,0,1.92-.218,3.425-.428a112.013,112.013,0,0,1,13.826-1.336,104.77,104.77,0,0,1,10.54.77,42.368,42.368,0,0,0,5.684.423,22.829,22.829,0,0,0,2.386-.591,31.9,31.9,0,0,1,8.54-1.485c4.912,0,8.829,2.6,9.767,4.476a11.414,11.414,0,0,1,.683,1.966,11.036,11.036,0,0,0,1.146-2.593,2.505,2.505,0,0,0-.108-2.022,5.961,5.961,0,0,0-3.165-2.3,1.722,1.722,0,0,1-1.215-1.678c0-.175.242-17.778-10.516-28.762-5.776-5.9-13.731-8.888-23.645-8.888" transform="translate(-329.291 -8.456)" fill="#1a1311"/>
        <path id="Path_2266" data-name="Path 2266" d="M604.421,240.438c-2.8,10.5-3.964,11.2-3.748,12.773s4.746,4.746,4.746,4.746" transform="translate(-453.532 -181.547)" fill="#fff"/>
        <path id="Path_2267" data-name="Path 2267" d="M600.126,254.384a1.705,1.705,0,0,1-.982-.31c-4.251-2.976-5.316-4.86-5.461-5.917a6.8,6.8,0,0,1,.71-3.531,103.782,103.782,0,0,0,3.08-9.917,1.715,1.715,0,1,1,3.313.884,106.842,106.842,0,0,1-3.173,10.211,5.915,5.915,0,0,0-.54,1.821,17.237,17.237,0,0,0,4.037,3.64,1.715,1.715,0,0,1-.985,3.119m-3.046-6.693h0Z" transform="translate(-448.241 -176.26)" fill="#1a1311"/>
        <path id="Path_2268" data-name="Path 2268" d="M552.861,231.108a2.664,2.664,0,1,1-2.834-2.483,2.664,2.664,0,0,1,2.834,2.483" transform="translate(-413.43 -172.623)" fill="#1a1311"/>
        <path id="Path_2269" data-name="Path 2269" d="M674.57,231.108a2.664,2.664,0,1,1-2.834-2.483,2.664,2.664,0,0,1,2.834,2.483" transform="translate(-505.329 -172.623)" fill="#1a1311"/>
        <path id="Path_2270" data-name="Path 2270" d="M598.68,352.044c0,17.049-21.142,17.049-21.142,0Z" transform="translate(-436.083 -265.817)" fill="#fff"/>
        <path id="Path_2271" data-name="Path 2271" d="M582.823,361.261a11.537,11.537,0,0,1-8.523-3.744,15.435,15.435,0,0,1-3.763-10.758,1.715,1.715,0,0,1,1.715-1.715h21.142a1.714,1.714,0,0,1,1.714,1.715,15.435,15.435,0,0,1-3.763,10.758,11.537,11.537,0,0,1-8.523,3.744m-8.761-12.787c.534,4.779,3.326,9.358,8.761,9.358s8.227-4.579,8.761-9.358Z" transform="translate(-430.796 -260.533)" fill="#1a1311"/>
        <path id="Path_2272" data-name="Path 2272" d="M465.958,182.393c4.215-3.137,9.9-3.529,12.84-4.117" transform="translate(-351.832 -134.61)" fill="#04427d"/>
        <path id="Path_2273" data-name="Path 2273" d="M460.674,178.821a1.715,1.715,0,0,1-1.025-3.09c3.807-2.833,8.616-3.61,11.8-4.125.666-.108,1.241-.2,1.729-.3a1.714,1.714,0,0,1,.672,3.362c-.551.11-1.184.212-1.854.321-3.024.489-7.165,1.158-10.3,3.49a1.707,1.707,0,0,1-1.022.339" transform="translate(-346.546 -129.324)" fill="#1a1311"/>
        <path id="Path_2274" data-name="Path 2274" d="M731.987,173.654a19.053,19.053,0,0,0-9.508-1.7" transform="translate(-545.523 -129.792)" fill="#04427d"/>
        <path id="Path_2275" data-name="Path 2275" d="M726.7,170.091a1.7,1.7,0,0,1-.815-.207,17.449,17.449,0,0,0-8.527-1.5,1.715,1.715,0,0,1-.328-3.413,20.78,20.78,0,0,1,10.489,1.9,1.715,1.715,0,0,1-.818,3.222" transform="translate(-540.238 -124.514)" fill="#1a1311"/>
        <path id="Path_2276" data-name="Path 2276" d="M552,37.773l4.8-29.209S559.546,7,566.9,7s9.018,2.156,9.018,2.156L581.4,37.185" transform="translate(-416.799 -5.281)" fill="#04427d"/>
        <path id="Path_2277" data-name="Path 2277" d="M546.714,34.2a1.734,1.734,0,0,1-.28-.023,1.715,1.715,0,0,1-1.413-1.97L549.823,3a1.714,1.714,0,0,1,.841-1.21C550.985,1.607,554.023,0,561.611,0c7.8,0,10.01,2.351,10.374,2.823a1.714,1.714,0,0,1,.326.719L577.8,31.57a1.714,1.714,0,1,1-3.365.659L569.063,4.793c-.675-.425-2.708-1.368-7.452-1.368A27.166,27.166,0,0,0,553.052,4.5L548.4,32.766a1.715,1.715,0,0,1-1.69,1.437" transform="translate(-411.512 0.004)" fill="#1a1311"/>
        <path id="Path_2278" data-name="Path 2278" d="M598.837,137.492c0,2.159-3.391,3.91-7.575,3.91s-7.575-1.75-7.575-3.91,3.391-3.91,7.575-3.91,7.575,1.751,7.575,3.91" transform="translate(-440.726 -100.863)" fill="#fff"/>
        <line id="Line_99" data-name="Line 99" y1="11.892" x2="35.837" transform="translate(23.451 143.646)" fill="#04427d"/>
        <path id="Path_2279" data-name="Path 2279" d="M90.689,594.954a1.64,1.64,0,0,1-.516-3.2l35.837-11.892a1.64,1.64,0,0,1,1.033,3.112L91.206,594.87a1.63,1.63,0,0,1-.517.084" transform="translate(-67.239 -437.776)" fill="#1a1311"/>
        <rect id="Rectangle_331" data-name="Rectangle 331" width="78.191" height="101.322" transform="translate(128.032 146.169)" fill="#fff"/>
        <path id="Path_2280" data-name="Path 2280" d="M595.637,694.527H517.446a1.714,1.714,0,0,1-1.714-1.715V591.491a1.715,1.715,0,0,1,1.714-1.715h78.191a1.715,1.715,0,0,1,1.715,1.715V692.813a1.714,1.714,0,0,1-1.715,1.715M519.161,691.1h74.762V593.205H519.161Z" transform="translate(-389.415 -445.322)" fill="#1a1311"/>
        <rect id="Rectangle_332" data-name="Rectangle 332" width="36.815" height="13.683" transform="translate(148.72 146.169)" fill="#fff"/>
        <path id="Path_2281" data-name="Path 2281" d="M638.727,606.888H601.912a1.714,1.714,0,0,1-1.714-1.714V591.491a1.714,1.714,0,0,1,1.714-1.715h36.815a1.714,1.714,0,0,1,1.715,1.715v13.683a1.714,1.714,0,0,1-1.715,1.714m-35.1-3.429h33.386V593.205H603.627Z" transform="translate(-453.193 -445.322)" fill="#1a1311"/>
        <path id="Path_2282" data-name="Path 2282" d="M633.229,620.271a1.871,1.871,0,1,1-1.871-1.871,1.871,1.871,0,0,1,1.871,1.871" transform="translate(-475.307 -466.935)" fill="#1a1311"/>
        <path id="Path_2283" data-name="Path 2283" d="M723.68,620.271a1.871,1.871,0,1,1-1.871-1.871,1.871,1.871,0,0,1,1.871,1.871" transform="translate(-543.604 -466.935)" fill="#1a1311"/>
        <path id="Path_2284" data-name="Path 2284" d="M110.274,593.5a2.5,2.5,0,1,1-2.5-2.5,2.5,2.5,0,0,1,2.5,2.5" transform="translate(-79.49 -446.245)" fill="#1a1311"/>
        <path id="Path_2285" data-name="Path 2285" d="M903.052,980.14a2.5,2.5,0,1,1-2.5-2.5,2.5,2.5,0,0,1,2.5,2.5" transform="translate(-678.094 -738.187)" fill="#1a1311"/>
        <path id="Path_2286" data-name="Path 2286" d="M916.447,634.433a2.5,2.5,0,1,1-3.2-1.494,2.5,2.5,0,0,1,3.2,1.494" transform="translate(-688.322 -477.799)" fill="#1a1311"/>
        <path id="Path_2287" data-name="Path 2287" d="M881.764,645.347a1.715,1.715,0,0,1-1.667-1.321l-9.255-39.189a1.714,1.714,0,0,1,1.412-2.089l15.28-2.311a1.715,1.715,0,0,1,.513,3.391l-13.44,2.032,8.452,35.784,18.1-3.4a1.714,1.714,0,0,1,.634,3.37l-19.708,3.707a1.726,1.726,0,0,1-.319.03" transform="translate(-657.513 -453.358)" fill="#1a1311"/>
        <path id="Path_2288" data-name="Path 2288" d="M884.215,657.9a1.715,1.715,0,0,1-.586-3.326c.817-.3,9.946-1.729,17.46-2.877a1.715,1.715,0,1,1,.518,3.39c-5.995.916-15.834,2.461-16.862,2.729a1.715,1.715,0,0,1-.53.085m.586-.1-.041.015.041-.015" transform="translate(-666.351 -492.062)" fill="#1a1311"/>
        <path id="Path_2289" data-name="Path 2289" d="M357.543,761.233s-.326-29.322-1.3-39.421" transform="translate(-268.987 -545.019)" fill="#e0e0e0"/>
        <path id="Path_2290" data-name="Path 2290" d="M352.257,757.661a1.715,1.715,0,0,1-1.714-1.7c0-.292-.336-29.364-1.3-39.275a1.715,1.715,0,0,1,3.413-.33c.973,10.057,1.3,38.367,1.311,39.567a1.715,1.715,0,0,1-1.7,1.734h-.02" transform="translate(-263.701 -539.732)" fill="#1a1311"/>
        <path id="Path_2291" data-name="Path 2291" d="M904.268,817.584s10.751,0,14.009.977" transform="translate(-682.787 -617.333)" fill="#e0e0e0"/>
        <path id="Path_2292" data-name="Path 2292" d="M912.991,814.991a1.718,1.718,0,0,1-.494-.073c-2.473-.742-10.6-.905-13.516-.905a1.715,1.715,0,0,1,0-3.429c1.126,0,11.1.029,14.5,1.05a1.715,1.715,0,0,1-.492,3.357" transform="translate(-677.501 -612.048)" fill="#1a1311"/>
        <path id="Path_2293" data-name="Path 2293" d="M907.118,865.8a3.986,3.986,0,0,1-.574-.035l.514-3.39-.042-.006c.041,0,4.405.336,8.873-7.761,2.357-4.273,3.015-10,1.853-16.119a42.112,42.112,0,0,0-8.851-18.462,1.715,1.715,0,0,1,2.664-2.16c9.993,12.325,13.01,28.114,7.337,38.4-2.335,4.233-5.025,7.117-8,8.571a8.684,8.684,0,0,1-3.776.964" transform="translate(-684.506 -617.07)" fill="#1a1311"/>
        <path id="Path_2294" data-name="Path 2294" d="M776.831,805.422c-.392-3.138-1.411-12.022-7.658-17.671a48.823,48.823,0,0,0-6.677-4.828l.454,6.942c-.944-.315-3.59-1.222-6.155-2.036-2.667-.847-5.869-.9-9.716-.941-6.668-.066-10-.883-10,2.942,0,2.02,3.432,4.511,8.214,4.98a54.167,54.167,0,0,1,8.572,1.49c-1.573-.315-17.512-2.443-17.72,2.542-.095,2.264,4.37,3.828,8.905,4.83a86.761,86.761,0,0,0,9.342,1.462s-15.342-3.365-14.713,2.3c.277,2.491,5.014,4.776,8.58,5.148,4.539.474,9.594.734,9.594.734s-15.771-.342-13.712,5.346c.534,1.477,4.843,2.191,8.531,2.451s9.258.98,9.258.98v7.552c.53,1.524,3.278,2.333,5.783,2.333,4.4,0,6.581-4.923,7.9-8.467,1.3-3.5,1.905-12.629,1.223-18.085" transform="translate(-555.839 -591.162)" fill="#fff"/>
        <path id="Path_2295" data-name="Path 2295" d="M762.423,828.4c-2.857,0-6.509-.912-7.4-3.484a1.713,1.713,0,0,1-.095-.563v-6.037c-1.9-.23-5.223-.613-7.664-.785-8.956-.633-9.731-2.772-10.022-3.578a4.029,4.029,0,0,1,.47-3.887,5.9,5.9,0,0,1,2.09-1.7c-3.372-1.042-6.8-3.2-7.113-6.033a3.914,3.914,0,0,1,1.283-3.478q.148-.133.311-.253-.791-.3-1.447-.612c-2.523-1.206-3.764-2.723-3.69-4.506a3.93,3.93,0,0,1,1.587-2.979,7.7,7.7,0,0,1,2.729-1.259c-2.083-1.247-3.383-2.933-3.383-4.7a4.488,4.488,0,0,1,1.235-3.405c1.545-1.5,3.965-1.426,7.627-1.316.861.026,1.837.055,2.871.065,3.715.037,7.224.072,10.217,1.022,1.31.416,2.644.857,3.759,1.23l-.287-4.389a1.715,1.715,0,0,1,2.585-1.587,50.092,50.092,0,0,1,6.953,5.031c6.623,5.989,7.762,15.137,8.19,18.581l.019.149c.725,5.8.073,15.16-1.318,18.9-1.067,2.868-3.566,9.583-9.506,9.583m-4.068-4.481a6.727,6.727,0,0,0,4.068,1.052c1.656,0,3.868-.835,6.292-7.35,1.2-3.215,1.776-12.094,1.129-17.275h0l-.018-.15c-.386-3.1-1.41-11.327-7.088-16.461a36.966,36.966,0,0,0-3.593-2.8l.231,3.529a1.714,1.714,0,0,1-2.253,1.738l-.842-.283c-1.232-.416-3.3-1.112-5.29-1.745-2.5-.795-5.763-.827-9.214-.861-1.069-.011-2.063-.04-2.94-.067-2.277-.068-4.632-.139-5.136.35a1.564,1.564,0,0,0-.194.944c0,.673,2.292,2.844,6.667,3.274,2.453.241,4.726.638,6.2.929,2.9.573,3.507.692,3.894,1.627a1.722,1.722,0,0,1-2.026,2.321c-3.021-.6-13-1.368-15.392.506-.27.212-.276.346-.279.426,0,.007.51,1.526,7.562,3.084.809.179,1.624.34,2.415.483a47.7,47.7,0,0,1,6.924.979,1.714,1.714,0,0,1-.526,3.382c-.157-.015-3.157-.3-6.74-.937-2.772-.158-5.121.048-5.941.787-.119.107-.206.215-.169.551.123,1.1,3.47,3.258,7.054,3.632,4.442.464,9.454.725,9.5.727a1.714,1.714,0,0,1-.125,3.426c-4.906-.1-10.9.757-12.032,2.328a.586.586,0,0,0-.071.6c.416.33,2.3,1.109,7.079,1.446,3.695.261,9.127.961,9.357.99a1.714,1.714,0,0,1,1.495,1.7Z" transform="translate(-550.553 -585.877)" fill="#1a1311"/>
        <line id="Line_100" data-name="Line 100" x2="5.211" y2="1.796" transform="translate(207.39 198.866)" fill="#fff"/>
        <path id="Path_2296" data-name="Path 2296" d="M846.662,810.154a1.71,1.71,0,0,1-.558-.094l-5.211-1.8a1.715,1.715,0,0,1,1.117-3.242l5.211,1.8a1.715,1.715,0,0,1-.558,3.336" transform="translate(-634.06 -607.777)" fill="#1a1311"/>
        <path id="Path_2297" data-name="Path 2297" d="M808.5,837.536s7.882,1.6,8.471,1.792" transform="translate(-610.472 -632.398)" fill="#fff"/>
        <path id="Path_2298" data-name="Path 2298" d="M811.68,835.757a1.712,1.712,0,0,1-.523-.082c-.519-.148-4.649-1.008-8.288-1.744a1.714,1.714,0,0,1,.68-3.361c2.982.6,8.075,1.646,8.673,1.846a1.715,1.715,0,0,1-.542,3.341m-.517-.08h0Z" transform="translate(-605.186 -627.113)" fill="#1a1311"/>
        <line id="Line_101" data-name="Line 101" x2="6.908" y2="0.974" transform="translate(198.55 213.971)" fill="#fff"/>
        <path id="Path_2299" data-name="Path 2299" d="M812.27,871a1.768,1.768,0,0,1-.241-.017l-6.909-.974a1.715,1.715,0,0,1,.478-3.4l6.909.973A1.715,1.715,0,0,1,812.27,871" transform="translate(-606.809 -654.345)" fill="#1a1311"/>
        <line id="Line_102" data-name="Line 102" x2="4.723" y2="0.639" transform="translate(202.011 222.151)" fill="#fff"/>
        <path id="Path_2300" data-name="Path 2300" d="M824.213,904.065a1.728,1.728,0,0,1-.232-.016l-4.723-.638a1.715,1.715,0,1,1,.46-3.4l4.723.638a1.715,1.715,0,0,1-.228,3.414" transform="translate(-617.477 -679.561)" fill="#1a1311"/>
        <line id="Line_103" data-name="Line 103" x2="2.769" y2="11.214" transform="translate(69.193 173.073)" fill="#e0e0e0"/>
        <path id="Path_2301" data-name="Path 2301" d="M279.985,714.262a1.715,1.715,0,0,1-1.663-1.3l-2.769-11.214a1.715,1.715,0,1,1,3.329-.822l2.769,11.214a1.717,1.717,0,0,1-1.666,2.126" transform="translate(-208.024 -528.26)" fill="#1a1311"/>
      </g>
    </g>
  </g>
</svg>
