<svg xmlns="http://www.w3.org/2000/svg" xmlns:xlink="http://www.w3.org/1999/xlink" width="373.33" height="229.17" viewBox="0 0 373.33 229.17">
  <defs>
    <clipPath id="clip-path">
      <rect id="Rectangle_315" data-name="Rectangle 315" width="373.33" height="229.17" transform="translate(0 0)" fill="#eaeaea"/>
    </clipPath>
    <clipPath id="clip-path-2">
      <rect id="Rectangle_314" data-name="Rectangle 314" width="373.601" height="217.954" fill="none"/>
    </clipPath>
    <clipPath id="clip-path-3">
      <rect id="Rectangle_34" data-name="Rectangle 34" width="72.055" height="75.034" fill="none"/>
    </clipPath>
  </defs>
  <g id="Group_140" data-name="Group 140" transform="translate(-929.347 -1330.606)">
    <g id="Path_2124" data-name="Path 2124" transform="translate(929.347 1330.606)" fill="#fff">
      <path d="M 371.3299865722656 227.1700897216797 L 1.999993324279785 227.1700897216797 L 1.999993324279785 1.999987244606018 L 371.3299865722656 1.999987244606018 L 371.3299865722656 227.1700897216797 Z" stroke="none"/>
      <path d="M 4 3.999984741210938 L 4 225.1700897216797 L 369.3299865722656 225.1700897216797 L 369.3299865722656 3.999984741210938 L 4 3.999984741210938 M 0 -1.52587890625e-05 L 373.3299865722656 -1.52587890625e-05 L 373.3299865722656 229.1700897216797 L 0 229.1700897216797 L 0 -1.52587890625e-05 Z" stroke="none" fill="#325691"/>
    </g>
    <g id="Mask_Group_35" data-name="Mask Group 35" transform="translate(929.347 1330.606)" clip-path="url(#clip-path)">
      <g id="Group_136" data-name="Group 136" transform="translate(0 21.524)">
        <path id="Path_2030" data-name="Path 2030" d="M819.819,284.071l-6.882-3.341-7.057,14.585,6.97,3.262" transform="translate(-654.493 -227.727)" fill="#fff"/>
        <g id="Group_135" data-name="Group 135" transform="translate(0 0)">
          <g id="Group_134" data-name="Group 134" transform="translate(0 0)" clip-path="url(#clip-path-2)">
            <path id="Path_2031" data-name="Path 2031" d="M807.576,294.531a1.227,1.227,0,0,0,.521-2.339l-5.844-2.735,5.98-12.36,5.777,2.8a1.227,1.227,0,1,0,1.072-2.208l-6.882-3.341a1.228,1.228,0,0,0-1.641.57L799.5,289.507a1.228,1.228,0,0,0,.585,1.646l6.97,3.262a1.222,1.222,0,0,0,.519.116" transform="translate(-649.219 -222.455)" fill="#1a1311"/>
            <path id="Path_2032" data-name="Path 2032" d="M1031.83,736.121a18.144,18.144,0,0,0,17.628,15.941h36.153a14.23,14.23,0,0,0,14.416-15.941l-5.008-49.71a18.144,18.144,0,0,0-17.627-15.941h-36.153a14.23,14.23,0,0,0-14.416,15.941Z" transform="translate(-976.48 -543.883)" fill="#fff"/>
            <path id="Path_2033" data-name="Path 2033" d="M1044.181,748.016h36.153a15.456,15.456,0,0,0,15.636-17.291l-5.008-49.71a19.364,19.364,0,0,0-18.849-17.045h-36.153a15.457,15.457,0,0,0-15.637,17.291l5.008,49.71a19.364,19.364,0,0,0,18.848,17.045m27.933-81.592a16.919,16.919,0,0,1,16.406,14.837l5.008,49.71a13,13,0,0,1-13.194,14.591h-36.153a16.918,16.918,0,0,1-16.406-14.836h0l-5.008-49.71a13,13,0,0,1,13.195-14.591Zm-45.561,64.424h0Z" transform="translate(-971.203 -538.61)" fill="#1a1311"/>
            <path id="Path_2034" data-name="Path 2034" d="M659.533,341.189c-.5-.157-13.633,41.219-12.25,47.884,1.3,6.265,9.413,46.6,9.909,47.724s-24.456,2.653-35.675,1.8a308.418,308.418,0,0,1-35.867-4.677s-.076-23.269.174-24.078a28.487,28.487,0,0,1-11.067-7.379c-2.387-1.759,3.993-55,4.79-60.521.708-4.908,1.824-16.4,8.913-21.077,4.706-3.1,17.293-5.27,17.214-5.333-1.155-.933,16.889-4.81,31.556-2.551,7.291,1.122,12.011-4.882,18.67-2.7,3.59,1.175,16.726,3.868,16.726,3.868l-18.1-10.658,9.62-17.4s7.671,4.015,16.63,8.578c13.7,6.979,30.526,16.508,28.309,24.841-3.292,12.375-49.546,21.676-49.546,21.676" transform="translate(-500.213 -232.078)" fill="#04427d"/>
            <path id="Path_2035" data-name="Path 2035" d="M624.341,434.8c4.584,0,9.539-.164,13.57-.377,3.75-.2,7.205-.46,9.731-.737,4.319-.474,4.859-.832,5.235-1.365a1.307,1.307,0,0,0,.15-1.25c-.493-1.52-5.327-25.307-7.927-38.1-.9-4.417-1.607-7.906-1.92-9.415-.513-2.475,1.348-11.55,5.109-24.9,2.884-10.24,5.9-19.494,6.762-21.653,2.5-.527,12.7-2.752,23.094-6.112a102.929,102.929,0,0,0,17.086-6.961c5.694-3.1,8.877-6.164,9.73-9.37,1.139-4.281-1.683-8.933-8.626-14.221-5.923-4.511-13.966-8.8-20.312-12.03-8.85-4.507-16.541-8.531-16.618-8.571a1.227,1.227,0,0,0-1.643.493l-9.62,17.4a1.227,1.227,0,0,0,.451,1.651l11.591,6.824c-3.6-.795-7.522-1.706-9.21-2.258-3.9-1.276-7.169-.052-10.333,1.131-2.766,1.034-5.378,2.012-8.532,1.526a82.829,82.829,0,0,0-21.2-.032,72.67,72.67,0,0,0-7.691,1.305c-2.464.583-3.352,1.02-3.745,1.434l-.22.045c-3.125.64-12.634,2.588-16.778,5.321-7.077,4.668-8.526,15.2-9.3,20.861-.052.382-.1.738-.149,1.065-.436,3.026-2.237,17.89-3.6,31.727-2.764,28.155-1.609,29.29-.733,29.939.053.049.181.182.295.3a29.128,29.128,0,0,0,10.236,6.918c-.056,1.344-.1,4.375-.118,11.531-.012,5.854.007,11.684.007,11.742a1.227,1.227,0,0,0,.977,1.2,312.957,312.957,0,0,0,36.025,4.7c2.33.177,5.2.248,8.221.248m26.1-3.977c-4.334.854-23.953,2.053-34.136,1.281a321.117,321.117,0,0,1-34.736-4.462c-.024-8.613,0-21.587.148-22.8a1.227,1.227,0,0,0-.762-1.415,26.576,26.576,0,0,1-10.194-6.665c-.165-.171-.285-.3-.39-.393-.266-.826-.748-5.272,1.611-29,1.339-13.462,3.063-27.677,3.473-30.519.048-.332.1-.694.151-1.082.725-5.274,2.074-15.091,8.223-19.146,2.488-1.641,7.844-3.311,15.919-4.965,1-.2,1.487-.3,1.721-.828,2.6-1.08,17.558-3.86,30.267-1.9,3.786.583,6.963-.6,9.765-1.653,3.02-1.129,5.628-2.105,8.71-1.1,3.615,1.183,16.322,3.793,16.861,3.9a1.227,1.227,0,0,0,.869-2.26l-17.074-10.052,8.462-15.3c2.415,1.259,8.641,4.5,15.579,8.029,8.168,4.16,29.867,15.21,27.68,23.432-1.215,4.569-10.158,9.761-25.18,14.621-11.3,3.655-22.377,5.954-23.353,6.154a1.252,1.252,0,0,0-.671.316c-.285.258-.554.5-2.766,7.375-1.456,4.524-3.1,9.962-4.5,14.921-2.868,10.118-6.122,22.97-5.34,26.739.312,1.5,1.021,4.99,1.918,9.4,4.789,23.567,6.957,34.045,7.746,37.368m.256,1a1.9,1.9,0,0,0,.067.2,1.183,1.183,0,0,1-.067-.2m2.313-.795.013.03-.013-.03m-71.3-26.168c-.007.033-.015.058-.021.077.008-.026.015-.051.021-.077m-12.99-6.678h0m1.682-1.725Zm84-59.325a1.2,1.2,0,0,1-.539-.043,1.228,1.228,0,0,0,.539.043" transform="translate(-494.909 -226.804)" fill="#1a1311"/>
            <path id="Path_2036" data-name="Path 2036" d="M925.149,346.323s.321,13.442-3.5,18.75-3.5,5.209-3.5,5.209,13.95,19.016,21.268,18.38c9.551-.831,11.725-15.911,11.725-15.911s-4.258.546-7.743-7.027-.3-17.312-.3-17.312" transform="translate(-807.011 -280.936)" fill="#fff"/>
            <path id="Path_2037" data-name="Path 2037" d="M933.769,384.633c.162,0,.32-.007.477-.02,4.375-.38,7.992-3.488,10.458-8.987a33.247,33.247,0,0,0,2.376-7.971,1.218,1.218,0,0,0-.332-1.06,1.176,1.176,0,0,0-1.026-.335,3.879,3.879,0,0,1-2.023-.638c-1.155-.678-2.866-2.215-4.462-5.682-3.246-7.054-.283-16.325-.253-16.418a1.227,1.227,0,1,0-2.333-.762c-.136.416-3.288,10.287.356,18.206,1.559,3.388,3.48,5.716,5.71,6.92a7.173,7.173,0,0,0,1.7.664c-.747,3.468-3.426,13.013-10.38,13.618-1.483.129-5.067-.811-12.363-8.554-3.388-3.6-6.261-7.284-7.346-8.713.384-.6,1.223-1.845,3.048-4.383,4.011-5.578,3.741-18.93,3.727-19.5a1.227,1.227,0,0,0-1.226-1.2h-.03a1.227,1.227,0,0,0-1.2,1.256c0,.13.266,13.094-3.266,18-1.478,2.055-2.52,3.554-3.1,4.458-.5.782-.934,1.458-.408,2.186q.027.037.055.071a113.942,113.942,0,0,0,7.94,9.481c5.92,6.286,10.476,9.353,13.9,9.353" transform="translate(-801.734 -275.664)" fill="#1a1311"/>
            <path id="Path_2038" data-name="Path 2038" d="M937.145,471.638s-36.616,1.613-35.5,1.3,24.777,52.616,24.777,52.616,15.169-25.238,13.753-31.776-4.332-19.686-3.027-22.14" transform="translate(-793.014 -382.591)" fill="#fff"/>
            <path id="Path_2039" data-name="Path 2039" d="M950.385,511.287l.058,0a1.227,1.227,0,0,0,1.047-.692c4.653-9.628,5.757-23.2,5.865-32.9.062-5.633-.2-10.463-.424-13.523-.422-5.666-.684-6.059-.81-6.247a1.241,1.241,0,0,0-1.1-.546,1.229,1.229,0,0,0-1.084,1.635,136.43,136.43,0,0,1,.952,19.327c-.133,8.546-1.078,20.243-4.7,29.12-1.6-2.475-4.647-7.03-8.608-12.15-5.693-7.358-10.732-36.991-10.782-37.289a1.227,1.227,0,0,0-2.421.407c.209,1.243,5.195,30.542,11.262,38.384a166.688,166.688,0,0,1,9.688,13.882,1.228,1.228,0,0,0,1.05.592m4.782-51.457a1.2,1.2,0,0,1-1.028-.457,1.226,1.226,0,0,0,1.028.457" transform="translate(-815.163 -370.716)" fill="#1a1311"/>
            <path id="Path_2040" data-name="Path 2040" d="M977.082,479.163l-12.886.14,4.873,7.509,6.146.29Z" transform="translate(-841.646 -388.695)" fill="#1a1311"/>
            <path id="Path_2041" data-name="Path 2041" d="M941.577,519.964s5.729,17.07,7.7,26.682L942,562.543l-8.707-13.29s2.1-24.727,2.14-29.578Z" transform="translate(-808.008 -421.558)" fill="#1a1311"/>
            <path id="Path_2042" data-name="Path 2042" d="M974.955,445.929c-.066-.382,1.915-17.264,1.915-17.264l9.509-3.462s4.724,17.591,7.451,23.756c3.292,7.44,12.624,38.926,12.624,38.926s-7.913-10.662-13.5-16.413-14.184-17.315-14.184-17.315l5.377-4.892c-5.69-2.159-9.2-3.336-9.2-3.336" transform="translate(-873.049 -344.923)" fill="#04427d"/>
            <path id="Path_2043" data-name="Path 2043" d="M1001.173,483.84a1.228,1.228,0,0,0,1.176-1.576c-.382-1.289-9.392-31.648-12.678-39.074-2.658-6.008-7.342-23.4-7.389-23.578a1.227,1.227,0,0,0-1.605-.835l-9.509,3.462a1.227,1.227,0,0,0-.8,1.01c-2,17.057-1.943,17.392-1.905,17.614a1.227,1.227,0,0,0,.819.956c.031.01,2.779.935,7.277,2.615l-3.893,3.543a1.227,1.227,0,0,0-.159,1.64c.353.475,8.714,11.694,14.288,17.437,5.461,5.626,13.311,16.184,13.39,16.29a1.227,1.227,0,0,0,.986.5m-20.91-62.3c1.152,4.208,4.831,17.372,7.164,22.643,2.312,5.226,7.729,22.755,10.64,32.357-2.767-3.525-6.456-8.052-9.508-11.2-4.57-4.708-11.29-13.493-13.413-16.3l4.55-4.141a1.227,1.227,0,0,0-.39-2.055c-3.99-1.514-6.938-2.556-8.336-3.042.248-2.532,1.107-10.019,1.75-15.517Zm-10.59,19.116h0Z" transform="translate(-867.767 -339.651)" fill="#1a1311"/>
            <path id="Path_2044" data-name="Path 2044" d="M877.721,445.647c-1.2-7.738-3.474-18.705-3.474-18.705l7.889-.561,8.563,14.357-7.048,5.513s6.808,3.6,6.793,3.9a85.225,85.225,0,0,1-5.287,16.156c-3.048,6.442-14.068,22.531-14.068,22.531s8.5-31.2,6.633-43.194" transform="translate(-737.683 -345.879)" fill="#04427d"/>
            <path id="Path_2045" data-name="Path 2045" d="M865.814,484.8a1.227,1.227,0,0,0,1.013-.534c.452-.66,11.111-16.244,14.165-22.7a83.614,83.614,0,0,0,5.4-16.623c.04-.839-.6-1.22-1.651-1.85-.575-.344-1.374-.8-2.373-1.348-.609-.336-1.22-.668-1.755-.956l5.565-4.353a1.227,1.227,0,0,0,.3-1.6l-8.563-14.357a1.226,1.226,0,0,0-1.141-.6l-7.889.561a1.227,1.227,0,0,0-1.115,1.473c.023.109,2.279,11.027,3.463,18.645,1.8,11.6-6.52,42.373-6.6,42.683a1.227,1.227,0,0,0,1.184,1.55m18.006-39.4a87.1,87.1,0,0,1-5.047,15.116c-1.81,3.826-6.56,11.231-10.02,16.47,2.4-9.97,6.26-28.087,4.907-36.8h0c-.943-6.068-2.557-14.194-3.2-17.392l5.739-.408,7.622,12.779-6.2,4.847a1.227,1.227,0,0,0,.183,2.052c2.341,1.237,4.933,2.663,6.017,3.333" transform="translate(-732.41 -340.607)" fill="#1a1311"/>
            <path id="Path_2046" data-name="Path 2046" d="M941.671,422.106l-5.435-3.492s-.215,7.207-5.584,11.559l9.834,9.174s2.91-10.254,1.185-17.241" transform="translate(-800.448 -339.578)" fill="#fff"/>
            <path id="Path_2047" data-name="Path 2047" d="M935.2,435.3a1.227,1.227,0,0,0,1.18-.892c.122-.431,2.978-10.65,1.2-17.87a1.229,1.229,0,0,0-.528-.739l-5.435-3.491a1.227,1.227,0,0,0-1.89,1c0,.064-.281,6.712-5.13,10.642a1.227,1.227,0,0,0-.064,1.851l9.834,9.174a1.228,1.228,0,0,0,.837.33m.1-17.707c1,4.748-.1,11.005-.8,14.154l-7.321-6.83a17.761,17.761,0,0,0,4.751-9.485Z" transform="translate(-795.167 -334.306)" fill="#1a1311"/>
            <path id="Path_2048" data-name="Path 2048" d="M1012.192,417.415l-10.322,9.1c-.195.069-3.97-5.49-5.9-9.487-2.006-4.155-4.174-8.952-4.058-8.964l5.1-5.173s6.238,6.267,8.74,8.625,6.442,5.9,6.442,5.9" transform="translate(-881.989 -326.821)" fill="#fff"/>
            <path id="Path_2049" data-name="Path 2049" d="M996.568,422.476a1.317,1.317,0,0,0,.445-.083,1.23,1.23,0,0,0,.4-.235l10.322-9.1a1.227,1.227,0,0,0,.009-1.833c-.039-.035-3.958-3.563-6.421-5.884s-8.65-8.535-8.712-8.6a1.228,1.228,0,0,0-.87-.362h0a1.227,1.227,0,0,0-.871.366l-5.074,5.15a1.22,1.22,0,0,0-.224.289c-.316.567-.132,1,.271,1.948.223.526.55,1.265.946,2.139.831,1.835,1.882,4.08,2.811,6.005a66.333,66.333,0,0,0,3.673,6.4c.584.908,1.153,1.753,1.6,2.379.556.775,1.014,1.415,1.7,1.415m8.512-10.346-8.329,7.34a69.139,69.139,0,0,1-4.944-8.253c-1.625-3.365-3.165-6.747-3.745-8.121l3.685-3.74c1.812,1.814,5.941,5.935,7.893,7.775,1.705,1.607,4.1,3.781,5.44,5" transform="translate(-876.72 -321.547)" fill="#1a1311"/>
            <path id="Path_2050" data-name="Path 2050" d="M972.823,786.492a2.752,2.752,0,1,0,2.878-2.619,2.752,2.752,0,0,0-2.878,2.619" transform="translate(-844.516 -635.872)" fill="#fff"/>
            <path id="Path_2051" data-name="Path 2051" d="M970.3,785.327a3.988,3.988,0,1,0-.192,0c.064,0,.128,0,.192,0m-.005-5.5.073,0a1.522,1.522,0,1,1-.073,0" transform="translate(-839.242 -630.598)" fill="#1a1311"/>
            <rect id="Rectangle_313" data-name="Rectangle 313" width="373.601" height="35.111" transform="translate(0 181.616)" fill="#fff"/>
            <path id="Path_2052" data-name="Path 2052" d="M1.5,992.992H372.1a1.383,1.383,0,0,0,1.5-1.227V956.654a1.383,1.383,0,0,0-1.5-1.227H1.5A1.383,1.383,0,0,0,0,956.654v35.111a1.383,1.383,0,0,0,1.5,1.227m369.107-2.454H3V957.881h367.61Z" transform="translate(0 -775.038)" fill="#1a1311"/>
            <path id="Path_2053" data-name="Path 2053" d="M480.482,969.253l-90.421,8.173-31.713-6.568v-4.5Z" transform="translate(-230.659 -783.908)" fill="#e0e0e0"/>
            <path id="Path_2054" data-name="Path 2054" d="M384.788,973.381c.037,0,.074,0,.11-.005l90.421-8.173a1.227,1.227,0,0,0-.081-2.449L353.1,959.861a1.227,1.227,0,0,0-1.256,1.227v4.5a1.227,1.227,0,0,0,.978,1.2l31.713,6.568a1.233,1.233,0,0,0,.249.025m68.857-8.683-68.786,6.218L354.3,964.586v-2.241Z" transform="translate(-225.385 -778.635)" fill="#1a1311"/>
            <line id="Line_83" data-name="Line 83" x1="23.138" y1="5.023" transform="translate(134.59 183.976)" fill="#e0e0e0"/>
            <path id="Path_2055" data-name="Path 2055" d="M865.331,976.429a.916.916,0,0,0,.193-1.81l-23.138-5.023a.916.916,0,0,0-.388,1.789l23.138,5.023a.913.913,0,0,0,.2.021" transform="translate(-707.602 -786.514)" fill="#1a1311"/>
            <path id="Path_2056" data-name="Path 2056" d="M821.512,866.606c.585-.2,4.125.471,6.64-.1s13.772-1.839,16.655-1.427,7.512,3.51,9.415,5.558c2.193,2.361,6.5,9.8,5.2,10.981s-5.488-2.839-5.488-2.839,3.613,6.408,2.329,7.3c-3.239,2.244-7.359-6.152-7.359-6.152s3.91,6.652,2.053,7.285c-3.091,1.052-7.109-4.62-7.109-4.62s3.33,4.627.705,5.563c-1.339.478-7.087-5.08-7.75-5.664s-4.052-.053-7.606-.911-6.01-2.38-6.129-2.8-7.542-.736-7.129-.717-3.7-8.295,5.577-11.452" transform="translate(-696.124 -701.681)" fill="#fff"/>
            <path id="Path_2057" data-name="Path 2057" d="M838.505,883.7a1.877,1.877,0,0,0,.641-.112,2.766,2.766,0,0,0,1.772-1.8c.015-.047.028-.095.04-.143a5.221,5.221,0,0,0,4.572,1,2.028,2.028,0,0,0,1.262-1.243c.025-.067.049-.139.07-.216a4.926,4.926,0,0,0,1.447.661,3.4,3.4,0,0,0,2.865-.5c1.214-.841.965-2.539.328-4.311a2.719,2.719,0,0,0,2.973-.26,2.2,2.2,0,0,0,.683-1.6c.053-1.273-.661-3.266-2.124-5.923a30.475,30.475,0,0,0-3.674-5.4c-2.021-2.176-6.887-5.5-10.221-5.981-3.107-.444-14.59.864-17.151,1.447a17.652,17.652,0,0,1-4.637.1,5.823,5.823,0,0,0-2.139.045c-3.76,1.28-6.048,3.507-6.8,6.619a12.086,12.086,0,0,0,.251,5.826l.039.156a1.367,1.367,0,0,0,0,.224,1.381,1.381,0,0,0,1.315,1.282h.038c1.507.059,5.235.289,6.34.5,1.337,1.353,4.835,2.551,6.623,2.983a26.53,26.53,0,0,0,5.439.605,14.911,14.911,0,0,1,1.7.111l.289.267c4.788,4.438,6.79,5.662,8.063,5.662m-1.6-6.125a7.032,7.032,0,0,1,1.434,3.318c-.6-.258-2.14-1.246-6.038-4.858-.217-.2-.376-.348-.459-.421-.676-.6-1.663-.628-3.3-.683a23.892,23.892,0,0,1-4.889-.531,15.694,15.694,0,0,1-5.27-2.179c-.451-.818-1.653-.947-4.694-1.168-.022,0-1.363-.1-2.463-.154-.73-3.16-.714-6.9,4.766-8.814.216-.006.741.03,1.17.06a19.715,19.715,0,0,0,5.433-.158c2.615-.6,13.574-1.776,16.159-1.407,1.992.285,6.355,2.711,8.608,5.136a29.045,29.045,0,0,1,5,8.725,15.46,15.46,0,0,1-3.343-2.5,1.365,1.365,0,0,0-2.134,1.655,22.718,22.718,0,0,1,2.416,5.64.8.8,0,0,1-.3-.028c-1.193-.31-2.788-2.358-3.927-4.263-.461-.894-.832-1.527-.854-1.566a1.365,1.365,0,0,0-2.4,1.293c.02.041.336.682.858,1.563a16.2,16.2,0,0,1,1.54,3.883,5.414,5.414,0,0,1-2.878-1.654,18.438,18.438,0,0,1-2.227-2.5l-.016-.022a1.365,1.365,0,0,0-2.221,1.586l.033.046m-21.011-4.272a1.454,1.454,0,0,0,.2.408,1.306,1.306,0,0,1-.2-.408m0,0h0m2.626-.746v0m-8.483-1.7c-.057,0-.105,0-.142,0a1.35,1.35,0,0,1,.247-.011v.009h-.1m6.057-8.8h0Z" transform="translate(-690.262 -695.836)" fill="#1a1311"/>
            <path id="Path_2058" data-name="Path 2058" d="M905.763,928.119a37.177,37.177,0,0,0-2.826-4.557c-.92-1.011-2.641-1.645-3.8-2.437" transform="translate(-758.044 -747.213)" fill="#fff"/>
            <path id="Path_2059" data-name="Path 2059" d="M899.9,923.62a1.366,1.366,0,0,0,1.2-2.012,36.09,36.09,0,0,0-3.019-4.829,10.016,10.016,0,0,0-2.745-1.9c-.481-.259-.935-.5-1.3-.75a1.365,1.365,0,0,0-1.539,2.255,17.351,17.351,0,0,0,1.541.9,8.25,8.25,0,0,1,2.021,1.33A33.675,33.675,0,0,1,898.7,922.9a1.365,1.365,0,0,0,1.2.719" transform="translate(-752.178 -741.349)" fill="#1a1311"/>
            <path id="Path_2060" data-name="Path 2060" d="M879.314,914.533c-1.025-1.707-2.511-3.944-3.65-4.687-1.52-.993-3.307-2.183-3.307-2.183" transform="translate(-726.538 -736.291)" fill="#fff"/>
            <path id="Path_2061" data-name="Path 2061" d="M873.45,910.034a1.365,1.365,0,0,0,1.169-2.068c-2.438-4.059-3.668-4.863-4.073-5.127-1.5-.978-3.279-2.165-3.3-2.177a1.365,1.365,0,1,0-1.513,2.272c.018.012,1.809,1.2,3.317,2.19.26.17,1.263.98,3.226,4.248a1.364,1.364,0,0,0,1.171.662" transform="translate(-720.673 -730.427)" fill="#1a1311"/>
            <path id="Path_2062" data-name="Path 2062" d="M849.859,903.954c-1.3-1.72-3.461-4.771-4.237-5.913s-3.644-2.844-3.644-2.844" transform="translate(-691.348 -726.18)" fill="#fff"/>
            <path id="Path_2063" data-name="Path 2063" d="M844,899.453a1.365,1.365,0,0,0,1.087-2.188c-1.334-1.763-3.475-4.794-4.2-5.857-.9-1.327-3.555-2.941-4.077-3.252a1.365,1.365,0,0,0-1.393,2.348,14.5,14.5,0,0,1,3.212,2.437c.735,1.083,2.918,4.173,4.278,5.97a1.363,1.363,0,0,0,1.09.542" transform="translate(-685.485 -720.314)" fill="#1a1311"/>
            <path id="Path_2064" data-name="Path 2064" d="M1021.891,685.827l-1.205,25.588,30.937,6.736s-4.8,5.394-6.294,10.676a25.73,25.73,0,0,0-.29,12.635s-45.755-6.3-48.132-14.733" transform="translate(-922.363 -556.34)" fill="#04427d"/>
            <path id="Path_2065" data-name="Path 2065" d="M1039.244,737.015a1.349,1.349,0,0,0,1.3-1.709,24.624,24.624,0,0,1,.288-11.906c1.4-4.927,5.958-10.1,6-10.147a1.349,1.349,0,0,0-.721-2.214l-29.823-6.494,1.152-24.449a1.349,1.349,0,1,0-2.694-.127l-1.206,25.588a1.349,1.349,0,0,0,1.06,1.381l28.793,6.269a30.823,30.823,0,0,0-5.159,9.457,27.478,27.478,0,0,0-.686,11.393c-3.719-.559-12.422-1.946-21.2-3.913-20.463-4.586-23.558-8.225-23.939-9.576a1.349,1.349,0,1,0-2.6.732c.683,2.422,3.65,4.568,9.338,6.754a123.322,123.322,0,0,0,16.623,4.726c11.656,2.611,23.171,4.208,23.286,4.224a1.35,1.35,0,0,0,.184.013" transform="translate(-916.568 -550.544)" fill="#1a1311"/>
            <path id="Path_2066" data-name="Path 2066" d="M1074.661,941.651a1.378,1.378,0,1,0,1.561-1.166,1.378,1.378,0,0,0-1.561,1.166" transform="translate(-962.821 -762.906)" fill="#1a1311"/>
            <path id="Path_2067" data-name="Path 2067" d="M1102.506,937.618a1.378,1.378,0,1,0,1.561-1.166,1.378,1.378,0,0,0-1.561,1.166" transform="translate(-995.923 -759.634)" fill="#1a1311"/>
            <path id="Path_2068" data-name="Path 2068" d="M792.891,312.138a1.378,1.378,0,1,0,1.561-1.166,1.378,1.378,0,0,0-1.561,1.166" transform="translate(-627.851 -252.248)" fill="#1a1311"/>
            <path id="Path_2069" data-name="Path 2069" d="M766.953,325.107a1.377,1.377,0,1,0,1.561-1.166,1.378,1.378,0,0,0-1.561,1.166" transform="translate(-597.015 -262.768)" fill="#1a1311"/>
            <line id="Line_84" data-name="Line 84" x1="7.542" y1="1.651" transform="translate(92.76 153.767)" fill="#04427d"/>
            <path id="Path_2070" data-name="Path 2070" d="M1152.55,812.03a1.227,1.227,0,0,0,.261-2.426l-7.542-1.651a1.227,1.227,0,0,0-.525,2.4l7.542,1.651a1.224,1.224,0,0,0,.264.029" transform="translate(-1052.247 -655.385)" fill="#1a1311"/>
            <path id="Path_2071" data-name="Path 2071" d="M990.17,866.794a25.534,25.534,0,0,1,4.629.885s-4.268,2.779-5.16,7.541,1.014,10.37,1.014,10.37l-5.9-1.276s-1.321-6.083-.1-10.513c1.561-5.641,5.514-7.008,5.514-7.008" transform="translate(-863.127 -703.136)" fill="#fff"/>
            <path id="Path_2072" data-name="Path 2072" d="M984.789,881.1a1.364,1.364,0,0,0,1.292-1.8c-.017-.052-1.777-5.336-.964-9.679.775-4.14,4.525-6.624,4.563-6.649a1.365,1.365,0,0,0-.386-2.461,23.1,23.1,0,0,0-5.093-.929,1.366,1.366,0,0,0-.341.071c-.189.065-4.651,1.673-6.384,7.934-1.3,4.7.02,10.9.077,11.166a1.365,1.365,0,0,0,1.045,1.044l5.9,1.276a1.36,1.36,0,0,0,.288.031m1.23-18.57a13.056,13.056,0,0,0-3.585,6.585,22.739,22.739,0,0,0,.446,8.812l-2.817-.609c-.293-1.76-.819-5.891.043-9.007,1.175-4.246,3.783-5.694,4.475-6.01a11.925,11.925,0,0,1,1.437.229" transform="translate(-857.263 -697.278)" fill="#1a1311"/>
            <path id="Path_2073" data-name="Path 2073" d="M294.829,773.844a1.721,1.721,0,0,0,1.75,2.224h84.3a3.063,3.063,0,0,0,2.827-2.224l12.943-53.482a1.721,1.721,0,0,0-1.75-2.225H310.6a3.063,3.063,0,0,0-2.827,2.225Z" transform="translate(-134.888 -582.55)" fill="#e0e0e0"/>
            <path id="Path_2074" data-name="Path 2074" d="M291.311,772.023h84.3a4.288,4.288,0,0,0,4.02-3.163l12.943-53.482a2.945,2.945,0,0,0-2.943-3.74h-84.3a4.288,4.288,0,0,0-4.02,3.163l-12.943,53.482a2.945,2.945,0,0,0,2.943,3.741m98.324-57.932a.508.508,0,0,1,.558.709l-12.943,53.482a1.844,1.844,0,0,1-1.634,1.286h-84.3a.508.508,0,0,1-.558-.709L303.7,715.377a1.844,1.844,0,0,1,1.634-1.286Z" transform="translate(-129.619 -577.277)" fill="#1a1311"/>
            <path id="Path_2075" data-name="Path 2075" d="M507.276,858.833c0,2.186,2.863,3.958,6.393,3.958s6.393-1.772,6.393-3.958-2.862-3.958-6.393-3.958-6.393,1.772-6.393,3.958" transform="translate(-298.358 -693.471)" fill="#fff"/>
            <line id="Line_85" data-name="Line 85" x1="69.566" transform="translate(180.604 139.027)" fill="#e0e0e0"/>
            <path id="Path_2076" data-name="Path 2076" d="M352.576,733.339h69.566a.916.916,0,1,0,0-1.831H352.576a.916.916,0,1,0,0,1.831" transform="translate(-171.971 -593.396)" fill="#1a1311"/>
            <line id="Line_86" data-name="Line 86" x1="10.808" y2="46.428" transform="translate(165.534 142.833)" fill="#e0e0e0"/>
            <path id="Path_2077" data-name="Path 2077" d="M743.6,799.923a.916.916,0,0,0,.891-.708L755.3,752.787a.915.915,0,1,0-1.783-.415L742.711,798.8a.916.916,0,0,0,.892,1.123" transform="translate(-578.068 -609.747)" fill="#1a1311"/>
            <path id="Path_2078" data-name="Path 2078" d="M810.837,143.238c3.615,1.389,3.054-3.219,3.054-3.219-.571,3.42.4,8.842-1.822,9.534,0,.257,0,.517-.012.784-.413,11.463-10.566,17.538-10.566,17.538l-1.483-29.856s9.6-4.185,10.83,5.22" transform="translate(-647.486 -111.207)" fill="#1a1311"/>
            <path id="Path_2079" data-name="Path 2079" d="M798.93,165.912a.591.591,0,0,0,.3-.084,24.6,24.6,0,0,0,5.269-4.588,21.639,21.639,0,0,0,5.584-13.436c0-.135.008-.273.01-.419,1.5-.853,1.546-3.443,1.593-6.173.008-.477.017-.961.033-1.435a6.159,6.159,0,0,0,.193-2.383.592.592,0,0,0-1.171-.026,17.847,17.847,0,0,0-.2,2.181,1.368,1.368,0,0,1-.409.608,1.453,1.453,0,0,1-1.329.085c-.414-2.613-1.518-4.443-3.286-5.444-3.454-1.955-8.117.038-8.314.124a.591.591,0,0,0-.355.572l1.483,29.856a.592.592,0,0,0,.591.562m11.576-24.6c-.04,2.266-.1,4.783-1.173,5.117a.591.591,0,0,0-.415.565c0,.287,0,.53-.012.762-.326,9.067-7.037,14.735-9.436,16.477l-1.41-28.377c1.112-.4,4.46-1.408,6.886-.032,1.506.854,2.429,2.513,2.745,4.931a.591.591,0,0,0,.374.476,3.014,3.014,0,0,0,2.442.08m-2.229-.633h0Z" transform="translate(-644.926 -108.654)" fill="#1a1311"/>
            <path id="Path_2080" data-name="Path 2080" d="M884.484,155.507c-.033,5.654-3.39,15.539-5.686,23.022-5.765,18.788-13.84,21.381-23.384,19.056-11.217-2.732-18.6-10.762-20.155-24.1-.769-6.62-.122-17.76,3.48-24.52s19.822-15.666,30.455-10.351,15.349,6.683,15.289,16.9" transform="translate(-724.65 -111.127)" fill="#fff"/>
            <path id="Path_2081" data-name="Path 2081" d="M855.522,194.258a14.354,14.354,0,0,0,8.417-2.542c4.436-3.052,7.953-8.972,10.752-18.1.307-1,.634-2.046.968-3.117,2.223-7.115,4.742-15.179,4.772-20.258.06-10.118-4.437-12.328-13.4-16.732-.815-.4-1.672-.822-2.571-1.271-11.364-5.68-28.261,3.691-32.087,10.872-3.945,7.4-4.323,19.149-3.616,25.238.787,6.774,3.055,12.389,6.739,16.689a26.7,26.7,0,0,0,14.344,8.467,24.062,24.062,0,0,0,5.678.75m22.455-44.027c-.028,4.712-2.489,12.59-4.66,19.54-.336,1.076-.663,2.124-.972,3.129-5.912,19.268-14.029,20.146-21.92,18.224-11.14-2.714-17.789-10.686-19.226-23.054-.811-6.975.086-17.687,3.344-23.8,1.718-3.224,6.531-6.9,11.976-9.146,8.683-3.582,14.283-1.966,16.848-.684.9.452,1.767.876,2.586,1.279,8.787,4.319,12.075,5.935,12.025,14.514" transform="translate(-719.37 -105.858)" fill="#1a1311"/>
            <path id="Path_2082" data-name="Path 2082" d="M858.326,128.319s-7.691-21.113,11.149-30.407c12.528-6.18,35.425,1,34.553,9.681-.116,1.154-7.443.365-15.9,10.772a6.926,6.926,0,0,1-1.319-5.755,21.573,21.573,0,0,1-11.113,3.827c-7.166.111-8.246,5.427-8.954,6.711s-2.918,9.893-2.918,9.893-2.349-5.652-4.308-5.578-1.189.856-1.189.856" transform="translate(-748.334 -77.544)" fill="#1a1311"/>
            <path id="Path_2083" data-name="Path 2083" d="M861.278,131.077h.042a.592.592,0,0,0,.531-.443,97.242,97.242,0,0,1,2.864-9.754,8.277,8.277,0,0,0,.352-.783c.8-1.933,2.289-5.532,8.093-5.622a21.485,21.485,0,0,0,10.38-3.234,7.269,7.269,0,0,0,1.608,4.97.584.584,0,0,0,.454.191.591.591,0,0,0,.441-.218c6.029-7.418,11.427-9.026,14.022-9.8,1.209-.36,1.938-.577,2.01-1.288.258-2.57-1.3-5.1-4.5-7.324-7.25-5.027-21.723-7.474-30.9-2.946-9.985,4.925-12.563,13.149-12.968,19.18a32.578,32.578,0,0,0,1.34,11.4,1.091,1.091,0,0,0,.32.769.592.592,0,0,0,.981-.607,3.586,3.586,0,0,1,.652-.073h.019c.959,0,2.672,2.695,3.72,5.214a.592.592,0,0,0,.546.364m22.985-21.614a.591.591,0,0,0-.351.116,21.136,21.136,0,0,1-10.771,3.712c-6.581.1-8.394,4.482-9.168,6.353-.115.278-.215.519-.295.665a75.876,75.876,0,0,0-2.555,8.426c-.917-1.832-2.529-4.479-4.176-4.417a4.392,4.392,0,0,0-.956.125,31.885,31.885,0,0,1-1.108-10.395,20.833,20.833,0,0,1,12.308-18.159c4.044-2,9.558-2.7,15.525-1.991,5.435.648,10.736,2.461,14.178,4.848,1.941,1.346,4.194,3.489,4.01,6.1a8.886,8.886,0,0,1-1.181.4c-2.637.785-8.05,2.4-14.112,9.594a6.6,6.6,0,0,1-.768-4.682.592.592,0,0,0-.582-.7" transform="translate(-745.789 -74.99)" fill="#1a1311"/>
            <path id="Path_2084" data-name="Path 2084" d="M943.836,401.936a10.749,10.749,0,0,1,6.371-1.053,4.786,4.786,0,0,1,3.912,2.465" transform="translate(-814.839 -325.135)" fill="#fff"/>
            <path id="Path_2085" data-name="Path 2085" d="M948.91,399.353a1.213,1.213,0,0,0,1.1-1.71,6,6,0,0,0-4.893-3.174,11.942,11.942,0,0,0-7.133,1.228,1.212,1.212,0,0,0,1.268,2.066,9.8,9.8,0,0,1,5.615-.882,3.62,3.62,0,0,1,2.932,1.757,1.212,1.212,0,0,0,1.106.715" transform="translate(-809.63 -319.928)" fill="#1a1311"/>
            <path id="Path_2086" data-name="Path 2086" d="M1093.758,260.566c-3.493-2.058-7.857-.761-8.29,2.746-.691,5.6,3.485,10.681,7.647,10.624" transform="translate(-981.204 -210.574)" fill="#fff"/>
            <path id="Path_2087" data-name="Path 2087" d="M1087.771,269.887h.083a1.227,1.227,0,0,0-.033-2.454,5.745,5.745,0,0,1-4.184-2.14,9.115,9.115,0,0,1-2.228-7.107,2.8,2.8,0,0,1,1.625-2.229,5.246,5.246,0,0,1,4.824.39,1.227,1.227,0,0,0,1.246-2.115,7.643,7.643,0,0,0-7.154-.477,5.274,5.274,0,0,0-2.977,4.13,11.6,11.6,0,0,0,2.836,9.046,8.214,8.214,0,0,0,5.962,2.957" transform="translate(-975.928 -205.297)" fill="#1a1311"/>
            <path id="Path_2088" data-name="Path 2088" d="M908.37,320.979c1.428,5.3,2.45,8.781,2.45,8.781l-4.418,1.574" transform="translate(-764.473 -260.377)" fill="#fff"/>
            <path id="Path_2089" data-name="Path 2089" d="M901.193,327.337a1.208,1.208,0,0,0,.407-.071l4.419-1.574a1.212,1.212,0,0,0,.756-1.484c-.01-.035-1.035-3.527-2.443-8.754a1.212,1.212,0,1,0-2.341.63c.95,3.529,1.727,6.273,2.139,7.707l-3.343,1.191a1.213,1.213,0,0,0,.407,2.355" transform="translate(-759.264 -255.168)" fill="#1a1311"/>
            <path id="Path_2090" data-name="Path 2090" d="M1092.3,292.972a3.273,3.273,0,0,0-1.814-2.639" transform="translate(-980.711 -235.517)" fill="#fff"/>
            <path id="Path_2091" data-name="Path 2091" d="M1087.093,288.975h.062a1.212,1.212,0,0,0,1.15-1.272,4.473,4.473,0,0,0-2.362-3.593,1.212,1.212,0,0,0-1.327,2.03c.828.541,1.229.932,1.266,1.685a1.213,1.213,0,0,0,1.21,1.151" transform="translate(-975.503 -230.308)" fill="#1a1311"/>
            <path id="Path_2092" data-name="Path 2092" d="M963.452,138.184a.908.908,0,0,0,.139-.011c4.735-.72,9.4-4.286,12.483-7.15a.916.916,0,0,0-1.247-1.341c-5.241,4.872-9.152,6.322-11.511,6.681a.916.916,0,0,0,.136,1.821" transform="translate(-840.617 -105)" fill="#fff"/>
            <path id="Path_2093" data-name="Path 2093" d="M941.339,149.04a.926.926,0,0,0,.168-.015c4.707-.872,9.249-4.586,12.23-7.548a.916.916,0,1,0-1.291-1.3c-5.069,5.037-8.928,6.612-11.273,7.046a.916.916,0,0,0,.165,1.816" transform="translate(-814.083 -113.496)" fill="#fff"/>
            <path id="Path_2094" data-name="Path 2094" d="M862.963,237.384s-3.023-1.728-3.613-4.036" transform="translate(-707.732 -189.292)" fill="#fff"/>
            <path id="Path_2095" data-name="Path 2095" d="M857.752,233.387a1.213,1.213,0,0,0,.6-2.265c-.719-.415-2.664-1.812-3.04-3.284a1.212,1.212,0,1,0-2.349.6,7.136,7.136,0,0,0,2.407,3.5,12.418,12.418,0,0,0,1.779,1.29,1.209,1.209,0,0,0,.6.16" transform="translate(-702.522 -184.082)" fill="#1a1311"/>
            <line id="Line_87" data-name="Line 87" x2="5.525" y2="1.507" transform="translate(171.615 81.937)" fill="#04427d"/>
            <path id="Path_2096" data-name="Path 2096" d="M743.562,431.439a1.227,1.227,0,0,0,.322-2.412l-5.525-1.507a1.227,1.227,0,0,0-.646,2.368l5.525,1.507a1.23,1.23,0,0,0,.324.044" transform="translate(-566.421 -346.768)" fill="#1a1311"/>
            <path id="Path_2097" data-name="Path 2097" d="M1191.384,200.5c-1.86-1.638-6.529-5.345-7.862-1.727-1.364,3.7,6.795,3.807,6.795,3.807" transform="translate(-1097.329 -159.998)" fill="#fff"/>
            <path id="Path_2098" data-name="Path 2098" d="M1186.254,199.463a.946.946,0,0,0,.012-1.891c-1.995-.027-5.137-.548-5.872-1.618a.908.908,0,0,1-.047-.917c.247-.67.568-.822.789-.877.394-.1,1.963-.18,5.561,2.987a.946.946,0,1,0,1.25-1.42c-3.069-2.7-5.516-3.846-7.275-3.4a3.017,3.017,0,0,0-2.1,2.057,2.772,2.772,0,0,0,.264,2.643c1.58,2.3,6.814,2.429,7.406,2.437h.012" transform="translate(-1093.266 -155.939)" fill="#1a1311"/>
            <path id="Path_2099" data-name="Path 2099" d="M1201.476,261.464c-2.446-.4-8.37-1.063-7.579,2.71.81,3.863,7.78-.381,7.78-.381" transform="translate(-1109.597 -211.843)" fill="#fff"/>
            <path id="Path_2100" data-name="Path 2100" d="M1191.982,262.661c2.53,0,5.7-1.879,6.123-2.134a.946.946,0,1,0-.983-1.615c-1.706,1.036-4.643,2.263-5.835,1.746a.908.908,0,0,1-.527-.752,1.166,1.166,0,0,1,.2-1.162c.281-.294,1.568-1.195,6.3-.421a.946.946,0,0,0,.305-1.867c-4.035-.66-6.717-.331-7.97.98a3.018,3.018,0,0,0-.687,2.858,2.772,2.772,0,0,0,1.627,2.1,3.634,3.634,0,0,0,1.447.268" transform="translate(-1105.533 -207.768)" fill="#1a1311"/>
            <path id="Path_2101" data-name="Path 2101" d="M1029.937,319.911c-1.063,1.978-3.376,6.86.092,7.293,3.549.443,1.964-6.779,1.964-6.779" transform="translate(-908.993 -259.511)" fill="#fff"/>
            <path id="Path_2102" data-name="Path 2102" d="M1026.651,324.4a2.448,2.448,0,0,0,1.868-.8c.763-.837,1.093-2.3.979-4.36a18.653,18.653,0,0,0-.35-2.677.857.857,0,0,0-1.674.367c.386,1.767.572,4.646-.221,5.515a.823.823,0,0,1-.8.23c-.642-.08-.842-.333-.937-.516-.452-.875.107-2.94,1.493-5.522a.857.857,0,1,0-1.51-.811c-1.754,3.264-2.261,5.659-1.507,7.119a2.735,2.735,0,0,0,2.247,1.43,3.3,3.3,0,0,0,.41.026" transform="translate(-905.311 -255.829)" fill="#1a1311"/>
            <path id="Path_2103" data-name="Path 2103" d="M820.459,539.922s2.815-7.541,3.253-8.84" transform="translate(-661.139 -430.812)" fill="#04427d"/>
            <path id="Path_2104" data-name="Path 2104" d="M815.184,535.875a1.228,1.228,0,0,0,1.15-.8c.115-.309,2.827-7.574,3.267-8.877a1.227,1.227,0,0,0-2.326-.784c-.427,1.266-3.212,8.728-3.24,8.8a1.228,1.228,0,0,0,1.15,1.657" transform="translate(-655.864 -425.537)" fill="#1a1311"/>
            <path id="Path_2105" data-name="Path 2105" d="M503.267,110.561h.011a2.345,2.345,0,0,0,1.757-.743c.183.007.367,0,.551-.006a4.321,4.321,0,0,0,3.311-1.935q.044-.073.084-.147.879.16,1.838.258a7.372,7.372,0,0,0,3.779-.372,3.9,3.9,0,0,0,2.252-2.668l.3.054c2.3.4,5.577.673,7.452-1.615a4.584,4.584,0,0,0,.833-1.574q1.152.131,2.31.2a5.768,5.768,0,0,0,3.956-.826,4.17,4.17,0,0,0,1.456-4.081,6.819,6.819,0,0,0,3.4-2.389,7.441,7.441,0,0,0,.685-6.857,14.774,14.774,0,0,0-3.828-5.346,33.119,33.119,0,0,0-27.789-8.536c-4.263.712-7.09,2.387-8.4,4.981a8.51,8.51,0,0,0,.288,7.606,15.377,15.377,0,0,0,3.357,4.257,10.038,10.038,0,0,0,.261,3.138A7.457,7.457,0,0,0,499.5,97.41a7.26,7.26,0,0,0,.339,3.626,6.2,6.2,0,0,0-.071,5.362,5.77,5.77,0,0,0,.8,1.223,2.965,2.965,0,0,0,.465,1.784,2.686,2.686,0,0,0,2.235,1.156m3.515-3.371a2.4,2.4,0,0,1-1.321.554,4.06,4.06,0,0,1-2.568-.778,1.5,1.5,0,0,1,.129-.168,2.857,2.857,0,0,1,1.141-.743,13.27,13.27,0,0,0,2.619,1.135m8.036-2.643a1.813,1.813,0,0,1-1.05,1.171,5.587,5.587,0,0,1-2.737.209q-.962-.1-1.825-.263a2.682,2.682,0,0,0-.1-.273c-.773-1.757-2.909-1.97-4.5-1.619l-.124.028q-.138-.1-.27-.2a7.286,7.286,0,0,1-2.025-2.389q.043-.051.087-.1a4.662,4.662,0,0,1,2.41-1.347,16.123,16.123,0,0,0,3.4,2.422,25.9,25.9,0,0,0,6.743,2.361m-12.524.155a4.391,4.391,0,0,0-.734.624,3.963,3.963,0,0,1-.286-1.716,9.45,9.45,0,0,0,1.02,1.091m21.049-3.18a2.406,2.406,0,0,1-.339.551c-.9,1.1-2.649,1.385-5.492.888q-.518-.091-1.055-.193a6.315,6.315,0,0,0-1.947-1.874,18.408,18.408,0,0,0-6.476-3.175,9.118,9.118,0,0,0-2.631-.169,10.059,10.059,0,0,1-1.926-3.042,7.04,7.04,0,0,1,1.04-.752,44.909,44.909,0,0,0,18.826,7.765m-15.054-1.6a14.344,14.344,0,0,1,3.406,1.6,19.18,19.18,0,0,1-2.637-1.16q-.395-.212-.768-.442m22.836-2.375a2.132,2.132,0,0,1-.664,1.987,3.945,3.945,0,0,1-2.586.413q-1.119-.067-2.232-.2a6.1,6.1,0,0,0-.539-2,9.849,9.849,0,0,0-3.6-3.9,20.314,20.314,0,0,0-11.333-3.495h-.051a14.044,14.044,0,0,0-5.392.982q-.558-.425-1.1-.87c-.182-.149-.37-.305-.562-.468a6.375,6.375,0,0,1,1.651-3.2c1.572-1.6,4.837-3.088,11.473-1.131,6.822,2.011,11.555,5.162,14.068,9.363.092.154.179.313.259.475a12.627,12.627,0,0,1-3.148-.212A1.036,1.036,0,0,0,527,97.336a14.389,14.389,0,0,0,4.129.208m-20.951-5.116a18.221,18.221,0,0,1,10.166,3.135,7.887,7.887,0,0,1,2.882,3.052,4.069,4.069,0,0,1,.276.832,42.848,42.848,0,0,1-16.69-6.624,13.36,13.36,0,0,1,3.32-.394h.046m-7.028,5.644A6.7,6.7,0,0,0,501.5,99a4.7,4.7,0,0,1,.042-1.243,4.981,4.981,0,0,1,.488-1.435,12.179,12.179,0,0,0,1.113,1.746m7.629-22.444a31.1,31.1,0,0,1,21.213,8.386,12.84,12.84,0,0,1,3.313,4.561,5.359,5.359,0,0,1-.417,4.925,4.747,4.747,0,0,1-2.28,1.591,8.931,8.931,0,0,0-.567-1.12c-2.789-4.663-7.924-8.124-15.261-10.287-4.205-1.24-9.967-1.958-13.534,1.665A8.17,8.17,0,0,0,501.37,88.4a11.946,11.946,0,0,1-2.006-2.772,6.447,6.447,0,0,1-.289-5.738c.686-1.356,2.44-3.129,6.895-3.873a29.193,29.193,0,0,1,4.8-.394" transform="translate(-314.02 -59.67)" fill="#1a1311"/>
            <path id="Path_2106" data-name="Path 2106" d="M1049.014,179.52a111.964,111.964,0,0,0-4.123,12.735c-4.478,17.506-1.466,29,.329,31.432,0,0-4.383-3.25-5.116-5.238-1.732-4.7-1.462-15.42-.236-24.8.416-3.181,3.263-13.968,3.263-13.968Z" transform="translate(-927.678 -145.627)" fill="#bdbebf"/>
            <path id="Path_2107" data-name="Path 2107" d="M1040,219.681a1.215,1.215,0,0,0,.978-1.937c-1.568-2.123-4.512-13.274-.129-30.41a111.579,111.579,0,0,1,4.071-12.58,1.215,1.215,0,0,0-1.16-1.671l-5.883.166a1.215,1.215,0,0,0-1.14.9c-.117.444-2.872,10.9-3.293,14.12-1.093,8.363-1.669,20.026.3,25.373.817,2.215,4.752,5.214,5.532,5.793a1.211,1.211,0,0,0,.723.239m2.005-44.116a114.514,114.514,0,0,0-3.511,11.167,67.41,67.41,0,0,0-2.222,21.765,39.6,39.6,0,0,0,.877,5.854,5.522,5.522,0,0,1-1.125-1.543c-1.474-4-1.543-13.73-.172-24.218.333-2.546,2.321-10.309,3-12.936Z" transform="translate(-922.458 -140.406)" fill="#1a1311"/>
            <path id="Path_2108" data-name="Path 2108" d="M836.364,65.232s10.073-1.429,10.983-4.242-3.965-8.051-3.965-8.051,6.924-28.1-20.565-35.041C791.323,9.952,785.3,41.009,785.3,41.009a5.976,5.976,0,0,0-2.884,5.5,5.188,5.188,0,0,0,3.347,4.741,17.826,17.826,0,0,1,1.62-3.074c.653-.776,5.268-.929,8.442-.642,3.388.307,17.035,3.975,18.526,4.567s7.609.073,12.251,1.14c3.878.892,8.3,1.854,11.924,3.989-.629,2.446-2.159,8-2.159,8" transform="translate(-677.701 -13.465)" fill="#04427d"/>
            <path id="Path_2109" data-name="Path 2109" d="M831.13,61.221a1.208,1.208,0,0,0,.171-.012,49.552,49.552,0,0,0,5.3-1.1c4.026-1.084,6.146-2.348,6.673-3.976.5-1.559-.08-3.563-1.786-6.127a27.543,27.543,0,0,0-2.017-2.643,38.191,38.191,0,0,0-.105-14.831C837.733,25,832.684,15.229,817.88,11.494c-9.767-2.464-18.166-1.524-24.964,2.8-10.1,6.42-13.323,18.126-13.933,20.75a7.1,7.1,0,0,0-3.015,6.325,6.378,6.378,0,0,0,4.2,5.821,1.215,1.215,0,0,0,1.476-.691,17.651,17.651,0,0,1,1.364-2.68c.734-.33,4.13-.6,7.468-.3,3.262.3,16.732,3.909,18.187,4.486a15.726,15.726,0,0,0,4.475.449,43.365,43.365,0,0,1,7.952.746l.457.1a43.307,43.307,0,0,1,10.326,3.3c-.7,2.661-1.9,7.027-1.917,7.076a1.215,1.215,0,0,0,1.171,1.537m-23.3-48.633a38.726,38.726,0,0,1,9.458,1.262c6.03,1.521,10.808,4.224,14.2,8.031a24.2,24.2,0,0,1,5.5,11.169,35.761,35.761,0,0,1-.018,14.372,1.214,1.214,0,0,0,.29,1.118c1.769,1.9,4.168,5.4,3.7,6.849-.015.046-.417,1.142-4.973,2.372-1.146.309-2.279.551-3.178.724.506-1.85,1.263-4.64,1.659-6.179a1.215,1.215,0,0,0-.56-1.349c-3.641-2.147-7.982-3.143-11.813-4.022l-.456-.1a45.2,45.2,0,0,0-8.421-.807,20.237,20.237,0,0,1-3.655-.278c-1.675-.665-15.438-4.338-18.864-4.648a37.7,37.7,0,0,0-5.349-.08c-2.938.179-3.737.682-4.131,1.15a11.573,11.573,0,0,0-1.262,2.167,4.153,4.153,0,0,1-1.563-3.133,4.735,4.735,0,0,1,2.252-4.351,1.216,1.216,0,0,0,.612-.836c.025-.13,2.68-13.154,12.978-19.685a24.879,24.879,0,0,1,13.592-3.741" transform="translate(-672.467 -8.239)" fill="#1a1311"/>
            <path id="Path_2110" data-name="Path 2110" d="M868.094,36.376s.071-8.922-.392-13.8c-.848-8.929-4.552-11.977-4.552-11.977S861.917,9.1,856.4,7.779a46.653,46.653,0,0,0-9.7-1.339s4.4,4.755,4.79,9.707c.428,5.448-1.514,14.889-1.684,15.343" transform="translate(-710.479 -5.225)" fill="#04427d"/>
            <path id="Path_2111" data-name="Path 2111" d="M862.872,32.371a1.215,1.215,0,0,0,1.215-1.205c0-.367.067-9.041-.4-13.926-.827-8.71-4.317-12.2-4.91-12.73-.432-.455-2.138-1.887-7.314-3.131A47.5,47.5,0,0,0,841.487,0h0a1.215,1.215,0,0,0-.892,2.04c.04.044,4.12,4.514,4.471,8.977.395,5.028-1.357,13.941-1.622,14.856a1.215,1.215,0,0,0,2.288.818c.217-.581,2.2-10.175,1.757-15.864A17.663,17.663,0,0,0,844.116,2.6a49.92,49.92,0,0,1,6.781,1.14c4.549,1.094,5.942,2.277,6.107,2.43a.64.64,0,0,0,.151.146c.024.021,3.335,2.94,4.115,11.153.452,4.762.387,13.588.386,13.677a1.215,1.215,0,0,0,1.205,1.225h.01m-19.42-6.526-.009.026.009-.026M856.991,6.152Z" transform="translate(-705.257 -0.005)" fill="#1a1311"/>
            <path id="Path_2112" data-name="Path 2112" d="M858.366,129.534c-.389,1.619,1.838,3.543,4.976,4.3s6,.053,6.386-1.566-1.838-3.544-4.976-4.3-6-.053-6.385,1.566" transform="translate(-714.346 -103.562)" fill="#fff"/>
            <path id="Path_2113" data-name="Path 2113" d="M854.148,179.687c-2.879-1.73-13.788-5.171-23.185-5.32" transform="translate(-693.557 -141.447)" fill="#04427d"/>
            <path id="Path_2114" data-name="Path 2114" d="M848.927,175.682a1.215,1.215,0,0,0,.627-2.256c-2.967-1.784-14.055-5.339-23.791-5.493h-.02a1.215,1.215,0,0,0-.019,2.43c9.5.15,20.131,3.675,22.578,5.146a1.21,1.21,0,0,0,.625.174" transform="translate(-688.337 -136.226)" fill="#1a1311"/>
            <path id="Path_2115" data-name="Path 2115" d="M802.835,230.4a50.583,50.583,0,0,1,5.811,3.117" transform="translate(-642.744 -186.904)" fill="#04427d"/>
            <path id="Path_2116" data-name="Path 2116" d="M803.426,229.516a1.215,1.215,0,0,0,.779-2.148,32.841,32.841,0,0,0-5.09-2.8c-.416-.2-.775-.376-.929-.458a1.215,1.215,0,1,0-1.14,2.146c.193.1.535.269,1.008.5a36.965,36.965,0,0,1,4.594,2.479,1.211,1.211,0,0,0,.778.282" transform="translate(-637.525 -181.683)" fill="#1a1311"/>
            <path id="Path_2117" data-name="Path 2117" d="M1053.659,144.432a14.694,14.694,0,0,1,7.437.44" transform="translate(-942.551 -116.917)" fill="#04427d"/>
            <path id="Path_2118" data-name="Path 2118" d="M1055.874,140.863a1.215,1.215,0,0,0,.4-2.364,15.908,15.908,0,0,0-8.146-.466,1.215,1.215,0,0,0,.626,2.348,13.582,13.582,0,0,1,6.727.415,1.218,1.218,0,0,0,.4.067" transform="translate(-937.33 -111.693)" fill="#1a1311"/>
          </g>
        </g>
      </g>
    </g>
    <path id="Path_2121" data-name="Path 2121" d="M74.131,0V74.131H0Z" transform="translate(1228.546 1485.645)" fill="#275696"/>
    <g id="Group_141" data-name="Group 141" transform="translate(1163 1380.163)">
      <g id="Group_4" data-name="Group 4" transform="translate(0 0)" clip-path="url(#clip-path-3)">
        <path id="Path_101" data-name="Path 101" d="M39.993,67a33.5,33.5,0,1,1,33.5-33.5A33.538,33.538,0,0,1,39.993,67" transform="translate(-3.45 2.012)" fill="#1a1311" stroke="#1a1311" stroke-width="1"/>
        <path id="Path_102" data-name="Path 102" d="M2.761,326.22a2.761,2.761,0,0,1-2.494-3.947l8.226-17.3a2.775,2.775,0,0,1,2.495-1.576,2.761,2.761,0,0,1,2.493,3.947l-4.748,9.988,10.649-5.409a2.761,2.761,0,0,1,2.5,4.923L4.012,325.92a2.773,2.773,0,0,1-1.25.3Z" transform="translate(2.012 -253.198)" fill="#1a1311"/>
        <path id="Path_103" data-name="Path 103" d="M42.944,10a31.914,31.914,0,0,0-25.6,50.961l-7.225,15.2A1.173,1.173,0,0,0,11.7,77.706l15.646-7.947A31.913,31.913,0,1,0,42.944,10" transform="translate(-6.4 -6.4)" fill="#fff"/>
        <rect id="Rectangle_33" data-name="Rectangle 33" width="30.352" height="30.352" transform="translate(22.218 20.62)" fill="#fff"/>
        <path id="Path_104" data-name="Path 104" d="M152.115,143.083H121.763a1.032,1.032,0,0,1-1.032-1.032V111.7a1.032,1.032,0,0,1,1.032-1.032h30.352a1.032,1.032,0,0,1,1.032,1.032V142.05a1.032,1.032,0,0,1-1.032,1.032m-29.32-2.065h28.287V112.731H122.8Z" transform="translate(-99.545 -91.079)" fill="#1a1311"/>
        <path id="Path_105" data-name="Path 105" d="M99.547,149.827l10.85,17.445h5.744l22.977-20.637L113.8,162.167l-7.659-13.616Z" transform="translate(-81.725 -121.336)" fill="#04427d"/>
      </g>
    </g>
    <text id="_" data-name="→" transform="translate(1282.677 1550.776)" fill="#fff" font-size="27" font-family="SegoeUI, Segoe UI"><tspan x="-11.648" y="0">→</tspan></text>
    <g id="Path_2125" data-name="Path 2125" transform="translate(929.347 1330.606)" fill="none">
      <path d="M0,0H373.33V229.17H0Z" stroke="none"/>
      <path d="M 4 3.999984741210938 L 4 225.1700897216797 L 369.3299865722656 225.1700897216797 L 369.3299865722656 3.999984741210938 L 4 3.999984741210938 M 0 -1.52587890625e-05 L 373.3299865722656 -1.52587890625e-05 L 373.3299865722656 229.1700897216797 L 0 229.1700897216797 L 0 -1.52587890625e-05 Z" stroke="none" fill="#325691"/>
    </g>
  </g>
</svg>
