<svg xmlns="http://www.w3.org/2000/svg" xmlns:xlink="http://www.w3.org/1999/xlink" width="373.33" height="229.17" viewBox="0 0 373.33 229.17">
  <defs>
    <clipPath id="clip-path">
      <rect id="Rectangle_311" data-name="Rectangle 311" width="373.33" height="229.17" transform="translate(0 0)" fill="#eaeaea"/>
    </clipPath>
    <clipPath id="clip-path-2">
      <rect id="Rectangle_305" data-name="Rectangle 305" width="175.738" height="85.564" fill="none"/>
    </clipPath>
    <clipPath id="clip-path-3">
      <rect id="Rectangle_310" data-name="Rectangle 310" width="231.956" height="253.248" transform="translate(0 0)" fill="none"/>
    </clipPath>
  </defs>
  <g id="Group_191" data-name="Group 191" transform="translate(-535.326 -1330.606)">
    <g id="Rectangle_299" data-name="Rectangle 299" transform="translate(535.326 1330.606)" fill="#fff" stroke="#325691" stroke-width="4">
      <rect width="373.33" height="229.17" stroke="none"/>
      <rect x="2" y="2" width="369.33" height="225.17" fill="none"/>
    </g>
    <g id="Mask_Group_34" data-name="Mask Group 34" transform="translate(535.326 1330.606)" clip-path="url(#clip-path)">
      <g id="Group_131" data-name="Group 131" transform="translate(163.03 71.803)">
        <rect id="Rectangle_300" data-name="Rectangle 300" width="21.173" height="47.815" transform="translate(138.33 35.854)" fill="#fff"/>
        <g id="Group_130" data-name="Group 130">
          <g id="Group_129" data-name="Group 129" clip-path="url(#clip-path-2)">
            <path id="Path_1940" data-name="Path 1940" d="M318.678,125.184H297.505a1.894,1.894,0,0,1-1.894-1.894V75.474a1.894,1.894,0,0,1,1.894-1.894h21.173a1.894,1.894,0,0,1,1.894,1.894V123.29a1.894,1.894,0,0,1-1.894,1.894M299.4,121.4h17.385V77.368H299.4Z" transform="translate(-159.175 -39.62)" fill="#1a1311"/>
            <rect id="Rectangle_301" data-name="Rectangle 301" width="21.173" height="81.775" transform="translate(107.208 1.894)" fill="#e0e0e0"/>
            <path id="Path_1941" data-name="Path 1941" d="M251.248,85.564H230.075a1.894,1.894,0,0,1-1.894-1.894V1.894A1.894,1.894,0,0,1,230.075,0h21.173a1.894,1.894,0,0,1,1.894,1.894V83.67a1.894,1.894,0,0,1-1.894,1.894m-19.279-3.788h17.385V3.788H231.969Z" transform="translate(-122.867)" fill="#1a1311"/>
            <rect id="Rectangle_302" data-name="Rectangle 302" width="21.173" height="36.355" transform="translate(76.087 47.314)" fill="#fff"/>
            <path id="Path_1942" data-name="Path 1942" d="M183.818,138.554H162.645a1.894,1.894,0,0,1-1.894-1.894V100.3a1.894,1.894,0,0,1,1.894-1.894h21.173a1.894,1.894,0,0,1,1.894,1.894V136.66a1.894,1.894,0,0,1-1.894,1.894m-19.279-3.788h17.385V102.2H164.539Z" transform="translate(-86.558 -52.99)" fill="#1a1311"/>
            <rect id="Rectangle_303" data-name="Rectangle 303" width="21.173" height="53.189" transform="translate(44.965 30.48)" fill="#e0e0e0"/>
            <path id="Path_1943" data-name="Path 1943" d="M116.387,118.914H95.214a1.894,1.894,0,0,1-1.894-1.894V63.831a1.894,1.894,0,0,1,1.894-1.894h21.173a1.894,1.894,0,0,1,1.894,1.894V117.02a1.894,1.894,0,0,1-1.894,1.894m-19.279-3.788h17.385v-49.4H97.108Z" transform="translate(-50.249 -33.351)" fill="#1a1311"/>
            <rect id="Rectangle_304" data-name="Rectangle 304" width="21.173" height="15.306" transform="translate(13.843 68.364)" fill="#fff"/>
            <path id="Path_1944" data-name="Path 1944" d="M48.957,163.111H27.785a1.894,1.894,0,0,1-1.894-1.894V145.911a1.894,1.894,0,0,1,1.894-1.894H48.957a1.894,1.894,0,0,1,1.894,1.894v15.306a1.894,1.894,0,0,1-1.894,1.894m-19.278-3.788H47.064V147.805H29.679Z" transform="translate(-13.941 -77.548)" fill="#1a1311"/>
            <line id="Line_75" data-name="Line 75" x2="171.95" transform="translate(1.894 83.669)" fill="#fff"/>
            <path id="Path_1945" data-name="Path 1945" d="M173.844,180.968H1.894a1.894,1.894,0,0,1,0-3.788h171.95a1.894,1.894,0,1,1,0,3.788" transform="translate(0 -95.405)" fill="#1a1311"/>
          </g>
        </g>
      </g>
      <g id="Group_133" data-name="Group 133" transform="translate(14.227 12.183)">
        <g id="Group_132" data-name="Group 132" transform="translate(0 0)" clip-path="url(#clip-path-3)">
          <path id="Path_1946" data-name="Path 1946" d="M353.088,478.707s14.021.28,20.031,2.534,18.894,6.5,24.653,10.257,12.043,18.684,17,33.179c5.889,17.215,17.706,51.873,15.252,67.956-3.1,20.347-42.284,9.061-42.284,9.061v26.492H280.523s.288-21.85-.953-53.221c-1.432-36.2-4.191-82.833-.227-86.757,8.984-8.892,44.449-10.753,53.462-11a134.3,134.3,0,0,1,20.281,1.5" transform="translate(-214.333 -368.832)" fill="#e0e0e0"/>
          <path id="Path_1947" data-name="Path 1947" d="M382.334,624.363H275.115a1.589,1.589,0,0,1-1.589-1.61c0-.218.273-22.173-.952-53.137-.218-5.509-.472-11.385-.718-17.068-.7-16.117-1.417-32.783-1.54-45.773-.186-19.706,1.092-23.713,2.5-25.108,4.076-4.035,13.366-7.125,27.611-9.186a255.448,255.448,0,0,1,26.926-2.276,133.485,133.485,0,0,1,20.464,1.5c1.42.032,14.471.391,20.45,2.633,1.121.42,2.46.9,4.011,1.46,6.8,2.449,16.122,5.8,20.952,8.953,5.131,3.346,11.066,14.784,17.638,34,5.792,16.93,17.844,52.159,15.32,68.71a13.729,13.729,0,0,1-6.371,9.9c-10.255,6.565-29.569,2.556-35.895.986v24.429a1.589,1.589,0,0,1-1.589,1.589m-105.615-3.179H380.744v-24.9a1.59,1.59,0,0,1,2.029-1.527,89.239,89.239,0,0,0,21.189,3.065c5.274,0,10.464-.782,14.144-3.139a10.538,10.538,0,0,0,4.94-7.7c2.407-15.779-9.475-50.51-15.185-67.2-6.159-18-11.971-29.5-16.367-32.363-4.519-2.947-14.011-6.364-20.292-8.625-1.561-.562-2.91-1.047-4.051-1.475-5.689-2.133-19.367-2.43-19.5-2.433a1.58,1.58,0,0,1-.213-.019,133.761,133.761,0,0,0-19.993-1.484c-15.949.443-44.93,3.162-52.388,10.544-.077.088-.82,1.1-1.244,7-.28,3.9-.382,9.167-.312,16.1.13,12.894.844,29.411,1.534,45.383.246,5.686.5,11.565.718,17.08,1.039,26.266,1,46.077.968,51.694" transform="translate(-208.925 -363.421)" fill="#1a1311"/>
          <path id="Path_1948" data-name="Path 1948" d="M446.138,428.584l1.363,19.355h38.437l-.818-19.082Z" transform="translate(-344.838 -331.27)" fill="#fff"/>
          <path id="Path_1949" data-name="Path 1949" d="M480.527,444.117H442.09a1.589,1.589,0,0,1-1.586-1.478l-1.363-19.354a1.59,1.59,0,0,1,1.586-1.7h.011l38.982.273a1.589,1.589,0,0,1,1.577,1.521l.818,19.082a1.589,1.589,0,0,1-1.588,1.658m-36.955-3.179h35.3l-.682-15.914-35.752-.25Z" transform="translate(-339.428 -325.859)" fill="#1a1311"/>
          <path id="Path_1950" data-name="Path 1950" d="M455.721,520.732l37.623-.9L470.26,577.8l-8-32.712Z" transform="translate(-352.246 -401.796)" fill="#fff"/>
          <path id="Path_1951" data-name="Path 1951" d="M464.85,573.975c-.037,0-.074,0-.111,0a1.589,1.589,0,0,1-1.433-1.208l-7.992-32.694-6.538-24.335a1.59,1.59,0,0,1,1.5-2l37.623-.9A1.589,1.589,0,0,1,489.411,515l-23.085,57.969a1.589,1.589,0,0,1-1.476,1m-12.48-57.113,6.018,22.4.009.035,6.816,27.881,20.355-51.114Z" transform="translate(-346.835 -396.385)" fill="#1a1311"/>
          <path id="Path_1952" data-name="Path 1952" d="M504.965,517.426c1.908.273,18.264.273,18.264.273l-6.815,10.9h-8.178Z" transform="translate(-390.308 -399.94)" fill="#04427d"/>
          <path id="Path_1953" data-name="Path 1953" d="M511,524.781h-8.178a1.589,1.589,0,0,1-1.525-1.143l-3.271-11.177a1.59,1.59,0,0,1,1.75-2.02c1.309.187,11.759.257,18.039.257a1.59,1.59,0,0,1,1.348,2.432l-6.815,10.9a1.589,1.589,0,0,1-1.348.747m-6.987-3.179h6.106l4.831-7.729c-3.665-.01-9.782-.043-13.243-.151Z" transform="translate(-384.898 -394.529)" fill="#1a1311"/>
          <path id="Path_1954" data-name="Path 1954" d="M507.158,566.649h8.178l3.9,30.618-10.9,19.264s-5.27-19.536-4.725-21.444,3.548-28.437,3.548-28.437" transform="translate(-389.23 -437.986)" fill="#04427d"/>
          <path id="Path_1955" data-name="Path 1955" d="M502.911,612.71a1.589,1.589,0,0,1-1.535-1.175c-.013-.049-1.337-4.961-2.576-10.044-2.6-10.654-2.313-11.654-2.142-12.251.38-1.381,2.347-18.017,3.5-28.179a1.59,1.59,0,0,1,1.579-1.411h8.178a1.589,1.589,0,0,1,1.576,1.388l3.9,30.618a1.588,1.588,0,0,1-.193.984l-10.9,19.264a1.59,1.59,0,0,1-1.383.807m-3.176-22.678c-.1,1.376,1.677,9.083,3.713,16.912l8.723-15.41-3.659-28.706h-5.359c-.732,6.429-2.872,25-3.418,27.2m-.021.08h0" transform="translate(-383.806 -432.576)" fill="#1a1311"/>
          <path id="Path_1956" data-name="Path 1956" d="M425.612,428.584l21.535,18.9L433.7,460.751s-14.9-21.536-14.084-22.081,6-10.086,6-10.086" transform="translate(-324.312 -331.27)" fill="#fff"/>
          <path id="Path_1957" data-name="Path 1957" d="M428.247,456.931c-.049,0-.1,0-.148-.007a1.589,1.589,0,0,1-1.159-.678c-.036-.052-3.639-5.26-7.165-10.558-7.478-11.235-7.363-11.839-7.2-12.674a1.656,1.656,0,0,1,.575-.976c.661-.764,3.353-5.452,5.616-9.621a1.589,1.589,0,0,1,2.445-.436l21.535,18.9a1.589,1.589,0,0,1,.068,2.326l-13.448,13.267a1.589,1.589,0,0,1-1.116.458m-12.326-23.323c1.261,2.49,6.95,11.12,12.558,19.271l10.884-10.737L420.6,425.679a90.863,90.863,0,0,1-4.682,7.93m-2.64-1.67h0Z" transform="translate(-318.86 -325.861)" fill="#1a1311"/>
          <path id="Path_1958" data-name="Path 1958" d="M558.428,429.785l-17.446,18.628,11.813,14.72s10.995-21.717,11.267-22.535-5.634-10.813-5.634-10.813" transform="translate(-418.147 -332.198)" fill="#fff"/>
          <path id="Path_1959" data-name="Path 1959" d="M547.384,459.312a1.59,1.59,0,0,1-1.24-.595L534.332,444a1.59,1.59,0,0,1,.08-2.081l17.446-18.628a1.59,1.59,0,0,1,2.529.278c6.275,10.619,6.02,11.385,5.773,12.124-.279.838-8.035,16.189-11.357,22.75a1.589,1.589,0,0,1-1.253.863,1.621,1.621,0,0,1-.165.009m-9.71-16.23L547.08,454.8c3.895-7.7,8.887-17.626,9.911-19.793-.466-1.2-2.342-4.653-4.27-7.993Z" transform="translate(-412.737 -326.787)" fill="#1a1311"/>
          <path id="Path_1960" data-name="Path 1960" d="M386.7,402.155s-1.181,19.718-.363,27.623l-15.806,14.361s-5.082-17.135-4.537-18.225,11.256-19.034,11.256-19.034Z" transform="translate(-282.856 -310.842)" fill="#e0e0e0"/>
          <path id="Path_1961" data-name="Path 1961" d="M365.111,440.318a1.589,1.589,0,0,1-1.524-1.137c-.013-.043-1.289-4.352-2.483-8.739-2.564-9.425-2.28-9.993-1.952-10.65.556-1.111,10.214-17.3,11.313-19.137a1.591,1.591,0,0,1,.654-.607l9.45-4.725a1.589,1.589,0,0,1,2.3,1.517c-.012.2-1.164,19.679-.369,27.365a1.589,1.589,0,0,1-.512,1.34L366.18,439.9a1.589,1.589,0,0,1-1.069.413m-2.982-19.348c.121,1.589,1.884,8.286,3.793,14.874l13.34-12.121c-.526-6.512,0-18.838.282-24.334l-6.587,3.293c-4.025,6.744-9.82,16.493-10.829,18.287m-.006-.186h0" transform="translate(-277.442 -305.431)" fill="#1a1311"/>
          <path id="Path_1962" data-name="Path 1962" d="M622.783,410.576s1.09,11.54.848,15.3a47.647,47.647,0,0,1-2.211,9.511l13.63,13.085s6.542-9,6.542-10.631-6.638-18.45-10.182-22.266a19.016,19.016,0,0,0-8.628-4.994" transform="translate(-480.321 -317.351)" fill="#e0e0e0"/>
          <path id="Path_1963" data-name="Path 1963" d="M629.64,444.646a1.589,1.589,0,0,1-1.1-.443l-13.63-13.085a1.589,1.589,0,0,1-.4-1.661,46.361,46.361,0,0,0,2.129-9.1c.232-3.587-.834-14.93-.844-15.044a1.59,1.59,0,0,1,1.941-1.7,20.544,20.544,0,0,1,9.434,5.461c3.645,3.926,10.606,21.114,10.606,23.348,0,.727-.273,1.913-3.538,6.811-1.635,2.452-3.292,4.733-3.308,4.756a1.59,1.59,0,0,1-1.145.648c-.047,0-.094.006-.141.006m-11.81-15.13,11.587,11.123c2.439-3.451,4.843-7.178,5.162-8.25-.408-2.231-6.55-17.71-9.744-21.148a16.364,16.364,0,0,0-5.664-3.787,128.458,128.458,0,0,1,.635,13.11,44.2,44.2,0,0,1-1.977,8.952m16.765,2.978h0Zm.007-.194h0" transform="translate(-474.911 -311.94)" fill="#1a1311"/>
          <path id="Path_1964" data-name="Path 1964" d="M533.319,519.827l8.173,14.716s-3.006,3.667-12.02,17.94-19.28,33.3-19.28,33.3l-2.754-5.008s11.049-34.11,16.158-42.957c5.876-10.177,9.723-17.991,9.723-17.991" transform="translate(-392.22 -401.796)" fill="#e0e0e0"/>
          <path id="Path_1965" data-name="Path 1965" d="M504.782,581.962a1.59,1.59,0,0,1-1.393-.823l-2.754-5.008a1.588,1.588,0,0,1-.119-1.256c.453-1.4,11.16-34.372,16.293-43.262,5.779-10.009,9.635-17.821,9.673-17.9a1.59,1.59,0,0,1,2.816-.07l8.173,14.717a1.589,1.589,0,0,1-.16,1.779c-.029.035-3.1,3.837-11.906,17.781-8.882,14.063-19.122,33.017-19.224,33.207a1.589,1.589,0,0,1-1.393.835Zm-1.029-6.759,1.024,1.861c3.121-5.688,10.946-19.764,17.941-30.841,6.759-10.7,10.154-15.469,11.468-17.231l-6.213-11.187c-1.625,3.157-4.606,8.809-8.41,15.4-4.583,7.937-14.253,37.242-15.81,42" transform="translate(-386.809 -396.385)" fill="#1a1311"/>
          <rect id="Rectangle_306" data-name="Rectangle 306" width="29.986" height="10.359" transform="translate(74.408 158.922)" fill="#e0e0e0"/>
          <path id="Path_1966" data-name="Path 1966" d="M352.28,706.45H322.294a1.589,1.589,0,0,1-1.589-1.589V694.5a1.589,1.589,0,0,1,1.589-1.589H352.28a1.589,1.589,0,0,1,1.589,1.589V704.86a1.589,1.589,0,0,1-1.589,1.589m-28.4-3.179h26.807v-7.18H323.884Z" transform="translate(-247.886 -535.58)" fill="#1a1311"/>
          <rect id="Rectangle_307" data-name="Rectangle 307" width="29.986" height="19.9" transform="translate(74.408 169.28)" fill="#e0e0e0"/>
          <path id="Path_1967" data-name="Path 1967" d="M352.28,761.612H322.294a1.589,1.589,0,0,1-1.589-1.589v-19.9a1.589,1.589,0,0,1,1.589-1.589H352.28a1.589,1.589,0,0,1,1.589,1.589v19.9a1.589,1.589,0,0,1-1.589,1.589m-28.4-3.179h26.807V741.713H323.884Z" transform="translate(-247.886 -570.843)" fill="#1a1311"/>
          <path id="Path_1968" data-name="Path 1968" d="M618.65,578.371a2.317,2.317,0,1,1-2.317-2.317,2.317,2.317,0,0,1,2.317,2.317" transform="translate(-474.598 -445.256)" fill="#1a1311"/>
          <line id="Line_76" data-name="Line 76" y2="29.441" transform="translate(121.537 229.797)" fill="#e0e0e0"/>
          <path id="Path_1969" data-name="Path 1969" d="M529.857,1037.679a1.589,1.589,0,0,1-1.589-1.589v-29.441a1.589,1.589,0,1,1,3.179,0v29.441a1.59,1.59,0,0,1-1.589,1.589" transform="translate(-408.32 -776.851)" fill="#1a1311"/>
          <path id="Path_1970" data-name="Path 1970" d="M371.214,271.482c1.44,4.281.1,8.594-2.991,9.634s-6.765-1.588-8.205-5.869-.1-8.594,2.991-9.634,6.765,1.588,8.205,5.868" transform="translate(-277.825 -205.128)" fill="#fff"/>
          <path id="Path_1971" data-name="Path 1971" d="M361.4,277.545a7.294,7.294,0,0,1-4.233-1.467,12.112,12.112,0,0,1-4.28-12.726,6.744,6.744,0,0,1,4.206-4.637c3.919-1.318,8.5,1.764,10.218,6.868h0c1.717,5.1-.074,10.33-3.991,11.647a6,6,0,0,1-1.92.314M359,261.584a2.793,2.793,0,0,0-.9.144,3.669,3.669,0,0,0-2.184,2.566,8.952,8.952,0,0,0,3.093,9.2,3.669,3.669,0,0,0,3.291.725c2.218-.746,3.13-4.236,1.992-7.621-.99-2.943-3.263-5.013-5.3-5.013" transform="translate(-272.412 -199.736)" fill="#1a1311"/>
          <path id="Path_1972" data-name="Path 1972" d="M639.372,271.482c-1.44,4.281-.1,8.594,2.991,9.634s6.766-1.588,8.205-5.869.1-8.594-2.992-9.634-6.765,1.588-8.2,5.868" transform="translate(-493.75 -205.128)" fill="#fff"/>
          <path id="Path_1973" data-name="Path 1973" d="M638.363,277.545a6,6,0,0,1-1.92-.314,6.744,6.744,0,0,1-4.206-4.637,11.518,11.518,0,0,1,.215-7.01c1.717-5.1,6.3-8.186,10.218-6.868a6.743,6.743,0,0,1,4.206,4.637,12.111,12.111,0,0,1-4.28,12.726,7.3,7.3,0,0,1-4.233,1.467m2.4-15.961c-2.034,0-4.307,2.07-5.3,5.013a8.328,8.328,0,0,0-.192,5.055,3.27,3.27,0,0,0,5.475,1.841,8.952,8.952,0,0,0,3.093-9.2,3.669,3.669,0,0,0-2.184-2.566,2.8,2.8,0,0,0-.895-.144" transform="translate(-488.336 -199.736)" fill="#1a1311"/>
          <path id="Path_1974" data-name="Path 1974" d="M398.274,123.893c-1.786,7.313-1.644,18.622-1.063,29.011,1.448,25.924,13.022,33.733,30.343,33.733,19.264,0,25.121-13.705,26.805-30.162.9-8.818,3.367-20.771,1.061-30.65s-8.938-22.936-33.326-21.42c-15.348.954-20.592,6.275-23.82,19.487" transform="translate(-306.718 -80.606)" fill="#fff"/>
          <path id="Path_1975" data-name="Path 1975" d="M422.163,182.815c-9.8,0-17.079-2.488-22.243-7.605-5.8-5.749-8.97-14.787-9.687-27.629-.763-13.663-.4-23.305,1.107-29.477,1.828-7.482,4.184-12.019,7.877-15.172,3.883-3.314,9.246-5.018,17.388-5.524,19.414-1.207,31.183,6.412,34.972,22.645,1.9,8.139.712,17.341-.337,25.459-.261,2.022-.508,3.932-.69,5.713-1,9.737-3.325,16.946-7.117,22.039-4.718,6.337-11.874,9.55-21.27,9.55m-1.618-82.354q-1.814,0-3.743.12c-7.41.461-12.2,1.932-15.522,4.769-3.146,2.686-5.2,6.725-6.853,13.508-1.432,5.863-1.766,15.2-1.021,28.546.671,12.021,3.534,20.377,8.751,25.548,4.538,4.5,11.082,6.684,20.005,6.684,15.411,0,23.19-8.862,25.224-28.734.187-1.823.436-3.753.7-5.8,1.014-7.851,2.164-16.75.394-24.33-3.185-13.644-12.34-20.315-27.937-20.315m-27.661,18.021h0Z" transform="translate(-301.328 -75.195)" fill="#1a1311"/>
          <path id="Path_1976" data-name="Path 1976" d="M386.432,234.893s-.342,5.707-.182,13.266c.191,9.032,2,22.717,2,22.717a128.7,128.7,0,0,1-5.392-21.262,114.812,114.812,0,0,1-1.151-12.721Z" transform="translate(-295.037 -181.558)" fill="#bdbebf"/>
          <path id="Path_1977" data-name="Path 1977" d="M382.839,267.055a1.59,1.59,0,0,1-1.491-1.041,129.009,129.009,0,0,1-5.469-21.555,101.34,101.34,0,0,1-1.1-11.616c-.026-.565-.047-1.011-.065-1.217a1.589,1.589,0,0,1,.963-1.608l4.725-2a1.589,1.589,0,0,1,2.206,1.559c0,.057-.336,5.738-.179,13.138.187,8.839,1.968,22.406,1.986,22.542a1.59,1.59,0,0,1-1.576,1.8m-4.893-34.546c0,.06.006.122.009.187a98.441,98.441,0,0,0,1.062,11.251q.17,1.043.356,2.06c-.057-1.114-.1-2.2-.121-3.224-.1-4.541-.011-8.452.073-10.856Z" transform="translate(-289.627 -176.148)" fill="#1a1311"/>
          <path id="Path_1978" data-name="Path 1978" d="M639.7,219.153a158.1,158.1,0,0,1,1.212,16.235c.182,9.238-.526,19.57-1.09,21.687,0,0,4.725-16.538,5.27-20.354s.818-14.993.818-14.993Z" transform="translate(-494.447 -169.392)" fill="#bdbebf"/>
          <path id="Path_1979" data-name="Path 1979" d="M634.407,253.254a1.591,1.591,0,0,1-1.537-2c.476-1.785,1.224-11.747,1.037-21.246a157.818,157.818,0,0,0-1.2-16.051,1.589,1.589,0,0,1,2.183-1.683l6.209,2.574a1.589,1.589,0,0,1,.98,1.507c-.011.46-.281,11.315-.834,15.179s-5.121,19.886-5.315,20.566a1.59,1.59,0,0,1-1.527,1.153m1.775-37c.325,3.013.795,8.178.9,13.7.037,1.86.037,3.8.009,5.719.5-2.007.879-3.677,1.008-4.58.427-2.992.688-10.83.772-13.719Z" transform="translate(-489.037 -163.981)" fill="#1a1311"/>
          <path id="Path_1980" data-name="Path 1980" d="M358.347,90.032s-6.815.818-7.088-2.726,5.179-7.542,5.179-7.542-.272-40.163,33.8-40.163S423.5,76.129,423.5,76.129s5.452,1.636,4.089,6-3.544,4.907-3.544,4.907a23.253,23.253,0,0,0-1.09-4.089c-.545-1.09-3.544-3.271-7.633-3.271s-8,1.636-9.9,1.908-9.541-1.09-15.265-1.09-14.629,1.636-15.992,1.636-4.271-1.636-8.36-1.091-9.632,3.907-8.814,5.27a16.044,16.044,0,0,1,1.363,3.726" transform="translate(-271.495 -30.609)" fill="#04427d"/>
          <path id="Path_1981" data-name="Path 1981" d="M351.336,86.3c-1.668,0-4.09-.245-5.612-1.494a3.918,3.918,0,0,1-1.459-2.785c-.278-3.61,3.569-7.136,5.185-8.449.106-3.929,1.2-21.022,12.032-31.931,5.955-6,13.811-9.036,23.349-9.036,10.086,0,18.23,3.1,24.207,9.211,9.444,9.658,10.522,23.745,10.63,27.822a7.888,7.888,0,0,1,3.694,3.234,5.518,5.518,0,0,1,.331,4.322,11.008,11.008,0,0,1-2.7,4.766,4.667,4.667,0,0,1-1.972,1.209,1.59,1.59,0,0,1-1.949-1.257,20.8,20.8,0,0,0-.948-3.663,8.415,8.415,0,0,0-6.211-2.392,26.571,26.571,0,0,0-7.063,1.26,22.6,22.6,0,0,1-2.617.633,32.181,32.181,0,0,1-6.059-.379c-2.884-.31-6.473-.7-9.431-.7a101.614,101.614,0,0,0-12.376,1.208c-2.066.289-3.082.428-3.616.428a8.482,8.482,0,0,1-2.222-.443A14,14,0,0,0,360.6,77.2a15.154,15.154,0,0,0-7.369,3.413,18.841,18.841,0,0,1,1.257,3.65,1.589,1.589,0,0,1-1.359,1.936,15.869,15.869,0,0,1-1.791.1m33.5-50.516c-8.654,0-15.746,2.72-21.082,8.085-11.11,11.172-11.132,30.286-11.131,30.478a1.591,1.591,0,0,1-.65,1.292c-1.545,1.138-4.688,4.137-4.535,6.138a.741.741,0,0,0,.3.57,5.813,5.813,0,0,0,3.094.765,8.247,8.247,0,0,0-.622-1.395,2.27,2.27,0,0,1-.04-2.227c1.137-2.361,6.453-4.963,10.007-5.437a16.98,16.98,0,0,1,7.214.754,8.61,8.61,0,0,0,1.356.322c.336,0,1.78-.2,3.176-.4a103.826,103.826,0,0,1,12.816-1.239,97.125,97.125,0,0,1,9.771.714,39.238,39.238,0,0,0,5.27.392,21.17,21.17,0,0,0,2.212-.547,29.574,29.574,0,0,1,7.918-1.377c4.554,0,8.185,2.41,9.054,4.15a10.581,10.581,0,0,1,.633,1.822,10.24,10.24,0,0,0,1.062-2.4,2.323,2.323,0,0,0-.1-1.874,5.524,5.524,0,0,0-2.935-2.128,1.6,1.6,0,0,1-1.126-1.556c0-.162.225-16.481-9.749-26.664-5.355-5.467-12.729-8.24-21.919-8.24" transform="translate(-266.086 -25.199)" fill="#1a1311"/>
          <path id="Path_1982" data-name="Path 1982" d="M512.291,296.423c-2.6,9.738-3.675,10.381-3.475,11.841s4.4,4.4,4.4,4.4" transform="translate(-393.267 -229.117)" fill="#fff"/>
          <path id="Path_1983" data-name="Path 1983" d="M507.8,308.841a1.581,1.581,0,0,1-.91-.287c-3.941-2.759-4.929-4.506-5.063-5.486a6.306,6.306,0,0,1,.659-3.274,96.169,96.169,0,0,0,2.855-9.193,1.589,1.589,0,1,1,3.071.819,99.025,99.025,0,0,1-2.941,9.466,5.481,5.481,0,0,0-.5,1.689,15.975,15.975,0,0,0,3.743,3.374,1.59,1.59,0,0,1-.913,2.891m-2.823-6.2h0Z" transform="translate(-387.851 -223.705)" fill="#1a1311"/>
          <path id="Path_1984" data-name="Path 1984" d="M510.221,402.209c-3.892-3.691-11.948-4.1-16.351-.406" transform="translate(-381.733 -308.581)" fill="#fff"/>
          <path id="Path_1985" data-name="Path 1985" d="M504.809,398.393a1.583,1.583,0,0,1-1.093-.436c-3.4-3.227-10.587-3.4-14.236-.341a1.589,1.589,0,0,1-2.042-2.436c4.9-4.109,13.877-3.88,18.465.471a1.589,1.589,0,0,1-1.094,2.743" transform="translate(-376.321 -303.176)" fill="#1a1311"/>
          <path id="Path_1986" data-name="Path 1986" d="M374.1,203.493c3.907-2.908,9.178-3.271,11.9-3.816" transform="translate(-289.16 -154.338)" fill="#04427d"/>
          <path id="Path_1987" data-name="Path 1987" d="M368.694,199.671a1.59,1.59,0,0,1-.95-2.865c3.529-2.626,7.988-3.347,10.938-3.824.617-.1,1.15-.186,1.6-.276a1.589,1.589,0,0,1,.624,3.117c-.51.1-1.1.2-1.719.3-2.8.453-6.642,1.073-9.548,3.236a1.582,1.582,0,0,1-.948.314" transform="translate(-283.749 -148.926)" fill="#1a1311"/>
          <path id="Path_1988" data-name="Path 1988" d="M639.439,194.927a17.663,17.663,0,0,0-8.814-1.575" transform="translate(-487.436 -149.406)" fill="#04427d"/>
          <path id="Path_1989" data-name="Path 1989" d="M634.026,191.113a1.579,1.579,0,0,1-.756-.192,16.173,16.173,0,0,0-7.9-1.39,1.589,1.589,0,1,1-.3-3.164,19.262,19.262,0,0,1,9.724,1.76,1.59,1.59,0,0,1-.759,2.987" transform="translate(-482.024 -144.003)" fill="#1a1311"/>
          <path id="Path_1990" data-name="Path 1990" d="M460.144,56.928,464.6,29.85s2.544-1.454,9.359-1.454,8.36,2,8.36,2L487.4,56.383" transform="translate(-355.664 -21.948)" fill="#04427d"/>
          <path id="Path_1991" data-name="Path 1991" d="M454.735,53.107a1.609,1.609,0,0,1-.26-.021,1.589,1.589,0,0,1-1.31-1.826l4.452-27.078a1.589,1.589,0,0,1,.78-1.122c.3-.17,3.114-1.663,10.147-1.663,7.229,0,9.28,2.18,9.618,2.617a1.589,1.589,0,0,1,.3.666l5.089,25.988a1.589,1.589,0,1,1-3.119.611l-4.981-25.434c-.626-.394-2.511-1.269-6.908-1.269a25.181,25.181,0,0,0-7.934.994L456.3,51.775a1.59,1.59,0,0,1-1.566,1.332" transform="translate(-350.253 -16.538)" fill="#1a1311"/>
          <path id="Path_1992" data-name="Path 1992" d="M505.877,158.606c0,2-3.144,3.624-7.022,3.624s-7.022-1.623-7.022-3.624,3.144-3.624,7.022-3.624,7.022,1.623,7.022,3.624" transform="translate(-380.158 -119.792)" fill="#fff"/>
          <path id="Path_1993" data-name="Path 1993" d="M799.178,993.06a2.317,2.317,0,1,1-2.317-2.317,2.317,2.317,0,0,1,2.317,2.317" transform="translate(-614.136 -765.786)" fill="#1a1311"/>
          <path id="Path_1994" data-name="Path 1994" d="M832.742,661.383a2.317,2.317,0,1,1-2.97-1.385,2.317,2.317,0,0,1,2.97,1.385" transform="translate(-640.186 -510.031)" fill="#1a1311"/>
          <path id="Path_1995" data-name="Path 1995" d="M797.612,669.138a1.59,1.59,0,0,1-1.545-1.224l-8.58-36.33a1.59,1.59,0,0,1,1.309-1.937l14.166-2.142a1.589,1.589,0,0,1,.475,3.143l-12.46,1.884,7.835,33.173,16.779-3.156a1.589,1.589,0,0,1,.588,3.124l-18.27,3.437a1.6,1.6,0,0,1-.3.028" transform="translate(-608.648 -485.011)" fill="#1a1311"/>
          <path id="Path_1996" data-name="Path 1996" d="M800.739,684.517a1.59,1.59,0,0,1-.544-3.084c.757-.276,9.22-1.6,16.186-2.667a1.589,1.589,0,1,1,.48,3.142c-5.557.849-14.679,2.282-15.632,2.53a1.59,1.59,0,0,1-.491.078m.543-.1-.038.013.038-.013" transform="translate(-617.695 -524.632)" fill="#1a1311"/>
          <path id="Path_1997" data-name="Path 1997" d="M779.476,843.989s13.336.151,16.356,1.057" transform="translate(-602.489 -652.354)" fill="#e0e0e0"/>
          <path id="Path_1998" data-name="Path 1998" d="M790.422,841.224a1.6,1.6,0,0,1-.458-.067c-2.058-.618-10.646-.931-15.917-.99a1.589,1.589,0,1,1,.036-3.179c1.388.016,13.651.181,16.795,1.124a1.59,1.59,0,0,1-.456,3.112" transform="translate(-597.078 -646.942)" fill="#1a1311"/>
          <path id="Path_1999" data-name="Path 1999" d="M799.336,889.012a1.59,1.59,0,0,1-.474-3.107,9.881,9.881,0,0,0,2.677-1.719,27.093,27.093,0,0,0,6.07-7.8c2.089-3.787,2.46-9.47.991-15.2-1.511-5.9-4.669-11.008-8.664-14.019a1.589,1.589,0,0,1,1.913-2.538c9.593,7.232,13.824,23.724,8.543,33.3-5.082,9.212-10.36,10.949-10.582,11.018a1.588,1.588,0,0,1-.475.073" transform="translate(-616.611 -652.597)" fill="#1a1311"/>
          <path id="Path_2000" data-name="Path 2000" d="M382.492,424.023c1.409-6.141,3.549-9.488,4-12.66.213-1.491-.877-4.873-1.492-8.014-.9-4.6-.913-7.328,1.618-7.415,2.919-.1,3.725,2.416,5.133,5.438,2.317,4.974,5.841,10.67,5.841,10.67s13.818-1.359,18.8-2.039a60.433,60.433,0,0,0,11.552-2.19c3.524-1.108,6.141-1.158,6.644,1.359.508,2.538-1.34,3.644-4.631,5.084a42.527,42.527,0,0,1-11.98,3s5.487.5,4.581,4.354-4.127,3.222-4.127,3.222a4.13,4.13,0,0,1,1.309,4.531,2.48,2.48,0,0,1-2.718,1.913s1.41,3.8-1.309,5.839-9.363,4.078-14.094,3.927c-2.264-.072-6.745,1.812-6.745,1.812s-11.779,3.171-14.724-1.133c-1.559-2.278.5-3.25,1.233-6.921.1-.5.7-9.017,1.107-10.772" transform="translate(-293.395 -306.032)" fill="#fff"/>
          <path id="Path_2001" data-name="Path 2001" d="M381.4,440.151c-3.19,0-6.411-.659-7.978-2.949-1.479-2.162-.711-3.808-.032-5.259a11.969,11.969,0,0,0,1.014-2.845c.032-.233.123-1.308.212-2.349.323-3.792.635-7.295.91-8.493a55.912,55.912,0,0,1,2.548-7.979,22.361,22.361,0,0,0,1.429-4.55,19.135,19.135,0,0,0-.765-4.313c-.248-1.034-.5-2.1-.712-3.171-.734-3.749-.93-6.4.352-8.01a3.535,3.535,0,0,1,2.771-1.3c3.687-.128,4.975,2.716,6.222,5.466.131.29.266.587.407.889,1.732,3.718,4.186,7.906,5.24,9.661,3.258-.325,13.624-1.371,17.747-1.933.546-.074,1.109-.144,1.693-.216a49.889,49.889,0,0,0,9.6-1.915c3.218-1.011,5.326-1.064,6.835-.171a3.932,3.932,0,0,1,1.845,2.734c.813,4.066-2.866,5.676-5.552,6.852a39.326,39.326,0,0,1-7.342,2.311q.1.121.194.25a4.414,4.414,0,0,1,.658,3.7,5.607,5.607,0,0,1-2.926,3.978,5.317,5.317,0,0,1,.051,3.961,4.4,4.4,0,0,1-2.294,2.63,6.158,6.158,0,0,1-2.269,5.842c-3.219,2.415-10.274,4.4-15.1,4.243-1.393-.044-4.468,1.012-6.079,1.689a1.581,1.581,0,0,1-.2.069,35.947,35.947,0,0,1-8.471,1.179m-.032-48.042-.111,0c-.1,0-.328.02-.392.1-.234.295-.509,1.391.28,5.421.2,1,.444,2.038.684,3.041.562,2.348,1.007,4.2.821,5.5a24.779,24.779,0,0,1-1.609,5.241,52.448,52.448,0,0,0-2.417,7.55c-.248,1.079-.634,5.615-.841,8.052-.17,2-.211,2.448-.257,2.677a14.8,14.8,0,0,1-1.256,3.593c-.635,1.359-.649,1.5-.224,2.119,1.727,2.525,9.365,1.455,12.9.522.826-.341,4.892-1.968,7.309-1.893,4.471.141,10.708-1.823,13.09-3.609,1.749-1.311.782-3.988.772-4.015a1.6,1.6,0,0,1,.264-1.653,1.493,1.493,0,0,1,1.52-.464c.237.016.636-.1.933-.9a2.5,2.5,0,0,0-.812-2.738,1.587,1.587,0,0,1,1.276-2.8c.532.083,1.811.047,2.3-2.021a1.24,1.24,0,0,0-.142-1.107c-.582-.814-2.3-1.228-3.042-1.3a1.59,1.59,0,0,1,.023-3.167,41.241,41.241,0,0,0,11.47-2.867c3.641-1.593,3.926-2.234,3.71-3.316-.095-.473-.271-.578-.347-.622-.289-.171-1.283-.469-4.263.468a53.293,53.293,0,0,1-10.163,2.038c-.569.07-1.118.137-1.651.21-4.956.676-18.295,1.99-18.86,2.046a1.587,1.587,0,0,1-1.507-.746,122.973,122.973,0,0,1-5.93-10.835c-.145-.312-.284-.619-.42-.919-1.22-2.69-1.75-3.6-3.106-3.6m31.648,27.307h0Zm-35.941-.805h0Z" transform="translate(-287.982 -300.62)" fill="#1a1311"/>
          <path id="Path_2002" data-name="Path 2002" d="M314.988,546.7l-22.274,28.088S290,583.846,297.7,588.6s13.138,1.359,13.138,1.359L331.6,557.268" transform="translate(-225.891 -422.564)" fill="#fff"/>
          <path id="Path_2003" data-name="Path 2003" d="M300.357,587.322a16.946,16.946,0,0,1-8.965-2.777c-6.913-4.27-6.732-12.089-5.671-15.627a1.591,1.591,0,0,1,.277-.531L308.274,540.3a1.589,1.589,0,0,1,2.491,1.975L288.7,570.1c-.348,1.441-1.566,8.072,4.367,11.737,5.831,3.6,10.064,2.044,11.184,1.507L324.789,551a1.589,1.589,0,0,1,2.683,1.7L306.708,585.4a1.592,1.592,0,0,1-.5.5,11.67,11.67,0,0,1-5.851,1.422" transform="translate(-220.421 -417.154)" fill="#1a1311"/>
          <path id="Path_2004" data-name="Path 2004" d="M327.22,577.931l6.569-9.287a93.154,93.154,0,0,0,10.042,8.709c4.531,3.171,13.289,6.015,13.289,6.015l-7.7,12.232" transform="translate(-252.922 -439.528)" fill="#fff"/>
          <path id="Path_2005" data-name="Path 2005" d="M344.007,591.78a1.59,1.59,0,0,1-1.344-2.436l6.635-10.537c-2.9-1.043-8.4-3.188-11.788-5.561a84.533,84.533,0,0,1-8.909-7.571l-5.493,7.766a1.589,1.589,0,0,1-2.6-1.836l6.569-9.287a1.59,1.59,0,0,1,2.424-.2,92.087,92.087,0,0,0,9.827,8.528c4.281,3,12.783,5.778,12.869,5.806a1.59,1.59,0,0,1,.854,2.358l-7.7,12.232a1.589,1.589,0,0,1-1.347.743" transform="translate(-247.511 -434.118)" fill="#1a1311"/>
          <path id="Path_2006" data-name="Path 2006" d="M532.066,524.144c.3-.1,3.222-.5,3.222-.5" transform="translate(-411.256 -404.743)" fill="#fff"/>
          <path id="Path_2007" data-name="Path 2007" d="M526.653,520.323a1.59,1.59,0,0,1-.5-3.1,26.656,26.656,0,0,1,3.507-.57,1.589,1.589,0,0,1,.434,3.149c-1.218.168-2.692.387-3,.455a1.58,1.58,0,0,1-.442.063m.5-.082-.045.014.045-.014" transform="translate(-405.843 -399.332)" fill="#1a1311"/>
          <path id="Path_2008" data-name="Path 2008" d="M529.849,552.077a26.9,26.9,0,0,1,3.322-.5" transform="translate(-409.542 -426.334)" fill="#fff"/>
          <path id="Path_2009" data-name="Path 2009" d="M524.437,548.257a1.59,1.59,0,0,1-.712-3.011c.215-.108.662-.331,3.87-.663a1.589,1.589,0,0,1,.327,3.162c-1.121.116-2.521.3-2.89.4a1.58,1.58,0,0,1-.595.116m.71-.168c-.028.014-.056.027-.084.039.034-.014.062-.028.084-.039" transform="translate(-404.129 -420.923)" fill="#1a1311"/>
          <line id="Line_77" data-name="Line 77" y1="0.529" x2="4.279" transform="translate(120.307 111.221)" fill="#fff"/>
          <path id="Path_2010" data-name="Path 2010" d="M524.436,486.539a1.59,1.59,0,0,1-.193-3.167l4.279-.529a1.589,1.589,0,1,1,.39,3.155l-4.279.529a1.651,1.651,0,0,1-.2.012" transform="translate(-404.131 -373.2)" fill="#1a1311"/>
          <path id="Path_2011" data-name="Path 2011" d="M170.355,525.747c-3.862,1.984-10.234,17.007-17.215,31.033-9.757,19.6-18.649,38.592-16.536,49.155,3.624,18.121,22.479,20.331,39.414,4.983,7.249-6.569,15.317-19.242,17.895-23.331,4.6-7.3,16.179-30.7,16.083-30.58,0,0-11.779-.906-18.8-6.569a44.706,44.706,0,0,1-9.74-11.1" transform="translate(-105.344 -406.371)" fill="#e0e0e0"/>
          <path id="Path_2012" data-name="Path 2012" d="M148.327,617.3a19.75,19.75,0,0,1-6.206-.964c-6.466-2.133-10.894-7.639-12.467-15.505-2.2-10.99,6.632-30,16.672-50.175,1.564-3.142,3.1-6.339,4.584-9.429,6.3-13.11,10.021-20.61,13.328-22.309a1.59,1.59,0,1,1,1.453,2.828c-2.519,1.294-7.511,11.688-11.916,20.858-1.489,3.1-3.029,6.307-4.6,9.47-9.784,19.657-18.4,38.13-16.4,48.135,1.339,6.7,5.013,11.351,10.346,13.11,7.584,2.5,17.469-.86,26.443-8.992,3.315-3,9.063-9.434,17.618-23,3.687-5.848,12.155-22.66,15.015-28.419-3.9-.572-11.911-2.229-17.386-6.645a45.969,45.969,0,0,1-10.12-11.544,1.589,1.589,0,0,1,2.755-1.586,43.533,43.533,0,0,0,9.361,10.655c6.387,5.151,17.27,6.165,17.9,6.219a1.582,1.582,0,0,1,.84.3,1.613,1.613,0,0,1,.37,2.245c-.085.176-.211.434-.374.764-.322.655-.789,1.6-1.365,2.75-1.007,2.017-2.6,5.184-4.461,8.819-3.153,6.151-7.42,14.291-9.844,18.136-7.022,11.137-13.136,19.1-18.172,23.661-7.611,6.9-15.956,10.619-23.367,10.619" transform="translate(-99.953 -400.96)" fill="#1a1311"/>
          <line id="Line_78" data-name="Line 78" y1="34.431" x2="24.917" transform="translate(47.342 135.005)" fill="#e0e0e0"/>
          <path id="Path_2013" data-name="Path 2013" d="M203.091,625.192a1.59,1.59,0,0,1-1.286-2.521l24.917-34.431A1.589,1.589,0,1,1,229.3,590.1L204.38,624.535a1.588,1.588,0,0,1-1.289.658" transform="translate(-155.75 -454.167)" fill="#1a1311"/>
          <path id="Path_2014" data-name="Path 2014" d="M319.748,657.539l-.072,0a27.488,27.488,0,0,1-15.311-5.792,24.068,24.068,0,0,1-9.046-13.33,1.589,1.589,0,0,1,3.1-.72c2.036,8.756,11.637,16.233,21.4,16.667a1.589,1.589,0,0,1-.069,3.177" transform="translate(-228.233 -491.949)" fill="#1a1311"/>
          <path id="Path_2015" data-name="Path 2015" d="M394.476,682.238a2.317,2.317,0,1,1-2.317-2.317,2.317,2.317,0,0,1,2.317,2.317" transform="translate(-301.325 -525.539)" fill="#1a1311"/>
          <rect id="Rectangle_308" data-name="Rectangle 308" width="72.486" height="93.93" transform="translate(93.725 141.65)" fill="#fff"/>
          <path id="Path_2016" data-name="Path 2016" d="M479.853,713.955H407.367a1.589,1.589,0,0,1-1.589-1.589v-93.93a1.589,1.589,0,0,1,1.589-1.589h72.486a1.589,1.589,0,0,1,1.589,1.589v93.93a1.589,1.589,0,0,1-1.589,1.589m-70.9-3.179h69.307V620.025H408.957Z" transform="translate(-313.643 -476.786)" fill="#1a1311"/>
          <rect id="Rectangle_309" data-name="Rectangle 309" width="34.129" height="12.685" transform="translate(112.903 141.65)" fill="#fff"/>
          <path id="Path_2017" data-name="Path 2017" d="M525.961,632.71H491.833a1.589,1.589,0,0,1-1.589-1.589V618.435a1.589,1.589,0,0,1,1.589-1.589h34.129a1.589,1.589,0,0,1,1.589,1.589v12.685a1.589,1.589,0,0,1-1.589,1.589m-32.54-3.179h30.95v-9.506h-30.95Z" transform="translate(-378.929 -476.786)" fill="#1a1311"/>
          <path id="Path_2018" data-name="Path 2018" d="M523,647.2a1.735,1.735,0,1,1-1.735-1.735A1.735,1.735,0,0,1,523,647.2" transform="translate(-401.567 -498.91)" fill="#1a1311"/>
          <path id="Path_2019" data-name="Path 2019" d="M613.452,647.2a1.735,1.735,0,1,1-1.735-1.735,1.735,1.735,0,0,1,1.735,1.735" transform="translate(-471.48 -498.91)" fill="#1a1311"/>
          <path id="Path_2020" data-name="Path 2020" d="M663.909,830.85c-.364-2.909-1.308-11.145-7.1-16.381a45.276,45.276,0,0,0-6.19-4.476l.421,6.435c-.875-.292-3.328-1.133-5.706-1.888-2.473-.785-5.441-.837-9.007-.873-6.181-.062-9.272-.818-9.272,2.727,0,1.873,3.182,4.182,7.614,4.617a50.206,50.206,0,0,1,7.946,1.382c-1.458-.291-16.234-2.265-16.427,2.356-.088,2.1,4.051,3.549,8.255,4.478a80.407,80.407,0,0,0,8.66,1.355s-14.223-3.12-13.64,2.13c.257,2.31,4.649,4.427,7.954,4.772,4.207.439,8.894.681,8.894.681s-14.621-.317-12.712,4.956c.5,1.369,4.49,2.031,7.909,2.273s8.582.909,8.582.909v7c.491,1.413,3.039,2.162,5.361,2.162,4.078,0,6.1-4.564,7.323-7.849,1.208-3.247,1.766-11.708,1.134-16.766" transform="translate(-484.006 -626.077)" fill="#fff"/>
          <path id="Path_2021" data-name="Path 2021" d="M650.04,851.644c-2.648,0-6.034-.846-6.862-3.23a1.59,1.59,0,0,1-.088-.522v-5.6c-1.761-.213-4.842-.568-7.1-.728-8.3-.587-9.021-2.57-9.291-3.317a3.735,3.735,0,0,1,.436-3.6,5.467,5.467,0,0,1,1.937-1.578c-3.126-.966-6.3-2.965-6.594-5.593a3.629,3.629,0,0,1,1.19-3.225c.092-.082.187-.16.288-.235q-.733-.276-1.342-.567c-2.339-1.119-3.49-2.524-3.42-4.178a3.643,3.643,0,0,1,1.472-2.762,7.137,7.137,0,0,1,2.53-1.167c-1.931-1.156-3.136-2.719-3.136-4.359a4.16,4.16,0,0,1,1.145-3.157c1.432-1.39,3.675-1.322,7.07-1.221.8.024,1.7.051,2.662.061,3.444.034,6.7.067,9.472.947,1.214.385,2.451.794,3.484,1.14l-.266-4.069a1.589,1.589,0,0,1,2.4-1.471,46.415,46.415,0,0,1,6.446,4.664c6.138,5.551,7.195,14.032,7.593,17.224l.018.139c.672,5.377.067,14.054-1.222,17.517-.99,2.659-3.306,8.884-8.813,8.884m-3.771-4.155a6.235,6.235,0,0,0,3.771.976c1.535,0,3.586-.775,5.833-6.814,1.109-2.98,1.647-11.212,1.046-16.015l-.017-.14c-.358-2.872-1.308-10.5-6.571-15.259A34.17,34.17,0,0,0,647,807.642l.214,3.272a1.589,1.589,0,0,1-2.089,1.611l-.775-.261c-1.144-.386-3.057-1.032-4.909-1.62-2.32-.737-5.342-.767-8.541-.8-.991-.01-1.913-.037-2.727-.062-2.11-.063-4.294-.129-4.761.324a1.451,1.451,0,0,0-.18.875c0,.624,2.125,2.637,6.18,3.035,2.274.223,4.381.592,5.748.862,2.691.531,3.251.642,3.61,1.508a1.6,1.6,0,0,1-1.879,2.152c-2.8-.559-12.057-1.268-14.269.469-.251.2-.256.321-.259.395,0,.006.472,1.415,7.01,2.859.75.166,1.505.315,2.238.448a44.175,44.175,0,0,1,6.419.907,1.589,1.589,0,0,1-.488,3.135c-.145-.013-2.927-.276-6.249-.868-2.568-.146-4.747.044-5.507.729-.11.1-.191.2-.157.511.114,1.023,3.217,3.021,6.539,3.367,4.118.43,8.764.672,8.811.674a1.59,1.59,0,0,1-.116,3.177c-4.549-.1-10.109.7-11.154,2.158a.544.544,0,0,0-.066.555c.385.306,2.135,1.028,6.563,1.341,3.425.242,8.461.89,8.674.918a1.589,1.589,0,0,1,1.386,1.576Z" transform="translate(-478.594 -620.666)" fill="#1a1311"/>
          <line id="Line_79" data-name="Line 79" x2="4.831" y2="1.665" transform="translate(167.293 190.503)" fill="#fff"/>
          <path id="Path_2022" data-name="Path 2022" d="M736.2,836.843a1.587,1.587,0,0,1-.518-.087l-4.831-1.665a1.589,1.589,0,1,1,1.036-3.006l4.831,1.665a1.59,1.59,0,0,1-.518,3.093" transform="translate(-564.078 -643.085)" fill="#1a1311"/>
          <path id="Path_2023" data-name="Path 2023" d="M698.542,864.606s7.307,1.479,7.853,1.661" transform="translate(-539.932 -668.289)" fill="#fff"/>
          <path id="Path_2024" data-name="Path 2024" d="M700.983,862.445a1.589,1.589,0,0,1-.485-.076c-.481-.137-4.31-.934-7.683-1.617a1.589,1.589,0,0,1,.63-3.116c2.765.56,7.485,1.526,8.04,1.711a1.59,1.59,0,0,1-.5,3.1m-.479-.074h0Z" transform="translate(-534.52 -662.878)" fill="#1a1311"/>
          <line id="Line_80" data-name="Line 80" x2="6.404" y2="0.903" transform="translate(159.098 204.506)" fill="#fff"/>
          <path id="Path_2025" data-name="Path 2025" d="M701.687,897.752a1.616,1.616,0,0,1-.224-.016l-6.4-.9a1.589,1.589,0,0,1,.443-3.148l6.4.9a1.59,1.59,0,0,1-.22,3.164" transform="translate(-536.182 -690.755)" fill="#1a1311"/>
          <line id="Line_81" data-name="Line 81" x2="4.378" y2="0.592" transform="translate(162.306 212.088)" fill="#fff"/>
          <path id="Path_2026" data-name="Path 2026" d="M713.789,930.838a1.607,1.607,0,0,1-.215-.015l-4.378-.592a1.589,1.589,0,0,1,.426-3.15l4.378.592a1.59,1.59,0,0,1-.211,3.165" transform="translate(-547.103 -716.568)" fill="#1a1311"/>
          <line id="Line_82" data-name="Line 82" x1="6.389" y1="1.963" transform="translate(167.02 230.899)" fill="#e0e0e0"/>
          <path id="Path_2027" data-name="Path 2027" d="M736.559,1015.051a1.587,1.587,0,0,1-.467-.071l-6.389-1.963a1.589,1.589,0,1,1,.933-3.038l6.389,1.963a1.59,1.59,0,0,1-.466,3.109" transform="translate(-563.149 -780.6)" fill="#1a1311"/>
          <path id="Path_2028" data-name="Path 2028" d="M755.489,741.307a1.589,1.589,0,0,1-1.589-1.586l-.045-24.845a1.589,1.589,0,0,1,1.586-1.592h0a1.589,1.589,0,0,1,1.589,1.587l.045,24.845a1.589,1.589,0,0,1-1.586,1.592Z" transform="translate(-582.685 -551.326)" fill="#1a1311"/>
          <path id="Path_2029" data-name="Path 2029" d="M69.281,92.306a8.576,8.576,0,0,1-.413-1.233q-.072-.288-.123-.581c-.019-.109-.042-.492-.011-.039-.007-.111-.025-.223-.034-.334a8.826,8.826,0,0,1-.012-1.254c.012-.2.039-.39.054-.585-.033.455-.008.067.01-.04s.039-.223.061-.333a11.312,11.312,0,0,1,.324-1.242q.093-.289.2-.574c.041-.109.084-.218.127-.326.016-.04.079-.185,0,.007-.094.217.012-.026.033-.073a16.408,16.408,0,0,1,1.3-2.361c.251-.384.519-.755.793-1.122.048-.065.171-.2-.053.068.03-.035.057-.073.085-.109q.1-.127.2-.252.233-.286.475-.564A24.114,24.114,0,0,1,74.2,79.4c.337-.308.683-.605,1.034-.9q.259-.215.522-.426l.3-.239.114-.089c.153-.119.094-.085-.021.016a22.878,22.878,0,0,1,2.345-1.68,43.436,43.436,0,0,1,5-2.873q.648-.317,1.306-.613.307-.138.616-.271c.059-.025.119-.048.177-.076,0,0-.265.11-.117.049l.4-.165q1.336-.544,2.707-1a42.823,42.823,0,0,1,5.582-1.444c.447-.084.895-.161,1.344-.227.058-.009.415-.058.163-.024s.1-.012.165-.02q.332-.041.666-.073a23.052,23.052,0,0,1,2.68-.111c.444.009.887.032,1.329.073q.154.014.307.031c.1.011.509.074.059,0,.216.034.433.064.648.1a12.8,12.8,0,0,1,2.489.706c.323.13-.211-.1.016.007.1.047.208.094.311.143q.29.139.57.3a11.828,11.828,0,0,1,1.084.7c.15.107-.223-.179-.08-.063l.1.082q.135.109.266.224.242.212.469.441t.437.47q.1.113.192.229l.08.1c.186.23-.14-.194-.04-.051.246.351.488.7.7,1.073q.159.279.3.567.066.135.129.271c.031.067.175.4.084.185s.037.1.057.15q.062.161.119.324.107.306.2.617a12.563,12.563,0,0,1,.3,1.264q.028.15.052.3c.016.1.047.5.01.053.017.216.049.432.065.648.032.432.043.866.033,1.3-.011.458-.054.911-.1,1.366-.018.163.019-.138.019-.136-.014.062-.019.13-.029.193q-.026.169-.056.337-.068.384-.155.764a19.649,19.649,0,0,1-.893,2.784c-.058.148.048-.112.049-.113-.028.058-.052.12-.077.18q-.069.157-.14.313-.163.357-.339.708-.331.659-.7,1.3a27.188,27.188,0,0,1-1.611,2.437q-.092.125-.185.248c-.039.052-.238.312-.1.137s-.073.092-.107.135q-.124.156-.249.31-.418.514-.859,1.009a31.329,31.329,0,0,1-3.806,3.616l-.277.22-.1.082c-.146.115.225-.172.077-.06-.176.133-.352.267-.531.4q-.535.392-1.085.761-1.1.739-2.26,1.385t-2.366,1.2q-.3.137-.606.268l-.122.052c.339-.15.171-.072.094-.04l-.327.134q-.615.247-1.24.469a31.027,31.027,0,0,1-5.121,1.34q-.327.056-.654.1c-.1.015-.207.021-.306.044.024-.005.359-.046.114-.015l-.176.022c-.482.06-.966.111-1.452.128-.234.008-.468.009-.7,0-.133-.006-.265-.018-.4-.03-.04,0-.213-.019-.008,0,.232.021-.053-.013-.1-.024a5.456,5.456,0,0,1-.663-.185c-.271-.091.069.028.064.031a1.085,1.085,0,0,1-.161-.078c-.093-.048-.184-.1-.273-.155s-.151-.1-.225-.153c-.145-.1.234.2.1.078-.029-.026-.059-.05-.088-.075a5.359,5.359,0,0,1-.432-.445c-.16-.179.184.257.009.009q-.079-.112-.151-.228a6.153,6.153,0,0,1-.3-.556c-.107-.22.115.3.007.009-.032-.087-.063-.175-.091-.264a5.565,5.565,0,0,1-.158-.621c-.013-.067-.06-.381-.026-.128s0-.069-.009-.13a5.612,5.612,0,0,1-.014-.639c0-.093.009-.185.017-.277.005-.061.013-.122.019-.183.014-.161-.019.141-.019.139.082-.231.093-.509.156-.748q.086-.324.2-.639a3.06,3.06,0,0,0,.137-.358s-.116.261-.049.118c.034-.073.065-.147.1-.219a14.316,14.316,0,0,1,1.531-2.466c.048-.064.174-.2-.05.063.029-.034.055-.07.083-.105q.1-.123.2-.244.225-.278.459-.548.438-.507.9-.989a23.92,23.92,0,0,1,1.969-1.816c.161-.133.324-.263.488-.392.2-.155-.056.055-.075.058a.783.783,0,0,0,.142-.108q.143-.107.287-.213.541-.4,1.1-.761a24.6,24.6,0,0,1,2.324-1.336q.6-.3,1.213-.571c.051-.022.379-.163.159-.069s.1-.04.161-.065q.331-.134.667-.258a24.052,24.052,0,0,1,2.561-.788q.651-.161,1.309-.285.307-.058.616-.107l.309-.047c.057-.008.26-.035.033-.006-.253.032.046-.006.077-.01a19.028,19.028,0,0,1,3.023-.148q.354.013.707.041.176.014.352.033l.2.023c.2.02-.361-.056-.028,0a13.07,13.07,0,0,1,1.475.31q.339.094.671.209.166.058.331.121l.187.074c.183.071-.292-.133-.03-.011a10.084,10.084,0,0,1,1.117.6q.251.158.492.332l.1.075c.149.106-.227-.182-.085-.067.088.071.176.142.262.215a8.44,8.44,0,0,1,.9.89c.064.074.126.15.188.226.15.182-.059-.068-.067-.089a.91.91,0,0,0,.1.135q.183.254.344.523t.3.549c.025.052.161.364.066.134s.041.11.065.179c.071.2.132.4.183.6q.036.142.065.287c.01.047.019.094.027.141,0,.02.054.347.02.11s.012.153.016.21q.015.2.017.4c0,.25-.005.5-.026.75-.01.115-.033.233-.037.349.012-.4-.008.017-.027.12-.046.249-.1.5-.168.74a13.665,13.665,0,0,1-.492,1.447c-.072.185.106-.237.023-.056-.021.047-.041.094-.062.14q-.083.187-.172.371-.163.34-.342.673-.3.569-.647,1.118t-.718,1.073c-.125.175-.26.343-.384.519-.005.008.187-.238.09-.117l-.107.135q-.107.135-.217.267a20.906,20.906,0,0,1-1.761,1.887q-.469.444-.965.859-.231.193-.468.381c-.271.214.179-.134-.019.016-.1.078-.206.156-.311.232a21.127,21.127,0,0,1-2.172,1.4q-.564.315-1.146.6-.272.13-.547.253c-.092.041-.185.079-.276.121.4-.186-.008,0-.1.038a19.992,19.992,0,0,1-2.452.8c-.2.052-.4.1-.608.146-.115.025-.231.049-.347.07a.9.9,0,0,1-.2.033l.176-.025q-.075.009-.151.014c-.116.009-.233.013-.35.011a1.131,1.131,0,0,0-.2-.01c.008,0,.286.056.131.019-.113-.027-.225-.057-.338-.084-.22-.052.144.067.142.067a.546.546,0,0,1-.155-.077c-.07-.038-.136-.083-.2-.125-.193-.121.25.231.049.031-.056-.056-.114-.11-.167-.169-.029-.032-.056-.074-.088-.1.056.054.195.289.081.093-.04-.07-.086-.136-.124-.208s-.148-.32-.049-.083-.01-.036-.029-.095c-.033-.1-.062-.205-.085-.31a.819.819,0,0,1-.047-.247s.036.395.024.162c0-.036-.006-.072-.008-.108-.012-.195.01-.386.009-.579,0-.158-.027.229-.029.2a.719.719,0,0,1,.024-.142q.023-.124.056-.245t.074-.238a1.393,1.393,0,0,0,.063-.168c.024.041-.142.313-.017.053a5.06,5.06,0,0,1,.3-.543c.056-.088.116-.172.176-.257.145-.21-.043.074-.06.074.029,0,.124-.152.142-.173a9.2,9.2,0,0,1,.959-.963q.24-.211.49-.411c.083-.067.166-.132.25-.2.063-.05.215-.15-.072.055.049-.035.1-.073.144-.109q.581-.441,1.177-.863c.8-.564,1.618-1.1,2.467-1.586q.633-.363,1.288-.687.326-.16.657-.309a2.111,2.111,0,0,1,.31-.136c-.031.008-.306.125-.072.031l.179-.072a15.315,15.315,0,0,1,2.754-.815q.188-.036.377-.067c.056-.009.428-.064.191-.03-.221.032.125-.013.193-.02q.192-.019.384-.033a10.244,10.244,0,0,1,1.224-.016q.294.014.586.046l.117.013c.234.025-.13-.017-.144-.02.1.022.208.031.311.049a10.519,10.519,0,0,1,1.151.267q.283.083.562.181.13.046.258.1l.146.057c.179.07-.081-.034-.121-.053.354.168.707.328,1.047.524s.645.422.966.639c-.013-.009-.281-.224-.106-.081l.089.072q.1.085.2.173.229.2.443.417.186.188.359.389c.064.074.122.163.192.232.012.012-.192-.261-.107-.138.036.052.075.1.111.152a6.95,6.95,0,0,1,.578.967c.039.079.072.161.112.24.08.157-.117-.295-.055-.13l.042.106q.109.286.191.58c.049.175.09.351.123.529a1.244,1.244,0,0,0,.026.153c0-.013-.043-.379-.02-.147.01.1.02.2.026.307.01.179.013.358.007.537q-.005.153-.018.306c0,.038-.007.076-.011.114-.025.241.017-.027.017-.112a3.86,3.86,0,0,1-.269,1.115q-.043.128-.091.253c-.018.048-.038.1-.056.143-.054.143.077-.178.068-.161-.1.182-.173.374-.272.555-.187.345-.426.647-.632.977.009-.015.223-.278.078-.1l-.074.09q-.088.1-.178.207-.208.232-.434.447-.2.188-.408.362a1.492,1.492,0,0,0-.121.1c.012-.012.287-.213.1-.08-.084.061-.167.122-.253.18a7.168,7.168,0,0,1-.97.557l-.1.049c-.206.1.113-.047.128-.052-.085.027-.167.067-.25.1q-.269.1-.547.173-.259.069-.522.116c-.019,0-.15.028-.151.025s.328-.038.188-.025c-.089.008-.178.019-.267.026a5.873,5.873,0,0,1-1.159-.035l1.368,1.8c.019-.078.038-.156.063-.232.017-.053.107-.281.013-.055s.012-.012.031-.047c.031-.059.065-.116.1-.173a1.021,1.021,0,0,0,.112-.166q-.2.254-.1.13.038-.046.079-.091c.07-.077.25-.187.29-.277-.03.068-.271.2-.064.052.055-.038.111-.074.169-.109s.14-.077.211-.114c.217-.114-.246.085-.082.032.128-.041.251-.084.383-.113a.66.66,0,1,0-.1.006c.076,0,.163-.013.24-.014s.134,0,.2.006c.246.017-.017.017-.1-.017.117.049.265.057.387.1q.057.019.113.04.153.059-.154-.066a.938.938,0,0,0,.179.09c.059.032.116.066.173.1.034.022.242.181.054.027s0,0,.043.041c.06.053.118.109.173.167s.089.1.134.149c.115.125-.183-.269-.052-.064.072.113.138.227.2.345.132.247-.095-.315-.02-.044.021.077.048.153.068.231a1.42,1.42,0,1,0,2.737-.755,4.233,4.233,0,0,0-8.219.065,1.415,1.415,0,0,0,.254,1.237,1.488,1.488,0,0,0,1.114.559c3.822.484,7.4-2.4,8.625-5.874a7.571,7.571,0,0,0-.292-5.621,9.142,9.142,0,0,0-3.541-3.916,11.841,11.841,0,0,0-5.209-1.715,13.717,13.717,0,0,0-5.942.894,25.174,25.174,0,0,0-5.631,3c-.89.617-1.77,1.262-2.6,1.959a8.832,8.832,0,0,0-2.063,2.369,4.968,4.968,0,0,0,.447,5.74c1.6,1.8,4.192,1.127,6.178.48a22.465,22.465,0,0,0,9.563-6.151,21.5,21.5,0,0,0,3.291-4.69,11.427,11.427,0,0,0,1.406-6.933c-.643-4.2-4.692-7-8.653-7.6a22.725,22.725,0,0,0-12.384,1.967A25.245,25.245,0,0,0,80.679,90.8a13.62,13.62,0,0,0-3.162,5.716,7.02,7.02,0,0,0,1.327,5.947,5.214,5.214,0,0,0,2.641,1.693,9,9,0,0,0,3.4.15,32.616,32.616,0,0,0,5.779-1.158,33.245,33.245,0,0,0,10.2-5.095,32.525,32.525,0,0,0,8.092-8.563c2.23-3.488,3.774-7.718,3.264-11.909a13.486,13.486,0,0,0-1.93-5.681,11.146,11.146,0,0,0-4.359-3.97c-3.63-1.819-7.825-1.76-11.74-1.111a44.114,44.114,0,0,0-11.78,3.774,43.355,43.355,0,0,0-5.266,2.987,40.378,40.378,0,0,0-4.982,3.842,23.755,23.755,0,0,0-3.9,4.6A14.836,14.836,0,0,0,66.03,87.4a10.114,10.114,0,0,0,.514,5.659,1.564,1.564,0,0,0,.652.848,1.419,1.419,0,0,0,1.942-.509,1.366,1.366,0,0,0,.143-1.094" transform="translate(-50.897 -51.327)" fill="#1a1311"/>
        </g>
      </g>
    </g>
    <path id="Path_2122" data-name="Path 2122" d="M74.131,0V74.131H0Z" transform="translate(834.526 1485.645)" fill="#275696"/>
    <text id="_" data-name="→" transform="translate(887.656 1550.776)" fill="#fff" font-size="27" font-family="SegoeUI, Segoe UI"><tspan x="-11.648" y="0">→</tspan></text>
    <g id="Rectangle_316" data-name="Rectangle 316" transform="translate(535.326 1330.606)" fill="none" stroke="#325691" stroke-width="4">
      <rect width="373.33" height="229.17" stroke="none"/>
      <rect x="2" y="2" width="369.33" height="225.17" fill="none"/>
    </g>
  </g>
</svg>
