<svg xmlns="http://www.w3.org/2000/svg" xmlns:xlink="http://www.w3.org/1999/xlink" width="386" height="267" viewBox="0 0 386 267">
  <defs>
    <clipPath id="clip-path">
      <rect id="Rectangle_46" data-name="Rectangle 46" width="386" height="267" transform="translate(-0.783 -0.223)" fill="#eaeaea"/>
    </clipPath>
    <clipPath id="clip-path-2">
      <rect id="Rectangle_127" data-name="Rectangle 127" width="353.601" height="237.572" fill="none"/>
    </clipPath>
  </defs>
  <g id="Mask_Group_4" data-name="Mask Group 4" transform="translate(0.783 0.223)" clip-path="url(#clip-path)">
    <g id="Group_52" data-name="Group 52" transform="translate(15.802 50.399)">
      <g id="Group_51" data-name="Group 51" transform="translate(0 0)" clip-path="url(#clip-path-2)">
        <path id="Path_1196" data-name="Path 1196" d="M1207.872,550.818a17.287,17.287,0,0,1-18.461,15.11l-28.389-2.4a15.619,15.619,0,0,1-14.271-17.864L1161.009,443.2a16.579,16.579,0,0,1,18.742-14.1l24.991,3.591a17.246,17.246,0,0,1,14.551,18.875Z" transform="translate(-914.581 -342.136)" fill="#bdbebf"/>
        <path id="Path_1197" data-name="Path 1197" d="M1186.14,562.487q-.755,0-1.518-.064l-28.39-2.4a16.807,16.807,0,0,1-15.347-19.211l14.258-102.465a17.767,17.767,0,0,1,20.087-15.11l24.991,3.591a18.411,18.411,0,0,1,15.563,20.187l-11.421,99.253-1.18-.136,1.18.136a18.47,18.47,0,0,1-18.223,16.221m-13.45-137.059a15.406,15.406,0,0,0-15.194,13.244l-14.257,102.465a14.431,14.431,0,0,0,13.194,16.516l28.389,2.4c.442.037.884.056,1.321.056A16.073,16.073,0,0,0,1202,545.993l11.421-99.253a16.019,16.019,0,0,0-13.54-17.564l-24.991-3.591a15.5,15.5,0,0,0-2.2-.158" transform="translate(-909.892 -337.448)" fill="#1a1311"/>
        <path id="Path_1198" data-name="Path 1198" d="M969.2,405.481c-1.115-4.368.967-6.771-10.118-11.719-1.334-.6-15.058-4.429-15.167-4.448-1.85-.315-34.319-.814-38.2-.837-8.088-.047-27.537,5.7-31.435,10.509s-7.824,42.624-8.567,41.728c-1.163-1.4-14.735,29.285-3.04,33.991,9.933,4,12.113-9.5,17.317-18.959-.09,7.27,1.247,7.573,1.989,21.1.384,7.006-7.558,48.172-8.07,49.415s38.7.925,50.977-.315c23.081-2.331,44.59-3.824,44.59-3.824s-1.759-31.388-2.056-32.268c5.886-.8,9.861-2.223,10.632-6.241s-7.333-72.208-8.846-78.135" transform="translate(-684.345 -309.87)" fill="#04427d"/>
        <path id="Path_1199" data-name="Path 1199" d="M885.577,523.385c-3.844,0-7.287-.041-9.976-.12-6.926-.2-7.194-.562-7.6-1.105a1.3,1.3,0,0,1-.175-1.253c.6-1.886,8.369-42.009,7.991-48.9a114.656,114.656,0,0,0-1.327-12.993c-.174-1.115-.331-2.128-.449-3.22-.4.891-.784,1.788-1.165,2.674-1.723,4-3.349,7.779-5.617,10.3-2.716,3.019-6.07,3.754-9.968,2.186-2.607-1.049-5.675-3.87-5.494-11.356.145-5.971,2.246-12.531,3.486-15.91a56.558,56.558,0,0,1,2.554-5.974c1.018-2,1.615-2.675,2.052-2.955.311-1.4.884-5.27,1.44-9.03,2.263-15.29,4.506-29.275,7.066-32.435.911-1.125,4.171-4.1,14.735-7.479,6.714-2.145,13.659-3.515,17.676-3.492,2.564.015,36.313.5,38.406.854.086.015,13.977,3.874,15.466,4.538,9.657,4.31,10.025,7.146,10.45,10.429a17.324,17.324,0,0,0,.368,2.119c.82,3.213,3.292,22.528,5.309,39.948,1.243,10.732,4.078,35.991,3.553,38.73-.906,4.725-5.459,6.269-10.5,7.066.416,4.59,1.256,18.924,1.94,31.138a1.247,1.247,0,0,1-1.158,1.313c-.215.015-21.755,1.518-44.551,3.82-6.767.683-20.279,1.014-29.794,1.09-1.622.013-3.2.019-4.724.019m-15.383-1.7q-.028.094-.048.143a1.1,1.1,0,0,0,.048-.143m-2.353-.807-.009.021.009-.021m2.645-.375c6.151.706,37.933.449,49.359-.7,19.724-1.992,38.509-3.387,43.4-3.74-.683-12.117-1.714-29.436-1.949-30.8a1.246,1.246,0,0,1,1.038-1.548c6.333-.864,9.018-2.333,9.576-5.241.252-1.34-.758-13.607-3.583-37.993-2.3-19.879-4.558-36.9-5.246-39.6a19.572,19.572,0,0,1-.425-2.416c-.369-2.85-.613-4.732-8.994-8.473-1.162-.519-13.826-4.075-14.908-4.363-2.141-.285-33.163-.786-37.962-.814h-.1c-8.1,0-26.9,5.771-30.362,10.048-2.342,2.891-5.071,21.326-6.536,31.23-.422,2.848-.786,5.308-1.081,7.078-.447,2.682-.6,3.585-1.547,3.851l-.064.016a45.538,45.538,0,0,0-4.372,10.1c-2.115,6.567-2.9,12.314-2.2,16.183.5,2.785,1.709,4.526,3.689,5.322,6.132,2.468,8.693-2.632,12.364-11.158,1.047-2.431,2.129-4.946,3.4-7.245a1.247,1.247,0,0,1,2.339.616,39.874,39.874,0,0,0,.634,7.778,116.8,116.8,0,0,1,1.353,13.24c.347,6.326-6.151,41.238-7.822,48.633M961.3,485.272c.007.029.016.052.021.069-.008-.023-.015-.046-.021-.069M859.838,436.6l0,0,0,0" transform="translate(-679.432 -304.956)" fill="#1a1311"/>
        <path id="Path_1200" data-name="Path 1200" d="M1085.19,299.564s.018,14.744,4.349,20.457,3.984,5.614,3.984,5.614-14.769,21.229-22.808,20.733c-10.493-.648-13.291-17.119-13.291-17.119s4.683.481,8.294-7.916-.143-18.985-.143-18.985" transform="translate(-843.456 -238.948)" fill="#fff"/>
        <path id="Path_1201" data-name="Path 1201" d="M1066.059,342.71q-.174,0-.344-.011c-4.769-.294-8.789-3.582-11.628-9.508a36.362,36.362,0,0,1-2.815-8.646,1.238,1.238,0,0,1,.311-1.083,1.2,1.2,0,0,1,1.034-.368c.3.012,3.953,0,7.033-7.167,3.379-7.857-.136-17.974-.172-18.076a1.247,1.247,0,0,1,2.35-.833c.16.451,3.874,11.149.113,19.894-1.607,3.736-3.635,6.325-6.027,7.7a7.745,7.745,0,0,1-1.911.79c.888,3.718,4.1,14.332,11.865,14.812,1.65.1,5.584-1.03,13.4-9.751a125.217,125.217,0,0,0,7.859-9.816c-.422-.63-1.373-1.971-3.5-4.783-4.531-5.978-4.6-20.589-4.6-21.208a1.246,1.246,0,0,1,1.245-1.248h0a1.247,1.247,0,0,1,1.247,1.245c0,.143.069,14.393,4.1,19.706,1.675,2.21,2.858,3.824,3.517,4.8.573.847,1.026,1.517.507,2.273-.018.027-.037.053-.057.078a127.506,127.506,0,0,1-8.436,10.6c-6.3,7.039-11.374,10.6-15.08,10.6m21.392-21.545h0Z" transform="translate(-838.532 -234.035)" fill="#1a1311"/>
        <path id="Path_1202" data-name="Path 1202" d="M1046.064,431.269s40.181.761,38.953.448-25.712,58.357-25.712,58.357-17.322-27.248-15.95-34.453,4.206-21.7,2.709-24.352" transform="translate(-832.171 -344.002)" fill="#fff"/>
        <path id="Path_1203" data-name="Path 1203" d="M1078.472,472.63h-.028a1.247,1.247,0,0,1-1.081-.676c-5.357-10.41-6.939-25.246-7.323-35.859-.223-6.169-.072-11.468.093-14.827.3-6.2.582-6.635.7-6.822a1.248,1.248,0,0,1,2.24,1.057,148.553,148.553,0,0,0-.515,21.214c.382,9.438,1.755,22.355,6.033,32.026,1.652-2.715,4.912-7.877,9.2-13.71,6.053-8.244,10.765-40.888,10.812-41.216a1.246,1.246,0,1,1,2.468.352c-.195,1.368-4.85,33.6-11.271,42.34A182.856,182.856,0,0,0,1079.554,472a1.247,1.247,0,0,1-1.082.628m-6.622-56.274a1.222,1.222,0,0,0,1.02-.471,1.248,1.248,0,0,1-1.02.471" transform="translate(-853.429 -329.228)" fill="#1a1311"/>
        <path id="Path_1204" data-name="Path 1204" d="M1105.493,446.3l14.095-1-4.653,8.643-6.691.867Z" transform="translate(-881.798 -355.194)" fill="#1a1311"/>
        <path id="Path_1205" data-name="Path 1205" d="M1095.326,488.879s-4.733,19.167-6.029,29.849l9.382,16.72,8.325-15.3s-4.507-26.835-4.987-32.133Z" transform="translate(-868.878 -389.263)" fill="#1a1311"/>
        <path id="Path_1206" data-name="Path 1206" d="M1170.358,391.731c.037-.423-1.71-21.19-1.71-21.19l-12.251-4.329s-4.646,21.464-7.075,28.446c-2.931,8.425-9.63,45.745-9.63,45.745s7.692-12.361,13.278-19.145,13.951-20.192,13.951-20.192l-6.313-4.865c6.025-2.869,9.751-4.469,9.751-4.469" transform="translate(-909.075 -292.109)" fill="#04427d"/>
        <path id="Path_1207" data-name="Path 1207" d="M1134.777,436.736a1.247,1.247,0,0,1-1.227-1.467c.274-1.528,6.75-37.514,9.68-45.935,2.376-6.83,6.988-28.086,7.034-28.3a1.246,1.246,0,0,1,1.634-.912l12.251,4.329a1.247,1.247,0,0,1,.827,1.071c1.756,20.874,1.721,21.273,1.709,21.4a1.246,1.246,0,0,1-.75,1.035c-.033.014-3.015,1.3-7.869,3.58l4.7,3.622a1.247,1.247,0,0,1,.3,1.647c-.344.55-8.472,13.555-14.046,20.325-5.469,6.642-13.106,18.889-13.182,19.012a1.247,1.247,0,0,1-1.059.588m17.622-73.792c-1.077,4.9-4.719,21.187-6.814,27.21-2.143,6.158-6.4,28.363-8.439,39.334,2.752-4.2,6.678-9.966,9.948-13.936,4.613-5.6,11.24-15.927,13.254-19.105l-5.415-4.173a1.247,1.247,0,0,1,.225-2.113c4.379-2.086,7.58-3.516,8.992-4.139-.2-2.836-1-12.473-1.59-19.488Zm13.045,23.873h0Z" transform="translate(-904.162 -287.195)" fill="#1a1311"/>
        <path id="Path_1208" data-name="Path 1208" d="M1025.578,406.314c.621-8.564,1.216-24.405,1.216-24.405l-10.048,3.972s-7.675,22.616-5.919,22.207c1.1-.257,5.108,1.025,8.413,2.346-2.718,1.693-6.887,4.127-6.844,4.46a82.076,82.076,0,0,0,6.84,17.256c3.907,6.767,17.458,20.775,17.458,20.775s-12.078-33.337-11.116-46.61" transform="translate(-806.079 -304.63)" fill="#04427d"/>
        <path id="Path_1209" data-name="Path 1209" d="M1031.78,449.257a1.245,1.245,0,0,1-.9-.38c-.558-.576-13.7-14.2-17.642-21.018a82.693,82.693,0,0,1-7-17.719c-.123-.948.643-1.445,2.034-2.347.893-.579,2.078-1.3,3.231-2.007a19.533,19.533,0,0,0-5.33-1.4,1.381,1.381,0,0,1-1.346-.425c-.557-.615-.658-1.5.218-5.085.466-1.91,1.192-4.478,2.156-7.633,1.637-5.352,3.426-10.629,3.444-10.682a1.248,1.248,0,0,1,.722-.759l10.048-3.972a1.247,1.247,0,0,1,1.7,1.206c-.006.159-.6,15.961-1.219,24.448-.933,12.86,10.925,45.765,11.045,46.1a1.247,1.247,0,0,1-1.172,1.671m-22.909-38.863a81.95,81.95,0,0,0,6.529,16.218c2.468,4.274,9,11.642,13.29,16.292-3.4-10.114-10.011-31.381-9.27-41.595.485-6.692.96-17.978,1.139-22.453l-7.732,3.056c-2.765,8.19-5.474,17.164-5.882,20.037a39.748,39.748,0,0,1,7.843,2.411,1.247,1.247,0,0,1,.2,2.215c-.647.4-1.376.848-2.11,1.3-1.3.8-3.152,1.924-4,2.52m-3.239-8.435h0" transform="translate(-801.164 -299.716)" fill="#1a1311"/>
        <path id="Path_1210" data-name="Path 1210" d="M1067.812,372.253l5.655-4.266s1.21,10.025,7.439,14.34l-10,10.843s-4.407-13.134-3.1-20.916" transform="translate(-851.548 -293.525)" fill="#fff"/>
        <path id="Path_1211" data-name="Path 1211" d="M1065.991,389.5a1.247,1.247,0,0,1-1.182-.85c-.046-.137-1.134-3.4-2.076-7.668-1.28-5.805-1.64-10.466-1.071-13.852a1.246,1.246,0,0,1,.479-.789l5.655-4.266a1.247,1.247,0,0,1,1.988.846c.011.094,1.226,9.526,6.912,13.464a1.247,1.247,0,0,1,.207,1.87l-10,10.843a1.247,1.247,0,0,1-.917.4m-1.942-21.474c-.745,5.612,1.385,13.963,2.5,17.787l7.605-8.251a19.743,19.743,0,0,1-5.4-8.522,31.734,31.734,0,0,1-1.073-3.755Z" transform="translate(-846.627 -288.611)" fill="#1a1311"/>
        <path id="Path_1212" data-name="Path 1212" d="M1133.482,371.294l12.036,9.093c.219.06,3.132-6.044,4.912-10.573a88.052,88.052,0,0,0,3.593-11.745l-5.141-3.913s-6.3,7.367-8.844,10.152-6.556,6.986-6.556,6.986" transform="translate(-904.123 -282.493)" fill="#fff"/>
        <path id="Path_1213" data-name="Path 1213" d="M1140.658,376.731a1.441,1.441,0,0,1-.381-.055,1.248,1.248,0,0,1-.423-.208l-12.036-9.093a1.246,1.246,0,0,1-.15-1.856c.04-.042,4.034-4.224,6.536-6.966s8.755-10.048,8.818-10.122a1.246,1.246,0,0,1,1.7-.181l5.124,3.9a1.245,1.245,0,0,1,.3.32c.327.5.415.629-.921,5.209-.5,1.7-1.486,4.955-2.555,7.676-.805,2.05-1.954,4.7-3.073,7.081-.5,1.059-.941,1.967-1.285,2.624-.464.888-.873,1.67-1.661,1.67m-10.223-10.5,9.814,7.414c.954-1.873,2.8-5.87,4.109-9.2a102.588,102.588,0,0,0,3.384-10.764l-3.591-2.734c-1.763,2.054-6.108,7.1-8.1,9.288-1.764,1.933-4.257,4.569-5.611,5.994" transform="translate(-899.209 -277.579)" fill="#1a1311"/>
        <path id="Path_1214" data-name="Path 1214" d="M917.462,52.069a15.138,15.138,0,0,1-8.087.476c.53,4.055,3.956,6.017,6.461,6.921-.009.3-.015.61-.014.925.068,13.532,11.427,21.1,11.427,21.1l2.738-35.144s-10.8-5.314-12.526,5.727" transform="translate(-725.364 -35.945)" fill="#1a1311"/>
        <path id="Path_1215" data-name="Path 1215" d="M923.974,79.036a.83.83,0,0,1-.461-.139,28.681,28.681,0,0,1-5.878-5.648,26.215,26.215,0,0,1-5.919-16.135c0-.117,0-.237,0-.362-3.734-1.507-6.014-4.11-6.442-7.38a.831.831,0,0,1,1.033-.912,14.512,14.512,0,0,0,7.143-.3c.588-3.119,1.965-5.26,4.1-6.368,4.07-2.114,9.308.417,9.529.525a.832.832,0,0,1,.462.81L924.8,78.269a.831.831,0,0,1-.828.766M907.175,50.3c.889,2.818,3.5,4.321,5.667,5.1a.831.831,0,0,1,.549.808c-.01.33-.014.623-.013.895.052,10.348,7.051,17.171,9.886,19.51l2.573-33.028c-1.3-.526-4.853-1.712-7.527-.319-1.748.91-2.859,2.811-3.3,5.649a.831.831,0,0,1-.541.654,15.929,15.929,0,0,1-7.292.73m7.011-1.513h0Z" transform="translate(-722.088 -32.664)" fill="#1a1311"/>
        <path id="Path_1216" data-name="Path 1216" d="M966.985,69.746c-.161,6.667,3.318,18.456,5.673,27.37,5.911,22.38,15.023,25.757,25.982,23.393,12.88-2.779,20.821-11.212,23.057-26.883,1.109-7.775,1.522-21.678-2.346-29.791S997.309,44.579,985,50.426s-17.728,7.274-18.018,19.32" transform="translate(-771.312 -38.921)" fill="#fff"/>
        <path id="Path_1217" data-name="Path 1217" d="M988.231,117.467a16.085,16.085,0,0,1-10.145-3.314c-4.913-3.747-8.69-10.828-11.547-21.648-.315-1.193-.65-2.437-.994-3.715-2.279-8.46-4.862-18.05-4.719-24,.284-11.8,5.453-14.211,15.753-19.018.943-.44,1.935-.9,2.976-1.4,13.088-6.218,31.921,5.428,36.007,14,4.135,8.673,3.489,23.255,2.455,30.5-1.13,7.921-3.766,14.288-7.834,18.923-3.958,4.51-9.406,7.539-16.194,9a27.376,27.376,0,0,1-5.758.67m-24.914-52.62c-.135,5.594,2.4,15,4.634,23.3.345,1.281.682,2.53,1,3.726C973.874,110.512,980.875,115,988.19,115a25.089,25.089,0,0,0,5.273-.635c12.774-2.756,20-11.208,22.085-25.841a82.079,82.079,0,0,0,.682-14.538c-.269-6.07-1.278-11.1-2.919-14.541-1.863-3.907-7.253-8.467-13.412-11.346-9.813-4.587-16.288-2.892-19.275-1.473-1.047.5-2.043.963-2.991,1.405C967.4,52.806,963.564,54.595,963.318,64.847Z" transform="translate(-766.399 -33.992)" fill="#1a1311"/>
        <path id="Path_1218" data-name="Path 1218" d="M1044.115,43.61s9.506-24.591-11.639-36.293c-14.062-7.782-40.409-.222-39.72,10.05.091,1.365,8.47.724,17.745,13.329a8.332,8.332,0,0,0,1.7-6.733s5.623,4.6,12.531,4.951c8.163.414,9.207,6.724,9.968,8.267s2.979,11.78,2.979,11.78,2.875-6.572,5.105-6.407,1.325,1.056,1.325,1.056" transform="translate(-791.862 -3.277)" fill="#1a1311"/>
        <path id="Path_1219" data-name="Path 1219" d="M1034.407,46.513c-.027,0-.055,0-.083,0a.831.831,0,0,1-.729-.651c-.883-4.075-2.387-10.523-2.912-11.588a10.117,10.117,0,0,1-.379-.949c-.833-2.281-2.383-6.527-8.887-6.856a24.077,24.077,0,0,1-11.552-4.084,8.792,8.792,0,0,1-2.04,5.608.831.831,0,0,1-1.272-.08c-6.584-8.948-12.649-11.046-15.563-12.054-1.373-.475-2.28-.789-2.342-1.712-.215-3.209,1.816-6.269,5.875-8.848,4.331-2.753,10.5-4.631,16.919-5.152,6.992-.568,13.441.557,18.159,3.168,11.263,6.233,13.927,16.075,14.177,23.233a39.734,39.734,0,0,1-1.927,13.416,1.434,1.434,0,0,1-.43.964.831.831,0,0,1-1.4-.746,4.564,4.564,0,0,0-.57-.073c-.974-.071-3.033,3.058-4.283,5.911a.831.831,0,0,1-.761.5m-25.479-26.66a.831.831,0,0,1,.526.188c.054.044,5.505,4.433,12.047,4.765,7.6.385,9.538,5.683,10.364,7.946.12.33.224.614.308.784a86.428,86.428,0,0,1,2.531,9.643c1.173-2.172,3.02-4.868,4.87-4.731a5.526,5.526,0,0,1,.961.144,38.656,38.656,0,0,0,1.58-12.042,26.56,26.56,0,0,0-2.927-11.543A25.211,25.211,0,0,0,1028.8,4.766c-9.558-5.289-25.263-3.227-33.381,1.933-3.364,2.138-5.172,4.657-5.117,7.117a12.39,12.39,0,0,0,1.237.47c2.971,1.028,9.046,3.129,15.672,11.729a7.941,7.941,0,0,0,.9-5.208.831.831,0,0,1,.822-.953" transform="translate(-788.584 0)" fill="#1a1311"/>
        <path id="Path_1220" data-name="Path 1220" d="M1094.528,335.939a15.077,15.077,0,0,1-8.011,4.022,8.191,8.191,0,0,1-6.143-1.192" transform="translate(-861.761 -267.962)" fill="#fff"/>
        <path id="Path_1221" data-name="Path 1221" d="M1079.986,336.46a9.271,9.271,0,0,1-5.279-1.6,1.247,1.247,0,1,1,1.507-1.986,6.919,6.919,0,0,0,5.155.961,14.067,14.067,0,0,0,7.32-3.633,1.247,1.247,0,0,1,1.854,1.666,16.271,16.271,0,0,1-8.706,4.415,9.843,9.843,0,0,1-1.852.177" transform="translate(-856.848 -263.06)" fill="#1a1311"/>
        <path id="Path_1222" data-name="Path 1222" d="M1232.331,190.229c4.053-2.288,8.974-.586,9.352,3.565s-4.51,9.12-9.251,8.889" transform="translate(-982.97 -150.919)" fill="#fff"/>
        <path id="Path_1223" data-name="Path 1223" d="M1227.829,199.03q-.187,0-.373-.009a1.246,1.246,0,1,1,.121-2.49,7.906,7.906,0,0,0,5.824-2.66,6.641,6.641,0,0,0,2.126-4.871,3.558,3.558,0,0,0-1.958-2.906,5.886,5.886,0,0,0-5.54.313,1.247,1.247,0,1,1-1.226-2.171,8.392,8.392,0,0,1,7.923-.35,6.055,6.055,0,0,1,3.283,4.888,9,9,0,0,1-2.809,6.822,10.547,10.547,0,0,1-7.372,3.434" transform="translate(-978.055 -146.013)" fill="#1a1311"/>
        <path id="Path_1224" data-name="Path 1224" d="M1046.453,259.9c-.867,4.055-1.973,10.135-1.973,10.135l5.251,1.658" transform="translate(-833.131 -207.314)" fill="#fff"/>
        <path id="Path_1225" data-name="Path 1225" d="M1044.817,268.03a1.246,1.246,0,0,1-.375-.058l-5.251-1.658a1.247,1.247,0,0,1-.851-1.412c.011-.061,1.119-6.145,1.98-10.172a1.246,1.246,0,1,1,2.438.521c-.636,2.973-1.409,7.087-1.766,9.017l4.2,1.327a1.247,1.247,0,0,1-.375,2.435" transform="translate(-828.216 -202.399)" fill="#1a1311"/>
        <path id="Path_1226" data-name="Path 1226" d="M1233.45,221.923a3.831,3.831,0,0,1,2.16-3.04" transform="translate(-983.862 -174.592)" fill="#fff"/>
        <path id="Path_1227" data-name="Path 1227" d="M1228.537,218.256c-.033,0-.065,0-.1,0a1.247,1.247,0,0,1-1.145-1.34,5.085,5.085,0,0,1,2.739-4,1.246,1.246,0,1,1,1.327,2.11c-.845.532-1.5,1.022-1.581,2.083a1.247,1.247,0,0,1-1.242,1.149" transform="translate(-978.949 -169.678)" fill="#1a1311"/>
        <path id="Path_1228" data-name="Path 1228" d="M1119.9,53.147a.815.815,0,0,1-.1-.006c-5.382-.635-10.843-4.607-14.478-7.828a.831.831,0,0,1,1.1-1.244c6.262,5.549,10.836,7.1,13.57,7.421a.831.831,0,0,1-.1,1.656" transform="translate(-881.436 -34.985)" fill="#fff"/>
        <path id="Path_1229" data-name="Path 1229" d="M1096.622,66.028a.807.807,0,0,1-.126-.009c-2.957-.449-7.823-2.254-14.21-8.3a.831.831,0,0,1,1.143-1.207c6.075,5.753,10.595,7.454,13.317,7.867a.831.831,0,0,1-.124,1.653" transform="translate(-863.079 -44.893)" fill="#fff"/>
        <line id="Line_43" data-name="Line 43" x2="2.221" y2="4.297" transform="translate(172.999 126.287)" fill="#04427d"/>
        <path id="Path_1230" data-name="Path 1230" d="M852.26,624.735a1.247,1.247,0,0,1-1.109-.674l-2.221-4.3a1.247,1.247,0,0,1,2.215-1.145l2.221,4.3a1.247,1.247,0,0,1-1.106,1.819" transform="translate(-677.039 -492.904)" fill="#1a1311"/>
        <path id="Path_1231" data-name="Path 1231" d="M356.831,913.94H5.87v-64.5H357.1Z" transform="translate(-4.682 -677.556)" fill="#fff"/>
        <path id="Path_1232" data-name="Path 1232" d="M433.736,910.445H1.463A1.347,1.347,0,0,1,0,909.258v-64.5a1.347,1.347,0,0,1,1.463-1.188h432.6a1.649,1.649,0,0,1,1.037.35,1.086,1.086,0,0,1,.426.843l-.325,64.5a1.349,1.349,0,0,1-1.463,1.183M2.926,908.07H432.279l.314-62.125H2.926Z" transform="translate(-40.962 -672.874)" fill="#1a1311"/>
        <path id="Path_1233" data-name="Path 1233" d="M926.413,513.566l13.943-17.158,11.418,6.8-8.466,16.743" transform="translate(-738.954 -395.961)" fill="#fff"/>
        <path id="Path_1234" data-name="Path 1234" d="M938.942,516.689a1.107,1.107,0,0,1-.987-1.607l8-15.821-9.707-5.777L922.908,509.9a1.107,1.107,0,1,1-1.719-1.4l13.942-17.158a1.107,1.107,0,0,1,1.426-.253l11.418,6.8a1.107,1.107,0,0,1,.422,1.451l-8.465,16.743a1.107,1.107,0,0,1-.989.608" transform="translate(-734.589 -391.595)" fill="#1a1311"/>
        <path id="Path_1235" data-name="Path 1235" d="M989.274,376.673a23.68,23.68,0,0,1-.023-6.3c.549-3.221,1.377-7.32,2.026-11.054,1.105-6.356-1.411-15.859,2.281-15.356,3.617.493,6.132,12.942,6.132,12.942s14.774-5.449,23.321-6.963c2.456-.435,4.459-1.01,5.388-.572,1.661.782.874,3.363-1.474,4.329-3.768,1.552-9.724,3.824-9.724,3.824a4.659,4.659,0,0,1,1.387,3.544c-.088,2.268-1.48,2.117-1.48,2.117a2.75,2.75,0,0,1,.873,3.392c-.837,2.322-2.02,2.471-2.02,2.471a8.451,8.451,0,0,1-.292,3.791,9.737,9.737,0,0,1-4.452,4.468c-1.089.581-4.826,4.7-8.807,5.237-5.487.743-6.842.955-6.842.955" transform="translate(-788.909 -274.348)" fill="#fff"/>
        <path id="Path_1236" data-name="Path 1236" d="M990.653,379.834a1.247,1.247,0,0,1-.192-2.478c.056-.009,1.431-.223,6.868-.959,2.6-.352,5.262-2.592,6.851-3.929a10.52,10.52,0,0,1,1.536-1.172,8.519,8.519,0,0,0,3.887-3.844,7.074,7.074,0,0,0,.212-3.124,1.249,1.249,0,0,1,.971-1.41c.086-.04.627-.338,1.109-1.674.491-1.36-.327-1.891-.362-1.913a1.247,1.247,0,0,1,.66-2.3h.015a1.584,1.584,0,0,0,.22-.919,3.416,3.416,0,0,0-.968-2.563,1.234,1.234,0,0,1-.406-1.154,1.246,1.246,0,0,1,.789-.943c.059-.023,5.984-2.284,9.694-3.812a2.378,2.378,0,0,0,1.585-1.76c0-.194-.06-.238-.168-.289a10.5,10.5,0,0,0-3.048.368c-.507.1-1.032.2-1.591.3-8.341,1.477-22.96,6.851-23.107,6.9a1.247,1.247,0,0,1-1.653-.923c-1.381-6.825-3.785-11.778-5.078-11.954a.442.442,0,0,0-.175,0s-.321.229-.457,1.7a41.06,41.06,0,0,0,0,4.607,41.119,41.119,0,0,1-.252,8.028c-.321,1.848-.686,3.781-1.038,5.651-.366,1.941-.711,3.774-.988,5.4a22.415,22.415,0,0,0,.027,5.907,1.247,1.247,0,0,1-2.467.364,24.754,24.754,0,0,1-.018-6.691c.281-1.645.628-3.489,1-5.441.35-1.861.713-3.786,1.031-5.617a39.346,39.346,0,0,0,.217-7.518c-.128-3.843-.229-6.879,1.272-8.233a2.618,2.618,0,0,1,2.19-.626c2.063.281,3.789,2.661,5.434,7.489.655,1.923,1.144,3.8,1.437,5.034,3.855-1.38,15.051-5.27,22.2-6.536.535-.095,1.047-.2,1.542-.294,2.033-.4,3.5-.693,4.594-.178a2.73,2.73,0,0,1,1.6,2.606,4.751,4.751,0,0,1-3.128,4c-2.58,1.062-6.214,2.474-8.239,3.254a5.957,5.957,0,0,1,.673,3.009,3.88,3.88,0,0,1-.809,2.434,4.213,4.213,0,0,1,.129,3.45,5.66,5.66,0,0,1-1.869,2.773,8.444,8.444,0,0,1-.463,3.542,11.031,11.031,0,0,1-5.017,5.092,13.23,13.23,0,0,0-1.105.88c-1.8,1.512-4.8,4.043-8.122,4.493-5.395.73-6.8.95-6.816.952a1.249,1.249,0,0,1-.194.015m20.233-16.934h0m0,0h0m0,0h0m1.433-5.866h0m0,0h0" transform="translate(-783.994 -269.435)" fill="#1a1311"/>
        <path id="Path_1237" data-name="Path 1237" d="M1095.008,411.495s5.5-2.013,6.934-2.494" transform="translate(-873.434 -326.24)" fill="#fff"/>
        <path id="Path_1238" data-name="Path 1238" d="M1090.643,408.235a1.107,1.107,0,0,1-.381-2.147c.225-.083,5.534-2.024,6.962-2.5a1.107,1.107,0,0,1,.7,2.1c-1.4.47-6.851,2.464-6.906,2.484a1.108,1.108,0,0,1-.38.068" transform="translate(-869.068 -321.873)" fill="#1a1311"/>
        <line id="Line_44" data-name="Line 44" y1="2.317" x2="6.639" transform="translate(222.228 88.503)" fill="#fff"/>
        <path id="Path_1239" data-name="Path 1239" d="M1093.873,436.436a1.107,1.107,0,0,1-.365-2.153l6.64-2.317a1.107,1.107,0,1,1,.729,2.091l-6.639,2.317a1.106,1.106,0,0,1-.365.062" transform="translate(-871.645 -344.509)" fill="#1a1311"/>
        <line id="Line_45" data-name="Line 45" y1="1.869" x2="5.582" transform="translate(221.471 94.701)" fill="#fff"/>
        <path id="Path_1240" data-name="Path 1240" d="M1090.131,466.621a1.107,1.107,0,0,1-.352-2.157l5.582-1.87a1.107,1.107,0,0,1,.7,2.1l-5.582,1.87a1.106,1.106,0,0,1-.352.058" transform="translate(-868.661 -368.943)" fill="#1a1311"/>
        <path id="Path_1241" data-name="Path 1241" d="M854.444,592.894l-56.493,2.83-16.366-79.6,60.243-4.7,6.356,39.517Z" transform="translate(-623.432 -407.943)" fill="#fff"/>
        <path id="Path_1242" data-name="Path 1242" d="M793.277,592.236a1.185,1.185,0,0,1-1.16-.947l-16.367-79.6a1.186,1.186,0,0,1,1.069-1.42l60.244-4.7a1.183,1.183,0,0,1,1.263.994l6.356,39.517,6.262,41.959a1.185,1.185,0,0,1-1.113,1.359l-56.493,2.83h-.06m-14.934-79.7,15.891,77.283,54.171-2.713-6.067-40.653-6.181-38.426Z" transform="translate(-618.759 -403.27)" fill="#1a1311"/>
        <path id="Path_1243" data-name="Path 1243" d="M829.149,620.832l-56.64,1.476s-1.934-25.148-4.188-34.206c-1.854-7.451-14.051-42.342-14.051-42.342l61.6-5.149s7.1,34.033,8.179,38.725,5.1,41.5,5.1,41.5" transform="translate(-601.644 -431.219)" fill="#fff"/>
        <path id="Path_1244" data-name="Path 1244" d="M767.837,618.822a1.186,1.186,0,0,1-1.181-1.094c-.019-.25-1.952-25.152-4.156-34.011-1.819-7.313-13.9-41.889-14.019-42.237a1.185,1.185,0,0,1,1.02-1.572l61.6-5.149a1.185,1.185,0,0,1,1.259.939c.071.34,7.11,34.075,8.174,38.7,1.082,4.706,4.96,40.127,5.124,41.632a1.186,1.186,0,0,1-1.147,1.314l-56.64,1.476h-.032m-16.615-76.68c2.349,6.745,11.927,34.362,13.578,41,2.005,8.061,3.723,28.233,4.13,33.278l54.228-1.413c-.721-6.537-4-36-4.937-40.079-.963-4.189-6.775-32-7.971-37.722Z" transform="translate(-596.972 -426.547)" fill="#1a1311"/>
        <path id="Path_1245" data-name="Path 1245" d="M1020.418,718.466l-7.164-.041s-2.226-5.194-4.117-7.387c-1.542-1.789-4.081-3.881-6.448-6.287-4.145-4.214-4.836-3.593-7.554-4.4.068.306,1.707,10.611,1.122,11-.891.587-10.536,2.263-13.969,2.631-7.846.842-14.217-.818-16.06,1.166-1.861,2,.535,2.8,4.22,3.9,2.23.669,9.028.921,9.028.921a68.167,68.167,0,0,1-7.945-.369c-3.351-.516-6.245.178-5.736,2.346.559,2.383,8.062,3.642,8.062,3.642s-6.54-1.474-5.918.576c.41,1.35,8.291,3.593,8.291,3.593s-5.234-1.008-3.8.9c1.695,2.253,13.156,4.216,19.021,3.752,1.7-.135,7.323-1.584,10.427-2.284a16,16,0,0,1,7.015-.185l10.791,3.355" transform="translate(-770.198 -558.637)" fill="#fff"/>
        <path id="Path_1246" data-name="Path 1246" d="M1014.76,731.622a1.251,1.251,0,0,1-.371-.056l-10.758-3.345a15.2,15.2,0,0,0-6.4.2c-.865.2-1.931.449-3.058.719a75.59,75.59,0,0,1-7.545,1.591,47.818,47.818,0,0,1-11.4-.874c-3.281-.615-7.456-1.7-8.714-3.371a1.888,1.888,0,0,1-.337-2.03c-3.258-1.235-4.1-2.015-4.35-2.848a1.89,1.89,0,0,1,.275-1.728,4.182,4.182,0,0,1-2.439-2.566,2.843,2.843,0,0,1,.651-2.661,3.474,3.474,0,0,1,.966-.721,3.164,3.164,0,0,1-1.786-1.885,2.794,2.794,0,0,1,.9-2.669c1.453-1.565,4.253-1.484,8.128-1.372a62.242,62.242,0,0,0,8.712-.186,126.513,126.513,0,0,0,12.988-2.3c-.029-2.071-1.019-8.751-1.229-9.834a1.232,1.232,0,0,1,.369-1.172,1.246,1.246,0,0,1,1.206-.274c.485.144.9.239,1.306.331,2.03.463,3.346.9,6.782,4.388,1,1.02,2.034,1.978,3.03,2.905a47.57,47.57,0,0,1,3.473,3.442,34.706,34.706,0,0,1,3.986,6.959l6.359.037a1.247,1.247,0,0,1-.007,2.493h-.008l-7.164-.042a1.247,1.247,0,0,1-1.138-.755c-.022-.05-2.173-5.043-3.916-7.064a46.045,46.045,0,0,0-3.283-3.244c-1.017-.945-2.068-1.923-3.11-2.983-2.808-2.855-3.788-3.281-5.137-3.608.155,1.022.344,2.332.515,3.643.2,1.559.338,2.825.4,3.763.107,1.514.117,2.469-.64,2.967-1.325.873-11.968,2.556-14.521,2.83a65.226,65.226,0,0,1-9.05.2c-2.726-.079-5.545-.16-6.229.576a2.054,2.054,0,0,0-.271.349,16.055,16.055,0,0,0,3.936,1.514,56.334,56.334,0,0,0,8.715.869,1.246,1.246,0,0,1-.035,2.492,68.212,68.212,0,0,1-8.145-.383c-2.492-.383-3.924.047-4.279.431-.05.054-.118.127-.054.4.131.557,2.286,1.667,5.532,2.4.545.09,1.082.2,1.591.313a1.247,1.247,0,0,1-.481,2.445c-.038-.007-.488-.083-1.165-.229a19.6,19.6,0,0,0-2.22-.256,49.458,49.458,0,0,0,6.305,2.225,1.246,1.246,0,0,1-.577,2.423c-.311-.06-.637-.11-.956-.148a30.048,30.048,0,0,0,5.568,1.492,45.911,45.911,0,0,0,10.746.839c1.126-.089,4.473-.888,7.162-1.531,1.136-.271,2.208-.528,3.089-.726a17.2,17.2,0,0,1,7.61-.173l.049.014,10.791,3.355a1.247,1.247,0,0,1-.37,2.437" transform="translate(-765.277 -553.715)" fill="#1a1311"/>
        <path id="Path_1247" data-name="Path 1247" d="M1026.044,796.385s6.494.023,9.258-.207" transform="translate(-818.425 -635.072)" fill="#fff"/>
        <path id="Path_1248" data-name="Path 1248" d="M1021.678,792.718h-.552a1.246,1.246,0,0,1,0-2.493h0c.064,0,6.472.02,9.15-.2a1.246,1.246,0,1,1,.207,2.484c-2.34.2-7.17.213-8.813.213" transform="translate(-813.511 -630.158)" fill="#1a1311"/>
        <path id="Path_1249" data-name="Path 1249" d="M1006.469,825.085s8.037.852,12.735.092" transform="translate(-802.811 -658.13)" fill="#fff"/>
        <path id="Path_1250" data-name="Path 1250" d="M1009.3,821.826c-3.892,0-7.648-.391-7.876-.416a1.247,1.247,0,0,1,.263-2.479c.079.008,7.928.826,12.4.1a1.247,1.247,0,0,1,.4,2.461,34.006,34.006,0,0,1-5.189.332" transform="translate(-797.897 -653.216)" fill="#1a1311"/>
        <path id="Path_1251" data-name="Path 1251" d="M1018.191,845.684s6.195,1.174,10.363.345" transform="translate(-812.161 -674.561)" fill="#fff"/>
        <path id="Path_1252" data-name="Path 1252" d="M1020.1,842.658a42.563,42.563,0,0,1-7.052-.664,1.246,1.246,0,0,1,.464-2.449c.06.011,6.01,1.119,9.888.348a1.247,1.247,0,0,1,.486,2.445,19.834,19.834,0,0,1-3.787.32" transform="translate(-807.247 -669.646)" fill="#1a1311"/>
        <path id="Path_1253" data-name="Path 1253" d="M1213.689,776.83l-7.83.138.294,21.162,6.2-.3" transform="translate(-961.855 -619.64)" fill="#fff"/>
        <path id="Path_1254" data-name="Path 1254" d="M1201.24,794.463a1.246,1.246,0,0,1-1.246-1.229l-.294-21.162a1.246,1.246,0,0,1,1.224-1.264l7.83-.138a1.246,1.246,0,0,1,.044,2.493l-6.588.116.259,18.631,4.912-.236a1.247,1.247,0,0,1,.12,2.49l-6.2.3h-.06" transform="translate(-956.941 -614.726)" fill="#1a1311"/>
        <path id="Path_1255" data-name="Path 1255" d="M1255.753,464.509l4.421,18.515-27.911,1.52,1.232,26.68s25.126-1.792,37.18-3.053c17.274-1.807,14.334-14.392,13.817-19.9-.829-8.843-15.751-65.494-15.751-65.494-1.244-4.422-6.218-8.152-12.3-10.363" transform="translate(-982.916 -328.966)" fill="#04427d"/>
        <path id="Path_1256" data-name="Path 1256" d="M1228.581,507.556a1.246,1.246,0,0,1-1.245-1.189l-1.232-26.681a1.247,1.247,0,0,1,1.177-1.3l26.419-1.439-4.075-17.062a1.247,1.247,0,0,1,2.425-.579l4.422,18.515a1.247,1.247,0,0,1-1.145,1.534l-26.677,1.453,1.116,24.168c5.267-.382,25.519-1.875,35.865-2.957,5.162-.54,8.837-2.135,10.924-4.74,2.95-3.683,2.342-8.909,1.939-12.368-.059-.509-.115-.991-.157-1.433-.807-8.6-15.441-64.249-15.713-65.283-1.052-3.72-5.358-7.278-11.521-9.52a1.247,1.247,0,0,1,.852-2.343c7.024,2.554,11.788,6.635,13.071,11.2l.005.02c.61,2.317,14.958,56.852,15.787,65.7.038.414.093.882.151,1.378.451,3.871,1.131,9.72-2.47,14.215-2.519,3.145-6.761,5.049-12.61,5.661-11.937,1.248-36.97,3.038-37.221,3.056-.03,0-.059,0-.089,0" transform="translate(-978.002 -324.05)" fill="#1a1311"/>
        <path id="Path_1257" data-name="Path 1257" d="M1260.487,869.786a1.51,1.51,0,1,1-1.979-.8,1.51,1.51,0,0,1,1.979.8" transform="translate(-1003.113 -693.049)" fill="#1a1311"/>
        <path id="Path_1258" data-name="Path 1258" d="M1294.618,867.479a1.511,1.511,0,1,1-1.979-.8,1.511,1.511,0,0,1,1.979.8" transform="translate(-1030.338 -691.209)" fill="#1a1311"/>
        <path id="Path_1259" data-name="Path 1259" d="M964.661,713.689a1.183,1.183,0,0,1-.9-.407,55.572,55.572,0,0,0-8.566-6.122,1.185,1.185,0,0,1,1.235-2.023c3.984,2.432,8.075,5.388,9.12,6.59a1.185,1.185,0,0,1-.894,1.963" transform="translate(-761.463 -562.314)" fill="#1a1311"/>
        <path id="Path_1260" data-name="Path 1260" d="M1365.515,757.262a1.188,1.188,0,0,1-.026-2.375l6.606-.151a1.188,1.188,0,1,1,.054,2.375l-6.607.151h-.028" transform="translate(-1088.257 -602.015)" fill="#1a1311"/>
        <path id="Path_1261" data-name="Path 1261" d="M932.6,844.2a1.185,1.185,0,0,1-.405-2.3c.045-.016,4.534-1.65,5.994-2.314a1.185,1.185,0,1,1,.981,2.158c-1.544.7-5.977,2.315-6.165,2.384a1.182,1.182,0,0,1-.4.072" transform="translate(-742.943 -669.615)" fill="#1a1311"/>
        <path id="Path_1262" data-name="Path 1262" d="M812.818,590.725a.911.911,0,0,1-.078-1.818l31.642-2.763a.911.911,0,0,1,.158,1.814L812.9,590.722c-.027,0-.054,0-.08,0" transform="translate(-647.62 -467.535)" fill="#1a1311"/>
        <path id="Path_1263" data-name="Path 1263" d="M820.331,621.177a.911.911,0,0,1-.069-1.818l32.056-2.487a.911.911,0,1,1,.141,1.816L820.4,621.174l-.071,0" transform="translate(-653.612 -492.046)" fill="#1a1311"/>
        <path id="Path_1264" data-name="Path 1264" d="M828.524,655.856a.911.911,0,0,1-.078-1.818l19.137-1.658a.911.911,0,1,1,.157,1.814L828.6,655.852c-.027,0-.053,0-.079,0" transform="translate(-660.147 -520.369)" fill="#1a1311"/>
        <path id="Path_1265" data-name="Path 1265" d="M539.214,959l-52.105,14.425,1.009,3.433,68.481,5.642,35.949-17.059-.249-3.008Z" transform="translate(-388.543 -764.951)" fill="#e0e0e0"/>
        <path id="Path_1266" data-name="Path 1266" d="M551.849,978.995c-.109,0-.214,0-.315-.012l-66.411-5.472a2.89,2.89,0,0,1-2.422-1.972l-.423-1.44a2.268,2.268,0,0,1,1.572-2.827l50.1-13.87a8.59,8.59,0,0,1,2.451-.253l51.013,3.3a2.5,2.5,0,0,1,2.284,2.244l.078.937a2.874,2.874,0,0,1-1.561,2.71l-34.072,16.168a5.853,5.853,0,0,1-2.3.488m-67.115-9.382.359,1.222a.47.47,0,0,0,.241.192l66.4,5.471a3.428,3.428,0,0,0,1.337-.244l34.072-16.168a.456.456,0,0,0,.145-.259l-.074-.893-50.976-3.3a6.2,6.2,0,0,0-1.625.167Z" transform="translate(-384.615 -760.271)" fill="#1a1311"/>
        <path id="Path_1267" data-name="Path 1267" d="M592.3,962.439l-53.086-3.434-52.105,14.424,69.292,5.9" transform="translate(-388.543 -764.951)" fill="#e0e0e0"/>
        <path id="Path_1268" data-name="Path 1268" d="M553.422,977.106c-.021,0-.043,0-.065,0l-69.292-5.9a.756.756,0,0,1-.137-1.482l52.1-14.425a.751.751,0,0,1,.251-.026l53.086,3.434a.756.756,0,1,1-.1,1.509l-52.958-3.426-47.921,13.266,65.093,5.543a.756.756,0,0,1-.063,1.509" transform="translate(-385.563 -761.971)" fill="#1a1311"/>
        <line id="Line_46" data-name="Line 46" y1="16.891" x2="35.899" transform="translate(167.858 197.488)" fill="#e0e0e0"/>
        <path id="Path_1269" data-name="Path 1269" d="M827.684,991.476a.472.472,0,0,1-.2-.9l35.9-16.891a.472.472,0,0,1,.4.855l-35.9,16.891a.472.472,0,0,1-.2.045" transform="translate(-659.826 -776.625)" fill="#1a1311"/>
        <path id="Path_1270" data-name="Path 1270" d="M624.673,980.546l42.557,2.625-19.344,9.119-47.255-4.007Z" transform="translate(-479.093 -782.134)" fill="#fff"/>
        <path id="Path_1271" data-name="Path 1271" d="M645.838,990.763l-.044,0-47.255-4.007a.519.519,0,0,1-.115-1.012L622.466,978a.528.528,0,0,1,.191-.024l42.557,2.625a.52.52,0,0,1,.19.988l-19.344,9.119a.522.522,0,0,1-.221.05m-44.632-4.825,44.536,3.776,17.386-8.2-40.438-2.495Z" transform="translate(-477.046 -780.086)" fill="#1a1311"/>
        <line id="Line_47" data-name="Line 47" x1="19.344" y2="9.119" transform="translate(161.239 200.577)" fill="#fff"/>
        <path id="Path_1272" data-name="Path 1272" d="M794.787,998.835a.52.52,0,0,1-.222-.989l19.344-9.119a.519.519,0,0,1,.443.94l-19.344,9.119a.518.518,0,0,1-.221.05" transform="translate(-633.548 -788.619)" fill="#1a1311"/>
        <line id="Line_48" data-name="Line 48" x1="19.344" y2="9.119" transform="translate(154.008 200.255)" fill="#fff"/>
        <path id="Path_1273" data-name="Path 1273" d="M759.051,997.241a.52.52,0,0,1-.222-.989l19.344-9.12a.519.519,0,0,1,.443.94l-19.344,9.119a.513.513,0,0,1-.221.05" transform="translate(-605.043 -787.347)" fill="#1a1311"/>
        <line id="Line_49" data-name="Line 49" x1="19.344" y2="9.119" transform="translate(147.191 199.702)" fill="#fff"/>
        <path id="Path_1274" data-name="Path 1274" d="M725.365,994.51a.52.52,0,0,1-.222-.989l19.344-9.119a.519.519,0,1,1,.443.94l-19.344,9.119a.518.518,0,0,1-.221.05" transform="translate(-578.173 -785.169)" fill="#1a1311"/>
        <line id="Line_50" data-name="Line 50" x2="42.557" y2="2.625" transform="translate(141.158 200.531)" fill="#fff"/>
        <path id="Path_1275" data-name="Path 1275" d="M738.105,992.113h-.033l-42.557-2.625a.519.519,0,0,1,.064-1.037l42.557,2.625a.519.519,0,0,1-.032,1.038" transform="translate(-554.39 -788.438)" fill="#1a1311"/>
        <line id="Line_51" data-name="Line 51" x2="41.36" y2="2.717" transform="translate(137.151 202.834)" fill="#fff"/>
        <path id="Path_1276" data-name="Path 1276" d="M717.105,1003.586h-.035l-41.36-2.717a.519.519,0,1,1,.068-1.036l41.36,2.717a.519.519,0,0,1-.033,1.037" transform="translate(-538.594 -797.516)" fill="#1a1311"/>
        <line id="Line_52" data-name="Line 52" x2="41.36" y2="2.717" transform="translate(132.453 204.861)" fill="#fff"/>
        <path id="Path_1277" data-name="Path 1277" d="M693.888,1013.6h-.035l-41.36-2.717a.519.519,0,1,1,.068-1.036l41.36,2.717a.519.519,0,0,1-.034,1.038" transform="translate(-520.075 -805.504)" fill="#1a1311"/>
        <path id="Path_1278" data-name="Path 1278" d="M353.172,746.963l71.326,4.3s25.973,62.2,25.266,62.109-67.8-5.556-68.481-5.643-28.111-60.764-28.111-60.764" transform="translate(-281.708 -595.816)" fill="#e0e0e0"/>
        <path id="Path_1279" data-name="Path 1279" d="M445.255,809.86q-.1,0-.193-.008c-6.836-.56-66.812-5.476-67.5-5.563-.79-.1-.967-.463-2.348-3.284-.765-1.562-1.854-3.853-3.237-6.808-2.326-4.968-5.518-11.888-9.489-20.568-6.758-14.774-13.52-29.731-13.589-29.882a1.812,1.812,0,0,1,1.82-2.642l69.253,4.173a3.052,3.052,0,0,1,2.513,1.785l24.479,60.2a1.884,1.884,0,0,1-.178,1.862,1.849,1.849,0,0,1-1.53.735m-66.819-7.995c5.173.444,44.034,3.634,65.845,5.421l-24.1-59.273a.675.675,0,0,0-.36-.247l-68.226-4.111c9.942,21.983,24.556,53.995,26.842,58.209m.23.393h0ZM351.17,742.721h0" transform="translate(-278.143 -591.141)" fill="#1a1311"/>
        <path id="Path_1280" data-name="Path 1280" d="M716.953,832.891a.59.59,0,0,1-.545-.365L696.64,784.593a.589.589,0,1,1,1.09-.449L717.5,832.076a.59.59,0,0,1-.545.814" transform="translate(-555.639 -625.182)" fill="#1a1311"/>
        <path id="Path_1281" data-name="Path 1281" d="M561.93,896.349c-.014,1.666-2.221,3-4.928,2.974s-4.89-1.393-4.876-3.059,2.221-3,4.928-2.974,4.89,1.393,4.876,3.059" transform="translate(-440.404 -712.533)" fill="#fff"/>
        <path id="Path_1282" data-name="Path 1282" d="M552.975,896.265H552.9c-3.331-.029-5.926-1.833-5.906-4.107a3.635,3.635,0,0,1,1.957-3,7.726,7.726,0,0,1,4.02-1c3.331.029,5.926,1.833,5.906,4.107a3.636,3.636,0,0,1-1.957,3,7.717,7.717,0,0,1-3.941,1m-.087-6.034a5.707,5.707,0,0,0-2.868.7,1.654,1.654,0,0,0-.952,1.24c-.008.933,1.635,1.991,3.845,2.011a5.738,5.738,0,0,0,2.928-.7,1.654,1.654,0,0,0,.952-1.239l1.04.009-1.04-.009c.008-.933-1.635-1.992-3.845-2.011h-.06" transform="translate(-436.307 -708.436)" fill="#1a1311"/>
      </g>
    </g>
    <text id="_" data-name="♪" transform="translate(310.886 81.24) rotate(18)" fill="#292c31" font-size="39" font-family="SegoeUISymbol, Segoe UI Symbol"><tspan x="-10.35" y="0">♪</tspan></text>
  </g>
</svg>
