<svg xmlns="http://www.w3.org/2000/svg" xmlns:xlink="http://www.w3.org/1999/xlink" width="550" height="305" viewBox="0 0 550 305">
  <defs>
    <clipPath id="clip-path">
      <rect id="Rectangle_401" data-name="Rectangle 401" width="550" height="305" transform="translate(206 3761)" fill="#fff" stroke="#707070" stroke-width="1"/>
    </clipPath>
    <clipPath id="clip-path-2">
      <rect id="Rectangle_96" data-name="Rectangle 96" width="354.757" height="295.989" fill="none"/>
    </clipPath>
    <clipPath id="clip-path-3">
      <path id="Path_151" data-name="Path 151" d="M112.505,455.14c.1-.011.054-.062-.125-.148-.01.108.031.159.125.148m28.865-36.513.049.027c0-.025,0-.037-.017-.037a.08.08,0,0,0-.032.01M14.72,224.784C13.669,225.564,0,332.162,0,332.162l35.224,100.1s73.08,20.755,77.156,22.731c.11-1.218,6.625-9.665,13.456-18.112,7.245-8.96,14.845-17.919,15.535-18.253l-37.365-20.6s9.288-70.545,8.762-68.725,11.3-58.239,11.3-58.239L93.579,218.544S15.772,224,14.72,224.784" transform="translate(0 -218.544)" fill="none"/>
    </clipPath>
  </defs>
  <g id="Mask_Group_12" data-name="Mask Group 12" transform="translate(-206 -3761)" clip-path="url(#clip-path)">
    <g id="Group_36" data-name="Group 36" transform="translate(318.339 3770)">
      <g id="Group_31" data-name="Group 31">
        <g id="Group_30" data-name="Group 30" transform="translate(0 0)" clip-path="url(#clip-path-2)">
          <path id="Path_20" data-name="Path 20" d="M210.881,1065.092c-6.95,3.986-18.631,4.4-25.956.926L144.6,1046.88c-7.325-3.476-7.168-8.916.35-12.087l47-19.827c7.518-3.171,19.694-2.97,27.058.448l30,13.921c7.364,3.418,7.7,9.475.752,13.461Z" transform="translate(-107.682 -785.869)" fill="#fff"/>
          <path id="Path_21" data-name="Path 21" d="M192.132,1065.09a29.673,29.673,0,0,1-12.429-2.479l-40.324-19.138c-4.037-1.916-6.225-4.534-6.161-7.373.064-2.858,2.4-5.4,6.566-7.159l47-19.827c7.845-3.309,20.48-3.1,28.167.467l30,13.921c5.5,2.55,6.448,5.94,6.526,7.735.077,1.767-.556,5.171-5.67,8.1l-38.876,22.3c-3.984,2.285-9.423,3.454-14.795,3.454m8.034-55.634a32.916,32.916,0,0,0-12.318,2.127l-47,19.827c-3.087,1.3-4.879,3.033-4.918,4.75-.038,1.7,1.647,3.481,4.622,4.893l40.324,19.138c6.868,3.26,18.174,2.857,24.688-.877l38.876-22.3c2.874-1.648,4.408-3.66,4.32-5.665-.089-2.021-1.9-4-4.968-5.42l-30-13.921a33.857,33.857,0,0,0-13.631-2.556m6.08,51.018h0Z" transform="translate(-103.047 -781.252)" fill="#1a1311"/>
          <path id="Path_22" data-name="Path 22" d="M606.313,308.45c-.954-.809-7.15-10.88-8.878-15.227-.635-1.6,0-5.467-1.458-8.44-1.312-2.676-4.922-4.736-7.778-6.457-3.184-1.918-5.02-5.438-6.58-2.231-1.736,3.57,7.946,8.524,5.765,9.13-1.53.426-21.5-8.237-24.92-5.967s1.8,3.23,1.8,3.23-5.211-2.214-6.274.471,4.75,3.542,4.75,3.542-4.51-.917-4.657,1.316,15.226,6.466,15.226,6.466S560.16,289.869,560.457,293c.157,1.66,10.63,6.369,17.464,9.675,4.784,2.314,11.087,1.836,11.087,1.836l4.76,9.1Z" transform="translate(-431.525 -213.245)" fill="#fff"/>
          <path id="Path_23" data-name="Path 23" d="M589.08,310.272a1.373,1.373,0,0,1-1.219-.734L583.5,301.2c-2.006.043-6.876-.076-10.874-2.01-1.025-.5-2.132-1.023-3.273-1.567-11.426-5.444-14.775-7.312-14.954-9.2a2.147,2.147,0,0,1,.821-1.931q.058-.046.121-.088c-2.764-1.339-3.386-2.324-3.316-3.381a2.614,2.614,0,0,1,.9-1.839,3.576,3.576,0,0,1-.73-.868,2.836,2.836,0,0,1-.17-2.555,3.272,3.272,0,0,1,1.84-1.85,4.618,4.618,0,0,1,1.408-.317,3.571,3.571,0,0,1,1.738-2.166c2.61-1.731,9.7.5,19.42,3.836.921.316,1.886.648,2.775.944-2.3-2.078-4.816-4.724-3.513-7.4a3.406,3.406,0,0,1,2.2-2.015c1.461-.3,2.692.763,3.995,1.886a17.645,17.645,0,0,0,2.333,1.79l.462.278c2.859,1.716,6.418,3.852,7.837,6.746a15.853,15.853,0,0,1,1.229,6.207,10.14,10.14,0,0,0,.272,2.328,94.455,94.455,0,0,0,8.513,14.709,1.35,1.35,0,0,1-.384,2.266l-12.545,5.168a1.381,1.381,0,0,1-.527.1m-4.76-11.817a1.374,1.374,0,0,1,1.218.733l4.18,8,9.742-4.013c-1.153-1.671-2.609-4.087-3.166-5.021a81.87,81.87,0,0,1-4.824-9.132,10.654,10.654,0,0,1-.458-3.176,13.575,13.575,0,0,0-.958-5.168c-1.066-2.173-4.241-4.079-6.792-5.611l-.465-.28a19.807,19.807,0,0,1-2.708-2.061,9.924,9.924,0,0,0-1.621-1.236,2.42,2.42,0,0,0-.3.5c-.571,1.174,2.214,3.633,3.711,4.955,1.716,1.515,2.752,2.43,2.469,3.642a1.7,1.7,0,0,1-1.279,1.251c-.86.239-2.106-.138-7.533-2-3.228-1.108-7.246-2.487-10.641-3.374-5.241-1.369-6.255-.837-6.354-.771-.132.088-.236.165-.318.231a13.717,13.717,0,0,1,1.9.626,1.352,1.352,0,0,1,.771,1.64,1.372,1.372,0,0,1-1.563.939,8.989,8.989,0,0,1-2.14-.662,4.323,4.323,0,0,0-2.265-.042.551.551,0,0,0-.343.336c-.053.134-.035.164-.009.21.32.549,1.893,1.151,3.275,1.424.218.033.385.065.484.085a1.356,1.356,0,0,1-.481,2.67c-.106-.016-.272-.043-.485-.084a6.444,6.444,0,0,0-2.374.038c1.241.948,5.33,2.521,9.746,3.919,2.344.619,4.235,1.252,4.328,1.283a1.353,1.353,0,0,1,.87,1.684,1.373,1.373,0,0,1-1.678.906c-.027-.007-1.882-.52-4.284-1.275a29.52,29.52,0,0,0-6.209-1.1h-.023c2.208,1.617,8.705,4.713,12.808,6.667,1.147.546,2.258,1.076,3.288,1.574,4.4,2.127,10.321,1.706,10.38,1.7.035,0,.07,0,.105,0m18.2,4.263.01.008-.01-.008" transform="translate(-426.837 -208.542)" fill="#1a1311"/>
          <path id="Path_24" data-name="Path 24" d="M634.051,324.392c-2.238,1.475-4.067,8.208-4.566,10.044" transform="translate(-486.928 -251.729)" fill="#fff"/>
          <path id="Path_25" data-name="Path 25" d="M625.29,331.442a1.249,1.249,0,0,1-.32-.042,1.214,1.214,0,0,1-.868-1.488c1.67-6.148,3.281-9.56,5.072-10.74a1.236,1.236,0,0,1,1.7.337,1.206,1.206,0,0,1-.341,1.684c-.557.367-2.069,2.013-4.061,9.348a1.227,1.227,0,0,1-1.185.9" transform="translate(-482.731 -247.52)" fill="#1a1311"/>
          <path id="Path_26" data-name="Path 26" d="M579.407,327.041s11.406,2.729,12.5,3.3" transform="translate(-448.191 -253.785)" fill="#fff"/>
          <path id="Path_27" data-name="Path 27" d="M587.713,327.344a1.234,1.234,0,0,1-.57-.139c-.712-.338-6.775-1.89-12.22-3.193a1.214,1.214,0,0,1-.905-1.466,1.229,1.229,0,0,1,1.483-.9c2.71.648,11.642,2.81,12.784,3.4a1.209,1.209,0,0,1,.517,1.64,1.23,1.23,0,0,1-1.089.65" transform="translate(-443.995 -249.575)" fill="#1a1311"/>
          <path id="Path_28" data-name="Path 28" d="M588.351,309.273c1.355.461,10.019,2.764,12.211,3.9" transform="translate(-455.109 -239.997)" fill="#fff"/>
          <path id="Path_29" data-name="Path 29" d="M596.365,310.179a1.234,1.234,0,0,1-.57-.139,88.976,88.976,0,0,0-9.524-3.084c-1.229-.354-2.118-.609-2.515-.745a1.212,1.212,0,0,1-.762-1.544,1.232,1.232,0,0,1,1.561-.754c.341.116,1.3.391,2.4.709a80.023,80.023,0,0,1,9.98,3.266,1.209,1.209,0,0,1,.517,1.64,1.23,1.23,0,0,1-1.089.65" transform="translate(-450.913 -235.786)" fill="#1a1311"/>
          <path id="Path_30" data-name="Path 30" d="M681.163,322.454s-2.236,3.344-2.031,5.973" transform="translate(-525.321 -250.225)" fill="#fff"/>
          <path id="Path_31" data-name="Path 31" d="M674.96,325.433a1.223,1.223,0,0,1-1.223-1.122,11.333,11.333,0,0,1,2.231-6.736,1.236,1.236,0,0,1,1.7-.343,1.207,1.207,0,0,1,.347,1.682c-.557.838-1.972,3.4-1.831,5.21a1.219,1.219,0,0,1-1.13,1.3c-.032,0-.064,0-.1,0" transform="translate(-521.15 -246.016)" fill="#1a1311"/>
          <path id="Path_32" data-name="Path 32" d="M713.494,391.248l-5.61-8.555-13.491,10.478,4.955,6.093" transform="translate(-537.136 -296.971)" fill="#fff"/>
          <path id="Path_33" data-name="Path 33" d="M694.72,395.961a1.359,1.359,0,0,1-1.057-.5l-4.955-6.093a1.331,1.331,0,0,1,.219-1.894l13.491-10.478a1.364,1.364,0,0,1,1.974.325l5.61,8.555a1.331,1.331,0,0,1-.4,1.854,1.364,1.364,0,0,1-1.874-.4l-4.8-7.324-11.246,8.735,4.1,5.037a1.331,1.331,0,0,1-.207,1.884,1.36,1.36,0,0,1-.849.3" transform="translate(-532.507 -292.327)" fill="#1a1311"/>
          <path id="Path_34" data-name="Path 34" d="M1283.182,696.93l-4.7-.43,4.923-31.416,4.7.43Z" transform="translate(-988.951 -516.107)" fill="#fff"/>
          <path id="Path_35" data-name="Path 35" d="M1278.5,693.587c-.042,0-.085,0-.128-.006l-4.7-.43a1.375,1.375,0,0,1-.955-.517,1.345,1.345,0,0,1-.274-1.042l4.923-31.416a1.368,1.368,0,0,1,1.481-1.143l4.7.43a1.376,1.376,0,0,1,.955.517,1.344,1.344,0,0,1,.274,1.042l-4.923,31.416a1.367,1.367,0,0,1-1.354,1.149m-3.119-3,1.96.179,4.5-28.73-1.96-.179Z" transform="translate(-984.267 -511.408)" fill="#1a1311"/>
          <path id="Path_36" data-name="Path 36" d="M1174.278,519.738c-.517,6.553-6.19,10.514-12.606,8.8l-31.31-8.349c-6.416-1.711-11.557-8.487-11.423-15.058l.32-15.777c.133-6.571,5.529-10.7,11.992-9.165l33.552,7.946a14.515,14.515,0,0,1,10.81,14.7Z" transform="translate(-865.535 -372.381)" fill="#fff"/>
          <path id="Path_37" data-name="Path 37" d="M1159.97,525.588a12.94,12.94,0,0,1-3.337-.449l-31.31-8.349c-7-1.868-12.583-9.223-12.437-16.4l.32-15.777a10.89,10.89,0,0,1,4.155-8.667,11.152,11.152,0,0,1,9.527-1.79l33.552,7.946a15.891,15.891,0,0,1,11.857,16.121l-1.334,16.905a11.183,11.183,0,0,1-4.667,8.5,10.94,10.94,0,0,1-6.326,1.953M1123.9,476.515a7.9,7.9,0,0,0-4.866,1.582,8.243,8.243,0,0,0-3.09,6.574l-.319,15.777c-.12,5.9,4.647,12.185,10.409,13.722l31.31,8.349a8.721,8.721,0,0,0,7.367-1.1,8.526,8.526,0,0,0,3.515-6.5l1.334-16.9a13.083,13.083,0,0,0-9.762-13.272l-33.552-7.946a10.182,10.182,0,0,0-2.345-.283m45.693,38.511h0Z" transform="translate(-860.852 -367.67)" fill="#275695"/>
          <path id="Path_38" data-name="Path 38" d="M1010.182,803.323c-4.97,4.363-14.077,5.917-20.237,3.454l-33.913-13.561c-6.161-2.464-6.691-7.482-1.179-11.153l34.463-22.948c5.512-3.67,15.082-4.705,21.266-2.3l25.19,9.8c6.184,2.406,7.178,7.943,2.208,12.306Z" transform="translate(-735.663 -586.284)" fill="#fff"/>
          <path id="Path_39" data-name="Path 39" d="M991.869,804.634a19.325,19.325,0,0,1-7.12-1.258l-33.913-13.561c-4.685-1.873-5.655-4.714-5.817-6.24s.194-4.5,4.386-7.3l34.463-22.948c5.856-3.9,15.965-4.992,22.534-2.437l25.19,9.8c3.451,1.343,5.63,3.631,6.135,6.444s-.745,5.7-3.519,8.138l-27.8,24.4c-3.612,3.171-9.235,4.955-14.542,4.955m6.3-52.408c-4.61,0-9.511,1.189-12.767,3.356L950.938,778.53c-2.193,1.46-3.356,3.2-3.19,4.763s1.666,3.027,4.117,4.007l33.913,13.561c5.644,2.257,14.26.787,18.813-3.211l.91,1.014-.91-1.014,27.8-24.4c2.033-1.785,2.971-3.787,2.639-5.636s-1.908-3.41-4.438-4.394l-25.189-9.8a20.339,20.339,0,0,0-7.232-1.193" transform="translate(-730.981 -581.626)" fill="#1a1311"/>
          <path id="Path_40" data-name="Path 40" d="M754.444,382.422c-.041,7.733,1.292,10.459.918,31.766-.112,6.357-3.984,38.063-4.535,39.152s24.418,3.777,35.717,3.458a313.212,313.212,0,0,0,36.217-2.965s1.177-28.847.964-29.663c4.687-2.454,10.327-7.366,10.857-7.716,2.478-1.634-1.608-55.125-2.6-60.581-.73-4.021.535-10.438-3.9-13.16-1.137-.7-18.942-6.329-19.04-6.353-1.67-.405-33.061-3.8-36.61-4.073-7.389-.571-16.658.291-18.141,2.787,0,0-18.888,31.237-19.117,31.917s-22.788-21.783-22.788-21.783-6.347,5.672-9.788,8.849a86.9,86.9,0,0,1-9.406,7.034s28.8,32.551,38.081,36.985c6.653,3.177,23.17-15.656,23.17-15.656" transform="translate(-536.208 -257.725)" fill="#275695"/>
          <path id="Path_41" data-name="Path 41" d="M779.966,453.594c-5.856,0-13.879-.581-19.861-1.174-3.756-.372-7.214-.794-9.737-1.187-4.359-.68-4.9-1.077-5.267-1.65a1.4,1.4,0,0,1-.121-1.307c.579-2.036,4.325-32.325,4.436-38.674a225.433,225.433,0,0,0-.568-24.145c-.112-1.466-.215-2.816-.28-4.236-1.693,1.777-4.171,4.265-6.924,6.657-7.127,6.194-12.215,8.431-15.554,6.835-9.424-4.5-37.326-35.97-38.509-37.307a1.323,1.323,0,0,1,.276-1.992,86.081,86.081,0,0,0,9.224-6.893c3.409-3.148,9.74-8.807,9.8-8.864a1.357,1.357,0,0,1,1.858.05c6.962,6.933,17.934,17.7,21.409,20.757,2.146-3.7,8.3-13.967,18.384-30.637,2.3-3.866,14.784-3.788,19.4-3.431,2.94.227,34.865,3.631,36.826,4.107.144.035,18.067,5.679,19.43,6.515,3.87,2.376,4.071,6.971,4.233,10.664a26.684,26.684,0,0,0,.283,3.393c.5,2.765,1.783,17.6,2.619,31.882,1.673,28.545.36,29.411-.6,30.043-.074.052-.418.332-.751.6a74.489,74.489,0,0,1-9.5,6.79c.018,4.718-.71,22.573-.969,28.931a1.337,1.337,0,0,1-1.133,1.262,318,318,0,0,1-36.391,2.981c-.635.018-1.31.026-2.016.026m-32.21-5.551c4.312,1.044,23.972,3.147,34.15,2.862a326.789,326.789,0,0,0,34.954-2.788c.448-11.061,1.035-26.914.935-28.293a1.328,1.328,0,0,1,.7-1.391,67.332,67.332,0,0,0,9.774-6.887c.359-.291.579-.47.732-.588.262-.8,1-5.218-.431-29.015-.839-13.946-2.039-27.79-2.512-30.394a28.442,28.442,0,0,1-.322-3.748c-.148-3.377-.3-6.869-2.947-8.506-1.308-.679-17.192-5.75-18.692-6.206-1.839-.388-32.432-3.729-36.369-4.033a55.181,55.181,0,0,0-11,.235c-4.069.541-5.607,1.448-5.874,1.9-7.342,12.143-18.429,30.552-19.038,31.761a1.387,1.387,0,0,1-.949.793c-.807.186-1.365-.3-2.381-1.186-.649-.565-1.562-1.4-2.714-2.481-1.925-1.807-4.553-4.336-7.813-7.518-4.216-4.115-8.422-8.284-10.22-10.069-1.9,1.706-6.22,5.582-8.82,7.983a78.038,78.038,0,0,1-8.3,6.319c5.175,5.778,28.669,31.721,36.64,35.526,2.129,1.016,6.717-1.324,12.587-6.422a107.09,107.09,0,0,0,8.98-8.908,1.356,1.356,0,0,1,1.492-.374,1.333,1.333,0,0,1,.872,1.254c-.015,2.727.143,4.785.342,7.39a227.716,227.716,0,0,1,.576,24.392c-.059,3.363-1.13,13.406-2.112,21.684-.619,5.218-1.633,13.449-2.24,16.711m-.2.956a2.085,2.085,0,0,1-.122.374,1.263,1.263,0,0,0,.122-.374m-2.531-.818c-.009.018-.021.04-.032.068.01-.023.021-.046.032-.068M817.8,419.843a.872.872,0,0,0,.022.1c-.009-.033-.016-.066-.022-.1m-85.947-56.992q-.015.044-.033.087a.822.822,0,0,0,.033-.087" transform="translate(-531.608 -253.162)" fill="#1a1311"/>
          <path id="Path_42" data-name="Path 42" d="M1062.211,261.737s-.957,13.328,2.622,18.775,3.27,5.335,3.27,5.335-14.9,18.224-22.213,17.25c-9.546-1.271-11.015-16.342-11.015-16.342s4.248.741,8.1-6.613,1.124-17.17,1.124-17.17" transform="translate(-800.511 -203.108)" fill="#fff"/>
          <path id="Path_43" data-name="Path 43" d="M1041.876,299.853a5.82,5.82,0,0,1-.769-.05c-4.416-.588-7.93-3.866-10.161-9.48a32.837,32.837,0,0,1-2.015-8.054,1.312,1.312,0,0,1,.418-1.135,1.294,1.294,0,0,1,1.141-.308,3.864,3.864,0,0,0,2.01-.537c1.172-.615,2.935-2.046,4.679-5.374,3.571-6.812,1.047-16.11,1.021-16.2a1.33,1.33,0,0,1,.941-1.638,1.348,1.348,0,0,1,1.656.931c.117.421,2.825,10.408-1.227,18.136-1.736,3.312-3.791,5.549-6.109,6.652a7.425,7.425,0,0,1-1.653.567c.608,3.54,2.852,12.9,9.658,13.8,4.633.617,14.747-9.293,20.446-16.114-.37-.632-1.155-1.9-2.812-4.425-3.783-5.756-2.877-19.033-2.837-19.6a1.347,1.347,0,0,1,2.687.189c-.009.129-.883,12.947,2.409,17.955,1.387,2.11,2.363,3.65,2.9,4.575.466.8.907,1.557.3,2.315-.02.025-.04.048-.062.071a113.8,113.8,0,0,1-8.423,9.047c-6.093,5.824-10.751,8.672-14.2,8.672" transform="translate(-795.908 -198.494)" fill="#1a1311"/>
          <path id="Path_44" data-name="Path 44" d="M1021,361.158s36.67,3.314,35.569,2.951-27.353,51.069-27.353,51.069-14.03-25.762-12.3-32.185,5.278-19.338,4.085-21.835" transform="translate(-786.501 -280.26)" fill="#fff"/>
          <path id="Path_45" data-name="Path 45" d="M1045.063,404.915c-.042,0-.085,0-.127-.006a1.347,1.347,0,0,1-1.112-.8c-4.223-9.794-4.69-23.339-4.339-32.978.2-5.6.692-10.384,1.065-13.413.694-5.634.978-6.013,1.13-6.216a1.363,1.363,0,0,1,1.23-.535,1.336,1.336,0,0,1,1.2,1.466,1.3,1.3,0,0,1-.088.353,135.278,135.278,0,0,0-1.865,19.137c-.266,8.407.121,19.924,3.257,28.853,1.753-2.42,4.974-6.708,9.092-11.489,6.044-7.018,12.5-36.167,12.56-36.461a1.347,1.347,0,0,1,1.6-1.019,1.332,1.332,0,0,1,1.03,1.584c-.269,1.226-6.663,30.1-13.142,37.623a165.908,165.908,0,0,0-10.372,13.316,1.35,1.35,0,0,1-1.117.589m-2.438-51.3h0m1.314-.665c-.021.037-.044.072-.068.106a1.255,1.255,0,0,0,.068-.106" transform="translate(-804.004 -272.342)" fill="#1a1311"/>
          <path id="Path_46" data-name="Path 46" d="M1073.69,369.269l12.926.741-5.245,7.226h-6.182Z" transform="translate(-830.535 -286.554)" fill="#1a1311"/>
          <path id="Path_47" data-name="Path 47" d="M1049.595,404.838s-6.557,16.676-8.992,26.125l6.556,16.12,9.366-12.785s-.937-24.643-.749-29.46Z" transform="translate(-804.941 -314.155)" fill="#1a1311"/>
          <path id="Path_48" data-name="Path 48" d="M1105.325,349.844c.084-.376-.744-17.772-.744-17.772l-9.741-3.335s-5.946,15.3-8.975,21.289c-3.655,7.231-14.136,39.993-14.136,39.993s8.445-10.214,14.319-15.661,15.053-16.524,15.053-16.524l-5.164-5.108c5.812-1.877,9.387-2.882,9.387-2.882" transform="translate(-829.019 -255.101)" fill="#275695"/>
          <path id="Path_49" data-name="Path 49" d="M1067.128,386.735a1.354,1.354,0,0,1-.64-.161,1.326,1.326,0,0,1-.643-1.573c.429-1.342,10.555-32.945,14.215-40.186,2.965-5.866,8.863-21.019,8.922-21.171a1.35,1.35,0,0,1,1.7-.781l9.741,3.335a1.334,1.334,0,0,1,.9,1.2c.836,17.573.762,17.9.714,18.122a1.338,1.338,0,0,1-.947.995c-.031.009-2.76.778-7.246,2.2l3.608,3.568a1.321,1.321,0,0,1,.089,1.786c-.377.455-9.3,11.207-15.174,16.651-5.743,5.326-14.114,15.431-14.2,15.533a1.353,1.353,0,0,1-1.043.489m23.9-60.934c-1.473,3.749-6,15.14-8.558,20.206-2.58,5.105-8.732,23.491-11.975,33.387,2.94-3.364,6.835-7.658,10.033-10.623,4.758-4.413,11.823-12.7,14.155-15.468l-4.3-4.25a1.322,1.322,0,0,1-.358-1.252,1.338,1.338,0,0,1,.892-.956c4.015-1.3,6.994-2.186,8.447-2.611-.081-2.622-.422-10.188-.688-15.813Zm9.7,19.428h0Z" transform="translate(-824.418 -250.486)" fill="#1a1311"/>
          <path id="Path_50" data-name="Path 50" d="M1004.2,345.764c1.572-7.624,4.371-18.4,4.371-18.4l-10.176.246s-9.451,18.2-7.807,18.035c1.033-.1,4.521,1.516,7.368,3.088-2.669,1.206-6.744,2.907-6.744,3.212a73.734,73.734,0,0,0,4.184,16.3c2.754,6.537,13.418,20.7,13.418,20.7s-7.051-31.368-4.614-43.185" transform="translate(-766.107 -254.031)" fill="#275695"/>
          <path id="Path_51" data-name="Path 51" d="M1004.221,385.667a1.352,1.352,0,0,1-1.081-.537c-.439-.584-10.8-14.375-13.581-20.987a74.6,74.6,0,0,1-4.287-16.817c0-.994.891-1.416,2.24-2.055.78-.369,1.78-.814,2.784-1.256a17.328,17.328,0,0,0-4.191-1.661,1.486,1.486,0,0,1-1.364-.638c-.525-.762-.352-1.78.772-4.54.637-1.563,1.579-3.648,2.8-6.2,2.071-4.32,4.268-8.553,4.29-8.595a1.348,1.348,0,0,1,1.165-.723l10.176-.246a1.342,1.342,0,0,1,1.087.5,1.321,1.321,0,0,1,.25,1.161c-.028.107-2.808,10.836-4.356,18.34-2.352,11.4,4.539,42.319,4.609,42.63a1.328,1.328,0,0,1-.754,1.5,1.354,1.354,0,0,1-.56.121m-16.166-37.693a72.605,72.605,0,0,0,3.99,15.144c1.64,3.893,6.26,10.7,9.585,15.378-1.93-9.815-5.166-28.775-3.343-37.613,1.189-5.768,3.1-13.406,3.949-16.764l-7.6.184c-3.221,6.243-6.47,13.073-7.29,15.611a38.547,38.547,0,0,1,6.674,3.037,1.325,1.325,0,0,1-.1,2.374c-.636.288-1.352.6-2.073.921-1.215.536-2.916,1.285-3.793,1.728m-1.926-5.623h0" transform="translate(-761.51 -249.417)" fill="#1a1311"/>
          <path id="Path_52" data-name="Path 52" d="M1046.874,321.748l5.619-3.212s-.125,7.164,5.058,11.735l-10.3,8.646s-2.435-10.314-.374-17.169" transform="translate(-809.151 -247.185)" fill="#fff"/>
          <path id="Path_53" data-name="Path 53" d="M1042.64,335.634a1.353,1.353,0,0,1-.422-.067,1.337,1.337,0,0,1-.889-.962c-.1-.435-2.492-10.74-.354-17.852a1.334,1.334,0,0,1,.617-.774l5.62-3.212a1.359,1.359,0,0,1,1.357.005,1.329,1.329,0,0,1,.663,1.171c0,.063-.033,6.625,4.608,10.718a1.322,1.322,0,0,1-.025,2.01l-10.3,8.646a1.355,1.355,0,0,1-.871.316m.776-17.621c-1.184,4.548-.439,10.6.109,13.8l7.429-6.234a17.653,17.653,0,0,1-4.246-9.446Z" transform="translate(-804.543 -242.57)" fill="#1a1311"/>
          <path id="Path_54" data-name="Path 54" d="M1096.851,323.424l9.928,9.511c.193.078,4.243-5.264,6.369-9.141,2.21-4.031,4.612-8.691,4.5-8.708l-4.87-5.373s-6.557,5.929-9.179,8.153-6.744,5.558-6.744,5.558" transform="translate(-848.451 -240.338)" fill="#fff"/>
          <path id="Path_55" data-name="Path 55" d="M1102.205,329.667a1.421,1.421,0,0,1-.536-.113,1.346,1.346,0,0,1-.426-.276l-9.928-9.511a1.322,1.322,0,0,1,.084-1.988c.041-.033,4.139-3.351,6.72-5.539s9.081-8.065,9.147-8.124a1.357,1.357,0,0,1,1.911.094l4.848,5.348a1.335,1.335,0,0,1,.229.324c.347.691.214.949-1.414,4.1-.921,1.783-2.082,3.963-3.107,5.832a65.945,65.945,0,0,1-4,6.191c-.63.876-1.242,1.689-1.723,2.291-.579.725-1.095,1.37-1.808,1.37m-7.933-10.775,7.829,7.5a68.952,68.952,0,0,0,5.264-7.846c1.756-3.2,3.438-6.44,4.107-7.813l-3.394-3.744c-1.945,1.753-6.189,5.564-8.207,7.274-1.747,1.481-4.176,3.47-5.6,4.629" transform="translate(-843.851 -235.724)" fill="#1a1311"/>
          <path id="Path_56" data-name="Path 56" d="M1005.3,11.832a13.983,13.983,0,0,1-7.177-1.872c-.695,3.642,1.728,6.3,3.652,7.783-.095.258-.187.521-.276.793-3.8,11.673,3.932,21.392,3.932,21.392l12.409-29.495s-7.886-7.623-12.54,1.4" transform="translate(-771.99 -5.762)" fill="#1a1311"/>
          <path id="Path_57" data-name="Path 57" d="M1003.278,38.394a.631.631,0,0,1-.494-.237A25.77,25.77,0,0,1,999.3,31.67a23.385,23.385,0,0,1-.55-15.48c.042-.128.085-.258.133-.394-2.08-1.708-4.23-4.432-3.529-8.107a.623.623,0,0,1,.369-.456.635.635,0,0,1,.589.048,13.527,13.527,0,0,0,6.455,1.777c1.386-2.526,3.178-3.982,5.328-4.331,4.079-.663,7.874,2.951,8.033,3.105a.618.618,0,0,1,.141.684l-12.409,29.495a.628.628,0,0,1-.5.377.648.648,0,0,1-.085.006m-6.795-29.6c-.131,2.832,1.794,4.968,3.525,6.3a.618.618,0,0,1,.2.7c-.106.289-.191.534-.269.772-3,9.228,1.465,17.286,3.194,19.915l11.8-28.04c-.93-.788-3.794-2.955-6.643-2.49-1.826.3-3.368,1.645-4.585,4a.629.629,0,0,1-.543.339,14.633,14.633,0,0,1-6.681-1.5m6.663.882h0Z" transform="translate(-769.833 -3.605)" fill="#1a1311"/>
          <path id="Path_58" data-name="Path 58" d="M1015.184,47.692c-2.041,5.7-2.375,16.831-2.867,25.172-1.237,20.942,5.734,26.421,15.951,27.477,12.008,1.241,21.328-3.782,27.744-16.648,3.183-6.383,7.509-18.241,6.454-26.319s-13.7-22.8-26.082-21.238-17.511,1.263-21.2,11.556" transform="translate(-782.95 -27.952)" fill="#fff"/>
          <path id="Path_59" data-name="Path 59" d="M1027.274,97.38a34.407,34.407,0,0,1-3.54-.187c-6.211-.642-10.405-2.811-13.2-6.826-3.227-4.641-4.505-11.834-3.905-21.992.066-1.116.129-2.282.194-3.478.429-7.939.916-16.938,2.746-22.045,3.642-10.165,8.862-10.788,19.262-12.03.947-.113,1.942-.232,2.989-.364,13.247-1.674,26.4,13.757,27.523,22.338,1.131,8.67-3.6,21.08-6.577,27.046-3.256,6.529-7.386,11.289-12.275,14.148a25.779,25.779,0,0,1-13.218,3.391m6.519-64.5a13.131,13.131,0,0,0-1.646.1c-1.053.133-2.054.252-3.006.366-10.212,1.22-14.033,1.676-17.142,10.351-1.705,4.76-2.182,13.563-2.6,21.33-.065,1.2-.128,2.371-.194,3.491-1.269,21.494,6.362,25.263,14.8,26.135a31.989,31.989,0,0,0,3.282.174c10.176,0,17.777-5.3,23.173-16.118a73.728,73.728,0,0,0,4.73-12.3c1.493-5.285,2.047-9.881,1.6-13.289-.5-3.86-3.878-9.273-8.4-13.468-6.05-5.617-11.308-6.769-14.6-6.769m-23.009,10.393h0Z" transform="translate(-778.551 -23.537)" fill="#1a1311"/>
          <path id="Path_60" data-name="Path 60" d="M1103.818,46.06s15.292-18.5.217-34.541C1094.011.85,1068.913-.073,1066.583,8.968c-.31,1.2,7.169,3.013,11.65,16.486a7.556,7.556,0,0,0,3.405-5.318s3.584,5.55,9.5,7.8c6.99,2.659,6.1,8.389,6.322,9.932s-.766,10.985-.766,10.985,4.378-4.849,6.273-4.077.852,1.284.852,1.284" transform="translate(-825.03 -2.168)" fill="#1a1311"/>
          <path id="Path_61" data-name="Path 61" d="M1094.531,47.3a.634.634,0,0,1-.254-.053.621.621,0,0,1-.371-.633,105.852,105.852,0,0,0,.769-10.833,9.105,9.105,0,0,1-.058-.91c-.076-2.23-.216-6.38-5.868-8.53a22,22,0,0,1-8.988-6.925,7.89,7.89,0,0,1-3.392,4.41.633.633,0,0,1-.531.03.626.626,0,0,1-.365-.383c-3.193-9.6-7.9-13.137-10.158-14.835-1.054-.792-1.691-1.27-1.5-2,.715-2.775,3.323-4.8,7.543-5.868a35.429,35.429,0,0,1,16.137.336c6.225,1.478,11.5,4.252,14.841,7.813,7.987,8.5,7.5,17.68,5.687,23.883a35.7,35.7,0,0,1-5.5,10.986,1.164,1.164,0,0,1-.589.652.633.633,0,0,1-.771-.169.617.617,0,0,1,0-.781l.008-.01a3.584,3.584,0,0,0-.612-.305c-.714-.29-3.042,1.124-5.565,3.916a.631.631,0,0,1-.469.208m-15.055-29.961a.631.631,0,0,1,.53.287c.035.054,3.551,5.407,9.195,7.554,6.429,2.446,6.6,7.494,6.673,9.649.011.322.02.6.046.776a82.369,82.369,0,0,1-.584,9.362c.359-.343.773-.721,1.215-1.092,1.988-1.666,3.457-2.272,4.493-1.85a4.588,4.588,0,0,1,.881.455,35.036,35.036,0,0,0,4.9-10.062c2.49-8.558.669-16.18-5.412-22.652-6.844-7.285-21.17-9.953-29.746-7.791-2.575.649-5.792,2.016-6.6,4.847a8.977,8.977,0,0,0,1.011.824c2.3,1.727,7.013,5.269,10.321,14.644a7.256,7.256,0,0,0,2.46-4.435.63.63,0,0,1,.62-.517" transform="translate(-822.869 0.002)" fill="#1a1311"/>
          <path id="Path_62" data-name="Path 62" d="M1080.1,257.353s-.186,9.041-7.031,8.033c-3.918-.577-7.535-7.453-7.535-7.453Z" transform="translate(-824.226 -199.706)" fill="#fff"/>
          <path id="Path_63" data-name="Path 63" d="M1069.711,262.325a8.452,8.452,0,0,1-1.231-.093c-4.439-.653-8.087-7.363-8.489-8.125a1.261,1.261,0,0,1,.028-1.227,1.29,1.29,0,0,1,1.063-.634l14.566-.58a1.3,1.3,0,0,1,.954.363,1.267,1.267,0,0,1,.386.936c0,.218-.145,5.363-3.221,7.933a6.144,6.144,0,0,1-4.057,1.428m-6.373-7.619c1.482,2.24,3.669,4.733,5.521,5.005a3.908,3.908,0,0,0,3.246-.761,7.945,7.945,0,0,0,2.172-4.68Z" transform="translate(-819.826 -195.291)" fill="#1a1311"/>
          <path id="Path_64" data-name="Path 64" d="M1209.364,187.869c4.182-.827,7.981,2.027,7.126,5.709s-6.529,6.582-10.591,5.046" transform="translate(-932.803 -145.675)" fill="#fff"/>
          <path id="Path_65" data-name="Path 65" d="M1203.916,195.908a8.142,8.142,0,0,1-2.88-.5,1.27,1.27,0,0,1-.743-1.645,1.293,1.293,0,0,1,1.664-.735,7.161,7.161,0,0,0,5.708-.64,5.9,5.9,0,0,0,3.167-3.5,3.032,3.032,0,0,0-.838-2.922,5.285,5.285,0,0,0-4.779-1.252,1.275,1.275,0,1,1-.505-2.5,7.9,7.9,0,0,1,7.133,1.975,5.589,5.589,0,0,1,1.5,5.269,8.321,8.321,0,0,1-4.466,5.178,10.746,10.746,0,0,1-4.962,1.274" transform="translate(-928.401 -141.268)" fill="#1a1311"/>
          <path id="Path_66" data-name="Path 66" d="M1048.416,173.388a56.07,56.07,0,0,0-8.554,6.67l5.209,4.647" transform="translate(-804.368 -134.549)" fill="#fff"/>
          <path id="Path_67" data-name="Path 67" d="M1040.67,181.564a1.293,1.293,0,0,1-.863-.328l-5.209-4.647a1.265,1.265,0,0,1-.071-1.824,56.906,56.906,0,0,1,8.766-6.848,1.3,1.3,0,0,1,1.789.343,1.266,1.266,0,0,1-.347,1.769,67.306,67.306,0,0,0-7.378,5.59l4.176,3.725a1.265,1.265,0,0,1,.094,1.8,1.292,1.292,0,0,1-.957.421" transform="translate(-799.967 -130.134)" fill="#1a1311"/>
          <path id="Path_68" data-name="Path 68" d="M1145.506,157.857a1.879,1.879,0,1,1-2.155-1.539,1.862,1.862,0,0,1,2.155,1.539" transform="translate(-883.197 -121.284)" fill="#1a1311"/>
          <path id="Path_69" data-name="Path 69" d="M1057.988,146.7a1.879,1.879,0,1,1-2.155-1.54,1.862,1.862,0,0,1,2.155,1.54" transform="translate(-815.499 -112.629)" fill="#1a1311"/>
          <path id="Path_70" data-name="Path 70" d="M1211.966,212.535a3.509,3.509,0,0,1,2.748-2.009" transform="translate(-937.496 -163.369)" fill="#fff"/>
          <path id="Path_71" data-name="Path 71" d="M1207.564,209.394a1.3,1.3,0,0,1-.5-.1,1.269,1.269,0,0,1-.693-1.667,4.787,4.787,0,0,1,3.625-2.755,1.289,1.289,0,0,1,1.563.927,1.274,1.274,0,0,1-.937,1.545c-1.013.251-1.551.5-1.872,1.263a1.288,1.288,0,0,1-1.189.784" transform="translate(-933.094 -158.953)" fill="#1a1311"/>
          <path id="Path_72" data-name="Path 72" d="M1171.794,52.159a.593.593,0,0,1-.288-.074c-2.375-1.305-5.947-4.355-9.478-11.475a.585.585,0,0,1,.272-.788.6.6,0,0,1,.8.269c3.4,6.846,6.761,9.741,8.987,10.964a.585.585,0,0,1,.231.8.6.6,0,0,1-.521.3" transform="translate(-898.819 -30.855)" fill="#fff"/>
          <path id="Path_73" data-name="Path 73" d="M1150.121,54.705a.6.6,0,0,1-.305-.084c-2.33-1.382-5.8-4.548-9.088-11.779a.586.586,0,0,1,.3-.778.6.6,0,0,1,.787.3c3.164,6.953,6.432,9.957,8.615,11.253a.585.585,0,0,1,.2.807.6.6,0,0,1-.511.286" transform="translate(-882.35 -32.601)" fill="#fff"/>
          <path id="Path_74" data-name="Path 74" d="M25.372,600.488,155.64,547.9l217.388,94.816-123.134,77.1Z" transform="translate(-19.626 -425.171)" fill="#fff"/>
          <path id="Path_75" data-name="Path 75" d="M245.266,716.517a1.366,1.366,0,0,1-.641-.16L20.1,597.026a1.334,1.334,0,0,1,.129-2.421L150.5,542.015a1.369,1.369,0,0,1,1.059.015l217.388,94.816a1.334,1.334,0,0,1,.178,2.359l-123.134,77.1a1.365,1.365,0,0,1-.725.208M23.919,596.011,245.21,713.626l120.318-75.341L150.991,544.712Z" transform="translate(-14.998 -420.528)" fill="#1a1311"/>
          <path id="Path_76" data-name="Path 76" d="M1057.2,892.492l-40.554,23.7-28.49-22.683,40.554-23.7Z" transform="translate(-764.374 -674.975)" fill="#fff"/>
          <path id="Path_77" data-name="Path 77" d="M1012.271,913.07a1.289,1.289,0,0,1-.8-.28l-28.49-22.683a1.26,1.26,0,0,1,.152-2.079l40.554-23.7a1.292,1.292,0,0,1,1.456.1l28.49,22.682a1.26,1.26,0,0,1-.152,2.079l-40.554,23.7a1.291,1.291,0,0,1-.652.176m-26.245-23.79,26.357,20.985,38.2-22.325-26.357-20.984Z" transform="translate(-759.996 -670.583)" fill="#1a1311"/>
          <line id="Line_3" data-name="Line 3" x1="21.275" y1="16.938" transform="translate(236.506 216.083)" fill="#fff"/>
          <path id="Path_78" data-name="Path 78" d="M1062.508,979.4a.908.908,0,0,1-.568-.2l-21.275-16.938a.89.89,0,0,1-.138-1.26.913.913,0,0,1,1.274-.136l21.275,16.938a.89.89,0,0,1,.138,1.26.908.908,0,0,1-.707.334" transform="translate(-804.728 -745.481)" fill="#1a1311"/>
          <line id="Line_4" data-name="Line 4" x1="21.275" y1="16.938" transform="translate(242.054 212.547)" fill="#fff"/>
          <path id="Path_79" data-name="Path 79" d="M1087.009,963.612a.908.908,0,0,1-.568-.2l-21.275-16.938a.89.89,0,0,1-.138-1.26.913.913,0,0,1,1.274-.136l21.275,16.938a.89.89,0,0,1,.138,1.26.908.908,0,0,1-.707.334" transform="translate(-823.681 -733.231)" fill="#1a1311"/>
          <line id="Line_5" data-name="Line 5" x1="21.275" y1="16.938" transform="translate(248.483 209.367)" fill="#fff"/>
          <path id="Path_80" data-name="Path 80" d="M1115.394,949.419a.909.909,0,0,1-.568-.2l-21.275-16.938a.89.89,0,0,1-.138-1.26.913.913,0,0,1,1.274-.136l21.275,16.938a.89.89,0,0,1,.138,1.26.909.909,0,0,1-.707.334" transform="translate(-845.637 -722.217)" fill="#1a1311"/>
          <path id="Path_81" data-name="Path 81" d="M945.052,901.8l-44.481,15.335-23.413-27.79,44.481-15.335Z" transform="translate(-678.511 -678.238)" fill="#fff"/>
          <path id="Path_82" data-name="Path 82" d="M896.194,914.015a1.288,1.288,0,0,1-.985-.456L871.8,885.769a1.257,1.257,0,0,1-.25-1.15,1.272,1.272,0,0,1,.813-.858l44.48-15.335a1.29,1.29,0,0,1,1.406.385l23.413,27.79a1.257,1.257,0,0,1,.25,1.15,1.272,1.272,0,0,1-.813.858l-44.481,15.335a1.287,1.287,0,0,1-.422.071M874.95,885.552l21.661,25.709,41.895-14.444-21.66-25.709Z" transform="translate(-674.134 -673.846)" fill="#1a1311"/>
          <path id="Path_83" data-name="Path 83" d="M1029.665,917.01l-10.992,3.85-7.9-9.378,10.992-3.85Z" transform="translate(-781.866 -704.326)" fill="#fff"/>
          <path id="Path_84" data-name="Path 84" d="M1015.578,918.651a.91.91,0,0,1-.7-.323l-7.9-9.378a.888.888,0,0,1-.178-.811.9.9,0,0,1,.571-.608l10.992-3.85a.912.912,0,0,1,1,.271l7.9,9.378a.889.889,0,0,1,.178.811.9.9,0,0,1-.571.608l-10.993,3.85a.914.914,0,0,1-.3.052m-6.372-9.859,6.664,7.91,9.171-3.212-6.664-7.91Z" transform="translate(-778.771 -701.22)" fill="#1a1311"/>
          <line id="Line_6" data-name="Line 6" x1="17.484" y1="20.752" transform="translate(211.607 211.184)" fill="#fff"/>
          <path id="Path_85" data-name="Path 85" d="M948.775,961.343a.909.909,0,0,1-.7-.322l-17.484-20.752a.89.89,0,0,1,.116-1.262.914.914,0,0,1,1.276.115l17.484,20.752a.89.89,0,0,1-.116,1.262.909.909,0,0,1-.58.208" transform="translate(-719.684 -728.511)" fill="#1a1311"/>
          <line id="Line_7" data-name="Line 7" x1="17.484" y1="20.752" transform="translate(218.304 208.773)" fill="#fff"/>
          <path id="Path_86" data-name="Path 86" d="M978.343,950.58a.909.909,0,0,1-.7-.322l-17.484-20.752a.89.89,0,0,1,.116-1.262.913.913,0,0,1,1.276.115l17.484,20.752a.89.89,0,0,1-.116,1.262.909.909,0,0,1-.58.208" transform="translate(-742.555 -720.158)" fill="#1a1311"/>
          <path id="Path_87" data-name="Path 87" d="M674.381,750.85l45.686-18.6-58.563-24.5-45.882,18.675s60.157,25.067,58.759,24.424" transform="translate(-476.204 -549.217)" fill="#fff"/>
          <path id="Path_88" data-name="Path 88" d="M670.148,747.788a1.814,1.814,0,0,1-.676-.144l-.5-.2c-.433-.177-1.066-.438-1.872-.771-1.609-.665-3.907-1.617-6.664-2.762-5.512-2.289-12.86-5.345-20.207-8.4-14.693-6.115-29.384-12.237-29.384-12.237a1.237,1.237,0,0,1,.009-2.294L656.736,702.3a1.27,1.27,0,0,1,.967,0l58.563,24.5a1.237,1.237,0,0,1-.011,2.293L670.793,747.6a1.169,1.169,0,0,1-.644.184m-.587-.116h0ZM614.6,722.135c19.291,8.038,51.225,21.333,55.483,23.071l42.433-17.278-55.309-23.136Z" transform="translate(-471.914 -544.913)" fill="#1a1311"/>
          <path id="Path_89" data-name="Path 89" d="M670.97,754.218l48.276,19.117,21.1-8.388-46.07-20.532Z" transform="translate(-519.018 -577.669)" fill="#fff"/>
          <path id="Path_90" data-name="Path 90" d="M716.608,771.453a.776.776,0,0,1-.287-.055l-48.276-19.117a.761.761,0,0,1-.015-1.412l23.3-9.8a.781.781,0,0,1,.619.007l46.07,20.532a.761.761,0,0,1-.029,1.405L716.9,771.4a.778.778,0,0,1-.288.055m-46.252-19.9,46.252,18.315,19.127-7.6L691.626,742.6Z" transform="translate(-516.38 -575.023)" fill="#1a1311"/>
          <line id="Line_8" data-name="Line 8" x2="45.066" y2="19.406" transform="translate(165.613 171.78)" fill="#fff"/>
          <path id="Path_91" data-name="Path 91" d="M773.715,784.41a.779.779,0,0,1-.308-.064l-45.066-19.406a.761.761,0,0,1-.4-1.005.776.776,0,0,1,1.016-.4l45.065,19.406a.761.761,0,0,1,.4,1.005.773.773,0,0,1-.709.459" transform="translate(-563.037 -592.46)" fill="#1a1311"/>
          <line id="Line_9" data-name="Line 9" x2="48.213" y2="18.545" transform="translate(157.845 174.827)" fill="#fff"/>
          <path id="Path_92" data-name="Path 92" d="M742.564,797.152a.782.782,0,0,1-.28-.052l-48.213-18.545a.762.762,0,0,1-.44-.989.776.776,0,0,1,1-.435l48.213,18.545a.762.762,0,0,1,.44.989.773.773,0,0,1-.72.487" transform="translate(-536.507 -603.016)" fill="#1a1311"/>
          <line id="Line_10" data-name="Line 10" x1="20.691" y2="8.676" transform="translate(194.072 184.762)" fill="#fff"/>
          <path id="Path_93" data-name="Path 93" d="M854.316,831.633a.773.773,0,0,1-.712-.466.761.761,0,0,1,.41-1l20.691-8.676a.775.775,0,0,1,1.013.4.761.761,0,0,1-.41,1l-20.691,8.677a.777.777,0,0,1-.3.061" transform="translate(-660.244 -637.431)" fill="#1a1311"/>
          <line id="Line_11" data-name="Line 11" x1="21.897" y2="8.743" transform="translate(188.581 182.51)" fill="#fff"/>
          <path id="Path_94" data-name="Path 94" d="M830.07,821.647a.772.772,0,0,1-.716-.478.761.761,0,0,1,.427-.994l21.9-8.743a.775.775,0,0,1,1.005.422.761.761,0,0,1-.427.994l-21.9,8.742a.775.775,0,0,1-.289.056" transform="translate(-641.489 -629.63)" fill="#1a1311"/>
          <line id="Line_12" data-name="Line 12" x2="45.133" y2="19.207" transform="translate(171.238 169.926)" fill="#fff"/>
          <path id="Path_95" data-name="Path 95" d="M798.62,775.933a.782.782,0,0,1-.3-.062l-45.132-19.207a.761.761,0,0,1-.4-1,.776.776,0,0,1,1.015-.4l45.133,19.207a.761.761,0,0,1,.4,1,.773.773,0,0,1-.71.462" transform="translate(-582.25 -586.036)" fill="#1a1311"/>
          <line id="Line_13" data-name="Line 13" x1="22.432" y2="9.008" transform="translate(182.018 179.861)" fill="#fff"/>
          <path id="Path_96" data-name="Path 96" d="M801.094,810.087a.773.773,0,0,1-.716-.477.761.761,0,0,1,.425-1l22.433-9.008a.776.776,0,0,1,1.006.42.761.761,0,0,1-.425,1l-22.432,9.008a.78.78,0,0,1-.29.056" transform="translate(-619.075 -620.454)" fill="#1a1311"/>
          <line id="Line_14" data-name="Line 14" x1="21.696" y2="9.14" transform="translate(176.728 177.211)" fill="#fff"/>
          <path id="Path_97" data-name="Path 97" d="M777.734,798.39a.773.773,0,0,1-.711-.465.761.761,0,0,1,.408-1l21.7-9.14a.776.776,0,0,1,1.013.4.761.761,0,0,1-.408,1l-21.7,9.14a.78.78,0,0,1-.3.061" transform="translate(-601.005 -611.275)" fill="#1a1311"/>
          <line id="Line_15" data-name="Line 15" x1="22.298" y2="9.206" transform="translate(170.099 174.562)" fill="#fff"/>
          <path id="Path_98" data-name="Path 98" d="M748.462,786.629a.772.772,0,0,1-.713-.47.761.761,0,0,1,.415-1l22.3-9.206a.776.776,0,0,1,1.01.411.761.761,0,0,1-.415,1l-22.3,9.206a.779.779,0,0,1-.3.059" transform="translate(-578.363 -602.097)" fill="#1a1311"/>
          <line id="Line_16" data-name="Line 16" x1="22.7" y2="9.272" transform="translate(163.671 171.913)" fill="#fff"/>
          <path id="Path_99" data-name="Path 99" d="M720.076,774.867a.772.772,0,0,1-.714-.472.761.761,0,0,1,.419-1l22.7-9.273a.775.775,0,0,1,1.009.415.761.761,0,0,1-.419,1l-22.7,9.272a.776.776,0,0,1-.294.058" transform="translate(-556.405 -592.918)" fill="#1a1311"/>
          <line id="Line_17" data-name="Line 17" x1="22.365" y2="9.471" transform="translate(157.979 169.263)" fill="#fff"/>
          <path id="Path_100" data-name="Path 100" d="M694.943,763.239a.772.772,0,0,1-.71-.463.761.761,0,0,1,.406-1L717,752.3a.775.775,0,0,1,1.014.4.761.761,0,0,1-.406,1l-22.365,9.471a.78.78,0,0,1-.3.062" transform="translate(-536.964 -583.74)" fill="#1a1311"/>
          <path id="Path_101" data-name="Path 101" d="M863.357,759.142l7.768-3.444-13.794-5.961-7.768,3.179Z" transform="translate(-657.165 -581.799)" fill="#fff"/>
          <path id="Path_102" data-name="Path 102" d="M860.718,757.26a.782.782,0,0,1-.321-.069L846.6,750.966a.761.761,0,0,1,.025-1.4l7.768-3.179a.78.78,0,0,1,.6.006l13.794,5.961a.761.761,0,0,1,.007,1.4l-7.768,3.444a.783.783,0,0,1-.316.067M848.86,750.3l11.861,5.353,5.856-2.6-11.894-5.14Z" transform="translate(-654.526 -579.153)" fill="#1a1311"/>
          <path id="Path_103" data-name="Path 103" d="M564.408,582.052l59.715,23s11.341,48.581,10.643,48.259-58.061-24.1-58.76-24.424-11.6-46.831-11.6-46.831" transform="translate(-436.588 -451.674)" fill="#fff"/>
          <path id="Path_104" data-name="Path 104" d="M630.479,650.245a1.276,1.276,0,0,1-.533-.115c-.5-.223-15.168-6.312-29.352-12.2-18.067-7.5-29.062-12.066-29.407-12.225-.678-.312-.783-.36-2.8-8.276-.992-3.9-2.324-9.319-3.958-16.1-2.781-11.538-5.512-23.186-5.539-23.3a1.234,1.234,0,0,1,.4-1.219,1.267,1.267,0,0,1,1.278-.219l59.714,23a1.246,1.246,0,0,1,.768.878c.028.12,2.825,12.1,5.523,23.982,1.585,6.979,2.827,12.559,3.691,16.584.514,2.4.9,4.263,1.144,5.55.416,2.186.541,2.846-.133,3.386a1.284,1.284,0,0,1-.8.278M572.665,623.63c2.545,1.068,15.926,6.622,28.9,12.009,13.725,5.7,23.373,9.7,27.38,11.374-1.3-6.8-6.486-29.48-10.188-45.349l-56.879-21.9c3.982,16.944,9.64,40.489,10.785,43.87" transform="translate(-432.299 -447.371)" fill="#1a1311"/>
          <path id="Path_105" data-name="Path 105" d="M699.8,732.887a3.44,3.44,0,0,1-4.549,1.642,3.371,3.371,0,0,1-1.66-4.5,3.441,3.441,0,0,1,4.549-1.642,3.372,3.372,0,0,1,1.66,4.5" transform="translate(-536.268 -564.985)" fill="#fff"/>
          <path id="Path_106" data-name="Path 106" d="M692.4,731.79a4.706,4.706,0,0,1-1.971-.435,4.618,4.618,0,0,1-2.423-2.61,4.554,4.554,0,0,1,.153-3.54,4.708,4.708,0,0,1,6.218-2.244,4.619,4.619,0,0,1,2.422,2.61,4.553,4.553,0,0,1-.153,3.54,4.631,4.631,0,0,1-2.639,2.4,4.728,4.728,0,0,1-1.607.283m.006-6.776a2.174,2.174,0,0,0-1.97,1.24,2.111,2.111,0,0,0-.071,1.64,2.14,2.14,0,0,0,1.122,1.209,2.178,2.178,0,0,0,1.658.07,2.145,2.145,0,0,0,1.222-1.11,2.109,2.109,0,0,0,.071-1.64,2.139,2.139,0,0,0-1.122-1.209,2.173,2.173,0,0,0-.911-.2" transform="translate(-531.973 -560.685)" fill="#1a1311"/>
          <path id="Path_107" data-name="Path 107" d="M969.6,705.357c-.578-.225-4.162.274-6.659-.412s-13.734-2.47-16.647-2.2-7.7,3.132-9.711,5.077c-2.312,2.241-6.983,9.422-5.734,10.657s5.641-2.561,5.641-2.561-3.928,6.192-2.682,7.135c3.145,2.378,7.676-5.763,7.676-5.763s-4.239,6.42-2.4,7.135c3.052,1.189,7.352-4.254,7.352-4.254s-3.561,4.437-.971,5.489c1.321.537,7.352-4.711,8.046-5.26s4.069.137,7.676-.549a9.845,9.845,0,0,0,6.011-3.476c.139-.412,8.093.091,7.676.091s3.884-7.547-5.271-11.114" transform="translate(-719.881 -545.314)" fill="#fff"/>
          <path id="Path_108" data-name="Path 108" d="M940.99,722.372a1.911,1.911,0,0,1-.734-.143,2.76,2.76,0,0,1-1.694-1.865q-.019-.071-.034-.144a5.293,5.293,0,0,1-4.636.781,2.025,2.025,0,0,1-1.208-1.292,2.114,2.114,0,0,1-.057-.22,4.972,4.972,0,0,1-1.485.589,3.439,3.439,0,0,1-2.851-.634c-1.178-.891-.848-2.565-.125-4.294a2.755,2.755,0,0,1-2.971-.4,2.174,2.174,0,0,1-.61-1.618c.007-1.266.818-3.211,2.411-5.78a30.3,30.3,0,0,1,3.943-5.187c2.131-2.065,7.172-5.141,10.54-5.458,3.138-.3,14.6,1.54,17.144,2.239a17.92,17.92,0,0,0,4.65.312,5.915,5.915,0,0,1,2.145.144c3.7,1.44,5.911,3.679,6.584,6.654a10.774,10.774,0,0,1-.4,5.52l-.035.117a1.331,1.331,0,0,1-.005.229,1.382,1.382,0,0,1-1.379,1.212,1.419,1.419,0,0,1-.236-.02c-.9-.078-5.2-.3-6.622-.22a11.943,11.943,0,0,1-6.571,3.6,26.9,26.9,0,0,1-5.488.346,14.992,14.992,0,0,0-1.715.031l-.3.25c-4.892,4.079-6.979,5.247-8.264,5.247m1.8-6.007a6.971,6.971,0,0,0-1.6,3.224c.58-.223,2.174-1.107,6.29-4.538.227-.189.393-.327.48-.4.707-.559,1.7-.545,3.342-.524a24.217,24.217,0,0,0,4.932-.3,9.207,9.207,0,0,0,5.026-2.72c.437-1.017,1.586-1.023,5.133-.9.6.022,1.769.074,2.708.128.756-2.861.728-6.263-4.595-8.378-.216-.016-.745,0-1.177,0a20,20,0,0,1-5.445-.411c-2.6-.713-13.54-2.4-16.15-2.152-2.013.19-6.506,2.394-8.881,4.7a28.827,28.827,0,0,0-5.426,8.424,15.728,15.728,0,0,0,3.472-2.318,1.383,1.383,0,0,1,1.792-.01,1.346,1.346,0,0,1,.271,1.753,22.492,22.492,0,0,0-2.691,5.485.812.812,0,0,0,.3-.014c1.171-.244,2.8-2.079,4.015-3.859.368-.631.737-1.213,1.059-1.7a1.38,1.38,0,0,1,1.854-.421,1.348,1.348,0,0,1,.5,1.817c-.022.039-.37.661-.935,1.512a16.008,16.008,0,0,0-1.729,3.782,5.459,5.459,0,0,0,2.966-1.507,18.384,18.384,0,0,0,2.354-2.383l.016-.02a1.382,1.382,0,0,1,1.923-.222,1.347,1.347,0,0,1,.232,1.9l-.035.044m21.017-4.245a1.414,1.414,0,0,1-.073.174,1.27,1.27,0,0,0,.073-.174m-2.515-1.049h0Z" transform="translate(-715.197 -540.624)" fill="#1a1311"/>
          <path id="Path_109" data-name="Path 109" d="M1000.372,757.669a36.919,36.919,0,0,1,3.052-4.391c.971-.961,2.728-1.509,3.93-2.241" transform="translate(-773.821 -582.807)" fill="#fff"/>
          <path id="Path_110" data-name="Path 110" d="M996.243,754.723a1.212,1.212,0,0,1-.621-.171,1.187,1.187,0,0,1-.414-1.639,35.709,35.709,0,0,1,3.233-4.621,9.969,9.969,0,0,1,2.8-1.721c.5-.237.97-.46,1.352-.692a1.216,1.216,0,0,1,1.662.391,1.187,1.187,0,0,1-.4,1.644,17.447,17.447,0,0,1-1.574.812,8.392,8.392,0,0,0-2.136,1.256,33.56,33.56,0,0,0-2.87,4.161,1.21,1.21,0,0,1-1.037.58" transform="translate(-769.693 -578.667)" fill="#1a1311"/>
          <path id="Path_111" data-name="Path 111" d="M978.524,745.28c1.11-1.647,2.707-3.8,3.884-4.482,1.572-.915,3.422-2.013,3.422-2.013" transform="translate(-756.921 -573.299)" fill="#fff"/>
          <path id="Path_112" data-name="Path 112" d="M974.4,742.335a1.212,1.212,0,0,1-.669-.2,1.187,1.187,0,0,1-.335-1.657c1.737-2.577,3.176-4.209,4.277-4.849,1.549-.9,3.394-2,3.413-2.007a1.216,1.216,0,0,1,1.658.41,1.187,1.187,0,0,1-.414,1.639c-.019.011-1.872,1.111-3.431,2.018-.355.207-1.407,1.021-3.492,4.115a1.21,1.21,0,0,1-1.006.532" transform="translate(-752.794 -569.16)" fill="#1a1311"/>
          <path id="Path_113" data-name="Path 113" d="M953.2,735.675c1.387-1.647,3.7-4.574,4.532-5.672s3.792-2.653,3.792-2.653" transform="translate(-737.335 -564.427)" fill="#fff"/>
          <path id="Path_114" data-name="Path 114" d="M949.077,732.73a1.211,1.211,0,0,1-.773-.277,1.186,1.186,0,0,1-.155-1.683c1.42-1.685,3.716-4.6,4.494-5.623.946-1.248,3.657-2.711,4.191-2.991a1.215,1.215,0,0,1,1.633.494,1.189,1.189,0,0,1-.5,1.616,14.406,14.406,0,0,0-3.392,2.315c-.79,1.042-3.126,4.005-4.57,5.719a1.211,1.211,0,0,1-.929.43" transform="translate(-733.208 -560.286)" fill="#1a1311"/>
          <path id="Path_115" data-name="Path 115" d="M1062.326,622.175a2.765,2.765,0,1,1-2.765-2.734,2.75,2.75,0,0,1,2.765,2.734" transform="translate(-817.467 -480.688)" fill="#fff"/>
          <path id="Path_116" data-name="Path 116" d="M1054.934,621.606a4.075,4.075,0,1,1,4.12-4.075,4.1,4.1,0,0,1-4.12,4.075m0-5.469a1.394,1.394,0,1,0,1.41,1.394,1.4,1.4,0,0,0-1.41-1.394" transform="translate(-812.84 -476.044)" fill="#1a1311"/>
          <path id="Path_117" data-name="Path 117" d="M1112.153,544.533l.688,24.505-30.168,10.488s2.411,3.709,5.089,8.478,1.909,14.388,1.909,14.388,43.775-15.01,46.186-21.1" transform="translate(-837.483 -422.559)" fill="#275695"/>
          <path id="Path_118" data-name="Path 118" d="M1085.043,599.088a1.366,1.366,0,0,1-.829-.28,1.334,1.334,0,0,1-.522-1.166c.007-.092.7-9.276-1.743-13.632-2.624-4.672-5.021-8.367-5.045-8.4a1.327,1.327,0,0,1-.141-1.16,1.348,1.348,0,0,1,.832-.829l29.236-10.164-.661-23.528a1.355,1.355,0,0,1,2.709-.074l.688,24.505a1.341,1.341,0,0,1-.905,1.3l-28.569,9.932c.953,1.524,2.544,4.125,4.225,7.118,2.088,3.717,2.247,9.917,2.17,13.114,3.613-1.271,11.886-4.232,20.243-7.587,20.359-8.173,22.932-11.312,23.235-12.08a1.359,1.359,0,0,1,1.756-.76,1.336,1.336,0,0,1,.768,1.737c-.473,1.195-1.908,3.021-8.875,6.571-3.967,2.022-9.308,4.383-15.874,7.019-11.149,4.476-22.145,8.254-22.255,8.291a1.364,1.364,0,0,1-.443.074" transform="translate(-832.855 -417.914)" fill="#1a1311"/>
          <path id="Path_119" data-name="Path 119" d="M1079.592,708.479a25.918,25.918,0,0,0-4.687.662s4.152,2.958,4.821,7.727-1.416,10.845-1.416,10.845l5.893-1.59s1.282-7.842-.057-12.214-4.553-5.431-4.553-5.431" transform="translate(-831.475 -549.77)" fill="#fff"/>
          <path id="Path_120" data-name="Path 120" d="M1073.632,724.379a1.377,1.377,0,0,1-1-.427,1.346,1.346,0,0,1-.3-1.365c.02-.057,1.973-5.836,1.357-10.222-.578-4.113-4.231-6.789-4.268-6.815a1.352,1.352,0,0,1,.507-2.422,23.431,23.431,0,0,1,5.155-.684,1.4,1.4,0,0,1,.264.059,9.369,9.369,0,0,1,5.432,6.325c1.415,4.619.153,12.491.1,12.824a1.362,1.362,0,0,1-.993,1.092l-5.893,1.59a1.394,1.394,0,0,1-.361.047m-.511-19.091a12.921,12.921,0,0,1,3.286,6.7,25.6,25.6,0,0,1-.794,9.091l2.68-.723c.275-2.1.845-7.537-.138-10.747a6.909,6.909,0,0,0-3.55-4.486,11.691,11.691,0,0,0-1.485.16" transform="translate(-826.797 -545.081)" fill="#1a1311"/>
          <line id="Line_18" data-name="Line 18" y1="1.966" x2="5.964" transform="translate(276.199 144.21)" fill="#ffaf00"/>
          <path id="Path_121" data-name="Path 121" d="M1215,642.488a1.346,1.346,0,0,1-1.277-.911,1.329,1.329,0,0,1,.851-1.685l5.964-1.966a1.35,1.35,0,0,1,1.7.842,1.329,1.329,0,0,1-.852,1.685l-5.964,1.966a1.359,1.359,0,0,1-.426.069" transform="translate(-938.8 -494.979)" fill="#1a1311"/>
          <path id="Path_122" data-name="Path 122" d="M1150.384,761.107a1.384,1.384,0,1,1-1.511-1.23,1.373,1.373,0,0,1,1.511,1.23" transform="translate(-887.724 -589.662)" fill="#1a1311"/>
          <path id="Path_123" data-name="Path 123" d="M1173.25,752.748a1.384,1.384,0,1,1-1.511-1.23,1.373,1.373,0,0,1,1.511,1.23" transform="translate(-905.412 -583.175)" fill="#1a1311"/>
          <path id="Path_124" data-name="Path 124" d="M728.453,462.983a1.384,1.384,0,1,1-1.511-1.23,1.373,1.373,0,0,1,1.511,1.23" transform="translate(-561.347 -358.316)" fill="#1a1311"/>
          <path id="Path_125" data-name="Path 125" d="M743.08,479.331a1.384,1.384,0,1,1-1.511-1.23,1.373,1.373,0,0,1,1.511,1.23" transform="translate(-572.661 -371.002)" fill="#1a1311"/>
          <path id="Path_126" data-name="Path 126" d="M960,509.525s-.167-5.44-.459-9.984c-.236-3.673-.612-3.63-.612-3.63" transform="translate(-741.763 -384.828)" fill="#ffaf00"/>
          <path id="Path_127" data-name="Path 127" d="M955.4,506.242a1.339,1.339,0,0,1-1.345-1.292c0-.054-.17-5.471-.457-9.94a16.594,16.594,0,0,0-.345-2.916,1.319,1.319,0,0,1-.26-.647,1.336,1.336,0,0,1,1.185-1.475,1.389,1.389,0,0,1,1.047.316c.46.381.831.958,1.062,4.553.289,4.514.459,9.973.461,10.028a1.338,1.338,0,0,1-1.3,1.372H955.4M954.3,492.628a1.227,1.227,0,0,0,.178-.008,1.462,1.462,0,0,1-.178.008" transform="translate(-737.163 -380.213)" fill="#1a1311"/>
          <line id="Line_19" data-name="Line 19" x1="2.906" y2="3.933" transform="translate(196.06 109.267)" fill="#ffaf00"/>
          <path id="Path_128" data-name="Path 128" d="M861.135,488.457a1.352,1.352,0,0,1-.794-.257,1.323,1.323,0,0,1-.293-1.861l2.906-3.933a1.356,1.356,0,0,1,1.882-.289,1.323,1.323,0,0,1,.293,1.861l-2.906,3.933a1.35,1.35,0,0,1-1.088.546" transform="translate(-665.076 -373.924)" fill="#1a1311"/>
          <path id="Path_129" data-name="Path 129" d="M249.517,528.13s3.274,15.393.935,19.3c-3.457,5.77-5.174,3.781-5.174,3.781s15.291,17.823,22.845,16.845c12.691-1.642,9.784-11.5,9.784-11.5s-4.485-2.535-8.465-10.127-1.422-18.839-1.422-18.839" transform="translate(-189.73 -409.411)" fill="#fff"/>
          <path id="Path_130" data-name="Path 130" d="M262.859,564.786c-3.532,0-8.3-2.774-14.546-8.449a112.31,112.31,0,0,1-8.706-8.909,1.332,1.332,0,0,1,.155-1.89,1.37,1.37,0,0,1,1.768.006c.2-.036,1.275-.373,3.119-3.45,1.507-2.516.128-12.582-1.1-18.337a1.343,1.343,0,0,1,1.049-1.59,1.357,1.357,0,0,1,1.607,1.037c.346,1.628,3.309,16.026.774,20.258a12.291,12.291,0,0,1-3.571,4.165c1.554,1.688,4.006,4.251,6.755,6.75,7.878,7.157,11.616,7.9,13.143,7.7,3.78-.489,6.393-1.781,7.765-3.841a7.726,7.726,0,0,0,.988-5.5c-1.368-.942-5.1-3.926-8.463-10.333-4.16-7.935-1.65-19.273-1.541-19.751a1.357,1.357,0,0,1,1.622-1.015,1.342,1.342,0,0,1,1.026,1.6c-.024.107-2.4,10.868,1.3,17.927a30.263,30.263,0,0,0,5.381,7.482,14.494,14.494,0,0,0,2.558,2.1,1.36,1.36,0,0,1,.624.786,10.5,10.5,0,0,1-1.21,8.147c-1.821,2.759-5.085,4.461-9.7,5.058a6.281,6.281,0,0,1-.8.05m-21.187-19.1v0m0,0h0" transform="translate(-185.094 -404.761)" fill="#1a1311"/>
          <path id="Path_131" data-name="Path 131" d="M283.956,257.563s14.5-7.422,22.91,7.891c6.847,12.464.161,25.149.161,25.149Z" transform="translate(-219.649 -198.474)" fill="#275695"/>
          <path id="Path_132" data-name="Path 132" d="M302.392,287.295a1.361,1.361,0,0,1-1.116-.579L278.2,253.675a1.33,1.33,0,0,1-.2-1.088,1.345,1.345,0,0,1,.693-.867,20.749,20.749,0,0,1,8.941-1.947c4.629.058,11.125,1.908,15.785,10.39,7.111,12.943.459,25.866.173,26.41a1.358,1.358,0,0,1-1.119.719l-.084,0M281.383,253.5,302.1,283.172c1.468-4.011,3.737-12.993-1.061-21.727-6.253-11.382-15.991-9.256-19.655-7.941" transform="translate(-215.015 -193.823)" fill="#1a1311"/>
          <path id="Path_133" data-name="Path 133" d="M182.4,353.64a34.512,34.512,0,0,0,10.214-1.138c12.653-3.455,17.583-16.528,12.767-29.731l6.56-5.407a21.87,21.87,0,0,1-9.752-2.57c-2.219-5.823-4.02-11.082-6.479-15.264-5.99-10.186-13.587-11.345-27.033-10.556s-28.493,20.637-27.979,29.411,11.456,19.3,16.771,24.9a32.8,32.8,0,0,0,12.219,7.816" transform="translate(-108.825 -224.089)" fill="#fff"/>
          <path id="Path_134" data-name="Path 134" d="M179.034,350.374q-.655,0-1.315-.022a1.342,1.342,0,1,1,.092-2.683,33.072,33.072,0,0,0,9.807-1.09,17.635,17.635,0,0,0,11.334-8.913c2.8-5.348,2.987-12.3.518-19.069a1.333,1.333,0,0,1,.408-1.487l4.071-3.356a22.92,22.92,0,0,1-7.051-2.416,1.347,1.347,0,0,1-.613-.7q-.541-1.42-1.054-2.794a80.646,80.646,0,0,0-5.328-12.268c-5.547-9.432-12.436-10.674-25.78-9.891-5.579.327-12.412,4.532-18.278,11.248-5.191,5.943-8.656,12.829-8.427,16.745.438,7.477,9.432,16.81,14.806,22.386.572.594,1.11,1.152,1.6,1.668a31.384,31.384,0,0,0,11.712,7.481,1.338,1.338,0,0,1,.785,1.732,1.362,1.362,0,0,1-1.751.777,34.1,34.1,0,0,1-12.725-8.152c-.486-.512-1.018-1.064-1.586-1.653-6-6.221-15.055-15.622-15.551-24.083-.275-4.7,3.29-12.023,9.082-18.655,6.43-7.362,13.782-11.8,20.171-12.173,14.2-.833,22.06.633,28.287,11.221a83.727,83.727,0,0,1,5.526,12.684q.427,1.138.87,2.31a20.775,20.775,0,0,0,8.643,2.173h.016a1.358,1.358,0,0,1,1.274.878,1.332,1.332,0,0,1-.4,1.5l-5.841,4.815c2.39,7.19,2.047,14.549-.972,20.32a20.277,20.277,0,0,1-13.022,10.266,35.3,35.3,0,0,1-9.306,1.208" transform="translate(-104.191 -219.46)" fill="#1a1311"/>
          <path id="Path_135" data-name="Path 135" d="M161.6,261.542c1.34.546,13.577,17.789,1.076,37.317-9.585,14.974-17.057,28.2-17.057,28.2-2.187,2.029-42.949-19.238-20.878-51.992,9.446-14.019,26.98-17.545,36.859-13.52" transform="translate(-91.435 -201.748)" fill="#275695"/>
          <path id="Path_136" data-name="Path 136" d="M140.409,323.9a13.087,13.087,0,0,1-4.865-1.583,47.654,47.654,0,0,1-9.312-6.157c-4.556-3.816-10.5-10.159-12.937-18.7-2.577-9.027-.675-18.366,5.653-27.757a35.853,35.853,0,0,1,18.986-14.062c6.869-2.153,14.166-2.136,19.518.045,1.257.512,4.095,4.6,5.86,10.091,2.216,6.892,3.293,17.551-4.154,29.185-9.456,14.772-16.944,28-17.019,28.132a1.35,1.35,0,0,1-.256.324,2.1,2.1,0,0,1-1.475.482m7.786-67.165a32.9,32.9,0,0,0-26.989,14.456c-4.1,6.082-6.218,12.154-6.3,18.049a27.36,27.36,0,0,0,4.057,14.487c6.586,11.093,18.466,16.976,21.142,17.47,1.559-2.729,8.395-14.6,16.761-27.672,6.139-9.59,5.9-18.43,4.617-24.157-1.41-6.3-4.418-10.561-5.185-11.25a22.242,22.242,0,0,0-8.1-1.383" transform="translate(-86.777 -197.136)" fill="#1a1311"/>
          <path id="Path_137" data-name="Path 137" d="M359.73,406.844a2.158,2.158,0,1,0,2.1-2.189,2.147,2.147,0,0,0-2.1,2.189" transform="translate(-278.263 -314.012)" fill="#1a1311"/>
          <path id="Path_138" data-name="Path 138" d="M204.047,360.579a1.359,1.359,0,0,1-1.166-.653,1.334,1.334,0,0,1,.467-1.841c4.427-2.62,9.754-11.026,11.176-17.637a1.356,1.356,0,0,1,1.61-1.033,1.343,1.343,0,0,1,1.045,1.592c-1.4,6.515-6.854,16.077-12.437,19.381a1.362,1.362,0,0,1-.7.191" transform="translate(-156.786 -263.363)" fill="#1a1311"/>
          <path id="Path_139" data-name="Path 139" d="M182.975,352.128a1.359,1.359,0,0,1-1.174-.667,1.334,1.334,0,0,1,.49-1.835c3.679-2.118,6.833-8.5,7.646-13.2a1.357,1.357,0,0,1,2.675.452,28.046,28.046,0,0,1-3.122,8.561c-1.193,2.124-3.173,4.977-5.833,6.509a1.362,1.362,0,0,1-.681.182" transform="translate(-140.486 -260.199)" fill="#1a1311"/>
          <path id="Path_140" data-name="Path 140" d="M379.287,509.751a7.8,7.8,0,0,1-5.347,5.4,4.6,4.6,0,0,1-5.608-2.427" transform="translate(-284.918 -395.568)" fill="#fff"/>
          <path id="Path_141" data-name="Path 141" d="M368.1,512.264a5.761,5.761,0,0,1-5.273-3.4,1.249,1.249,0,0,1,.683-1.64,1.273,1.273,0,0,1,1.658.675,3.613,3.613,0,0,0,.967,1.191,3.45,3.45,0,0,0,3.151.5c2.111-.544,3.613-2.088,4.465-4.589a1.271,1.271,0,0,1,1.606-.789,1.251,1.251,0,0,1,.8,1.589,8.916,8.916,0,0,1-6.229,6.216,7.3,7.3,0,0,1-1.825.243" transform="translate(-280.585 -391.222)" fill="#1a1311"/>
          <path id="Path_142" data-name="Path 142" d="M272.327,451.534c-9.279-1.563-11.478,3.59-9.828,7.325a7.721,7.721,0,0,0,10.217,3.638" transform="translate(-202.663 -350.169)" fill="#fff"/>
          <path id="Path_143" data-name="Path 143" d="M264.805,459.918a8.827,8.827,0,0,1-8.168-5.129,6.478,6.478,0,0,1,.681-6.661c2.618-3.311,7.776-3,10.617-2.525a1.343,1.343,0,1,1-.456,2.646c-3.877-.653-6.726-.109-8.024,1.532a3.779,3.779,0,0,0-.332,3.932,6.367,6.367,0,0,0,8.43,2.946,1.363,1.363,0,0,1,1.787.692,1.336,1.336,0,0,1-.7,1.767,9.66,9.66,0,0,1-3.836.8" transform="translate(-198.045 -345.561)" fill="#1a1311"/>
          <path id="Path_144" data-name="Path 144" d="M285.244,500.191a2.747,2.747,0,1,0,2.192-3.174,2.746,2.746,0,0,0-2.192,3.174" transform="translate(-220.609 -385.649)" fill="#fff"/>
          <path id="Path_145" data-name="Path 145" d="M283.308,499.1a4.063,4.063,0,1,1,2.316-7.414,4.033,4.033,0,0,1,1.075,5.643,4.082,4.082,0,0,1-2.63,1.7,4.167,4.167,0,0,1-.761.071m-1.366-3.806a1.4,1.4,0,0,0,2.516.521,1.367,1.367,0,0,0-.364-1.912,1.4,1.4,0,0,0-1.933.36,1.355,1.355,0,0,0-.218,1.031" transform="translate(-215.974 -380.997)" fill="#1a1311"/>
          <path id="Path_146" data-name="Path 146" d="M341.212,904.184a2.837,2.837,0,1,0,2.836-2.805,2.821,2.821,0,0,0-2.836,2.805" transform="translate(-263.939 -699.473)" fill="#fff"/>
          <path id="Path_147" data-name="Path 147" d="M339.717,903.9a4.06,4.06,0,1,1,4.1-4.06,4.087,4.087,0,0,1-4.1,4.06m0-5.611a1.551,1.551,0,1,0,1.568,1.551,1.562,1.562,0,0,0-1.568-1.551" transform="translate(-259.607 -695.127)" fill="#1a1311"/>
          <line id="Line_20" data-name="Line 20" x1="5.084" y1="2.038" transform="translate(44.319 201.042)" fill="#ffaf00"/>
          <path id="Path_148" data-name="Path 148" d="M196.447,896.468a1.278,1.278,0,0,1-.476-.092l-5.083-2.039a1.25,1.25,0,0,1-.7-1.634,1.273,1.273,0,0,1,1.652-.691l5.083,2.039a1.25,1.25,0,0,1,.7,1.634,1.268,1.268,0,0,1-1.176.783" transform="translate(-147.045 -692.133)" fill="#1a1311"/>
        </g>
      </g>
      <g id="Group_33" data-name="Group 33" transform="translate(0 48.953)">
        <g id="Group_32" data-name="Group 32" clip-path="url(#clip-path-3)">
          <path id="Path_149" data-name="Path 149" d="M193.953,621c-3.516,3.875-6.338,4.814-6.513,17.5-.046,3.292,2.8,13.563,4.556,24.786,2.076,13.3,2.979,20.123.876,25.653s-10.076,27.319-5.17,38.054S208.517,740.326,221,743.1c17.174,3.822,52.748-16.4,56.6-17.864s2.175-5.78-3.5-9.47c-5.257-3.415-25.41-11.06-25.41-11.06s-12.617-8.783-12.617-18.217.7-13.5,4.031-19.356,6.633-19.146,5.082-28.789c-1.752-10.9-4.03-13.175-7.185-15.777-4.107-3.389-16.823-8.458-24.359-8.132s-14.078.379-19.685,6.56" transform="translate(-143.98 -525.748)" fill="#275695"/>
          <path id="Path_150" data-name="Path 150" d="M221.2,740.278a23.723,23.723,0,0,1-5.136-.515c-1-.223-2.028-.445-3.068-.671-12.362-2.678-26.374-5.713-31.166-16.2-2.207-4.829-2.252-12.169-.133-21.817a125.619,125.619,0,0,1,5.269-17.263c2-5.259,1.051-12.181-.947-24.976-.831-5.325-1.931-10.526-2.814-14.7-1.036-4.9-1.784-8.437-1.758-10.305.151-10.967,2.2-13.6,5.528-16.985.432-.44.88-.9,1.332-1.394,5.788-6.379,12.609-6.667,19.83-6.97l.806-.034c7.893-.343,20.95,4.865,25.287,8.443,3.473,2.866,5.882,5.569,7.656,16.6,1.672,10.4-1.968,23.905-5.24,29.658-3.1,5.451-3.856,9.12-3.856,18.7,0,8.149,10.61,16.084,11.912,17.026,2.081.792,20.381,7.8,25.5,11.129,4.15,2.7,6.459,5.852,6.177,8.44a4.148,4.148,0,0,1-2.931,3.4c-.561.213-2.1.983-4.046,1.958-10.286,5.151-32.9,16.477-48.205,16.477M209.735,611.115c-.228,0-.451,0-.67.014l-.809.035c-7.208.3-12.9.543-17.926,6.081-.488.538-.955,1.013-1.406,1.472-2.68,2.726-4.615,4.7-4.76,15.151-.022,1.571.777,5.347,1.7,9.719.89,4.209,2,9.448,2.84,14.844,2.069,13.252,3.045,20.441.805,26.33-3.022,7.946-9.577,27.46-5.2,37.029,4.231,9.256,17.535,12.138,29.274,14.681,1.045.226,2.076.449,3.084.674a20.969,20.969,0,0,0,4.533.451c14.658,0,37.726-11.552,46.987-16.189,2.173-1.088,3.608-1.807,4.3-2.069,1.122-.426,1.185-1,1.205-1.186.131-1.206-1.367-3.569-4.968-5.909-5.075-3.3-24.951-10.853-25.151-10.929a1.369,1.369,0,0,1-.3-.156c-.539-.375-13.193-9.3-13.193-19.314,0-9.313.635-13.736,4.2-20.014,3-5.275,6.479-18.253,4.925-27.92-1.746-10.859-3.938-12.668-6.714-14.958-3.806-3.14-15.5-7.836-22.76-7.836m-20.415,5.234h0Z" transform="translate(-139.347 -521.098)" fill="#1a1311"/>
        </g>
      </g>
      <g id="Group_35" data-name="Group 35">
        <g id="Group_34" data-name="Group 34" transform="translate(0 0)" clip-path="url(#clip-path-2)">
          <path id="Path_152" data-name="Path 152" d="M612.521,929.935s6.658-5.272,9.928-5.628,11.063,4.436,13.907,5.765,8.88,5.339,7.243,7.161a5.612,5.612,0,0,1-5.462,1.962c-1.955-.348-9.421-3.674-9.421-3.674a12.218,12.218,0,0,1-8.443,6.6,18,18,0,0,1-10.325-.665" transform="translate(-471.816 -717.25)" fill="#fff"/>
          <path id="Path_153" data-name="Path 153" d="M611.379,939.246a17.255,17.255,0,0,1-5.757-.964c-.215-.07-.483-.158-.573-.174a1.35,1.35,0,0,1-1.1-1.566,1.364,1.364,0,0,1,1.584-1.088,7.329,7.329,0,0,1,.945.268,15.781,15.781,0,0,0,8.864.4,10.763,10.763,0,0,0,7.462-5.805,1.364,1.364,0,0,1,.76-.726,1.379,1.379,0,0,1,1.054.025,78.458,78.458,0,0,0,9.1,3.577,4.225,4.225,0,0,0,4.116-1.438c-.28-.994-3.577-3.67-6.721-5.138-.691-.323-1.629-.824-2.715-1.4-2.925-1.561-8.363-4.466-10.46-4.24s-6.769,3.4-9.226,5.341a1.374,1.374,0,0,1-1.917-.21,1.339,1.339,0,0,1,.212-1.9c.713-.565,7.07-5.528,10.631-5.916,2.717-.3,7.066,1.884,12.055,4.548,1.052.561,1.96,1.046,2.584,1.338,1.584.74,7.625,4.116,8.244,7.117a2.422,2.422,0,0,1-.564,2.16,6.947,6.947,0,0,1-6.723,2.394,65.787,65.787,0,0,1-8.577-3.261,13.463,13.463,0,0,1-8.771,6.178,22.655,22.655,0,0,1-4.511.478" transform="translate(-467.157 -712.578)" fill="#1a1311"/>
          <path id="Path_154" data-name="Path 154" d="M694.4,951.132c1.506.855,10.394,4.2,12.351,5.84" transform="translate(-537.139 -738.082)" fill="#fff"/>
          <path id="Path_155" data-name="Path 155" d="M702.088,953.646a1.368,1.368,0,0,1-.881-.32c-1.133-.95-5.54-2.817-8.457-4.052-1.985-.841-3.136-1.332-3.691-1.647a1.341,1.341,0,0,1-.5-1.841,1.371,1.371,0,0,1,1.862-.5c.444.253,1.883.862,3.407,1.507,4.363,1.848,7.807,3.351,9.146,4.474a1.338,1.338,0,0,1,.159,1.9,1.367,1.367,0,0,1-1.041.477" transform="translate(-532.48 -733.407)" fill="#1a1311"/>
          <path id="Path_156" data-name="Path 156" d="M389.434,684.376c1.533,2.688,10.372,47.282,11.781,47.984,6.338,3.155,26.925,7.615,26.925,7.615s6.272,4.692,5.237,10.355c-1.848,10.109-5.86,10.668-10.234,10.241-9.889-.965-34.7-7.327-38.262-12.435s-8.931-31.768-9.66-32.065" transform="translate(-290.247 -531.078)" fill="#275695"/>
          <path id="Path_157" data-name="Path 157" d="M420.115,757.324c-.57,0-1.159-.033-1.765-.092a133.5,133.5,0,0,1-21.764-4.715c-6.74-2.009-15.244-5.078-17.486-8.3-2.272-3.262-4.93-13.51-7.681-24.625-.808-3.264-1.642-6.634-1.948-7.4a1.336,1.336,0,0,1-.168-1.321,1.369,1.369,0,0,1,1.78-.733c.728.3.933.833,1.568,3.2.378,1.411.859,3.355,1.417,5.607,1.908,7.709,5.1,20.612,7.278,23.736,2.985,4.286,26.386,10.8,37.272,11.857,3.264.32,6.963.68,8.758-9.139.771-4.221-3.478-8.021-4.5-8.866-2.72-.6-20.872-4.642-26.932-7.659-1.08-.538-1.547-1.619-7.127-26.7-2.042-9.181-4.585-20.607-5.232-21.834a1.338,1.338,0,0,1,.519-1.835,1.374,1.374,0,0,1,1.859.515c.731,1.281,2.318,8.2,5.517,22.575,2.153,9.678,5.073,22.8,6.02,25.026,6.479,3.036,26.073,7.3,26.274,7.342a1.374,1.374,0,0,1,.531.242c.284.212,6.927,5.266,5.756,11.671-1.663,9.1-5.165,11.436-9.945,11.436M397.6,726.842h0m-27.56-14.207h0m0,0h0" transform="translate(-285.588 -526.397)" fill="#1a1311"/>
          <path id="Path_158" data-name="Path 158" d="M219.6,1027.636l-7.259-3.3-4.682-53.564,7.6,1.236Z" transform="translate(-160.628 -753.32)" fill="#fff"/>
          <path id="Path_159" data-name="Path 159" d="M215.265,1024.545a1.278,1.278,0,0,1-.53-.115l-7.259-3.3a1.255,1.255,0,0,1-.733-1.031l-4.682-53.564a1.248,1.248,0,0,1,.4-1.028,1.277,1.277,0,0,1,1.067-.317l7.6,1.236a1.259,1.259,0,0,1,1.059,1.141l4.337,55.632a1.249,1.249,0,0,1-.54,1.126,1.278,1.278,0,0,1-.725.225m-6.059-5.393,4.629,2.107-4.094-52.523-5.012-.815Z" transform="translate(-156.297 -748.974)" fill="#1a1311"/>
          <path id="Path_160" data-name="Path 160" d="M155.979,856.07c-.562,6.765-6.295,9.988-12.738,7.163l-31.446-13.786c-6.444-2.825-11.572-10.738-11.4-17.584l-2.512-18.029c.176-6.846,5.632-10.284,12.123-7.641l33.615,13.36c6.491,2.644,11.343,10.342,10.78,17.106Z" transform="translate(-75.719 -624.917)" fill="#fff"/>
          <path id="Path_161" data-name="Path 161" d="M143.177,860.932a12.792,12.792,0,0,1-5.122-1.148L106.61,846c-6.883-3.017-12.336-11.4-12.2-18.733l-2.5-17.923a1.319,1.319,0,0,1-.012-.218c.1-3.733,1.605-6.728,4.249-8.431,2.69-1.733,6.151-1.881,9.747-.416l33.6,13.357c6.989,2.846,12.183,11.057,11.636,18.35l1.565,19.3a1.34,1.34,0,0,1,0,.217,10.014,10.014,0,0,1-4.7,8.152,9.415,9.415,0,0,1-4.817,1.276M94.612,809.087,97.109,827a1.32,1.32,0,0,1,.012.218c-.161,6.261,4.688,13.736,10.589,16.323l31.446,13.786c2.763,1.211,5.41,1.218,7.453.018a7.381,7.381,0,0,0,3.373-5.958l-1.565-19.3a1.34,1.34,0,0,1,0-.217c.51-6.137-4.044-13.352-9.944-15.755l-33.6-13.356c-2.756-1.122-5.324-1.057-7.243.179-1.85,1.192-2.918,3.371-3.014,6.144" transform="translate(-71.084 -620.242)" fill="#1a1311"/>
          <path id="Path_162" data-name="Path 162" d="M150.12,543.708a36.138,36.138,0,0,1-3.393,16.509c-3.945,8.732-16.184,16.781-25.463,18.751,3.123-1.137,5.626-14.925,7.566-27.585s10.289-14.971,16.143-15.247c3.475-.164,5.184,5.369,5.147,7.572" transform="translate(-93.802 -416.04)" fill="#275695"/>
          <path id="Path_163" data-name="Path 163" d="M116.627,575.662a1.356,1.356,0,0,1-1.3-.969,1.339,1.339,0,0,1,.835-1.633c.146-.053,1.482-.744,3.376-8.526,1.338-5.5,2.475-12.507,3.317-18,1.571-10.258,7.6-15.924,17.42-16.386a4.777,4.777,0,0,1,3.564,1.429,11.665,11.665,0,0,1,3,7.505c0,.079,0,.2.006.357a38.111,38.111,0,0,1-3.517,16.677c-1.935,4.282-5.9,8.7-11.179,12.454a43.234,43.234,0,0,1-15.239,7.062,1.365,1.365,0,0,1-.286.03m23.857-42.836-.083,0a15.954,15.954,0,0,0-8.808,2.725c-3.216,2.306-5.254,6.135-6.058,11.382-2.14,13.971-3.851,21.254-5.472,25,8.129-2.891,17.488-9.611,20.789-16.918a35.472,35.472,0,0,0,3.281-15.52c0-.2-.008-.361-.006-.464a9.165,9.165,0,0,0-2.18-5.533,2.1,2.1,0,0,0-1.463-.677m5,6.233h0Z" transform="translate(-89.166 -411.392)" fill="#1a1311"/>
          <path id="Path_164" data-name="Path 164" d="M187.956,591.231c-1.415,4.992-5.48,9.841-8.233,11.569" transform="translate(-139.022 -458.797)" fill="#ffaf00"/>
          <path id="Path_165" data-name="Path 165" d="M175.393,599.709a1.27,1.27,0,0,1-1.072-.582,1.246,1.246,0,0,1,.391-1.731,21.858,21.858,0,0,0,7.691-10.849,1.271,1.271,0,0,1,1.563-.869,1.253,1.253,0,0,1,.879,1.546c-1.464,5.163-5.61,10.3-8.774,12.289a1.273,1.273,0,0,1-.678.2" transform="translate(-134.69 -454.451)" fill="#1a1311"/>
        </g>
      </g>
    </g>
  </g>
</svg>
