<svg xmlns="http://www.w3.org/2000/svg" width="388" height="845" viewBox="0 0 388 845">
  <g id="Group_225" data-name="Group 225" transform="translate(-6878 31)">
    <path id="Rectangle_514" data-name="Rectangle 514" d="M10,0H60a0,0,0,0,1,0,0V45a0,0,0,0,1,0,0H10A10,10,0,0,1,0,35V10A10,10,0,0,1,10,0Z" transform="translate(6878 604)" fill="#275695"/>
    <path id="Rectangle_520" data-name="Rectangle 520" d="M10,0H60a0,0,0,0,1,0,0V45a0,0,0,0,1,0,0H10A10,10,0,0,1,0,35V10A10,10,0,0,1,10,0Z" transform="translate(6878 714)" fill="#275695"/>
    <path id="Rectangle_511" data-name="Rectangle 511" d="M10,0H60a0,0,0,0,1,0,0V45a0,0,0,0,1,0,0H10A10,10,0,0,1,0,35V10A10,10,0,0,1,10,0Z" transform="translate(6878 549)" fill="#275695"/>
    <path id="Rectangle_517" data-name="Rectangle 517" d="M10,0H60a0,0,0,0,1,0,0V45a0,0,0,0,1,0,0H10A10,10,0,0,1,0,35V10A10,10,0,0,1,10,0Z" transform="translate(6878 659)" fill="#275695"/>
    <path id="Rectangle_523" data-name="Rectangle 523" d="M10,0H60a0,0,0,0,1,0,0V45a0,0,0,0,1,0,0H10A10,10,0,0,1,0,35V10A10,10,0,0,1,10,0Z" transform="translate(6878 769)" fill="#275695"/>
    <text id="提供機能" transform="translate(6908 631)" fill="#fff" font-size="10" font-family="YuGothicUI-Regular, Yu Gothic UI"><tspan x="-20" y="0">提供機能</tspan></text>
    <text id="サポート_体制" data-name="サポート
体制" transform="translate(6908 733)" fill="#fff" font-size="10" font-family="YuGothicUI-Regular, Yu Gothic UI"><tspan x="-14.958" y="0">サポート</tspan><tspan y="0" font-family="SegoeUI, Segoe UI"></tspan><tspan x="-10" y="15">体制</tspan></text>
    <text id="設定代行" transform="translate(6908 576)" fill="#fff" font-size="10" font-family="YuGothicUI-Regular, Yu Gothic UI"><tspan x="-20" y="0">設定代行</tspan></text>
    <text id="計算仕様" transform="translate(6908 686)" fill="#fff" font-size="10" font-family="YuGothicUI-Regular, Yu Gothic UI"><tspan x="-20" y="0">計算仕様</tspan></text>
    <text id="設定変更" transform="translate(6908 796)" fill="#fff" font-size="10" font-family="YuGothicUI-Regular, Yu Gothic UI"><tspan x="-20" y="0">設定変更</tspan></text>
    <rect id="Rectangle_515" data-name="Rectangle 515" width="140" height="45" transform="translate(6948 604)" fill="#f0f5fc"/>
    <rect id="Rectangle_521" data-name="Rectangle 521" width="140" height="45" transform="translate(6948 714)" fill="#f0f5fc"/>
    <rect id="Rectangle_512" data-name="Rectangle 512" width="140" height="45" transform="translate(6948 549)" fill="#f0f5fc"/>
    <rect id="Rectangle_518" data-name="Rectangle 518" width="140" height="45" transform="translate(6948 659)" fill="#f0f5fc"/>
    <rect id="Rectangle_524" data-name="Rectangle 524" width="140" height="45" transform="translate(6948 769)" fill="#f0f5fc"/>
    <rect id="Rectangle_516" data-name="Rectangle 516" width="140" height="45" transform="translate(7098 604)" fill="#f0f5fc"/>
    <rect id="Rectangle_522" data-name="Rectangle 522" width="140" height="45" transform="translate(7098 714)" fill="#f0f5fc"/>
    <rect id="Rectangle_513" data-name="Rectangle 513" width="140" height="45" transform="translate(7098 549)" fill="#f0f5fc"/>
    <rect id="Rectangle_519" data-name="Rectangle 519" width="140" height="45" transform="translate(7098 659)" fill="#f0f5fc"/>
    <rect id="Rectangle_525" data-name="Rectangle 525" width="140" height="45" transform="translate(7098 769)" fill="#f0f5fc"/>
    <g id="Group_191" data-name="Group 191" transform="translate(6326 -1343)">
      <text id="制限なし" transform="translate(692 1975)" fill="#363636" font-size="13" font-family="NotoSansJP-Bold, Noto Sans JP" font-weight="700"><tspan x="-26" y="0">制限なし</tspan></text>
    </g>
    <g id="Group_193" data-name="Group 193" transform="translate(6326 -1233)">
      <text id="メール_電話" data-name="メール&amp;電話" transform="translate(692 1975)" fill="#363636" font-size="13" font-family="NotoSansJP-Bold, Noto Sans JP" font-weight="700"><tspan x="-37.304" y="0">メール&amp;電話</tspan></text>
    </g>
    <g id="Group_192" data-name="Group 192" transform="translate(6476 -1343)">
      <text id="制限なし-2" data-name="制限なし" transform="translate(692 1975)" fill="#363636" font-size="13" font-family="NotoSansJP-Bold, Noto Sans JP" font-weight="700"><tspan x="-26" y="0">制限なし</tspan></text>
    </g>
    <g id="Group_194" data-name="Group 194" transform="translate(6476 -1233)">
      <text id="メール_電話-2" data-name="メール&amp;電話" transform="translate(692 1975)" fill="#363636" font-size="13" font-family="NotoSansJP-Bold, Noto Sans JP" font-weight="700"><tspan x="-37.304" y="0">メール&amp;電話</tspan></text>
    </g>
    <text id="_" data-name="◯" transform="translate(7018 581)" fill="#363636" font-size="26" font-family="NotoSansJP-Bold, Noto Sans JP" font-weight="700"><tspan x="-13" y="0">◯</tspan></text>
    <text id="_2" data-name="◎" transform="translate(7018 691)" fill="#363636" font-size="26" font-family="NotoSansJP-Bold, Noto Sans JP" font-weight="700"><tspan x="-13" y="0">◎</tspan></text>
    <text id="_3" data-name="◎" transform="translate(7018 801)" fill="#363636" font-size="26" font-family="NotoSansJP-Bold, Noto Sans JP" font-weight="700"><tspan x="-13" y="0">◎</tspan></text>
    <text id="_4" data-name="◯" transform="translate(7168 581)" fill="#363636" font-size="26" font-family="NotoSansJP-Bold, Noto Sans JP" font-weight="700"><tspan x="-13" y="0">◯</tspan></text>
    <text id="_5" data-name="◯" transform="translate(7168 691)" fill="#363636" font-size="26" font-family="NotoSansJP-Bold, Noto Sans JP" font-weight="700"><tspan x="-13" y="0">◯</tspan></text>
    <text id="_6" data-name="◯" transform="translate(7168 801)" fill="#363636" font-size="26" font-family="NotoSansJP-Bold, Noto Sans JP" font-weight="700"><tspan x="-13" y="0">◯</tspan></text>
    <rect id="Rectangle_498" data-name="Rectangle 498" width="140" height="152" transform="translate(7098 387)" fill="#f0f5fc"/>
    <path id="Rectangle_499" data-name="Rectangle 499" d="M20,0H120a20,20,0,0,1,20,20V153a0,0,0,0,1,0,0H0a0,0,0,0,1,0,0V20A20,20,0,0,1,20,0Z" transform="translate(7098 4)" fill="#275695"/>
    <path id="Rectangle_493" data-name="Rectangle 493" d="M20,0H120a20,20,0,0,1,20,20v92a0,0,0,0,1,0,0H0a0,0,0,0,1,0,0V20A20,20,0,0,1,20,0Z" transform="translate(6948 45)" fill="#275695"/>
    <g id="Group_178" data-name="Group 178" transform="translate(6350 -1694)">
      <text id="kinnosuke" transform="translate(669 1770)" fill="#fff" font-size="18" font-family="NotoSansJP-Bold, Noto Sans JP" font-weight="700"><tspan x="-45.909" y="0">kinnosuke</tspan></text>
      <text id="専任の導入担当がお客様の環境に沿った設計_設定をご提案" data-name="専任の導入担当がお客様の環境に沿った設計・設定をご提案" transform="translate(609 1785)" fill="#fff" font-size="12" font-family="YuGothicUI-Regular, Yu Gothic UI"><tspan x="0" y="13">専任の導入担当がお客</tspan><tspan x="0" y="35">様の環境に沿った設計・</tspan></text>
    </g>
    <g id="Group_181" data-name="Group 181" transform="translate(6499 -1709)">
      <text id="kinnosuke_導入テンプレート版" data-name="kinnosuke
導入テンプレート版" transform="translate(669 1744)" fill="#fff" font-size="18" font-family="NotoSansJP-Bold, Noto Sans JP" font-weight="700"><tspan x="-45.909" y="0">kinnosuke</tspan><tspan font-size="13"><tspan x="-58.305" y="20">導入テンプレート版</tspan></tspan></text>
      <text id="既存の出勤簿計算一覧から_お客様自身で必要な計算パターンを選択" data-name="既存の出勤簿計算一覧から、お客様自身で必要な計算パターンを選択" transform="translate(615 1778)" fill="#fff" font-size="12" font-family="YuGothicUI-Regular, Yu Gothic UI"><tspan x="0" y="13">既存の出勤簿計算一</tspan><tspan x="0" y="35">覧から、お客様自身で</tspan><tspan x="0" y="57">必要な計算パターンを</tspan></text>
    </g>
    <g id="Group_182" data-name="Group 182" transform="translate(5904 -1718)">
      <text id="_7" data-name="◯" transform="translate(1264 2145)" fill="#363636" font-size="26" font-family="NotoSansJP-Bold, Noto Sans JP" font-weight="700"><tspan x="-13" y="0">◯</tspan></text>
      <text id="顧客が選択した_計算パターンを元に_ヒアリング_設計" data-name="顧客が選択した
計算パターンを元に
ヒアリング・設計" transform="translate(1264 2172)" fill="#363636" font-size="13" font-family="NotoSansJP-Bold, Noto Sans JP" font-weight="700"><tspan x="-45.5" y="0">顧客が選択した</tspan><tspan x="-58.175" y="23.6">計算パターンを元に</tspan><tspan x="-52" y="47.2">ヒアリング・設計</tspan></text>
    </g>
    <g id="Rectangle_500" data-name="Rectangle 500" transform="translate(7093 217)" fill="none" stroke="#ed3833" stroke-linecap="round" stroke-linejoin="round" stroke-width="3" stroke-dasharray="8">
      <rect width="150" height="165" stroke="none"/>
      <rect x="1.5" y="1.5" width="147" height="162" fill="none"/>
    </g>
    <path id="Rectangle_494" data-name="Rectangle 494" d="M10,0H60a0,0,0,0,1,0,0V45a0,0,0,0,1,0,0H10A10,10,0,0,1,0,35V10A10,10,0,0,1,10,0Z" transform="translate(6878 167)" fill="#275695"/>
    <path id="Rectangle_495" data-name="Rectangle 495" d="M10,0H60a0,0,0,0,1,0,0V45a0,0,0,0,1,0,0H10A10,10,0,0,1,0,35V10A10,10,0,0,1,10,0Z" transform="translate(6878 222)" fill="#275695"/>
    <path id="Rectangle_501" data-name="Rectangle 501" d="M10,0H60a0,0,0,0,1,0,0V45a0,0,0,0,1,0,0H10A10,10,0,0,1,0,35V10A10,10,0,0,1,10,0Z" transform="translate(6878 277)" fill="#275695"/>
    <path id="Rectangle_502" data-name="Rectangle 502" d="M10,0H60a0,0,0,0,1,0,0V45a0,0,0,0,1,0,0H10A10,10,0,0,1,0,35V10A10,10,0,0,1,10,0Z" transform="translate(6878 332)" fill="#275695"/>
    <path id="Rectangle_503" data-name="Rectangle 503" d="M10,0H60a0,0,0,0,1,0,0V152a0,0,0,0,1,0,0H10A10,10,0,0,1,0,142V10A10,10,0,0,1,10,0Z" transform="translate(6878 387)" fill="#275695"/>
    <text id="推奨_利用人数" data-name="推奨
利用人数" transform="translate(6908 186)" fill="#fff" font-size="10" font-family="YuGothicUI-Regular, Yu Gothic UI"><tspan x="-10" y="0">推奨</tspan><tspan y="0" font-family="SegoeUI, Segoe UI"></tspan><tspan x="-20" y="15">利用人数</tspan></text>
    <text id="納期" transform="translate(6908 249)" fill="#fff" font-size="10" font-family="YuGothicUI-Regular, Yu Gothic UI"><tspan x="-10" y="0">納期</tspan></text>
    <text id="導入コスト" transform="translate(6908 304)" fill="#fff" font-size="10" font-family="YuGothicUI-Regular, Yu Gothic UI"><tspan x="-20.723" y="0">導入コスト</tspan></text>
    <text id="ランニング_費用" data-name="ランニング
費用" transform="translate(6908 351)" fill="#fff" font-size="10" font-family="YuGothicUI-Regular, Yu Gothic UI"><tspan x="-18.567" y="0">ランニング</tspan><tspan y="0" font-family="SegoeUI, Segoe UI"></tspan><tspan x="-10" y="15">費用</tspan></text>
    <text id="導入_コンサル" data-name="導入
コンサル" transform="translate(6908 460)" fill="#fff" font-size="10" font-family="YuGothicUI-Regular, Yu Gothic UI"><tspan x="-10" y="0">導入</tspan><tspan y="0" font-family="SegoeUI, Segoe UI"></tspan><tspan x="-15.215" y="15">コンサル</tspan></text>
    <rect id="Rectangle_496" data-name="Rectangle 496" width="140" height="45" transform="translate(6948 167)" fill="#f0f5fc"/>
    <rect id="Rectangle_497" data-name="Rectangle 497" width="140" height="45" transform="translate(6948 222)" fill="#f0f5fc"/>
    <rect id="Rectangle_504" data-name="Rectangle 504" width="140" height="45" transform="translate(6948 277)" fill="#f0f5fc"/>
    <rect id="Rectangle_505" data-name="Rectangle 505" width="140" height="45" transform="translate(6948 332)" fill="#f0f5fc"/>
    <rect id="Rectangle_506" data-name="Rectangle 506" width="140" height="152" transform="translate(6948 387)" fill="#f0f5fc"/>
    <rect id="Rectangle_507" data-name="Rectangle 507" width="140" height="45" transform="translate(7098 167)" fill="#f0f5fc"/>
    <rect id="Rectangle_508" data-name="Rectangle 508" width="140" height="45" transform="translate(7098 222)" fill="#f0f5fc"/>
    <rect id="Rectangle_509" data-name="Rectangle 509" width="140" height="45" transform="translate(7098 277)" fill="#f0f5fc"/>
    <rect id="Rectangle_510" data-name="Rectangle 510" width="140" height="45" transform="translate(7098 332)" fill="#f0f5fc"/>
    <g id="Group_179" data-name="Group 179" transform="translate(6169 -1629)">
      <text id="_5000" data-name="~5000" transform="translate(842 1826)" fill="#363636" font-size="18" font-family="NotoSansJP-Bold, Noto Sans JP" font-weight="700"><tspan x="-26.505" y="0">~5000</tspan></text>
      <text id="名" transform="translate(877 1825)" fill="#363636" font-size="13" font-family="NotoSansJP-Bold, Noto Sans JP" font-weight="700"><tspan x="-6.5" y="0">名</tspan></text>
    </g>
    <g id="Group_183" data-name="Group 183" transform="translate(6313.5 -1619.5)">
      <text id="_300" data-name="~300" transform="translate(846 1826)" fill="#363636" font-size="18" font-family="NotoSansJP-Bold, Noto Sans JP" font-weight="700"><tspan x="-21.204" y="0">~300</tspan></text>
      <text id="名-2" data-name="名" transform="translate(875 1825)" fill="#363636" font-size="13" font-family="NotoSansJP-Bold, Noto Sans JP" font-weight="700"><tspan x="-6.5" y="0">名</tspan></text>
    </g>
    <g id="Group_184" data-name="Group 184" transform="translate(5907 -1586.768)">
      <text id="中堅企業様向け" transform="translate(1261 1771)" fill="#275695" font-size="12" font-family="YuGothicUI-Regular, Yu Gothic UI"><tspan x="-40.699" y="0">中堅企業様向け</tspan></text>
      <path id="Path_1" data-name="Path 1" d="M3526.9,1777.268l8.751-13" transform="translate(-2223.899 -5)" fill="none" stroke="#275695" stroke-linecap="round" stroke-width="1"/>
      <path id="Path_2" data-name="Path 2" d="M3535.65,1777.268l-8.751-13" transform="translate(-2316.65 -5)" fill="none" stroke="#275695" stroke-linecap="round" stroke-width="1"/>
    </g>
    <g id="Group_180" data-name="Group 180" transform="translate(6347 -1640)">
      <text id="_3-2" data-name="3" transform="translate(665 1893)" fill="#363636" font-size="18" font-family="NotoSansJP-Bold, Noto Sans JP" font-weight="700"><tspan x="-5.301" y="0">3</tspan></text>
      <text id="ヶ月" transform="translate(686 1891)" fill="#363636" font-size="13" font-family="NotoSansJP-Bold, Noto Sans JP" font-weight="700"><tspan x="-13" y="0">ヶ月</tspan></text>
      <text id="約" transform="translate(650 1891)" fill="#363636" font-size="13" font-family="NotoSansJP-Bold, Noto Sans JP" font-weight="700"><tspan x="-6.5" y="0">約</tspan></text>
    </g>
    <g id="Group_185" data-name="Group 185" transform="translate(6497 -1640)">
      <text id="_1" data-name="1" transform="translate(665 1893)" fill="#363636" font-size="18" font-family="NotoSansJP-Bold, Noto Sans JP" font-weight="700"><tspan x="-5.301" y="0">1</tspan></text>
      <text id="ヶ月-2" data-name="ヶ月" transform="translate(686 1891)" fill="#363636" font-size="13" font-family="NotoSansJP-Bold, Noto Sans JP" font-weight="700"><tspan x="-13" y="0">ヶ月</tspan></text>
      <text id="約-2" data-name="約" transform="translate(650 1891)" fill="#363636" font-size="13" font-family="NotoSansJP-Bold, Noto Sans JP" font-weight="700"><tspan x="-6.5" y="0">約</tspan></text>
    </g>
    <g id="Group_186" data-name="Group 186" transform="translate(6324 -1667)">
      <text id="_100" data-name="100" transform="translate(673 1975)" fill="#363636" font-size="18" font-family="NotoSansJP-Bold, Noto Sans JP" font-weight="700"><tspan x="-15.903" y="0">100</tspan></text>
      <text id="万円_" data-name="万円〜" transform="translate(711 1974)" fill="#363636" font-size="13" font-family="NotoSansJP-Bold, Noto Sans JP" font-weight="700"><tspan x="-19.5" y="0">万円〜</tspan></text>
    </g>
    <g id="Group_187" data-name="Group 187" transform="translate(6474 -1667)">
      <text id="_20" data-name="20" transform="translate(673 1975)" fill="#275695" font-size="22" font-family="NotoSansJP-Bold, Noto Sans JP" font-weight="700"><tspan x="-12.958" y="0">20</tspan></text>
      <text id="万円_2" data-name="万円〜" transform="translate(708 1974)" fill="#363636" font-size="13" font-family="NotoSansJP-Bold, Noto Sans JP" font-weight="700"><tspan x="-19.5" y="0">万円〜</tspan></text>
    </g>
    <g id="Group_188" data-name="Group 188" transform="translate(6323 -1691)">
      <text id="_350" data-name="350" transform="translate(678 2054)" fill="#363636" font-size="18" font-family="NotoSansJP-Bold, Noto Sans JP" font-weight="700"><tspan x="-15.903" y="0">350</tspan></text>
      <text id="円_ID" data-name="円/ID" transform="translate(713 2053)" fill="#363636" font-size="13" font-family="NotoSansJP-Bold, Noto Sans JP" font-weight="700"><tspan x="-15.808" y="0">円/ID</tspan></text>
    </g>
    <g id="Group_189" data-name="Group 189" transform="translate(6473 -1691)">
      <text id="_350-2" data-name="350" transform="translate(678 2054)" fill="#363636" font-size="18" font-family="NotoSansJP-Bold, Noto Sans JP" font-weight="700"><tspan x="-15.903" y="0">350</tspan></text>
      <text id="円_ID-2" data-name="円/ID" transform="translate(713 2053)" fill="#363636" font-size="13" font-family="NotoSansJP-Bold, Noto Sans JP" font-weight="700"><tspan x="-15.808" y="0">円/ID</tspan></text>
    </g>
    <g id="Group_190" data-name="Group 190" transform="translate(6331 -1718)">
      <text id="_8" data-name="◎" transform="translate(687 2145)" fill="#363636" font-size="26" font-family="NotoSansJP-Bold, Noto Sans JP" font-weight="700"><tspan x="-13" y="0">◎</tspan></text>
      <text id="お客様独自の_計算方法や_運用相談などを_丁寧にコンサル実施" data-name="お客様独自の
計算方法や
運用相談などを
丁寧にコンサル実施" transform="translate(687 2172)" fill="#363636" font-size="13" font-family="NotoSansJP-Bold, Noto Sans JP" font-weight="700"><tspan x="-39" y="0">お客様独自の</tspan><tspan x="-32.5" y="23.6">計算方法や</tspan><tspan x="-45.5" y="47.2">運用相談などを</tspan><tspan x="-58.5" y="70.8">丁寧にコンサル実施</tspan></text>
    </g>
    <g id="Group_224" data-name="Group 224">
      <circle id="Ellipse_30" data-name="Ellipse 30" cx="28" cy="28" r="28" transform="translate(7210 -31)" fill="#ed3833"/>
      <text id="New" transform="translate(7237 2)" fill="#fff" font-size="15" font-family="NotoSansJP-Bold, Noto Sans JP" font-weight="700"><tspan x="-16.417" y="0">New</tspan></text>
    </g>
  </g>
</svg>
