<svg xmlns="http://www.w3.org/2000/svg" xmlns:xlink="http://www.w3.org/1999/xlink" width="550" height="305" viewBox="0 0 550 305">
  <defs>
    <clipPath id="clip-path">
      <rect id="Rectangle_404" data-name="Rectangle 404" width="550" height="305" transform="translate(206 3761)" fill="#fff" stroke="#707070" stroke-width="1"/>
    </clipPath>
    <clipPath id="clip-path-2">
      <rect id="Rectangle_100" data-name="Rectangle 100" width="460.689" height="344.323" transform="translate(0 0)" fill="none"/>
    </clipPath>
  </defs>
  <g id="Mask_Group_13" data-name="Mask Group 13" transform="translate(-206 -3761)" clip-path="url(#clip-path)">
    <g id="Group_136" data-name="Group 136" transform="translate(12.288 3740.846)">
      <g id="Group_37" data-name="Group 37" transform="translate(249.712 -0.005)" clip-path="url(#clip-path-2)">
        <path id="Path_166" data-name="Path 166" d="M446.382,724.235c1.4,13.888,13.965,25.252,27.923,25.252h57.27a22.542,22.542,0,0,0,22.835-25.252l-7.933-78.745c-1.4-13.888-13.965-25.252-27.924-25.252h-57.27a22.542,22.542,0,0,0-22.835,25.252Z" transform="translate(-381.911 -434.733)" fill="#fff"/>
        <path id="Path_167" data-name="Path 167" d="M527.017,746.874h-57.27c-14.963,0-28.357-12.114-29.858-27l-7.934-78.745a24.485,24.485,0,0,1,24.77-27.391h57.269c14.964,0,28.358,12.113,29.858,27l7.933,78.745a24.485,24.485,0,0,1-24.77,27.39M456.726,617.626a20.6,20.6,0,0,0-20.9,23.113l7.933,78.745a26.8,26.8,0,0,0,25.989,23.5h57.27a20.6,20.6,0,0,0,20.9-23.113l-7.933-78.745a26.8,26.8,0,0,0-25.989-23.5Z" transform="translate(-377.352 -430.177)" fill="#1a1311"/>
        <path id="Path_168" data-name="Path 168" d="M659.42,616.336c.868,1.737-28.613,6.021-46.428,5.513-33.5-.954-61.583-4.726-61.583-4.726s-3.618-36.813-3.282-38.113c-11.793-3.858-21.219-13.3-21.754-14.154-10.073-16.037,5.986-80.939,6.835-89.735.755-7.819,7.332-27.58,18.2-35.506,7.216-5.262,27.467-11.219,27.339-11.313-1.9-1.39,31.121-4.409,54.5-1.929,11.62,1.233,29.7,16.121,33.437,26.57s15.353,72.414,15.714,73.5,24.168,41.175,24.168,41.175l-6.863,9.448s-41.149,37.534-40.28,39.27" transform="translate(-441.309 -298.186)" fill="#275695"/>
        <path id="Path_169" data-name="Path 169" d="M611.418,619.285c-1.055,0-2.064-.013-3.021-.041-33.218-.947-61.5-4.7-61.787-4.742a1.944,1.944,0,0,1-1.676-1.737c-.009-.092-.915-9.316-1.768-18.581-1.05-11.4-1.417-16.2-1.512-18.335-11.4-4.173-20.652-13.21-21.467-14.508-8.426-13.414-.015-56.491,4.5-79.633,1.05-5.375,1.879-9.621,2.043-11.322.858-8.9,7.938-28.83,18.99-36.891,5.543-4.042,17.612-8.226,26.208-11.022l.805-.263c.716-.771,2.328-1.216,6.754-1.766,3.616-.449,8.443-.845,13.59-1.113a241.781,241.781,0,0,1,35.828.56c5.823.618,13.363,4.353,20.688,10.248,7.1,5.716,12.476,12.3,14.374,17.6,2.931,8.193,10.408,46.425,14,64.8.859,4.393,1.549,7.92,1.724,8.7,1.164,2.268,14.888,25.493,24,40.834a1.944,1.944,0,0,1-.1,2.135l-6.862,9.448a1.954,1.954,0,0,1-.263.294c-14.249,13-37.191,34.462-39.639,38.133a2.177,2.177,0,0,1-.332.939c-.472.739-1.453,2.278-18.6,4.417a226.487,226.487,0,0,1-26.485,1.842m-62.766-8.442c6.291.783,31.226,3.7,59.855,4.514,16.29.46,40.446-3.023,44.626-4.6a10.191,10.191,0,0,1,1.765-2.434c1.015-1.161,2.539-2.767,4.53-4.773,3.32-3.344,8.008-7.874,13.933-13.462,9.419-8.884,19.047-17.688,20.343-18.872l5.995-8.254c-10.771-18.142-23.341-39.414-23.688-40.454-.109-.326-.317-1.36-1.855-9.224-3.3-16.852-11.014-56.318-13.845-64.235-1.641-4.589-6.68-10.675-13.151-15.881-6.659-5.359-13.635-8.877-18.66-9.41-20.064-2.129-47.992-.07-52.781,1.229a2.845,2.845,0,0,1-1.335.775c-.29.1-.714.235-1.248.409-4.807,1.564-19.436,6.322-25.12,10.467-9.971,7.272-16.635,26.08-17.411,34.123-.182,1.889-.985,6-2.1,11.694-2.112,10.816-5.3,27.161-6.957,42.322-1.932,17.715-1.293,29.306,1.9,34.453.91,1.149,9.758,9.793,20.74,13.386a1.944,1.944,0,0,1,1.318,2.141c-.082,2.049,1.819,22.533,3.143,36.088m104.489,1.813h0Zm3.478-1.738h0ZM545.47,574.944v0m.041-.232h0Z" transform="translate(-436.769 -293.637)" fill="#1a1311"/>
        <path id="Path_170" data-name="Path 170" d="M742.031,333.615s1.509,21.246-4.135,29.93-5.156,8.5-5.156,8.5,23.492,29.05,35.024,27.5c15.052-2.026,17.367-26.051,17.367-26.051s-6.7,1.181-12.776-10.542-1.772-27.37-1.772-27.37" transform="translate(-588.266 -233.834)" fill="#fff"/>
        <path id="Path_171" data-name="Path 171" d="M762.262,397c-5.381,0-12.681-4.522-22.255-13.774a180.609,180.609,0,0,1-13.271-14.411c-.032-.035-.063-.071-.093-.108-.887-1.113-.253-2.214.482-3.489.848-1.472,2.386-3.923,4.571-7.284,2.121-3.264,3.46-9.233,3.872-17.261a105.846,105.846,0,0,0-.047-11.471,1.944,1.944,0,0,1,3.879-.275c.063.894,1.487,22-4.445,31.127-2.7,4.153-3.933,6.183-4.5,7.163,1.823,2.179,6.644,7.8,12.274,13.239,12.123,11.71,17.861,12.928,20.2,12.614,10.99-1.479,14.5-16.8,15.414-22.334-2.922-.583-7.869-2.91-12.29-11.437-6.356-12.258-2.1-28.112-1.921-28.781a1.944,1.944,0,1,1,3.749,1.032c-.04.148-4.023,15.07,1.624,25.96,2.783,5.368,5.606,7.672,7.483,8.659a6.134,6.134,0,0,0,3.249.859,1.864,1.864,0,0,1,1.648.453,1.929,1.929,0,0,1,.6,1.653c-.1,1.044-2.652,25.584-19.043,27.791a8.92,8.92,0,0,1-1.192.078" transform="translate(-583.697 -229.279)" fill="#1a1311"/>
        <path id="Path_172" data-name="Path 172" d="M775.728,452.312s-57.818,5.282-56.082,4.7,43.129,81.409,43.129,81.409,22.121-41.067,19.394-51.306-8.322-30.827-6.441-34.807" transform="translate(-579.069 -317.031)" fill="#fff"/>
        <path id="Path_173" data-name="Path 173" d="M813.632,465.915l-20.413.215,7.715,11.9,9.736.462Z" transform="translate(-630.665 -326.566)" fill="#1a1311"/>
        <path id="Path_174" data-name="Path 174" d="M820.775,506.876s9.067,27.042,12.189,42.27l-11.542,25.178-13.787-21.056s3.335-39.169,3.4-46.854Z" transform="translate(-640.769 -354.953)" fill="#1a1311"/>
        <path id="Path_175" data-name="Path 175" d="M682.407,439.193c-.1-.605,2.068-19.585,2.068-19.585l16.471-7.686s7.474,27.868,11.793,37.636c5.211,11.787,19.979,61.669,19.979,61.669s-12.529-16.894-21.37-26.006-22.895-32.99-22.895-32.99l8.519-7.747c-9.012-3.423-14.566-5.289-14.566-5.289" transform="translate(-552.992 -288.721)" fill="#275695"/>
        <path id="Path_176" data-name="Path 176" d="M728.186,508.614a1.942,1.942,0,0,1-1.562-.786c-.125-.168-12.555-16.9-21.2-25.811-8.9-9.174-22.6-32.374-23.175-33.357a1.944,1.944,0,0,1,.367-2.424l6.169-5.61c-7.125-2.663-11.478-4.129-11.527-4.146a1.945,1.945,0,0,1-1.3-1.514c-.06-.35-.15-.879,2.053-20.135a1.945,1.945,0,0,1,1.11-1.541L695.59,405.6a1.944,1.944,0,0,1,2.7,1.258c.075.277,7.485,27.835,11.694,37.353,5.2,11.766,19.461,59.861,20.065,61.9a1.944,1.944,0,0,1-1.863,2.5M686.4,448.042c3.1,5.161,14.425,23.66,21.806,31.268,4.833,4.982,10.675,12.154,15.057,17.74-4.606-15.212-13.18-42.983-16.84-51.262s-9.406-28.822-11.286-35.683l-13.392,6.249c-.654,5.742-1.543,13.761-1.837,16.929,2.21.767,6.884,2.421,13.216,4.826a1.944,1.944,0,0,1,.618,3.256Zm-6.591-13.474h0Z" transform="translate(-548.458 -284.165)" fill="#1a1311"/>
        <path id="Path_177" data-name="Path 177" d="M861.16,445.74c-1.9-12.258-5.495-29.633-5.495-29.633l15.754,6.531,10.936,21.386-11.838,4.367s10.4,5.132,10.379,5.617c-.041.867-2.736,17.982-7.567,28.185s-22.7,31.966-22.7,31.966,13.473-49.421,10.526-68.42" transform="translate(-670.907 -291.654)" fill="#275695"/>
        <path id="Path_178" data-name="Path 178" d="M846.077,511.548a1.944,1.944,0,0,1-1.875-2.456c.134-.49,13.33-49.238,10.481-67.611-1.871-12.068-5.442-29.364-5.478-29.537a1.944,1.944,0,0,1,2.648-2.19l15.754,6.531a1.943,1.943,0,0,1,.986.911l10.936,21.386a1.944,1.944,0,0,1-1.058,2.709l-7.637,2.817c.4.2.81.415,1.218.626,1.529.791,2.751,1.445,3.632,1.943,1.545.873,2.662,1.5,2.6,2.866-.043.914-2.737,18.334-7.751,28.925-4.877,10.3-22.215,31.471-22.95,32.368a1.944,1.944,0,0,1-1.5.711m7.664-96.8c1.155,5.762,3.417,17.322,4.784,26.139,2.238,14.433-4.559,45.173-8.3,60.386,5.62-7.212,13.82-18.187,16.792-24.465,4.05-8.554,6.626-22.508,7.243-26.466-1.671-.977-5.677-3.044-9.158-4.761a1.944,1.944,0,0,1,.188-3.567l9.782-3.609-9.613-18.8Z" transform="translate(-666.351 -287.098)" fill="#1a1311"/>
        <path id="Path_179" data-name="Path 179" d="M851.217,410.9l-8.609-5.533s-.344,11.417-8.851,18.308l15.574,14.537s4.614-16.241,1.886-27.311" transform="translate(-659.078 -284.126)" fill="#fff"/>
        <path id="Path_180" data-name="Path 180" d="M844.775,435.6a1.942,1.942,0,0,1-1.326-.523l-15.574-14.537a1.944,1.944,0,0,1,.1-2.932c7.725-6.257,8.129-16.75,8.132-16.855a1.944,1.944,0,0,1,2.995-1.577l8.608,5.533a1.945,1.945,0,0,1,.837,1.17c2.819,11.439-1.709,27.624-1.9,28.308a1.944,1.944,0,0,1-1.87,1.413m-12.693-16.451,11.595,10.823c1.109-4.987,2.852-14.9,1.266-22.42l-5.33-3.426a28.134,28.134,0,0,1-7.531,15.023" transform="translate(-654.522 -279.57)" fill="#1a1311"/>
        <path id="Path_181" data-name="Path 181" d="M758.468,412.629l-16.354,14.4c-.309.11-6.286-8.7-9.341-15.03-3.176-6.583-6.609-14.183-6.423-14.2l8.076-8.192s9.878,9.93,13.841,13.666,10.2,9.354,10.2,9.354" transform="translate(-583.789 -273.081)" fill="#fff"/>
        <path id="Path_182" data-name="Path 182" d="M737.491,424.439c-1.081,0-1.807-1.014-2.688-2.242-.711-.992-1.611-2.33-2.536-3.769a105.014,105.014,0,0,1-5.816-10.137c-1.472-3.051-3.136-6.608-4.451-9.514-.627-1.384-1.144-2.557-1.5-3.389-.637-1.5-.928-2.189-.427-3.087a1.943,1.943,0,0,1,.355-.459l8.04-8.155a1.944,1.944,0,0,1,1.38-.579h0a1.945,1.945,0,0,1,1.378.573c.1.1,9.9,9.951,13.8,13.623s10.107,9.268,10.169,9.324a1.944,1.944,0,0,1-.016,2.9l-16.354,14.4a1.947,1.947,0,0,1-.634.373,2.09,2.09,0,0,1-.7.131m-13.466-30.7c.919,2.176,3.356,7.533,5.929,12.866a109.619,109.619,0,0,0,7.827,13.076l13.2-11.623c-2.129-1.929-5.916-5.375-8.615-7.921-3.091-2.915-9.631-9.445-12.5-12.32Z" transform="translate(-579.22 -268.525)" fill="#1a1311"/>
        <path id="Path_183" data-name="Path 183" d="M823.792,789.208a4.359,4.359,0,1,0,4.359-4.359,4.359,4.359,0,0,0-4.359,4.359" transform="translate(-652.094 -550.111)" fill="#fff"/>
        <path id="Path_184" data-name="Path 184" d="M823.6,790.955a6.3,6.3,0,1,1,6.3-6.3,6.31,6.31,0,0,1-6.3,6.3m0-8.718a2.415,2.415,0,1,0,2.415,2.415,2.418,2.418,0,0,0-2.415-2.415" transform="translate(-647.538 -545.555)" fill="#1a1311"/>
        <line id="Line_21" data-name="Line 21" y1="48.834" x2="2.884" transform="translate(213.437 198.219)" fill="#ffaf00"/>
        <path id="Path_185" data-name="Path 185" d="M958.791,708.972c-.039,0-.077,0-.116,0a1.944,1.944,0,0,1-1.826-2.055l2.884-48.834a1.944,1.944,0,1,1,3.881.229l-2.884,48.834a1.944,1.944,0,0,1-1.939,1.83" transform="translate(-745.353 -459.974)" fill="#1a1311"/>
        <rect id="Rectangle_98" data-name="Rectangle 98" width="623.575" height="192.835" transform="translate(-72.741 271.283)" fill="#fff"/>
        <path id="Path_186" data-name="Path 186" d="M625.519,1097.263H1.944A1.944,1.944,0,0,1,0,1095.319V902.484a1.944,1.944,0,0,1,1.944-1.944H625.519a1.944,1.944,0,0,1,1.944,1.944v192.835a1.944,1.944,0,0,1-1.944,1.944M3.888,1093.375H623.575V904.428H3.888Z" transform="translate(-74.685 -631.201)" fill="#1a1311"/>
        <path id="Path_187" data-name="Path 187" d="M810.4,172.808c.148,8.653-5.422,23.754-8.3,35.425-7.905,32.008-28.384,32.77-36.152,31.411a41.518,41.518,0,0,1-33.9-37.657c-.8-10.172-.829-27.175,4.71-37.642s31.252-24.649,48.506-16.877,24.871,9.706,25.139,25.34" transform="translate(-587.517 -101.795)" fill="#fff"/>
        <path id="Path_188" data-name="Path 188" d="M765.876,237.427a27.9,27.9,0,0,1-4.76-.395,43.441,43.441,0,0,1-35.485-39.4c-.6-7.692-1.334-26.861,4.927-38.692,5.877-11.107,32.606-26.014,51-17.732,1.46.657,2.85,1.273,4.172,1.858,14.538,6.435,21.834,9.666,22.1,25.2.107,6.3-2.6,15.616-5.228,24.625-1.163,4-2.262,7.769-3.133,11.295-3.548,14.364-9.955,24.265-19.045,29.429a29.369,29.369,0,0,1-14.546,3.81m3.579-94.787a43,43,0,0,0-16.594,3.695c-8.666,3.626-16.262,9.415-18.9,14.4-5.789,10.94-5.07,29.234-4.492,36.591a39.6,39.6,0,0,0,32.313,35.913,25.592,25.592,0,0,0,16.742-2.971c8.135-4.622,13.926-13.708,17.21-27.006.89-3.6,2.051-7.591,3.174-11.447,2.543-8.734,5.172-17.764,5.075-23.484-.224-13.079-5.558-15.44-19.81-21.75q-2-.882-4.2-1.868a25.521,25.521,0,0,0-10.519-2.076" transform="translate(-583.02 -97.289)" fill="#1a1311"/>
        <path id="Path_189" data-name="Path 189" d="M826.855,399.083s3.292,3.636,9.929,4.587c6.411.919,8.561-.461,8.561-.461" transform="translate(-654.24 -279.722)" fill="#fff"/>
        <path id="Path_190" data-name="Path 190" d="M836.369,401.433a30.412,30.412,0,0,1-4.308-.335c-7.233-1.036-10.915-5.023-11.068-5.193a1.9,1.9,0,0,1,2.81-2.559,15.71,15.71,0,0,0,8.8,3.989c5.375.77,7.316-.211,7.335-.221a.555.555,0,0,0-.07.042l2.053,3.2c-.345.221-1.916,1.078-5.549,1.078" transform="translate(-649.786 -275.269)" fill="#1a1311"/>
        <path id="Path_191" data-name="Path 191" d="M902.029,342.884l5.519-1.51a118.89,118.89,0,0,1-.839-12.385" transform="translate(-706.931 -230.592)" fill="#fff"/>
        <path id="Path_192" data-name="Path 192" d="M897.573,340.332a1.9,1.9,0,0,1-.5-3.734l3.954-1.082a102.085,102.085,0,0,1-.672-11.034,1.9,1.9,0,1,1,3.8.107,117.746,117.746,0,0,0,.827,12.111,1.9,1.9,0,0,1-1.386,2.055l-5.519,1.51a1.9,1.9,0,0,1-.5.068" transform="translate(-702.476 -226.139)" fill="#1a1311"/>
        <path id="Path_193" data-name="Path 193" d="M837.128,294.9a2.692,2.692,0,0,0,1.2,3.723,2.959,2.959,0,0,0,3.9-1.147,2.692,2.692,0,0,0-1.2-3.723,2.96,2.96,0,0,0-3.9,1.147" transform="translate(-661.205 -205.672)" fill="#1a1311"/>
        <path id="Path_194" data-name="Path 194" d="M934.512,308.83a2.692,2.692,0,0,0,1.2,3.722,2.959,2.959,0,0,0,3.9-1.147,2.692,2.692,0,0,0-1.2-3.722,2.96,2.96,0,0,0-3.9,1.147" transform="translate(-729.464 -215.434)" fill="#1a1311"/>
        <path id="Path_195" data-name="Path 195" d="M790.3,133.617c.87,8.509-2.316,19.328-2.316,19.328s7.171-13.71,10.609-21.631,2.341-20.4-6.828-27.843c-5.035-4.087-19.041-14.179-25.374-16.6-10.295-3.928-22.513-3.336-31.113.647-9.616,4.453-10.13,12.416-10.13,12.416s-3.254-1.175-10.437,2.778c-12.881,7.09-8.746,37.295-4.7,46.9,0,0,1-15.085,6.73-9.38,3.7,3.678,6.524,11.663,5.945,10.877,0,0,4.438-14.87,9.613-19.946,8.758-8.589,11.466-17.576,11.881-24.746,0,0,17.553,11.432,28.316,22.123,0,0-.221-9.344-2.14-13.188,0,0,8.715,7.051,13.113,15.631l-2.271-14.541s8.539,11.713,9.1,17.173" transform="translate(-569.544 -59.026)" fill="#1a1311"/>
        <path id="Path_196" data-name="Path 196" d="M783.827,150.566a1.777,1.777,0,0,1-1.7-2.277c.031-.1,3.076-10.594,2.253-18.647-.232-2.274-2.213-6.1-4.319-9.582l1.015,6.5a1.776,1.776,0,0,1-3.335,1.084,47.835,47.835,0,0,0-8.271-10.986,67.866,67.866,0,0,1,.654,7.691,1.776,1.776,0,0,1-3.027,1.3c-8.146-8.092-20.41-16.731-25.589-20.256-1.181,8.467-5.247,16.154-12.113,22.887-4.307,4.224-8.239,16.258-9.017,18.737a1.425,1.425,0,0,1-.077.525,1.8,1.8,0,0,1-3.193.469,1.775,1.775,0,0,1-.344-1.132c-.511-1.585-2.787-6.916-5.423-9.539-.716-.712-1.109-.783-1.153-.769-1.029.388-2.269,4.766-2.553,9.008a1.776,1.776,0,0,1-3.408.572c-2.112-5.007-4.213-15.235-4.141-25.094.063-8.591,1.781-19.737,9.616-24.049,4.686-2.579,7.935-3.142,9.847-3.155.742-2.887,3.144-8.535,10.83-12.095,9.415-4.361,22.169-4.634,32.492-.695,6.721,2.565,21.223,13.111,25.86,16.875,9.765,7.926,11.068,21.336,7.338,29.929-3.424,7.888-10.592,21.609-10.664,21.746a1.776,1.776,0,0,1-1.574.953M710.2,133.014a5.21,5.21,0,0,1,3.643,1.807,26.7,26.7,0,0,1,4.58,6.88c1.794-4.957,4.926-12.469,8.483-15.959,7.025-6.889,10.844-14.823,11.352-23.581A1.776,1.776,0,0,1,741,100.777c.652.425,14.649,9.576,25.288,19.218-.28-2.9-.794-6.248-1.67-8a1.776,1.776,0,0,1,2.705-2.174,64.622,64.622,0,0,1,8.977,9.192l-1.007-6.448a1.776,1.776,0,0,1,3.189-1.32c.9,1.239,8.839,12.268,9.429,18.039a40.185,40.185,0,0,1-.051,7.651c1.793-3.624,3.648-7.486,4.948-10.481,3.21-7.395,2.087-18.935-6.318-25.757-5.38-4.367-19.041-14.084-24.888-16.314-9.473-3.615-21.144-3.379-29.734.6-8.464,3.92-9.083,10.646-9.105,10.93a1.768,1.768,0,0,1-.8,1.416,1.666,1.666,0,0,1-1.542.141c-.318-.07-3.177-.558-9.007,2.651-6.661,3.666-7.732,14.708-7.777,20.964a77.644,77.644,0,0,0,1.8,16.826c.726-2.141,1.826-4.031,3.493-4.66a3.585,3.585,0,0,1,1.269-.233" transform="translate(-565.382 -54.871)" fill="#1a1311"/>
        <path id="Path_197" data-name="Path 197" d="M710.211,287.047c-6.677.228-13.561-7.406-12.651-16,.57-5.382,8.924-9.157,13.206-4.484a27.916,27.916,0,0,1,3.87,5.486" transform="translate(-563.559 -185.354)" fill="#fff"/>
        <path id="Path_198" data-name="Path 198" d="M705.41,284.452a13.537,13.537,0,0,1-9.7-4.635,17.177,17.177,0,0,1-4.578-13.5c.361-3.409,3.149-6.538,6.939-7.785a8.876,8.876,0,0,1,9.6,2.2,29.4,29.4,0,0,1,4.2,5.98,1.924,1.924,0,1,1-3.494,1.61,26.167,26.167,0,0,0-3.542-4.991,5.2,5.2,0,0,0-5.559-1.149c-2.34.771-4.115,2.636-4.316,4.536a13.513,13.513,0,0,0,3.567,10.469,9.6,9.6,0,0,0,7.1,3.405,1.924,1.924,0,1,1,.131,3.845q-.178.006-.356.006" transform="translate(-559.049 -180.831)" fill="#1a1311"/>
        <path id="Path_199" data-name="Path 199" d="M727.584,296.514c1.275.757,2.839,1.783,3.005,3.978" transform="translate(-584.66 -207.83)" fill="#fff"/>
        <path id="Path_200" data-name="Path 200" d="M726.133,297.938a1.9,1.9,0,0,1-1.893-1.756c-.085-1.115-.738-1.69-2.08-2.487a1.9,1.9,0,0,1,1.94-3.268,6.914,6.914,0,0,1,3.93,5.468,1.9,1.9,0,0,1-1.751,2.039c-.049,0-.1.005-.146.005" transform="translate(-580.206 -203.376)" fill="#1a1311"/>
        <path id="Path_201" data-name="Path 201" d="M742.355,181.582a1.776,1.776,0,0,1-1.02-3.231c4.663-3.262,9.94-11.485,10.457-16.3a1.776,1.776,0,0,1,3.531.379c-.625,5.817-6.434,14.966-11.953,18.826a1.765,1.765,0,0,1-1.016.321" transform="translate(-593.767 -112.474)" fill="#5f5e5e"/>
        <path id="Path_202" data-name="Path 202" d="M912.685,130.559a1.773,1.773,0,0,1-1.438-.732c-1.574-2.166-11.147-9.7-14.64-12.018a1.776,1.776,0,0,1,1.964-2.959c2.977,1.977,13.4,9.931,15.549,12.888a1.776,1.776,0,0,1-1.435,2.82" transform="translate(-702.574 -80.292)" fill="#5f5e5e"/>
        <path id="Path_203" data-name="Path 203" d="M876.774,141.413a1.775,1.775,0,0,1-1.51-.837c-2.041-3.279-8.026-9.177-10.853-10.7a1.776,1.776,0,0,1,1.681-3.128c3.4,1.828,9.78,8.081,12.188,11.947a1.776,1.776,0,0,1-1.506,2.714" transform="translate(-679.909 -88.692)" fill="#5f5e5e"/>
        <path id="Path_204" data-name="Path 204" d="M1215.638,151.5A62.271,62.271,0,0,0,1166.366,251.9l-12.552,26.4a2.209,2.209,0,0,0,3,2.918l27.139-13.785A62.3,62.3,0,1,0,1215.638,151.5" transform="translate(-883.074 -106.19)" fill="#fff"/>
        <path id="Path_205" data-name="Path 205" d="M1215.638,151.5A62.271,62.271,0,0,0,1166.366,251.9l-12.552,26.4a2.209,2.209,0,0,0,3,2.918l27.139-13.785A62.3,62.3,0,1,0,1215.638,151.5Z" transform="translate(-883.074 -106.19)" fill="none" stroke="#1a1311" stroke-linecap="round" stroke-linejoin="round" stroke-width="5"/>
        <rect id="Rectangle_99" data-name="Rectangle 99" width="57.159" height="57.159" transform="translate(305.588 79.575)" fill="#fff"/>
        <path id="Path_206" data-name="Path 206" d="M1324.058,320.6H1266.9a1.944,1.944,0,0,1-1.944-1.944V261.5a1.944,1.944,0,0,1,1.944-1.944h57.159A1.944,1.944,0,0,1,1326,261.5v57.158a1.944,1.944,0,0,1-1.944,1.944m-55.215-3.888h53.271V263.444h-53.271Z" transform="translate(-961.312 -181.925)" fill="#1a1311"/>
        <path id="Path_207" data-name="Path 207" d="M1243.771,301.535l20.433,32.853h10.818l43.269-38.863-47.677,29.247-14.423-25.641Z" transform="translate(-946.463 -207.137)" fill="#275695"/>
        <path id="Path_208" data-name="Path 208" d="M872.018,960.577,754.437,939.7l75.986-25.859,108.033,11.73Z" transform="translate(-603.482 -640.521)" fill="#fff"/>
        <path id="Path_209" data-name="Path 209" d="M867.462,957.965a1.914,1.914,0,0,1-.34-.03l-117.581-20.88a1.944,1.944,0,0,1-.286-3.755l75.986-25.859a1.932,1.932,0,0,1,.836-.092l108.033,11.73a1.944,1.944,0,0,1,.7,3.653L868.368,957.74a1.943,1.943,0,0,1-.906.224m-109.8-23.418L867.145,953.99l60.22-31.732-101.28-11Z" transform="translate(-598.926 -635.965)" fill="#1a1311"/>
        <path id="Path_210" data-name="Path 210" d="M991.851,858.721c-3.254.728-3.473,2.782-6.366,4.177-5.173,2.5-13.466,4.267-11.935,6.564,2.387,3.581,8.653,1.492,8.653,1.492s-9.846,8.951-7.161,11.935,13.526-4.973,13.526-4.973-5.229,8.336-2.287,10.045c4.277,2.487,10.443-5.47,10.443-5.47s-4.494,6.424-.9,7.99c4.343,1.89,10.535-5.57,10.535-5.57s-4.365,4.461-.191,5.835c5.337,1.757,19.814-11.46,18.2-16.609-1.52-4.848-17.405-18.8-32.523-15.416" transform="translate(-756.932 -601.523)" fill="#fff"/>
        <path id="Path_211" data-name="Path 211" d="M1002.155,888.019a5.487,5.487,0,0,1-1.726-.261,4.828,4.828,0,0,1-2.62-1.842c-2.38,1.574-5.254,2.662-7.91,1.506a4.284,4.284,0,0,1-2.508-2.829q-.047-.17-.082-.342c-2.231,1.289-4.793,1.929-7.182.539A3.873,3.873,0,0,1,978.3,882.3a7.832,7.832,0,0,1,.232-3.79c-2.07,1.092-7.463,3.79-10.168.786-2.917-3.241,1.163-8.251,2.5-9.9q.352-.431.71-.847a6.944,6.944,0,0,1-4.9-2.929,3.074,3.074,0,0,1-.4-2.7c.725-2.23,3.792-3.364,8.036-4.933,1.789-.661,3.639-1.345,5.155-2.076a7.759,7.759,0,0,0,2.149-1.625,9.014,9.014,0,0,1,4.684-2.715c7.022-1.57,15.173.164,22.954,4.883,5.97,3.622,11.06,8.667,12.1,12,.539,1.72.1,3.822-1.3,6.248a28.928,28.928,0,0,1-4.7,5.851c-3.708,3.655-9.1,7.471-13.211,7.472m-.681-4.494a1.992,1.992,0,0,0,.307.126c1.312.429,5.821-1.522,10.549-6.183,3.822-3.768,5.191-6.838,4.912-7.726-.458-1.461-3.926-5.774-10.22-9.592-3.95-2.4-11.77-6.149-19.767-4.36a4.8,4.8,0,0,0-2.621,1.6,11.863,11.863,0,0,1-3.277,2.411c-1.7.822-3.651,1.541-5.535,2.238a49.958,49.958,0,0,0-4.688,1.906c1.652.823,4.5.187,5.318-.087a2.162,2.162,0,0,1,2.138,3.651c-3.548,3.23-6.755,7.359-6.917,8.846.612.045,2.346-.274,5.677-2.124a52.176,52.176,0,0,0,4.871-3.1,2.162,2.162,0,0,1,3.111,2.892c-1.685,2.693-3.013,6.024-2.859,7.111,1.259.495,3.307-.977,4.157-1.659a23.193,23.193,0,0,0,3.319-3.352,2.162,2.162,0,0,1,3.479,2.566c-1.3,1.87-2.108,4.14-1.877,4.731a.464.464,0,0,0,.073.037c1.7.741,5.179-1.849,7.414-4.288.313-.391.578-.674.712-.811a2.162,2.162,0,0,1,3.209,2.893c-.1.116-.293.348-.574.659a4.986,4.986,0,0,0-.912,1.615m-14.691-29.846h0Z" transform="translate(-751.864 -596.481)" fill="#1a1311"/>
        <line id="Line_22" data-name="Line 22" y1="12.233" x2="9.647" transform="translate(225.272 257.198)" fill="#fff"/>
        <path id="Path_212" data-name="Path 212" d="M997.849,869.275a2.162,2.162,0,0,1-1.7-3.5l9.647-12.233a2.162,2.162,0,0,1,3.4,2.678l-9.648,12.233a2.157,2.157,0,0,1-1.7.823" transform="translate(-772.578 -597.682)" fill="#1a1311"/>
        <line id="Line_23" data-name="Line 23" x1="7.161" y2="11.239" transform="translate(231.737 265.354)" fill="#fff"/>
        <path id="Path_213" data-name="Path 213" d="M1019.463,895.547a2.162,2.162,0,0,1-1.821-3.324l7.161-11.239a2.162,2.162,0,1,1,3.647,2.324l-7.161,11.239a2.16,2.16,0,0,1-1.826,1" transform="translate(-787.728 -616.793)" fill="#1a1311"/>
        <line id="Line_24" data-name="Line 24" y1="9.747" x2="7.161" transform="translate(239.793 271.421)" fill="#fff"/>
        <path id="Path_214" data-name="Path 214" d="M1046.4,914.341a2.162,2.162,0,0,1-1.74-3.443l7.161-9.747a2.162,2.162,0,0,1,3.484,2.561l-7.161,9.747a2.158,2.158,0,0,1-1.744.882" transform="translate(-806.608 -631.012)" fill="#1a1311"/>
        <line id="Line_25" data-name="Line 25" y1="9.747" x2="7.161" transform="translate(248.943 274.006)" fill="#fff"/>
        <path id="Path_215" data-name="Path 215" d="M1076.994,922.987a2.162,2.162,0,0,1-1.741-3.442l7.161-9.747a2.162,2.162,0,0,1,3.484,2.56l-7.161,9.747a2.159,2.159,0,0,1-1.744.882" transform="translate(-828.052 -637.072)" fill="#1a1311"/>
        <path id="Path_216" data-name="Path 216" d="M897.018,755.756a3.763,3.763,0,0,0-2.056,4.909s25.012,60.434,25.111,60.563l3.155,4.073,3.522,4.546a.9.9,0,0,0,1.6-.7l-.962-5.845-.754-4.583c.084-.441-24.712-60.906-24.712-60.906a3.763,3.763,0,0,0-4.909-2.056" transform="translate(-701.78 -529.522)" fill="#1a1311"/>
        <path id="Path_217" data-name="Path 217" d="M925.365,828.992a1.8,1.8,0,0,1-1.423-.7l-6.677-8.619c-.1-.13-.173-.223-25.231-60.769a4.66,4.66,0,1,1,8.624-3.536c.062.151,6.27,15.29,12.388,30.288,3.594,8.809,6.453,15.848,8.5,20.919,3.064,7.592,3.748,9.328,3.868,9.895l.011,0,1.716,10.429a1.8,1.8,0,0,1-1.777,2.093m-6.615-10.331,6.611,8.534-1.7-10.414c-.635-2.039-17.989-44.462-24.66-60.73a2.866,2.866,0,1,0-5.3,2.172c8.364,20.209,24.152,58.335,25.056,60.438" transform="translate(-699.681 -527.421)" fill="#1a1311"/>
        <path id="Path_218" data-name="Path 218" d="M989.762,974.1l-.493.231-3.045-3.93,2.726-1.239c.125.042.812,4.938.812,4.938" transform="translate(-765.945 -679.299)" fill="#fff"/>
        <path id="Path_219" data-name="Path 219" d="M926.642,824.637l-24.157-58.571a1.476,1.476,0,0,1,2.731-1.118l24.157,58.571Z" transform="translate(-707.173 -535.52)" fill="#bdbebf"/>
        <path id="Path_220" data-name="Path 220" d="M799.743,857.7c1.513-.158,20.152-10.4,23.289-11.908s21.047,4.44,22.264,8.674c2.035,7.083,9.02,14.389,6.706,15.877-5.243,3.372-13.268-6.6-13.268-6.6s4.1,6.044.634,7.818-12.571-3.373-11.735-2.7,5.724,5.73,2.284,8.338c-2.378,1.8-9.367-1.675-9.367-1.675s5.683,5.459.48,6.971c-4.052,1.177-14.266-3.764-14.266-3.764s-2.71,3.343-8.837,1.571-6.983-5.448-6.983-5.448" transform="translate(-629.072 -592.661)" fill="#fff"/>
        <path id="Path_221" data-name="Path 221" d="M814.657,879.815c-4.067,0-9.753-2.32-12.488-3.553-1.658,1.148-4.871,2.524-9.775,1.106-7.14-2.065-8.371-6.532-8.488-7.035l4.212-.979a.551.551,0,0,0-.015-.061c.031.1.819,2.571,5.493,3.922,4.38,1.267,6.356-.647,6.571-.874a2.059,2.059,0,0,1,2.607-.567c3.934,1.9,10.481,4.286,12.721,3.634a2.078,2.078,0,0,0,.637-.273,7.083,7.083,0,0,0-2.012-3.062,2.162,2.162,0,0,1,2.461-3.495c2.846,1.411,6.3,2.325,7.114,1.876a.678.678,0,0,0,.34-.6c.024-1.374-1.993-3.75-2.7-4.323a2.188,2.188,0,0,1,2.4-3.647c.158.068.385.17.668.3,6.6,3.006,8.524,2.707,9.047,2.44.149-.076.159-.116.181-.2.252-.977-.78-3.23-1.622-4.482a2.162,2.162,0,0,1,3.477-2.565,29.965,29.965,0,0,0,4.362,4.254c1.331,1.029,3.646,2.54,5.353,2.171a38.349,38.349,0,0,0-2.217-4.055,43.543,43.543,0,0,1-4.7-9.694c-.252-.647-2.771-2.741-8.928-5-5.194-1.907-9.4-2.566-10.363-2.3-1.044.5-3.823,1.984-7.035,3.693-13.362,7.11-15.838,8.283-16.924,8.4a2.162,2.162,0,0,1-.617-4.277c1.491-.477,10.254-5.14,15.511-7.937,3.432-1.826,6.143-3.269,7.236-3.794,3.361-1.612,13.01,1.708,17.155,3.57,7.194,3.229,7.892,5.659,8.122,6.458a39.7,39.7,0,0,0,4.259,8.677,37.5,37.5,0,0,1,2.474,4.576c1.242,3.063-.053,4.472-.935,5.04-3.42,2.2-7.313.607-10.425-1.629a4.536,4.536,0,0,1-2.392,2.951c-1.907.976-4.505.679-7.263-.165a6.134,6.134,0,0,1,.2,1.617,4.975,4.975,0,0,1-2.068,3.99c-1.5,1.139-3.738,1.1-5.885.631a4.464,4.464,0,0,1-.075,1.681c-.276,1.122-1.13,2.611-3.629,3.337a7.374,7.374,0,0,1-2.044.255m9.4-17.645s.047.041.122.109c-.039-.038-.08-.075-.122-.109m-29.477-11.635c-.034,0-.077.007-.126.017.042-.007.083-.012.126-.017" transform="translate(-624.137 -587.646)" fill="#1a1311"/>
        <path id="Path_222" data-name="Path 222" d="M914.22,878.908l8.126,4.256,2.793,3.957" transform="translate(-715.476 -616.039)" fill="#fff"/>
        <path id="Path_223" data-name="Path 223" d="M920.073,884.216a2.159,2.159,0,0,1-1.768-.915l-2.493-3.53-7.664-4.014a2.162,2.162,0,1,1,2.006-3.83l8.126,4.256a2.166,2.166,0,0,1,.763.668l2.793,3.957a2.162,2.162,0,0,1-1.764,3.409" transform="translate(-710.408 -610.971)" fill="#1a1311"/>
        <path id="Path_224" data-name="Path 224" d="M879.377,937.217l3.157,2.559" transform="translate(-691.054 -656.908)" fill="#fff"/>
        <path id="Path_225" data-name="Path 225" d="M876.105,936.389l-3.157-2.559a2.162,2.162,0,1,1,2.722-3.359l3.157,2.56Z" transform="translate(-685.987 -651.841)" fill="#1a1311"/>
        <path id="Path_226" data-name="Path 226" d="M897.222,913.056c.836.677,4.9,3.122,4.9,3.122" transform="translate(-703.562 -639.974)" fill="#fff"/>
        <path id="Path_227" data-name="Path 227" d="M897.055,913.275a2.151,2.151,0,0,1-1.112-.31c-.7-.421-4.243-2.56-5.15-3.3a2.162,2.162,0,0,1,2.723-3.359c.449.364,2.72,1.785,4.655,2.949a2.162,2.162,0,0,1-1.116,4.016" transform="translate(-698.495 -634.908)" fill="#1a1311"/>
        <path id="Path_228" data-name="Path 228" d="M576.17,689.02l-2.492,39.363,45.356,12.233s-7.984,8.186-10.74,16.434a40.755,40.755,0,0,0-1.383,19.972s-67.74-12.414-72.785-27.408" transform="translate(-449.063 -482.943)" fill="#275695"/>
        <path id="Path_229" data-name="Path 229" d="M601.9,774.15a2.107,2.107,0,0,1-.383-.035c-.17-.031-17.237-3.179-34.7-8.127-24.369-6.906-37.364-13.677-39.727-20.7a2.137,2.137,0,0,1,4.05-1.363c1.044,3.1,7.217,9.558,36.842,17.953,12.995,3.682,25.761,6.355,31.356,7.465a43.529,43.529,0,0,1,1.919-17.978c1.931-5.779,6.175-11.41,8.862-14.6l-42.009-11.33a2.137,2.137,0,0,1-1.576-2.2l2.492-39.363a2.137,2.137,0,1,1,4.265.27l-2.382,37.62,43.67,11.778a2.137,2.137,0,0,1,.973,3.555c-.076.078-7.678,7.945-10.243,15.618a39.012,39.012,0,0,0-1.325,18.823,2.139,2.139,0,0,1-2.085,2.609" transform="translate(-444.054 -477.936)" fill="#1a1311"/>
        <path id="Path_230" data-name="Path 230" d="M721.628,942.724a2.182,2.182,0,1,0,2.555-1.731,2.182,2.182,0,0,0-2.555,1.731" transform="translate(-580.457 -659.527)" fill="#1a1311"/>
        <path id="Path_231" data-name="Path 231" d="M694,937.411a2.182,2.182,0,1,0,2.555-1.731A2.182,2.182,0,0,0,694,937.411" transform="translate(-561.091 -655.803)" fill="#1a1311"/>
        <line id="Line_26" data-name="Line 26" x1="7.852" y1="1.967" transform="translate(116.764 243.473)" fill="#ffaf00"/>
        <path id="Path_232" data-name="Path 232" d="M643.411,813.409a1.937,1.937,0,0,1-.474-.059l-7.852-1.967a1.944,1.944,0,1,1,.945-3.771l7.852,1.967a1.944,1.944,0,0,1-.471,3.83" transform="translate(-518.794 -566.024)" fill="#1a1311"/>
        <path id="Path_233" data-name="Path 233" d="M781.383,870.763c1.7-.053,7.26,1.739,7.26,1.739s-6.957,4.086-8.715,11.557.846,16.483.846,16.483l-9.246-2.45s-1.646-9.722.617-16.642c2.882-8.813,9.238-10.687,9.238-10.687" transform="translate(-615.055 -610.329)" fill="#fff"/>
        <path id="Path_234" data-name="Path 234" d="M775.7,897.637a2.162,2.162,0,0,1-.554-.072l-9.246-2.45a2.162,2.162,0,0,1-1.578-1.729c-.071-.419-1.708-10.332.694-17.675,3.2-9.78,10.378-12,10.682-12.088a2.167,2.167,0,0,1,.544-.087c1.927-.065,6.6,1.4,7.991,1.843a2.162,2.162,0,0,1,.432,3.922c-.057.034-6.189,3.745-7.706,10.188-1.61,6.84.794,15.3.818,15.387a2.162,2.162,0,0,1-2.077,2.763m-7.3-6.333,4.413,1.169c-.636-3.5-1.234-9-.062-13.976a20.681,20.681,0,0,1,6.153-10.158,18.938,18.938,0,0,0-2.252-.467c-1.152.469-5.368,2.59-7.525,9.183-1.592,4.867-1.061,11.441-.726,14.249" transform="translate(-609.984 -605.262)" fill="#1a1311"/>
        <path id="Path_235" data-name="Path 235" d="M1138.749,982.389a1.5,1.5,0,0,1-.71-2.812l31.031-16.709a1.5,1.5,0,0,1,1.418,2.633l-31.031,16.709a1.485,1.485,0,0,1-.708.179" transform="translate(-871.802 -674.762)" fill="#1a1311"/>
        <path id="Path_236" data-name="Path 236" d="M1090.863,978.4a1.5,1.5,0,0,1-.71-2.812l31.031-16.709a1.5,1.5,0,0,1,1.418,2.633l-31.031,16.709a1.483,1.483,0,0,1-.708.179" transform="translate(-838.239 -671.964)" fill="#1a1311"/>
      </g>
    </g>
  </g>
</svg>
