<svg xmlns="http://www.w3.org/2000/svg" xmlns:xlink="http://www.w3.org/1999/xlink" width="296" height="822" viewBox="0 0 296 822">
  <defs>
    <clipPath id="clip-path">
      <rect id="Rectangle_536" data-name="Rectangle 536" width="30" height="30" transform="translate(1212 6070)" fill="#275695" stroke="#707070" stroke-width="1"/>
    </clipPath>
    <clipPath id="clip-path-2">
      <rect id="Rectangle_535" data-name="Rectangle 535" width="25.184" height="30" fill="#275695"/>
    </clipPath>
    <clipPath id="clip-path-5">
      <rect id="Rectangle_566" data-name="Rectangle 566" width="30" height="30" transform="translate(1212 6070)" fill="#fff" stroke="#707070" stroke-width="1"/>
    </clipPath>
    <clipPath id="clip-path-6">
      <rect id="Rectangle_565" data-name="Rectangle 565" width="30" height="21.606" fill="#275695"/>
    </clipPath>
    <clipPath id="clip-path-8">
      <rect id="Rectangle_574" data-name="Rectangle 574" width="27.941" height="30" fill="#275695"/>
    </clipPath>
    <clipPath id="clip-path-10">
      <rect id="Rectangle_581" data-name="Rectangle 581" width="30" height="26.95" fill="#275695"/>
    </clipPath>
    <clipPath id="clip-path-12">
      <rect id="Rectangle_584" data-name="Rectangle 584" width="30" height="26.018" fill="#275695"/>
    </clipPath>
    <clipPath id="clip-path-14">
      <rect id="Rectangle_162" data-name="Rectangle 162" width="21.961" height="30" fill="#275695"/>
    </clipPath>
    <clipPath id="clip-path-16">
      <rect id="Rectangle_165" data-name="Rectangle 165" width="30" height="29.419" fill="#275695"/>
    </clipPath>
  </defs>
  <g id="Group_225" data-name="Group 225" transform="translate(-10 -209)">
    <line id="Line_31" data-name="Line 31" y2="762.5" transform="translate(101.5 249)" fill="none" stroke="#d2e4fd" stroke-width="11"/>
    <line id="Line_32" data-name="Line 32" y2="762.5" transform="translate(237.5 249)" fill="none" stroke="#d2e4fd" stroke-width="11"/>
    <g id="Rectangle_559" data-name="Rectangle 559" transform="translate(38 263)" fill="#fff" stroke="#d2e4fd" stroke-width="4">
      <rect width="126" height="94" stroke="none"/>
      <rect x="2" y="2" width="122" height="90" fill="none"/>
    </g>
    <g id="Rectangle_580" data-name="Rectangle 580" transform="translate(174 616)" fill="#fff" stroke="#d2e4fd" stroke-width="4">
      <rect width="126" height="94" stroke="none"/>
      <rect x="2" y="2" width="122" height="90" fill="none"/>
    </g>
    <g id="Rectangle_588" data-name="Rectangle 588" transform="translate(38 804)" fill="#fff" stroke="#d2e4fd" stroke-width="4">
      <rect width="126" height="94" stroke="none"/>
      <rect x="2" y="2" width="122" height="90" fill="none"/>
    </g>
    <g id="Rectangle_589" data-name="Rectangle 589" transform="translate(38 908)" fill="#fff" stroke="#d2e4fd" stroke-width="4">
      <rect width="126" height="74" stroke="none"/>
      <rect x="2" y="2" width="122" height="70" fill="none"/>
    </g>
    <g id="Rectangle_573" data-name="Rectangle 573" transform="translate(38 532)" fill="#fff" stroke="#d2e4fd" stroke-width="4">
      <rect width="262" height="74" stroke="none"/>
      <rect x="2" y="2" width="258" height="70" fill="none"/>
    </g>
    <g id="Rectangle_583" data-name="Rectangle 583" transform="translate(38 720)" fill="#fff" stroke="#d2e4fd" stroke-width="4">
      <rect width="262" height="74" stroke="none"/>
      <rect x="2" y="2" width="258" height="70" fill="none"/>
    </g>
    <rect id="Rectangle_590" data-name="Rectangle 590" width="262" height="39" transform="translate(38 992)" fill="#325690"/>
    <g id="Rectangle_560" data-name="Rectangle 560" transform="translate(174 263)" fill="#fff" stroke="#d2e4fd" stroke-width="4">
      <rect width="126" height="94" stroke="none"/>
      <rect x="2" y="2" width="122" height="90" fill="none"/>
    </g>
    <g id="Rectangle_567" data-name="Rectangle 567" transform="translate(174 367)" fill="#fff" stroke="#d2e4fd" stroke-width="4">
      <rect width="126" height="155" stroke="none"/>
      <rect x="2" y="2" width="122" height="151" fill="none"/>
    </g>
    <path id="Union_12" data-name="Union 12" d="M-6319-939h23l-11.5,8Zm23,0h-23v-66l11.5,8,11.5-8v66Z" transform="translate(6329 1724.999)" fill="#275695"/>
    <path id="Union_15" data-name="Union 15" d="M-6319-919h23l-11.5,8Zm23,0h-23v-86l11.5,8,11.5-8v86Z" transform="translate(6329 1809.001)" fill="#275695"/>
    <path id="Union_14" data-name="Union 14" d="M-6319-939h23l-11.5,8Zm23,0h-23v-66l11.5,8,11.5-8v66Z" transform="translate(6329 1913.001)" fill="#275695"/>
    <text id="_2_週_間" data-name="2
週
間" transform="translate(21 743)" fill="#fff" font-size="13" font-family="NotoSansJP-Bold, Noto Sans JP" font-weight="700" letter-spacing="0.04em"><tspan x="-3.829" y="0">2</tspan><tspan x="-6.5" y="15">週</tspan><tspan x="-6.5" y="30">間</tspan></text>
    <text id="_1_週_間" data-name="1
週
間" transform="translate(21 841.5)" fill="#fff" font-size="13" font-family="NotoSansJP-Bold, Noto Sans JP" font-weight="700" letter-spacing="0.04em"><tspan x="-3.829" y="0">1</tspan><tspan x="-6.5" y="15">週</tspan><tspan x="-6.5" y="30">間</tspan></text>
    <text id="_2_週_間-2" data-name="2
週
間" transform="translate(21 931.001)" fill="#fff" font-size="13" font-family="NotoSansJP-Bold, Noto Sans JP" font-weight="700" letter-spacing="0.04em"><tspan x="-3.829" y="0">2</tspan><tspan x="-6.5" y="15">週</tspan><tspan x="-6.5" y="30">間</tspan></text>
    <path id="Rectangle_557" data-name="Rectangle 557" d="M20,0h86a20,20,0,0,1,20,20V49a0,0,0,0,1,0,0H0a0,0,0,0,1,0,0V20A20,20,0,0,1,20,0Z" transform="translate(38 209)" fill="#d2e4fd"/>
    <path id="Rectangle_558" data-name="Rectangle 558" d="M20,0h86a20,20,0,0,1,20,20V49a0,0,0,0,1,0,0H0a0,0,0,0,1,0,0V20A20,20,0,0,1,20,0Z" transform="translate(174 209)" fill="#d2e4fd"/>
    <text id="Kinnosuke_導入テンプレート版" data-name="Kinnosuke
導入テンプレート版" transform="translate(101 229)" fill="#275695" font-size="13" font-family="NotoSansJP-Bold, Noto Sans JP" font-weight="700"><tspan x="-33.683" y="0">Kinnosuke</tspan><tspan x="-58.305" y="19.5">導入テンプレート版</tspan></text>
    <text id="お客様" transform="translate(237 239)" fill="#275695" font-size="13" font-family="NotoSansJP-Bold, Noto Sans JP" font-weight="700"><tspan x="-19.5" y="0">お客様</tspan></text>
    <text id="事前調査_シートお渡し" data-name="事前調査
シートお渡し" transform="translate(104 323)" fill="#363636" font-size="13" font-family="NotoSansJP-Bold, Noto Sans JP" font-weight="700"><tspan x="-26" y="0">事前調査</tspan><tspan x="-39" y="19.5">シートお渡し</tspan></text>
    <text id="アンケート_回答" data-name="アンケート
回答" transform="translate(237 676)" fill="#363636" font-size="13" font-family="NotoSansJP-Bold, Noto Sans JP" font-weight="700"><tspan x="-32.24" y="0">アンケート</tspan><tspan x="-13" y="19.5">回答</tspan></text>
    <text id="仕様書_作成" data-name="仕様書
作成" transform="translate(101 864)" fill="#363636" font-size="13" font-family="NotoSansJP-Bold, Noto Sans JP" font-weight="700"><tspan x="-19.5" y="0">仕様書</tspan><tspan x="-13" y="19.5">作成</tspan></text>
    <text id="納品" transform="translate(169 1017)" fill="#fff" font-size="13" font-family="NotoSansJP-Bold, Noto Sans JP" font-weight="700"><tspan x="-13" y="0">納品</tspan></text>
    <text id="設計" transform="translate(101 968)" fill="#363636" font-size="13" font-family="NotoSansJP-Bold, Noto Sans JP" font-weight="700"><tspan x="-13" y="0">設計</tspan></text>
    <text id="事前調査_シートご確認" data-name="事前調査
シートご確認" transform="translate(237 427)" fill="#363636" font-size="13" font-family="NotoSansJP-Bold, Noto Sans JP" font-weight="700"><tspan x="-26" y="0">事前調査</tspan><tspan x="-39" y="19.5">シートご確認</tspan></text>
    <text id="お問い合わせ" transform="translate(237 331)" fill="#363636" font-size="13" font-family="NotoSansJP-Bold, Noto Sans JP" font-weight="700"><tspan x="-39" y="0">お問い合わせ</tspan></text>
    <g id="Mask_Group_14" data-name="Mask Group 14" transform="translate(-1121.422 -5797)" clip-path="url(#clip-path)">
      <g id="Group_197" data-name="Group 197" transform="translate(1214.408 6070)">
        <g id="Group_196" data-name="Group 196" clip-path="url(#clip-path-2)">
          <path id="Path_2545" data-name="Path 2545" d="M17.514,14.047v-.058a.745.745,0,0,0-.743-.743H5.087a.744.744,0,0,0-.742.743v.058a.744.744,0,0,0,.742.743H16.771a.745.745,0,0,0,.743-.743" transform="translate(-0.127 -0.386)" fill="#275695"/>
          <rect id="Rectangle_533" data-name="Rectangle 533" width="13.169" height="1.544" rx="0.765" transform="translate(4.219 9.876)" fill="#275695"/>
          <rect id="Rectangle_534" data-name="Rectangle 534" width="5.444" height="1.544" rx="0.765" transform="translate(4.218 18.93)" fill="#275695"/>
          <path id="Path_2546" data-name="Path 2546" d="M11.393,17.226v-.058a.745.745,0,0,0-.743-.743H5.087a.745.745,0,0,0-.743.743v.058a.745.745,0,0,0,.743.743H10.65a.745.745,0,0,0,.743-.743" transform="translate(-0.127 -0.479)" fill="#275695"/>
          <path id="Path_2547" data-name="Path 2547" d="M1.441,26.442v-25H14.3V6.174a1.441,1.441,0,0,0,1.441,1.44h4.116v7.757a7.647,7.647,0,0,1,1.44.482V6.174a1.44,1.44,0,0,0-.365-.958L16.714.483A1.438,1.438,0,0,0,15.639,0H1.441A1.441,1.441,0,0,0,0,1.441v25a1.441,1.441,0,0,0,1.441,1.44h10.69a7.727,7.727,0,0,1-.939-1.44Zm14.3-24.885,4.116,4.617H15.742Z" transform="translate(0 0)" fill="#275695"/>
          <path id="Path_2548" data-name="Path 2548" d="M18.464,16.373a7.052,7.052,0,1,0,7.052,7.052,7.052,7.052,0,0,0-7.052-7.052m3.529,5.889-3.652,3.652a.427.427,0,0,1-.3.125.384.384,0,0,1-.083-.009.428.428,0,0,1-.494-.079l-2.34-2.341a.424.424,0,0,1,0-.6l.586-.587a.427.427,0,0,1,.6,0l1.572,1.572,2.92-2.921a.428.428,0,0,1,.6,0l.586.587a.424.424,0,0,1,0,.6" transform="translate(-0.332 -0.477)" fill="#275695"/>
        </g>
      </g>
    </g>
    <g id="Mask_Group_20" data-name="Mask Group 20" transform="translate(-990 -5693)" clip-path="url(#clip-path)">
      <g id="Group_214" data-name="Group 214" transform="translate(1214.408 6070)">
        <g id="Group_213" data-name="Group 213" clip-path="url(#clip-path-2)">
          <path id="Path_2566" data-name="Path 2566" d="M17.514,14.047v-.058a.745.745,0,0,0-.743-.743H5.087a.744.744,0,0,0-.742.743v.058a.744.744,0,0,0,.742.743H16.771a.745.745,0,0,0,.743-.743" transform="translate(-0.127 -0.386)" fill="#275695"/>
          <rect id="Rectangle_568" data-name="Rectangle 568" width="13.169" height="1.544" rx="0.765" transform="translate(4.219 9.876)" fill="#275695"/>
          <rect id="Rectangle_569" data-name="Rectangle 569" width="5.444" height="1.544" rx="0.765" transform="translate(4.218 18.93)" fill="#275695"/>
          <path id="Path_2567" data-name="Path 2567" d="M11.393,17.226v-.058a.745.745,0,0,0-.743-.743H5.087a.745.745,0,0,0-.743.743v.058a.745.745,0,0,0,.743.743H10.65a.745.745,0,0,0,.743-.743" transform="translate(-0.127 -0.479)" fill="#275695"/>
          <path id="Path_2568" data-name="Path 2568" d="M1.441,26.442v-25H14.3V6.174a1.441,1.441,0,0,0,1.441,1.44h4.116v7.757a7.647,7.647,0,0,1,1.44.482V6.174a1.44,1.44,0,0,0-.365-.958L16.714.483A1.438,1.438,0,0,0,15.639,0H1.441A1.441,1.441,0,0,0,0,1.441v25a1.441,1.441,0,0,0,1.441,1.44h10.69a7.727,7.727,0,0,1-.939-1.44Zm14.3-24.885,4.116,4.617H15.742Z" transform="translate(0 0)" fill="#275695"/>
          <path id="Path_2569" data-name="Path 2569" d="M18.464,16.373a7.052,7.052,0,1,0,7.052,7.052,7.052,7.052,0,0,0-7.052-7.052m3.529,5.889-3.652,3.652a.427.427,0,0,1-.3.125.384.384,0,0,1-.083-.009.428.428,0,0,1-.494-.079l-2.34-2.341a.424.424,0,0,1,0-.6l.586-.587a.427.427,0,0,1,.6,0l1.572,1.572,2.92-2.921a.428.428,0,0,1,.6,0l.586.587a.424.424,0,0,1,0,.6" transform="translate(-0.332 -0.477)" fill="#275695"/>
        </g>
      </g>
    </g>
    <g id="Mask_Group_19" data-name="Mask Group 19" transform="translate(-990 -5787)" clip-path="url(#clip-path-5)">
      <g id="Group_211" data-name="Group 211" transform="translate(1212 6074.197)">
        <g id="Group_210" data-name="Group 210" clip-path="url(#clip-path-6)">
          <path id="Path_2564" data-name="Path 2564" d="M15,14.627,0,3.76V18.5a2.971,2.971,0,0,0,2.963,2.963H27.036A2.972,2.972,0,0,0,30,18.5V3.773Z" transform="translate(0 0.141)" fill="#275695"/>
          <path id="Path_2565" data-name="Path 2565" d="M14.99,12.333,29.7,1.691A2.969,2.969,0,0,0,27.026,0H2.953A2.97,2.97,0,0,0,.287,1.681Z" transform="translate(0.011 0)" fill="#275695"/>
        </g>
      </g>
    </g>
    <text id="お客様自身で自社運用に仕様面の問題がないか確認" transform="translate(182 456)" fill="#363636" font-size="12" font-family="NotoSansJP-Regular, Noto Sans JP"><tspan x="0" y="14">お客様自身で自社運</tspan><tspan x="0" y="32">用に仕様面の問題が</tspan><tspan x="0" y="50">ないか確認</tspan></text>
    <g id="Rectangle_572" data-name="Rectangle 572" transform="translate(169 362)" fill="none" stroke="#ed3833" stroke-linecap="round" stroke-linejoin="round" stroke-width="3" stroke-dasharray="8">
      <rect width="137" height="165" stroke="none"/>
      <rect x="1.5" y="1.5" width="134" height="162" fill="none"/>
    </g>
    <text id="ご契約_アンケートお渡し" data-name="ご契約・アンケートお渡し" transform="translate(169 592)" fill="#363636" font-size="13" font-family="NotoSansJP-Bold, Noto Sans JP" font-weight="700"><tspan x="-77.74" y="0">ご契約・アンケートお渡し</tspan></text>
    <text id="アンケート結果をもとにヒアリング" transform="translate(169 780)" fill="#363636" font-size="13" font-family="NotoSansJP-Bold, Noto Sans JP" font-weight="700"><tspan x="-103.61" y="0">アンケート結果をもとにヒアリング</tspan></text>
    <g id="Mask_Group_21" data-name="Mask Group 21" transform="translate(-1058 -5528)" clip-path="url(#clip-path)">
      <g id="Group_216" data-name="Group 216" transform="translate(1213.029 6070)">
        <g id="Group_215" data-name="Group 215" clip-path="url(#clip-path-8)">
          <path id="Path_2570" data-name="Path 2570" d="M19.469,6.236A2.937,2.937,0,0,1,16.75,3.12,2.938,2.938,0,0,1,19.469,0a2.939,2.939,0,0,1,2.724,3.12,2.939,2.939,0,0,1-2.724,3.116" transform="translate(3.217 0)" fill="#275695"/>
          <path id="Path_2571" data-name="Path 2571" d="M10.916,10.875l6.12-5.1V5.624a2.209,2.209,0,0,1,.9-.18l1.366.025,1.378,5.084,1.364-5.034,1.38.026A2.741,2.741,0,0,1,25.933,8.4v7.7a2.744,2.744,0,0,1-1.682,2.609V28.954H21.966L20.68,19.112l-1.57,9.842h-2V18.579c-.025-.011-.049-.026-.074-.038V10.119l-4.959,2.988a1,1,0,0,1-1.441-.511,1.376,1.376,0,0,1,.28-1.721" transform="translate(2.009 1.046)" fill="#275695"/>
          <path id="Path_2572" data-name="Path 2572" d="M4.847,6.236A2.939,2.939,0,0,1,2.123,3.12,2.939,2.939,0,0,1,4.847,0,2.938,2.938,0,0,1,7.566,3.12,2.937,2.937,0,0,1,4.847,6.236" transform="translate(0.408 0)" fill="#275695"/>
          <path id="Path_2573" data-name="Path 2573" d="M2.509,5.545,3.89,5.52l1.363,5.033L6.631,5.469,8,5.444a2.014,2.014,0,0,1,.361.029.228.228,0,0,1,.168.032h0a2.357,2.357,0,0,1,.371.119v.211l3.9,3.478c.33.232-.607.713-.925,1.327s-.789.643-1.121.41L8.9,10.01v8.531c-.026.012-.049.027-.075.038V28.954h-2L5.252,19.112,3.967,28.954H1.682V18.711A2.749,2.749,0,0,1,0,16.1V8.4A2.742,2.742,0,0,1,2.509,5.545" transform="translate(0 1.046)" fill="#275695"/>
        </g>
      </g>
    </g>
    <g id="Mask_Group_23" data-name="Mask Group 23" transform="translate(-990 -5444)" clip-path="url(#clip-path-5)">
      <g id="Group_220" data-name="Group 220" transform="translate(1212 6071.525)">
        <g id="Group_219" data-name="Group 219" clip-path="url(#clip-path-10)">
          <path id="Path_2578" data-name="Path 2578" d="M96.755,69.449l-2.087-4.226a.891.891,0,0,0-1.19-.4L84.13,69.436a.891.891,0,0,0-.4,1.19l.428.867.889.452-.138,1.069.93.683-.011.584H82.431l-1.092-1.57-.918,1.767c-.251.482-.038.873.474.869l.842-.007v.008h4.837a.881.881,0,0,0,.43-.09l9.348-4.616a.891.891,0,0,0,.4-1.19" transform="translate(-66.846 -53.873)" fill="#275695"/>
          <path id="Path_2579" data-name="Path 2579" d="M56.464,72.447H47.283a.518.518,0,0,1,0-1.037h9.181a.518.518,0,0,1,0,1.037" transform="translate(-38.922 -59.434)" fill="#275695"/>
          <path id="Path_2580" data-name="Path 2580" d="M53.428,89.664H47.283a.518.518,0,0,1,0-1.037h6.145a.518.518,0,0,1,0,1.037" transform="translate(-38.922 -73.764)" fill="#275695"/>
          <path id="Path_2581" data-name="Path 2581" d="M51.874,108.647h-4.59a.518.518,0,0,1,0-1.037h4.59a.518.518,0,0,1,0,1.037" transform="translate(-38.922 -89.563)" fill="#275695"/>
          <path id="Path_2582" data-name="Path 2582" d="M25.311,4.424A4.336,4.336,0,0,0,21.272,0V0H4.22A4.324,4.324,0,0,0,0,4.39C0,4.4,0,4.4,0,4.406V18.473a.891.891,0,0,0,.889.889H3.583V26.13a.82.82,0,0,0,.82.82H21.568a.82.82,0,0,0,.82-.82V21.814l-1.708.792v2.53H5.291L5.37,9.07h15.31v3.268l1.708-.792V8.633a4.408,4.408,0,0,0,2.922-4.209m-2.29.157a2.683,2.683,0,0,1-2.675,2.675H6.594a2.649,2.649,0,0,1-.824-.132,2.672,2.672,0,0,0,0-5.085,2.649,2.649,0,0,1,.824-.132H20.346A2.683,2.683,0,0,1,23.021,4.582Z" fill="#275695"/>
        </g>
      </g>
    </g>
    <g id="Mask_Group_24" data-name="Mask Group 24" transform="translate(-1058 -5340)" clip-path="url(#clip-path)">
      <g id="Group_223" data-name="Group 223" transform="translate(1212 6071.991)">
        <g id="Group_222" data-name="Group 222" clip-path="url(#clip-path-12)">
          <path id="Path_2583" data-name="Path 2583" d="M102.265,0H91.241a2.708,2.708,0,0,0-2.756,2.641v.616h4.488a4.084,4.084,0,0,1,3.779,3.591v7.74a2.974,2.974,0,0,1-.018.325,12.23,12.23,0,0,0,1.562,1.4,8.409,8.409,0,0,0,4.493,1.415,7.031,7.031,0,0,1-1.672-2.151,2.409,2.409,0,0,1-.034-2h1.181a2.708,2.708,0,0,0,2.756-2.641v-8.3A2.708,2.708,0,0,0,102.265,0" transform="translate(-75.02)" fill="#275695"/>
          <path id="Path_2584" data-name="Path 2584" d="M16.535,32.345H3.307A3.237,3.237,0,0,0,0,35.487v9.875A3.237,3.237,0,0,0,3.307,48.5H4.724a2.844,2.844,0,0,1-.041,2.378,8.383,8.383,0,0,1-2.006,2.559,10.155,10.155,0,0,0,5.391-1.684A11.816,11.816,0,0,0,11.181,48.5h5.354a3.237,3.237,0,0,0,3.307-3.142V35.487a3.237,3.237,0,0,0-3.307-3.142M4.449,43.761a1.618,1.618,0,1,1,0-3.232,1.618,1.618,0,1,1,0,3.232m5.527,0a1.618,1.618,0,1,1,1.7-1.616,1.66,1.66,0,0,1-1.7,1.616m5.417,0a1.618,1.618,0,1,1,1.7-1.616,1.66,1.66,0,0,1-1.7,1.616" transform="translate(0 -27.423)" fill="#275695"/>
        </g>
      </g>
    </g>
    <g id="Mask_Group_8" data-name="Mask Group 8" transform="translate(-1126 -5256)" clip-path="url(#clip-path)">
      <g id="Group_70" data-name="Group 70" transform="translate(1216.019 6070)">
        <rect id="Rectangle_159" data-name="Rectangle 159" width="6.857" height="1.359" transform="translate(10.401 21.985)" fill="#275695"/>
        <path id="Path_269" data-name="Path 269" d="M6.48,20.228,5.346,19.059,4.28,20.092,6.13,22l.009-.009.289.3L9.2,19.6,8.2,18.563Z" transform="translate(0.423 1.833)" fill="#275695"/>
        <g id="Group_71" data-name="Group 71">
          <g id="Group_70-2" data-name="Group 70" clip-path="url(#clip-path-14)">
            <path id="Path_270" data-name="Path 270" d="M19.247,4.56H2.714A2.635,2.635,0,0,0,0,7.092V27.019a2.635,2.635,0,0,0,2.714,2.532H19.247a2.636,2.636,0,0,0,2.714-2.532V7.092A2.636,2.636,0,0,0,19.247,4.56m.01,21.537a.465.465,0,0,1-.48.447H3.183A.466.466,0,0,1,2.7,26.1V8.013a.467.467,0,0,1,.48-.448H18.777a.466.466,0,0,1,.48.448Z" transform="translate(0 0.45)" fill="#275695"/>
            <rect id="Rectangle_160" data-name="Rectangle 160" width="6.857" height="1.359" transform="translate(10.341 11.933)" fill="#275695"/>
            <path id="Path_271" data-name="Path 271" d="M6.085,12.843l.289.3,2.774-2.69L8.143,9.413,6.425,11.079,5.291,9.909,4.225,10.943l1.85,1.909Z" transform="translate(0.417 0.93)" fill="#275695"/>
            <rect id="Rectangle_161" data-name="Rectangle 161" width="6.857" height="1.359" transform="translate(10.401 16.846)" fill="#275695"/>
            <path id="Path_272" data-name="Path 272" d="M6.48,15.551,5.346,14.382,4.28,15.415l1.85,1.909.009-.009.289.3L9.2,14.922,8.2,13.886Z" transform="translate(0.423 1.371)" fill="#275695"/>
            <path id="Path_273" data-name="Path 273" d="M18.179,2.957H14.545a3.5,3.5,0,0,0-6.922,0h-4V4.078H18.179Zm-7.1-1.626a2.183,2.183,0,0,1,2.1,1.626H8.978a2.185,2.185,0,0,1,2.105-1.626" transform="translate(0.358 0)" fill="#275695"/>
          </g>
        </g>
      </g>
    </g>
    <g id="Group_9" data-name="Group 9" transform="translate(-1126 -5152)" clip-path="url(#clip-path)">
      <g id="Group_72" data-name="Group 72" transform="translate(1212 6070.291)">
        <g id="Group_72-2" data-name="Group 72" clip-path="url(#clip-path-16)">
          <path id="Path_274" data-name="Path 274" d="M24.552,11.127a2,2,0,0,1-2.82.021l-3.239-3.19a2,2,0,0,1-.021-2.821L23.279.257A9.263,9.263,0,0,0,21.108,0a8.711,8.711,0,0,0-8.892,8.517,8.163,8.163,0,0,0,.469,2.726L1.308,22.639A3.837,3.837,0,0,0,0,25.512a3.97,3.97,0,0,0,4.031,3.907,4.079,4.079,0,0,0,2.861-1.157l11.587-11.6a9.226,9.226,0,0,0,2.629.379A8.712,8.712,0,0,0,30,8.517,8.186,8.186,0,0,0,29.6,6ZM4.125,26.841A1.579,1.579,0,1,1,5.7,25.262a1.58,1.58,0,0,1-1.579,1.579" transform="translate(0 0)" fill="#275695"/>
        </g>
      </g>
    </g>
  </g>
</svg>
