<svg xmlns="http://www.w3.org/2000/svg" xmlns:xlink="http://www.w3.org/1999/xlink" width="1145" height="625" viewBox="0 0 1145 625">
  <defs>
    <clipPath id="clip-path">
      <rect id="Rectangle_114" data-name="Rectangle 114" width="30" height="30" transform="translate(1212 6070)" fill="#fff" stroke="#707070" stroke-width="1"/>
    </clipPath>
    <clipPath id="clip-path-2">
      <rect id="Rectangle_118" data-name="Rectangle 118" width="30" height="21.606" fill="#275695"/>
    </clipPath>
    <clipPath id="clip-path-4">
      <rect id="Rectangle_117" data-name="Rectangle 117" width="30" height="26.95" fill="#275695"/>
    </clipPath>
    <clipPath id="clip-path-5">
      <rect id="Rectangle_149" data-name="Rectangle 149" width="30" height="30" transform="translate(1212 6070)" fill="#275695" stroke="#707070" stroke-width="1"/>
    </clipPath>
    <clipPath id="clip-path-6">
      <rect id="Rectangle_147" data-name="Rectangle 147" width="30" height="26.018" fill="#275695"/>
    </clipPath>
    <clipPath id="clip-path-8">
      <rect id="Rectangle_162" data-name="Rectangle 162" width="21.961" height="30" fill="#275695"/>
    </clipPath>
    <clipPath id="clip-path-10">
      <rect id="Rectangle_165" data-name="Rectangle 165" width="30" height="29.419" fill="#275695"/>
    </clipPath>
    <clipPath id="clip-path-12">
      <rect id="Rectangle_144" data-name="Rectangle 144" width="27.941" height="30" fill="#275695"/>
    </clipPath>
    <clipPath id="clip-path-14">
      <rect id="Rectangle_130" data-name="Rectangle 130" width="25.184" height="30" fill="#275695"/>
    </clipPath>
  </defs>
  <g id="Group_147" data-name="Group 147" transform="translate(-170 -5116)">
    <line id="Line_27" data-name="Line 27" y2="550" transform="translate(538 5162)" fill="none" stroke="#d2e4fd" stroke-width="21"/>
    <line id="Line_28" data-name="Line 28" y2="550" transform="translate(1062.5 5162)" fill="none" stroke="#d2e4fd" stroke-width="21"/>
    <rect id="Rectangle_136" data-name="Rectangle 136" width="1020" height="59" transform="translate(290 5682)" fill="#275695"/>
    <g id="Rectangle_123" data-name="Rectangle 123" transform="translate(290 5184)" fill="#fff" stroke="#d2e4fd" stroke-width="4">
      <rect width="495" height="54" stroke="none"/>
      <rect x="2" y="2" width="491" height="50" fill="none"/>
    </g>
    <g id="Rectangle_419" data-name="Rectangle 419" transform="translate(290 5554)" fill="#fff" stroke="#d2e4fd" stroke-width="4">
      <rect width="495" height="54" stroke="none"/>
      <rect x="2" y="2" width="491" height="50" fill="none"/>
    </g>
    <g id="Rectangle_420" data-name="Rectangle 420" transform="translate(290 5618)" fill="#fff" stroke="#d2e4fd" stroke-width="4">
      <rect width="495" height="54" stroke="none"/>
      <rect x="2" y="2" width="491" height="50" fill="none"/>
    </g>
    <g id="Rectangle_411" data-name="Rectangle 411" transform="translate(815 5184)" fill="#fff" stroke="#d2e4fd" stroke-width="4">
      <rect width="495" height="54" stroke="none"/>
      <rect x="2" y="2" width="491" height="50" fill="none"/>
    </g>
    <g id="Rectangle_417" data-name="Rectangle 417" transform="translate(815 5426)" fill="#fff" stroke="#d2e4fd" stroke-width="4">
      <rect width="495" height="54" stroke="none"/>
      <rect x="2" y="2" width="491" height="50" fill="none"/>
    </g>
    <g id="Rectangle_416" data-name="Rectangle 416" transform="translate(290 5362)" fill="#fff" stroke="#d2e4fd" stroke-width="4">
      <rect width="1020" height="54" stroke="none"/>
      <rect x="2" y="2" width="1016" height="50" fill="none"/>
    </g>
    <g id="Rectangle_418" data-name="Rectangle 418" transform="translate(290 5490)" fill="#fff" stroke="#d2e4fd" stroke-width="4">
      <rect width="1020" height="54" stroke="none"/>
      <rect x="2" y="2" width="1016" height="50" fill="none"/>
    </g>
    <g id="Rectangle_412" data-name="Rectangle 412" transform="translate(815 5248)" fill="#fff" stroke="#d2e4fd" stroke-width="4">
      <rect width="495" height="104" stroke="none"/>
      <rect x="2" y="2" width="491" height="100" fill="none"/>
    </g>
    <text id="お客様自身で自社運用に仕様面の問題がないか確認" transform="translate(1063 5314)" fill="#363636" font-size="14" font-family="NotoSansJP-Regular, Noto Sans JP"><tspan x="-161" y="0">お客様自身で自社運用に仕様面の問題がないか確認</tspan></text>
    <path id="Rectangle_108" data-name="Rectangle 108" d="M20,0H475a20,20,0,0,1,20,20V58a0,0,0,0,1,0,0H0a0,0,0,0,1,0,0V20A20,20,0,0,1,20,0Z" transform="translate(290 5116)" fill="#d2e4fd"/>
    <path id="Rectangle_410" data-name="Rectangle 410" d="M20,0H475a20,20,0,0,1,20,20V58a0,0,0,0,1,0,0H0a0,0,0,0,1,0,0V20A20,20,0,0,1,20,0Z" transform="translate(815 5116)" fill="#d2e4fd"/>
    <text id="納品" transform="translate(800 5721)" fill="#fff" font-size="24" font-family="YuGothicUI-Regular, Yu Gothic UI"><tspan x="-24" y="0">納品</tspan></text>
    <text id="お問い合わせ" transform="translate(1029 5219)" fill="#363636" font-size="18" font-family="NotoSansJP-Bold, Noto Sans JP" font-weight="700"><tspan x="0" y="0">お問い合わせ</tspan></text>
    <text id="アンケート回答" transform="translate(1020 5461)" fill="#363636" font-size="18" font-family="NotoSansJP-Bold, Noto Sans JP" font-weight="700"><tspan x="0" y="0">アンケート回答</tspan></text>
    <text id="ご契約_アンケートお渡し" data-name="ご契約・アンケートお渡し" transform="translate(825 5397)" fill="#363636" font-size="18" font-family="NotoSansJP-Bold, Noto Sans JP" font-weight="700"><tspan x="-107.64" y="0">ご契約・アンケートお渡し</tspan></text>
    <text id="事前調査シートお渡し" transform="translate(468 5219)" fill="#363636" font-size="18" font-family="NotoSansJP-Bold, Noto Sans JP" font-weight="700"><tspan x="0" y="0">事前調査シートお渡し</tspan></text>
    <g id="Mask_Group_1" data-name="Mask Group 1" transform="translate(-223 -874)" clip-path="url(#clip-path)">
      <g id="Group_56" data-name="Group 56" transform="translate(1212 6074.197)">
        <g id="Group_56-2" data-name="Group 56" clip-path="url(#clip-path-2)">
          <path id="Path_248" data-name="Path 248" d="M15,14.627,0,3.76V18.5a2.971,2.971,0,0,0,2.963,2.963H27.036A2.972,2.972,0,0,0,30,18.5V3.773Z" transform="translate(0 0.141)" fill="#275695"/>
          <path id="Path_249" data-name="Path 249" d="M14.99,12.333,29.7,1.691A2.969,2.969,0,0,0,27.026,0H2.953A2.97,2.97,0,0,0,.287,1.681Z" transform="translate(0.011 0)" fill="#275695"/>
        </g>
      </g>
    </g>
    <g id="Mask_Group_2" data-name="Mask Group 2" transform="translate(-232 -632)" clip-path="url(#clip-path)">
      <g id="Group_57" data-name="Group 57" transform="translate(1212 6071.525)">
        <g id="Group_54" data-name="Group 54" clip-path="url(#clip-path-4)">
          <path id="Path_243" data-name="Path 243" d="M96.755,69.449l-2.087-4.226a.891.891,0,0,0-1.19-.4L84.13,69.436a.891.891,0,0,0-.4,1.19l.428.867.889.452-.138,1.069.93.683-.011.584H82.431l-1.092-1.57-.918,1.767c-.251.482-.038.873.474.869l.842-.007v.008h4.837a.881.881,0,0,0,.43-.09l9.348-4.616a.891.891,0,0,0,.4-1.19" transform="translate(-66.846 -53.873)" fill="#275695"/>
          <path id="Path_244" data-name="Path 244" d="M56.464,72.447H47.283a.518.518,0,0,1,0-1.037h9.181a.518.518,0,0,1,0,1.037" transform="translate(-38.922 -59.434)" fill="#275695"/>
          <path id="Path_245" data-name="Path 245" d="M53.428,89.664H47.283a.518.518,0,0,1,0-1.037h6.145a.518.518,0,0,1,0,1.037" transform="translate(-38.922 -73.764)" fill="#275695"/>
          <path id="Path_246" data-name="Path 246" d="M51.874,108.647h-4.59a.518.518,0,0,1,0-1.037h4.59a.518.518,0,0,1,0,1.037" transform="translate(-38.922 -89.563)" fill="#275695"/>
          <path id="Path_247" data-name="Path 247" d="M25.311,4.424A4.336,4.336,0,0,0,21.272,0V0H4.22A4.324,4.324,0,0,0,0,4.39C0,4.4,0,4.4,0,4.406V18.473a.891.891,0,0,0,.889.889H3.583V26.13a.82.82,0,0,0,.82.82H21.568a.82.82,0,0,0,.82-.82V21.814l-1.708.792v2.53H5.291L5.37,9.07h15.31v3.268l1.708-.792V8.633a4.408,4.408,0,0,0,2.922-4.209m-2.29.157a2.683,2.683,0,0,1-2.675,2.675H6.594a2.649,2.649,0,0,1-.824-.132,2.672,2.672,0,0,0,0-5.085,2.649,2.649,0,0,1,.824-.132H20.346A2.683,2.683,0,0,1,23.021,4.582Z" fill="#275695"/>
        </g>
      </g>
    </g>
    <g id="Group_140" data-name="Group 140">
      <text id="アンケート結果をもとにヒアリング" transform="translate(820 5527)" fill="#363636" font-size="18" font-family="NotoSansJP-Bold, Noto Sans JP" font-weight="700"><tspan x="-143.46" y="0">アンケート結果をもとにヒアリング</tspan></text>
      <g id="Mask_Group_7" data-name="Mask Group 7" transform="translate(-575 -566)" clip-path="url(#clip-path-5)">
        <g id="Group_68" data-name="Group 68" transform="translate(1212 6071.991)">
          <g id="Group_68-2" data-name="Group 68" clip-path="url(#clip-path-6)">
            <path id="Path_267" data-name="Path 267" d="M102.265,0H91.241a2.708,2.708,0,0,0-2.756,2.641v.616h4.488a4.084,4.084,0,0,1,3.779,3.591v7.74a2.974,2.974,0,0,1-.018.325,12.23,12.23,0,0,0,1.562,1.4,8.409,8.409,0,0,0,4.493,1.415,7.031,7.031,0,0,1-1.672-2.151,2.409,2.409,0,0,1-.034-2h1.181a2.708,2.708,0,0,0,2.756-2.641v-8.3A2.708,2.708,0,0,0,102.265,0" transform="translate(-75.02)" fill="#275695"/>
            <path id="Path_268" data-name="Path 268" d="M16.535,32.345H3.307A3.237,3.237,0,0,0,0,35.487v9.875A3.237,3.237,0,0,0,3.307,48.5H4.724a2.844,2.844,0,0,1-.041,2.378,8.383,8.383,0,0,1-2.006,2.559,10.155,10.155,0,0,0,5.391-1.684A11.816,11.816,0,0,0,11.181,48.5h5.354a3.237,3.237,0,0,0,3.307-3.142V35.487a3.237,3.237,0,0,0-3.307-3.142M4.449,43.761a1.618,1.618,0,1,1,0-3.232,1.618,1.618,0,1,1,0,3.232m5.527,0a1.618,1.618,0,1,1,1.7-1.616,1.66,1.66,0,0,1-1.7,1.616m5.417,0a1.618,1.618,0,1,1,1.7-1.616,1.66,1.66,0,0,1-1.7,1.616" transform="translate(0 -27.423)" fill="#275695"/>
          </g>
        </g>
      </g>
    </g>
    <g id="Group_141" data-name="Group 141" transform="translate(0 2)">
      <text id="仕様書作成" transform="translate(513 5587)" fill="#363636" font-size="18" font-family="NotoSansJP-Bold, Noto Sans JP" font-weight="700"><tspan x="0" y="0">仕様書作成</tspan></text>
      <g id="Mask_Group_8" data-name="Mask Group 8" transform="translate(-739 -506)" clip-path="url(#clip-path-5)">
        <g id="Group_70" data-name="Group 70" transform="translate(1216.019 6070)">
          <rect id="Rectangle_159" data-name="Rectangle 159" width="6.857" height="1.359" transform="translate(10.401 21.985)" fill="#275695"/>
          <path id="Path_269" data-name="Path 269" d="M6.48,20.228,5.346,19.059,4.28,20.092,6.13,22l.009-.009.289.3L9.2,19.6,8.2,18.563Z" transform="translate(0.423 1.833)" fill="#275695"/>
          <g id="Group_71" data-name="Group 71">
            <g id="Group_70-2" data-name="Group 70" clip-path="url(#clip-path-8)">
              <path id="Path_270" data-name="Path 270" d="M19.247,4.56H2.714A2.635,2.635,0,0,0,0,7.092V27.019a2.635,2.635,0,0,0,2.714,2.532H19.247a2.636,2.636,0,0,0,2.714-2.532V7.092A2.636,2.636,0,0,0,19.247,4.56m.01,21.537a.465.465,0,0,1-.48.447H3.183A.466.466,0,0,1,2.7,26.1V8.013a.467.467,0,0,1,.48-.448H18.777a.466.466,0,0,1,.48.448Z" transform="translate(0 0.45)" fill="#275695"/>
              <rect id="Rectangle_160" data-name="Rectangle 160" width="6.857" height="1.359" transform="translate(10.341 11.933)" fill="#275695"/>
              <path id="Path_271" data-name="Path 271" d="M6.085,12.843l.289.3,2.774-2.69L8.143,9.413,6.425,11.079,5.291,9.909,4.225,10.943l1.85,1.909Z" transform="translate(0.417 0.93)" fill="#275695"/>
              <rect id="Rectangle_161" data-name="Rectangle 161" width="6.857" height="1.359" transform="translate(10.401 16.846)" fill="#275695"/>
              <path id="Path_272" data-name="Path 272" d="M6.48,15.551,5.346,14.382,4.28,15.415l1.85,1.909.009-.009.289.3L9.2,14.922,8.2,13.886Z" transform="translate(0.423 1.371)" fill="#275695"/>
              <path id="Path_273" data-name="Path 273" d="M18.179,2.957H14.545a3.5,3.5,0,0,0-6.922,0h-4V4.078H18.179Zm-7.1-1.626a2.183,2.183,0,0,1,2.1,1.626H8.978a2.185,2.185,0,0,1,2.105-1.626" transform="translate(0.358 0)" fill="#275695"/>
            </g>
          </g>
        </g>
      </g>
    </g>
    <g id="Group_142" data-name="Group 142" transform="translate(0 -12)">
      <text id="設計" transform="translate(540 5665)" fill="#363636" font-size="18" font-family="NotoSansJP-Bold, Noto Sans JP" font-weight="700"><tspan x="0" y="0">設計</tspan></text>
      <g id="Group_9" data-name="Group 9" transform="translate(-712 -428)" clip-path="url(#clip-path-5)">
        <g id="Group_72" data-name="Group 72" transform="translate(1212 6070.291)">
          <g id="Group_72-2" data-name="Group 72" clip-path="url(#clip-path-10)">
            <path id="Path_274" data-name="Path 274" d="M24.552,11.127a2,2,0,0,1-2.82.021l-3.239-3.19a2,2,0,0,1-.021-2.821L23.279.257A9.263,9.263,0,0,0,21.108,0a8.711,8.711,0,0,0-8.892,8.517,8.163,8.163,0,0,0,.469,2.726L1.308,22.639A3.837,3.837,0,0,0,0,25.512a3.97,3.97,0,0,0,4.031,3.907,4.079,4.079,0,0,0,2.861-1.157l11.587-11.6a9.226,9.226,0,0,0,2.629.379A8.712,8.712,0,0,0,30,8.517,8.186,8.186,0,0,0,29.6,6ZM4.125,26.841A1.579,1.579,0,1,1,5.7,25.262a1.58,1.58,0,0,1-1.579,1.579" transform="translate(0 0)" fill="#275695"/>
          </g>
        </g>
      </g>
    </g>
    <g id="Mask_Group_6" data-name="Mask Group 6" transform="translate(-545 -696)" clip-path="url(#clip-path-5)">
      <g id="Group_67" data-name="Group 67" transform="translate(1213.029 6070)">
        <g id="Group_67-2" data-name="Group 67" clip-path="url(#clip-path-12)">
          <path id="Path_263" data-name="Path 263" d="M19.469,6.236A2.937,2.937,0,0,1,16.75,3.12,2.938,2.938,0,0,1,19.469,0a2.939,2.939,0,0,1,2.724,3.12,2.939,2.939,0,0,1-2.724,3.116" transform="translate(3.217 0)" fill="#275695"/>
          <path id="Path_264" data-name="Path 264" d="M10.916,10.875l6.12-5.1V5.624a2.209,2.209,0,0,1,.9-.18l1.366.025,1.378,5.084,1.364-5.034,1.38.026A2.741,2.741,0,0,1,25.933,8.4v7.7a2.744,2.744,0,0,1-1.682,2.609V28.954H21.966L20.68,19.112l-1.57,9.842h-2V18.579c-.025-.011-.049-.026-.074-.038V10.119l-4.959,2.988a1,1,0,0,1-1.441-.511,1.376,1.376,0,0,1,.28-1.721" transform="translate(2.009 1.046)" fill="#275695"/>
          <path id="Path_265" data-name="Path 265" d="M4.847,6.236A2.939,2.939,0,0,1,2.123,3.12,2.939,2.939,0,0,1,4.847,0,2.938,2.938,0,0,1,7.566,3.12,2.937,2.937,0,0,1,4.847,6.236" transform="translate(0.408 0)" fill="#275695"/>
          <path id="Path_266" data-name="Path 266" d="M2.509,5.545,3.89,5.52l1.363,5.033L6.631,5.469,8,5.444a2.014,2.014,0,0,1,.361.029.228.228,0,0,1,.168.032h0a2.357,2.357,0,0,1,.371.119v.211l3.9,3.478c.33.232-.607.713-.925,1.327s-.789.643-1.121.41L8.9,10.01v8.531c-.026.012-.049.027-.075.038V28.954h-2L5.252,19.112,3.967,28.954H1.682V18.711A2.749,2.749,0,0,1,0,16.1V8.4A2.742,2.742,0,0,1,2.509,5.545" transform="translate(0 1.046)" fill="#275695"/>
        </g>
      </g>
    </g>
    <g id="Group_139" data-name="Group 139">
      <text id="事前調査シートご確認" transform="translate(993 5283)" fill="#363636" font-size="18" font-family="NotoSansJP-Bold, Noto Sans JP" font-weight="700"><tspan x="0" y="0">事前調査シートご確認</tspan></text>
      <g id="Mask_Group_4" data-name="Mask Group 4" transform="translate(-259 -810)" clip-path="url(#clip-path-5)">
        <g id="Group_64" data-name="Group 64" transform="translate(1214.408 6070)">
          <g id="Group_60" data-name="Group 60" clip-path="url(#clip-path-14)">
            <path id="Path_255" data-name="Path 255" d="M17.514,14.047v-.058a.745.745,0,0,0-.743-.743H5.087a.744.744,0,0,0-.742.743v.058a.744.744,0,0,0,.742.743H16.771a.745.745,0,0,0,.743-.743" transform="translate(-0.127 -0.386)" fill="#275695"/>
            <rect id="Rectangle_128" data-name="Rectangle 128" width="13.169" height="1.544" rx="0.765" transform="translate(4.219 9.876)" fill="#275695"/>
            <rect id="Rectangle_129" data-name="Rectangle 129" width="5.444" height="1.544" rx="0.765" transform="translate(4.218 18.93)" fill="#275695"/>
            <path id="Path_256" data-name="Path 256" d="M11.393,17.226v-.058a.745.745,0,0,0-.743-.743H5.087a.745.745,0,0,0-.743.743v.058a.745.745,0,0,0,.743.743H10.65a.745.745,0,0,0,.743-.743" transform="translate(-0.127 -0.479)" fill="#275695"/>
            <path id="Path_257" data-name="Path 257" d="M1.441,26.442v-25H14.3V6.174a1.441,1.441,0,0,0,1.441,1.44h4.116v7.757a7.647,7.647,0,0,1,1.44.482V6.174a1.44,1.44,0,0,0-.365-.958L16.714.483A1.438,1.438,0,0,0,15.639,0H1.441A1.441,1.441,0,0,0,0,1.441v25a1.441,1.441,0,0,0,1.441,1.44h10.69a7.727,7.727,0,0,1-.939-1.44Zm14.3-24.885,4.116,4.617H15.742Z" transform="translate(0 0)" fill="#275695"/>
            <path id="Path_258" data-name="Path 258" d="M18.464,16.373a7.052,7.052,0,1,0,7.052,7.052,7.052,7.052,0,0,0-7.052-7.052m3.529,5.889-3.652,3.652a.427.427,0,0,1-.3.125.384.384,0,0,1-.083-.009.428.428,0,0,1-.494-.079l-2.34-2.341a.424.424,0,0,1,0-.6l.586-.587a.427.427,0,0,1,.6,0l1.572,1.572,2.92-2.921a.428.428,0,0,1,.6,0l.586.587a.424.424,0,0,1,0,.6" transform="translate(-0.332 -0.477)" fill="#275695"/>
          </g>
        </g>
      </g>
    </g>
    <path id="Exclusion_4" data-name="Exclusion 4" d="M-2009,55l-50-12V0h.005L-2009,12l50-12V43l-50,12Z" transform="translate(2229 5618)" fill="#275695"/>
    <path id="Exclusion_5" data-name="Exclusion 5" d="M-2009,55l-50-12V0h.005L-2009,12l50-12V43l-50,12Z" transform="translate(2229 5555)" fill="#275695"/>
    <path id="Exclusion_6" data-name="Exclusion 6" d="M-2009,55l-50-12V0h.005L-2009,12l50-12V43l-50,12Z" transform="translate(2229 5490)" fill="#275695"/>
    <g id="Mask_Group_5" data-name="Mask Group 5" transform="translate(-784 -874)" clip-path="url(#clip-path-5)">
      <g id="Group_66" data-name="Group 66" transform="translate(1214.408 6070)">
        <g id="Group_65" data-name="Group 65" clip-path="url(#clip-path-14)">
          <path id="Path_259" data-name="Path 259" d="M17.514,14.047v-.058a.745.745,0,0,0-.743-.743H5.087a.744.744,0,0,0-.742.743v.058a.744.744,0,0,0,.742.743H16.771a.745.745,0,0,0,.743-.743" transform="translate(-0.127 -0.386)" fill="#275695"/>
          <rect id="Rectangle_140" data-name="Rectangle 140" width="13.169" height="1.544" rx="0.765" transform="translate(4.219 9.876)" fill="#275695"/>
          <rect id="Rectangle_141" data-name="Rectangle 141" width="5.444" height="1.544" rx="0.765" transform="translate(4.218 18.93)" fill="#275695"/>
          <path id="Path_260" data-name="Path 260" d="M11.393,17.226v-.058a.745.745,0,0,0-.743-.743H5.087a.745.745,0,0,0-.743.743v.058a.745.745,0,0,0,.743.743H10.65a.745.745,0,0,0,.743-.743" transform="translate(-0.127 -0.479)" fill="#275695"/>
          <path id="Path_261" data-name="Path 261" d="M1.441,26.442v-25H14.3V6.174a1.441,1.441,0,0,0,1.441,1.44h4.116v7.757a7.647,7.647,0,0,1,1.44.482V6.174a1.44,1.44,0,0,0-.365-.958L16.714.483A1.438,1.438,0,0,0,15.639,0H1.441A1.441,1.441,0,0,0,0,1.441v25a1.441,1.441,0,0,0,1.441,1.44h10.69a7.727,7.727,0,0,1-.939-1.44Zm14.3-24.885,4.116,4.617H15.742Z" transform="translate(0 0)" fill="#275695"/>
          <path id="Path_262" data-name="Path 262" d="M18.464,16.373a7.052,7.052,0,1,0,7.052,7.052,7.052,7.052,0,0,0-7.052-7.052m3.529,5.889-3.652,3.652a.427.427,0,0,1-.3.125.384.384,0,0,1-.083-.009.428.428,0,0,1-.494-.079l-2.34-2.341a.424.424,0,0,1,0-.6l.586-.587a.427.427,0,0,1,.6,0l1.572,1.572,2.92-2.921a.428.428,0,0,1,.6,0l.586.587a.424.424,0,0,1,0,.6" transform="translate(-0.332 -0.477)" fill="#275695"/>
        </g>
      </g>
    </g>
    <text id="_2週間" data-name="2週間" transform="translate(220 5655)" fill="#fff" font-size="23" font-family="NotoSansJP-Bold, Noto Sans JP" font-weight="700"><tspan x="-29.774" y="0">2週間</tspan></text>
    <text id="_1週間" data-name="1週間" transform="translate(220 5593)" fill="#fff" font-size="23" font-family="NotoSansJP-Bold, Noto Sans JP" font-weight="700"><tspan x="-29.774" y="0">1週間</tspan></text>
    <text id="_2週間-2" data-name="2週間" transform="translate(220 5529)" fill="#fff" font-size="23" font-family="NotoSansJP-Bold, Noto Sans JP" font-weight="700"><tspan x="-29.774" y="0">2週間</tspan></text>
    <g id="Rectangle_413" data-name="Rectangle 413" transform="translate(812 5245)" fill="none" stroke="#ed3833" stroke-linecap="round" stroke-linejoin="round" stroke-width="3" stroke-dasharray="8">
      <rect width="503" height="111" stroke="none"/>
      <rect x="1.5" y="1.5" width="500" height="108" fill="none"/>
    </g>
    <text id="Kinnosuke導入テンプレート版" transform="translate(538 5157)" fill="#275695" font-size="26" font-family="NotoSansJP-Bold, Noto Sans JP" font-weight="700"><tspan x="-183.976" y="0">Kinnosuke導入テンプレート版</tspan></text>
    <text id="お客様" transform="translate(1063 5157)" fill="#275695" font-size="26" font-family="NotoSansJP-Bold, Noto Sans JP" font-weight="700"><tspan x="-39" y="0">お客様</tspan></text>
  </g>
</svg>
