<svg xmlns="http://www.w3.org/2000/svg" xmlns:xlink="http://www.w3.org/1999/xlink" width="1600" height="924" viewBox="0 0 1600 924">
  <defs>
    <clipPath id="clip-path">
      <rect id="Rectangle_110" data-name="Rectangle 110" width="504.845" height="685" fill="#fff"/>
    </clipPath>
  </defs>
  <g id="Group_143" data-name="Group 143" transform="translate(0 -2608)">
    <rect id="Rectangle_81" data-name="Rectangle 81" width="1600" height="924" transform="translate(0 2608)" fill="#f0f5fc"/>
    <g id="Group_51" data-name="Group 51" transform="translate(1095.155 2664)">
      <g id="Group_50" data-name="Group 50" clip-path="url(#clip-path)">
        <path id="Path_239" data-name="Path 239" d="M504.723,518.917c-.541,17.6-.5,35.236-.023,52.831.225,8.651-3.492,11.265-11.4,10.746-13.427-.9-26.945-.811-40.282-2.275-51.389-5.677-96.831-25.8-134.928-60.424-19.217-17.46-35.574-38.052-53.349-57.36-43.1,98.588-113.773,173.52-211.753,222.544C53.1,686.2,1.149,630.008.023,628.251L0,628.206c114.336-52.516,188.953-135.2,215.56-255.572,27.013-122.266-5.294-230.5-88.382-325.187L183.23,0c45.216,49.992,78.154,107.014,97.912,172.642,3.988-4.6,6.646-7.705,9.35-10.769C344,101.539,410.8,71.17,491.746,72.139c9.643.113,13.4,3.087,13,13-.631,16.086-.789,32.262.045,48.325.563,10.634-3.244,13.473-13.4,12.932-31.271-1.712-60.987,5.227-88.923,19.127C348.73,192.287,296.215,257.374,303.9,339.381c7.052,75.383,45.622,127.268,114.742,156.826,23.746,10.161,48.956,13.4,74.662,12.211,7.908-.36,11.693,1.69,11.422,10.5" fill="#fff"/>
      </g>
    </g>
    <path id="Polygon_1" data-name="Polygon 1" d="M165,0,330,60H0Z" transform="translate(965 2668) rotate(180)" fill="#fff"/>
  </g>
</svg>
