<svg xmlns="http://www.w3.org/2000/svg" xmlns:xlink="http://www.w3.org/1999/xlink" width="1600" height="900" viewBox="0 0 1600 900">
  <defs>
    <clipPath id="clip-path">
      <rect id="Rectangle_365" data-name="Rectangle 365" width="964.874" height="992.302" fill="#d2e4fd"/>
    </clipPath>
    <clipPath id="clip-Artboard_1">
      <rect width="1600" height="900"/>
    </clipPath>
  </defs>
  <g id="Artboard_1" data-name="Artboard – 1" clip-path="url(#clip-Artboard_1)">
    <rect width="1600" height="900" fill="#fff"/>
    <g id="Group_123" data-name="Group 123" transform="translate(779 -111.151)">
      <g id="Group_122" data-name="Group 122" clip-path="url(#clip-path)">
        <path id="Path_2537" data-name="Path 2537" d="M297.145,304.265C258.892,232.34,220.7,160.536,180.935,85.773,243.955,29.3,320.112-4.85,411.55.56c81.609,4.83,154.615,32.168,217.8,84.272,58.1,47.908,84.386,111.887,84.58,184.627.175,65.682-8.8,131.346-10.342,197.1-.459,19.7,5.156,44.013,17.225,58.685,34.474,41.925,38.362,87.333,31.926,138.15-2.862,22.617-1.117,50.093,9.491,69.4,59.741,108.736-36.159,214.6-141.145,223.424-53.341,4.486-106.278,17.708-158.491,30.61-55.932,13.826-107.4-.99-159.167-17.352-28.672-9.068-56.215-23.353-85.473-28.431-27.573-4.788-56.837-2.047-85.153.06-31.437,2.342-62.651,7.722-96.232,7.064,106.912-72.034,186.39-164.094,232.45-277.708,35.5,34.015,68.719,71.007,107.2,101.388,45.752,36.116,100.579,52.611,159.553,55.068,20.9.875,30.079-6.611,29.33-27.06-.254-6.991.078-14,.054-21-.139-44.14-.145-44.14-45.143-49.966-88.486-11.465-169.032-87.4-187.489-176.748-20.02-96.9,20.111-194.891,104.238-242.038,29.681-16.633,64.795-25.339,98.538-32.518,22.1-4.7,30.459-11.954,30.423-34.7-.109-71.339-1.189-72.148-72.589-58.938-72.384,13.4-128.684,53.48-179.815,102.988-7,6.786-13.337,14.261-16.181,17.322" transform="translate(184.232 -0.004)" fill="#d2e4fd"/>
        <path id="Path_2538" data-name="Path 2538" d="M130.269,750.622C125,717.838,119.6,693.609,117.5,669.1c-4.311-50.432-20.92-96.975-53-134.939C7.11,466.23-4.416,388.226,1.32,303.839,6.253,231.268,32.812,172.245,98.784,135.3c10.475-5.862,21.125-11.918,32.428-15.734,57.356-19.338,113.1-41.242,155.013-93.515C383.9,143.139,417.812,272.782,389.895,415.244c-29.306,149.507-115.3,259.885-259.625,335.378" transform="translate(0.002 131.242)" fill="#d2e4fd"/>
      </g>
    </g>
    <path id="Rectangle_367" data-name="Rectangle 367" d="M20,0H2001.535a0,0,0,0,1,0,0V494a0,0,0,0,1,0,0H20A20,20,0,0,1,0,474V20A20,20,0,0,1,20,0Z" transform="translate(-661.893 195.25) rotate(-20)" fill="#275695"/>
    <text id="導入_諦めないで_" data-name="導入、諦めないで！" transform="translate(197.704 342.206) rotate(-20)" fill="#fff" font-size="59" font-family="NotoSansJP-Black, Noto Sans JP" font-weight="800"><tspan x="0" y="0">導入、諦めないで！</tspan></text>
  </g>
</svg>
